<svg version="1.1" xmlns="http://www.w3.org/2000/svg" xmlns:xlink="http://www.w3.org/1999/xlink" width="150.04303" height="243.55129" viewBox="0,0,150.04303,243.55129"><g transform="translate(-164.9785,-56.4721)"><g data-paper-data="{&quot;isPaintingLayer&quot;:true}" fill-rule="nonzero" stroke-linejoin="miter" stroke-miterlimit="10" stroke-dasharray="" stroke-dashoffset="0" style="mix-blend-mode: normal"><path d="M170.77993,126.86508c0,-1.65654 -5.80143,-1.9233 -5.80143,-1.9233c0,0 6.69584,-8.87746 7.35214,-11.71771c6.65986,-28.82218 23.99043,-56.21969 66.68631,-56.74538c45.68643,-0.56252 68.23702,35.01087 68.23702,70.3864c0,0.66795 3.07779,7.31159 4.43041,10.36634c2.27861,5.14598 3.33715,7.45866 3.33715,7.45866c0,0 -2.64733,-1.66693 -4.82385,-3.56682c-2.14071,-1.86864 -3.80963,-3.97893 -3.99144,-3.01508c-0.43459,2.30399 -0.59561,10.92242 -4.12876,19.9176c-3.49395,8.89536 -10.36285,18.18124 -10.36285,18.18124c0,0 -2.29192,-5.28642 -3.77673,-3.14158c-6.07718,8.77862 -11.2964,15.30957 -11.2964,15.30957c0,0 -2.40974,-4.97718 -4.47106,-3.86765c-9.32569,5.01966 -20.06286,7.91078 -31.65348,7.91078c-12.60656,0 -24.772,-3.56633 -35.27102,-9.52744c-2.72845,-1.54916 -0.82623,4.38789 -0.82623,4.38789c0,0 -7.93843,-5.19677 -13.15685,-11.00681c-6.08759,-6.77777 -9.73663,-14.57056 -12.13914,-18.68944c-0.34082,-0.58431 -4.01999,1.58785 -5.934,2.01254c-2.96082,0.65696 -4.48364,-0.08182 -4.48364,-0.08182c0,0 2.67098,-3.37669 3.55098,-5.15497c0.94364,-1.90688 1.93325,-5.92746 1.93325,-5.92746c0,0 -2.66402,1.90888 -4.05965,2.38502c-1.48595,0.50696 -4.60208,0.57008 -4.60208,0.57008c0,0 4.39229,-5.64339 5.74307,-11.5602c1.27257,-5.57422 -0.4917,-11.39111 -0.4917,-12.96047z" fill="#000000" stroke="#000000" stroke-width="0" stroke-linecap="butt"/><g stroke-linecap="butt"><path d="M206.13331,299.02339l15.14285,-131.8421l37.78325,-0.15789l13.57389,132z" fill="#ffffff" stroke="#000000" stroke-width="2"/><path d="M273.12267,226.16543c-0.00362,0.08726 0.02568,23.57555 -0.42118,23.81298c-0.31976,0.16989 -3.66668,8.56402 -3.92915,8.36186c-1.49834,-1.15399 4.70969,43.14893 3.16044,40.55821c-0.23002,-0.38464 -14.00936,0.26384 -14.30141,-0.76144c-0.79263,-2.7827 0.09072,-52.1783 -0.63571,-55.83325c-4.12936,-20.77592 -9.32772,-20.93735 -9.32772,-20.93735v-22.74357c0,0 18.32803,-5.31236 23.03577,-5.31236c1.87066,0 5.71809,5.31236 5.71809,5.31236v22.74357c0,0 -3.28709,4.50944 -3.29911,4.79897z" data-paper-data="{&quot;index&quot;:null}" fill="#000000" stroke="none" stroke-width="0"/><path d="M203.81996,221.63376v-22.74357c0,0 3.84743,-5.31236 5.71809,-5.31236c4.70773,0 23.03577,5.31236 23.03577,5.31236v22.74357c0,0 -5.19836,0.16143 -9.32772,20.93735c-0.72644,3.65493 0.16169,52.56941 -0.63094,55.3521c-0.19697,0.69149 -16.1081,0.65055 -16.18298,0.77577c-1.54926,2.59071 6.06397,-43.13176 4.56565,-41.97776c-0.26247,0.20216 -3.13782,-6.30561 -3.45756,-6.4755c-0.44686,-0.23743 -0.41755,-23.72572 -0.42118,-23.81298c-0.01202,-0.28953 -3.29911,-4.79897 -3.29911,-4.79897z" fill="#000000" stroke="none" stroke-width="0"/><path d="M250.44529,200.94704v-13.77895c0,0 9.42822,-0.85402 14.23868,-2.75658c2.33508,-0.92354 13.0448,-8.03416 13.0448,-8.03416l-7.84196,23.57364z" data-paper-data="{&quot;index&quot;:null}" fill="#000000" stroke="none" stroke-width="0"/><path d="M210.51829,200.21828l-7.84196,-23.57362c0,0 10.70972,7.11063 13.0448,8.03416c4.81046,1.90256 14.23868,2.75658 14.23868,2.75658v13.77895z" fill="#000000" stroke="none" stroke-width="0"/><path d="M239.92563,198.89542c0,0 -1.60697,17.52202 -3.34318,31.83903c-0.63675,5.25077 -0.39854,21.73102 -1.23742,20.21412c-5.08627,-9.19717 -12.76251,-22.36362 -16.27621,-27.198c-0.8082,-1.11196 5.6192,-3.4872 4.93505,-4.42849c-5.87075,-8.07738 -18.22861,-25.0802 -18.22861,-25.0802l33.98698,-34.53563l33.98698,34.53563c0,0 -12.04766,17.56621 -17.82946,25.59808c-0.92029,1.27845 5.6956,2.39922 4.56437,3.93168c-3.4777,4.71118 -11.35573,18.12595 -16.08459,27.36571c-0.83646,1.63436 -0.50261,-18.30864 -1.23089,-24.35095c-1.78442,-14.80472 -3.24303,-27.89096 -3.24303,-27.89096z" fill="#304d47" stroke="none" stroke-width="0"/><path d="M240.16845,218.57819l-39.26024,-51.30494l39.59713,-35.78607l38.58646,35.10141z" fill="#0a1d1e" stroke="none" stroke-width="0"/><path d="M236.16805,241.38912c0,0 -0.05269,-14.43374 -3.0203,-20.07628c-1.14819,-2.18315 -2.26479,-6.64828 -3.01954,-10.02588c-1.41159,-6.31701 -1.96549,-11.73273 -1.96549,-11.73273c0,0 3.0809,-18.75929 5.88147,-18.75929c2.35752,0 8.61355,-3.76808 12.96971,0.92608c1.01644,1.09531 2.94369,5.03229 3.53072,8.14091c1.04955,5.55785 0.81722,12.18249 0.81722,12.18249c0,0 -0.38917,5.58734 -2.79337,13.31957c-1.49709,4.81485 -2.72524,9.59743 -3.29926,11.90188c-1.77734,7.13526 -1.42258,12.29714 -1.42258,12.29714z" fill="#dd6000" stroke="none" stroke-width="0"/><path d="M247.79272,198.3954c0,9.12807 -3.59537,16.52784 -8.03048,16.52784c-4.43511,0 -8.03048,-7.39977 -8.03048,-16.52784c0,-9.12807 3.59537,-16.52784 8.03048,-16.52784c4.43511,0 8.03048,7.39977 8.03048,16.52784z" fill="#fefeff" stroke="none" stroke-width="0"/></g><path d="M175.22321,123.86506c0,-33.30185 28.7599,-60.29833 64.23702,-60.29833c35.47712,0 64.23702,26.99649 64.23702,60.29833c0,33.30185 -28.7599,60.29833 -64.23702,60.29833c-35.47712,0 -64.23702,-26.99649 -64.23702,-60.29833z" fill="#ffffff" stroke="#000000" stroke-width="2" stroke-linecap="butt"/><path d="M175.94627,123.9189c0,-0.72799 5.20666,55.91939 63.36046,56.93429c55.56352,0.9697 63.51358,-57.95314 63.51358,-56.93429c0,32.80479 -28.40173,59.39833 -63.43702,59.39833c-35.03529,0 -63.43702,-26.59354 -63.43702,-59.39833z" fill="#e6e6e6" stroke="#000000" stroke-width="0" stroke-linecap="butt"/><path d="M188.77344,124.29453c0,-12.968 10.51265,-23.48065 23.48065,-23.48065c12.968,0 23.48065,10.51265 23.48065,23.48065c0,12.968 -10.51265,23.48065 -23.48065,23.48065c-12.968,0 -23.48065,-10.51265 -23.48065,-23.48065z" fill="#ffffff" stroke="#000000" stroke-width="2" stroke-linecap="butt"/><path d="M195.83881,124.0189c0,-9.12808 7.39976,-16.52784 16.52783,-16.52784c9.12808,0 16.52784,7.39977 16.52784,16.52784c0,9.12808 -7.39977,16.52784 -16.52784,16.52784c-9.12808,0 -16.52783,-7.39977 -16.52783,-16.52784z" fill="#000000" stroke="none" stroke-width="0" stroke-linecap="butt"/><path d="M266.51252,147.77517c-12.968,0 -23.48065,-10.51265 -23.48065,-23.48065c0,-12.968 10.51265,-23.48065 23.48065,-23.48065c12.968,0 23.48065,10.51265 23.48065,23.48065c0,12.968 -10.51265,23.48065 -23.48065,23.48065z" data-paper-data="{&quot;index&quot;:null}" fill="#ffffff" stroke="#000000" stroke-width="2" stroke-linecap="butt"/><path d="M266.39995,140.54674c-9.12807,0 -16.52783,-7.39977 -16.52783,-16.52784c0,-9.12808 7.39977,-16.52784 16.52783,-16.52784c9.12807,0 16.52783,7.39977 16.52783,16.52784c0,9.12808 -7.39977,16.52784 -16.52783,16.52784z" data-paper-data="{&quot;index&quot;:null}" fill="#000000" stroke="none" stroke-width="0" stroke-linecap="butt"/><path d="M188.77344,124.29453c0,-12.968 10.51265,-23.48065 23.48065,-23.48065c12.968,0 23.48065,10.51265 23.48065,23.48065c0,0 -46.96131,1.23155 -46.96131,0z" fill="#ffffff" stroke="#000000" stroke-width="2" stroke-linecap="butt"/><path d="M243.03187,124.29453c0,-12.968 10.51265,-23.48065 23.48065,-23.48065c12.968,0 23.48065,10.51265 23.48065,23.48065c0,1.2138 -46.96131,0 -46.96131,0z" data-paper-data="{&quot;index&quot;:null}" fill="#ffffff" stroke="#000000" stroke-width="2" stroke-linecap="butt"/><path d="M201.41111,95.48606c0,0 6.70895,-5.16922 11.79721,-6.36355c5.08827,-1.19433 12.33413,0.69937 12.33413,0.69937c0,0 -8.03812,-0.06028 -11.96762,0.86207c-4.10648,0.96389 -12.16372,4.80211 -12.16372,4.80211z" fill="#000000" stroke="none" stroke-width="0" stroke-linecap="butt"/><path d="M265.34562,90.68396c-3.9295,-0.92235 -11.96762,-0.86207 -11.96762,-0.86207c0,0 7.24586,-1.8937 12.33413,-0.69937c5.08826,1.19433 11.79721,6.36355 11.79721,6.36355c0,0 -8.05724,-3.83822 -12.16372,-4.80211z" data-paper-data="{&quot;index&quot;:null}" fill="#000000" stroke="none" stroke-width="0" stroke-linecap="butt"/><path d="M180.30232,94.15613c11.42496,-22.68233 31.40973,-33.07142 60.56473,-32.85267c24.16321,0.18129 39.14424,9.27509 47.64651,17.23625c0.95139,0.89084 -11.16905,5.58091 -18.25999,7.52146c-15.29703,4.18628 -30.35723,6.25195 -30.35723,6.25195l6.65013,-11.17032c0,0 -23.70536,7.34319 -34.98048,9.59002c-11.17264,2.22641 -31.26367,3.4233 -31.26367,3.4233z" fill="#000000" stroke="none" stroke-width="0" stroke-linecap="butt"/><g stroke="#ff5252" stroke-width="0" stroke-linecap="round"><path d="M192.9189,114.92405c8.49509,2.52537 27.4751,2.68188 27.4751,2.68188c0,0 -9.71356,-13.72341 -13.80667,-21.88905c-3.22789,-6.43962 -8.07339,-18.75958 -10.80609,-25.88309c-1.25688,-3.27644 0.10142,-2.96518 2.12187,-0.51891c7.74701,9.37983 27.0291,31.81559 42.0842,39.17775c25.4576,12.44912 62.77988,10.11133 62.77988,10.11133l0.33349,10.97779c0,0 -18.55031,12.8303 -28.3588,16.49242c-3.92138,1.4641 -14.76817,6.46971 -25.64554,6.18681c-2.45152,-0.06379 -7.17762,-9.39223 -9.31737,-8.91456c-3.26564,0.72908 -1.40641,6.98604 -3.26348,10.55985c-1.37143,2.63928 -6.45021,2.95357 -6.45021,2.95357c0,0 -24.43517,-4.72139 -35.41535,-11.25261c-13.71719,-8.15929 -26.28115,-31.99327 -26.28115,-31.99327v-11.31049c0,0 16.26451,10.15748 24.55007,12.62047z" fill="#934211"/><path d="M207.15891,117.46999l11.73039,36.52117l-27.53047,-10.29402l-8.37884,-32.69083z" fill="#ff9600"/><path d="M278.25946,118.05516l9.33642,21.81163c0,0 -8.04963,4.11534 -12.75934,6.04314c-4.86433,1.99106 -14.82439,3.13369 -14.82439,3.13369l-16.9439,-38.9417z" fill="#ff9600"/><path d="M195.4873,112.90761c8.40911,2.2464 25.47669,4.6953 25.47669,4.6953c0,0 -13.16761,1.03819 -27.61046,-2.65613c-9.89435,-2.4232 -24.73739,-12.34599 -24.73739,-12.34599c0,0 17.98177,7.93211 26.8711,10.30683z" fill="#c05406"/><path d="M238.90313,108.13733c-0.5728,-0.34855 -3.24703,-1.77015 -4.05496,-2.18606c-17.24913,-8.88109 -38.86102,-38.46177 -38.86102,-38.46177c0,0 26.12641,25.7144 45.04511,36.93755c16.5577,9.82255 61.93824,14.34633 61.93824,14.34633c0,0 -43.59721,1.8204 -64.06724,-10.63606z" fill="#c05406"/></g><path d="M240.06068,180.46677c-4.24837,-0.12742 -12.96067,-3.85981 -12.96067,-3.85981c0,0 0.91122,-19.72517 12.43028,-19.29176c11.88231,0.44707 13.36973,20.06553 13.36973,20.06553c0,0 -8.49007,3.21647 -12.83933,3.08603z" fill="#000000" stroke="#000000" stroke-width="2" stroke-linecap="round"/><path d="M229.64764,176.72552l0.33156,-1.8318c0,0 6.74712,1.71476 9.89059,1.85703c3.14348,0.14227 9.29087,-1.29666 9.29087,-1.29666l0.60502,1.9549c0,0 -6.60751,2.69568 -9.89919,2.53455c-3.41015,-0.16694 -10.21886,-3.21803 -10.21886,-3.21803z" fill="#ffffff" stroke="none" stroke-width="0" stroke-linecap="butt"/></g></g></svg>