<svg version="1.1" xmlns="http://www.w3.org/2000/svg" xmlns:xlink="http://www.w3.org/1999/xlink" width="14.00204" height="23.81414" viewBox="0,0,14.00204,23.81414"><g transform="translate(-239.89762,-170.74301)"><g data-paper-data="{&quot;isPaintingLayer&quot;:true}" fill-rule="nonzero" stroke="none" stroke-linecap="butt" stroke-linejoin="miter" stroke-miterlimit="10" stroke-dasharray="" stroke-dashoffset="0" style="mix-blend-mode: normal"><path d="M252.18734,178.4067c1.10609,1.15877 1.65914,2.63357 1.65914,4.45072c0,1.86984 -0.6584,3.39731 -1.97519,4.58242c-1.31678,1.21145 -2.97593,1.81716 -5.00378,1.81716c-1.86983,0 -3.42364,-0.52672 -4.71409,-1.60648c-1.29046,-1.07977 -2.00159,-2.47555 -2.13321,-4.18738h3.44999c0.23702,1.71182 1.63281,2.81793 3.3973,2.81793c1.97519,0 3.47631,-1.50114 3.47631,-3.63433c0,-2.08051 -1.47481,-3.55532 -3.47631,-3.55532c-1.29044,0 -2.52823,0.7374 -3.08128,1.89617h-3.26564l1.50115,-10.24458h2.73892h8.16407v2.84425h-8.50644l-0.52672,4.37172c0.97442,-0.84274 2.26487,-1.26411 3.81868,-1.26411c1.86983,0 3.34463,0.57938 4.47708,1.71183z" fill="#000000" stroke-width="0.35808"/><path d="M239.89762,194.55715v-23.65909h14.00204v23.65909z" fill-opacity="0.00403" fill="#808080" stroke-width="0"/></g></g></svg>