<svg version="1.1" xmlns="http://www.w3.org/2000/svg" xmlns:xlink="http://www.w3.org/1999/xlink" width="146.91485" height="357.23305" viewBox="0,0,146.91485,357.23305"><g transform="translate(-165.23627,-4.04887)"><g data-paper-data="{&quot;isPaintingLayer&quot;:true}" fill-rule="nonzero" stroke-linejoin="miter" stroke-miterlimit="10" stroke-dasharray="" stroke-dashoffset="0" style="mix-blend-mode: normal"><g><path d="M268.17571,145.10863c0,0 10.70596,6.33907 17.31565,11.33374c7.60718,5.74845 17.44502,17.34325 18.11308,36.26152c0.14851,9.99785 0.22019,129.76667 0.23809,164.83587c-5.21572,0 -10.43143,0 -15.64715,0v-156.93889c0,0 -0.00914,-2.5264 -0.08372,-3.8981c-0.08264,-1.51981 -0.69124,-4.58141 -4.32075,-4.66585c-3.5867,-0.09324 -4.69572,2.73616 -4.63755,4.31013c-0.04769,2.22277 0,1.3099 0,3.98701c0,11.68581 0,94.04335 0,94.04335l0.0074,63.16235c-9.69284,0 -19.38567,0 -29.07851,0c-11.33333,0 -22.66667,0 -34,0c-4.26635,0 -8.79767,-0.41034 -13.16817,-0.25877l-0.0724,-62.90359c0,0 0,-81.04836 0,-93.33191c0,-3.02148 0.27979,-6.96736 -4.85325,-7.15884c-5.7525,-0.21458 -4.43143,6.7142 -4.43143,6.7142v158.18209c-1.71447,0.42372 -3.43239,0.80999 -5.18364,0.91797c-3.14223,0.19378 -6.36907,0.15006 -9.58822,0.08135c-0.04092,-31.6741 -0.18229,-155.57988 0.09079,-169.35498c0.31429,-15.85447 9.77791,-28.23647 17.3851,-33.98493c6.60967,-4.99469 17.31564,-11.33375 17.31564,-11.33375z" fill="#ffffff" stroke="#000000" stroke-width="3" stroke-linecap="round"/><path d="M246.03641,290.02112c0,1.11981 -1.08643,2.0276 -2.42663,2.0276c-1.34019,0 -2.42662,-0.9078 -2.42662,-2.0276c0,-1.11981 1.08643,-2.0276 2.42662,-2.0276c1.34019,0 2.42663,0.90779 2.42663,2.0276z" fill="#000000" stroke="#000000" stroke-width="0" stroke-linecap="butt"/><path d="M270.30266,199.31267c0,1.00194 -0.92347,1.81417 -2.06263,1.81417c-1.13916,0 -2.06263,-0.81223 -2.06263,-1.81417c0,-1.00194 0.92347,-1.81417 2.06263,-1.81417c1.13916,0 2.06263,0.81223 2.06263,1.81417z" fill="#000000" stroke="none" stroke-width="0" stroke-linecap="butt"/><path d="M219.10087,199.5261c0,1.00194 -0.92348,1.81417 -2.06263,1.81417c-1.13916,0 -2.06263,-0.81222 -2.06263,-1.81417c0,-1.00194 0.92347,-1.81417 2.06263,-1.81417c1.13916,0 2.06263,0.81223 2.06263,1.81417z" fill="#000000" stroke="none" stroke-width="0" stroke-linecap="butt"/><path d="M236.34831,203.38565c0,0 -2.55974,3.19188 -7.98764,3.64613c-7.36209,1.08948 -15.97529,-0.07114 -15.97529,-0.07114" fill="none" stroke="#000000" stroke-width="2" stroke-linecap="round"/><path d="M272.26236,206.53377c0,0 -8.6132,1.16063 -15.97529,0.07115c-5.4279,-0.45425 -7.98764,-3.64612 -7.98764,-3.64612" data-paper-data="{&quot;index&quot;:null}" fill="none" stroke="#000000" stroke-width="2" stroke-linecap="round"/></g><g stroke="none" stroke-linecap="butt"><g><path d="M301.31396,99.98809c0,21.46872 -19.61773,38.61358 -35.06551,49.63072c-9.01712,6.43088 -14.04727,20.13258 -25.6669,20.13258c-10.29803,0 -15.43868,-10.05189 -22.4015,-17.93567c-2.39228,-2.70871 -6.60906,-3.6117 -9.13577,-5.8703c-12.63269,-11.29223 -21.89584,-26.87917 -21.89584,-45.95733c0,-34.00036 25.55682,-61.56309 57.08276,-61.56309c15.055,0 31.486,-3.96464 41.68536,6.30602c11.15862,11.23662 15.3974,37.49336 15.3974,55.25708z" fill="#ffffff" stroke-width="0"/><path d="M245.88636,4.04915c3.7674,-0.00912 6.15422,0.20056 8.77656,0.64781c16.54427,2.82166 27.41934,8.26326 34.2546,17.14031c0.93143,1.20964 1.90758,2.67595 2.86661,4.2691c1.59495,2.5482 2.92124,5.07626 4.04947,7.79929c0.71291,1.61229 1.32882,3.17953 1.78761,4.59797c0.31758,0.98184 0.7223,2.66407 1.16438,4.7289c0.64755,2.72624 1.21397,5.73914 1.74031,9.13469c0.59558,3.44599 1.18062,7.13506 1.67885,10.68795c0.13911,0.99202 0.31236,1.98687 0.52481,3.01015c0.02443,0.11597 0.04924,0.23121 0.07393,0.34615c0.98328,4.56831 2.7873,9.7662 6.16284,17.94208c0.74443,1.80307 1.41042,3.48789 1.94099,4.89439c0.71815,1.7973 1.21277,3.09544 1.21277,3.22853c0,0.0139 -0.00394,0.02414 -0.00506,0.03718c0,0.00341 0.00506,0.01804 0.00506,0.02048c0,0.06621 -0.01329,0.1207 -0.03215,0.1702c0.05405,0.22229 0.08203,0.38558 0.04899,0.40533c-0.72634,0.43227 -4.78661,-1.91815 -7.65625,-4.3576c-0.5148,-0.42234 -1.00069,-0.85166 -1.44554,-1.28147c-1.34329,-1.16522 -2.26759,-1.7579 -2.26675,-1.42023c0.00091,0.36538 0.49131,3.04177 1.09965,6.02607c0.06081,0.28945 0.10612,0.50352 0.17132,0.81487c0.78686,3.75656 1.04435,5.45817 1.03929,8.72829c0.01772,0.52549 0.02976,1.06933 0.03482,1.63077c0.06084,1.87346 0.02644,3.67902 -0.10115,5.44845c-0.15145,2.81669 -0.47799,5.21582 -1.0643,7.72911c-0.57671,2.77451 -1.45159,5.41342 -2.8046,8.78696c-0.4285,1.06839 -1.0204,2.39293 -1.69137,3.8182c-2.70855,5.96481 -6.22378,12.70394 -6.94707,12.93405c-0.33859,0.10771 -0.69476,-0.51529 -0.89027,-1.55798c-0.17343,-0.92486 -0.30894,-1.52252 -0.47152,-1.81719c-0.20537,-0.27885 -0.46586,-0.15652 -0.91801,0.39906c-0.19465,0.28017 -0.42317,0.65202 -0.70156,1.12068c-1.38016,2.32359 -5.50611,6.62198 -7.188,7.48874c-0.10951,0.05649 -0.20034,0.10049 -0.28768,0.14035c-0.21075,0.12384 -0.35627,0.16956 -0.41387,0.11409c-0.01202,-0.01158 -0.02089,-0.03839 -0.02721,-0.07326c-0.23351,-0.24149 -0.01794,-1.39881 0.62216,-4.78232l0.10443,-0.55354c-0.05903,-0.24389 -0.19263,-0.31179 -0.41114,-0.20842l-0.22352,0.30635c-0.74853,1.02529 -2.05592,2.41836 -3.38543,3.67315c-0.17394,0.16724 -0.34952,0.32814 -0.52373,0.48441c-1.04046,0.96376 -2.04529,1.77927 -2.80896,2.24243c-0.04076,0.02487 -0.08532,0.05521 -0.12405,0.07752c-0.91062,0.52661 -5.06182,4.27107 -9.22469,8.32139c-13.85234,13.47783 -20.08494,17.10855 -26.25465,15.29482c-4.35542,-1.28039 -9.58505,-5.36925 -15.81555,-12.36584c-2.41911,-2.71654 -4.74013,-5.19659 -6.58487,-7.0682c-1.61163,-1.56597 -2.90324,-2.65142 -4.07829,-3.44953c-1.51519,-0.56016 -6.79541,-4.28937 -8.04401,-5.748l-0.77335,-0.90337l-0.65587,-0.63157v1.79101c0,1.05922 -0.18986,1.92612 -0.42202,1.92612c-0.42154,0 -1.49954,-1.00052 -2.74152,-2.40634c-0.62899,-0.65547 -1.25436,-1.40486 -1.87082,-2.23929c-0.86988,-1.09525 -1.68529,-2.24244 -2.26675,-3.24424c-0.01334,-0.02303 -0.02639,-0.04876 -0.0397,-0.0718c-0.2341,-0.37619 -0.45236,-0.74199 -0.63575,-1.08141c-2.2396,-4.14525 -5.21688,-12.53175 -6.41138,-18.06042c-0.34058,-1.57635 -0.59954,-2.76666 -0.79511,-3.6632c-0.07478,-0.33488 -0.15088,-0.6671 -0.22406,-1.00548l-0.0446,-0.20687c-0.04635,-0.18455 -0.09652,-0.3268 -0.18164,-0.40323c-0.27936,-0.02829 -0.79649,0.1208 -1.57008,0.44723c-0.19167,0.09597 -0.40322,0.20237 -0.64391,0.3273l-0.25615,0.13721c-0.07045,0.03779 -0.14697,0.07326 -0.21862,0.11056c-0.08902,0.04657 -0.15623,0.08118 -0.25126,0.13092c-1.62286,0.84978 -4.09898,1.86721 -5.50208,2.26076c-1.78058,0.49944 -4.4293,0.86745 -6.7056,1.01073c-0.00547,0 -0.01143,0.00095 -0.01687,0.00122c-1.87364,0.11711 -3.4931,0.08131 -4.1566,-0.16391c-0.09466,-0.03499 -0.17468,-0.06887 -0.24746,-0.10313l-0.51393,0.02194l0.11584,-0.09264c-0.21703,-0.01622 -0.35241,-0.03754 -0.35241,-0.06594c0,-0.01438 0.02554,-0.0462 0.06798,-0.08959l-0.0756,-0.01573l-0.1724,-0.00488l0.03263,-0.02304l-0.00809,-0.00121l1.91597,-1.37364c0.60843,-0.47186 1.43777,-1.08016 2.58925,-1.91355c2.46094,-1.78113 4.47143,-3.42672 5.94694,-4.85721c1.15491,-1.13366 2.00648,-2.14682 2.4522,-2.94836c0.49195,-0.88639 0.41532,-0.87658 -1.7414,0.16549c-0.50555,0.24426 -1.13823,0.48654 -1.83112,0.71954c-1.18443,0.42858 -2.43198,0.76956 -3.65355,1.00077c-2.85236,0.63572 -5.52275,0.92462 -5.52275,0.38544c0,-0.00792 0.01102,-0.02572 0.01469,-0.03669h-0.22351l0.03751,-0.03718l-0.06526,-0.00054l0.52155,-0.45088l2.38367,-2.35818c0.12568,-0.12434 0.24395,-0.2471 0.36655,-0.37078c0.22897,-0.23479 0.45309,-0.47181 0.67436,-0.71011c0.11404,-0.12337 0.22708,-0.24748 0.33936,-0.37235c0.07406,-0.08186 0.14653,-0.16438 0.21971,-0.24666c0.26717,-0.30254 0.5288,-0.60996 0.78585,-0.92117c2.90061,-3.65106 5.35046,-8.22401 6.92314,-13.02725c1.0719,-3.27378 2.72207,-12.07027 2.57837,-13.51115c-0.0002,-0.00122 0.00021,-0.00487 0,-0.00609c-0.00983,-0.09472 -0.02795,-0.15651 -0.05438,-0.18224c-0.00301,-0.00244 -0.01138,-0.00366 -0.01632,-0.0061c-0.19287,-0.08412 -2.06125,0.18751 -4.23547,0.61848c-2.22959,0.44194 -4.20938,0.65407 -4.39916,0.47132c-0.00531,-0.00512 -0.00759,-0.01292 -0.00924,-0.02146c-0.00841,-0.00402 -0.02037,-0.00767 -0.02556,-0.01255c-0.17065,-0.16433 2.03611,-2.60202 4.9033,-5.41704l3.29788,-3.23795c1.42946,-1.48163 1.87282,-2.15916 2.0057,-2.96513l0.0522,-0.62371c0.00494,-0.16369 0.00924,-0.3246 0.00924,-0.51635c0,-8.63967 2.82857,-21.88531 6.37984,-29.87482c1.07755,-2.42422 2.56386,-4.98897 4.29311,-7.49711c1.60936,-2.42367 3.4054,-4.6734 5.3895,-6.754c2.50873,-2.73188 5.15149,-5.10119 7.6296,-6.732c1.51282,-0.99557 3.32638,-2.04332 5.24484,-3.05362c2.13026,-1.16655 4.38246,-2.23153 6.75782,-3.19711c0.04588,-0.01865 0.08871,-0.03497 0.13433,-0.05342c1.38827,-0.57634 2.7152,-1.07512 3.90752,-1.46056c4.00103,-1.2934 5.37589,-1.49594 12.53563,-1.84757c5.36124,-0.26331 9.12683,-0.40298 12.05703,-0.41005zM282.23182,49.36273c-0.91012,0.02291 -2.87327,0.80398 -7.32558,2.84939c-12.10945,5.56311 -25.52893,10.30461 -32.53552,11.56826c-1.33628,0.26493 -2.44282,0.41023 -3.25055,0.41267c-0.00456,0.00001 -0.0081,-0.00001 -0.01254,0l-1.49394,0.15448l0.01632,-0.01731l-0.01632,0.00122l0.9463,-1.06099c0.52036,-0.58364 2.70243,-2.91989 4.84892,-5.19184c1.03144,-1.09173 1.95976,-2.10824 2.6594,-2.90071c0.74783,-0.86505 1.12695,-1.36254 1.18721,-1.5543c-0.31939,0.02432 -2.1001,0.86502 -4.23764,2.01044c-11.3674,6.09123 -28.86522,11.93488 -41.41324,13.83112l-1.01481,0.15344c-0.37856,0.19782 -0.65742,0.43924 -0.86417,0.76143c-0.06112,0.16809 -0.10818,0.36894 -0.14847,0.59544l-0.2567,4.01459c-0.17758,2.7769 -0.21797,5.16836 -0.0959,5.45086c-0.17068,0.15779 -0.3323,0.3248 -0.48267,0.5033c-0.52233,0.62003 -0.1482,1.59208 -0.15607,2.39044c-0.00879,0.89167 0.16956,1.79408 0.48109,2.65325l0.00249,1.14146c0.00247,1.10143 0.0309,2.14118 0.08593,3.13741c0.1016,1.23591 0.21773,2.47053 0.34262,3.57679c0.00984,0.06961 0.01987,0.13908 0.03007,0.20842c-0.01963,0.13446 -0.02979,0.27184 -0.02979,0.41152c0,0.47774 0.1188,0.92877 0.32949,1.32717c0.37904,1.91261 0.91242,3.76455 1.62752,5.71863c0.90983,2.48616 1.46637,4.20216 1.84852,6.33818l0.05602,0.16601l0.01415,0.26133c0.43125,2.62864 0.63164,5.96537 0.90278,12.07256c0.09393,2.11573 0.18669,3.87138 0.28334,5.44007c0.22967,3.23131 0.51656,5.89074 0.85873,7.83699c0.22345,1.04328 0.48887,1.88824 0.81788,2.68422c0.33263,0.955 0.96241,1.88482 1.32191,2.61756c0.34466,0.70249 0.81554,1.6036 1.37845,2.51531c-0.09823,0.05982 -0.14849,0.14213 -0.15509,0.24838c0.65114,1.19556 3.97865,4.9786 6.57182,7.38504c1.32467,1.22929 2.68498,2.35802 4.07231,3.39035c1.65924,1.2065 3.38862,2.31739 5.12792,3.29609c3.95667,2.15904 8.06503,3.55061 12.19354,4.12928c0.22261,0.03023 0.44549,0.05961 0.66839,0.08533c0.08177,0.00963 0.16348,0.02024 0.24527,0.02877c0.70708,0.07624 1.41536,0.12828 2.12426,0.15814c2.04243,0.0187 4.19601,-0.10435 6.18188,-0.35454c5.67078,-0.91707 11.5165,-3.4373 16.80807,-7.17504c1.51139,-1.10233 2.99717,-2.31798 4.45348,-3.65545c0.24321,-0.19905 0.47498,-0.41469 0.69734,-0.64322l2.03391,-1.87666l0.33827,-0.32888l0.17893,-0.17543l0.35838,-0.45299l-0.1309,-0.00281c0.67066,-0.74367 1.15604,-1.35349 1.14016,-1.51878c-0.02904,-0.30227 -0.06859,-0.58278 -0.11786,-0.84255c0.00637,-0.00803 0.01276,-0.01604 0.01914,-0.02405c0.46468,-0.58218 1.45294,-1.91591 1.46651,-2.81928c0.0901,-0.1703 0.18568,-0.35616 0.28776,-0.55866c1.65085,-3.27539 2.51535,-7.20017 3.14397,-14.27154c0.75504,-8.49354 1.66071,-13.13073 3.75525,-19.23139c1.01342,-2.95177 2.17912,-7.00681 2.59033,-9.01109c0.68224,-3.32528 1.49991,-17.37698 1.40224,-21.69065c0.97386,-1.60104 1.1644,-4.12738 0.28359,-5.84562l-0.01999,-5.93026c-0.02737,-10.99887 -0.34482,-13.33465 -1.94424,-14.29405c-0.11548,-0.06924 -0.26965,-0.10386 -0.47968,-0.09898zM228.02914,161.88897c-1.04533,-0.15562 5.00959,5.19514 7.10642,6.23292c4.02373,1.99147 6.45521,2.02762 10.29499,0.15398c1.14905,-0.56068 3.60775,-2.27542 5.49338,-3.72395c0.30294,-0.25692 0.60636,-0.51567 0.91366,-0.79024l1.53364,-1.37049c0.0038,-0.02023 0.0038,-0.03742 -0.0076,-0.04717c-0.07641,-0.07216 -1.73537,0.40204 -3.68673,1.05313c-2.21807,0.7401 -3.57171,1.03462 -5.85721,1.13274c-2.20031,0.25974 -4.38932,0.22343 -6.6496,-0.11471c-2.28498,-0.24785 -4.33059,-0.88164 -9.01749,-2.49379c-0.04887,-0.01682 -0.08973,-0.02755 -0.12345,-0.03243zM192.10713,81.5181c-0.40577,0.04466 -0.79361,0.36575 -1.13664,0.98297c-0.01838,0.03303 -0.03408,0.0746 -0.05112,0.11154c-0.05662,0.17859 -0.10532,0.37663 -0.14248,0.60015c-0.05546,0.33352 -0.11775,0.6833 -0.17838,1.02696c-0.14073,2.14881 0.26485,5.6167 0.98273,8.96343c0.35805,1.51077 0.74778,2.9991 1.11651,4.23978c0.36921,1.15002 0.76878,2.18986 1.18721,3.0222c0.19423,0.38634 0.52512,0.90368 0.92237,1.46998c0.18377,0.25937 0.38296,0.52735 0.58408,0.79654c0.09068,0.12098 0.17504,0.23904 0.26866,0.36082c0.07233,0.09479 0.14749,0.18662 0.2208,0.28122c1.13607,1.45136 2.38439,2.85125 2.87695,3.13271c0.05937,0.03169 0.10843,0.04778 0.14846,0.05022c0.12273,-0.01775 0.09417,-0.6757 -0.0658,-1.47889h-0.00056c-0.16224,-0.81424 -1.45656,-3.83773 -2.8764,-6.7189c-1.72389,-3.49814 -2.63794,-5.77757 -2.86389,-7.43951c-0.12098,-0.52828 -0.18926,-0.9792 -0.18926,-1.31865c0,-0.32837 0.25889,-0.86127 0.6314,-1.36106c0.17649,-0.4026 0.42822,-0.72957 0.75649,-0.97458c0.79576,-0.95955 0.7814,-1.28025 0.2741,-2.70118c-0.24626,-0.68979 -0.51039,-1.26027 -0.7826,-1.72085c-0.20155,-0.31186 -0.41075,-0.57495 -0.62215,-0.78186c-0.34296,-0.29198 -0.70404,-0.49101 -1.05996,-0.54306h-0.00056zM291.08691,81.59299c-0.97789,0.06067 -2.15436,1.43653 -2.65341,3.2212c-0.1223,0.4373 -0.20445,0.76922 -0.24636,1.04056c0.0138,0.19027 0.04836,0.37376 0.1033,0.54935c0.08447,0.24315 0.20609,0.47184 0.36275,0.68445c0.08905,0.06933 0.19073,0.14154 0.30618,0.21943c0.69633,0.46965 0.91491,0.82673 0.90605,2.08795c0.05064,0.41879 0.04165,0.88625 -0.01797,1.3972c-0.01728,0.33334 -0.0631,0.66703 -0.13867,0.99343c-0.23724,1.81243 -0.85174,3.34918 -2.54846,6.62256c-1.34912,2.60279 -2.65466,5.65487 -2.9014,6.78229l-0.30238,1.38358c0.19201,0.05698 0.78178,-0.41392 1.51025,-1.13377c1.30381,-1.4457 3.04089,-3.71228 3.83411,-5.17979c0.9232,-1.94733 2.08842,-6.02943 2.81766,-9.77359c0.17559,-1.30472 0.28452,-2.60275 0.30401,-3.83967c0.02643,-1.68066 0.00102,-2.7702 -0.10823,-3.51605c-0.13245,-0.51892 -0.29917,-0.93512 -0.49163,-1.19819c-0.18502,-0.19596 -0.39432,-0.31004 -0.62379,-0.33674c-0.03735,-0.00122 -0.07406,-0.00609 -0.11203,-0.00366zM195.00635,87.65261c-0.13135,-0.00647 -0.28589,0.10953 -0.47696,0.26132c-0.22108,0.18372 -0.38439,0.45141 -0.49054,0.79339c-0.01086,0.03682 -0.01813,0.07874 -0.02774,0.11727c-0.22705,1.00812 -0.01684,2.65082 0.57267,4.55557c0.05123,0.15357 0.1041,0.30836 0.16098,0.46608c0.34228,0.94901 0.73625,1.91857 1.11923,2.7923c0.13761,0.29297 0.27174,0.56919 0.4019,0.83266c0.08228,0.16278 0.16872,0.33851 0.24745,0.49175c0.10152,0.19804 0.19881,0.38381 0.28932,0.55092c0.03986,0.07577 0.07878,0.14984 0.11693,0.22152c0.30364,0.53099 0.51906,0.8416 0.58028,0.81539c0.07602,-0.13891 -0.28219,-2.41424 -0.80597,-5.11015c-0.62314,-3.20731 -0.95976,-4.97711 -1.20408,-5.91087c-0.09188,-0.28642 -0.17899,-0.53479 -0.25615,-0.7138c-0.07342,-0.10635 -0.14704,-0.15973 -0.22733,-0.16339zM285.79362,98.13105c-0.12166,0.7854 -0.12216,1.0334 0.16589,0.63419c0.28949,-0.51055 0.63908,-1.14688 1.05505,-1.93765c0.27089,-0.51497 0.53737,-1.06486 0.78749,-1.6161c0.36812,-0.90361 0.7124,-1.86824 0.94084,-2.66819c0.30641,-1.07291 0.47643,-1.82306 0.52808,-2.4163c-0.01678,-0.58241 -0.10896,-1.1325 -0.25615,-1.58415c-0.10589,-0.22167 -0.22534,-0.4284 -0.34534,-0.60225c-0.0515,-0.06715 -0.10289,-0.13262 -0.15391,-0.18905c-0.17539,-0.11334 -0.34412,-0.19391 -0.48401,-0.23304c-0.40584,0.71981 -1.50755,5.89723 -2.23793,10.61254z" fill="#0b0000" stroke-width="1.1"/><path d="M273.1677,104.23759c-0.38004,0.33532 -0.77479,0.65396 -1.18238,0.95367c0.0705,-0.12897 0.13838,-0.25525 0.20354,-0.37826c0.47088,-0.29248 0.93448,-0.60436 1.38587,-0.9315c-0.13346,0.1212 -0.26916,0.2399 -0.40704,0.35609z" fill="#0b0000" stroke-width="1.1"/></g><g><g><path d="M266.91104,155.80758c0,0.99527 -1.11363,2.52109 -3.06749,3.16295c-4.51333,1.48266 -13.51004,1.36462 -23.62053,1.36462c-14.48743,0 -27.29629,-8.13241 -27.29629,-11.42673c0,-3.29432 13.26506,0.93426 27.75249,0.93426c14.48743,0 26.23181,2.67057 26.23181,5.9649z" fill="#0b0000" stroke-width="0"/><path d="M271.9293,144.81205c0,2.3217 -6.62651,9.88353 -18.56989,12.63862c-0.71462,0.04343 -1.43065,0.09211 -2.14907,0.15917c-0.77459,0.07229 -1.56645,0.39851 -2.33032,0.60237c-1.47816,0.1649 -3.02117,0.25442 -4.62718,0.25442c-17.63687,0 -36.1923,-10.79685 -36.1923,-13.65458c0,-1.11005 -1.4924,-4.1507 2.17983,-4.9934c5.78169,-1.32677 9.08401,-4.63668 19.87009,-4.63668c7.02364,0 15.23737,-0.07582 22.39639,1.39731c10.81776,2.226 19.42244,6.51309 19.42244,8.23276z" fill="#ffffff" stroke-width="0"/><path d="M276.7955,145.45884c0,0.12234 -2.66121,6.61057 -12.57724,13.00236c-0.00919,0.00593 -0.01839,0.01184 -0.02759,0.01773c-0.25022,-0.7494 -1.0068,-1.33261 -2.30505,-1.99066c-0.77797,-0.39433 -2.72685,0.4748 -3.473,0.57052c-2.39842,0.30767 -4.78685,1.18802 -7.20227,1.41345c-1.07931,0.10073 -2.19214,-0.16793 -3.21609,-0.09915c-3.79229,0.25474 -17.12848,0.4491 -22.23499,-1.04161c-2.59963,-0.75889 -6.17242,-3.58625 -8.64745,-4.01704c-0.18818,-0.03276 -0.36247,-0.03886 -0.52534,-0.02215c-0.00337,-0.00001 -0.00673,-0.00002 -0.01009,-0.00002c-0.04778,0 -0.0953,0.00105 -0.14254,0.00312c-9.18047,-5.40353 -15.0643,-12.03124 -15.0643,-12.1485c0,-0.19846 19.89424,16.1699 41.05849,16.1699c21.16424,0 34.36748,-12.05638 34.36748,-11.85792z" fill="#0b0000" stroke-width="0"/><path d="M237.52944,137.26559l-2.43309,-3.57735l8.18097,1.32663l6.28244,-1.13497l1.82482,3.06629c0,0 -5.07286,1.46601 -7.36935,1.43345c-2.20559,-0.03126 -6.48578,-1.11405 -6.48578,-1.11405z" fill="#0b0000" stroke-width="0"/><path d="M236.98876,145.05908v-2.49136l7.63721,0.83045l8.51583,-1.02209l-2.97378,2.683z" fill="#0b0000" stroke-width="0"/><path d="M277.07367,145.61476c-0.17393,0.16415 -0.34952,0.32209 -0.52373,0.47548c-1.04046,0.946 -2.04529,1.74647 -2.80896,2.20109c-0.04076,0.02441 -0.08533,0.0542 -0.12406,0.0761c-0.91062,0.51691 -5.06181,4.19232 -9.22469,8.16797c-0.32452,0.30992 -0.64486,0.61455 -0.96111,0.91392c-0.3827,-0.32173 -0.8964,-0.63203 -1.54551,-0.96105c-0.77797,-0.39433 -2.72685,0.4748 -3.473,0.57052c-1.95184,0.25038 -3.89707,0.30889 -5.8556,0.44349c3.76115,-1.27144 7.49035,-3.17069 10.97872,-5.5893c1.54265,-1.10439 3.05863,-2.32467 4.54382,-3.66968l2.6409,-2.39178l0.33828,-0.32281l0.17893,-0.1722l0.35838,-0.44464l-6.33198,-0.13313c-1.16055,-0.02453 -2.1273,-0.0329 -3.02813,-0.02931c-0.11173,0.00239 -0.22493,0.00479 -0.33393,0.00718c-3.4109,0.11807 -5.85286,0.47643 -10.90408,1.45934c-1.58668,0.30874 -2.81022,0.54175 -3.84499,0.72787l-3.57523,0.71758l-0.9724,-0.25188c-0.51252,-0.05188 -0.97227,-0.16386 -1.54125,-0.32694c-6.71074,-1.92326 -26.27686,-5.86309 -30.71744,-6.27427c-0.01451,0.00027 -0.03214,-0.00079 -0.04623,-0.00053l0.00001,0.00014c-0.50704,0.0129 -0.74325,0.12858 -0.75812,0.36343c0.65114,1.17352 3.97864,4.8868 6.57182,7.24888c1.32467,1.20663 2.68499,2.31454 4.07231,3.32785c1.65924,1.18426 3.38862,2.27465 5.12792,3.23531c2.86712,1.53566 5.81388,2.67577 8.79025,3.40334c-3.31713,-0.16988 -6.41761,-0.49249 -8.34532,-1.05524c-2.59963,-0.75889 -6.17242,-3.58625 -8.64745,-4.01704c-0.18818,-0.03276 -0.36247,-0.03886 -0.52534,-0.02215c-0.00337,-0.00001 -0.00673,-0.00002 -0.01009,-0.00002c-0.00784,0 -0.01567,0.00003 -0.02349,0.00009c-0.28084,-0.28469 -0.55311,-0.55833 -0.81573,-0.81986c-1.61163,-1.5371 -2.90324,-2.60253 -4.07829,-3.38593c-1.51519,-0.54983 -6.7954,-4.21029 -8.04401,-5.64202l-0.77335,-0.88671l-0.65588,-0.61992v0.41857c-0.28854,-0.36097 -0.63092,-0.75142 -0.99687,-1.15488c0.77828,-0.52985 1.50036,-1.1461 2.06162,-1.39152c1.60756,-0.70291 3.88058,-1.39757 4.95945,-2.77613c0.36266,0.01685 0.86835,-0.03674 1.6147,-0.12771c0.49502,-0.07557 1.06462,-0.18439 1.69625,-0.32024c1.83175,-0.41872 4.61798,-1.18681 7.17222,-1.99495l6.33634,-2.00474l5.23451,0.68779c2.11452,0.27785 4.02051,0.51574 4.97618,0.62402c0.08458,-0.00287 0.16056,-0.00855 0.22853,-0.0172l0.1846,0.10469l0.00188,0.032l0.45774,0.37084l0.39235,0.43265l0.1515,0.00796l0.18854,0.15275l0.5491,0.2595v0.04398l0.16949,0.6408l0.03327,0.1415v0.75493l-0.01895,0.02686l0.01895,0.0806v0.0801l0.07343,0.27765c-0.47558,-0.25157 -1.21462,-0.38111 -2.55008,-0.60093c-0.45364,-0.07468 -0.90434,-0.13959 -1.35363,-0.19893c-1.96121,-0.12787 -4.42005,-0.19583 -6.64143,-0.18865l-0.00001,-0.00001c-0.78199,0.00275 -1.53245,0.0146 -2.21997,0.03649c-3.03233,0.29538 -6.19672,0.94083 -9.71089,1.96361c-0.53812,0.15662 4.25561,1.1858 11.11673,2.38614c5.40518,0.94563 8.68723,1.52783 10.68546,1.8279c0.60938,0.07795 1.11097,0.13227 1.51668,0.16462l0.58147,0.9618c0.3039,0.50266 2.43266,0.58539 3.03049,0.58888c1.31295,0.00766 8.94913,1.44836 10.2269,-1.84136c1.75534,-0.17737 4.04392,-0.31635 6.06541,-0.36277c0.42992,-0.01364 0.84927,-0.02405 1.24432,-0.02884l0.59551,-0.00718l4.26918,-0.18711l-0.49109,-0.24519l-2.9547,-1.34471c-0.60676,-0.27618 -1.20551,-0.5392 -1.79359,-0.7875c-3.36309,-1.31739 -7.0843,-2.45203 -8.88372,-2.6298c-0.23222,-0.02297 -0.42478,-0.0402 -0.61889,-0.05755l-1.60228,0.08688c-0.06297,0.02548 -0.12234,0.0543 -0.17826,0.08689l0.01779,-0.2186l0.11858,-0.44831v-0.22104l0.01627,-0.06152l0.00907,-0.00491l0.02119,-0.0801l0.0379,-0.07164l0.14178,-0.60305l0.27678,-0.23782l0.40552,-0.57493l0.06464,-0.17106l0.12507,-0.13792l0.10605,-0.20048l1.15394,0.08362h1.13718c2.00862,0 3.86526,0.61232 10.90029,3.59464c3.61275,1.53154 6.96706,2.90231 8.56392,3.50878c0.34098,0.11256 0.64439,0.20617 0.9,0.27505c0.99505,1.09335 3.16915,2.65225 5.30986,4.05315c-0.0786,0.07391 -0.15737,0.14744 -0.23623,0.2205z" fill="#0b0000" stroke-width="1.1"/></g><path d="M239.68067,120.15568l0.00801,-0.00757c0.00045,0.01233 0.00089,0.02467 0.00134,0.03701z" fill="#0b0000" stroke-width="1.1"/><g><g><path d="M237.44497,92.35718c0.20275,13.17105 -11.32665,15.42728 -18.04546,15.42728c-6.71881,0 -8.71859,-5.89745 -8.71859,-12.93592c0,-7.03847 9.09632,3.73704 15.81512,3.73704c6.71881,0 10.84059,-13.26613 10.94893,-6.2284z" fill="#0b0000" stroke-width="0"/><path d="M230.35075,81.00137c1.25258,0.81328 2.49626,1.99805 3.59535,3.39879c0.06325,0.08008 0.12439,0.16216 0.186,0.24365c0.98289,1.29397 1.84142,2.75267 2.46851,4.25876c0.16165,0.38825 0.32342,0.92556 0.48337,1.59307c-0.23495,0.62422 -0.40391,1.19022 -0.48333,1.50821c-1.03221,4.13279 -3.18227,7.69218 -4.93349,11.46904c-0.68682,0.61792 -1.42709,1.17462 -2.21043,1.66754c-0.04488,0.02824 -0.0897,0.05659 -0.13487,0.08435c-4.40132,2.71092 -10.13701,3.41287 -15.46097,1.56781c-0.6843,-0.23716 -1.40152,-0.58133 -2.12207,-1.00391c-1.01699,-0.5596 -1.99299,-1.25827 -2.98842,-2.12553c-1.34399,-1.17092 -2.3518,-2.29424 -3.08578,-3.48463c-0.47449,-0.69655 -0.85139,-1.38447 -1.08389,-2.02939c-0.38933,-1.08 -0.62867,-2.20547 -0.72386,-3.35201c-0.04193,-0.36119 -0.06635,-0.72035 -0.06635,-1.07587c0,-0.36633 0.02395,-0.75101 0.0669,-1.14681c0.07614,-0.99649 0.25212,-1.99647 0.53459,-2.98498c0.3091,-1.40622 0.85505,-2.61474 1.76369,-4.00792c0.22392,-0.36995 0.45731,-0.73656 0.71243,-1.09489l0.79824,-1.12076c1.43354,-0.37116 2.843,-0.80785 3.90367,-1.34253c0.84443,-0.42567 1.72017,-0.87803 2.62236,-1.32371c1.17773,-0.2943 2.27634,-0.50571 3.1429,-0.55108c3.49005,-0.1827 6.04621,-0.40864 9.83914,-0.34967c0.01042,0.00991 0.02084,0.01976 0.03123,0.02959c0.38181,0.36088 1.32597,0.53488 2.30472,0.62426c0.28336,0.16988 0.56356,0.35344 0.84035,0.54862zM220.65082,80.52535c-0.14511,0 -0.28807,0.00239 -0.43127,0.00479c-0.07953,0.0024 -0.13794,0.00359 -0.22026,0.00718c-0.36203,0.01376 -0.66994,0.02895 -0.98435,0.04367c-0.29628,0.02058 -0.58937,0.04536 -0.87668,0.07765c-2.49301,0.35394 -4.87603,1.21456 -6.80676,2.55885c-0.93617,0.70872 -1.79945,1.53904 -2.53214,2.42983c-0.71884,0.98704 -1.45401,2.28856 -1.96491,3.4137c-0.30097,0.87842 -0.51676,1.67158 -0.57212,2.08903c0.06853,0.14332 -0.02339,0.15492 14.51551,0.56523c10.63426,0.30011 14.14057,0.09501 14.58735,-0.03042l-0.05176,-0.22692c-0.0125,-0.05104 -0.02125,-0.09244 -0.03536,-0.14856c-0.54867,-2.17818 -2.11254,-4.86947 -3.82648,-6.71171c-0.67536,-0.67975 -1.40519,-1.29853 -2.17539,-1.82533c-1.68098,-1.081 -3.67658,-1.77376 -5.77345,-2.09314c-0.4847,-0.05121 -0.99722,-0.08985 -1.54289,-0.11821c-0.44466,-0.02309 -0.88084,-0.03523 -1.30903,-0.03602zM235.41511,91.66065c-0.00011,-0.02787 -0.00168,-0.01742 -0.00455,0.00542c0.00223,-0.00183 0.00374,-0.00365 0.00455,-0.00542z" fill="#0b0000" stroke-width="1.1"/><path d="M236.22842,92.84228c0,8.04066 -6.9445,14.5589 -15.51099,14.5589c-8.56648,0 -16.93028,-6.90153 -16.93028,-14.94218c0,-8.04067 7.75553,-13.98397 16.32201,-13.98397c3.92797,0 8.85935,0.94686 11.73067,3.16249c3.39072,2.61643 4.38859,6.85096 4.38859,11.20476z" fill="#000000" stroke-width="0"/></g><g><path d="M256.91237,97.86985c6.7188,0 15.81512,-11.83841 15.81512,-4.10567c0,7.73274 -1.99978,14.21192 -8.71859,14.21192c-6.7188,0 -18.24822,-2.47878 -18.04546,-16.94903c0.10834,-7.73193 4.23013,6.84277 10.94893,6.84277z" data-paper-data="{&quot;index&quot;:null}" fill="#0b0000" stroke-width="0"/><path d="M248.31399,85.17585c0.50305,-0.71819 1.0704,-1.37518 1.70822,-1.97799c0.54971,-0.55004 1.2047,-1.06308 1.94533,-1.53131c0.08789,-0.05785 0.17552,-0.11612 0.2654,-0.17271c0.0276,-0.01819 0.05545,-0.03602 0.08317,-0.05396c0.01241,-0.00765 0.02431,-0.01591 0.03697,-0.02309c0.82321,-0.53005 1.70681,-0.99288 2.62351,-1.37041c0.26759,-0.11414 0.53826,-0.22176 0.81196,-0.32179c1.01924,-0.40851 1.86981,-0.63535 3.05207,-0.76746c2.94665,-0.44289 7.11703,-0.50277 9.29103,-0.05803c2.62626,0.53726 4.97474,1.75983 6.89812,3.49746c0.9201,0.81265 1.73063,1.7463 2.4261,2.79429c1.41926,2.0886 2.23969,6.52053 0.8839,11.94033c-0.43399,1.41099 -1.59011,2.77318 -2.47622,4.02796c-0.75545,1.11913 -1.66486,2.11015 -2.69584,2.96289c-1.50935,1.30721 -3.2506,2.35602 -5.10779,3.00862c-0.9574,0.33643 -2.51067,0.58135 -4.21534,0.68162c-1.07296,0.09392 -2.16242,0.09667 -3.25275,0.00239c-3.02447,-0.18619 -5.51804,-0.93773 -7.81687,-2.37234c-2.2779,-3.68944 -4.25776,-7.43568 -5.55412,-11.47761c-0.56053,-1.74768 0.0985,-3.89972 -0.75824,-5.50616c0.43928,-1.15153 1.06981,-2.25653 1.85137,-3.28268zM263.14909,80.69066c-1.16481,0 -2.05636,0.00813 -2.79863,0.04415c-1.09184,0.1235 -2.10253,0.29978 -3.02921,0.54179c-0.59314,0.21057 -1.23313,0.49346 -2.06606,0.88105c-2.10833,0.98102 -3.5343,2.00252 -4.5199,3.23122c-0.07317,0.09158 -0.14573,0.18459 -0.21699,0.27912c-0.02646,0.03542 -0.05254,0.07012 -0.07887,0.10636c-0.03633,0.04905 -0.07191,0.09918 -0.10773,0.14908c-0.38834,0.54927 -0.76654,1.17796 -1.11325,1.81145c-0.30679,0.58098 -0.54747,1.0654 -0.75051,1.49841c-0.31764,0.71489 -4.38823,1.94323 9.27444,1.85792c14.93413,-0.09325 20.03825,0.21818 20.03825,0.21818c-0.03076,-0.12686 -0.06697,-0.25761 -0.10444,-0.38911c-0.27923,-0.84122 -0.92878,-2.34561 -1.59237,-3.66198c-0.04497,-0.08926 -0.09181,-0.17572 -0.13814,-0.26318c-0.68412,-1.17627 -1.45663,-2.23367 -2.17701,-2.91455c-0.72966,-0.68968 -1.43818,-1.24854 -2.18354,-1.70197c-0.87381,-0.48928 -1.83054,-0.88189 -2.86986,-1.17816c-1.48453,-0.36622 -3.25235,-0.50992 -5.56626,-0.50992z" fill="#0b0000" stroke-width="1.1"/><path d="M278.80759,91.39896c0,2.48728 -6.53601,4.50361 -14.59857,4.50361c-8.06256,0 -16.42339,-3.54949 -16.42339,-6.03677c0,-2.48728 5.72497,-9.86963 13.78754,-9.86963c2.61825,0 6.97554,0.17363 9.47566,1.52856c5.19869,2.81742 7.75876,8.19466 7.75876,9.87421z" fill="#000000" stroke-width="0"/></g><g fill="#ffffff"><path d="M234.60672,92.66252c0.17362,11.27884 -9.69941,13.21093 -15.45297,13.21093c-5.75355,0 -7.46604,-5.0502 -7.46604,-11.07749c0,-6.02729 7.78949,3.20016 13.54305,3.20016c5.75355,0 9.28318,-11.36026 9.37595,-5.3336z" stroke-width="0"/><path d="M228.53171,82.93815c1.07263,0.69643 2.13763,1.71098 3.07882,2.91049c0.05417,0.06857 0.10652,0.13886 0.15928,0.20864c0.84168,1.10806 1.57688,2.35722 2.11388,3.64693c0.13843,0.33247 0.27695,0.7926 0.41393,1.36421c-0.2012,0.53455 -0.34588,1.01922 -0.41388,1.29152c-0.88392,3.53906 -2.7251,6.58709 -4.22473,9.82135c-0.58814,0.52914 -1.22207,1.00587 -1.89287,1.42797c-0.03843,0.02418 -0.07682,0.04847 -0.1155,0.07224c-3.769,2.32146 -8.68068,2.92256 -13.23977,1.34256c-0.58599,-0.20309 -1.20018,-0.49782 -1.81721,-0.85968c-0.87088,-0.4792 -1.70668,-1.07751 -2.5591,-1.82016c-1.1509,-1.00271 -2.01393,-1.96464 -2.64246,-2.98402c-0.40633,-0.59647 -0.72907,-1.18557 -0.92817,-1.73783c-0.3334,-0.92485 -0.53835,-1.88863 -0.61987,-2.87045c-0.03591,-0.3093 -0.05682,-0.61686 -0.05682,-0.9213c0,-0.31369 0.02051,-0.64311 0.05729,-0.98205c0.0652,-0.85332 0.21589,-1.70965 0.45779,-2.55615c0.26469,-1.20419 0.73222,-2.2391 1.51031,-3.43213c0.19174,-0.31679 0.39161,-0.63075 0.61008,-0.9376l0.68356,-0.95974c1.22759,-0.31784 2.43457,-0.6918 3.34285,-1.14966c0.72311,-0.36451 1.47304,-0.75188 2.24561,-1.13354c1.00853,-0.25202 1.94931,-0.43306 2.69137,-0.47191c2.98865,-0.15645 5.17758,-0.34992 8.4256,-0.29943c0.00893,0.00848 0.01784,0.01694 0.02675,0.02535c0.32696,0.30903 1.13549,0.45804 1.97362,0.53457c0.24266,0.14548 0.4826,0.30266 0.71962,0.46981zM220.22531,82.53051c-0.12427,0 -0.24668,0.00205 -0.36932,0.0041c-0.06811,0.00204 -0.11812,0.00308 -0.18861,0.00615c-0.31002,0.01178 -0.5737,0.0248 -0.84294,0.0374c-0.25371,0.01762 -0.50469,0.03883 -0.75073,0.0665c-2.13485,0.30309 -4.17551,1.04008 -5.82887,2.19124c-0.80168,0.6069 -1.54094,1.31794 -2.16837,2.08075c-0.61556,0.84524 -1.24513,1.95977 -1.68263,2.92326c-0.25773,0.75222 -0.44252,1.43144 -0.48992,1.78893c0.05868,0.12273 -0.02003,0.13265 12.43015,0.48402c9.10649,0.257 12.10907,0.08136 12.49166,-0.02605l-0.04433,-0.19432c-0.0107,-0.04372 -0.01819,-0.07916 -0.03028,-0.12721c-0.46984,-1.86526 -1.80904,-4.1699 -3.27675,-5.74748c-0.57834,-0.58209 -1.20331,-1.11197 -1.86286,-1.56309c-1.43948,-0.9257 -3.14838,-1.51893 -4.94401,-1.79243c-0.41507,-0.04385 -0.85396,-0.07694 -1.32124,-0.10123c-0.38079,-0.01977 -0.75429,-0.03016 -1.12097,-0.03084zM232.8685,92.06606c-0.00009,-0.02387 -0.00143,-0.01491 -0.0039,0.00465c0.00191,-0.00157 0.0032,-0.00312 0.0039,-0.00465z" stroke-width="1.1"/><path d="M233.56495,93.07793c0,6.8855 -5.94683,12.4673 -13.28261,12.4673c-7.33578,0 -14.49801,-5.91002 -14.49801,-12.79552c0,-6.8855 6.64134,-11.97497 13.97712,-11.97497c3.36365,0 7.58658,0.81084 10.04539,2.70816c2.90359,2.24054 3.7581,5.86673 3.7581,9.59503z" stroke-width="0"/></g><g fill="#ffffff"><path d="M276.78039,92.08759c0.17363,11.27884 -9.69941,13.21093 -15.45296,13.21093c-5.75355,0 -7.46603,-5.05021 -7.46603,-11.07749c0,-6.02729 7.78949,3.20016 13.54304,3.20016c5.75356,0 9.28319,-11.36026 9.37595,-5.3336z" stroke-width="0"/><path d="M270.70537,82.36322c1.07263,0.69643 2.13764,1.71099 3.07883,2.91051c0.05417,0.06857 0.10652,0.13886 0.15928,0.20864c0.84168,1.10806 1.57687,2.35722 2.11387,3.64693c0.13843,0.33247 0.27695,0.79259 0.41392,1.3642c-0.20119,0.53455 -0.34587,1.01922 -0.41388,1.29153c-0.88392,3.53906 -2.72509,6.58708 -4.22472,9.82134c-0.58814,0.52914 -1.22207,1.00588 -1.89287,1.42798c-0.03843,0.02419 -0.07681,0.04845 -0.1155,0.07223c-3.769,2.32146 -8.68067,2.92257 -13.23977,1.34257c-0.586,-0.20309 -1.20018,-0.49782 -1.81721,-0.85968c-0.87089,-0.4792 -1.70668,-1.07751 -2.5591,-1.82016c-1.1509,-1.0027 -2.01392,-1.96464 -2.64245,-2.98401c-0.40633,-0.59647 -0.72907,-1.18557 -0.92817,-1.73784c-0.33339,-0.92484 -0.53835,-1.88863 -0.61987,-2.87045c-0.0359,-0.3093 -0.05681,-0.61686 -0.05681,-0.9213c0,-0.3137 0.0205,-0.64311 0.05728,-0.98205c0.06519,-0.85332 0.2159,-1.70965 0.4578,-2.55615c0.26469,-1.20419 0.73221,-2.2391 1.5103,-3.43212c0.19175,-0.31679 0.39161,-0.63075 0.61008,-0.9376l0.68357,-0.95974c1.22759,-0.31784 2.43456,-0.69179 3.34284,-1.14965c0.72311,-0.36451 1.47305,-0.75189 2.24563,-1.13354c1.00853,-0.25203 1.9493,-0.43306 2.69137,-0.47191c2.98865,-0.15645 5.17758,-0.34992 8.4256,-0.29942c0.00893,0.00848 0.01785,0.01693 0.02675,0.02534c0.32696,0.30903 1.13548,0.45804 1.97361,0.53457c0.24264,0.14548 0.4826,0.30267 0.71962,0.46981zM262.39897,81.95558c-0.12426,0 -0.24669,0.00206 -0.36932,0.0041c-0.0681,0.00204 -0.11811,0.00307 -0.18861,0.00614c-0.31002,0.01178 -0.5737,0.0248 -0.84294,0.0374c-0.25371,0.01762 -0.5047,0.03883 -0.75073,0.0665c-2.13485,0.30309 -4.17552,1.04007 -5.82887,2.19123c-0.80168,0.6069 -1.54093,1.31794 -2.16836,2.08075c-0.61557,0.84524 -1.24512,1.95977 -1.68262,2.92326c-0.25773,0.75222 -0.44252,1.43144 -0.48994,1.78892c0.05868,0.12273 -0.02003,0.13266 12.43015,0.48402c9.10649,0.257 12.10907,0.08136 12.49166,-0.02605l-0.04432,-0.19432c-0.0107,-0.04371 -0.01819,-0.07916 -0.03028,-0.12721c-0.46985,-1.86526 -1.80904,-4.1699 -3.27675,-5.74748c-0.57834,-0.58209 -1.20331,-1.11196 -1.86285,-1.56309c-1.43948,-0.9257 -3.14839,-1.51893 -4.94401,-1.79243c-0.41507,-0.04385 -0.85396,-0.07694 -1.32123,-0.10123c-0.38078,-0.01977 -0.75429,-0.03016 -1.12097,-0.03084zM275.04215,91.49113c-0.00009,-0.02387 -0.00144,-0.01492 -0.0039,0.00464c0.00191,-0.00157 0.0032,-0.00312 0.0039,-0.00464z" stroke-width="1.1"/><path d="M275.73861,92.50299c0,6.8855 -5.94683,12.4673 -13.2826,12.4673c-7.33578,0 -14.498,-5.91003 -14.498,-12.79553c0,-6.8855 6.64135,-11.97496 13.97712,-11.97496c3.36365,0 7.58658,0.81084 10.04538,2.70816c2.90359,2.24054 3.7581,5.86672 3.7581,9.59503z" stroke-width="0"/></g><g><path d="M259.44969,95.3853c3.29976,0 7.76718,-5.81412 7.76718,-2.01638c0,3.79774 -0.98214,6.97981 -4.28191,6.97981c-3.29976,0 -8.96213,-1.21739 -8.86255,-8.32407c0.05321,-3.79734 2.07752,3.36065 5.37728,3.36065z" data-paper-data="{&quot;index&quot;:null}" fill="#0b0000" stroke-width="0"/><path d="M255.22682,89.15097c0.24707,-0.35272 0.52569,-0.67539 0.83894,-0.97144c0.26997,-0.27014 0.59166,-0.5221 0.9554,-0.75205c0.04317,-0.02841 0.0862,-0.05703 0.13034,-0.08482c0.01355,-0.00893 0.02723,-0.01769 0.04084,-0.0265c0.00609,-0.00376 0.01194,-0.00781 0.01816,-0.01134c0.4043,-0.26032 0.83826,-0.48763 1.28847,-0.67305c0.13142,-0.05606 0.26435,-0.10891 0.39878,-0.15803c0.50058,-0.20063 0.91831,-0.31203 1.49894,-0.37691c1.44717,-0.21751 3.49534,-0.24693 4.56304,-0.0285c1.28981,0.26386 2.44321,0.86429 3.38783,1.71769c0.45188,0.39911 0.84995,0.85765 1.19151,1.37234c0.69704,1.02576 1.09997,3.20239 0.43411,5.86418c-0.21314,0.69298 -0.78095,1.36198 -1.21613,1.97822c-0.37102,0.54963 -0.81765,1.03634 -1.32399,1.45514c-0.74127,0.642 -1.59645,1.1571 -2.50855,1.47761c-0.47019,0.16523 -1.23305,0.28552 -2.07026,0.33476c-0.52695,0.04613 -1.06201,0.04748 -1.59749,0.00117c-1.48538,-0.09144 -2.71004,-0.46054 -3.83905,-1.16512c-1.11873,-1.81198 -2.09109,-3.65183 -2.72776,-5.63692c-0.27529,-0.85832 0.04837,-1.91524 -0.37239,-2.70421c0.21573,-0.56555 0.52541,-1.10824 0.90925,-1.6122zM262.51269,86.94819c-0.57207,0 -1.00993,0.00399 -1.37447,0.02168c-0.53623,0.06066 -1.0326,0.14723 -1.48772,0.26609c-0.2913,0.10341 -0.60562,0.24236 -1.01469,0.4327c-1.03544,0.4818 -1.73578,0.98348 -2.21983,1.58692c-0.03593,0.04498 -0.07157,0.09066 -0.10657,0.13708c-0.013,0.01739 -0.02581,0.03444 -0.03874,0.05223c-0.01784,0.02408 -0.03531,0.04871 -0.05291,0.07321c-0.19072,0.26976 -0.37646,0.57852 -0.54674,0.88965c-0.15067,0.28534 -0.26887,0.52325 -0.36858,0.73591c-0.15601,0.3511 -2.15517,0.95436 4.55489,0.91247c7.3345,-0.0458 9.84126,0.10715 9.84126,0.10715c-0.01511,-0.0623 -0.03289,-0.12652 -0.05129,-0.1911c-0.13713,-0.41315 -0.45615,-1.15198 -0.78205,-1.79848c-0.02208,-0.04384 -0.04508,-0.0863 -0.06784,-0.12926c-0.33599,-0.5777 -0.71539,-1.097 -1.06918,-1.4314c-0.35836,-0.33872 -0.70632,-0.61318 -1.07239,-0.83588c-0.42915,-0.2403 -0.89902,-0.43312 -1.40945,-0.57862c-0.72909,-0.17986 -1.59731,-0.25044 -2.73373,-0.25044z" fill="#0b0000" stroke-width="1.1"/><path d="M270.20295,92.20729c0,1.22155 -3.20998,2.21184 -7.16971,2.21184c-3.95971,0 -8.06592,-1.74324 -8.06592,-2.9648c0,-1.22155 2.81167,-4.84721 6.77139,-4.84721c1.28589,0 3.42586,0.08528 4.65373,0.75072c2.5532,1.3837 3.81051,4.02459 3.81051,4.84946z" fill="#000000" stroke-width="0"/></g><g><path d="M217.47878,95.3853c3.29977,0 7.76719,-5.81412 7.76719,-2.01638c0,3.79774 -0.98215,6.97981 -4.28192,6.97981c-3.29977,0 -8.96212,-1.21739 -8.86254,-8.32408c0.05321,-3.79734 2.07751,3.36065 5.37727,3.36065z" data-paper-data="{&quot;index&quot;:null}" fill="#0b0000" stroke-width="0"/><path d="M213.25592,89.15097c0.24706,-0.35272 0.5257,-0.67539 0.83894,-0.97144c0.26997,-0.27014 0.59166,-0.5221 0.9554,-0.75205c0.04316,-0.02841 0.0862,-0.05703 0.13034,-0.08482c0.01355,-0.00893 0.02723,-0.01769 0.04084,-0.0265c0.00609,-0.00376 0.01195,-0.00781 0.01816,-0.01134c0.40429,-0.26032 0.83826,-0.48763 1.28847,-0.67305c0.13142,-0.05606 0.26435,-0.10891 0.39877,-0.15804c0.50057,-0.20063 0.91831,-0.31203 1.49894,-0.37691c1.44717,-0.21751 3.49534,-0.24692 4.56305,-0.0285c1.28982,0.26386 2.44321,0.86429 3.38783,1.71769c0.45189,0.39911 0.84996,0.85765 1.19152,1.37234c0.69703,1.02576 1.09996,3.20238 0.4341,5.86417c-0.21314,0.69298 -0.78095,1.36198 -1.21613,1.97823c-0.37101,0.54963 -0.81766,1.03634 -1.32399,1.45514c-0.74128,0.642 -1.59644,1.15711 -2.50855,1.47762c-0.4702,0.16523 -1.23305,0.28551 -2.07025,0.33475c-0.52695,0.04613 -1.06201,0.04747 -1.59749,0.00117c-1.48539,-0.09144 -2.71005,-0.46054 -3.83905,-1.16512c-1.11873,-1.81198 -2.09108,-3.65183 -2.72776,-5.63692c-0.27528,-0.85832 0.04837,-1.91524 -0.37239,-2.70421c0.21573,-0.56555 0.52541,-1.10824 0.90926,-1.6122zM220.54179,86.94819c-0.57207,0 -1.00992,0.004 -1.37447,0.02169c-0.53623,0.06066 -1.0326,0.14723 -1.48771,0.26609c-0.2913,0.10342 -0.60562,0.24236 -1.01469,0.4327c-1.03545,0.4818 -1.73578,0.98348 -2.21983,1.58692c-0.03593,0.04498 -0.07157,0.09065 -0.10657,0.13708c-0.013,0.01739 -0.0258,0.03444 -0.03874,0.05224c-0.01784,0.02408 -0.03532,0.04871 -0.05291,0.07321c-0.19073,0.26976 -0.37646,0.57852 -0.54674,0.88964c-0.15067,0.28534 -0.26888,0.52324 -0.36859,0.73591c-0.156,0.3511 -2.15516,0.95437 4.5549,0.91247c7.33451,-0.0458 9.84125,0.10716 9.84125,0.10716c-0.01511,-0.0623 -0.03288,-0.12652 -0.05129,-0.19111c-0.13714,-0.41314 -0.45615,-1.15197 -0.78205,-1.79847c-0.02209,-0.04384 -0.04509,-0.0863 -0.06784,-0.12926c-0.33599,-0.5777 -0.71539,-1.097 -1.06919,-1.4314c-0.35835,-0.33872 -0.70632,-0.61318 -1.07238,-0.83588c-0.42915,-0.2403 -0.89902,-0.43312 -1.40946,-0.57862c-0.72909,-0.17986 -1.59731,-0.25043 -2.73372,-0.25043z" fill="#0b0000" stroke-width="1.1"/><path d="M228.23205,92.20729c0,1.22156 -3.20999,2.21184 -7.16971,2.21184c-3.95971,0 -8.06591,-1.74324 -8.06591,-2.9648c0,-1.22156 2.81168,-4.84721 6.77139,-4.84721c1.28589,0 3.42585,0.08527 4.65372,0.75071c2.5532,1.3837 3.81052,4.02459 3.81052,4.84946z" fill="#000000" stroke-width="0"/></g></g><g><g><path d="M230.75395,82.58337c0,3.12234 -5.84323,6.99499 -11.05031,6.99499c-5.20708,0 -9.42825,-2.53114 -9.42825,-5.65347c0,-3.12234 4.22117,-5.65348 9.42825,-5.65348c5.20708,0 11.05031,1.18964 11.05031,4.31198z" fill="#0b0000" stroke-width="0"/><path d="M236.02566,92.06972c0,2.33416 1.39475,0.37992 -0.84592,0.55185c-4.76993,0.366 -15.27334,0.21472 -15.27334,0.21472c0,0 -10.17404,0.04975 -14.21335,-0.42485c-1.81099,-0.21278 0.52719,1.91897 0.52719,-0.34172c0,-7.30308 6.67217,-10.34874 14.90271,-10.34874c8.23054,0 14.90271,3.04566 14.90271,10.34874z" fill="#ffffff" stroke-width="0"/><path d="M229.04335,80.18353c0.01696,0.00981 0.02521,0.01651 0.04406,0.02728c0.42817,0.23301 0.84957,0.49879 1.26334,0.79058c1.25258,0.81328 2.49626,1.99804 3.59536,3.39879c0.06325,0.08008 0.12439,0.16216 0.186,0.24365c0.98289,1.29397 1.84142,2.75267 2.46851,4.25876c0.16165,0.38825 0.32341,0.92556 0.48336,1.59307c-0.23495,0.62422 -0.4039,1.19022 -0.48332,1.50821c-0.11859,0.47481 -0.25194,0.94204 -0.39773,1.40291c-0.18294,0.00182 -0.36577,0.00332 -0.54848,0.00445c-8.62143,0.05349 -17.86367,-0.2184 -26.48157,0.02097c-2.61339,0.07259 -4.18619,-0.18444 -5.37526,-0.06529c0.01003,-0.25744 0.03049,-0.52236 0.0598,-0.79244c0.07614,-0.99649 0.25212,-1.99648 0.53459,-2.98499c0.3091,-1.40622 0.85505,-2.61474 1.76369,-4.00792c0.22392,-0.36995 0.45732,-0.73656 0.71244,-1.09488l0.5345,-0.75047c0.53904,-0.43214 1.06073,-0.85416 1.57005,-1.18904c1.17255,-0.77094 2.47967,-1.35353 3.62267,-2.16315c0.09301,-0.06588 0.18133,-0.13293 0.26503,-0.20101c3.19348,-0.00245 6.38703,0.02075 9.58048,0.00483c2.38357,-0.01188 5.10222,-0.23572 7.41461,-0.13335c-0.58127,0.00618 -0.83215,0.03645 -0.81213,0.12904zM220.65082,80.52536c-0.14511,0 -0.28807,0.00239 -0.43127,0.00478c-0.07953,0.0024 -0.13794,0.00359 -0.22026,0.00718c-0.36203,0.01376 -0.66994,0.02895 -0.98435,0.04367c-0.29628,0.02058 -0.58937,0.04535 -0.87668,0.07765c-2.49301,0.35394 -4.87603,1.21456 -6.80676,2.55885c-0.93617,0.70872 -1.79945,1.53904 -2.53214,2.42983c-0.71884,0.98704 -1.45401,2.28856 -1.96491,3.4137c-0.30097,0.87842 -0.51676,1.67158 -0.57212,2.08903c0.06853,0.14332 -0.02339,0.15492 14.51551,0.56523c10.63426,0.30011 14.14057,0.09501 14.58735,-0.03042l-0.05176,-0.22692c-0.0125,-0.05104 -0.02125,-0.09244 -0.03536,-0.14856c-0.54867,-2.17818 -2.11254,-4.86947 -3.82648,-6.71171c-0.67536,-0.67975 -1.40519,-1.29853 -2.17539,-1.82533c-1.68098,-1.081 -3.67658,-1.77376 -5.77345,-2.09314c-0.4847,-0.05121 -0.99722,-0.08985 -1.54289,-0.11821c-0.44466,-0.02309 -0.88084,-0.03523 -1.30903,-0.03602zM235.41511,91.66066c-0.00011,-0.02787 -0.00168,-0.01743 -0.00455,0.00541c0.00223,-0.00183 0.00374,-0.00364 0.00455,-0.00541z" fill="#0b0000" stroke-width="1.1"/></g><g><path d="M277.99656,92.83629c0,3.3388 -0.94753,0.09977 -3.50902,-0.96251c-2.71654,-1.12658 -7.17246,-0.18735 -11.49506,-0.18735c-5.44095,0 -10.2996,-1.03773 -13.04682,-0.53481c-1.49332,0.27337 -2.36278,4.10738 -2.36278,1.68467c0,-6.87971 6.80834,-12.45682 15.20685,-12.45682c8.39851,0 15.20685,5.57711 15.20685,12.45682z" fill="#ffffff" stroke-width="0"/><path d="M248.31399,85.17585c0.50305,-0.71819 1.0704,-1.37518 1.70822,-1.97799c0.54971,-0.55004 1.2047,-1.06308 1.94533,-1.53131c0.08789,-0.05785 0.17552,-0.11612 0.2654,-0.17271c0.0276,-0.01819 0.05545,-0.03602 0.08317,-0.05396c0.01241,-0.00765 0.02431,-0.01591 0.03697,-0.02309c0.82321,-0.53005 1.70681,-0.99288 2.62351,-1.37041c0.26759,-0.11414 0.53826,-0.22176 0.81196,-0.32179c1.01924,-0.40851 1.86981,-0.63535 3.05207,-0.76746c2.94665,-0.44289 7.11703,-0.50276 9.29103,-0.05803c2.62626,0.53726 4.97474,1.75982 6.89812,3.49746c0.9201,0.81265 1.73063,1.7463 2.4261,2.79429c1.03544,1.52378 1.75215,4.29483 1.53758,7.78679c-2.05039,-1.20195 -6.12547,-0.24294 -8.05911,-0.14137c-6.36301,0.33423 -12.51564,0.18193 -19.09356,0.19164c-1.59595,0.00236 -3.19936,0.03422 -4.80549,0.07871c-0.20408,-1.55836 0.14821,-3.29638 -0.57269,-4.64811c0.43928,-1.15153 1.06982,-2.25654 1.85138,-3.28269zM263.14909,80.69066c-1.16481,0 -2.05636,0.00814 -2.79863,0.04416c-1.09184,0.1235 -2.10253,0.29977 -3.02921,0.54178c-0.59314,0.21057 -1.23313,0.49347 -2.06606,0.88106c-2.10833,0.98102 -3.5343,2.00251 -4.5199,3.23121c-0.07317,0.09158 -0.14573,0.1846 -0.21699,0.27912c-0.02646,0.03542 -0.05254,0.07012 -0.07887,0.10637c-0.03633,0.04905 -0.07191,0.09917 -0.10773,0.14907c-0.38834,0.54927 -0.76654,1.17796 -1.11325,1.81145c-0.30679,0.58098 -0.54747,1.0654 -0.75051,1.49841c-0.31764,0.71489 -4.38823,1.94324 9.27444,1.85793c14.93413,-0.09325 20.03825,0.21817 20.03825,0.21817c-0.03076,-0.12686 -0.06697,-0.2576 -0.10444,-0.38911c-0.27923,-0.84122 -0.92878,-2.34561 -1.59237,-3.66198c-0.04497,-0.08926 -0.09181,-0.17572 -0.13814,-0.26318c-0.68412,-1.17627 -1.45663,-2.23367 -2.17701,-2.91455c-0.72966,-0.68968 -1.43818,-1.24854 -2.18354,-1.70197c-0.87381,-0.48928 -1.83054,-0.88189 -2.86986,-1.17816c-1.48453,-0.36622 -3.25235,-0.50992 -5.56626,-0.50992z" fill="#0b0000" stroke-width="1.1"/></g></g><g fill="#0b0000" stroke-width="1.1"><path d=""/><path d="M208.48319,79.51775c0.17354,-0.06374 0.32917,-0.12859 0.47097,-0.1938c0.07341,-0.0353 0.1514,-0.07059 0.21645,-0.1059c0.01302,-0.00741 0.02583,-0.01496 0.03861,-0.02213c0.06413,-0.03566 0.11644,-0.07083 0.17131,-0.10636c0.11037,-0.07485 0.20894,-0.15215 0.29041,-0.23028c0.02084,-0.02273 0.04646,-0.04547 0.06309,-0.06832c0.00418,-0.00562 0.00822,-0.01042 0.01202,-0.0164c0.01445,-0.02106 0.02731,-0.04199 0.03807,-0.06317c0.00418,-0.00849 0.00734,-0.01687 0.01089,-0.02524c0.00848,-0.01939 0.01699,-0.03888 0.0223,-0.05815c0.01952,-0.07058 0.06192,-0.14531 0.12127,-0.22308c0,-0.0024 0.00165,-0.00598 0.00165,-0.00838c0,-0.69176 2.63625,-1.87165 6.73552,-3.05182c0.15957,-0.0465 0.31903,-0.09233 0.47967,-0.13672c0.19351,-0.05415 0.37212,-0.10836 0.57158,-0.16244c0.21686,-0.05876 0.46388,-0.11691 0.73583,-0.17374c0.00418,-0.00119 0.00835,-0.00254 0.01253,-0.0036c0.53743,-0.1256 1.35673,-0.25486 2.31351,-0.37832c4.72161,-0.63865 12.05955,-1.00249 13.93222,-0.55825c0.2361,0.056 0.4256,0.10685 0.58028,0.17529l0.18382,-0.00598v0.11104c0.44831,0.32443 0.47314,1.03302 0.47314,3.29803v0.47086c0.0014,0.35222 0.00393,0.67072 0,0.93503v0.02465l0.08593,1.00853l0.06309,0.641l-0.149,-0.01902v0.2236l-2.01059,-0.36754c-0.1834,-0.03362 -0.39727,-0.06401 -0.60476,-0.09512c-0.48829,-0.05104 -1.11377,-0.12661 -1.80066,-0.2087c-0.47405,-0.0396 -0.92386,-0.06868 -1.26064,-0.06987c-0.88567,-0.00302 -1.2627,0.01735 -1.23834,0.13005c0.01696,0.00981 0.02521,0.01652 0.04406,0.02729c0.07775,0.04232 0.15528,0.0857 0.23259,0.13013c-1.05039,-0.1905 -2.11157,-0.33805 -3.02671,-0.34475c-5.53338,-0.04053 -12.78689,0.14879 -17.61671,3.00347c-0.44136,0.26087 -0.88541,0.51927 -1.31248,0.79068l1.1307,-1.58753l-1.95352,0.25286c-0.25883,0.03351 -0.58111,0.06832 -0.92672,0.1023c-1.07875,0.12944 -2.40488,0.27776 -3.59807,0.39323l-1.82317,0.17674c-0.0303,-0.68244 0.11941,-1.39656 0.14695,-2.08053c0.00309,-0.07677 0.00874,-0.15376 0.01672,-0.23092c2.13029,-0.14522 6.6577,-0.82905 8.1262,-1.29873z"/><path d="M284.29857,74.79536c-0.02772,-0.04578 -0.05621,-0.09029 -0.0876,-0.13109c-0.01963,-0.01579 -0.04203,-0.03207 -0.06849,-0.04882c-0.44308,-0.2208 -1.2948,-0.49384 -2.40324,-0.78235c-2.67002,-0.66201 -6.88252,-1.40633 -9.93495,-1.67781c-4.92455,-0.43795 -11.06322,0.02995 -15.91616,1.06662c-0.20208,0.04845 -0.40449,0.09655 -0.6053,0.14752c-0.07679,0.01878 -0.15333,0.0384 -0.23005,0.05754c-1.26779,0.32894 -2.50935,0.70735 -3.71283,1.1355c-0.27728,0.09865 -0.46799,0.162 -0.72875,0.25342c-0.16635,0.07324 -0.32766,0.1472 -0.48185,0.22257c-0.66438,0.31809 -1.72572,0.63494 -2.38475,0.61221l0.00126,-0.0329l-0.00126,0.00052l0.03974,-0.91291v-2.16307c0,-0.02524 0.00056,-0.04187 0.00056,-0.06676v-3.45789l0.76301,-0.20561l0.72005,-0.20253l0.76356,-0.23439c3.27738,-1.0052 6.63691,-1.49054 11.03353,-1.55599c0.14914,-0.00443 0.29823,-0.00921 0.44813,-0.0128c0.12914,-0.00359 0.26061,-0.00359 0.39049,-0.00598c0.2435,-0.00478 0.48774,-0.00665 0.7331,-0.00718c0.25336,-0.00239 0.50252,-0.00838 0.75866,-0.00718c0.81589,0.00419 1.57065,0.01795 2.27599,0.03961c0.66693,0.01771 1.31052,0.04703 1.91976,0.09045c0.50742,0.0335 0.98166,0.07275 1.41781,0.11977c2.87911,0.17848 3.97948,0.43259 4.24743,0.9376v0.00052c0.02494,0.04718 0.04405,0.09636 0.05544,0.14804c0.01164,0.05194 0.01798,0.10662 0.01798,0.16345v0.00052c0,0.05566 0.08963,0.13739 0.25615,0.24005c0.16652,0.10267 0.40994,0.22595 0.71678,0.36496c0.81823,0.37068 2.08866,0.85178 3.56327,1.34163c0.2662,0.08844 0.54536,0.17682 0.82339,0.26523c0.37889,0.11662 0.75058,0.23313 1.1399,0.35931l4.174,1.30514l0.186,0.05804c0.1361,0.02639 0.24744,0.04407 0.32984,0.05187c0.25182,0.69314 0.4686,1.39404 0.61764,2.09843c-0.24848,0.50334 -0.43658,0.90487 -0.46902,0.95986c-0.09551,0.16188 -0.18853,0.32108 -0.27897,0.47794c-0.01478,-0.50499 -0.04417,-0.85592 -0.09023,-1.01307z"/><path d=""/><path d="M252.55417,99.73544l-0.00182,0.00862l-0.08324,0.0918l-0.07764,-0.10042z"/></g><path d="M241.70288,143.8134c0,0 -5.41411,-6.85956 -5.9324,-13.0278c-0.32528,-3.87118 2.47291,-7.02833 2.7973,-11.31722c0.65524,-8.66321 -0.6642,-18.40237 -1.36977,-23.17667c-0.86159,-5.83007 -4.41648,-12.84594 -4.41648,-12.84594h18.04546c0,0 -3.49131,6.40394 -4.13071,12.6229c-1.14464,11.13306 -2.15479,48.51133 -2.15479,48.51133z" fill="#ffffff" stroke-width="0"/><path d="M235.18996,133.28733c-0.04869,-0.29769 -0.18893,-0.73737 -0.40788,-1.23264c-0.32764,-0.7412 -0.53046,-1.50277 -0.61727,-2.24787c-0.17686,-0.96964 -0.12132,-1.77775 0.1811,-2.54807c0.32366,-1.15157 0.98263,-2.10907 1.93881,-2.66063c0.67505,-0.3894 0.78945,-8.6457 0.39156,-15.34542c-0.09955,-1.37221 -0.20308,-2.67142 -0.30564,-3.8131c-0.05655,-0.52984 -0.11576,-1.03751 -0.1811,-1.49891c-0.03235,-0.2285 -0.06376,-0.45096 -0.09422,-0.66725c0.16993,-3.05823 0.3437,-8.48351 -0.80083,-10.9004c0.07663,-0.19996 0.11509,-0.31693 0.12063,-0.3291c-0.00034,-0.08617 -0.01455,-0.18929 -0.03861,-0.30943l-0.06308,-0.27656c-0.0125,-0.05104 -0.02125,-0.09244 -0.03536,-0.14856c-0.54867,-2.17818 -2.11254,-4.86947 -3.82648,-6.71171c-0.36945,-0.37185 -0.75519,-0.72545 -1.15493,-1.05573c0.97698,0.04461 1.92673,0.01504 2.8156,-0.13235c0.28534,0.31563 0.56396,0.6466 0.83388,0.99059c0.06325,0.08008 0.12439,0.16216 0.186,0.24365c0.98289,1.29397 1.84142,2.75267 2.46851,4.25876c1.18897,2.85559 2.38346,13.77491 2.82473,25.25185c0.12246,2.37489 0.22737,4.81894 0.30836,7.30441c0.13281,4.07569 0.27487,7.48787 0.43073,10.33668c0.10778,1.62403 0.2184,3.04521 0.32467,4.06137c0.23326,2.23044 0.40629,3.95531 0.52699,5.20664c0.17294,0.9445 0.3602,1.57319 0.5656,1.89062c0.23242,0.08484 0.54091,0.15579 0.88102,0.19277c1.1847,0.12883 1.32949,-0.01826 1.62067,-1.64696c0.08205,-0.45908 0.16002,-1.50962 0.22243,-2.83848c0.0086,-0.44086 0.0162,-0.88051 0.02506,-1.40947l0.00055,0.00053c0.01608,-1.01936 0.06039,-2.60383 0.11533,-4.38367c0.03502,-3.62951 0.25319,-10.60505 0.50577,-16.0039c0.2635,-5.63232 0.55207,-13.86223 0.64119,-18.28876c0.01988,-0.99039 0.05241,-1.96793 0.09241,-2.90942c0.05833,-2.61941 0.15594,-4.16303 0.37579,-5.33309c0.08044,-0.68614 0.16458,-1.20267 0.248,-1.4501c0.43982,-1.30478 1.1268,-2.55593 2.00406,-3.70772c0.30978,-0.44226 0.64393,-0.86129 1.00391,-1.25877c0.27781,0.03672 0.56162,0.05571 0.85013,0.05571c0.79163,0 1.54794,-0.14293 2.24162,-0.40299c-0.06814,0.13534 -0.12357,0.2551 -0.16144,0.35267c-0.59612,0.45993 -1.09425,0.94447 -1.51291,1.46639c-0.07317,0.09158 -0.14573,0.1846 -0.21699,0.27912c-0.02646,0.03542 -0.05254,0.07012 -0.07887,0.10637c-0.03633,0.04905 -0.07191,0.09917 -0.10773,0.14907c-0.38834,0.54927 -0.76654,1.17796 -1.11325,1.81145c-0.06383,0.12089 -0.1248,0.23759 -0.18317,0.35052c-0.71251,0.85556 -1.17354,1.90698 -1.27782,3.05475c-0.00518,0.17274 -0.011,0.34057 -0.02254,0.49838c-0.27811,3.80243 0.0765,7.24273 0.60186,10.72241c-0.01273,0.00074 -0.02416,0.00274 -0.03422,0.00602l-0.08152,0.57006l-0.01798,0.16295c-0.09304,1.2528 -0.34821,4.29434 -0.65479,7.77165c-0.89496,10.14993 -0.88331,12.91538 0.06305,15.03598c0.43851,0.98262 0.78748,3.03672 0.80761,4.74966l0.03325,2.79334l-0.31704,1.19862l0.09003,0.02128c-0.38663,0.62027 -0.69561,1.23981 -0.94153,1.93016c-0.28374,0.15208 -0.48293,0.39302 -0.61924,0.76866c-0.04654,0.18138 -0.08868,0.44397 -0.12779,0.74021l-0.07443,1.75284l-0.07229,1.70146c0.01951,0.52641 0.05951,0.88362 0.13977,1.09438c0.05083,0.0732 0.11678,0.12707 0.20118,0.16401c-0.09043,0.62027 -0.17255,1.24256 -0.23794,1.86884l-0.01054,0.03983c-0.15771,0.06024 -0.31757,0.11965 -0.47982,0.17831c-1.92308,0.21706 -3.87509,-0.0036 -5.82712,-0.32124c-0.39605,-0.74385 -0.79835,-1.48432 -1.21352,-2.21675c0.13459,-0.06606 0.19612,-0.16248 0.21225,-0.28769c-0.02316,-0.13036 -0.08109,-0.28675 -0.13541,-0.47239c-0.16194,-0.55331 -0.61153,-1.84228 -0.99958,-2.86419c-0.04364,-0.11496 -0.08001,-0.20399 -0.11964,-0.30534c-0.19455,-0.40262 -0.38921,-0.73826 -0.58641,-1.00876c-0.0212,-0.0865 -0.04959,-0.16744 -0.08099,-0.24108c-0.07618,-0.2235 -0.21577,-0.48009 -0.4716,-0.66995l-0.80318,-0.91098c-0.5459,-0.55289 -0.82171,-1.35856 -0.87339,-2.11323c0,0 -0.00185,-0.01581 -0.00694,-0.04391c0.04957,-0.04503 0.07955,-0.10024 0.09295,-0.16635zM236.96724,126.87483c-0.02925,0.00478 -0.06014,0.01758 -0.09354,0.04008c-0.08413,0.08113 -0.18648,0.27889 -0.32032,0.57366c-0.39034,0.85965 -0.40288,1.66921 -0.0446,2.90634c0.12905,0.44555 0.2448,0.8229 0.34915,1.14372c0.02281,0.05776 0.03969,0.10657 0.06362,0.16604c0.27643,0.68723 0.46464,1.02205 0.57268,0.97563c0.09918,-0.29913 0.0584,-1.3735 -0.11367,-3.25331c-0.16172,-1.76678 -0.25144,-2.50383 -0.41332,-2.55217z" fill="#0b0000" stroke-width="1.1"/></g></g></g></g></svg>