<svg version="1.1" xmlns="http://www.w3.org/2000/svg" xmlns:xlink="http://www.w3.org/1999/xlink" width="11.5405" height="23.65909" viewBox="0,0,11.5405,23.65909"><g transform="translate(-239.89762,-170.89806)"><g data-paper-data="{&quot;isPaintingLayer&quot;:true}" fill-rule="nonzero" stroke="none" stroke-linecap="butt" stroke-linejoin="miter" stroke-miterlimit="10" stroke-dasharray="" stroke-dashoffset="0" style="mix-blend-mode: normal"><path d="M241.66994,176.89644c0.97442,-0.7374 2.26487,-1.1061 3.84501,-1.1061c1.58014,0 2.87059,0.39503 3.87135,1.15877c1.00076,0.76374 1.50114,1.76448 1.50114,2.97593h-3.13394c-0.07901,-1.02708 -0.94808,-1.73815 -2.2122,-1.73815c-1.15877,0 -1.97518,0.57939 -1.97518,1.42213c0,0.94808 0.94808,1.31678 3.13395,1.76448c1.1851,0.21068 2.47556,0.63207 3.52899,1.44847c0.60572,0.52672 1.05343,1.39579 1.05343,2.42289c0,1.1851 -0.52672,2.15954 -1.55381,2.92326c-1.05343,0.76374 -2.39655,1.13244 -4.0557,1.13244c-1.68548,0 -3.05494,-0.39504 -4.13471,-1.18511c-1.07977,-0.79008 -1.60648,-1.79082 -1.60648,-3.02861h3.3183c0.07901,1.05343 1.02709,1.76449 2.39655,1.76449c1.26412,0 2.15953,-0.63204 2.15953,-1.50113c0,-0.94808 -0.94809,-1.29045 -3.05495,-1.73817c-0.18435,-0.02635 -0.31603,-0.05271 -0.39504,-0.07907c-2.76525,-0.65839 -4.16104,-1.89617 -4.16104,-3.766c0,-1.18512 0.50038,-2.13321 1.4748,-2.87059z" fill="#000000" stroke-width="0.35808"/><path d="M239.89762,194.55715v-23.65909h11.5405v23.65909z" fill-opacity="0.00403" fill="#808080" stroke-width="0"/></g></g></svg>