<svg version="1.1" xmlns="http://www.w3.org/2000/svg" xmlns:xlink="http://www.w3.org/1999/xlink" width="35.14907" height="35.14876" viewBox="0,0,35.14907,35.14876"><g transform="translate(-222.41345,-162.41345)"><g data-paper-data="{&quot;isPaintingLayer&quot;:true}" stroke="none" stroke-miterlimit="10" stroke-dasharray="" stroke-dashoffset="0" style="mix-blend-mode: normal"><path d="M229.48312,162.41346h20.03379c3.9166,0 7.06966,3.15307 7.06966,7.06966v20.03379c0,3.91659 -3.15306,7.06966 -7.06966,7.06966h-20.03379c-3.91659,0 -7.06966,-3.15307 -7.06966,-7.06966v-20.03379c0,-3.91659 3.15307,-7.06966 7.06966,-7.06966z" fill-opacity="0.59677" fill="#5e807a" fill-rule="evenodd" stroke-width="4.43922" stroke-linecap="round" stroke-linejoin="round"/><g fill-rule="nonzero" stroke-width="0" stroke-linecap="butt" stroke-linejoin="miter"><path d="M249.21923,185.36869c-3.77109,6.84474 -12.50271,8.70012 -16.68749,6.47784c-4.85043,-2.57575 -6.96046,-10.58421 -3.18937,-17.42895c2.2379,-4.0619 6.78687,-13.75417 17.55435,-7.81402c10.42012,5.74851 5.07147,13.77561 2.32251,18.76513z" fill="#0b1014"/><path d="M248.74842,186.04533c-1.47436,2.67604 -3.70944,4.27305 -6.21907,5.34574c-3.0687,1.31165 -6.54644,1.66052 -9.52783,0.01793c-5.41963,-2.98593 -7.15645,-10.22847 -3.8793,-16.17667c3.27715,-5.94821 10.32727,-8.3496 15.7469,-5.36367c5.41963,2.98593 7.15645,10.22847 3.8793,16.17667z" fill="#24423a"/><path d="M246.45585,187.83429c-2.63554,4.78365 -9.21956,6.07141 -13.72041,3.73149c-4.54774,-2.36429 -6.81182,-8.80798 -4.17628,-13.59163c2.63554,-4.78365 8.77838,-6.4543 13.72041,-3.73149c4.94203,2.7228 6.81182,8.80798 4.17628,13.59163z" fill="#537962"/><path d="M243.60159,190.52411c-0.98848,1.79414 -4.05263,1.8584 -5.71704,2.46277c-1.55895,0.63351 -3.81836,0.49104 -5.19623,-0.2681c-3.9044,-2.15112 -4.82169,-6.76757 -5.28492,-9.0624c-0.18123,-0.89778 0.54546,-2.04418 1.39772,-2.91895c2.70716,-2.77868 5.78964,-6.55699 11.8485,-2.64676c4.91656,3.17302 4.91011,8.87932 2.95198,12.43343z" fill="#adbecb"/><path d="M238.5304,178.7347c-0.90379,1.64042 -2.96628,2.23758 -4.6067,1.3338c-1.64042,-0.90379 -2.23758,-2.96628 -1.3338,-4.6067c0.90379,-1.64042 2.96628,-2.23758 4.6067,-1.3338c1.64042,0.90379 2.23758,2.96628 1.3338,4.6067z" fill="#000000"/><path d="M246.54264,183.05099c-0.90379,1.64042 -2.96628,2.23758 -4.6067,1.3338c-1.64042,-0.90379 -2.23758,-2.96628 -1.3338,-4.6067c0.90379,-1.64042 2.96628,-2.23758 4.6067,-1.3338c1.64042,0.90379 2.23758,2.96628 1.3338,4.6067z" fill="#000000"/><path d="M237.31103,177.85983c-0.51645,0.93739 -1.69501,1.27862 -2.6324,0.76217c-0.93739,-0.51645 -1.27862,-1.69501 -0.76217,-2.6324c0.51645,-0.93739 1.69502,-1.27862 2.6324,-0.76217c0.93739,0.51645 1.27862,1.69502 0.76217,2.6324z" fill="#b15923"/><path d="M236.54943,177.41222c-0.28764,0.52209 -0.94406,0.71214 -1.46614,0.4245c-0.52209,-0.28764 -0.71214,-0.94406 -0.4245,-1.46614c0.28764,-0.52209 0.94406,-0.71214 1.46615,-0.4245c0.52209,0.28764 0.71214,0.94406 0.4245,1.46615z" fill="#f09738"/><path d="M245.41293,182.26755c-0.51645,0.93739 -1.69501,1.27862 -2.6324,0.76217c-0.93739,-0.51645 -1.27862,-1.69501 -0.76217,-2.6324c0.51645,-0.93739 1.69502,-1.27862 2.6324,-0.76217c0.93739,0.51645 1.27862,1.69502 0.76217,2.6324z" fill="#b15923"/><path d="M244.73725,181.86727c-0.28764,0.52209 -0.94406,0.71214 -1.46614,0.4245c-0.52209,-0.28764 -0.71214,-0.94406 -0.4245,-1.46614c0.28764,-0.52209 0.94406,-0.71214 1.46615,-0.4245c0.52209,0.28764 0.71214,0.94406 0.4245,1.46615z" fill="#f09738"/></g><path d="M257.56252,169.83175v20.49804c0,4.00745 -3.22497,7.23243 -7.23242,7.23243h-20.5c-3.66107,0 -6.66147,-2.69385 -7.1543,-6.21484c0.7952,3.03475 3.54108,5.26367 6.83204,5.26367h20.0332c3.9166,0 7.07032,-3.15372 7.07032,-7.07031v-20.03321c0,-3.2976 -2.23906,-6.0451 -5.28321,-6.83398c3.52994,0.48496 6.23438,3.49081 6.23438,7.15821z" fill-opacity="0.50151" fill="#000000" fill-rule="evenodd" stroke-width="4.54219" stroke-linecap="round" stroke-linejoin="round"/></g></g></svg>