<svg version="1.1" xmlns="http://www.w3.org/2000/svg" xmlns:xlink="http://www.w3.org/1999/xlink" width="89.36395" height="246.91839" viewBox="0,0,89.36395,246.91839"><g transform="translate(-195.31805,-56.5408)"><g data-paper-data="{&quot;isPaintingLayer&quot;:true}" fill-rule="nonzero" stroke-linejoin="miter" stroke-miterlimit="10" stroke-dasharray="" stroke-dashoffset="0" style="mix-blend-mode: normal"><g fill="#779295" stroke-width="2" stroke-linecap="butt"><path d="M257.188,170.70241c0,10.50843 -8.0207,19.02718 -17.91472,19.02718c-9.89402,0 -17.91471,-8.51876 -17.91471,-19.02718c0,-10.50843 8.02069,-19.02718 17.91471,-19.02718c9.89402,0 17.91472,8.51876 17.91472,19.0272z" stroke="#000000"/><path d="M264.74136,216.40017c0,0 4.01336,49.36599 -0.62523,49.24019c-6.87067,-0.18632 -41.34656,-1.66386 -47.38877,-0.55034c-3.96031,0.72984 -2.0635,-48.0791 -2.0635,-48.0791c0,0 3.70305,-29.17733 3.70305,-30.84582c0,-7.61965 -4.02362,-27.69102 2.46453,-27.69102c1.15998,0 2.84274,3.35395 5.22964,4.93777c3.448,2.28793 8.73381,25.31815 13.7024,24.73812c4.92788,-0.57527 10.1438,-23.3387 14.36542,-25.60506c1.85887,-0.99793 3.60817,-3.92942 5.42474,-4.17314c3.12494,-0.41924 5.18772,58.02839 5.18772,58.02839z" stroke="#779295"/></g><path d="M195.31806,303.45919l4.84326,-75.71186l65.84219,-42.68583c0,0 14.84515,10.97585 14.88217,25.66635c0.05126,20.35146 3.79633,92.00876 3.79633,92.00876z" fill="#0b141c" stroke="none" stroke-width="0" stroke-linecap="butt"/><path d="M198.35057,172.3317l74.1096,-2.76846c0,0 4.22023,21.31456 5.29343,30.85848c0.87259,7.75977 2.06436,20.49425 2.06436,20.49425c0,0 -2.35583,43.76956 -39.93505,44.13062c-17.16272,0.16491 -33.49833,-9.41738 -40.26236,-18.55816c-1.68766,-2.28067 -2.4486,-20.27785 -2.29647,-40.50288c0.12133,-16.13032 1.0265,-33.65385 1.0265,-33.65385z" fill="#2f3e4d" stroke="none" stroke-width="0" stroke-linecap="butt"/><path d="M197.84195,214.69707c0,0 -1.3778,-17.91723 -1.06527,-24.48013c0.38294,-8.04166 3.83374,-31.52799 3.83374,-31.52799c0,0 6.56995,-26.58595 34.80135,-27.53893c29.60317,-0.9993 39.30823,24.77047 39.30823,24.77047c0,0 4.22023,21.31456 5.29344,30.85848c0.87259,7.75977 0.6694,22.1682 0.6694,22.1682c0,0 -0.96087,42.0956 -38.5401,42.45667c-34.61145,0.33255 -44.30079,-36.70679 -44.30079,-36.70679z" fill="#1a2330" stroke="none" stroke-width="0" stroke-linecap="butt"/><path d="M271.82912,190.40237c0,7.97746 -3.50407,26.64654 -11.53872,37.68157c-5.6199,7.71853 -16.55839,10.30511 -19.81108,10.30511c-8.68218,0 -20.05917,-7.3872 -26.80539,-20.49044c-6.2214,-12.0839 -8.16603,-29.4014 -8.16603,-41.7564c0,-25.75224 16.47165,-31.91567 33.1606,-31.91567c16.34432,0 32.82686,11.64798 33.36973,36.66452c0.01145,0.5275 -0.20913,8.97954 -0.20913,9.51133z" fill="#000000" stroke="none" stroke-width="0" stroke-linecap="butt"/><path d="M267.53823,157.01618c0,10.65123 9.09463,9.11965 5.75428,20.07681c-2.85158,9.35388 -8.25642,24.39494 -15.62706,33.34343c-5.68081,6.89691 -13.50523,10.5358 -17.28232,10.5358c-2.07049,0 -7.47732,-0.92465 -11.778,-4.05401c-2.80465,-2.04078 -4.4158,-5.50126 -6.81553,-8.59366c-4.39319,-5.66123 -13.43934,-26.92966 -16.75005,-36.48091c-2.03199,-5.86222 0.97197,-1.16764 0.05415,-3.86701c-4.23985,-12.4695 10.23124,2.04322 10.23124,-10.96043c0,-26.75202 11.68835,-48.43881 26.10664,-48.43881c14.41829,0 26.10664,21.6868 26.10664,48.43881z" fill="#0b0e1c" stroke="none" stroke-width="0" stroke-linecap="butt"/><path d="M262.35515,124.18544c0,9.46248 14.23071,17.33136 15.88696,32.00423c0.45394,4.02147 -2.78393,11.30129 -4.20239,15.94926c-2.39913,7.86136 -8.01269,21.19117 -16.39234,29.56487c-8.33342,8.32747 -21.3254,11.72366 -22.97082,10.64804c-14.83043,-9.69462 -24.0451,-26.68484 -29.85525,-43.37592c-6.00467,-17.24985 -6.46445,-34.21699 -6.46445,-44.79048c0,-20.80449 4.99971,-67.55471 33.61935,-67.64373c76.82358,-0.23898 30.37894,46.83925 30.37894,67.64376z" fill="#2f3e4d" stroke="none" stroke-width="0" stroke-linecap="butt"/><path d="M281.25757,125.94066c0,21.02821 -9.93612,63.21713 -38.07493,70.74916c-19.77138,5.2923 -38.88503,-49.72095 -38.88503,-70.74914c0,-21.02821 14.33843,-80.20038 59.67771,-63.45821c18.46715,6.81926 17.28223,42.43 17.28223,63.45821z" fill="#0b111c" stroke="none" stroke-width="0" stroke-linecap="butt"/><path d="M217.59978,151.74994c0,0 -3.9887,-22.08743 -4.70072,-31.37225c-0.71622,-9.33945 0.41592,-24.50153 0.41592,-24.50153l56.73074,-3.08504l-6.68428,59.64439c0,0 -14.49484,15.54064 -22.10702,15.42659c-7.64159,-0.11448 -23.65465,-16.11215 -23.65465,-16.11215z" fill="#000002" stroke="none" stroke-width="0" stroke-linecap="butt"/><path d="M221.77344,81.64427c4.71737,-5.21078 10.56901,-12.37619 22.12126,-12.65238c11.56971,-0.27661 20.24889,3.72182 25.21094,13.68616c0.13977,0.28065 0.00624,0.79816 0.09478,1.52085c0.62059,5.06548 -3.17134,61.05582 -5.92052,66.9483c-4.14859,8.89201 -19.89119,7.94568 -23.11159,7.94169c-10.42854,-0.01292 -21.73208,-7.55423 -22.18901,-7.62051c-0.70179,-0.1018 -6.7413,-33.76735 -4.92952,-54.59374c0.71848,-8.25905 6.93566,-13.25531 8.72366,-15.23032z" fill="#000000" stroke="#000000" stroke-width="2.5" stroke-linecap="butt"/><path d="M263.10051,152.98024c0,7.6945 -15.86491,23.24607 -21.96363,23.27488c-9.08344,0.04291 -23.43877,-16.236 -23.43877,-23.93051c0,-1.54063 3.15953,-1.59841 4.10573,-1.75411c0.85737,-0.14108 1.45641,0.36966 5.20668,3.78629c3.5847,3.26581 7.71609,11.26828 13.79856,10.42479c3.43555,-0.47643 5.80338,-3.10641 10.17526,-6.89439c3.16378,-2.74124 7.05951,-7.52552 7.62433,-7.39847c0.78124,0.17571 4.49185,0.91343 4.49185,2.49152z" fill="#000000" stroke="none" stroke-width="2" stroke-linecap="butt"/><path d="M212.76214,118.67614c-0.5716,-7.2238 0.33181,-17.43561 0.33181,-17.43561c0,0 4.93368,-0.4853 15.33738,-3.55876c7.99278,-2.36124 16.12948,-7.17468 16.12948,-7.17468l-4.77473,6.93722c0,0 7.94607,-1.68008 14.86838,-4.35096c7.02393,-2.71009 11.93698,-6.74954 13.71602,-4.99343c3.15602,3.08812 0.81331,26.98519 -0.16139,31.10194c-0.22163,0.93603 -1.74725,4.5521 -2.35842,7.54418c-0.61117,2.99208 -1.37953,14.53433 -2.47093,19.45843c-1.24153,5.60148 -4.8365,8.26827 -10.63832,13.94981c-5.80182,5.68155 -10.58939,7.9261 -12.74684,7.94727c-2.74056,0.02689 -8.99344,-3.76593 -13.9456,-8.99788c-5.27325,-5.57119 -8.7904,-8.39643 -9.62302,-14.99562c-0.74986,-5.94327 -0.76914,-9.8142 -1.11197,-15.10318c-0.25057,-3.86558 -2.23966,-6.38368 -2.55183,-10.32873z" fill="#ffffff" stroke="#000000" stroke-width="1.5" stroke-linecap="butt"/><path d="M220.00184,109.3523l0.42977,-1.54733c0,0 3.38788,-1.74273 7.76611,-2.15547c4.36405,-0.41141 7.51066,0.15777 7.51066,0.15777l-0.12571,4.38628c0,0 -3.23119,-0.6833 -7.2726,-0.4532c-3.07444,-0.08743 -17.11874,3.10338 -17.11874,3.10338l-0.02503,-1.32836z" fill="#000000" stroke="none" stroke-width="1.5" stroke-linecap="butt"/><path d="M261.04125,104.14417c0,0 2.58495,0.58027 3.9131,0.94264c1.37748,0.37583 4.20918,1.27342 4.20918,1.27342l0.02658,1.60365c0,0 -7.56951,-3.10018 -15.3608,-2.44708c-6.22972,0.52222 -9.70167,2.61896 -9.70167,2.61896l0.26753,-4.58151c0,0 4.98677,-1.57156 8.2888,-1.78234c3.30203,-0.21079 7.84714,0.75229 7.84714,0.75229z" data-paper-data="{&quot;index&quot;:null}" fill="#000000" stroke="none" stroke-width="1.5" stroke-linecap="butt"/><path d="M240.78685,149.90396c0.24666,0.0234 0.6086,-1.44147 2.34631,-2.08459c1.67939,-0.62153 4.07183,-0.42472 5.53918,-0.25563c1.61805,0.54491 10.03261,4.51373 10.03261,4.51373c0,0 -7.35924,0.71929 -10.57295,1.12073c-2.69313,0.33641 -7.62499,1.1275 -7.62499,1.1275l-20.10897,-4.41101c0,0 1.85053,-0.41485 4.59385,-1.34455c3.16904,-1.07398 4.04458,-1.54001 5.02564,-1.667c2.33124,-0.30176 5.0884,-0.29325 7.71556,0.55526c2.81497,0.90917 2.80847,2.42228 3.05375,2.44555z" fill="#ffffff" stroke="#000000" stroke-width="1.25" stroke-linecap="butt"/><path d="M217.30556,119.05582c0,-4.84582 4.31467,-8.77414 9.63711,-8.77414c5.32243,0 9.63711,3.92831 9.63711,8.77414c0,4.84582 -4.31467,8.77414 -9.63711,8.77414c-5.32243,0 -9.63711,-3.92831 -9.63711,-8.77414z" fill="#ffffff" stroke="#000000" stroke-width="1.5" stroke-linecap="butt"/><path d="M244.12281,144.41322c-0.12873,2.22357 -1.54357,3.85431 -3.99162,3.85431c-2.44806,0 -3.75065,-2.70224 -3.75065,-4.92993c0,-2.22768 1.3026,-3.13723 3.75065,-3.13723c2.44806,0 4.1621,1.2681 3.99162,4.21285z" fill="#ffffff" stroke="#000000" stroke-width="1" stroke-linecap="butt"/><path d="M221.70187,119.00021c0,-2.79162 2.26305,-5.05467 5.05467,-5.05467c2.79162,0 5.05467,2.26305 5.05467,5.05467c0,2.79162 -2.26304,5.05467 -5.05467,5.05467c-2.79162,0 -5.05467,-2.26305 -5.05467,-5.05467z" fill="#000000" stroke="none" stroke-width="1.5" stroke-linecap="butt"/><path d="M243.76921,118.85797l-1.13564,35.08008l-3.50884,0.00856c0,0 -1.01839,-25.12184 -1.73419,-30.85333c-0.29556,-2.36659 -0.53778,-4.44016 -0.53778,-4.44016" fill="#ffffff" stroke="#000000" stroke-width="1.5" stroke-linecap="round"/><path d="M244.16874,119.05582c0,-4.84582 4.2699,-8.77414 9.53711,-8.77414c5.2672,0 9.53711,3.92831 9.53711,8.77414c0,4.84582 -4.2699,8.77414 -9.53711,8.77414c-5.2672,0 -9.53711,-3.92831 -9.53711,-8.77414z" fill="#ffffff" stroke="#000000" stroke-width="1.5" stroke-linecap="butt"/><path d="M248.58726,119.00021c0,-2.79162 2.26305,-5.05467 5.05467,-5.05467c2.79162,0 5.05467,2.26305 5.05467,5.05467c0,2.79162 -2.26304,5.05467 -5.05467,5.05467c-2.79162,0 -5.05467,-2.26305 -5.05467,-5.05467z" fill="#000000" stroke="none" stroke-width="1.5" stroke-linecap="butt"/><path d="M217.08253,118.67652c0,0 -0.20396,-9.20795 10.23434,-9.32209c9.10107,-0.0995 9.6686,9.32209 9.6686,9.32209z" fill="#ffffff" stroke="#000000" stroke-width="1.25" stroke-linecap="butt"/><path d="M243.622,118.29678c0,0 0.00695,-9.70149 10.92193,-9.34987c10.25337,0.3303 10.08746,9.34987 10.08746,9.34987z" fill="#ffffff" stroke="#000000" stroke-width="1.25" stroke-linecap="butt"/><path d="M239.42107,163.42032c-14.95285,-0.33604 -20.2577,-13.33667 -20.2577,-13.33667c0,0 7.00776,1.33843 10.38376,2.13318c3.48786,0.82108 6.46932,2.33304 10.81875,2.51689c4.34943,0.18384 6.71999,-1.2773 9.35172,-1.5532c2.04031,-0.2139 9.2602,-0.64012 9.2602,-0.64012c0,0 -3.27128,11.24591 -19.55673,10.87992z" fill="#ffffff" stroke="#000000" stroke-width="1.25" stroke-linecap="butt"/></g></g></svg>