<svg version="1.1" xmlns="http://www.w3.org/2000/svg" xmlns:xlink="http://www.w3.org/1999/xlink" width="14.15588" height="23.65909" viewBox="0,0,14.15588,23.65909"><g transform="translate(-239.89762,-170.89806)"><g data-paper-data="{&quot;isPaintingLayer&quot;:true}" fill-rule="nonzero" stroke="none" stroke-linecap="butt" stroke-linejoin="miter" stroke-miterlimit="10" stroke-dasharray="" stroke-dashoffset="0" style="mix-blend-mode: normal"><path d="M246.96555,175.69944c2.02785,0 3.71334,0.63206 5.03012,1.89617c1.31678,1.29045 1.97517,2.89693 1.97517,4.87212c0,1.97517 -0.65839,3.58166 -1.97517,4.84577c-1.31678,1.26411 -3.00227,1.89617 -5.03012,1.89617c-2.02785,0 -3.71334,-0.63206 -5.03012,-1.89617c-1.34312,-1.26411 -2.00151,-2.8706 -2.00151,-4.84576c0,-1.97519 0.65839,-3.58167 2.00151,-4.87212c1.31678,-1.26411 3.00227,-1.89617 5.03012,-1.89617zM246.93921,178.67537c-1.02709,0 -1.8435,0.34236 -2.50189,1.05343c-0.65839,0.71106 -0.97442,1.63282 -0.97442,2.73892c0,2.18586 1.44846,3.766 3.47631,3.766c2.02785,0 3.50266,-1.58014 3.50266,-3.766c0,-1.10611 -0.31604,-2.02786 -0.97442,-2.73892c-0.6584,-0.71106 -1.50114,-1.05343 -2.52823,-1.05343z" fill="#000000" stroke-width="0.35808"/><path d="M239.89762,194.55715v-23.65909h14.15588v23.65909z" fill-opacity="0.00403" fill="#808080" stroke-width="0"/></g></g></svg>