<svg version="1.1" xmlns="http://www.w3.org/2000/svg" xmlns:xlink="http://www.w3.org/1999/xlink" width="35.14904" height="35.14874" viewBox="0,0,35.14904,35.14874"><g transform="translate(-222.41347,-162.41347)"><g data-paper-data="{&quot;isPaintingLayer&quot;:true}" stroke-miterlimit="10" stroke-dasharray="" stroke-dashoffset="0" style="mix-blend-mode: normal"><path d="M229.48314,162.41348h20.03379c3.9166,0 7.06966,3.15307 7.06966,7.06966v20.03379c0,3.91659 -3.15306,7.06966 -7.06966,7.06966h-20.03379c-3.91659,0 -7.06966,-3.15307 -7.06966,-7.06966v-20.03379c0,-3.91659 3.15307,-7.06966 7.06966,-7.06966z" fill-opacity="0.59677" fill="#5e807a" fill-rule="evenodd" stroke="none" stroke-width="4.43922" stroke-linecap="round" stroke-linejoin="round"/><path d="M251.55431,191.41938l-2.92589,-1.343l3.48928,-4.42695l1.93002,2.73504z" fill="#5e807a" fill-rule="nonzero" stroke="none" stroke-width="0" stroke-linecap="butt" stroke-linejoin="miter"/><path d="M248.50602,191.39329l-5.88277,-1.97431l6.65123,-9.60065l4.33583,5.28887z" fill="#000000" fill-rule="nonzero" stroke="none" stroke-width="0" stroke-linecap="butt" stroke-linejoin="miter"/><path d="M227.10448,179.37531c0,-5.9821 4.84947,-10.83157 10.83157,-10.83157c5.9821,0 10.83157,4.84947 10.83157,10.83157c0,5.9821 -4.84947,10.83158 -10.83157,10.83158c-5.9821,0 -10.83157,-4.84947 -10.83157,-10.83158z" fill="#5e807a" fill-rule="nonzero" stroke="#000000" stroke-width="3" stroke-linecap="butt" stroke-linejoin="miter"/><path d="M234.26434,179.37531c0,-2.02784 1.64389,-3.67172 3.67172,-3.67172c2.02783,0 3.67172,1.64388 3.67172,3.67172c0,2.02784 -1.64389,3.67172 -3.67172,3.67172c-2.02783,0 -3.67172,-1.64389 -3.67172,-3.67172z" fill="#000000" fill-rule="nonzero" stroke="none" stroke-width="3" stroke-linecap="butt" stroke-linejoin="miter"/><path d="M237.90995,179.28206l9.83577,-2.34099" fill="none" fill-rule="nonzero" stroke="#000000" stroke-width="2" stroke-linecap="round" stroke-linejoin="miter"/><path d="M257.56251,169.83175v20.49804c0,4.00745 -3.22497,7.23243 -7.23242,7.23243h-20.5c-3.66107,0 -6.66147,-2.69385 -7.1543,-6.21484c0.7952,3.03475 3.54108,5.26367 6.83204,5.26367h20.0332c3.9166,0 7.07032,-3.15372 7.07032,-7.07031v-20.03321c0,-3.2976 -2.23906,-6.0451 -5.28321,-6.83398c3.52994,0.48496 6.23438,3.49081 6.23438,7.15821z" fill-opacity="0.50151" fill="#000000" fill-rule="evenodd" stroke="none" stroke-width="4.54219" stroke-linecap="round" stroke-linejoin="round"/></g></g></svg>