<svg version="1.1" xmlns="http://www.w3.org/2000/svg" xmlns:xlink="http://www.w3.org/1999/xlink" width="35.14905" height="35.14874" viewBox="0,0,35.14905,35.14874"><g transform="translate(-222.41348,-162.41347)"><g data-paper-data="{&quot;isPaintingLayer&quot;:true}" stroke-miterlimit="10" stroke-dasharray="" stroke-dashoffset="0" style="mix-blend-mode: normal"><path d="M229.48314,162.41348h20.03379c3.9166,0 7.06966,3.15307 7.06966,7.06966v20.03379c0,3.91659 -3.15306,7.06966 -7.06966,7.06966h-20.03379c-3.91659,0 -7.06966,-3.15307 -7.06966,-7.06966v-20.03379c0,-3.91659 3.15307,-7.06966 7.06966,-7.06966z" fill-opacity="0.59677" fill="#5e807a" fill-rule="evenodd" stroke="none" stroke-width="4.43922" stroke-linecap="round" stroke-linejoin="round"/><path d="M249.77282,170.15526c0.21147,-0.19284 2.81942,-0.84758 4.12804,0.46105c1.42919,1.42919 0,2.85837 0,2.85837l-0.57077,0.47006c-1.21574,0.64868 -1.83524,0.63697 -2.31693,1.91876c-0.28125,0.74842 -0.9835,1.68134 -1.4588,2.32426c-2.34443,3.17119 -3.14798,0.99277 -5.47493,2.60348c-1.17176,0.81109 -2.0806,3.80351 -3.03795,4.95145c-1.85738,2.22711 -3.64093,2.46796 -5.87973,3.7811c-1.41475,0.8298 -2.72145,1.10892 -4.35212,1.28506c-1.43623,0.15513 -2.7355,0.28981 -4.18009,0.29344c0,0 -2.16554,0.43311 -2.16554,-1.58806c0,-2.02117 1.73243,-3.3205 1.73243,-3.3205c4.36057,0.00961 8.67207,0.72206 11.71894,-3.01383c1.31903,-1.61731 2.14843,-4.55056 3.89179,-5.7319c0.67205,-0.4554 4.71458,-0.41205 5.20841,-1.43887c1.29826,-2.6994 0.04321,-4.17475 2.75725,-5.85384z" fill="#000000" fill-rule="nonzero" stroke="none" stroke-width="0.5" stroke-linecap="butt" stroke-linejoin="miter"/><path d="M229.80568,177.09843c2.20735,-5.72891 5.98759,-10.10587 12.12704,-10.10587c6.13945,0 10.10587,2.81146 9.67276,4.76419c-0.33975,1.53186 -0.57476,1.12127 -2.34345,3.10014c-0.78621,0.87965 -0.84657,1.54009 -1.86859,2.51708c-0.94578,0.9041 -4.72802,1.40033 -5.79458,2.83023c-1.45136,1.94581 -1.22092,3.72784 -2.60693,4.93865c-1.56985,1.37141 -3.43961,1.90626 -5.08568,2.5665c-2.24071,0.89878 -4.19003,1.66048 -5.54426,1.66048c-6.13945,0 -0.86622,-6.27633 1.4437,-12.27141z" fill="#5e807a" fill-rule="nonzero" stroke="none" stroke-width="0" stroke-linecap="butt" stroke-linejoin="miter"/><path d="M232.11559,179.40835c0,-1.6744 1.35736,-3.03176 3.03176,-3.03176c1.6744,0 3.03176,1.35736 3.03176,3.03176c0,1.6744 -1.35736,3.03176 -3.03176,3.03176c-1.6744,0 -3.03176,-1.35736 -3.03176,-3.03176z" fill="#5e807a" fill-rule="nonzero" stroke="#000000" stroke-width="2.5" stroke-linecap="butt" stroke-linejoin="miter"/><path d="M257.56252,169.83175v20.49804c0,4.00745 -3.22497,7.23243 -7.23242,7.23243h-20.5c-3.66107,0 -6.66147,-2.69385 -7.1543,-6.21484c0.7952,3.03475 3.54108,5.26367 6.83204,5.26367h20.0332c3.9166,0 7.07032,-3.15372 7.07032,-7.07031v-20.03321c0,-3.2976 -2.23906,-6.0451 -5.28321,-6.83398c3.52994,0.48496 6.23438,3.49081 6.23438,7.15821z" fill-opacity="0.50151" fill="#000000" fill-rule="evenodd" stroke="none" stroke-width="4.54219" stroke-linecap="round" stroke-linejoin="round"/></g></g></svg>