<svg version="1.1" xmlns="http://www.w3.org/2000/svg" xmlns:xlink="http://www.w3.org/1999/xlink" width="34.17311" height="34.17311" viewBox="0,0,34.17311,34.17311"><defs><linearGradient x1="230.27265" y1="170.97719" x2="254.4438" y2="182.81861" gradientUnits="userSpaceOnUse" id="color-1"><stop offset="0" stop-color="#9966ff" stop-opacity="0"/><stop offset="1" stop-color="#9966ff" stop-opacity="0"/></linearGradient></defs><g transform="translate(-222.91346,-162.91346)"><g data-paper-data="{&quot;isPaintingLayer&quot;:true}" stroke-miterlimit="10" stroke-dasharray="" stroke-dashoffset="0" style="mix-blend-mode: normal"><path d="M229.98313,162.91347h20.03379c3.9166,0 7.06966,3.15307 7.06966,7.06966v20.03379c0,3.91659 -3.15306,7.06966 -7.06966,7.06966h-20.03379c-3.91659,0 -7.06966,-3.15307 -7.06966,-7.06966v-20.03379c0,-3.91659 3.15307,-7.06966 7.06966,-7.06966z" fill-opacity="0.13218" fill="#1a1a1a" fill-rule="evenodd" stroke="none" stroke-width="4.43922" stroke-linecap="round" stroke-linejoin="round"/><path d="M252.47362,183.09069c-1.7475,3.56703 -6.60484,3.53581 -13.27951,0.2659c-6.67467,-3.26992 -10.38887,-8.48107 -8.64138,-12.0481c1.74748,-3.56704 7.41146,-2.81401 14.08613,0.4559c6.67467,3.26991 9.58224,7.75926 7.83475,11.32629z" fill="url(#color-1)" fill-rule="nonzero" stroke="#bfbfbf" stroke-width="3.5" stroke-linecap="butt" stroke-linejoin="miter"/><path d="M224.66733,180.31922c0,0 2.087,-5.39609 2.9571,-7.46897c0.68744,-1.63773 1.84586,-3.97335 1.84586,-3.97335c0,0 0.59106,3.32871 11.93952,9.0735c11.65722,5.9011 13.87433,3.72542 13.87433,3.72542c0,0 -0.88691,2.48467 -1.51065,3.97063c-0.88438,2.10691 -3.29231,7.47169 -3.29231,7.47169c0,0 -3.50514,1.74791 -14.04446,-3.68944c-10.90624,-5.62663 -11.76938,-9.10947 -11.76938,-9.10947z" fill="#ffffff" fill-rule="nonzero" stroke="none" stroke-width="0" stroke-linecap="butt" stroke-linejoin="miter"/><path d="M239.21135,185.63432l4.03314,-2.65154l0.67604,4.8339z" fill="#bfbfbf" fill-rule="nonzero" stroke="none" stroke-width="0" stroke-linecap="butt" stroke-linejoin="miter"/><path d="M244.58116,186.81055c0,-1.42974 1.15903,-2.58878 2.58878,-2.58878c1.42974,0 2.58878,1.15903 2.58878,2.58878c0,1.42974 -1.15903,2.58878 -2.58878,2.58878c-1.42974,0 -2.58878,-1.15903 -2.58878,-2.58878z" fill="#bfbfbf" fill-rule="nonzero" stroke="none" stroke-width="0" stroke-linecap="butt" stroke-linejoin="miter"/></g></g></svg>