<svg version="1.1" xmlns="http://www.w3.org/2000/svg" xmlns:xlink="http://www.w3.org/1999/xlink" width="151.91517" height="245.11733" viewBox="0,0,151.91517,245.11733"><defs><linearGradient x1="270.1078" y1="138.43311" x2="270.1078" y2="212.18288" gradientUnits="userSpaceOnUse" id="color-1"><stop offset="0" stop-color="#dc6000"/><stop offset="1" stop-color="#dc6000" stop-opacity="0"/></linearGradient><linearGradient x1="184.63282" y1="138.99957" x2="184.63282" y2="212.74933" gradientUnits="userSpaceOnUse" id="color-2"><stop offset="0" stop-color="#dc6000"/><stop offset="1" stop-color="#dc6000" stop-opacity="0"/></linearGradient></defs><g transform="translate(-152.03344,-65.19962)"><g data-paper-data="{&quot;isPaintingLayer&quot;:true}" fill-rule="nonzero" stroke-linejoin="miter" stroke-miterlimit="10" stroke-dasharray="" stroke-dashoffset="0" style="mix-blend-mode: normal"><path d="M159.707,159.17966c0,-1.65654 -5.80143,-1.9233 -5.80143,-1.9233c0,0 6.69584,-8.87746 7.35214,-11.71771c6.65986,-28.82218 23.99043,-56.21969 66.68631,-56.74538c45.68643,-0.56252 68.23702,35.01087 68.23702,70.3864c0,0.66795 3.07779,7.31159 4.43041,10.36634c2.27861,5.14598 3.33715,7.45866 3.33715,7.45866c0,0 -2.64733,-1.66693 -4.82385,-3.56682c-2.14071,-1.86864 -3.80963,-3.97893 -3.99144,-3.01508c-0.43459,2.30399 -0.59561,10.92242 -4.12876,19.9176c-3.49395,8.89536 -10.36285,18.18124 -10.36285,18.18124c0,0 -2.29192,-5.28642 -3.77673,-3.14158c-6.07718,8.77862 -11.2964,15.30957 -11.2964,15.30957c0,0 -2.40974,-4.97718 -4.47106,-3.86765c-9.32569,5.01966 -20.06286,7.91078 -31.65348,7.91078c-12.60656,0 -24.772,-3.56633 -35.27102,-9.52744c-2.72845,-1.54916 -0.82623,4.38789 -0.82623,4.38789c0,0 -7.93843,-5.19677 -13.15685,-11.00681c-6.08759,-6.77777 -9.73663,-14.57056 -12.13914,-18.68944c-0.34082,-0.58431 -4.01999,1.58785 -5.934,2.01254c-2.96082,0.65696 -4.48364,-0.08182 -4.48364,-0.08182c0,0 2.67098,-3.37669 3.55098,-5.15497c0.94364,-1.90688 1.93325,-5.92746 1.93325,-5.92746c0,0 -2.66402,1.90888 -4.05965,2.38502c-1.48595,0.50696 -4.60208,0.57008 -4.60208,0.57008c0,0 4.39229,-5.64339 5.74307,-11.5602c1.27257,-5.57422 -0.4917,-11.39111 -0.4917,-12.96047z" fill="#000000" stroke="#000000" stroke-width="0" stroke-linecap="butt"/><g stroke-width="0" stroke-linecap="butt"><path d="M207.0694,310.31694l15.14285,-131.8421l37.78325,-0.15789l13.57389,132z" fill="#456761" stroke="#000000"/><path d="M260.40936,310.05206l-12.95344,-132l12.41591,0.15789l13.43106,131.8421z" data-paper-data="{&quot;index&quot;:null}" fill="#000000" stroke="#000000"/><path d="M207.0694,310.31694l15.14285,-131.8421l12.41591,-0.15789l-14.66522,132z" fill="#000000" stroke="#000000"/><path d="M251.73296,199.0565c0,0.1157 17.86606,10.0486 17.86606,10.0486l-1.95679,17.65839c0,0 2.92744,12.88533 1.21785,12.93308c-3.69534,0.10318 -15.73634,7.1349 -28.20415,7.30698c-12.50556,0.1726 -25.43784,-6.518 -29.02148,-8.78886c-0.81682,-0.51759 1.74003,-10.9397 1.74003,-10.9397l-2.59652,-18.18954c0,0 17.7593,-9.82249 17.7593,-9.9321c0,-0.22635 5.84069,11.01401 11.38788,11.01401c5.5472,0 11.80783,-11.33718 11.80783,-11.11083z" fill="#142d2b" stroke="none"/><path d="M251.99475,199.2303c0,0.1157 17.86606,10.04859 17.86606,10.04859c0,0 -2.39778,10.62886 -10.1081,15.57184c-6.10154,3.91161 -17.69601,2.3809 -18.89387,2.3809c-1.44367,0 -13.81276,1.2309 -20.96923,-3.30396c-7.02339,-4.45054 -8.84985,-14.66844 -8.84985,-14.66844c0,0 17.75931,-9.82249 17.75931,-9.93211c0,-0.09862 21.70593,-2.03471 23.41621,0.34222c2.21492,3.07828 -0.22051,-0.66537 -0.22051,-0.43903z" fill="#2c4c45" stroke="none"/><g fill="#324a47" stroke="none"><path d="M224.3933,271.22274l3.14385,-39.8606h25.44014l3.53683,39.8606l-9.71069,0.04221l-3.42008,-6.56422l-6.1777,0.02098l-3.44153,6.43673z"/><path d=""/></g><g stroke="none"><path d="M225.1145,265.23206l3.34034,-39.86059h23.90932l3.53683,39.86059l-8.23836,0.04221l-3.58409,-6.56422l-6.47397,0.02098l-3.60657,6.43674z" fill="#8fa7b3"/><path d="M228.47615,225.42205l1.78478,-2.67339h20.73758l1.39436,2.7377z" fill="#d4ecfe"/><path d="M237.51178,258.80296v-24.10924h6.63716v24.10924z" fill="#000000"/></g></g><g><path d="M164.15028,156.17965c0,-33.30185 28.7599,-60.29833 64.23702,-60.29833c35.47712,0 64.23702,26.99649 64.23702,60.29833c0,33.30185 -28.7599,60.29833 -64.23702,60.29833c-35.47712,0 -64.23702,-26.99649 -64.23702,-60.29833z" fill="#ffffff" stroke="#000000" stroke-width="2" stroke-linecap="butt"/><path d="M164.87334,156.23348c0,-0.72799 5.20666,55.91939 63.36046,56.93429c55.56352,0.9697 63.51358,-57.95314 63.51358,-56.93429c0,32.80479 -28.40173,59.39833 -63.43702,59.39833c-35.03529,0 -63.43702,-26.59354 -63.43702,-59.39833z" fill="#e6e6e6" stroke="#000000" stroke-width="0" stroke-linecap="butt"/><path d="M177.70051,156.60911c0,-12.968 10.51265,-23.48065 23.48065,-23.48065c12.968,0 23.48065,10.51265 23.48065,23.48065c0,12.968 -10.51265,23.48065 -23.48065,23.48065c-12.968,0 -23.48065,-10.51265 -23.48065,-23.48065z" fill="#ffffff" stroke="#000000" stroke-width="2" stroke-linecap="butt"/><path d="M184.76588,156.33349c0,-9.12808 7.39976,-16.52784 16.52783,-16.52784c9.12808,0 16.52784,7.39977 16.52784,16.52784c0,9.12808 -7.39977,16.52784 -16.52784,16.52784c-9.12808,0 -16.52783,-7.39977 -16.52783,-16.52784z" fill="#000000" stroke="none" stroke-width="0" stroke-linecap="butt"/><path d="M255.43958,180.08976c-12.968,0 -23.48065,-10.51265 -23.48065,-23.48065c0,-12.968 10.51265,-23.48065 23.48065,-23.48065c12.968,0 23.48065,10.51265 23.48065,23.48065c0,12.968 -10.51265,23.48065 -23.48065,23.48065z" data-paper-data="{&quot;index&quot;:null}" fill="#ffffff" stroke="#000000" stroke-width="2" stroke-linecap="butt"/><path d="M255.32701,172.86133c-9.12807,0 -16.52783,-7.39977 -16.52783,-16.52784c0,-9.12808 7.39977,-16.52784 16.52783,-16.52784c9.12807,0 16.52783,7.39977 16.52783,16.52784c0,9.12808 -7.39977,16.52784 -16.52783,16.52784z" data-paper-data="{&quot;index&quot;:null}" fill="#000000" stroke="none" stroke-width="0" stroke-linecap="butt"/><path d="M177.70051,156.60911c0,-12.968 10.51265,-23.48065 23.48065,-23.48065c12.968,0 23.48065,10.51265 23.48065,23.48065c0,0 -46.96131,1.23155 -46.96131,0z" fill="#ffffff" stroke="#000000" stroke-width="2" stroke-linecap="butt"/><path d="M231.95894,156.60911c0,-12.968 10.51265,-23.48065 23.48065,-23.48065c12.968,0 23.48065,10.51265 23.48065,23.48065c0,1.2138 -46.96131,0 -46.96131,0z" data-paper-data="{&quot;index&quot;:null}" fill="#ffffff" stroke="#000000" stroke-width="2" stroke-linecap="butt"/><path d="M190.33818,127.80064c0,0 6.70895,-5.16922 11.79721,-6.36355c5.08827,-1.19433 12.33413,0.69937 12.33413,0.69937c0,0 -8.03812,-0.06028 -11.96762,0.86207c-4.10648,0.96389 -12.16372,4.80211 -12.16372,4.80211z" fill="#000000" stroke="none" stroke-width="0" stroke-linecap="butt"/><path d="M254.27269,122.99855c-3.9295,-0.92235 -11.96762,-0.86207 -11.96762,-0.86207c0,0 7.24586,-1.8937 12.33413,-0.69937c5.08826,1.19433 11.79721,6.36355 11.79721,6.36355c0,0 -8.05724,-3.83822 -12.16372,-4.80211z" data-paper-data="{&quot;index&quot;:null}" fill="#000000" stroke="none" stroke-width="0" stroke-linecap="butt"/><path d="M169.22939,126.47071c11.42496,-22.68233 31.40973,-33.07142 60.56473,-32.85267c24.16321,0.18129 39.14424,9.27509 47.64651,17.23625c0.95139,0.89084 -11.16905,5.58091 -18.25999,7.52146c-15.29703,4.18628 -30.35723,6.25195 -30.35723,6.25195l6.65013,-11.17032c0,0 -23.70536,7.34319 -34.98048,9.59002c-11.17264,2.22641 -31.26367,3.4233 -31.26367,3.4233z" fill="#000000" stroke="none" stroke-width="0" stroke-linecap="butt"/><path d="M163.19305,120.25526c0,-9.805 0.95586,-22.22641 6.95941,-29.94275c10.89112,-13.99833 35.14195,-24.11289 57.02569,-24.11289c20.03667,0 43.37619,7.79265 54.59736,19.85265c7.79005,8.37243 9.89154,20.03008 9.89154,31.33638c0,27.59242 -28.5269,43.60883 -62.47363,43.60883c-33.94673,0 -66.0004,-13.1498 -66.0004,-40.74222z" fill="#000000" stroke="#000000" stroke-width="2" stroke-linecap="butt"/><path d="M258.16009,208.70372c-7.834,-6.17475 -15.52963,-17.92398 -14.5587,-21.43258c3.05997,-11.05757 42.73863,-37.30708 42.73863,-37.30708v-11.5309h10.17428c0,0 0.78828,17.73505 -0.90696,34.31906c-1.05759,10.34632 -4.03794,20.24468 -5.84465,25.10901c-4.40912,11.87081 -20.64073,14.32162 -20.64073,14.32162c0,0 -6.46599,0.0645 -10.96185,-3.47913z" data-paper-data="{&quot;index&quot;:null}" fill="url(#color-1)" stroke="none" stroke-width="0" stroke-linecap="butt"/><path d="M185.61861,212.74925c0,0 -16.23161,-2.45077 -20.6407,-14.32158c-1.80676,-4.86435 -4.78706,-14.76269 -5.84466,-25.10901c-1.69523,-16.58403 -0.90693,-34.31909 -0.90693,-34.31909h10.17431v11.5309c0,0 39.67861,26.24955 42.73862,37.30711c0.97095,3.50861 -6.72468,15.25784 -14.5587,21.43257c-4.4959,3.54363 -10.96188,3.47912 -10.96188,3.47912z" fill="url(#color-2)" stroke="none" stroke-width="0" stroke-linecap="butt"/><path d="M152.84102,136.1758l-0.3062,-17.04228c0,0 -1.17872,-1.58939 0.63612,-3.01602c2.25885,-1.77561 11.8788,-6.82168 11.8788,-6.82168l7.63106,12.36741c0,0 3.83661,5.67674 11.58221,12.03546c2.86927,2.35549 6.80161,4.31953 10.51773,6.81972c1.52701,1.02737 8.09566,3.54253 14.80135,4.89382c8.29821,1.67224 17.67577,1.60538 19.39999,1.82275c1.67948,0.2117 9.36968,-0.86694 14.21714,-1.68561c3.20957,-0.54207 7.99561,-1.65705 11.4257,-2.40368c0.73214,-0.15936 6.00213,-2.13128 10.61719,-5.23543c5.08927,-3.42306 9.62585,-8.1107 11.92798,-10.71886c6.90783,-7.82604 12.65351,-17.82472 13.59859,-18.04074c0.3173,-0.07254 5.33521,3.23781 8.41518,5.71895c2.36331,1.90384 3.04444,2.96352 2.86555,3.78958c-0.20853,0.96294 -0.26234,17.80643 -0.26234,17.80643c0,0 -10.20986,4.02078 -10.7465,5.73923c-0.53301,1.70681 -3.07579,4.80481 -5.26444,9.2742c-4.94358,10.09516 -11.27681,24.24362 -11.27681,24.24362l-31.07887,13.76399l-15.10339,-9.71121l-15.37822,9.99196l-31.64754,-14.16763c0,0 -6.77042,-14.11349 -12.93097,-23.72944c-2.22906,-3.47932 -4.85899,-9.44573 -7.26529,-11.72628c-3.93972,-3.7338 -8.25407,-3.96826 -8.25407,-3.96826z" fill="#152d2c" stroke="#000000" stroke-width="0" stroke-linecap="butt"/><path d="M161.87224,119.01835h-9.46249c0,0 -1.17873,-1.58939 0.63611,-3.01601c2.25885,-1.77561 11.87881,-6.82169 11.87881,-6.82169l7.63106,12.3674c0,0 3.83661,5.67677 11.58218,12.03547c2.86927,2.35549 6.80163,4.31954 10.51774,6.81973c1.52701,1.02737 8.09566,3.5425 14.80136,4.89381c8.29821,1.67224 17.67577,1.60539 19.39999,1.82275c1.67948,0.2117 9.36968,-0.86694 14.21715,-1.68561c3.20957,-0.54207 7.99561,-1.65706 11.4257,-2.40368c0.73214,-0.15936 6.00213,-2.13132 10.61726,-5.23543c5.08927,-3.42306 9.62585,-8.1107 11.92797,-10.71885c6.90783,-7.82604 12.65348,-17.82472 13.59857,-18.04074c0.3173,-0.07254 5.33522,3.23781 8.41521,5.71895c2.36331,1.90384 3.04441,2.96353 2.8655,3.78959c-0.20853,0.96294 -9.21899,0.75618 -9.77981,1.77965c-2.65505,4.84513 -14.29993,18.20362 -14.40127,18.43781c-0.3277,0.75726 -6.96653,9.64792 -18.26077,13.83276c-13.03888,4.83127 -30.96194,4.98083 -31.0739,4.95431c-0.63051,-0.14927 -28.78934,-1.84425 -42.56673,-10.22852c-17.16884,-10.44815 -23.9696,-28.30167 -23.9696,-28.30167z" fill="#456761" stroke="#000000" stroke-width="0" stroke-linecap="butt"/><path d="M271.10443,157.35526c0,0 -9.3164,5.27361 -19.52626,8.632c-7.69538,2.53129 -17.42517,3.38077 -23.52079,3.39718c-6.18376,0.01666 -15.79771,-0.62048 -24.11394,-3.15359c-10.7577,-3.27685 -19.67884,-8.64642 -19.67884,-8.64642" fill="none" stroke="#ffa300" stroke-width="2.5" stroke-linecap="round"/><g stroke="#000000" stroke-width="1.5"><path d="M211.48047,199.95949c-0.88121,-0.39847 -2.46992,-0.73037 -0.39205,-5.27547c1.92998,-4.22162 11.1713,-1.54631 17.07703,-1.54631c5.70395,0 12.97791,-3.09314 17.39178,3.67531c1.09247,2.54421 -0.61024,3.15646 -1.11048,3.67915c-0.62344,1.00367 -8.40784,-1.46412 -16.2605,-1.67557c-7.97126,-0.21464 -16.01285,1.81441 -16.70578,1.14289z" fill="#ffffff" stroke-linecap="butt"/><path d="M210.21583,196.4866c0,0 11.62664,-1.61104 17.77219,-1.45593c6.11176,0.15427 17.2959,2.32008 17.2959,2.32008" fill="none" stroke-linecap="round"/></g></g></g></g></svg>