<svg version="1.1" xmlns="http://www.w3.org/2000/svg" xmlns:xlink="http://www.w3.org/1999/xlink" width="145.76387" height="229.71026" viewBox="0,0,145.76387,229.71026"><g transform="translate(-159.29604,-77.74898)"><g data-paper-data="{&quot;isPaintingLayer&quot;:true}" fill-rule="nonzero" stroke-linejoin="miter" stroke-miterlimit="10" stroke-dasharray="" stroke-dashoffset="0" style="mix-blend-mode: normal"><g><path d="M206.03422,307.45923l15.14285,-131.8421l37.78325,-0.15789l13.57389,132z" fill="#395858" stroke="#000000" stroke-width="0" stroke-linecap="butt"/><path d="M220.58675,223.11263l19.43547,4.41787l22.11638,-4.5394l1.95241,-1.15069l7.17795,50.65863l-32.24809,13l-31.71829,-12.80674l6.62795,-51.53844z" fill="#314b4b" stroke="#314b4b" stroke-width="2" stroke-linecap="round"/><path d="M250.72085,245.43238l-1.33334,13.83333l-10.66666,7.83334l-16.66667,-27.33334z" fill="#ff7c0b" stroke="#ff7c0b" stroke-width="2" stroke-linecap="round"/><path d="M249.15989,246.9649l-1.10569,11.47154l-8.84553,6.49594l-13.82114,-22.66667z" fill="#ffc30a" stroke="#ffc30a" stroke-width="2" stroke-linecap="round"/><path d="M248.17207,247.80839l-0.95122,9.8689l-7.60975,5.58842l-11.89024,-19.5z" fill="#ff9e0a" stroke="#ff9e0a" stroke-width="2" stroke-linecap="round"/><path d="M244.78086,252.69571c0,2.73381 -1.99233,4.95 -4.45,4.95c-2.45766,0 -4.45,-2.21619 -4.45,-4.95c0,-2.73381 1.99234,-4.95 4.45,-4.95c2.45766,0 4.45,2.21619 4.45,4.95z" fill="#ffb50a" stroke="#ff9e0a" stroke-width="2" stroke-linecap="butt"/><path d="M219.76302,173.58197l19.32668,-1.55029l19.10219,2.15029l-18.5077,32.90673z" fill="#243d3d" stroke="#243d3d" stroke-width="2" stroke-linecap="round"/><path d="M264.11112,221.52911l-6.62693,1.69327l-17.6,3.4l-19.2,-4.4l-7.07688,-2.03844l3.44017,-26.211l2.83573,-19.17748l20.00098,38.22692l18.3077,-37.52019z" fill="#385656" stroke="#385656" stroke-width="2" stroke-linecap="round"/></g><g><path d="M225.49605,249.14058l-50.9819,-33.95374l6.15453,-6.57326l41.46268,26.9162z" fill="#1b322d" stroke="none" stroke-width="0" stroke-linecap="butt"/><path d="M251.59933,233.906l37.67829,-31.99972l6.94493,5.73182l-46.21889,40.19732z" data-paper-data="{&quot;index&quot;:null}" fill="#1b322d" stroke="none" stroke-width="0" stroke-linecap="butt"/><path d="M289.4152,202.52091l5.78284,-29.7997l9.8467,-3.96461l-8.81039,38.93377z" data-paper-data="{&quot;index&quot;:null}" fill="#456761" stroke="none" stroke-width="0" stroke-linecap="butt"/><path d="M236.49465,219.9538l17.11964,4.51961l-3.31222,24.01203l-11.10545,3.72545l-14.056,-2.43977l-6.65828,-23.04102z" fill="#24433d" stroke="#24433d" stroke-width="2" stroke-linecap="round"/><path d="M167.08837,148.15023c-2.13471,-33.23335 24.83552,-62.01787 60.23968,-64.29202c35.40416,-2.27414 65.83543,22.82327 67.97013,56.05661c2.13471,33.23335 -24.83552,62.01787 -60.23968,64.29202c-35.40416,2.27414 -65.83543,-22.82327 -67.97013,-56.05661z" fill="#ffffff" stroke="#000000" stroke-width="2" stroke-linecap="butt"/><path d="M167.81337,148.1576c-0.04667,-0.72649 8.78048,55.47062 66.87974,52.75568c55.5114,-2.59401 59.66805,-61.90528 59.73337,-60.88853c2.10285,32.73733 -24.53579,61.09677 -59.49902,63.34259c-34.96323,2.24582 -65.01125,-22.47242 -67.11409,-55.20975z" fill="#e6e6e6" stroke="#000000" stroke-width="0" stroke-linecap="butt"/><path d="M281.24596,171.60497l-1.64101,-10.8389l8.37328,-3.68521l12.42415,1.04396l3.42654,10.31132l-12.92641,5.96473z" data-paper-data="{&quot;index&quot;:null}" fill="#22302c" stroke="#22302c" stroke-width="2" stroke-linecap="round"/><path d="M180.63825,147.71021c-0.83128,-12.94133 8.98588,-24.10624 21.92721,-24.93751c12.94133,-0.83128 24.10624,8.98588 24.93751,21.92721c0.83128,12.94133 -8.98588,24.10624 -21.92721,24.93751c-12.94133,0.83128 -24.10624,-8.98588 -24.93751,-21.92721z" fill="#ffffff" stroke="#000000" stroke-width="2" stroke-linecap="butt"/><path d="M187.67144,146.98224c-0.58513,-9.1093 6.32508,-16.96819 15.43438,-17.55331c9.1093,-0.58513 16.96818,6.32509 17.55331,15.43439c0.58513,9.1093 -6.32509,16.96818 -15.43439,17.55331c-9.1093,0.58513 -16.96817,-6.32509 -17.5533,-15.43439z" fill="#000000" stroke="none" stroke-width="0" stroke-linecap="butt"/><path d="M255.22313,231.08585l6.82543,-56.19193l37.64013,-16.22324l-8.92846,43.48833z" data-paper-data="{&quot;index&quot;:null}" fill="#37514d" stroke="none" stroke-width="0" stroke-linecap="butt"/><path d="M246.25907,182.9571l-25.05794,1.60957" fill="none" stroke="#000000" stroke-width="2" stroke-linecap="round"/><path d="M259.72262,166.15934c-12.94133,0.83128 -24.10624,-8.98588 -24.93751,-21.92721c-0.83128,-12.94133 8.98588,-24.10624 21.92721,-24.93751c12.94133,-0.83128 24.10624,8.98588 24.93751,21.92721c0.83128,12.94133 -8.98588,24.10624 -21.92721,24.93751z" data-paper-data="{&quot;index&quot;:null}" fill="#ffffff" stroke="#000000" stroke-width="2" stroke-linecap="butt"/><path d="M259.14693,158.95301c-9.10929,0.58513 -16.96817,-6.32509 -17.5533,-15.43439c-0.58513,-9.1093 6.32509,-16.96818 15.43438,-17.55331c9.10929,-0.58513 16.96817,6.32509 17.5533,15.43439c0.58513,9.1093 -6.32509,16.96818 -15.43438,17.55331z" data-paper-data="{&quot;index&quot;:null}" fill="#000000" stroke="none" stroke-width="0" stroke-linecap="butt"/><path d="M180.63825,147.71021c-0.83128,-12.94133 8.98588,-24.10624 21.92721,-24.93751c12.94133,-0.83128 24.10624,8.98588 24.93751,21.92721c0,0 -46.78578,4.23931 -46.86472,3.0103z" fill="#ffffff" stroke="#000000" stroke-width="2" stroke-linecap="butt"/><path d="M234.78512,144.23215c-0.83128,-12.94133 8.98588,-24.10624 21.92721,-24.93751c12.94133,-0.83128 24.10624,8.98588 24.93751,21.92721c0.07781,1.2113 -46.86472,3.0103 -46.86472,3.0103z" data-paper-data="{&quot;index&quot;:null}" fill="#ffffff" stroke="#000000" stroke-width="2" stroke-linecap="butt"/><path d="M191.40327,118.15089c0,0 6.3638,-5.58864 11.36504,-7.10668c5.00125,-1.51804 12.35359,-0.09271 12.35359,-0.09271c0,0 -8.02546,0.45511 -11.88775,1.62745c-4.03625,1.22513 -11.83088,5.57195 -11.83088,5.57195z" fill="#000000" stroke="none" stroke-width="0" stroke-linecap="butt"/><path d="M254.89848,109.26037c-3.98054,-0.66857 -11.99828,-0.09316 -11.99828,-0.09316c0,0 7.10956,-2.35427 12.26394,-1.48858c5.15436,0.8657 12.18087,5.59424 12.18087,5.59424c0,0 -8.2867,-3.31385 -12.44653,-4.01252z" data-paper-data="{&quot;index&quot;:null}" fill="#000000" stroke="none" stroke-width="0" stroke-linecap="butt"/><g stroke-width="7.5" stroke-linecap="round"><path d="M202.7046,116.40525l28.46327,15.1766l5.63386,48.80442l-39.78428,-11.49202l-1.81555,-3.94975l-3.99848,-28.20785z" fill="#ff8300" stroke="#ff8300"/><path d="M274.26319,131.40136l-0.35671,28.4876l-1.2953,4.14958l-37.98701,16.48757l-0.6565,-49.12413l26.28769,-18.69346z" data-paper-data="{&quot;index&quot;:null}" fill="#ffa900" stroke="#ffa900"/><path d="M290.99022,127.3017l1.69673,28.92237l-27.82636,9.08077l12.69198,-33.5702l-14.1735,-17.66001l-31.35078,16.30535l-30.24657,-11.92451l-13.24664,15.93475l12.57047,34.04859l-30.53048,-8.49067l-0.88237,-27.12836l0.8373,-35.87636l15.15646,2.5338l39.6505,-17.70654l42.59993,14.36135l16.00778,-5.60968z" fill="#30433d" stroke="#30433d"/></g><path d="M203.24412,177.9457l60.48541,-3.8852l-9.84234,58.19358l-34.47601,1.37579z" fill="#476863" stroke="none" stroke-width="0" stroke-linecap="butt"/><path d="M160.93943,175.46867l-0.61816,-10.07935l4.56306,-4.6842l16.3073,4.00544l1.9284,7.32201l-13.01234,5.84488z" fill="#22302c" stroke="#22302c" stroke-width="2" stroke-linecap="round"/><path d="M180.46337,209.11838l-14.38568,-41.47012l39.52373,10.39894l13.71495,55.46126z" fill="#476863" stroke="none" stroke-width="0" stroke-linecap="butt"/><path d="M270.96034,203.88127l6.56792,-32.4063l9.69721,-3.32586l-9.44152,40.97071z" data-paper-data="{&quot;index&quot;:null}" fill="#456761" stroke="none" stroke-width="0" stroke-linecap="butt"/><path d="M174.61162,215.38563l-14.60571,-39.42607l10.04304,2.05786l10.66,31.29968z" fill="#364c47" stroke="none" stroke-width="0" stroke-linecap="butt"/><path d="M205.10456,178.17541l-39.23563,-10.86987l14.94638,-3.73609l26.18996,8.60526z" fill="#2c4c45" stroke="none" stroke-width="0" stroke-linecap="butt"/><path d="M259.65142,169.06118l24.87373,-11.88527l15.30153,1.79314l-37.5225,15.80033z" data-paper-data="{&quot;index&quot;:null}" fill="#5f7f7c" stroke="none" stroke-width="0" stroke-linecap="butt"/><path d="M203.70028,178.39335l2.24702,-6.39204l54.69834,-3.51349l2.32453,6.09839z" fill="#446660" stroke="none" stroke-width="0" stroke-linecap="butt"/><path d="M251.52761,203.85243c0.57888,9.01203 -6.16557,16.78105 -15.06411,17.35264c-8.89856,0.57159 -16.58153,-6.2707 -17.16041,-15.28273c-0.57888,-9.01203 6.16556,-16.78109 15.0641,-17.35268c8.89856,-0.57159 16.58153,6.27074 17.16042,15.28277z" fill="#ff8300" stroke="#ff8300" stroke-width="2" stroke-linecap="butt"/><path d="M246.56999,204.17084c0.40891,6.36599 -4.2537,11.84742 -10.41423,12.24314c-6.16053,0.39572 -11.48614,-4.44414 -11.89505,-10.81013c-0.40891,-6.36599 4.2537,-11.84743 10.41425,-12.24315c6.16053,-0.39572 11.48612,4.44414 11.89504,10.81015z" fill="#ffc100" stroke="#ff8300" stroke-width="2" stroke-linecap="butt"/><path d="M241.6628,204.48605c0.22902,3.56544 -2.3824,6.63547 -5.83277,6.8571c-3.45037,0.22164 -6.43312,-2.48907 -6.66214,-6.05451c-0.22902,-3.56544 2.38241,-6.63547 5.83278,-6.8571c3.45037,-0.22164 6.43311,2.48904 6.66213,6.05451z" fill="#ffc100" stroke="#ff8300" stroke-width="2" stroke-linecap="butt"/><path d="M257.68,226.89414l8.24717,-51.69185l31.46265,-13.49783l-7.92539,39.38467z" data-paper-data="{&quot;index&quot;:null}" fill="#ff8300" stroke="none" stroke-width="0" stroke-linecap="butt"/><path d="M180.71764,207.36714l-12.89913,-38.04704l32.931,9.36158l14.79283,50.21189z" data-paper-data="{&quot;index&quot;:null}" fill="#ff8300" stroke="none" stroke-width="0" stroke-linecap="butt"/></g></g></g></svg>