<svg version="1.1" xmlns="http://www.w3.org/2000/svg" xmlns:xlink="http://www.w3.org/1999/xlink" width="34.17311" height="34.17311" viewBox="0,0,34.17311,34.17311"><g transform="translate(-222.91344,-162.91344)"><g data-paper-data="{&quot;isPaintingLayer&quot;:true}" stroke-miterlimit="10" stroke-dasharray="" stroke-dashoffset="0" style="mix-blend-mode: normal"><path d="M229.98311,162.91345h20.03379c3.9166,0 7.06966,3.15307 7.06966,7.06966v20.03379c0,3.91659 -3.15306,7.06966 -7.06966,7.06966h-20.03379c-3.91659,0 -7.06966,-3.15307 -7.06966,-7.06966v-20.03379c0,-3.91659 3.15307,-7.06966 7.06966,-7.06966z" fill-opacity="0.59992" fill="#5d7176" fill-rule="evenodd" stroke="none" stroke-width="4.43922" stroke-linecap="round" stroke-linejoin="round"/><path d="M227.11129,174.10723c0,-2.99608 2.42881,-5.42489 5.42489,-5.42489c2.99608,0 5.42489,2.42881 5.42489,5.42489c0,2.99608 -2.42881,5.42489 -5.42489,5.42489c-2.99608,0 -5.42489,-2.42881 -5.42489,-5.42489z" fill="none" fill-rule="nonzero" stroke="#000000" stroke-width="3" stroke-linecap="butt" stroke-linejoin="miter"/><path d="M255.13399,173.9265c0,3.74511 -11.98567,19.87161 -15.7145,19.87161c-0.72175,0 -2.92823,-0.96313 -5.45341,-2.54965c-1.54754,-0.97229 -3.50935,-1.88416 -4.45643,-3.81803c-2.06372,-4.21398 -0.8075,-11.48578 1.39733,-18.81613c1.45161,-4.82612 11.78512,1.89215 11.78512,1.89215c0,0 1.96142,-3.36107 5.69024,-3.36107c3.72882,0 6.75163,3.03601 6.75163,6.78111z" fill="#5d7176" fill-rule="nonzero" stroke="none" stroke-width="0" stroke-linecap="butt" stroke-linejoin="miter"/><path d="M250.82101,175.45449l-5.19702,-2.59851" fill="none" fill-rule="nonzero" stroke="#000000" stroke-width="2" stroke-linecap="round" stroke-linejoin="miter"/><path d="M231.57709,186.95077c0,0 7.40986,-7.26681 8.74326,-6.50661c1.80794,1.03073 -0.81332,10.97991 -0.81332,10.97991" fill="none" fill-rule="nonzero" stroke="#000000" stroke-width="4.5" stroke-linecap="round" stroke-linejoin="miter"/><path d="M241.86249,172.00837c-1.26577,1.99104 -3.91807,2.57124 -5.92406,1.29596c-2.006,-1.27528 -2.60607,-3.92317 -1.3403,-5.9142c1.26577,-1.99104 3.91808,-2.57125 5.92407,-1.29596c2.006,1.27528 2.60607,3.92318 1.3403,5.9142z" fill="#000000" fill-rule="nonzero" stroke="#000000" stroke-width="1.5" stroke-linecap="butt" stroke-linejoin="miter"/><path d="M239.94435,170.78894c-0.59732,0.93957 -1.84896,1.21337 -2.79559,0.61156c-0.94664,-0.60181 -1.22982,-1.85136 -0.6325,-2.79093c0.59732,-0.93957 1.84896,-1.21338 2.79559,-0.61157c0.94664,0.60181 1.22982,1.85137 0.6325,2.79094z" fill="none" fill-rule="nonzero" stroke="#5d7176" stroke-width="2" stroke-linecap="butt" stroke-linejoin="miter"/></g></g></svg>