<svg version="1.1" xmlns="http://www.w3.org/2000/svg" xmlns:xlink="http://www.w3.org/1999/xlink" width="145.24278" height="237.1887" viewBox="0,0,145.24278,237.1887"><g transform="translate(-166.23456,-70.27053)"><g data-paper-data="{&quot;isPaintingLayer&quot;:true}" fill-rule="nonzero" stroke-linejoin="miter" stroke-miterlimit="10" stroke-dasharray="" stroke-dashoffset="0" style="mix-blend-mode: normal"><g><path d="M206.03422,307.45923l15.14285,-131.8421l37.78325,-0.15789l13.57389,132z" fill="#395858" stroke="#000000" stroke-width="0" stroke-linecap="butt"/><path d="M220.58675,223.11263l19.43547,4.41787l22.11638,-4.5394l1.95241,-1.15069l7.17795,50.65863l-32.24809,13l-31.71829,-12.80674l6.62795,-51.53844z" fill="#314b4b" stroke="#314b4b" stroke-width="2" stroke-linecap="round"/><path d="M250.72085,245.43238l-1.33334,13.83333l-10.66666,7.83334l-16.66667,-27.33334z" fill="#ff7c0b" stroke="#ff7c0b" stroke-width="2" stroke-linecap="round"/><path d="M249.15989,246.9649l-1.10569,11.47154l-8.84553,6.49594l-13.82114,-22.66667z" fill="#ffc30a" stroke="#ffc30a" stroke-width="2" stroke-linecap="round"/><path d="M248.17207,247.80839l-0.95122,9.8689l-7.60975,5.58842l-11.89024,-19.5z" fill="#ff9e0a" stroke="#ff9e0a" stroke-width="2" stroke-linecap="round"/><path d="M244.78086,252.69571c0,2.73381 -1.99233,4.95 -4.45,4.95c-2.45766,0 -4.45,-2.21619 -4.45,-4.95c0,-2.73381 1.99234,-4.95 4.45,-4.95c2.45766,0 4.45,2.21619 4.45,4.95z" fill="#ffb50a" stroke="#ff9e0a" stroke-width="2" stroke-linecap="butt"/><path d="M219.76302,173.58197l19.32668,-1.55029l19.10219,2.15029l-18.5077,32.90673z" fill="#243d3d" stroke="#243d3d" stroke-width="2" stroke-linecap="round"/><path d="M264.11112,221.52911l-6.62693,1.69327l-17.6,3.4l-19.2,-4.4l-7.07688,-2.03844l3.44017,-26.211l2.83573,-19.17748l20.00098,38.22692l18.3077,-37.52019z" fill="#385656" stroke="#385656" stroke-width="2" stroke-linecap="round"/></g><g><path d="M226.93801,241.33206l-48.70056,-37.15194l6.56323,-6.16522l39.65203,29.51867z" fill="#1b322d" stroke="none" stroke-width="0" stroke-linecap="butt"/><path d="M253.96417,227.80209l39.65203,-29.51866l6.56323,6.16522l-48.70056,37.15194z" data-paper-data="{&quot;index&quot;:null}" fill="#1b322d" stroke="none" stroke-width="0" stroke-linecap="butt"/><path d="M293.7141,198.90561l7.68116,-29.36773l10.08059,-3.32527l-11.28799,38.28894z" data-paper-data="{&quot;index&quot;:null}" fill="#456761" stroke="none" stroke-width="0" stroke-linecap="butt"/><path d="M239.78491,212.91035l16.79472,5.60771l-4.84462,23.75033l-11.32142,3.00591l-13.8707,-3.33577l-5.16762,-23.42044z" fill="#24433d" stroke="#24433d" stroke-width="2" stroke-linecap="round"/><path d="M175.1241,136.80538c0,-33.30185 28.7599,-60.29833 64.23702,-60.29833c35.47712,0 64.23702,26.99649 64.23702,60.29833c0,33.30185 -28.7599,60.29833 -64.23702,60.29833c-35.47712,0 -64.23702,-26.99649 -64.23702,-60.29833z" fill="#ffffff" stroke="#000000" stroke-width="2" stroke-linecap="butt"/><path d="M175.84715,136.85922c0,-0.72799 5.20666,55.91939 63.36046,56.93429c55.56352,0.9697 63.51358,-57.95314 63.51358,-56.93429c0,32.80479 -28.40173,59.39833 -63.43702,59.39833c-35.03529,0 -63.43702,-26.59354 -63.43702,-59.39833z" fill="#e6e6e6" stroke="#000000" stroke-width="0" stroke-linecap="butt"/><path d="M287.54343,167.52959l-0.94284,-10.9218l8.59228,-3.14089l12.33168,1.83822l2.75852,10.50975l-13.28218,5.12386z" data-paper-data="{&quot;index&quot;:null}" fill="#22302c" stroke="#22302c" stroke-width="2" stroke-linecap="round"/><path d="M188.67433,137.23485c0,-12.968 10.51265,-23.48065 23.48065,-23.48065c12.968,0 23.48065,10.51265 23.48065,23.48065c0,12.968 -10.51265,23.48065 -23.48065,23.48065c-12.968,0 -23.48065,-10.51265 -23.48065,-23.48065z" fill="#ffffff" stroke="#000000" stroke-width="2" stroke-linecap="butt"/><path d="M195.73972,136.95921c0,-9.12808 7.39976,-16.52784 16.52783,-16.52784c9.12808,0 16.52784,7.39977 16.52784,16.52784c0,9.12808 -7.39977,16.52784 -16.52784,16.52784c-9.12808,0 -16.52783,-7.39977 -16.52783,-16.52784z" fill="#000000" stroke="none" stroke-width="0" stroke-linecap="butt"/><path d="M257.76129,225.22003l10.4134,-55.63884l38.60265,-13.77708l-11.69778,42.82657z" data-paper-data="{&quot;index&quot;:null}" fill="#37514d" stroke="none" stroke-width="0" stroke-linecap="butt"/><path d="M251.9008,176.61565h-25.10959" fill="none" stroke="#000000" stroke-width="2" stroke-linecap="round"/><path d="M266.41343,160.71548c-12.968,0 -23.48065,-10.51265 -23.48065,-23.48065c0,-12.968 10.51265,-23.48065 23.48065,-23.48065c12.968,0 23.48065,10.51265 23.48065,23.48065c0,12.968 -10.51265,23.48065 -23.48065,23.48065z" data-paper-data="{&quot;index&quot;:null}" fill="#ffffff" stroke="#000000" stroke-width="2" stroke-linecap="butt"/><path d="M266.30086,153.48706c-9.12807,0 -16.52783,-7.39977 -16.52783,-16.52784c0,-9.12808 7.39977,-16.52784 16.52783,-16.52784c9.12807,0 16.52783,7.39977 16.52783,16.52784c0,9.12808 -7.39977,16.52784 -16.52783,16.52784z" data-paper-data="{&quot;index&quot;:null}" fill="#000000" stroke="none" stroke-width="0" stroke-linecap="butt"/><path d="M188.67433,137.23485c0,-12.968 10.51265,-23.48065 23.48065,-23.48065c12.968,0 23.48065,10.51265 23.48065,23.48065c0,0 -46.96131,1.23155 -46.96131,0z" fill="#ffffff" stroke="#000000" stroke-width="2" stroke-linecap="butt"/><path d="M242.93278,137.23485c0,-12.968 10.51265,-23.48065 23.48065,-23.48065c12.968,0 23.48065,10.51265 23.48065,23.48065c0,1.2138 -46.96131,0 -46.96131,0z" data-paper-data="{&quot;index&quot;:null}" fill="#ffffff" stroke="#000000" stroke-width="2" stroke-linecap="butt"/><path d="M201.31201,108.42638c0,0 6.70895,-5.16922 11.79721,-6.36355c5.08827,-1.19433 12.33413,0.69937 12.33413,0.69937c0,0 -8.03812,-0.06028 -11.96762,0.86207c-4.10648,0.96389 -12.16372,4.80211 -12.16372,4.80211z" fill="#000000" stroke="none" stroke-width="0" stroke-linecap="butt"/><path d="M265.24653,103.62428c-3.9295,-0.92235 -11.96762,-0.86207 -11.96762,-0.86207c0,0 7.24586,-1.8937 12.33413,-0.69937c5.08826,1.19433 11.79721,6.36355 11.79721,6.36355c0,0 -8.05724,-3.83822 -12.16372,-4.80211z" data-paper-data="{&quot;index&quot;:null}" fill="#000000" stroke="none" stroke-width="0" stroke-linecap="butt"/><g stroke-width="7.5" stroke-linecap="round"><path d="M212.70199,107.40875l27.43189,16.96993l2.49382,49.06519l-38.96579,-14.01863l-1.55863,-4.05801l-2.18209,-28.40614z" fill="#ff8300" stroke="#ff8300"/><path d="M283.15213,126.96106l-2.18209,28.40614l-1.55863,4.05801l-38.96577,14.01863l2.4938,-49.06519l27.43191,-16.96993z" data-paper-data="{&quot;index&quot;:null}" fill="#ffa900" stroke="#ffa900"/><path d="M300.10756,123.94207l-0.16074,28.97165l-28.35123,7.27838l14.81778,-32.68758l-13.01232,-18.53223l-32.3315,14.26217l-29.41999,-13.83885l-14.24084,15.05284l10.36204,34.78435l-29.92342,-10.43027l0.85842,-27.12912l3.13532,-35.7489l14.96286,3.50015l40.70398,-15.12846l41.59173,17.06254l16.33445,-4.57201z" fill="#30433d" stroke="#30433d"/></g><path d="M209.29556,168.85723h60.61006l-13.55241,57.44299l-34.4933,-0.83701z" fill="#476863" stroke="none" stroke-width="0" stroke-linecap="butt"/><path d="M167.23665,163.67348l0.02921,-10.09824l4.85395,-4.38207l16.01701,5.04253l1.45508,7.43057l-13.36025,4.99874z" fill="#22302c" stroke="#22302c" stroke-width="2" stroke-linecap="round"/><path d="M184.56344,198.50551l-11.69778,-42.30697l38.77586,12.91109l10.13158,56.22635z" fill="#476863" stroke="none" stroke-width="0" stroke-linecap="butt"/><path d="M275.20999,199.08018l8.63171,-31.91864l9.89046,-2.69741l-12.0484,40.28123z" data-paper-data="{&quot;index&quot;:null}" fill="#456761" stroke="none" stroke-width="0" stroke-linecap="butt"/><path d="M178.32198,204.38476l-12.04839,-40.28123l9.89047,2.69741l8.63171,31.91864z" fill="#364c47" stroke="none" stroke-width="0" stroke-linecap="butt"/><path d="M211.13744,169.20572l-38.45816,-13.36258l15.15512,-2.77032l25.58448,10.26638z" fill="#2c4c45" stroke="none" stroke-width="0" stroke-linecap="butt"/><path d="M266.15636,163.60678l25.58445,-10.26638l15.15512,2.7703l-38.45816,13.36258z" data-paper-data="{&quot;index&quot;:null}" fill="#5f7f7c" stroke="none" stroke-width="0" stroke-linecap="butt"/><path d="M209.72208,169.3332l2.65214,-6.23486h54.81106l1.92883,6.23486z" fill="#446660" stroke="none" stroke-width="0" stroke-linecap="butt"/><path d="M255.81907,197.80572c0,9.0306 -7.22859,16.35131 -16.14547,16.35131c-8.9169,0 -16.14546,-7.32071 -16.14546,-16.35131c0,-9.0306 7.22858,-16.35135 16.14546,-16.35135c8.9169,0 16.14547,7.32075 16.14547,16.35135z" fill="#000000" stroke="#000000" stroke-width="2" stroke-linecap="butt"/><path d="M250.85124,197.8057c0,6.37911 -5.00439,11.55039 -11.17762,11.55039c-6.17323,0 -11.17764,-5.17129 -11.17764,-11.55039c0,-6.37911 5.00439,-11.5504 11.17764,-11.5504c6.17323,0 11.17762,5.17129 11.17762,11.5504z" fill="#ff8300" stroke="#ff8300" stroke-width="2" stroke-linecap="butt"/><path d="M245.93395,197.8057c0,3.5728 -2.80284,6.46911 -6.26033,6.46911c-3.45749,0 -6.26034,-2.89633 -6.26034,-6.46911c0,-3.5728 2.80285,-6.46911 6.26034,-6.46911c3.45749,0 6.26033,2.8963 6.26033,6.46911z" fill="#ffc100" stroke="#ffc100" stroke-width="2" stroke-linecap="butt"/><path d="M260.48181,221.19443l11.54374,-51.05687l32.26318,-11.45326l-10.43372,38.79564z" data-paper-data="{&quot;index&quot;:null}" fill="#000000" stroke="none" stroke-width="0" stroke-linecap="butt"/><path d="M184.92944,196.77418l-10.43372,-38.79564l32.26318,11.45326l11.54374,51.05687z" data-paper-data="{&quot;index&quot;:null}" fill="#000000" stroke="none" stroke-width="0" stroke-linecap="butt"/></g></g></g></svg>