<svg version="1.1" xmlns="http://www.w3.org/2000/svg" xmlns:xlink="http://www.w3.org/1999/xlink" width="407" height="317.92784" viewBox="0,0,407,317.92784"><g transform="translate(-36.5,-35.57217)"><g data-paper-data="{&quot;isPaintingLayer&quot;:true}" fill-rule="nonzero" stroke-linejoin="miter" stroke-miterlimit="10" stroke-dasharray="" stroke-dashoffset="0" style="mix-blend-mode: normal"><path d="M36.5,353.5v-41h407v41z" fill="#666666" stroke="none" stroke-width="0" stroke-linecap="butt"/><text transform="translate(60.76443,339.82413) scale(0.56868,0.56868)" font-size="40" xml:space="preserve" fill="#ffffff" fill-rule="nonzero" stroke="none" stroke-width="1" stroke-linecap="butt" stroke-linejoin="miter" stroke-miterlimit="10" stroke-dasharray="" stroke-dashoffset="0" font-family="Sans Serif" font-weight="normal" text-anchor="start" style="mix-blend-mode: normal"><tspan x="0" dy="0">These Guys Do The Same Melody</tspan></text><path d="M264.90554,132.36284c0,-1.65654 -5.80143,-1.9233 -5.80143,-1.9233c0,0 6.69584,-8.87746 7.35214,-11.71771c6.65986,-28.82218 23.99043,-56.21969 66.68631,-56.74538c45.68643,-0.56252 68.23702,35.01087 68.23702,70.3864c0,0.66795 3.07779,7.31159 4.43041,10.36634c2.27861,5.14598 3.33715,7.45866 3.33715,7.45866c0,0 -2.64733,-1.66693 -4.82385,-3.56682c-2.14071,-1.86864 -3.80963,-3.97893 -3.99144,-3.01508c-0.43459,2.30399 -0.59561,10.92242 -4.12876,19.9176c-3.49395,8.89536 -10.36285,18.18124 -10.36285,18.18124c0,0 -2.29192,-5.28642 -3.77673,-3.14158c-6.07718,8.77862 -11.2964,15.30957 -11.2964,15.30957c0,0 -2.40974,-4.97718 -4.47106,-3.86765c-9.32569,5.01966 -20.06286,7.91078 -31.65348,7.91078c-12.60656,0 -24.772,-3.56633 -35.27102,-9.52744c-2.72845,-1.54916 -0.82623,4.38789 -0.82623,4.38789c0,0 -7.93843,-5.19677 -13.15685,-11.00681c-6.08759,-6.77777 -9.73663,-14.57056 -12.13914,-18.68944c-0.34082,-0.58431 -4.01999,1.58785 -5.934,2.01254c-2.96082,0.65696 -4.48364,-0.08182 -4.48364,-0.08182c0,0 2.67098,-3.37669 3.55098,-5.15497c0.94364,-1.90688 1.93325,-5.92746 1.93325,-5.92746c0,0 -2.66402,1.90888 -4.05965,2.38502c-1.48595,0.50696 -4.60208,0.57008 -4.60208,0.57008c0,0 4.39229,-5.64339 5.74307,-11.5602c1.27257,-5.57422 -0.4917,-11.39111 -0.4917,-12.96047z" fill="#000000" stroke="#000000" stroke-width="0" stroke-linecap="butt"/><g><path d="M295.5839,296.4527c0,-11.46758 3.97254,-38.81541 6.29934,-45.78704c1.93422,-5.7953 1.95838,7.76268 4.72124,7.76268c6.08649,0 11.02057,17.02409 11.02057,38.02436c0,6.18329 -22.04115,4.02913 -22.04115,0z" data-paper-data="{&quot;index&quot;:null}" fill="#d3ebfe" stroke="none" stroke-width="0" stroke-linecap="butt"/><path d="M301.1978,258.34471c-3.54696,-4.8972 -3.61386,-9.21626 -3.61386,-10.38402c0,-3.32364 3.97254,-11.24984 6.29934,-13.27042c1.93423,-1.67967 1.95838,2.24985 4.72124,2.24985c6.08649,0 11.02057,4.93408 11.02057,11.02057c0,1.79209 5.76476,7.24419 7.19366,13.69422c2.625,11.84922 -22.78085,0.61103 -25.62095,-3.31021z" data-paper-data="{&quot;index&quot;:null}" fill="#bdd2e4" stroke="none" stroke-width="0" stroke-linecap="butt"/><path d="M302.08009,239.29426c-3.54696,-4.89719 -3.61386,-9.21625 -3.61386,-10.38401c0,-3.32364 3.97254,-11.24984 6.29934,-13.27042c1.93422,-1.67966 1.95838,2.24984 4.72124,2.24984c6.08649,0 11.02057,4.93408 11.02057,11.02057c0,1.7921 5.76475,7.24419 7.19365,13.69422c2.62499,11.84923 1.37686,27.06635 -1.12624,29.14698c-0.40827,0.33937 1.10227,-0.68594 -6.27446,-11.51423c-1.63417,-2.39882 -4.22643,-6.95661 -7.18614,-10.11516c-3.83057,-4.0879 -8.194,-6.90657 -11.0341,-10.82781z" data-paper-data="{&quot;index&quot;:null}" fill="#8ea6b2" stroke="none" stroke-width="0" stroke-linecap="butt"/><path d="M301.65842,218.19465c-3.54696,-4.89719 -3.61386,-9.21625 -3.61386,-10.38401c0,-3.32364 3.97254,-11.24984 6.29934,-13.27042c1.93422,-1.67966 1.95838,2.24984 4.72124,2.24984c6.08649,0 11.02057,4.93408 11.02057,11.02057c0,1.79209 5.76475,7.24419 7.19365,13.69422c2.62499,11.84923 1.37686,27.06635 -1.12624,29.14698c-0.40827,0.33937 1.10227,-0.68594 -6.27446,-11.51423c-1.63417,-2.39882 -4.22643,-6.95661 -7.18614,-10.11516c-3.83057,-4.0879 -8.194,-6.90657 -11.0341,-10.82781z" data-paper-data="{&quot;index&quot;:null}" fill="#5f7e7b" stroke="none" stroke-width="0" stroke-linecap="butt"/><path d="M302.54069,196.16358c-3.54696,-4.89719 -3.61386,-9.21625 -3.61386,-10.38401c0,-3.32363 0.24679,-12.18127 2.57359,-14.20185c1.93423,-1.67967 5.68413,3.18129 8.44699,3.18129c6.08649,0 11.02057,4.93408 11.02057,11.02057c0,1.7921 5.76476,7.24419 7.19366,13.69422c2.62499,11.84924 1.37685,27.06636 -1.12625,29.14699c-0.40827,0.33937 1.10227,-0.68594 -6.27446,-11.51423c-1.63417,-2.39882 -4.22643,-6.95661 -7.18614,-10.11516c-3.83057,-4.0879 -8.194,-6.90657 -11.0341,-10.82781z" data-paper-data="{&quot;index&quot;:null}" fill="#304d47" stroke="none" stroke-width="0" stroke-linecap="butt"/><path d="M349.07862,298.76355c0,-21.00027 4.93408,-38.02436 11.02057,-38.02436c2.76286,0 2.78702,-13.55798 4.72124,-7.76268c2.3268,6.97163 6.29934,34.31946 6.29934,45.78704c0,4.02913 -22.04115,6.18329 -22.04115,0z" data-paper-data="{&quot;index&quot;:null}" fill="#d3ebfe" stroke="none" stroke-width="0" stroke-linecap="butt"/><path d="M365.50586,260.65555c-2.8401,3.92124 -28.24595,15.15943 -25.62095,3.31021c1.4289,-6.45003 7.19366,-11.90213 7.19366,-13.69422c0,-6.08649 4.93408,-11.02057 11.02057,-11.02057c2.76286,0 2.78701,-3.92952 4.72124,-2.24985c2.3268,2.02058 6.29934,9.94678 6.29934,13.27042c0,1.16776 -0.0669,5.48682 -3.61386,10.38402z" data-paper-data="{&quot;index&quot;:null}" fill="#bdd2e4" stroke="none" stroke-width="0" stroke-linecap="butt"/><path d="M364.62357,241.60509c-2.8401,3.92124 -7.20353,6.73991 -11.0341,10.82781c-2.95971,3.15855 -5.55197,7.71634 -7.18614,10.11516c-7.37673,10.82829 -5.86619,11.8536 -6.27446,11.51423c-2.5031,-2.08063 -3.75123,-17.29775 -1.12624,-29.14698c1.4289,-6.45003 7.19365,-11.90212 7.19365,-13.69422c0,-6.08649 4.93408,-11.02057 11.02057,-11.02057c2.76286,0 2.78702,-3.9295 4.72124,-2.24984c2.3268,2.02058 6.29934,9.94678 6.29934,13.27042c0,1.16776 -0.0669,5.48682 -3.61386,10.38401z" data-paper-data="{&quot;index&quot;:null}" fill="#8ea6b2" stroke="none" stroke-width="0" stroke-linecap="butt"/><path d="M365.04525,220.50548c-2.8401,3.92124 -7.20353,6.73991 -11.0341,10.82781c-2.95971,3.15855 -5.55197,7.71634 -7.18614,10.11516c-7.37673,10.82829 -5.86619,11.8536 -6.27446,11.51423c-2.5031,-2.08063 -3.75123,-17.29775 -1.12624,-29.14698c1.4289,-6.45003 7.19365,-11.90213 7.19365,-13.69422c0,-6.08649 4.93408,-11.02057 11.02057,-11.02057c2.76286,0 2.78702,-3.9295 4.72124,-2.24984c2.3268,2.02058 6.29934,9.94678 6.29934,13.27042c0,1.16776 -0.0669,5.48682 -3.61386,10.38401z" data-paper-data="{&quot;index&quot;:null}" fill="#5f7e7b" stroke="none" stroke-width="0" stroke-linecap="butt"/><path d="M364.16297,198.47444c-2.8401,3.92124 -7.20353,6.73991 -11.0341,10.82781c-2.95971,3.15855 -5.55197,7.71634 -7.18614,10.11516c-7.37673,10.82829 -5.86619,11.8536 -6.27446,11.51423c-2.5031,-2.08063 -3.75124,-17.29775 -1.12625,-29.14699c1.4289,-6.45003 7.19366,-11.90212 7.19366,-13.69422c0,-6.08649 4.93408,-11.02057 11.02057,-11.02057c2.76286,0 6.51276,-4.86096 8.44699,-3.18129c2.3268,2.02058 2.57359,10.87822 2.57359,14.20185c0,1.16776 -0.0669,5.48682 -3.61386,10.38401z" data-paper-data="{&quot;index&quot;:null}" fill="#304d47" stroke="none" stroke-width="0" stroke-linecap="butt"/><path d="M300.2589,300.01666c0,0 13.70618,-43.82794 16.26075,-66.06944c2.49147,-21.69213 -1.1179,-65.77266 -1.1179,-65.77266l37.78325,-0.15789c0,0 -4.22286,45.59329 -2.01266,67.0865c2.31002,22.4639 15.58655,64.9135 15.58655,64.9135z" fill="#000000" stroke="#000000" stroke-width="2" stroke-linecap="butt"/><path d="M354.47348,224.72242c-2.41334,2.91532 -7.78168,12.99125 -6.96813,25.0451c1.5066,22.32205 11.47011,50.89618 10.80087,49.59519c-1.41514,-2.75101 -23.41239,4.5947 -24.7772,-0.67079c-7.72896,-29.81867 -1.55624,-100.47421 -1.55624,-100.47421c0,0 -3.65768,-2.41583 -1.93582,-4.17018c3.94279,-4.01718 25.10319,-19.43431 25.10319,-19.43431h4.58977c0,0 10.74993,6.14275 13.5263,12.46867c2.96644,6.75898 3.73995,26.87216 3.73995,26.87216c0,0 -15.03819,1.72708 -22.52271,10.76837z" data-paper-data="{&quot;index&quot;:null}" fill="#0a1d1e" stroke="none" stroke-width="0" stroke-linecap="butt"/><path d="M290.02166,214.7269c0,0 0.7735,-20.11319 3.73995,-26.87218c2.77638,-6.32592 13.5263,-12.46866 13.5263,-12.46866h4.58977l23.16737,23.60449c0,0 6.17273,70.65553 -1.55623,100.4742c-1.3648,5.2655 -23.36206,-2.08021 -24.77721,0.67079c-0.66924,1.30099 9.29427,-27.27314 10.80087,-49.59519c0.81356,-12.05384 -4.55479,-22.12977 -6.96814,-25.0451c-7.48451,-9.04129 -22.52271,-10.76837 -22.52271,-10.76837z" fill="#0a1d1e" stroke="none" stroke-width="0" stroke-linecap="butt"/><path d="M320.0279,217.41616l-3.86372,-10.65525l35.34895,0.21498l-3.6171,10.60469z" fill="#d3ebfe" stroke="none" stroke-width="0" stroke-linecap="butt"/><path d="M316.04076,206.88045c0,0 3.27959,-2.45427 4.70367,-3.25108c1.06894,-0.59811 3.0852,-1.10698 3.0852,-1.10698l20.12127,0.3709c0,0 2.83216,0.93569 4.07533,1.59564c1.26016,0.66897 3.80626,2.3915 3.80626,2.3915z" fill="#8ea6b2" stroke="none" stroke-width="0" stroke-linecap="butt"/><path d="M322.4739,211.76814h22.39744" fill="none" stroke="#000000" stroke-width="5" stroke-linecap="round"/><path d="M322.44946,211.72135h11.37574" fill="none" stroke="#ffa200" stroke-width="5" stroke-linecap="round"/><path d="M328.65385,211.9037h-6.33997" fill="none" stroke="#dd6000" stroke-width="5" stroke-linecap="round"/></g><path d="M314.78891,184.70724l4.11244,1.89404c0,0 2.83477,4.41913 6.8321,7.80436c3.42779,2.90289 8.25418,4.83875 8.06876,4.91681c-0.21553,0.09074 13.47459,3.19485 9.4775,3.32531c-1.08729,0.03548 -18.49662,0.34202 -19.78531,-0.2829c-1.68208,-0.81569 -11.15413,-11.66385 -10.25022,-13.58275c0.53359,-1.13273 1.54473,-4.07489 1.54473,-4.07489z" fill="#779295" stroke="none" stroke-width="0" stroke-linecap="butt"/><path d="M354.57745,188.86218c0.9039,1.91888 -8.56815,12.76707 -10.25022,13.58276c-1.28867,0.62491 -18.69801,0.31837 -19.7853,0.28288c-3.9971,-0.13045 9.69302,-3.23456 9.47749,-3.3253c-0.18856,-0.07939 4.84808,-3.3365 8.58715,-6.35545c4.22472,-3.41107 7.22519,-6.62616 7.22519,-6.62616l3.20097,-1.63362c0,0 1.01114,2.94215 1.54473,4.07488z" data-paper-data="{&quot;index&quot;:null}" fill="#779295" stroke="none" stroke-width="0" stroke-linecap="butt"/><path d="M269.34882,129.36282c0,-33.30185 28.7599,-60.29833 64.23702,-60.29833c35.47712,0 64.23702,26.99649 64.23702,60.29833c0,33.30185 -28.7599,60.29833 -64.23702,60.29833c-35.47712,0 -64.23702,-26.99649 -64.23702,-60.29833z" fill="#ffffff" stroke="#000000" stroke-width="2" stroke-linecap="butt"/><path d="M270.07189,129.41666c0,-0.72799 5.20666,55.91939 63.36046,56.93429c55.56352,0.9697 63.51358,-57.95314 63.51358,-56.93429c0,32.80479 -28.40173,59.39833 -63.43702,59.39833c-35.03529,0 -63.43702,-26.59354 -63.43702,-59.39833z" fill="#e6e6e6" stroke="#000000" stroke-width="0" stroke-linecap="butt"/><path d="M282.89905,129.79229c0,-12.968 10.51265,-23.48065 23.48065,-23.48065c12.968,0 23.48065,10.51265 23.48065,23.48065c0,12.968 -10.51265,23.48065 -23.48065,23.48065c-12.968,0 -23.48065,-10.51265 -23.48065,-23.48065z" fill="#ffffff" stroke="#000000" stroke-width="2" stroke-linecap="butt"/><path d="M289.96443,129.51666c0,-9.12808 7.39976,-16.52784 16.52783,-16.52784c9.12808,0 16.52784,7.39977 16.52784,16.52784c0,9.12808 -7.39977,16.52784 -16.52784,16.52784c-9.12808,0 -16.52783,-7.39977 -16.52783,-16.52784z" fill="#000000" stroke="none" stroke-width="0" stroke-linecap="butt"/><path d="M346.12551,169.17309h-25.10959" fill="none" stroke="#000000" stroke-width="2" stroke-linecap="round"/><path d="M360.63814,153.27293c-12.968,0 -23.48065,-10.51265 -23.48065,-23.48065c0,-12.968 10.51265,-23.48065 23.48065,-23.48065c12.968,0 23.48065,10.51265 23.48065,23.48065c0,12.968 -10.51265,23.48065 -23.48065,23.48065z" data-paper-data="{&quot;index&quot;:null}" fill="#ffffff" stroke="#000000" stroke-width="2" stroke-linecap="butt"/><path d="M360.52557,146.0445c-9.12807,0 -16.52783,-7.39977 -16.52783,-16.52784c0,-9.12808 7.39977,-16.52784 16.52783,-16.52784c9.12807,0 16.52783,7.39977 16.52783,16.52784c0,9.12808 -7.39977,16.52784 -16.52783,16.52784z" data-paper-data="{&quot;index&quot;:null}" fill="#000000" stroke="none" stroke-width="0" stroke-linecap="butt"/><path d="M282.89905,129.79229c0,-12.968 10.51265,-23.48065 23.48065,-23.48065c12.968,0 23.48065,10.51265 23.48065,23.48065c0,0 -46.96131,1.23155 -46.96131,0z" fill="#ffffff" stroke="#000000" stroke-width="2" stroke-linecap="butt"/><path d="M337.15749,129.79229c0,-12.968 10.51265,-23.48065 23.48065,-23.48065c12.968,0 23.48065,10.51265 23.48065,23.48065c0,1.2138 -46.96131,0 -46.96131,0z" data-paper-data="{&quot;index&quot;:null}" fill="#ffffff" stroke="#000000" stroke-width="2" stroke-linecap="butt"/><path d="M295.53673,100.98382c0,0 6.70895,-5.16922 11.79721,-6.36355c5.08827,-1.19433 12.33413,0.69937 12.33413,0.69937c0,0 -8.03812,-0.06028 -11.96762,0.86207c-4.10648,0.96389 -12.16372,4.80211 -12.16372,4.80211z" fill="#000000" stroke="none" stroke-width="0" stroke-linecap="butt"/><path d="M359.47123,96.18172c-3.9295,-0.92235 -11.96762,-0.86207 -11.96762,-0.86207c0,0 7.24586,-1.8937 12.33413,-0.69937c5.08826,1.19433 11.79721,6.36355 11.79721,6.36355c0,0 -8.05724,-3.83822 -12.16372,-4.80211z" data-paper-data="{&quot;index&quot;:null}" fill="#000000" stroke="none" stroke-width="0" stroke-linecap="butt"/><path d="M397.85154,76.82096c0.12101,-1.50721 2.13016,-1.36271 2.26369,-1.36271c0.12302,0 10.36322,10.68917 8.88626,21.11275c-1.05927,7.4759 0.05543,16.87363 -3.23386,24.17189c-4.95565,10.99555 -19.70919,22.03146 -19.70919,22.55188c0,0.89148 6.78207,-23.63226 10.80216,-41.60153c2.0562,-9.191 2.87674,-18.05237 2.76025,-18.05237c-0.21073,0 -1.96026,-4.44149 -1.76932,-6.81991z" data-paper-data="{&quot;index&quot;:null}" fill="#304d47" stroke="none" stroke-width="0" stroke-linecap="butt"/><path d="M279.98661,142.43418c0,0 -9.04127,-16.0928 -10.58302,-30.82643c-1.44184,-13.77861 4.55186,-26.10558 6.09797,-30.32944c3.27064,-8.93516 19.24026,-21.86297 19.24026,-21.86297c0,0 4.64515,-1.82905 4.94788,-0.59404c0.25526,1.0413 -2.56914,6.6962 -4.88898,13.0924c-0.84944,2.34201 -3.12419,7.0087 -4.12396,11.62367c-1.37162,6.33149 -1.37106,12.56559 -1.37106,12.56559c0,0 5.62363,15.15216 15.55684,18.74842c20.21075,7.3172 54.60484,4.97308 70.15895,-2.84063c6.69927,-3.36543 1.7857,-34.0208 -2.86639,-43.60093c-0.32157,-0.66223 -9.09877,-11.81432 -4.22485,-11.00248c2.41548,0.40235 12.69355,6.99678 18.71127,15.27931c6.58478,9.06297 10.07623,19.47962 11.99626,20.37591c2.84102,6.99103 -8.80482,45.23401 -9.24725,47.43372c-0.79179,3.93642 -54.63805,30.41391 -54.63805,30.41391z" fill="#0a1d1e" stroke="none" stroke-width="0" stroke-linecap="butt"/><g stroke="none" stroke-width="0" stroke-linecap="butt"><path d="M323.41565,155.25415c-8.32941,-3.80361 -32.21452,-16.82601 -32.21452,-16.82601c0,0 -2.09407,-3.14568 -2.40856,-4.70745c-0.31151,-1.54712 0.53053,-4.6196 0.53053,-4.6196c0,0 8.60204,5.15796 13.31429,7.28288c3.99727,1.80252 14.42076,4.65933 14.42076,4.65933c0,0 8.38637,2.53896 18.6645,2.71339c6.08455,0.10325 15.67838,-2.74435 16.85182,-1.67004c0.91273,0.83561 -2.88561,5.77519 -7.23544,10.1181c-3.84033,3.83425 -11.16998,6.8406 -11.16998,6.8406c0,0 -4.23458,-0.81443 -10.75337,-3.79121z" data-paper-data="{&quot;index&quot;:null}" fill="#dd6000"/><path d="M333.92015,159.12831c0,0 -4.40825,-3.34434 -8.24862,-7.17858c-4.34983,-4.34291 -8.14819,-9.28248 -7.23544,-10.1181c0.64627,-0.59167 3.32614,0.56835 7.08774,1.20777c3.06833,0.52158 7.03062,0.50866 9.76408,0.46227c10.27812,-0.17442 18.6645,-2.71339 18.6645,-2.71339c0,0 10.4235,-2.85682 14.42076,-4.65935c4.71223,-2.12492 13.3143,-7.28289 13.3143,-7.28289c0,0 0.84203,3.07249 0.53052,4.6196c-0.31446,1.56176 -2.40856,4.70745 -2.40856,4.70745c0,0 -23.88512,13.02241 -32.21452,16.82601c-6.51879,2.97678 -13.67475,4.1292 -13.67475,4.1292z" fill="#ffa200"/></g><path d="M268.63039,83.4172c-0.11651,0 0.70404,8.86137 2.76026,18.05237c4.02008,17.96928 10.80215,42.493 10.80215,41.60153c0,-0.52041 -14.75356,-11.55632 -19.70919,-22.55187c-3.28929,-7.29825 -2.17456,-16.696 -3.23386,-24.1719c-1.47695,-10.42356 8.76322,-21.11275 8.88626,-21.11275c0.13353,0 2.14268,-0.1445 2.26369,1.36271c0.19094,2.37842 -1.5586,6.81991 -1.76933,6.81991z" fill="#304d47" stroke="none" stroke-width="0" stroke-linecap="butt"/><path d="M274.42794,99.65389c11.42496,-22.68233 31.40973,-33.07142 60.56473,-32.85267c24.16321,0.18129 39.14424,9.27509 47.64651,17.23625c0.95139,0.89084 -11.16905,5.58091 -18.25999,7.52146c-15.29703,4.18628 -30.35723,6.25195 -30.35723,6.25195l6.65013,-11.17032c0,0 -23.70536,7.34319 -34.98048,9.59002c-11.17264,2.22641 -31.26367,3.4233 -31.26367,3.4233z" fill="#000000" stroke="none" stroke-width="0" stroke-linecap="butt"/><path d="M354.89533,133.78419c-0.9759,0.78418 -2.78157,1.8476 -3.93619,1.8476c-1.7965,0 -7.92597,1.53286 -15.27169,1.84235c-11.92002,0.50221 -27.44753,-1.7172 -35.87937,-8.53299c-5.07133,-4.09936 -7.50678,-7.42587 -10.57194,-13.09754c-8.68869,-16.0771 -1.31505,-30.74505 -1.31505,-33.90912c0,-5.90771 18.24327,-17.80481 32.77412,-19.40138c3.95558,-0.37082 13.48678,-1.12211 15.64211,-1.12211c5.21809,0 13.52017,3.20117 19.12654,7.51666c6.6796,5.14162 9.25736,12.30984 9.25736,16.26773c0,6.54479 -1.13688,41.60678 -9.82587,48.58883z" data-paper-data="{&quot;index&quot;:null}" fill="#8ea6b2" stroke="none" stroke-width="0" stroke-linecap="butt"/><path d="M302.04476,85.33464c0,-3.95789 2.57778,-11.12613 9.2574,-16.26773c5.60638,-4.31549 12.40844,-7.01667 17.62653,-7.01667c2.15531,0 16.18653,0.75129 20.14211,1.12212c17.03085,1.59657 31.77413,15.49366 31.77413,21.40138c0,3.16407 4.87364,12.33201 -3.81505,28.40912c-3.0652,5.67168 -6.50064,11.99817 -11.57195,16.09754c-8.43183,6.81581 -22.45933,9.03521 -34.37937,8.53301c-7.34572,-0.30949 -13.47521,-1.84235 -15.27168,-1.84235c-1.15466,0 -2.96031,-1.06339 -3.93619,-1.84759c-8.68903,-6.98203 -9.82587,-42.04403 -9.82587,-48.58882z" fill="#bdd2e4" stroke="none" stroke-width="0" stroke-linecap="butt"/><path d="M342.76446,70.74278c0.40226,-0.63764 0.5404,-1.51613 1.10194,-2.00855c0.08564,-0.0751 0.18113,-0.1412 0.2889,-0.19611c0.12411,-0.06323 0.26288,-0.11485 0.41505,-0.15558c0.30362,-0.10304 0.63243,-0.15937 0.97578,-0.15937c0.20134,0 0.39768,0.01936 0.58688,0.05619c4.31444,0.28131 12.51266,4.02182 14.59994,5.30222c0.2272,0.13939 4.99845,3.52632 4.6909,4.82071c-0.3376,1.42083 -1.3956,2.83373 -3.14933,2.51962c-3.23663,-0.57969 -5.6603,-4.08503 -8.8503,-5.37597c-1.29125,-0.52254 -8.78797,-1.83604 -9.28991,-2.63169z" fill="#ffffff" stroke="none" stroke-width="0.5" stroke-linecap="butt"/><path d="M101.25682,302.77401l15.14285,-131.8421l37.78325,-0.15789l13.57389,132z" fill="#304d47" stroke="#000000" stroke-width="0" stroke-linecap="butt"/><path d="M101.25682,253.17744c0,0 0.34443,-17.99943 4.06363,-26.78297c1.01515,-2.39746 10.26861,-6.89016 11.02151,-6.68728c4.9898,1.34463 0.28909,-16.60482 18.5074,-16.99338c16.1092,-0.34357 13.00127,15.70608 18.65752,16.78768c4.55566,0.87113 8.71042,6.58677 11.51396,8.64466c3.29413,2.41799 2.693,24.92027 2.693,24.92027c0,0 -4.33998,3.15605 -8.8193,3.44077c-0.54241,0.03448 -4.87847,7.16526 -10.57625,13.7893c-5.92924,6.89311 -13.22503,13.28807 -13.60484,13.21239c-1.53617,-0.3061 -10.48874,-8.77681 -16.55986,-15.89141c-4.18868,-4.90863 -6.32307,-9.33157 -6.48264,-9.33157c-4.2193,0 -10.4141,-5.10848 -10.4141,-5.10848z" fill="#1b312f" stroke="none" stroke-width="0" stroke-linecap="butt"/><path d="M101.87035,244.09538v-1.57883c0,0 -0.12935,-15.09871 3.58986,-23.88225c1.01515,-2.39746 10.26861,-6.89017 11.02152,-6.68728c1.70509,0.45949 0.1792,-1.334 0.92237,-3.90986c1.43164,-4.96214 5.59221,-12.82772 17.58502,-13.08352c11.18504,-0.23855 15.46757,7.42589 17.48998,12.49587c0.89036,2.23203 -0.56142,3.96121 1.16755,4.29182c4.55566,0.87113 8.71042,6.58677 11.51396,8.64466c3.29413,2.41799 2.18011,22.13056 2.18011,22.13056v1.57883c0,0 -6.66969,4.87535 -11.149,5.16007c-1.10685,0.07036 -20.47526,24.91305 -21.22007,24.76465c-2.59603,-0.51728 -20.75659,-24.71456 -21.14743,-24.71456c-4.2193,0 -11.95387,-5.21015 -11.95387,-5.21015z" fill="#000000" stroke="none" stroke-width="0" stroke-linecap="butt"/><path d="M156.28028,197.49264c1.23982,3.51341 0.6706,12.33886 -0.87706,15.29438c-0.14351,0.27407 -0.43354,6.62469 -3.64909,11.8903c-2.41547,3.95546 -15.08706,48.594 -16.75768,48.5704c-1.80067,-0.02544 -12.82914,-38.02881 -14.22108,-39.70104c-0.82609,-0.99244 -2.66343,-10.68291 -3.84711,-12.57791c-1.30116,-2.0831 -2.65787,-8.03451 -2.84626,-8.42007c-2.35091,-4.81151 -0.79153,-8.2783 -0.92165,-8.87323c-0.29827,-1.36383 1.19718,-8.3842 2.10674,-10.34245c0.83474,-1.79721 2.01183,-3.25576 2.01183,-3.29447c0,-0.01349 -6.27707,10.87142 -1.9685,18.88024c4.44217,8.25716 19.47642,13.64601 19.63875,13.64601c0.23406,0 13.00337,-4.42935 15.31834,-8.65576c5.25693,-9.59742 2.41434,-23.90351 2.41434,-23.8705c0,0.06076 2.18744,3.45564 3.59844,7.45408z" data-paper-data="{&quot;index&quot;:null}" fill="#304d47" stroke="none" stroke-width="0" stroke-linecap="butt"/><g stroke="none" stroke-width="0" stroke-linecap="butt"><path d="M134.51849,259.48857c0,0 -1.46957,-1.08646 -2.38438,-2.948c-0.86884,-1.76799 -1.34587,-4.27218 -1.96434,-5.84169c-1.39137,-3.53099 -3.66945,-11.93266 -3.66945,-11.93266c0,0 0.88781,0.12415 1.50179,0.75328c1.39744,1.43191 6.69094,7.64155 6.69094,7.64155z" fill="#d76f00"/><path d="M134.45783,247.11037c0,0 5.29351,-6.20964 6.69094,-7.64155c0.61398,-0.62913 1.5018,-0.75329 1.5018,-0.75329c0,0 -2.27809,8.40168 -3.66945,11.93267c-0.61846,1.56952 -1.09551,4.0737 -1.96434,5.84169c-0.91482,1.86154 -2.52065,3.06354 -2.52065,3.06354z" data-paper-data="{&quot;index&quot;:null}" fill="#ff9d00"/></g><path d="M70.34672,132.12017c0,-33.30185 28.7599,-60.29833 64.23702,-60.29833c35.47712,0 64.23702,26.99649 64.23702,60.29833c0,33.30185 -28.7599,60.29833 -64.23702,60.29833c-35.47712,0 -64.23702,-26.99649 -64.23702,-60.29833z" fill="#ffffff" stroke="#000000" stroke-width="2" stroke-linecap="butt"/><path d="M71.06978,132.17401c0,-0.72799 5.20666,55.91939 63.36046,56.93429c55.56352,0.9697 63.51358,-57.95314 63.51358,-56.93429c0,32.80479 -28.40173,59.39833 -63.43702,59.39833c-35.03529,0 -63.43702,-26.59354 -63.43702,-59.39833z" fill="#e6e6e6" stroke="#000000" stroke-width="0" stroke-linecap="butt"/><path d="M83.89694,132.54964c0,-12.968 10.51265,-23.48065 23.48065,-23.48065c12.968,0 23.48065,10.51265 23.48065,23.48065c0,12.968 -10.51265,23.48065 -23.48065,23.48065c-12.968,0 -23.48065,-10.51265 -23.48065,-23.48065z" fill="#ffffff" stroke="#000000" stroke-width="2" stroke-linecap="butt"/><path d="M90.96232,132.27401c0,-9.12808 7.39976,-16.52784 16.52783,-16.52784c9.12808,0 16.52784,7.39977 16.52784,16.52784c0,9.12808 -7.39977,16.52784 -16.52784,16.52784c-9.12808,0 -16.52783,-7.39977 -16.52783,-16.52784z" fill="#000000" stroke="none" stroke-width="0" stroke-linecap="butt"/><path d="M147.1234,171.93044h-25.10959" fill="none" stroke="#000000" stroke-width="2" stroke-linecap="round"/><path d="M161.63603,156.03028c-12.968,0 -23.48065,-10.51265 -23.48065,-23.48065c0,-12.968 10.51265,-23.48065 23.48065,-23.48065c12.968,0 23.48065,10.51265 23.48065,23.48065c0,12.968 -10.51265,23.48065 -23.48065,23.48065z" data-paper-data="{&quot;index&quot;:null}" fill="#ffffff" stroke="#000000" stroke-width="2" stroke-linecap="butt"/><path d="M161.52346,148.80185c-9.12807,0 -16.52783,-7.39977 -16.52783,-16.52784c0,-9.12808 7.39977,-16.52784 16.52783,-16.52784c9.12807,0 16.52783,7.39977 16.52783,16.52784c0,9.12808 -7.39977,16.52784 -16.52783,16.52784z" data-paper-data="{&quot;index&quot;:null}" fill="#000000" stroke="none" stroke-width="0" stroke-linecap="butt"/><path d="M83.89695,132.54964c0,-12.968 10.51265,-23.48065 23.48065,-23.48065c12.968,0 23.48065,10.51265 23.48065,23.48065c0,0 -46.96131,1.23155 -46.96131,0z" fill="#ffffff" stroke="#000000" stroke-width="2" stroke-linecap="butt"/><path d="M138.15538,132.54963c0,-12.968 10.51265,-23.48065 23.48065,-23.48065c12.968,0 23.48065,10.51265 23.48065,23.48065c0,1.2138 -46.96131,0 -46.96131,0z" data-paper-data="{&quot;index&quot;:null}" fill="#ffffff" stroke="#000000" stroke-width="2" stroke-linecap="butt"/><path d="M96.53462,103.74117c0,0 6.70895,-5.16922 11.79721,-6.36355c5.08827,-1.19433 12.33413,0.69937 12.33413,0.69937c0,0 -8.03812,-0.06028 -11.96762,0.86207c-4.10648,0.96389 -12.16372,4.80211 -12.16372,4.80211z" fill="#000000" stroke="none" stroke-width="0" stroke-linecap="butt"/><path d="M160.46913,98.93907c-3.9295,-0.92235 -11.96762,-0.86207 -11.96762,-0.86207c0,0 7.24586,-1.8937 12.33413,-0.69937c5.08826,1.19433 11.79721,6.36355 11.79721,6.36355c0,0 -8.05724,-3.83822 -12.16372,-4.80211z" data-paper-data="{&quot;index&quot;:null}" fill="#000000" stroke="none" stroke-width="0" stroke-linecap="butt"/><path d="M75.42583,102.41124c11.42496,-22.68233 31.40973,-33.07142 60.56473,-32.85267c24.16321,0.18129 39.14424,9.27509 47.64651,17.23625c0.95139,0.89084 -11.16905,5.58091 -18.25999,7.52146c-15.29703,4.18628 -30.35723,6.25195 -30.35723,6.25195l6.65013,-11.17032c0,0 -23.70536,7.34319 -34.98048,9.59002c-11.17264,2.22641 -31.26367,3.4233 -31.26367,3.4233z" fill="#000000" stroke="none" stroke-width="0" stroke-linecap="butt"/><g stroke="none" stroke-width="0" stroke-linecap="butt"><g><path d="M185.89504,150.97963c2.96335,6.86532 1.60286,24.11051 -2.09632,29.8857c-0.34302,0.53554 -3.48057,12.37296 -11.16622,22.66214c-5.77333,7.7291 -17.11004,14.48238 -18.19621,15.48068c-3.26819,3.00378 -16.64189,9.70587 -20.63492,9.65978c-4.30383,-0.04969 -18.03434,-7.68716 -21.36127,-10.95474c-1.97447,-1.93924 -17.77303,-17.15764 -20.60219,-20.8605c-3.10997,-4.07045 -6.35273,-15.6997 -6.80301,-16.45308c-5.61904,-9.40183 -1.89187,-16.17607 -2.20286,-17.33858c-0.71292,-2.66496 2.86145,-16.38299 5.0354,-20.20944c1.99516,-3.51182 4.80856,-6.36185 4.80856,-6.4375c0,-0.02637 -15.00311,21.24307 -4.70502,36.89255c10.61744,16.13475 46.55149,26.66473 46.93946,26.66473c0.55942,0 31.07995,-8.65511 36.61311,-16.91362c12.56481,-18.75364 5.77063,-46.70822 5.77063,-46.64369c0,0.11872 5.22831,6.75242 8.60078,14.56552z" data-paper-data="{&quot;index&quot;:null}" fill="#5f7e7b"/><path d="M93.61139,170.87231l40.98601,20.54508l39.89486,-20.3771l10.21241,0.17797v0.90175c0,0 -15.23495,19.41609 -24.7237,26.72048c-6.59514,5.07692 -25.72265,13.39183 -25.72265,13.39183c0,0 -21.45283,-9.52165 -28.7097,-15.33065c-8.90532,-7.1286 -21.82937,-24.78166 -21.82937,-24.78166v-0.90175z" data-paper-data="{&quot;index&quot;:null}" fill="#bdd2e4"/><path d="M93.61141,170.87231l40.98601,20.5451l39.89484,-20.37712l10.21241,0.17797v0.90175l-51.13511,25.60964l-49.85029,-25.60964v-0.90175z" data-paper-data="{&quot;index&quot;:null}" fill="#304d47"/></g><g><path d="M186.00162,142.27114c0,0.13166 -50.12859,-28.0904 -52.72004,-28.0904c-1.08241,0 -55.69009,28.41703 -55.69009,28.34114c0,-0.10714 -12.24191,-2.78952 -15.06759,-7.7632c-3.07885,-5.41927 -5.273,-26.30199 -4.26332,-30.07627c0.44045,-1.64641 0.42165,-15.13177 8.37966,-28.44728c7.59825,-12.71349 14.0593,-18.55052 17.97707,-21.1614c0.46423,-0.30938 13.89698,-9.16485 23.54927,-13.44335c8.49288,-3.76454 25.9465,-6.41012 26.95512,-6.02011c1.11823,0.43239 10.65988,0.92843 17.93121,3.78757c8.8344,3.47372 16.33839,5.65996 20.31597,8.75722c22.78827,17.74481 28.83974,27.97891 30.21742,30.12982c2.85407,4.45586 8.44127,21.16512 7.45363,37.33307c-0.82527,13.50996 -12.15127,30.784 -14.06177,35.21014c-4.7763,11.06538 -10.97649,-8.72505 -10.97649,-8.55693z" fill="#000000"/><path d="M186.80275,161.35203c0,0.13166 -50.12861,-28.09041 -52.72004,-28.09041c-1.08243,0 -55.6901,28.41703 -55.6901,28.34114c0,-0.10714 -6.48515,-5.14643 -9.3108,-10.1201c-3.07887,-5.41929 -6.71219,-21.58816 -5.70251,-25.36246c0.44045,-1.64641 -1.49731,-17.48868 6.46073,-30.80419c7.59825,-12.71349 15.01877,-18.88724 18.93654,-21.49812c0.46423,-0.30938 11.86734,-7.53318 21.51962,-11.81166c8.49288,-3.76454 24.618,-7.70508 25.62662,-7.31509c1.11823,0.43239 10.65988,0.92843 17.93121,3.78757c8.8344,3.47372 14.41944,7.34348 18.39704,10.44074c22.78827,17.74481 26.44108,30.33582 27.81879,32.48673c5.23898,8.1792 3.82521,32.85363 -0.37165,42.57672c-4.7763,11.06538 -12.89546,17.201 -12.89546,17.36913z" fill="#304d47"/><path d="M185.42135,170.79697c0,0.11352 -50.32365,-25.30981 -52.55881,-25.30981c-0.93361,0 -50.80682,25.37525 -50.80682,25.30981c0,-0.0924 -3.43671,-3.57389 -5.87392,-7.86376c-2.6556,-4.67425 -7.02189,-21.43153 -6.151,-24.68693c0.37987,-1.42003 -0.6752,-13.78677 6.18876,-25.27164c6.55364,-10.96563 20.96508,-21.04823 24.34425,-23.30017c0.40041,-0.26682 6.53836,-4.98373 14.86367,-8.67399c7.32525,-3.247 17.63425,-5.56449 18.50422,-5.22811c0.93563,0.36178 9.40386,1.7417 15.53858,3.8695c7.87238,2.73051 14.33865,6.53048 17.85386,9.2677c19.65531,15.30522 24.03841,25.73269 25.22673,27.5879c4.51871,7.0547 6.99676,28.12063 3.37687,36.50697c-4.11967,9.54412 -10.50631,17.64753 -10.50631,17.79254z" fill="#5f7e7b"/><path d="M186.13126,171.59352c0,0.11352 -50.32365,-25.30981 -52.55881,-25.30981c-0.93361,0 -50.8068,25.37525 -50.8068,25.30981c0,-0.09239 -3.43673,-3.57388 -5.87394,-7.86375c-2.6556,-4.67426 -2.77117,-12.18302 -1.90031,-15.43843c2.68288,-10.02884 11.58482,-25.97964 30.42672,-36.5675c1.66721,-0.93685 6.62835,-4.29381 12.86051,-6.87133c6.18905,-2.55967 13.64732,-4.34327 15.86179,-4.3377c1.33343,0.04072 10.26154,1.69237 17.65326,5.00166c6.63117,2.96879 12.5656,7.0497 13.62702,7.81342c5.43124,3.90817 9.60282,8.37849 13.9736,13.04883c3.24125,3.46339 6.17231,7.45189 8.76563,11.50063c9.66128,15.08335 -2.0286,33.44169 -2.0286,33.71413z" fill="#8ea6b2"/><path d="M83.27821,172.09142v-0.90645l50.11007,-25.74307l51.40153,25.74307v0.90645l-10.26558,0.17891l-40.10274,-20.48329l-41.19955,20.65215z" fill="#0a1d1e"/><path d="M186.02959,171.7384c0,0.11352 -50.32364,-25.30981 -52.55881,-25.30981c-0.93363,0 -50.80682,25.37525 -50.80682,25.30981c0,-0.6225 1.24424,-47.18645 51.6828,-46.21345c48.97251,0.94475 51.6828,45.59093 51.6828,46.21345z" fill="#d3ebfe"/></g></g></g></g></svg>