<svg version="1.1" xmlns="http://www.w3.org/2000/svg" xmlns:xlink="http://www.w3.org/1999/xlink" width="34.17311" height="34.17311" viewBox="0,0,34.17311,34.17311"><g transform="translate(-222.91346,-162.91346)"><g data-paper-data="{&quot;isPaintingLayer&quot;:true}" stroke-miterlimit="10" stroke-dasharray="" stroke-dashoffset="0" style="mix-blend-mode: normal"><path d="M229.98313,162.91347h20.03379c3.9166,0 7.06966,3.15307 7.06966,7.06966v20.03379c0,3.91659 -3.15306,7.06966 -7.06966,7.06966h-20.03379c-3.91659,0 -7.06966,-3.15307 -7.06966,-7.06966v-20.03379c0,-3.91659 3.15307,-7.06966 7.06966,-7.06966z" fill-opacity="0.13218" fill="#1a1a1a" fill-rule="evenodd" stroke="none" stroke-width="4.43922" stroke-linecap="round" stroke-linejoin="round"/><path d="M227.84149,180.00001c0,-6.71498 5.44358,-12.15855 12.15855,-12.15855c6.71498,0 12.15855,5.44358 12.15855,12.15855c0,6.71498 -5.44357,12.15855 -12.15855,12.15855c-6.71498,0 -12.15855,-5.44357 -12.15855,-12.15855z" fill="#bfbfbf" fill-rule="nonzero" stroke="#ffffff" stroke-width="2" stroke-linecap="butt" stroke-linejoin="miter"/><path d="M236.51516,180.00001c0,-1.92466 1.56025,-3.48489 3.48489,-3.48489c1.92466,0 3.48488,1.56024 3.48488,3.48489c0,1.92466 -1.56024,3.48488 -3.48488,3.48488c-1.92466,0 -3.48489,-1.56024 -3.48489,-3.48488z" fill="#bfbfbf" fill-rule="nonzero" stroke="#ffffff" stroke-width="2" stroke-linecap="butt" stroke-linejoin="miter"/><path d="M244.23366,171.83682c0,0 1.18768,0.26301 2.44295,1.55549c1.1195,1.15269 1.37178,2.55063 1.37178,2.55063" fill="none" fill-rule="nonzero" stroke="#ffffff" stroke-width="1.5" stroke-linecap="round" stroke-linejoin="miter"/></g></g></svg>