<svg version="1.1" xmlns="http://www.w3.org/2000/svg" xmlns:xlink="http://www.w3.org/1999/xlink" width="34.17311" height="34.17311" viewBox="0,0,34.17311,34.17311"><g transform="translate(-222.91346,-162.91346)"><g data-paper-data="{&quot;isPaintingLayer&quot;:true}" stroke="none" stroke-miterlimit="10" stroke-dasharray="" stroke-dashoffset="0" style="mix-blend-mode: normal"><path d="M229.98313,162.91347h20.03379c3.9166,0 7.06966,3.15307 7.06966,7.06966v20.03379c0,3.91659 -3.15306,7.06966 -7.06966,7.06966h-20.03379c-3.91659,0 -7.06966,-3.15307 -7.06966,-7.06966v-20.03379c0,-3.91659 3.15307,-7.06966 7.06966,-7.06966z" fill-opacity="0.59677" fill="#5e807a" fill-rule="evenodd" stroke-width="4.43922" stroke-linecap="round" stroke-linejoin="round"/><path d="M251.23513,182.8937c-2.56559,4.61062 -4.81457,7.85369 -7.49119,9.16367c-1.71453,0.83912 -2.26413,-0.64132 -3.30302,-0.35923c-1.91165,0.59497 -4.98272,3.04661 -4.98272,3.04661l-5.8978,-2.86317c0,0 0.36839,-3.37572 -0.30947,-5.48164c-0.67786,-2.1059 -1.61336,-0.26308 -1.94422,-1.98444c-0.5298,-2.75638 0.47988,-6.78664 2.86276,-11.38934c3.77681,-7.29517 12.3761,-8.79302 16.68078,-6.64636c4.6477,2.31772 8.38588,9.3237 4.38486,16.51391z" fill="#5e807a" fill-rule="nonzero" stroke-width="NaN" stroke-linecap="butt" stroke-linejoin="miter"/><path d="M230.57936,172.11956c0,0 0.64756,-0.91865 0.97659,-1.3431c0.27595,-0.35596 0.86651,-1.03449 0.86651,-1.03449c0,0 3.91127,-0.62505 11.14613,2.71752c6.67674,3.08472 9.23591,6.951 9.23591,6.951l-0.88681,2.217c0,0 -4.74178,-4.52064 -9.76691,-6.92313c-6.97592,-3.33516 -11.57143,-2.58482 -11.57143,-2.58482z" fill="#000000" fill-rule="nonzero" stroke-width="0" stroke-linecap="butt" stroke-linejoin="miter"/><path d="M235.01337,178.77057l-0.62076,-7.18308l4.78872,-3.81325l1.15284,5.49816z" fill="#000000" fill-rule="nonzero" stroke-width="0" stroke-linecap="butt" stroke-linejoin="miter"/><path d="M245.28187,175.36019l5.29439,-1.87839l-0.75797,5.8102l-6.46027,3.47356z" data-paper-data="{&quot;index&quot;:null}" fill="#000000" fill-rule="nonzero" stroke-width="0" stroke-linecap="butt" stroke-linejoin="miter"/><path d="M229.16022,191.92269l4.59618,-9.13452l6.79653,3.44714l-4.88345,8.70362z" fill="#000000" fill-rule="nonzero" stroke-width="0" stroke-linecap="butt" stroke-linejoin="miter"/></g></g></svg>