<svg version="1.1" xmlns="http://www.w3.org/2000/svg" xmlns:xlink="http://www.w3.org/1999/xlink" width="14.98106" height="23.94583" viewBox="0,0,14.98106,23.94583"><g transform="translate(-239.89762,-170.61132)"><g data-paper-data="{&quot;isPaintingLayer&quot;:true}" fill-rule="nonzero" stroke="none" stroke-linecap="butt" stroke-linejoin="miter" stroke-miterlimit="10" stroke-dasharray="" stroke-dashoffset="0" style="mix-blend-mode: normal"><path d="M252.28445,172.24414c1.26412,1.1061 1.89616,2.55457 1.92251,4.31906h-3.55532c-0.02633,-1.81717 -1.36945,-2.97594 -3.37097,-2.97594c-1.81716,0 -3.08128,0.92175 -3.08128,2.37022c0,4.00303 10.50795,0.92175 10.50795,7.82171c0,1.71182 -0.68472,3.08128 -2.05418,4.08203c-1.36945,1.02709 -3.16029,1.52747 -5.37249,1.52747c-2.18587,0 -3.92403,-0.55305 -5.26714,-1.68549c-1.34312,-1.1061 -2.02784,-2.5809 -2.05418,-4.4244h3.66066c0.02633,1.86983 1.50114,3.13395 3.84502,3.13395c2.08052,0 3.50265,-1.00076 3.50265,-2.50189c0,-3.92402 -10.50795,-1.00076 -10.50795,-7.71637c0,-1.68548 0.63206,-3.0286 1.92251,-4.0557c1.29045,-1.02709 2.9496,-1.52747 5.00378,-1.52747c1.97518,0 3.608,0.55305 4.89845,1.63281z" fill="#000000" stroke-width="0.35808"/><path d="M239.89762,194.55715v-23.65909h14.98106v23.65909z" fill-opacity="0.00403" fill="#808080" stroke-width="0"/></g></g></svg>