<svg version="1.1" xmlns="http://www.w3.org/2000/svg" xmlns:xlink="http://www.w3.org/1999/xlink" width="34.17311" height="34.17311" viewBox="0,0,34.17311,34.17311"><defs><linearGradient x1="230.16359" y1="170.87602" x2="254.60567" y2="182.85018" gradientUnits="userSpaceOnUse" id="color-1"><stop offset="0" stop-color="#9966ff" stop-opacity="0"/><stop offset="1" stop-color="#9966ff" stop-opacity="0"/></linearGradient></defs><g transform="translate(-222.91346,-162.91346)"><g data-paper-data="{&quot;isPaintingLayer&quot;:true}" stroke-miterlimit="10" stroke-dasharray="" stroke-dashoffset="0" style="mix-blend-mode: normal"><path d="M229.98313,162.91347h20.03379c3.9166,0 7.06966,3.15307 7.06966,7.06966v20.03379c0,3.91659 -3.15306,7.06966 -7.06966,7.06966h-20.03379c-3.91659,0 -7.06966,-3.15307 -7.06966,-7.06966v-20.03379c0,-3.91659 3.15307,-7.06966 7.06966,-7.06966z" fill-opacity="0.59677" fill="#5e807a" fill-rule="evenodd" stroke="none" stroke-width="4.43922" stroke-linecap="round" stroke-linejoin="round"/><path d="M252.61341,183.1253c-1.76707,3.60702 -6.67886,3.57545 -13.42835,0.26888c-6.74949,-3.30657 -10.50532,-8.57612 -8.73825,-12.18314c1.76707,-3.60701 7.49454,-2.84556 14.24403,0.46101c6.74949,3.30658 9.68964,7.84624 7.92257,11.45326z" fill="url(#color-1)" fill-rule="nonzero" stroke="#000000" stroke-width="3.5" stroke-linecap="butt" stroke-linejoin="miter"/><path d="M224.49544,180.32276c0,0 2.11039,-5.45658 2.99025,-7.55269c0.69515,-1.65609 1.86655,-4.01789 1.86655,-4.01789c0,0 0.59768,3.36602 12.07335,9.17521c11.78789,5.96725 14.02985,3.76718 14.02985,3.76718c0,0 -0.89685,2.51252 -1.52759,4.01514c-0.8943,2.13051 -3.32921,7.55544 -3.32921,7.55544c0,0 -3.54443,1.7675 -14.20189,-3.73079c-11.02849,-5.68969 -11.9013,-9.2116 -11.9013,-9.2116z" fill="#5e807a" fill-rule="nonzero" stroke="none" stroke-width="0" stroke-linecap="butt" stroke-linejoin="miter"/><path d="M239.20251,185.69747l4.07835,-2.68127l0.68362,4.88807z" fill="#000000" fill-rule="nonzero" stroke="none" stroke-width="0" stroke-linecap="butt" stroke-linejoin="miter"/><path d="M244.63249,186.88688c0,-1.44577 1.17203,-2.6178 2.61778,-2.6178c1.44577,0 2.6178,1.17203 2.6178,2.6178c0,1.44577 -1.17203,2.6178 -2.6178,2.6178c-1.44577,0 -2.61778,-1.17203 -2.61778,-2.6178z" fill="#000000" fill-rule="nonzero" stroke="none" stroke-width="0" stroke-linecap="butt" stroke-linejoin="miter"/></g></g></svg>