<svg version="1.1" xmlns="http://www.w3.org/2000/svg" xmlns:xlink="http://www.w3.org/1999/xlink" width="34.17311" height="34.17311" viewBox="0,0,34.17311,34.17311"><g transform="translate(-222.91346,-162.91346)"><g data-paper-data="{&quot;isPaintingLayer&quot;:true}" stroke="none" stroke-miterlimit="10" stroke-dasharray="" stroke-dashoffset="0" style="mix-blend-mode: normal"><path d="M229.98313,162.91347h20.03379c3.9166,0 7.06966,3.15307 7.06966,7.06966v20.03379c0,3.91659 -3.15306,7.06966 -7.06966,7.06966h-20.03379c-3.91659,0 -7.06966,-3.15307 -7.06966,-7.06966v-20.03379c0,-3.91659 3.15307,-7.06966 7.06966,-7.06966z" fill-opacity="0.13218" fill="#1a1a1a" fill-rule="evenodd" stroke-width="4.43922" stroke-linecap="round" stroke-linejoin="round"/><path d="M252.84704,184.45811c-0.73126,1.48875 -1.73503,2.13072 -2.61531,3.63134c-1.02807,1.75256 -1.9946,4.30212 -3.79207,5.03388c-3.14088,1.27866 -8.0892,-0.02119 -11.08459,-1.49248c-3.02038,-1.48358 -7.04531,-4.80069 -7.90903,-8.08571c-0.53398,-2.0309 0.46298,-3.72596 1.33212,-5.79455c0.60029,-1.42874 1.05606,-2.97235 1.6986,-4.28048c3.0776,-6.26564 10.58024,-8.88517 16.75762,-5.85092c6.17738,3.03427 8.69025,10.57329 5.61264,16.83893z" fill="#bfbfbf" fill-rule="nonzero" stroke-width="0" stroke-linecap="butt" stroke-linejoin="miter"/><path d="M224.43192,174.60631c0,0 4.77576,-1.93306 6.26758,-2.66589c0.75272,-0.36975 1.59748,-1.54773 1.59748,-1.54773c0,0 5.35908,4.22491 8.65075,5.92831c3.66821,1.89824 13.2251,5.28606 13.2251,5.28606c0,0 -0.44314,1.15429 -0.40353,1.82563c0.08834,1.49735 0.91757,6.8886 0.91757,6.8886c0,0 -8.36186,-0.67918 -17.16044,-4.90234c-7.42597,-3.56434 -13.09454,-10.81262 -13.09454,-10.81262z" fill="#ffffff" fill-rule="nonzero" stroke-width="0" stroke-linecap="butt" stroke-linejoin="miter"/><path d="M229.46617,184.24683l2.32964,-0.81032l-0.50644,2.7348z" fill="#ffffff" fill-rule="nonzero" stroke-width="0" stroke-linecap="butt" stroke-linejoin="miter"/><path d="M234.84469,186.95931c-0.28918,0.88715 -1.08098,1.42464 -1.76851,1.20053c-0.68754,-0.22412 -1.01047,-1.12498 -0.72129,-2.01213c0.28918,-0.88715 1.08098,-1.42464 1.76852,-1.20053c0.68755,0.22412 1.01047,1.12498 0.72129,2.01212z" fill="#ffffff" fill-rule="nonzero" stroke-width="0" stroke-linecap="butt" stroke-linejoin="miter"/></g></g></svg>