<svg version="1.1" xmlns="http://www.w3.org/2000/svg" xmlns:xlink="http://www.w3.org/1999/xlink" width="35.14904" height="35.14874" viewBox="0,0,35.14904,35.14874"><defs><linearGradient x1="229.6636" y1="170.37603" x2="254.10568" y2="182.35019" gradientUnits="userSpaceOnUse" id="color-1"><stop offset="0" stop-color="#9966ff" stop-opacity="0"/><stop offset="1" stop-color="#9966ff" stop-opacity="0"/></linearGradient></defs><g transform="translate(-222.41348,-162.41347)"><g data-paper-data="{&quot;isPaintingLayer&quot;:true}" stroke-miterlimit="10" stroke-dasharray="" stroke-dashoffset="0" style="mix-blend-mode: normal"><path d="M229.48314,162.41348h20.03379c3.9166,0 7.06966,3.15307 7.06966,7.06966v20.03379c0,3.91659 -3.15306,7.06966 -7.06966,7.06966h-20.03379c-3.91659,0 -7.06966,-3.15307 -7.06966,-7.06966v-20.03379c0,-3.91659 3.15307,-7.06966 7.06966,-7.06966z" fill-opacity="0.59677" fill="#5e807a" fill-rule="evenodd" stroke="none" stroke-width="4.43922" stroke-linecap="round" stroke-linejoin="round"/><path d="M252.11342,182.62531c-1.76707,3.60702 -6.67886,3.57545 -13.42835,0.26888c-6.74949,-3.30657 -10.50532,-8.57612 -8.73825,-12.18314c1.76707,-3.60701 7.49454,-2.84556 14.24403,0.46101c6.74949,3.30658 9.68964,7.84624 7.92257,11.45326z" fill="url(#color-1)" fill-rule="nonzero" stroke="#000000" stroke-width="3.5" stroke-linecap="butt" stroke-linejoin="miter"/><path d="M223.99545,179.82277c0,0 2.11039,-5.45658 2.99025,-7.55269c0.69515,-1.65609 1.86655,-4.01789 1.86655,-4.01789c0,0 0.59768,3.36602 12.07335,9.17521c11.78789,5.96725 14.02985,3.76718 14.02985,3.76718c0,0 -0.89685,2.51252 -1.52759,4.01514c-0.8943,2.13051 -3.32921,7.55544 -3.32921,7.55544c0,0 -3.54443,1.7675 -14.20189,-3.73079c-11.02849,-5.68969 -11.9013,-9.2116 -11.9013,-9.2116z" fill="#5e807a" fill-rule="nonzero" stroke="none" stroke-width="0" stroke-linecap="butt" stroke-linejoin="miter"/><path d="M238.70252,185.19748l4.07835,-2.68127l0.68362,4.88807z" fill="#000000" fill-rule="nonzero" stroke="none" stroke-width="0" stroke-linecap="butt" stroke-linejoin="miter"/><path d="M244.1325,186.38689c0,-1.44577 1.17203,-2.6178 2.61778,-2.6178c1.44577,0 2.6178,1.17203 2.6178,2.6178c0,1.44577 -1.17203,2.6178 -2.6178,2.6178c-1.44577,0 -2.61778,-1.17203 -2.61778,-2.6178z" fill="#000000" fill-rule="nonzero" stroke="none" stroke-width="0" stroke-linecap="butt" stroke-linejoin="miter"/><path d="M257.56251,169.83175v20.49804c0,4.00745 -3.22497,7.23243 -7.23242,7.23243h-20.5c-3.66107,0 -6.66147,-2.69385 -7.1543,-6.21484c0.7952,3.03475 3.54108,5.26367 6.83204,5.26367h20.0332c3.9166,0 7.07032,-3.15372 7.07032,-7.07031v-20.03321c0,-3.2976 -2.23906,-6.0451 -5.28321,-6.83398c3.52994,0.48496 6.23438,3.49081 6.23438,7.15821z" fill-opacity="0.50151" fill="#000000" fill-rule="evenodd" stroke="none" stroke-width="4.54219" stroke-linecap="round" stroke-linejoin="round"/></g></g></svg>