<svg version="1.1" xmlns="http://www.w3.org/2000/svg" xmlns:xlink="http://www.w3.org/1999/xlink" width="155.99539" height="239.04679" viewBox="0,0,155.99539,239.04679"><defs><linearGradient x1="240.28739" y1="188.00616" x2="240.28739" y2="226.10861" gradientUnits="userSpaceOnUse" id="color-1"><stop offset="0" stop-color="#ffa200"/><stop offset="1" stop-color="#de4000"/></linearGradient><linearGradient x1="240.28739" y1="188.00616" x2="240.28739" y2="226.10861" gradientUnits="userSpaceOnUse" id="color-2"><stop offset="0" stop-color="#973f00"/><stop offset="1" stop-color="#b53d00"/></linearGradient></defs><g transform="translate(-151.25231,-69.4766)"><g data-paper-data="{&quot;isPaintingLayer&quot;:true}" fill-rule="nonzero" stroke-linejoin="miter" stroke-miterlimit="10" stroke-dasharray="" stroke-dashoffset="0" style="mix-blend-mode: normal"><g><g stroke-linecap="butt"><path d="M206.12704,307.52339l15.14285,-131.8421l37.78325,-0.15789l13.57389,132z" fill="#000000" stroke="#000000" stroke-width="2"/><path d="M212.33584,246.47004l55.19958,0.85l2.5,25.29616c0,0 -1.66293,11.71804 -11.0347,12.983c-11.43419,1.54332 -26.69856,0.66496 -36.78363,0.66496c-9.49495,0 -13.13126,-13.64795 -13.13126,-13.64795z" fill="#0a1a19" stroke="none" stroke-width="0"/><path d="M213.68319,233.44735l52.29961,1.8l2.6,25.79617c0,0 -0.06295,10.11804 -9.43471,11.38299c-11.43419,1.54332 -27.29854,-0.13506 -37.38361,-0.13506c-9.49495,0 -10.58127,-11.24795 -10.58127,-11.24795z" fill="#22333c" stroke="none" stroke-width="0"/><path d="M215.82709,216.885l47.80111,0.8l2.95,27.82971c0,0 4.02657,13.60127 -6.53144,15.02635c-13.28147,0.93869 -27.07796,-0.25088 -38.43958,-0.25088c-11.03855,0 -8.78008,-15.97547 -8.78008,-15.97547z" fill="#2c474d" stroke="none" stroke-width="0"/><path d="M213.70348,234.09048c0,-2.65464 2.85853,-22.74471 2.85853,-22.74471l46.81546,1.41891c0,0 2.27242,19.36616 2.22294,20.30106c-0.07279,1.37517 0.53515,7.77079 -4.21066,9.92098c-4.74581,2.15019 -22.07899,2.4432 -22.07899,2.4432c0,0 -13.97444,0.07565 -19.47506,-1.30319c-3.47766,-0.87176 -6.13221,-7.11008 -6.13221,-10.03625z" fill="#0a1a19" stroke="none" stroke-width="0"/><path d="M224.33085,248.62336c0,0 -5.66835,-2.19556 -7.42283,-4.4065c-1.66173,-2.09407 -2.84092,-8.52761 -2.84092,-8.52761c0,0 2.79475,6.45527 6.2351,7.25302c1.23847,0.28718 10.4074,2.27239 19.52268,2.38667c9.10711,0.11417 18.16104,-1.64241 18.39514,-1.82343c4.221,-3.26375 7.88855,-7.59981 7.72526,-7.41206c-0.22572,0.25953 -0.33948,4.91952 -2.871,7.59726c-3.20849,3.39381 -8.95839,4.93266 -8.95839,4.93266z" fill="#d4ecfe" stroke="none" stroke-width="0"/><path d="M219.07726,204.13602l3.12142,-26.32765l35.83075,-0.14203l2.76735,26.1059c0,0 -7.51543,4.19603 -21.55904,4.50964c-12.48458,0.27879 -20.16049,-4.14586 -20.16049,-4.14586z" fill="#e6e6e6" stroke="#000000" stroke-width="0"/></g><g><path d="M170.77366,139.86958c0,-1.65654 0.89441,-10.80076 1.55071,-13.64101c6.65986,-28.82218 23.99043,-56.21969 66.68631,-56.74538c45.68643,-0.56252 68.23702,35.01087 68.23702,70.3864c0,0.66795 -1.64334,22.16552 -5.17649,31.1607c-3.49395,8.89536 -10.36285,18.18124 -10.36285,18.18124l-15.07313,12.16799c0,0 -24.53392,4.04313 -36.12454,4.04313c-12.60656,0 -24.772,-3.56633 -35.27102,-9.52744c-2.72845,-1.54916 -0.82623,4.38789 -0.82623,4.38789c0,0 -7.93843,-5.19677 -13.15685,-11.00681c-6.08759,-6.77777 -12.53663,-19.37056 -14.93914,-23.48944c-4.14082,-10.58431 -5.54377,-24.34792 -5.54377,-25.91728z" fill="#000000" stroke="#000000" stroke-width="0" stroke-linecap="butt"/><path d="M175.21694,136.86954c0,-33.30185 28.7599,-60.29833 64.23702,-60.29833c35.47712,0 64.23702,26.99649 64.23702,60.29833c0,33.30185 -28.7599,60.29833 -64.23702,60.29833c-35.47712,0 -64.23702,-26.99649 -64.23702,-60.29833z" fill="#ffffff" stroke="#000000" stroke-width="2" stroke-linecap="butt"/><path d="M175.94,136.92339c0,-0.72799 5.20666,55.91939 63.36046,56.93429c55.56352,0.9697 63.51358,-57.95314 63.51358,-56.93429c0,32.80479 -28.40173,59.39833 -63.43702,59.39833c-35.03529,0 -63.43702,-26.59354 -63.43702,-59.39833z" fill="#e6e6e6" stroke="#000000" stroke-width="0" stroke-linecap="butt"/><path d="M188.76717,137.29902c0,-12.968 10.51265,-23.48065 23.48065,-23.48065c12.968,0 23.48065,10.51265 23.48065,23.48065c0,12.968 -10.51265,23.48065 -23.48065,23.48065c-12.968,0 -23.48065,-10.51265 -23.48065,-23.48065z" fill="#000000" stroke="#000000" stroke-width="2" stroke-linecap="butt"/><path d="M205.54827,137.29902c0,-3.70006 2.99949,-6.69956 6.69955,-6.69956c3.70007,0 6.69956,2.9995 6.69956,6.69956c0,3.70006 -2.9995,6.69956 -6.69956,6.69956c-3.70006,0 -6.69955,-2.99949 -6.69955,-6.69956z" fill="#ff9500" stroke="#bd5300" stroke-width="4.5" stroke-linecap="butt"/><path d="M266.50624,160.77966c-12.968,0 -23.48065,-10.51265 -23.48065,-23.48065c0,-12.968 10.51265,-23.48065 23.48065,-23.48065c12.968,0 23.48065,10.51265 23.48065,23.48065c0,12.968 -10.51265,23.48065 -23.48065,23.48065z" data-paper-data="{&quot;index&quot;:null}" fill="#ffffff" stroke="#000000" stroke-width="2" stroke-linecap="butt"/><path d="M266.39367,153.55122c-9.12807,0 -16.52783,-7.39977 -16.52783,-16.52784c0,-9.12808 7.39977,-16.52784 16.52783,-16.52784c9.12807,0 16.52783,7.39977 16.52783,16.52784c0,9.12808 -7.39977,16.52784 -16.52783,16.52784z" data-paper-data="{&quot;index&quot;:null}" fill="#000000" stroke="none" stroke-width="0" stroke-linecap="butt"/><path d="M243.0256,137.29902c0,-12.968 10.51265,-23.48065 23.48065,-23.48065c12.968,0 23.48065,10.51265 23.48065,23.48065c0,1.2138 -46.96131,0 -46.96131,0z" data-paper-data="{&quot;index&quot;:null}" fill="#ffffff" stroke="#000000" stroke-width="2" stroke-linecap="butt"/><path d="M180.29605,107.16062c11.42496,-22.68233 31.40973,-33.07142 60.56473,-32.85267c24.16321,0.18129 44.64424,10.27509 55.14651,32.73625c0.47012,0.4402 -28.03342,-7.65996 -56.48571,-7.36808c-29.12761,0.29882 -59.22553,7.48449 -59.22553,7.48449z" fill="#000000" stroke="none" stroke-width="0" stroke-linecap="butt"/><path d="M188.76779,204.67849c0,0 -31.98749,0.71707 -34.52547,-3.32998c-1.73892,-2.77287 -2.79085,-7.47361 -2.9835,-13.20592c-0.14803,-4.40435 2.23505,-10.26357 6.48953,-13.87157c5.35121,-4.53808 25.05049,-11.55417 25.05049,-11.55417l2.09123,9.06205c0,0 -21.59147,12.9801 -19.23291,17.82467c1.35497,2.78315 15.17088,0.93627 15.17088,0.93627z" fill="#15191b" stroke="none" stroke-width="0" stroke-linecap="butt"/><path d="M190.92645,209.30107c0,0 -6.36714,-9.70881 -8.9449,-14.63585c-2.31174,-4.41857 -5.81073,-13.5675 -5.81073,-13.5675c0,0 1.9606,-2.85932 2.47801,-4.57959c0.66964,-2.22638 1.20228,-7.65619 1.20228,-7.65619l25.51508,45.04963c0,0 -5.39281,-1.4275 -7.91892,-2.23406c-2.25669,-0.72054 -6.52085,-2.37648 -6.52085,-2.37648z" fill="#5d7176" stroke="none" stroke-width="0" stroke-linecap="butt"/><path d="M214.68845,228.2118l-27.15814,-41.74838l-13.48586,-26.91094c0,0 -4.41488,-8.66725 2.8691,-10.53377c9.30664,-2.38482 4.34718,-5.47715 6.45213,-5.73242c0.70965,-0.08605 3.32834,-1.73982 4.57137,0.30423c1.12029,1.84225 4.18233,7.35934 4.87418,8.02074c3.61984,3.46047 9.54791,9.85894 13.66938,9.41736c2.00315,-0.21463 13.00749,4.90953 24.94405,-8.87836c3.81825,-4.41046 8.56148,-24.75836 9.91237,-28.25933c3.56804,-9.24692 5.5337,-21.50241 28.24581,-21.69795c28.19801,1.70989 34.20194,37.38654 34.20194,37.38654l-4.44277,21.56912l-33.30807,67.13679z" fill="#2c474d" stroke="none" stroke-width="0" stroke-linecap="butt"/><path d="M243.2736,137.19975c0,-13.19313 10.69513,-23.88826 23.88826,-23.88826c13.19313,0 23.88829,10.69515 23.88829,23.88826c0,13.19314 -10.69515,23.88827 -23.88829,23.88827c-13.19314,0 -23.88826,-10.69515 -23.88826,-23.88827z" fill="#cad8e3" stroke="none" stroke-width="0" stroke-linecap="butt"/><path d="M242.11849,137.79848c0,-7.60173 3.42924,-15.67815 9.80372,-20.24709c4.84432,-3.47218 11.96995,-4.43507 17.2113,-4.43507c2.81486,0 -2.2675,2.59025 -7.05235,6.83189c-3.663,3.24714 -6.50424,8.2596 -7.08959,10.1785c-0.80531,2.64001 -1.94417,12.36546 2.58282,18.29944c6.41922,8.41434 17.99063,12.68088 10.87232,12.68088c-5.20452,0 -10.82831,-0.49395 -15.55504,-3.68224c-6.29717,-4.24759 -10.77318,-11.98396 -10.77318,-19.62629z" fill="#96a6a9" stroke="#000000" stroke-width="0" stroke-linecap="butt"/><path d="M280.12885,137.28748h-26.14308" fill="none" stroke="#000000" stroke-width="6" stroke-linecap="round"/><path d="M214.1063,228.50058c0,0 -3.93647,-2.47427 -3.12657,-8.80395c0.1984,-1.55045 13.81108,-41.63242 14.46589,-42.93809c3.2545,-6.48933 10.28679,-8.92814 14.03056,-8.85416c9.04278,0.17865 11.15732,2.19888 15.15169,8.3262c1.19354,1.83087 15.82426,42.82829 15.82426,42.82829c0,0 -0.20502,4.61232 -0.88407,6.23162c-0.6382,1.52192 -3.07537,3.21014 -3.07537,3.21014z" fill="#ffffff" stroke="none" stroke-width="0" stroke-linecap="butt"/><path d="M213.87639,228.57469c0,0 10.46675,-33.61221 18.01827,-48.85123c2.47316,-4.99083 2.07984,-6.15747 8.59162,-6.12022c6.81183,0.17021 6.19556,2.32742 8.53109,6.25552c8.72501,14.67447 17.03959,49.16516 17.03959,49.16516z" fill="#000000" stroke="none" stroke-width="0" stroke-linecap="butt"/><path d="M225.68971,226.10861l14.59768,-38.10245l14.59769,38.10245z" fill="url(#color-1)" stroke="url(#color-2)" stroke-width="6" stroke-linecap="butt"/></g></g><text transform="translate(181.52602,185.30136) scale(0.44178,0.44178)" font-size="40" xml:space="preserve" fill="#ffffff" fill-rule="nonzero" stroke="#ff6f00" stroke-width="1" stroke-linecap="butt" stroke-linejoin="miter" stroke-miterlimit="10" stroke-dasharray="" stroke-dashoffset="0" font-family="Sans Serif" font-weight="normal" text-anchor="start" style="mix-blend-mode: normal"><tspan x="0" dy="0">No Animation</tspan></text></g></g></svg>