<svg version="1.1" xmlns="http://www.w3.org/2000/svg" xmlns:xlink="http://www.w3.org/1999/xlink" width="128.47404" height="224.44469" viewBox="0,0,128.47404,224.44469"><g transform="translate(-175.76298,-72.03142)"><g data-paper-data="{&quot;isPaintingLayer&quot;:true}" fill-rule="nonzero" stroke-linejoin="miter" stroke-miterlimit="10" stroke-dasharray="" stroke-dashoffset="0" style="mix-blend-mode: normal"><path d="M206.67308,295.4761l15.14285,-131.8421l37.78325,-0.15789l13.57389,132z" fill="#010001" stroke="#000000" stroke-width="2" stroke-linecap="butt"/><path d="M175.76298,132.32975c0,-33.30185 28.7599,-60.29833 64.23702,-60.29833c35.47712,0 64.23702,26.99649 64.23702,60.29833c0,33.30185 -28.7599,60.29833 -64.23702,60.29833c-35.47712,0 -64.23702,-26.99649 -64.23702,-60.29833z" fill="#adbecb" stroke="#000000" stroke-width="0" stroke-linecap="butt"/><path d="M175.76298,132.32975c0,-33.30185 28.7599,-60.29833 64.23702,-60.29833c35.47712,0 64.23702,26.99649 64.23702,60.29833c0,1.91741 -29.70763,-13.62424 -65.18474,-13.62424c-35.47712,0 -63.28929,15.78492 -63.28929,13.62424z" fill="#537962" stroke="#000000" stroke-width="0" stroke-linecap="butt"/><path d="M189.31321,132.75923c0,-12.968 10.51265,-23.48065 23.48065,-23.48065c12.968,0 23.48065,10.51265 23.48065,23.48065c0,12.968 -10.51265,23.48065 -23.48065,23.48065c-12.968,0 -23.48065,-10.51265 -23.48065,-23.48065z" fill="#000000" stroke="#000000" stroke-width="2" stroke-linecap="butt"/><path d="M200.76043,132.75923c0,-6.64589 5.38755,-12.03343 12.03343,-12.03343c6.64589,0 12.03343,5.38755 12.03343,12.03343c0,6.64589 -5.38755,12.03343 -12.03343,12.03343c-6.64589,0 -12.03343,-5.38755 -12.03343,-12.03343z" fill="#f09738" stroke="#b15923" stroke-width="6.5" stroke-linecap="butt"/><path d="M267.05229,156.23987c-12.968,0 -23.48065,-10.51265 -23.48065,-23.48065c0,-12.968 10.51265,-23.48065 23.48065,-23.48065c12.968,0 23.48065,10.51265 23.48065,23.48065c0,12.968 -10.51265,23.48065 -23.48065,23.48065z" data-paper-data="{&quot;index&quot;:null}" fill="#000000" stroke="#000000" stroke-width="2" stroke-linecap="butt"/><path d="M178.19589,117.60187c3.03646,-19.52778 26.57028,-45.57043 62.0474,-45.57043c35.47712,0 60.68677,29.53452 61.07425,45.32715c0.05154,2.10071 -26.07814,-14.75332 -61.55526,-14.75332c-35.47712,0 -61.88242,17.029 -61.56639,14.99661z" fill="#24423a" stroke="#000000" stroke-width="0" stroke-linecap="butt"/><path d="M188.65737,97.16548c13.25465,-20.25765 39.70796,-25.13405 51.58592,-25.13405c35.47712,0 51.68503,25.39858 50.36948,24.16089c0.05154,2.10071 -14.64907,-9.56625 -50.12619,-9.56625c-35.47712,0 -52.14524,12.57181 -51.82921,10.53942z" fill="#0b1014" stroke="#000000" stroke-width="0" stroke-linecap="butt"/><path d="M255.01886,132.75922c0,-6.64588 5.38755,-12.03343 12.03343,-12.03343c6.64589,0 12.03343,5.38756 12.03343,12.03343c0,6.64589 -5.38756,12.03343 -12.03343,12.03343c-6.64589,0 -12.03343,-5.38755 -12.03343,-12.03343z" fill="#f09738" stroke="#b15923" stroke-width="6.5" stroke-linecap="butt"/><path d="M201.92711,132.75922c0,-6.00155 4.86521,-10.86675 10.86676,-10.86675c6.00156,0 10.86675,4.86521 10.86675,10.86675c0,6.00156 -4.86521,10.86676 -10.86675,10.86676c-6.00155,0 -10.86676,-4.86521 -10.86676,-10.86676z" fill="#f09738" stroke="#b15923" stroke-width="0" stroke-linecap="butt"/><path d="M238.7219,170.47801l1.57239,0.00217" fill="none" stroke="#000000" stroke-width="1.5" stroke-linecap="round"/><path d="M256.18553,132.75921c0,-6.00155 4.86521,-10.86675 10.86676,-10.86675c6.00156,0 10.86676,4.86521 10.86676,10.86675c0,6.00156 -4.86522,10.86676 -10.86676,10.86676c-6.00155,0 -10.86676,-4.86521 -10.86676,-10.86676z" fill="#f09738" stroke="#b15923" stroke-width="0" stroke-linecap="butt"/></g></g></svg>