<svg version="1.1" xmlns="http://www.w3.org/2000/svg" xmlns:xlink="http://www.w3.org/1999/xlink" width="147.33172" height="239.80075" viewBox="0,0,147.33172,239.80075"><defs><linearGradient x1="241.12737" y1="126.68778" x2="241.12737" y2="159.09151" gradientUnits="userSpaceOnUse" id="color-1"><stop offset="0" stop-color="#000000" stop-opacity="0.99608"/><stop offset="1" stop-color="#000000" stop-opacity="0"/></linearGradient><linearGradient x1="240.28692" y1="122.00837" x2="240.28692" y2="171.70403" gradientUnits="userSpaceOnUse" id="color-2"><stop offset="0" stop-color="#af724b"/><stop offset="1" stop-color="#af724b" stop-opacity="0"/></linearGradient></defs><g transform="translate(-166.33414,-60.59963)"><g data-paper-data="{&quot;isPaintingLayer&quot;:true}" fill-rule="nonzero" stroke-linejoin="miter" stroke-miterlimit="10" stroke-dasharray="" stroke-dashoffset="0" style="mix-blend-mode: normal"><path d="M239.55673,61.36017c32.37704,-0.39865 53.13465,17.35113 62.48111,40.31749c-0.50011,-0.03943 -1.00053,-0.07301 -1.50104,-0.10082c-1.6107,-0.08948 -5.83598,6.18463 -6.71984,7.51041c-2.31574,3.4736 5.2505,12.0789 4.35362,15.94025c-1.6901,7.2764 -4.10918,14.55449 -5.13098,21.93314c-0.63812,4.608 -0.61185,9.37585 -1.18624,14.017c-0.21687,1.75229 -1.00471,4.19813 -1.02845,6.13243c-0.04705,3.83428 0.00367,7.66925 0.02522,11.50396c-0.74554,-1.00207 -1.65359,-1.70551 -2.37245,-0.6671c-6.07718,8.77862 -11.2964,15.30957 -11.2964,15.30957c0,0 -2.40974,-4.97718 -4.47106,-3.86765c-9.32569,5.01966 -20.06286,7.91078 -31.65348,7.91078c-12.60656,0 -24.772,-3.56633 -35.27102,-9.52744c-2.72845,-1.54916 -0.82623,4.38789 -0.82623,4.38789c0,0 -7.93843,-5.19677 -13.15685,-11.00681c-2.92837,-3.26037 -5.29246,-6.75562 -7.22496,-9.9638c0.49035,-2.39036 -0.16771,-4.73813 -1.26342,-7.06517l0.14416,-0.08238c1.98449,-1.13399 1.39782,-10.27199 1.38184,-11.30272c-0.08645,-5.57655 0.32691,-15.28618 -6.60389,-17.4621c0.26641,-8.06433 -0.29243,-17.29241 -3.96683,-22.62989c7.56021,-26.72985 25.29823,-50.79468 65.28718,-51.28704z" fill="#000000" stroke="#000000" stroke-width="0" stroke-linecap="butt"/><g stroke-linecap="butt"><path d="M206.67309,299.40037l15.14285,-131.8421l37.78325,-0.15789l13.57389,132z" fill="#031718" stroke="#000000" stroke-width="2"/><path d="M211.62694,210.60799l0.73843,-5.90742l55.75131,1.10763v4.79979c0,0 0.50551,12.04896 -0.72793,21.97622c-0.50595,4.07213 -2.76061,7.87827 -3.17587,10.20641c-2.26213,12.68279 -6.08598,43.97358 -6.08598,43.97358c0,0 -30.19882,-0.6439 -34.81938,-0.80389c-1.71086,-0.05924 -6.73065,-26.11953 -7.95335,-37.53145c-0.45324,-4.23029 -2.05848,-11.57764 -2.75274,-18.67797c-0.95891,-9.80711 -0.97449,-19.14291 -0.97449,-19.14291z" fill="#031718" stroke="none" stroke-width="0"/><path d="M261.08802,223.85256c-0.7912,1.08978 -6.17616,7.41047 -12.67181,11.30388c-7.34454,4.40222 -15.84584,6.35927 -15.84584,6.35927c0,0 -9.57121,-8.87058 -12.11653,-13.81117c-1.64454,-3.19213 -6.36495,-11.19169 -7.34466,-17.7613c-0.20593,-1.38089 -1.71961,-7.52629 -0.08822,-12.6533c0.98263,-3.08811 2.1934,-6.15419 3.98801,-8.28622c2.70663,-3.2155 6.03535,-4.77689 6.2989,-4.82691c4.24445,-0.80554 24.75889,-4.70534 34.83918,1.62009c3.26983,2.05183 7.19339,6.35306 8.51303,10.47154c2.20825,6.89168 1.37142,14.67473 1.37142,14.67473c0,0 -2.6516,6.99794 -6.94348,12.9094z" fill="#142d2b" stroke="none" stroke-width="0"/><path d="M241.56344,229.21313c0,0 -7.15786,-5.6874 -10.23744,-9.30689c-3.49664,-4.10969 -9.65055,-14.06794 -9.65055,-14.06794c0,0 -1.23829,-21.72238 1.26995,-22.09776c0.22335,-0.03342 0.11987,-0.60939 0.44409,-0.98872c0.47899,-0.56042 1.43328,-0.99714 2.02242,-1.10894c6.40986,-1.21651 20.78683,-2.6829 29.39499,0.36182c0.84741,0.29973 1.63892,0.64318 2.36141,1.03489c3.57475,1.93807 2.4751,17.11644 2.4751,17.11644c0,0 -5.67975,12.87918 -9.07181,18.1427c-2.68105,4.16025 -9.65389,10.91441 -9.65389,10.91441z" fill="#2c4c45" stroke="none" stroke-width="0"/><path d="M251.46164,186.01426v-3.04556l2.92374,-1.46187l-0.12181,4.8729c0,0 -1.05822,4.2112 -3.34055,8.30932c-1.41554,2.54171 -3.82669,4.81503 -5.16062,6.69361c-1.1063,1.55801 -3.81092,2.70267 -3.88125,2.69349c-0.23108,-0.03014 -4.14873,1.40288 -1.96185,-2.62948c0.46392,-0.85542 3.57252,-3.50136 5.88187,-6.55263c3.15401,-4.1673 5.66049,-8.87979 5.66049,-8.87979z" fill="#789396" stroke="none" stroke-width="0"/><path d="M225.63526,182.31519v-0.48729l2.6801,0.85276c0,0 0.88321,0.65675 1.11141,1.60929c0.37306,1.5571 8.89712,13.20739 15.93308,21.88803c2.17344,2.6815 10.04539,9.15697 10.03783,9.76071c-0.02731,2.18483 -4.83687,6.45029 -6.76669,5.72212c-0.16558,-0.06249 -12.48067,14.09533 -19.96448,28.11582c-2.86712,5.37138 -6.26997,25.66535 -6.26997,25.66535c0,0 -0.74103,-3.83716 -0.84769,-3.95167c-0.08832,-0.09485 -0.96371,-11.05009 4.1532,-21.42459c2.10958,-4.27714 4.67441,-9.60469 7.41621,-13.62588c6.62398,-9.7149 13.69162,-16.51883 13.59944,-16.61379c-3.38178,-3.48374 -9.41099,-11.85461 -10.85437,-13.04438c-0.55703,-0.45915 3.03078,-2.51577 2.48684,-2.99993c-3.40692,-3.03259 -5.96354,-7.10544 -7.67011,-9.1819c-3.60826,-4.39034 -5.04481,-12.2846 -5.04481,-12.2846z" fill="#8fa7b3" stroke="none" stroke-width="0"/><path d="M247.32936,215.28634l4.84727,-5.86776l2.85004,2.35439l-4.84727,5.86776z" fill="#d4ecfe" stroke="none" stroke-width="0"/><path d="M254.48633,181.69028c0,0.52842 -4.61906,8.34482 -8.62925,13.65547c-2.24481,2.97277 -4.96354,4.93881 -4.96354,4.93881c0,0 -3.44002,-3.86291 -7.00077,-8.12851c-4.01498,-4.80975 -8.2054,-10.10962 -8.2054,-10.54644c0,-0.82422 10.52276,-1.57305 15.04483,-1.57305c4.52208,0 13.75412,0.82951 13.75412,1.65373z" fill="#000000" stroke="none" stroke-width="0"/></g><path d="M175.76297,128.74653c0,-33.30185 28.7599,-60.29833 64.23702,-60.29833c35.47712,0 64.23702,26.99649 64.23702,60.29833c0,33.30185 -28.7599,60.29833 -64.23702,60.29833c-35.47712,0 -64.23702,-26.99649 -64.23702,-60.29833z" fill="#ffffff" stroke="#000000" stroke-width="2" stroke-linecap="butt"/><path d="M176.47217,142.81097c0,0 -10.68891,-17.44383 63.30237,-16.04312c73.53117,1.392 66.35363,16.54276 66.35363,16.54276c0,0 -16.14318,15.30513 -35.91046,15.75467c-20.36858,0.46321 -30.04172,-5.35757 -30.04172,-5.35757c0,0 -11.17729,6.08713 -25.63229,5.26528c-30.2718,-1.72111 -38.07153,-16.16202 -38.07153,-16.16202z" fill="url(#color-1)" stroke="none" stroke-width="0" stroke-linecap="butt"/><path d="M176.47217,139.06097c0,0 -8.28891,-79.84383 65.70236,-78.44312c73.53117,1.392 63.95363,78.94276 63.95363,78.94276c0,0 -16.14318,15.30513 -35.91046,15.75467c-20.36858,0.46321 -30.04172,-5.35757 -30.04172,-5.35757c0,0 -11.17729,6.08713 -25.63229,5.26528c-30.2718,-1.72111 -38.07153,-16.16202 -38.07153,-16.16202z" fill="#000000" stroke="none" stroke-width="0" stroke-linecap="butt"/><path d="M176.48602,128.80033c0,-0.72799 5.20666,55.91939 63.36046,56.93429c55.56352,0.9697 63.51358,-57.95314 63.51358,-56.93429c0,32.80479 -28.40173,59.39833 -63.43702,59.39833c-35.03529,0 -63.43702,-26.59354 -63.43702,-59.39833z" fill="#e6e6e6" stroke="#000000" stroke-width="0" stroke-linecap="butt"/><path d="M189.31322,129.176c0,-12.968 10.51265,-23.48065 23.48065,-23.48065c12.968,0 23.48065,10.51265 23.48065,23.48065c0,12.968 -10.51265,23.48065 -23.48065,23.48065c-12.968,0 -23.48065,-10.51265 -23.48065,-23.48065z" fill="#ffffff" stroke="#000000" stroke-width="2" stroke-linecap="butt"/><path d="M196.37859,128.90035c0,-9.12808 7.39976,-16.52784 16.52783,-16.52784c9.12808,0 16.52784,7.39977 16.52784,16.52784c0,9.12808 -7.39977,16.52784 -16.52784,16.52784c-9.12808,0 -16.52783,-7.39977 -16.52783,-16.52784z" fill="#000000" stroke="none" stroke-width="0" stroke-linecap="butt"/><path d="M267.0523,152.65666c-12.968,0 -23.48065,-10.51265 -23.48065,-23.48065c0,-12.968 10.51265,-23.48065 23.48065,-23.48065c12.968,0 23.48065,10.51265 23.48065,23.48065c0,12.968 -10.51265,23.48065 -23.48065,23.48065z" data-paper-data="{&quot;index&quot;:null}" fill="#ffffff" stroke="#000000" stroke-width="2" stroke-linecap="butt"/><path d="M266.93973,145.42821c-9.12807,0 -16.52783,-7.39977 -16.52783,-16.52784c0,-9.12808 7.39977,-16.52784 16.52783,-16.52784c9.12807,0 16.52783,7.39977 16.52783,16.52784c0,9.12808 -7.39977,16.52784 -16.52783,16.52784z" data-paper-data="{&quot;index&quot;:null}" fill="#000000" stroke="none" stroke-width="0" stroke-linecap="butt"/><path d="M189.31322,129.176c0,-12.968 10.51265,-23.48065 23.48065,-23.48065c12.968,0 23.48065,10.51265 23.48065,23.48065c0,0 -46.96131,1.23155 -46.96131,0z" fill="#ffffff" stroke="#000000" stroke-width="2" stroke-linecap="butt"/><path d="M243.57165,129.176c0,-12.968 10.51265,-23.48065 23.48065,-23.48065c12.968,0 23.48065,10.51265 23.48065,23.48065c0,1.2138 -46.96131,0 -46.96131,0z" data-paper-data="{&quot;index&quot;:null}" fill="#ffffff" stroke="#000000" stroke-width="2" stroke-linecap="butt"/><path d="M201.95089,100.36755c0,0 6.70895,-5.16922 11.79721,-6.36355c5.08827,-1.19433 12.33413,0.69937 12.33413,0.69937c0,0 -8.03812,-0.06028 -11.96762,0.86207c-4.10648,0.96389 -12.16372,4.80211 -12.16372,4.80211z" fill="#000000" stroke="none" stroke-width="0" stroke-linecap="butt"/><path d="M265.8854,95.56545c-3.9295,-0.92235 -11.96762,-0.86207 -11.96762,-0.86207c0,0 7.24586,-1.8937 12.33413,-0.69937c5.08826,1.19433 11.79721,6.36355 11.79721,6.36355c0,0 -8.05724,-3.83822 -12.16372,-4.80211z" data-paper-data="{&quot;index&quot;:null}" fill="#000000" stroke="none" stroke-width="0" stroke-linecap="butt"/><path d="M180.8421,99.03762c11.42496,-22.68233 31.40973,-33.07142 60.56473,-32.85267c24.16321,0.18129 39.14424,9.27509 47.64651,17.23625c0.95139,0.89084 -11.16905,5.58091 -18.25999,7.52146c-15.29703,4.18628 -30.35723,6.25195 -30.35723,6.25195l6.65013,-11.17032c0,0 -23.70536,7.34319 -34.98048,9.59002c-11.17264,2.22641 -31.26367,3.4233 -31.26367,3.4233z" fill="#000000" stroke="none" stroke-width="0" stroke-linecap="butt"/><path d="M213.04439,119.30036c0,0 0.7711,-0.94118 -0.3594,-0.94311c-1.31246,-0.00224 -6.32506,0.9027 -8.60112,0.71802c-1.00072,-0.08119 -0.60327,-1.24219 -0.59863,-1.31462c0.03642,-0.56448 9.79856,-2.17154 9.79856,-2.17154c0,0 5.53699,-3.06757 8.03541,-3.33982c3.42791,-0.37355 13.39392,-0.49111 13.39392,-0.49111l0.1197,5.02813c0,0 -6.17174,-0.32761 -8.47593,-0.04443c-3.92953,0.48297 -13.31256,2.55847 -13.31256,2.55847z" fill="#000000" stroke="#000000" stroke-width="1.5" stroke-linecap="butt"/><path d="M244.85248,124.5053l-1.68801,2.50983l-7.23229,-0.17932l2.78512,-1.32362z" fill="#ffffff" stroke="none" stroke-width="0" stroke-linecap="butt"/><path d="M245.24865,115.17761v-5.96657c0,0 6.79233,-1.65993 9.80737,-1.75563c3.59484,-0.11412 10.96907,0.90328 10.96907,0.90328c0,0 -0.06305,1.00582 0.68133,1.26375c1.92586,0.66733 6.22305,1.18172 8.44885,2.40021c1.65693,0.90707 1.32373,1.88367 1.2982,2.08788c-0.03465,0.27729 -2.05014,-0.21457 -4.77864,-0.8758c-2.6809,-0.64967 -6.07593,-1.46659 -6.07593,-1.46659c0,0 -7.6591,0.01002 -11.09321,0.6823c-3.27027,0.6402 -9.25707,2.72716 -9.25707,2.72716z" fill="#000000" stroke="#000000" stroke-width="1.5" stroke-linecap="butt"/><path d="M288.63979,247.38821c-2.53079,0.15154 -2.42805,-1.76048 -2.42805,-1.76048c0,0 -3.16579,-43.85001 -3.30258,-64.58847c-0.12957,-19.64416 2.50236,-56.7375 2.50236,-56.7375c0,0 15.07448,-14.59276 17.9913,-7.16938c1.47453,3.75275 -1.63142,48.80587 -1.63142,48.80587c0,0 -1.87151,9.47621 -3.30968,13.95441c-1.36507,4.25062 -5.11143,12.2677 -5.11143,12.2677l-1.76048,53.46739c0,0 0.6259,1.54634 -2.95003,1.76048z" data-paper-data="{&quot;index&quot;:null}" fill="#031718" stroke="none" stroke-width="0" stroke-linecap="butt"/><path d="M188.65816,246.16453l-1.76048,-53.4674c0,0 -3.74635,-8.01708 -5.1114,-12.26768c-1.43818,-4.47821 -3.30968,-13.95442 -3.30968,-13.95442c0,0 -3.10595,-45.0531 -1.63142,-48.80585c2.91682,-7.42339 17.9913,7.16939 17.9913,7.16939c0,0 2.63191,37.09334 2.50235,56.73749c-0.13676,20.73846 -3.30257,64.58847 -3.30257,64.58847c0,0 0.10277,1.91205 -2.42805,1.76048c-3.57593,-0.21414 -2.95003,-1.76048 -2.95003,-1.76048z" fill="#031718" stroke="none" stroke-width="0" stroke-linecap="butt"/><path d="M295.34283,121.53493c-10.75326,2.9771 -41.12486,4.49889 -55.81932,4.57458c-16.41295,0.08458 -31.42418,-1.1707 -31.57911,-1.85698c-0.90768,-4.02062 -8.04913,-20.61833 6.71025,-26.23785c14.00942,-5.33401 49.93697,0.19831 49.93697,0.19831l33.11237,-4.07537l15.96187,19.5278c0,0 -8.38522,5.11819 -18.32298,7.86949z" data-paper-data="{&quot;index&quot;:null}" fill="#a7bccd" stroke="none" stroke-width="0" stroke-linecap="butt"/><path d="M166.33414,113.72623l15.96187,-19.52781l33.11237,4.07536c0,0 -5.38945,26.28391 -5.97913,26.45336c-1.59283,0.45771 -14.01884,-0.15432 -24.77211,-3.13142c-9.93777,-2.75132 -18.32298,-7.86949 -18.32298,-7.86949z" fill="#8fa7b3" stroke="none" stroke-width="0" stroke-linecap="butt"/><path d="M208.57025,97.54701l-0.15836,-11.2267h56.85862v12.1768c0,0 -12.8781,0.66748 -25.89706,0.67056c-10.1492,0.0024 -20.44615,-0.64742 -24.38952,-0.7135c-3.3476,-0.05609 -6.4137,-0.90719 -6.4137,-0.90719z" fill="#8fa7b3" stroke="none" stroke-width="0" stroke-linecap="butt"/><path d="M281.48867,97.22644c-5.65127,0.70302 -16.93015,1.21513 -16.93015,1.21513l-0.15836,-12.668l32.93676,-1.58349v10.13437c0,0 -10.48265,2.23447 -15.84825,2.90196z" data-paper-data="{&quot;index&quot;:null}" fill="#8fa7b3" stroke="none" stroke-width="0" stroke-linecap="butt"/><path d="M182.29169,94.26426v-10.13438l32.93676,1.58349l-0.15835,12.66799c0,0 -11.27887,-0.51213 -16.93016,-1.21515c-5.3656,-0.6675 -15.84826,-2.90196 -15.84826,-2.90196z" fill="#789396" stroke="none" stroke-width="0" stroke-linecap="butt"/><path d="M181.51963,84.20781l2.07306,-2.48766c0,0 10.71601,2.04608 23.79711,3.33773c10.85392,1.07174 23.46527,1.43031 31.76072,1.43031c3.88366,0 17.34692,0.12925 29.8687,-0.81443c13.56849,-1.02254 26.10374,-3.12438 26.10374,-3.12438l2.28035,1.65844c0,0 -4.90758,2.09719 -13.86954,2.91365c-15.38487,1.40163 -39.08543,1.85437 -44.17596,1.85437c-2.62045,0 -24.88058,-0.6128 -31.10309,-1.16089c-15.76602,-1.38869 -26.73507,-3.60713 -26.73507,-3.60713z" fill="#a7bccd" stroke="none" stroke-width="0" stroke-linecap="butt"/><g stroke="none" stroke-width="0" stroke-linecap="butt"><path d="M173.54862,143.178v-23.69868c0,0 9.0682,3.31049 21.77165,5.19526c14.00122,2.0773 32.25541,2.74855 43.93968,2.77062c11.44797,0.02161 30.57065,-1.49218 45.03574,-3.46989c13.80679,-1.88771 23.23528,-4.24307 23.23528,-4.24307l-0.50578,23.44578c0,0 -22.49741,28.35128 -66.02065,28.52521c-44.03649,0.17602 -67.4559,-28.52521 -67.4559,-28.52521z" fill="url(#color-2)"/><g fill="#ffa300"><path d="M192.02727,148.40449l8.43199,-14.89052l6.63796,19.91385z"/><path d="M213.55576,155.58059l0.35879,-12.19946l4.30569,1.61465l-0.3588,12.37888z"/><path d="M221.2059,158.74567l0.35879,-20.45204l4.30571,1.61462l0.17943,20.81088z"/><path d="M230.24031,139.61367c0,-1.6844 1.36547,-3.04989 3.04986,-3.04989c1.68439,0 3.04989,1.36549 3.04989,3.04989c0,1.6844 -1.36549,3.04986 -3.04989,3.04986c-1.68439,0 -3.04986,-1.36549 -3.04986,-3.04986z"/></g></g><path d="M166.75836,114.09249c0,0 27.68012,8.8386 41.97168,10.53996c13.89754,1.65447 65.28947,-0.64431 65.28947,-0.64431c0,0 14.01774,-1.8966 24.93415,-4.75614c8.42329,-2.20649 14.38882,-5.59755 14.4414,-5.33472c0.03022,0.15113 1.08931,1.97264 -1.29358,4.08596c-2.10219,1.86437 -7.38564,3.95591 -11.27611,5.32799c-10.71994,3.78068 -26.05052,4.4537 -26.05052,4.4537c0,0 -16.2413,2.42818 -32.98869,2.82647c-12.02268,0.28591 -24.06987,-0.95467 -32.57598,-1.7354c-8.12052,-0.74535 -15.96165,-1.80217 -22.34285,-3.20229c-4.57994,-1.0049 -8.15607,-2.68261 -10.79549,-3.16177c-11.27972,-2.0478 -9.31347,-8.39945 -9.31347,-8.39945z" fill="#de6000" stroke="none" stroke-width="0" stroke-linecap="butt"/><path d="M221.41636,167.70984h36.3596" fill="none" stroke="#000000" stroke-width="1" stroke-linecap="round"/></g></g></svg>