<svg version="1.1" xmlns="http://www.w3.org/2000/svg" xmlns:xlink="http://www.w3.org/1999/xlink" width="15.00204" height="23.94584" viewBox="0,0,15.00204,23.94584"><g transform="translate(-239.89762,-170.61131)"><g data-paper-data="{&quot;isPaintingLayer&quot;:true}" fill-rule="nonzero" stroke="none" stroke-linecap="butt" stroke-linejoin="miter" stroke-miterlimit="10" stroke-dasharray="" stroke-dashoffset="0" style="mix-blend-mode: normal"><path d="M254.74767,184.04253c0,1.55381 -0.68473,2.84426 -2.02785,3.84502c-1.34312,1.00077 -3.13395,1.50114 -5.31982,1.50114c-2.18587,0 -3.9767,-0.50037 -5.31982,-1.50114c-1.34312,-1.00077 -2.02785,-2.29122 -2.02785,-3.84502c0,-2.13319 1.34313,-3.766 3.73968,-4.52974c-1.97518,-0.8164 -2.97594,-2.15952 -2.97594,-4.05569c0,-1.44846 0.60572,-2.60724 1.81717,-3.50266c1.1851,-0.8954 2.79158,-1.34313 4.76676,-1.34313c1.97518,0 3.58166,0.44772 4.7931,1.34313c1.1851,0.89542 1.79082,2.05419 1.79082,3.50266c0,1.86983 -1.00075,3.23929 -3.00227,4.05569c2.39655,0.76374 3.76601,2.39655 3.76601,4.52974zM247.40001,173.11322c-1.02709,0 -1.86983,0.26335 -2.50189,0.76373c-0.63206,0.50038 -0.94809,1.18511 -0.94809,2.00151c0,1.60649 1.42213,2.71258 3.44998,2.71258c2.02785,0 3.44998,-1.1061 3.44998,-2.71258c0,-0.8164 -0.31603,-1.50113 -0.94809,-2.00151c-0.63206,-0.50038 -1.4748,-0.76373 -2.50189,-0.76373zM251.21869,183.72651c0,-1.81716 -1.52747,-3.02861 -3.81868,-3.02861c-2.2912,0 -3.84501,1.21145 -3.84501,3.02861c0,1.79083 1.55381,3.02861 3.84501,3.02861c2.23854,0 3.81868,-1.23778 3.81868,-3.02861z" fill="#000000" stroke-width="0.35808"/><path d="M239.89762,194.55715v-23.65909h15.00204v23.65909z" fill-opacity="0.00403" fill="#808080" stroke-width="0"/></g></g></svg>