<svg version="1.1" xmlns="http://www.w3.org/2000/svg" xmlns:xlink="http://www.w3.org/1999/xlink" width="155.50805" height="263.60537" viewBox="0,0,155.50805,263.60537"><g transform="translate(-162.246,-42.19132)"><g data-paper-data="{&quot;isPaintingLayer&quot;:true}" fill-rule="nonzero" stroke-linecap="butt" stroke-linejoin="miter" stroke-miterlimit="10" stroke-dasharray="" stroke-dashoffset="0" style="mix-blend-mode: normal"><g><g fill="#779295" stroke-width="2"><path d="M259.64439,206.34655c0,8.09484 -6.94587,14.65699 -15.51402,14.65699c-8.56815,0 -15.51401,-6.56216 -15.51401,-14.65699c0,-8.09484 6.94586,-14.65699 15.51401,-14.65699c8.56815,0 15.51402,6.56216 15.51402,14.65701z" stroke="#000000"/><path d="M266.18555,241.5484c0,0 3.47554,38.02755 -0.54144,37.93065c-5.94995,-0.14352 -35.80582,-1.2817 -41.03833,-0.42393c-3.4296,0.56221 -1.78698,-37.03623 -1.78698,-37.03623c0,0 3.20681,-22.47584 3.20681,-23.76111c0,-5.86956 -3.48443,-21.33092 2.13427,-21.33092c1.00453,0 2.46179,2.58361 4.52883,3.80367c2.98595,1.76243 7.56342,19.50305 11.86618,19.05624c4.26751,-0.44314 8.78446,-17.97824 12.44035,-19.72406c1.60977,-0.76872 3.12465,-3.02691 4.69779,-3.21464c2.70618,-0.32295 4.49253,44.70036 4.49253,44.70036z" stroke="#779295"/></g><path d="M210.3986,305.79667l15.14285,-131.8421l37.78325,-0.15789l13.57389,132z" fill="#0b1d1d" stroke="#000000" stroke-width="0"/><path d="M208.69159,207.60162l64.17837,-2.1326c0,0 3.65469,16.41901 4.58407,23.77087c0.75566,5.9775 1.78772,15.7871 1.78772,15.7871c0,0 -2.04014,33.71652 -34.58346,33.99465c-14.86279,0.12703 -29.00931,-7.25439 -34.86692,-14.2957c-1.4615,-1.75684 -2.12047,-15.6204 -1.98873,-31.20013c0.10507,-12.42548 0.88895,-25.9242 0.88895,-25.9242z" fill="#304d48" stroke="none" stroke-width="0"/><path d="M208.25113,240.23647c0,0 -1.19316,-13.80198 -0.92252,-18.85751c0.33162,-6.19464 3.31999,-24.2866 3.31999,-24.2866c0,0 5.68953,-20.47965 30.13772,-21.21375c25.63613,-0.76978 34.04064,19.08116 34.04064,19.08116c0,0 3.65469,16.41901 4.58408,23.77087c0.75566,5.9775 0.57969,17.07658 0.57969,17.07658c0,0 -0.83211,32.42703 -33.37545,32.70517c-29.97326,0.25617 -38.36416,-28.27593 -38.36416,-28.27593z" fill="#1a312e" stroke="none" stroke-width="0"/><path d="M272.32347,221.52181c0,6.14519 -3.0345,20.52632 -9.99245,29.02682c-4.8668,5.94573 -14.33944,7.93822 -17.15625,7.93822c-7.5187,0 -17.37109,-5.69049 -23.21327,-15.78417c-5.38768,-9.30846 -7.07172,-22.64845 -7.07172,-32.16574c0,-19.83743 14.26433,-24.58524 28.71684,-24.58524c14.15406,0 28.42782,8.97265 28.89795,28.24336c0.00992,0.40635 -0.18111,6.91711 -0.18111,7.32675z" fill="#000100" stroke="none" stroke-width="0"/></g><g><path d="M291.99485,158.04695c0,12.28167 17.05687,10.51565 10.79209,23.15008c-5.3481,10.78572 -15.48482,28.12919 -29.30836,38.44747c-10.65429,7.95266 -25.3289,12.14857 -32.41279,12.14857c-3.88319,0 -14.02362,-1.06619 -22.08949,-4.67458c-5.26009,-2.35317 -8.28179,-6.34337 -12.78244,-9.90913c-8.23937,-6.52783 -25.20533,-31.05192 -31.41452,-42.06522c-3.81097,-6.75959 1.8229,-1.34639 0.10154,-4.45897c-7.95179,-14.37828 19.18858,2.356 19.18858,-12.63819c0,-30.84709 21.92137,-55.85359 48.9627,-55.85359c27.04132,0 48.9627,25.00651 48.9627,55.85359z" fill="#0b1d1d" stroke="none" stroke-width="0"/><path d="M282.27403,120.19064c0,10.91094 26.68954,19.98436 29.79581,36.90329c0.85135,4.63706 -5.22125,13.03124 -7.88155,18.39069c-4.49955,9.06475 -15.02769,24.435 -30.74363,34.09052c-15.62923,9.60219 -39.99554,13.51826 -43.0815,12.27799c-27.81429,-11.17863 -45.09631,-30.76962 -55.99317,-50.01569c-11.26168,-19.89037 -12.12399,-39.45476 -12.12399,-51.64679c0,-23.98914 9.3769,-77.89565 63.05269,-77.99829c144.08172,-0.27555 56.97534,54.00918 56.97534,77.99834z" fill="#304d48" stroke="none" stroke-width="0"/><path d="M317.72533,122.21454c0,24.24711 -18.63506,72.8941 -71.40907,81.5791c-37.08099,6.10242 -72.92841,-57.33198 -72.92841,-81.57906c0,-24.24711 26.89155,-92.47707 111.92483,-73.17208c34.63492,7.86313 32.41262,48.92499 32.41262,73.17208z" fill="#0b1d1d" stroke="none" stroke-width="0"/><path d="M198.33584,151.97458c0,0 -7.48076,-25.46846 -8.81614,-36.17456c-1.34326,-10.76908 0.78005,-28.2521 0.78005,-28.2521l106.39784,-3.55729l-12.5363,68.77446c0,0 -27.1849,17.91953 -41.46145,17.78801c-14.33171,-0.13199 -44.36402,-18.57852 -44.36402,-18.57852z" fill="#000002" stroke="none" stroke-width="0"/><path d="M206.1635,71.13747c8.84738,-6.00842 19.82206,-14.27067 41.48816,-14.58914c21.69885,-0.31895 37.97656,4.29154 47.28282,15.78118c0.26213,0.32362 0.0117,0.92032 0.17776,1.75365c1.16391,5.84087 -5.94781,70.40195 -11.10386,77.19642c-7.78063,10.25316 -37.3057,9.16198 -43.34552,9.15738c-19.55861,-0.01489 -40.75826,-8.7106 -41.61522,-8.78703c-1.3162,-0.11739 -12.64322,-38.93629 -9.24525,-62.95069c1.34751,-9.5233 13.00775,-15.28436 16.36111,-17.56169z" fill="#000000" stroke="#000000" stroke-width="2.5"/><path d="M284.77988,172.82794c0,7.40043 -29.75444,22.35763 -41.19252,22.38534c-17.03589,0.04126 -43.95914,-15.61549 -43.95914,-23.01592c0,-1.48174 5.92566,-1.53733 7.70024,-1.68706c1.60798,-0.13569 2.73147,0.35553 9.76507,3.64158c6.72307,3.141 14.47144,10.83762 25.87903,10.02637c6.44332,-0.45822 10.88417,-2.98769 19.08358,-6.6309c5.93363,-2.63646 13.24003,-7.23789 14.29934,-7.1157c1.4652,0.16899 8.42441,0.87851 8.42441,2.39629z" fill="#779295" stroke="none" stroke-width="2"/></g><path d="M179.48849,123.13084c0,-33.30185 28.7599,-60.29833 64.23702,-60.29833c35.47712,0 64.23702,26.99649 64.23702,60.29833c0,33.30185 -28.7599,60.29833 -64.23702,60.29833c-35.47712,0 -64.23702,-26.99649 -64.23702,-60.29833z" fill="#ffffff" stroke="#000000" stroke-width="2"/><path d="M180.21155,123.18466c0,-0.72799 5.20666,55.91939 63.36046,56.93429c55.56352,0.9697 63.51358,-57.95314 63.51358,-56.93429c0,32.80479 -28.40173,59.39833 -63.43702,59.39833c-35.03529,0 -63.43702,-26.59354 -63.43702,-59.39833z" fill="#e6e6e6" stroke="#000000" stroke-width="0"/><path d="M193.03873,123.56029c0,-12.968 10.51265,-23.48065 23.48065,-23.48065c12.968,0 23.48065,10.51265 23.48065,23.48065c0,12.968 -10.51265,23.48065 -23.48065,23.48065c-12.968,0 -23.48065,-10.51265 -23.48065,-23.48065z" fill="#ffffff" stroke="#000000" stroke-width="2"/><path d="M200.1041,123.28468c0,-9.12808 7.39976,-16.52784 16.52783,-16.52784c9.12808,0 16.52784,7.39977 16.52784,16.52784c0,9.12808 -7.39977,16.52784 -16.52784,16.52784c-9.12808,0 -16.52783,-7.39977 -16.52783,-16.52784z" fill="#000000" stroke="none" stroke-width="0"/><path d="M270.77781,147.04095c-12.968,0 -23.48065,-10.51265 -23.48065,-23.48065c0,-12.968 10.51265,-23.48065 23.48065,-23.48065c12.968,0 23.48065,10.51265 23.48065,23.48065c0,12.968 -10.51265,23.48065 -23.48065,23.48065z" data-paper-data="{&quot;index&quot;:null}" fill="#ffffff" stroke="#000000" stroke-width="2"/><path d="M270.66524,139.81252c-9.12807,0 -16.52783,-7.39977 -16.52783,-16.52784c0,-9.12808 7.39977,-16.52784 16.52783,-16.52784c9.12807,0 16.52783,7.39977 16.52783,16.52784c0,9.12808 -7.39977,16.52784 -16.52783,16.52784z" data-paper-data="{&quot;index&quot;:null}" fill="#000000" stroke="none" stroke-width="0"/><path d="M193.03873,123.56029c0,-12.968 10.51265,-23.48065 23.48065,-23.48065c12.968,0 23.48065,10.51265 23.48065,23.48065c0,0 -46.96131,1.23155 -46.96131,0z" fill="#ffffff" stroke="#000000" stroke-width="2"/><path d="M247.29715,123.56029c0,-12.968 10.51265,-23.48065 23.48065,-23.48065c12.968,0 23.48065,10.51265 23.48065,23.48065c0,1.2138 -46.96131,0 -46.96131,0z" data-paper-data="{&quot;index&quot;:null}" fill="#ffffff" stroke="#000000" stroke-width="2"/><path d="M205.67639,94.75184c0,0 6.70895,-5.16922 11.79721,-6.36355c5.08827,-1.19433 12.33413,0.69937 12.33413,0.69937c0,0 -8.03812,-0.06028 -11.96762,0.86207c-4.10648,0.96389 -12.16372,4.80211 -12.16372,4.80211z" fill="#000000" stroke="none" stroke-width="0"/><path d="M269.61091,89.94974c-3.9295,-0.92235 -11.96762,-0.86207 -11.96762,-0.86207c0,0 7.24586,-1.8937 12.33413,-0.69937c5.08826,1.19433 11.79721,6.36355 11.79721,6.36355c0,0 -8.05724,-3.83822 -12.16372,-4.80211z" data-paper-data="{&quot;index&quot;:null}" fill="#000000" stroke="none" stroke-width="0"/><path d="M184.5676,93.42191c11.42496,-22.68233 31.40973,-33.07142 60.56473,-32.85267c24.16321,0.18129 39.14424,9.27509 47.64651,17.23625c0.95139,0.89084 -11.16905,5.58091 -18.25999,7.52146c-15.29703,4.18628 -30.35723,6.25195 -30.35723,6.25195l6.65013,-11.17032c0,0 -23.70536,7.34319 -34.98048,9.59002c-11.17264,2.22641 -31.26367,3.4233 -31.26367,3.4233z" fill="#000000" stroke="none" stroke-width="0"/><g stroke-width="0"><path d="M179.65933,146.28472l-1.04743,-35.08814c0,0 9.43079,-8.46669 14.77008,-11.32258c2.76966,-1.48145 7.75929,-4.28318 13.92313,-5.48095c6.89968,-1.34076 15.07188,-0.93671 19.27482,0.28075c7.23027,2.09441 18.60759,6.91424 18.70689,8.68737c0.03208,0.57246 4.0534,-2.56188 8.945,-4.8792c2.61142,-1.23714 13.4646,-6.71369 21.4755,-5.31866c1.93469,0.33692 12.71382,3.80197 20.9097,8.44259c7.2115,4.08325 12.06828,9.43137 12.06828,9.43137c0,0 -1.81236,34.00783 -3.57605,35.45044c-2.17271,1.7772 -25.15697,12.35958 -28.384,13.32377c-2.61617,0.78171 -7.52414,-1.52838 -12.36854,-3.7953c-4.40418,-2.06091 -11.81558,-9.56524 -20.06106,-9.84963c-6.58261,-0.22708 -14.26665,6.33155 -17.2055,7.94514c-5.23305,2.87321 -11.55709,5.00385 -11.55709,5.00385c0,0 -10.33702,-2.01266 -16.05863,-3.94733c-5.11467,-1.72942 -19.81502,-8.88338 -19.81502,-8.88338z" fill="#934310" stroke="none"/><g><path d="M191.46944,124.95922c0,-11.27878 9.14326,-20.42201 20.42201,-20.42201c11.27875,0 20.42201,9.14326 20.42201,20.42201c0,11.27878 -9.14326,20.42199 -20.42201,20.42199c-11.27875,0 -20.42201,-9.14326 -20.42201,-20.42199z" fill="#fda707" stroke="none"/><path d="M197.05923,124.5465c0,-8.11236 6.57636,-14.68874 14.68877,-14.68874c8.11238,0 14.68876,6.57636 14.68876,14.68876c0,8.11236 -6.57637,14.68877 -14.68874,14.68877c-8.11238,0 -14.68874,-6.57636 -14.68874,-14.68874z" fill="#934310" stroke="none"/><path d="M221.84235,135.44778l-20.78022,-21.25658c0,0 4.57115,-4.31153 10.40268,-4.77015c3.51409,-0.27636 7.73335,1.02786 11.6496,5.33625c4.04096,4.44555 4.19432,8.49434 3.71627,11.81793c-0.79562,5.53142 -4.98837,8.87255 -4.98837,8.87255z" fill="#dd6000" stroke="#000000"/></g><g><path d="M255.2039,125.12256c0,-11.27878 9.14326,-20.42202 20.42201,-20.42202c11.27875,0 20.42201,9.14326 20.42201,20.42202c0,11.27878 -9.14326,20.42201 -20.42201,20.42201c-11.27875,0 -20.42201,-9.14326 -20.42201,-20.42201z" fill="#fda707" stroke="none"/><path d="M260.79362,124.70989c0,-8.11236 6.57636,-14.68874 14.68877,-14.68874c8.11235,0 14.68876,6.57636 14.68876,14.68876c0,8.11236 -6.57636,14.68877 -14.68874,14.68877c-8.11238,0 -14.68874,-6.57636 -14.68874,-14.68874z" fill="#934310" stroke="none"/><path d="M285.57678,135.61117l-20.78022,-21.25661c0,0 4.57115,-4.31153 10.40268,-4.77015c3.51412,-0.27636 7.73332,1.02788 11.64954,5.33627c4.04098,4.44555 4.19435,8.49434 3.7163,11.81793c-0.79562,5.53142 -4.98835,8.87256 -4.98835,8.87256z" fill="#dd6000" stroke="#000000"/></g></g><path d="M257.98062,163.75885c0,4.36333 -6.41669,7.9005 -14.33206,7.9005c-7.91538,0 -14.33206,-3.53717 -14.33206,-7.9005c0,-4.36333 6.21669,-2.5005 14.13206,-2.5005c7.91538,0 14.53206,-1.86283 14.53206,2.5005z" fill="#000000" stroke="none" stroke-width="0"/><path d="M165.83334,177.16217v0z" fill="#000000" stroke="none" stroke-width="0"/></g></g></svg>