<svg version="1.1" xmlns="http://www.w3.org/2000/svg" xmlns:xlink="http://www.w3.org/1999/xlink" width="13.46357" height="23.82731" viewBox="0,0,13.46357,23.82731"><g transform="translate(-239.89762,-170.72984)"><g data-paper-data="{&quot;isPaintingLayer&quot;:true}" fill-rule="nonzero" stroke="none" stroke-linecap="butt" stroke-linejoin="miter" stroke-miterlimit="10" stroke-dasharray="" stroke-dashoffset="0" style="mix-blend-mode: normal"><path d="M253.30944,186.39958v2.87059h-13.35221v-0.31603c0,-1.7645 0.57939,-3.34463 1.18511,-4.31905c0.28969,-0.47404 0.7374,-0.94808 1.34312,-1.44846c0.57939,-0.50038 1.0271,-0.84275 1.36946,-1.07977c0.34237,-0.21068 0.8164,-0.50038 1.4748,-0.89542c2.81792,-1.68548 4.31906,-3.05494 4.31906,-4.8721c0,-1.60649 -1.18511,-2.71258 -2.89693,-2.71258c-1.71182,0 -3.02861,1.13243 -3.13395,3.05494h-3.3183c0.079,-1.81716 0.71106,-3.26563 1.92251,-4.34539c1.21144,-1.07977 2.73892,-1.60647 4.60875,-1.60647c1.79083,0 3.26563,0.50038 4.45073,1.52747c1.1851,1.0271 1.76449,2.31754 1.76449,3.89769c0,1.58013 -0.55305,2.94959 -1.68548,4.02936c-1.13243,1.07977 -1.94884,1.65915 -3.44998,2.52823c-1.60648,0.94808 -2.63357,1.60647 -3.05494,1.97517c-0.60572,0.55306 -0.94809,1.10611 -1.00075,1.71183z" fill="#000000" stroke-width="0.35808"/><path d="M239.89762,194.55715v-23.65909h13.46357v23.65909z" fill-opacity="0.00403" fill="#808080" stroke-width="0"/></g></g></svg>