<svg version="1.1" xmlns="http://www.w3.org/2000/svg" xmlns:xlink="http://www.w3.org/1999/xlink" width="34.17311" height="34.17311" viewBox="0,0,34.17311,34.17311"><g transform="translate(-222.91345,-162.91345)"><g data-paper-data="{&quot;isPaintingLayer&quot;:true}" stroke="none" stroke-miterlimit="10" stroke-dasharray="" stroke-dashoffset="0" style="mix-blend-mode: normal"><path d="M229.98312,162.91346h20.03379c3.9166,0 7.06966,3.15307 7.06966,7.06966v20.03379c0,3.91659 -3.15306,7.06966 -7.06966,7.06966h-20.03379c-3.91659,0 -7.06966,-3.15307 -7.06966,-7.06966v-20.03379c0,-3.91659 3.15307,-7.06966 7.06966,-7.06966z" fill-opacity="0.13218" fill="#1a1a1a" fill-rule="evenodd" stroke-width="4.43922" stroke-linecap="round" stroke-linejoin="round"/><path d="M254.11092,187.79278c-1.37788,2.60394 -5.84928,0.35337 -9.9094,0.42285c-4.22381,0.07227 -8.04727,2.3906 -9.83739,1.34371c-1.57764,-0.92264 -0.78672,-4.73762 -2.72409,-8.2895c-1.91233,-3.50595 -6.57261,-6.73779 -5.17611,-9.37692c2.81131,-5.31285 12.45818,-4.05974 12.45818,-4.05974l13.16687,8.31062c0,0 4.45729,7.04664 2.02195,11.64899z" fill="#bfbfbf" fill-rule="nonzero" stroke-width="0" stroke-linecap="butt" stroke-linejoin="miter"/><path d="M234.07506,175.9351c-0.03223,3.35263 -2.05364,6.1675 -4.51496,6.28718c-2.46131,0.11968 -4.43048,-2.50114 -4.39825,-5.85377c0.03223,-3.35263 2.05364,-6.16749 4.51496,-6.28718c2.46131,-0.11968 4.43048,2.50113 4.39825,5.85376z" fill="#ffffff" fill-rule="nonzero" stroke-width="0" stroke-linecap="butt" stroke-linejoin="miter"/><path d="M254.09587,183.68683c1.28553,2.10234 0.09525,5.35698 -2.65857,7.26948c-2.75382,1.9125 -6.02836,1.75859 -7.31389,-0.34374c-1.28553,-2.10234 -0.09525,-5.35698 2.65857,-7.26948c2.75382,-1.9125 6.02836,-1.7586 7.31389,0.34374z" data-paper-data="{&quot;index&quot;:null}" fill="#ffffff" fill-rule="nonzero" stroke-width="0" stroke-linecap="butt" stroke-linejoin="miter"/><path d="M253.45949,187.35935c0.15536,1.26588 -1.20315,2.93556 -3.03431,3.72931c-1.83118,0.79375 -3.44157,0.41099 -3.59695,-0.8549c-0.15536,-1.26588 1.20314,-2.93556 3.03431,-3.72931c1.83118,-0.79375 3.44158,-0.41098 3.59695,0.8549z" data-paper-data="{&quot;index&quot;:null}" fill="#bebebe" fill-rule="nonzero" stroke-width="0" stroke-linecap="butt" stroke-linejoin="miter"/><path d="M230.10573,175.56148c0.37375,1.9605 -0.24257,4.0229 -1.3766,4.6065c-1.13403,0.5836 -2.35634,-0.53257 -2.73009,-2.49307c-0.37375,-1.9605 0.24256,-4.0229 1.37659,-4.6065c1.13403,-0.5836 2.35635,0.53258 2.7301,2.49307z" data-paper-data="{&quot;index&quot;:null}" fill="#bebebe" fill-rule="nonzero" stroke-width="0" stroke-linecap="butt" stroke-linejoin="miter"/><path d="M239.26827,180.33778c0,0 -0.22083,-1.21802 0.09141,-1.88512c0.31223,-0.6671 1.58348,-1.69329 1.58348,-1.69329l3.27503,-5.68152c0,0 0.93489,0.59383 1.3673,0.86849c0.39025,0.24789 1.11369,0.7074 1.11369,0.7074l-3.98825,5.36409c0,0 -0.10487,1.3144 -0.66197,2.04418c-0.55709,0.72978 -1.74587,0.94204 -1.74587,0.94204z" fill="#ffffff" fill-rule="nonzero" stroke-width="0" stroke-linecap="butt" stroke-linejoin="miter"/></g></g></svg>