<svg version="1.1" xmlns="http://www.w3.org/2000/svg" xmlns:xlink="http://www.w3.org/1999/xlink" width="145.77431" height="224.18387" viewBox="0,0,145.77431,224.18387"><g transform="translate(-152.5969,-83.27536)"><g data-paper-data="{&quot;isPaintingLayer&quot;:true}" fill-rule="nonzero" stroke-linejoin="miter" stroke-miterlimit="10" stroke-dasharray="" stroke-dashoffset="0" style="mix-blend-mode: normal"><g><path d="M206.03422,307.45923l15.14285,-131.8421l37.78325,-0.15789l13.57389,132z" fill="#395858" stroke="#000000" stroke-width="0" stroke-linecap="butt"/><path d="M220.58675,223.11263l19.43547,4.41787l22.11638,-4.5394l1.95241,-1.15069l7.17795,50.65863l-32.24809,13l-31.71829,-12.80674l6.62795,-51.53844z" fill="#314b4b" stroke="#314b4b" stroke-width="2" stroke-linecap="round"/><path d="M250.72085,245.43238l-1.33334,13.83333l-10.66666,7.83334l-16.66667,-27.33334z" fill="#ff7c0b" stroke="#ff7c0b" stroke-width="2" stroke-linecap="round"/><path d="M249.15989,246.9649l-1.10569,11.47154l-8.84553,6.49594l-13.82114,-22.66667z" fill="#ffc30a" stroke="#ffc30a" stroke-width="2" stroke-linecap="round"/><path d="M248.17207,247.80839l-0.95122,9.8689l-7.60975,5.58842l-11.89024,-19.5z" fill="#ff9e0a" stroke="#ff9e0a" stroke-width="2" stroke-linecap="round"/><path d="M244.78086,252.69571c0,2.73381 -1.99233,4.95 -4.45,4.95c-2.45766,0 -4.45,-2.21619 -4.45,-4.95c0,-2.73381 1.99234,-4.95 4.45,-4.95c2.45766,0 4.45,2.21619 4.45,4.95z" fill="#ffb50a" stroke="#ff9e0a" stroke-width="2" stroke-linecap="butt"/><path d="M219.76302,173.58197l19.32668,-1.55029l19.10219,2.15029l-18.5077,32.90673z" fill="#243d3d" stroke="#243d3d" stroke-width="2" stroke-linecap="round"/><path d="M264.11112,221.52911l-6.62693,1.69327l-17.6,3.4l-19.2,-4.4l-7.07688,-2.03844l3.44017,-26.211l2.83573,-19.17748l20.00098,38.22692l18.3077,-37.52019z" fill="#385656" stroke="#385656" stroke-width="2" stroke-linecap="round"/></g><g><path d="M223.04436,254.42122l-52.66384,-31.28148l5.80763,-6.88167l42.79461,24.74382z" fill="#1b322d" stroke="none" stroke-width="0" stroke-linecap="butt"/><path d="M248.32791,237.86176l35.97925,-33.8988l7.23107,5.36633l-44.08608,42.52562z" data-paper-data="{&quot;index&quot;:null}" fill="#1b322d" stroke="none" stroke-width="0" stroke-linecap="butt"/><path d="M284.47622,204.56968l4.23955,-30.05811l9.62932,-4.46676l-6.79239,39.33605z" data-paper-data="{&quot;index&quot;:null}" fill="#456761" stroke="none" stroke-width="0" stroke-linecap="butt"/><path d="M232.52432,224.70646l17.3298,3.63141l-2.07045,24.15081l-10.89872,4.29278l-14.16305,-1.71221l-7.83676,-22.6673z" fill="#24433d" stroke="#24433d" stroke-width="2" stroke-linecap="round"/><path d="M159.51014,156.57485c-3.84442,-33.0792 21.60668,-63.21528 56.84661,-67.31081c35.23993,-4.09553 66.92407,19.40038 70.76848,52.47957c3.84442,33.0792 -21.60668,63.21528 -56.84661,67.31081c-35.23993,4.09553 -66.92407,-19.40038 -70.76848,-52.47957z" fill="#ffffff" stroke="#000000" stroke-width="2" stroke-linecap="butt"/><path d="M160.23457,156.54486c-0.08404,-0.72312 11.62727,54.94446 69.50943,49.23921c55.30398,-5.45112 56.39874,-64.89779 56.51636,-63.88575c3.78704,32.58547 -21.35481,62.27995 -56.15586,66.32448c-34.80105,4.04453 -66.0829,-19.09247 -69.86993,-51.67794z" fill="#e6e6e6" stroke="#000000" stroke-width="0" stroke-linecap="butt"/><path d="M274.72471,174.11578l-2.19737,-10.73994l8.17225,-4.1118l12.46144,0.40234l3.95334,10.12104l-12.60187,6.62292z" data-paper-data="{&quot;index&quot;:null}" fill="#22302c" stroke="#22302c" stroke-width="2" stroke-linecap="round"/><path d="M173.01935,155.43719c-1.49705,-12.8813 7.73172,-24.53726 20.61302,-26.03431c12.8813,-1.49705 24.53726,7.73172 26.03431,20.61302c1.49705,12.8813 -7.73172,24.53726 -20.61302,26.03431c-12.8813,1.49705 -24.53726,-7.73172 -26.03431,-20.61302z" fill="#ffffff" stroke="#000000" stroke-width="2" stroke-linecap="butt"/><path d="M180.00568,154.34775c-1.05376,-9.06705 5.44229,-17.27158 14.50933,-18.32534c9.06705,-1.05376 17.27158,5.4423 18.32534,14.50934c1.05376,9.06705 -5.4423,17.27158 -14.50934,18.32534c-9.06705,1.05376 -17.27157,-5.4423 -18.32533,-14.50934z" fill="#000000" stroke="none" stroke-width="0" stroke-linecap="butt"/><path d="M251.80156,234.85862l3.92074,-56.46899l36.75412,-18.14132l-6.6756,43.89065z" data-paper-data="{&quot;index&quot;:null}" fill="#37514d" stroke="none" stroke-width="0" stroke-linecap="butt"/><path d="M215.42758,190.15443l24.94171,-2.89869" fill="none" stroke="#000000" stroke-width="2" stroke-linecap="round"/><path d="M252.94935,169.78651c-12.8813,1.49705 -24.53726,-7.73172 -26.03431,-20.61302c-1.49705,-12.8813 7.73172,-24.53726 20.61302,-26.03431c12.8813,-1.49705 24.53726,7.73172 26.03431,20.61302c1.49705,12.8813 -7.73172,24.53726 -20.61302,26.03431z" data-paper-data="{&quot;index&quot;:null}" fill="#ffffff" stroke="#000000" stroke-width="2" stroke-linecap="butt"/><path d="M252.00307,162.61941c-9.06704,1.05376 -17.27157,-5.4423 -18.32533,-14.50934c-1.05376,-9.06705 5.4423,-17.27158 14.50933,-18.32534c9.06704,-1.05376 17.27157,5.4423 18.32533,14.50934c1.05376,9.06705 -5.4423,17.27158 -14.50933,18.32534z" data-paper-data="{&quot;index&quot;:null}" fill="#000000" stroke="none" stroke-width="0" stroke-linecap="butt"/><path d="M173.01935,155.43719c-1.49705,-12.8813 7.73172,-24.53726 20.61302,-26.03431c12.8813,-1.49705 24.53726,7.73172 26.03431,20.61302c0,0 -46.50517,6.6446 -46.64734,5.42129z" fill="#ffffff" stroke="#000000" stroke-width="2" stroke-linecap="butt"/><path d="M226.91505,149.17351c-1.49705,-12.8813 7.73172,-24.53726 20.61302,-26.03431c12.8813,-1.49705 24.53726,7.73172 26.03431,20.61302c0.14012,1.20568 -46.64734,5.42129 -46.64734,5.42129z" data-paper-data="{&quot;index&quot;:null}" fill="#ffffff" stroke="#000000" stroke-width="2" stroke-linecap="butt"/><path d="M182.24684,125.36241c0,0 6.06735,-5.90915 10.98372,-7.68289c4.91638,-1.77374 12.3324,-0.72918 12.3324,-0.72918c0,0 -7.99134,0.86806 -11.78809,2.23787c-3.96775,1.4315 -11.52803,6.1742 -11.52803,6.1742z" fill="#000000" stroke="none" stroke-width="0" stroke-linecap="butt"/><path d="M245.19955,113.21172c-4.00971,-0.46256 -11.98713,0.52525 -11.98713,0.52525c0,0 6.9788,-2.71751 12.17093,-2.11857c5.19212,0.59895 12.45296,4.95912 12.45296,4.95912c0,0 -8.44646,-2.88242 -12.63676,-3.36581z" data-paper-data="{&quot;index&quot;:null}" fill="#000000" stroke="none" stroke-width="0" stroke-linecap="butt"/><g stroke-width="7.5" stroke-linecap="round"><path d="M193.4432,123.03671l29.20752,13.68969l8.14131,48.44926l-40.32361,-9.42663l-2.01667,-3.85095l-5.44675,-27.96432z" fill="#ff8300" stroke="#ff8300"/><path d="M265.67948,134.32542l1.11175,28.46813l-1.07975,4.21081l-37.08692,18.42318l-3.18704,-49.02504l25.28947,-20.02326z" data-paper-data="{&quot;index&quot;:null}" fill="#ffa900" stroke="#ffa900"/><path d="M282.17303,129.36925l3.18487,28.79651l-27.32145,10.50263l10.94521,-34.17963l-15.06471,-16.90617l-30.46889,17.89922l-30.82087,-10.35004l-12.40791,16.59619l14.30832,33.35558l-30.92745,-6.90613l-2.27915,-27.04684l-1.01255,-35.87184l15.26689,1.74941l38.68539,-19.72625l43.28339,12.14705l15.69744,-6.42712z" fill="#30433d" stroke="#30433d"/></g><path d="M197.15325,184.4676l60.20484,-6.99692l-6.83049,58.62345l-34.35931,3.15055z" fill="#476863" stroke="none" stroke-width="0" stroke-linecap="butt"/><path d="M154.77712,184.17386l-1.13674,-10.0341l4.31562,-4.91312l16.49204,3.15979l2.30315,7.21291l-12.69386,6.50765z" fill="#22302c" stroke="#22302c" stroke-width="2" stroke-linecap="round"/><path d="M176.00913,216.77278l-16.50356,-40.67371l40.00709,8.34842l16.5547,54.68083z" fill="#476863" stroke="none" stroke-width="0" stroke-linecap="butt"/><path d="M266.11598,206.87923l4.88926,-32.7017l9.51294,-3.82115l-7.31772,41.40281z" data-paper-data="{&quot;index&quot;:null}" fill="#456761" stroke="none" stroke-width="0" stroke-linecap="butt"/><path d="M170.48811,223.33325l-16.61797,-38.62104l10.13574,1.5376l12.25874,30.70878z" fill="#364c47" stroke="none" stroke-width="0" stroke-linecap="butt"/><path d="M199.02305,184.60113l-39.74364,-8.83357l14.73399,-4.50133l26.5986,7.24423z" fill="#2c4c45" stroke="none" stroke-width="0" stroke-linecap="butt"/><path d="M253.02778,172.68816l24.22823,-13.15125l15.3736,1.00225l-36.65844,17.71291z" data-paper-data="{&quot;index&quot;:null}" fill="#5f7f7c" stroke="none" stroke-width="0" stroke-linecap="butt"/><path d="M197.63187,184.89115l1.91465,-6.49934l54.44461,-6.32748l2.6357,5.97051z" fill="#446660" stroke="none" stroke-width="0" stroke-linecap="butt"/><path d="M246.70758,207.85181c1.04251,8.97022 -5.29264,17.07647 -14.1499,18.10585c-8.85728,1.02938 -16.88263,-5.40791 -17.92514,-14.37813c-1.04251,-8.97022 5.29263,-17.07651 14.14989,-18.10589c8.85728,-1.02938 16.88264,5.40795 17.92515,14.37817z" fill="#ff8300" stroke="#ff8300" stroke-width="2" stroke-linecap="butt"/><path d="M241.77296,208.42528c0.73641,6.33646 -3.63754,12.05088 -9.76949,12.76353c-6.13196,0.71265 -11.69989,-3.84635 -12.4363,-10.1828c-0.73641,-6.33646 3.63754,-12.05089 9.76951,-12.76354c6.13196,-0.71265 11.69987,3.84635 12.43629,10.18282z" fill="#ff8300" stroke="#ff8300" stroke-width="2" stroke-linecap="butt"/><path d="M236.88854,208.99294c0.41245,3.54891 -2.0373,6.74942 -5.47167,7.14856c-3.43437,0.39914 -6.55284,-2.15426 -6.96529,-5.70316c-0.41245,-3.54891 2.03731,-6.74942 5.47168,-7.14856c3.43437,-0.39914 6.55283,2.15423 6.96528,5.70316z" fill="#ffc100" stroke="#ff8300" stroke-width="2" stroke-linecap="butt"/><path d="M254.03917,230.54587l5.57248,-52.04815l30.72529,-15.1012l-5.88533,39.74075z" data-paper-data="{&quot;index&quot;:null}" fill="#ff8300" stroke="none" stroke-width="0" stroke-linecap="butt"/><path d="M176.17281,215.01077l-14.84259,-37.33178l33.36966,7.65217l17.36065,49.38289z" data-paper-data="{&quot;index&quot;:null}" fill="#ffc100" stroke="none" stroke-width="0" stroke-linecap="butt"/></g></g></g></svg>