<svg version="1.1" xmlns="http://www.w3.org/2000/svg" xmlns:xlink="http://www.w3.org/1999/xlink" width="34.17311" height="34.17311" viewBox="0,0,34.17311,34.17311"><g transform="translate(-222.91346,-162.91346)"><g data-paper-data="{&quot;isPaintingLayer&quot;:true}" stroke="none" stroke-miterlimit="10" stroke-dasharray="" stroke-dashoffset="0" style="mix-blend-mode: normal"><path d="M229.98313,162.91347h20.03379c3.9166,0 7.06966,3.15307 7.06966,7.06966v20.03379c0,3.91659 -3.15306,7.06966 -7.06966,7.06966h-20.03379c-3.91659,0 -7.06966,-3.15307 -7.06966,-7.06966v-20.03379c0,-3.91659 3.15307,-7.06966 7.06966,-7.06966z" fill-opacity="0.13218" fill="#1a1a1a" fill-rule="evenodd" stroke-width="4.43922" stroke-linecap="round" stroke-linejoin="round"/><path d="M234.38831,189.96872l-5.99659,-9.03713l2.32486,-13.72753l9.75629,9.65138l13.63781,2.41285l-8.30081,10.13509z" fill="#bfbfbf" fill-rule="nonzero" stroke-width="NaN" stroke-linecap="butt" stroke-linejoin="miter"/><path d="M224.94675,183.67435l1.36378,-14.89669l8.4974,7.65816l-4.19625,14.16235z" fill="#ffffff" fill-rule="nonzero" stroke-width="0" stroke-linecap="butt" stroke-linejoin="miter"/><path d="M235.02952,192.68221l8.14357,-10.80616l11.88025,0.91313l-10.97698,10.16256z" data-paper-data="{&quot;index&quot;:null}" fill="#ffffff" fill-rule="nonzero" stroke-width="0" stroke-linecap="butt" stroke-linejoin="miter"/><path d="M230.7909,167.33842l3.4088,-0.29011l7.71648,7.572l10.55012,1.97942l1.67856,2.85084l-13.27259,-2.32089z" fill="#ffffff" fill-rule="nonzero" stroke-width="0" stroke-linecap="butt" stroke-linejoin="miter"/></g></g></svg>