<svg version="1.1" xmlns="http://www.w3.org/2000/svg" xmlns:xlink="http://www.w3.org/1999/xlink" width="18.16287" height="23.9458" viewBox="0,0,18.16287,23.9458"><g transform="translate(-239.89762,-170.61135)"><g data-paper-data="{&quot;isPaintingLayer&quot;:true}" fill-rule="nonzero" stroke="none" stroke-linecap="butt" stroke-linejoin="miter" stroke-miterlimit="10" stroke-dasharray="" stroke-dashoffset="0" style="mix-blend-mode: normal"><path d="M249,170.61135c2.60747,0 4.76795,0.86908 6.48142,2.63357c1.68865,1.7645 2.53298,4.02936 2.53298,6.74194c0,2.71258 -0.84433,4.97745 -2.53298,6.74194c-1.71347,1.76449 -3.87395,2.6599 -6.48142,2.6599c-2.60747,0 -4.76795,-0.89542 -6.4566,-2.6599c-1.71348,-1.7645 -2.55781,-4.02936 -2.55781,-6.74194c0,-2.71258 0.84433,-4.97745 2.55781,-6.74194c1.68865,-1.76449 3.84913,-2.63357 6.4566,-2.63357zM245.07638,175.66778c-1.04299,1.13243 -1.56448,2.55456 -1.56448,4.29272c0,1.7645 0.52149,3.21296 1.56448,4.3454c1.01816,1.15877 2.33431,1.73816 3.92363,1.73816c1.61415,0 2.9303,-0.57939 3.9733,-1.71182c1.01816,-1.13244 1.53965,-2.60724 1.53965,-4.37173c0,-1.73816 -0.52149,-3.16028 -1.53965,-4.29272c-1.043,-1.13244 -2.35914,-1.68549 -3.9733,-1.68549c-1.58931,0 -2.90547,0.55305 -3.92363,1.68549z" fill="#000000" stroke-width="0.35808"/><path d="M239.89762,194.55715v-23.65909h18.16287v23.65909z" fill-opacity="0.00403" fill="#808080" stroke-width="0"/></g></g></svg>