<svg version="1.1" xmlns="http://www.w3.org/2000/svg" xmlns:xlink="http://www.w3.org/1999/xlink" width="34.17311" height="34.17311" viewBox="0,0,34.17311,34.17311"><g transform="translate(-222.91346,-162.91346)"><g data-paper-data="{&quot;isPaintingLayer&quot;:true}" stroke-miterlimit="10" stroke-dasharray="" stroke-dashoffset="0" style="mix-blend-mode: normal"><path d="M229.98313,162.91347h20.03379c3.9166,0 7.06966,3.15307 7.06966,7.06966v20.03379c0,3.91659 -3.15306,7.06966 -7.06966,7.06966h-20.03379c-3.91659,0 -7.06966,-3.15307 -7.06966,-7.06966v-20.03379c0,-3.91659 3.15307,-7.06966 7.06966,-7.06966z" fill-opacity="0.59677" fill="#5e807a" fill-rule="evenodd" stroke="none" stroke-width="4.43922" stroke-linecap="round" stroke-linejoin="round"/><g fill-rule="nonzero" stroke="#5e807a" stroke-linejoin="miter"><path d="M227.70205,180c0,-6.79197 5.50599,-12.29796 12.29796,-12.29796c6.79197,0 12.29796,5.50599 12.29796,12.29796c0,6.79197 -5.50599,12.29796 -12.29796,12.29796c-6.79197,0 -12.29796,-5.50599 -12.29796,-12.29796z" fill="#000000" stroke-width="2" stroke-linecap="butt"/><path d="M236.47516,180c0,-1.94672 1.57813,-3.52485 3.52485,-3.52485c1.94672,0 3.52485,1.57813 3.52485,3.52485c0,1.94672 -1.57813,3.52485 -3.52485,3.52485c-1.94672,0 -3.52485,-1.57813 -3.52485,-3.52485z" fill="#000000" stroke-width="2" stroke-linecap="butt"/><path d="M244.28217,171.74322c0,0 1.2013,0.26603 2.47096,1.57332c1.13234,1.1659 1.38751,2.57988 1.38751,2.57988" fill="none" stroke-width="1.5" stroke-linecap="round"/></g></g></g></svg>