<svg version="1.1" xmlns="http://www.w3.org/2000/svg" xmlns:xlink="http://www.w3.org/1999/xlink" width="34.17311" height="34.17311" viewBox="0,0,34.17311,34.17311"><g transform="translate(-222.91346,-162.91346)"><g data-paper-data="{&quot;isPaintingLayer&quot;:true}" stroke-miterlimit="10" stroke-dasharray="" stroke-dashoffset="0" style="mix-blend-mode: normal"><path d="M229.98313,162.91347h20.03379c3.9166,0 7.06966,3.15307 7.06966,7.06966v20.03379c0,3.91659 -3.15306,7.06966 -7.06966,7.06966h-20.03379c-3.91659,0 -7.06966,-3.15307 -7.06966,-7.06966v-20.03379c0,-3.91659 3.15307,-7.06966 7.06966,-7.06966z" fill-opacity="0.59677" fill="#5e807a" fill-rule="evenodd" stroke="none" stroke-width="4.43922" stroke-linecap="round" stroke-linejoin="round"/><path d="M252.0543,191.91937l-2.92589,-1.343l3.48928,-4.42695l1.93002,2.73504z" fill="#5e807a" fill-rule="nonzero" stroke="none" stroke-width="0" stroke-linecap="butt" stroke-linejoin="miter"/><path d="M249.00601,191.89328l-5.88277,-1.97431l6.65123,-9.60065l4.33583,5.28887z" fill="#000000" fill-rule="nonzero" stroke="none" stroke-width="0" stroke-linecap="butt" stroke-linejoin="miter"/><path d="M227.60447,179.8753c0,-5.9821 4.84947,-10.83157 10.83157,-10.83157c5.9821,0 10.83157,4.84947 10.83157,10.83157c0,5.9821 -4.84947,10.83158 -10.83157,10.83158c-5.9821,0 -10.83157,-4.84947 -10.83157,-10.83158z" fill="#5e807a" fill-rule="nonzero" stroke="#000000" stroke-width="3" stroke-linecap="butt" stroke-linejoin="miter"/><path d="M234.76433,179.8753c0,-2.02784 1.64389,-3.67172 3.67172,-3.67172c2.02783,0 3.67172,1.64388 3.67172,3.67172c0,2.02784 -1.64389,3.67172 -3.67172,3.67172c-2.02783,0 -3.67172,-1.64389 -3.67172,-3.67172z" fill="#000000" fill-rule="nonzero" stroke="none" stroke-width="3" stroke-linecap="butt" stroke-linejoin="miter"/><path d="M248.24571,177.44106l-9.83577,2.34099" fill="none" fill-rule="nonzero" stroke="#000000" stroke-width="2" stroke-linecap="round" stroke-linejoin="miter"/></g></g></svg>