<svg version="1.1" xmlns="http://www.w3.org/2000/svg" xmlns:xlink="http://www.w3.org/1999/xlink" width="150.04303" height="267.22501" viewBox="0,0,150.04303,267.22501"><g transform="translate(-164.97849,-46.38749)"><g data-paper-data="{&quot;isPaintingLayer&quot;:true}" fill-rule="nonzero" stroke-linejoin="miter" stroke-miterlimit="10" stroke-dasharray="" stroke-dashoffset="0" style="mix-blend-mode: normal"><path d="M170.77992,139.84617c0,-1.65654 -5.80143,-1.9233 -5.80143,-1.9233c0,0 6.69584,-8.87746 7.35214,-11.71771c6.65986,-28.82218 23.99043,-56.21969 66.68631,-56.74538c45.68643,-0.56252 68.23702,35.01087 68.23702,70.3864c0,0.66795 3.07779,7.31159 4.43041,10.36634c2.27861,5.14598 3.33715,7.45866 3.33715,7.45866c0,0 -2.64733,-1.66693 -4.82385,-3.56682c-2.14071,-1.86864 -3.80963,-3.97893 -3.99144,-3.01508c-0.43459,2.30399 -0.59561,10.92242 -4.12876,19.9176c-3.49395,8.89536 -10.36285,18.18124 -10.36285,18.18124c0,0 -2.29192,-5.28642 -3.77673,-3.14158c-6.07718,8.77862 -11.2964,15.30957 -11.2964,15.30957c0,0 -2.40974,-4.97718 -4.47106,-3.86765c-9.32569,5.01966 -20.06286,7.91078 -31.65348,7.91078c-12.60656,0 -24.772,-3.56633 -35.27102,-9.52744c-2.72845,-1.54916 -0.82623,4.38789 -0.82623,4.38789c0,0 -7.93843,-5.19677 -13.15685,-11.00681c-6.08759,-6.77777 -9.73663,-14.57056 -12.13914,-18.68944c-0.34082,-0.58431 -4.01999,1.58785 -5.934,2.01254c-2.96082,0.65696 -4.48364,-0.08182 -4.48364,-0.08182c0,0 2.67098,-3.37669 3.55098,-5.15497c0.94364,-1.90688 1.93325,-5.92746 1.93325,-5.92746c0,0 -2.66402,1.90888 -4.05965,2.38502c-1.48595,0.50696 -4.60208,0.57008 -4.60208,0.57008c0,0 4.39229,-5.64339 5.74307,-11.5602c1.27257,-5.57422 -0.4917,-11.39111 -0.4917,-12.96047z" fill="#000000" stroke="#000000" stroke-width="0" stroke-linecap="butt"/><path d="M178.66697,313.61251v-267.22501h123.18203v267.22501z" fill-opacity="0.01" fill="#000000" stroke="none" stroke-width="0" stroke-linecap="butt"/><path d="M206.13329,307.49998l15.14285,-131.8421l37.78325,-0.15789l13.57389,132z" fill="#000000" stroke="#000000" stroke-width="2" stroke-linecap="butt"/><path d="M259.51106,306.35455c0,0 -12.63389,2.23027 -20.72161,-2.64289c-5.49217,-3.30924 -6.81003,-11.02922 -9.71443,-17.25896c-5.42766,-11.64198 -9.23618,-33.05118 -9.23618,-33.05118l45.44827,-28.37815l8.22517,83.74203z" fill="#031718" stroke="none" stroke-width="0" stroke-linecap="butt"/><path d="M229.38338,299.04123c-1.74425,-3.3722 -6.22333,-11.78411 -8.97678,-20.75994c-3.1109,-10.14104 -4.4103,-20.77963 -4.37687,-21.53458c0.08873,-2.00336 1.26397,-4.44316 1.26397,-4.44316c0,0 19.55104,25.96461 22.86336,30.66399c0.97764,1.38703 0.83803,2.96257 0.83803,2.96257c0,0 -2.85557,-2.08491 -5.93891,-4.01476c-0.91569,-0.57312 -5.16114,-4.87865 -8.58829,-9.62843c-0.91935,-1.27414 -5.78318,-9.17615 -6.19949,-9.12402c-0.91343,0.1144 3.74661,9.37019 3.74661,9.37019c0,0 4.05038,12.87608 7.68025,20.16133c1.17207,2.35239 4.41299,7.68402 8.21015,9.78502c2.87636,1.59152 6.07189,-0.54921 8.92908,3.5255c0.67204,0.95841 -12.72069,0.67778 -12.72069,0.67778c0,0 -5.23496,-4.75034 -6.7304,-7.64149z" fill="#5f7f7c" stroke="none" stroke-width="0" stroke-linecap="butt"/><path d="M212.64172,218.88905l-5.14481,-30.34849c0,0 5.63273,-1.48337 9.65613,1.04387c7.32517,4.60119 15.82323,15.61805 23.15058,15.61805c3.79219,0 10.42946,-1.99725 15.17877,-5.08056c4.48739,-2.91325 7.29714,-7.94099 11.41216,-10.13805c5.40253,-2.88446 11.032,-1.44331 11.032,-1.44331l-8.72382,30.7107c0,0 -18.99423,4.58717 -28.44897,4.52662c-9.39858,-0.06019 -28.11202,-4.88883 -28.11202,-4.88883z" fill="#000000" stroke="none" stroke-width="0" stroke-linecap="butt"/><path d="M228.12762,214.62638c5.27193,4.67391 12.63015,7.06451 13.10725,10.70449c0.26502,2.02196 -20.2425,12.77744 -20.78777,12.85914c-1.16891,0.17513 -14.49152,-24.31254 -20.18417,-37.86996c-1.11128,-2.64659 -2.42575,-7.83323 -0.47505,-11.36761c1.58852,-2.87816 12.09985,-5.91456 12.09985,-5.91456l3.23814,6.71824c0,0 -6.73853,-0.36646 -4.69934,4.71451c2.11598,5.27228 13.0931,16.07049 17.7011,20.15576z" fill="#142d2b" stroke="none" stroke-width="0" stroke-linecap="butt"/><path d="M272.0994,194.63448c2.03921,-5.08096 -4.69933,-4.71451 -4.69933,-4.71451l3.23814,-6.71824c0,0 10.51132,3.0364 12.09985,5.91456c1.95069,3.53436 0.63622,8.72102 -0.47506,11.3676c-1.21966,2.90471 -5.17385,12.95397 -10.50499,22.5863c-5.09674,9.20881 -11.55437,18.01288 -13.72691,20.83651c-2.0595,2.67674 -16.47759,17.32793 -16.6926,17.29573c-0.10848,-0.01626 -0.55783,-1.23855 -2.02308,-2.54069c-2.08274,-1.85091 -5.42119,-4.50836 -8.63969,-7.42143c-5.89715,-5.33754 -11.79236,-11.20887 -11.65502,-12.25666c0.4771,-3.63997 30.10564,-19.51949 35.37758,-24.1934c4.60799,-4.08528 15.58512,-14.88347 17.7011,-20.15576z" data-paper-data="{&quot;index&quot;:null}" fill="#2c4c45" stroke="none" stroke-width="0" stroke-linecap="butt"/><g stroke="none" stroke-width="0" stroke-linecap="butt"><path d="M233.03119,239.63271l0.16667,-2.42897l16.50024,14.57384v2.29404z" fill="#bed3e5"/><path d="M249.69812,254.13908v-2.29404l4.95841,-5.22904l0.16667,2.49645z" data-paper-data="{&quot;index&quot;:null}" fill="#d4ecfe"/><path d="M233.17955,237.20704l5.66679,-4.15047l16.03682,13.30106l-5.28342,5.5215z" fill="#8fa7b3"/></g><path d="M219.08351,204.11262l3.12142,-26.32765l35.83075,-0.14203l2.76735,26.1059c0,0 -7.51543,4.19603 -21.55904,4.50964c-12.48458,0.27879 -20.16049,-4.14586 -20.16049,-4.14586z" fill="#bed3e5" stroke="#000000" stroke-width="0" stroke-linecap="butt"/><path d="M175.22319,136.84615c0,-33.30185 28.7599,-60.29833 64.23702,-60.29833c35.47712,0 64.23702,26.99649 64.23702,60.29833c0,33.30185 -28.7599,60.29833 -64.23702,60.29833c-35.47712,0 -64.23702,-26.99649 -64.23702,-60.29833z" fill="#ffffff" stroke="#000000" stroke-width="2" stroke-linecap="butt"/><path d="M175.94625,136.89998c0,-0.72799 5.20666,55.91939 63.36046,56.93429c55.56352,0.9697 63.51358,-57.95314 63.51358,-56.93429c0,32.80479 -28.40173,59.39833 -63.43702,59.39833c-35.03529,0 -63.43702,-26.59354 -63.43702,-59.39833z" fill="#e6e6e6" stroke="#000000" stroke-width="0" stroke-linecap="butt"/><path d="M188.77342,137.27561c0,-12.968 10.51265,-23.48065 23.48065,-23.48065c12.968,0 23.48065,10.51265 23.48065,23.48065c0,12.968 -10.51265,23.48065 -23.48065,23.48065c-12.968,0 -23.48065,-10.51265 -23.48065,-23.48065z" fill="#ffffff" stroke="#000000" stroke-width="2" stroke-linecap="butt"/><path d="M195.83879,136.99999c0,-9.12808 7.39976,-16.52784 16.52783,-16.52784c9.12808,0 16.52784,7.39977 16.52784,16.52784c0,9.12808 -7.39977,16.52784 -16.52784,16.52784c-9.12808,0 -16.52783,-7.39977 -16.52783,-16.52784z" fill="#000000" stroke="none" stroke-width="0" stroke-linecap="butt"/><path d="M251.99987,176.65642h-25.10959" fill="none" stroke="#000000" stroke-width="2" stroke-linecap="round"/><path d="M266.5125,160.75626c-12.968,0 -23.48065,-10.51265 -23.48065,-23.48065c0,-12.968 10.51265,-23.48065 23.48065,-23.48065c12.968,0 23.48065,10.51265 23.48065,23.48065c0,12.968 -10.51265,23.48065 -23.48065,23.48065z" data-paper-data="{&quot;index&quot;:null}" fill="#ffffff" stroke="#000000" stroke-width="2" stroke-linecap="butt"/><path d="M266.39993,153.52783c-9.12807,0 -16.52783,-7.39977 -16.52783,-16.52784c0,-9.12808 7.39977,-16.52784 16.52783,-16.52784c9.12807,0 16.52783,7.39977 16.52783,16.52784c0,9.12808 -7.39977,16.52784 -16.52783,16.52784z" data-paper-data="{&quot;index&quot;:null}" fill="#000000" stroke="none" stroke-width="0" stroke-linecap="butt"/><path d="M188.77342,137.27561c0,-12.968 10.51265,-23.48065 23.48065,-23.48065c12.968,0 23.48065,10.51265 23.48065,23.48065c0,0 -46.96131,1.23155 -46.96131,0z" fill="#ffffff" stroke="#000000" stroke-width="2" stroke-linecap="butt"/><path d="M243.03185,137.27561c0,-12.968 10.51265,-23.48065 23.48065,-23.48065c12.968,0 23.48065,10.51265 23.48065,23.48065c0,1.2138 -46.96131,0 -46.96131,0z" data-paper-data="{&quot;index&quot;:null}" fill="#ffffff" stroke="#000000" stroke-width="2" stroke-linecap="butt"/><path d="M201.4111,108.46715c0,0 6.70895,-5.16922 11.79721,-6.36355c5.08827,-1.19433 12.33413,0.69937 12.33413,0.69937c0,0 -8.03812,-0.06028 -11.96762,0.86207c-4.10648,0.96389 -12.16372,4.80211 -12.16372,4.80211z" fill="#000000" stroke="none" stroke-width="0" stroke-linecap="butt"/><path d="M180.30231,107.13722c11.42496,-22.68233 31.40973,-33.07142 60.56473,-32.85267c24.16321,0.18129 39.14424,9.27509 47.64651,17.23625c0.95139,0.89084 -11.16905,5.58091 -18.25999,7.52146c-15.29703,4.18628 -30.35723,6.25195 -30.35723,6.25195l6.65013,-11.17032c0,0 -23.70536,7.34319 -34.98048,9.59002c-11.17264,2.22641 -31.26367,3.4233 -31.26367,3.4233z" fill="#000000" stroke="none" stroke-width="0" stroke-linecap="butt"/><path d="M283.55339,153.36125l3.89562,-27.76697l21.426,6.27777l-2.50432,18.35035z" fill="#a7bccd" stroke="#000000" stroke-width="0" stroke-linecap="butt"/><path d="M229.86972,166.91654c0,0 6.50474,-19.34428 7.08848,-29.81172c0.64949,-11.64745 -3.36773,-36.91183 -3.36773,-36.91183l56.43099,18.76598l-6.12368,40.76058z" fill="#2c4c45" stroke="none" stroke-width="0" stroke-linecap="butt"/><path d="M195.98564,140.39367c1.66069,5.50196 3.4052,12.38798 1.27002,13.00128c-2.13518,0.6133 -5.82065,-7.35542 -7.48134,-12.85735c-1.66069,-5.50196 -0.66771,-10.45934 1.46745,-11.07264c2.13518,-0.6133 3.08315,5.42675 4.74386,10.92871z" fill="#ffffff" stroke="#000000" stroke-width="2.5" stroke-linecap="butt"/><path d="M206.96752,131.18074c0,0 0.79794,-0.95005 -0.37189,-0.95201c-1.35813,-0.00225 -6.54513,0.91123 -8.90036,0.72483c-1.03555,-0.08195 -0.62427,-1.25394 -0.61943,-1.32707c0.03768,-0.56982 10.13945,-2.19205 10.13945,-2.19205c0,0 5.72961,-3.09656 8.31496,-3.37139c3.54718,-0.37709 13.85989,-0.49576 13.85989,-0.49576l0.12389,5.07563c0,0 -6.38645,-0.3307 -8.77081,-0.04482c-4.06625,0.48752 -13.77568,2.58263 -13.77568,2.58263z" fill="#000000" stroke="#000000" stroke-width="1.5" stroke-linecap="butt"/><path d="M231.746,143.55469l-1.09441,-4.76722l7.48391,0.18103l-0.48778,4.6597z" fill="#ffffff" stroke="none" stroke-width="0" stroke-linecap="butt"/><path d="M229.99086,140.3832c0,6.36318 -6.94267,12.18389 -13.65413,12.18389c-6.71146,0 -13.37728,-5.25372 -13.37728,-11.61688c0,-6.36318 7.00906,-12.42339 13.7205,-12.42339c6.71146,0 13.31088,5.49321 13.31088,11.8564z" fill="#ffffff" stroke="#000000" stroke-width="3" stroke-linecap="butt"/><path d="M210.60507,141.91619c0,-2.95535 2.58199,-5.35115 5.767,-5.35115c3.185,0 5.767,2.39578 5.767,5.35115c0,2.95535 -2.58196,5.35115 -5.767,5.35115c-3.185,0 -5.767,-2.39578 -5.767,-5.35115z" fill="#000000" stroke="#000000" stroke-width="2" stroke-linecap="butt"/><path d="M206.22137,131.99734c2.28126,-1.98763 7.69456,-3.18544 10.48073,-3.18544c3.0458,0 7.78459,1.40813 10.08901,3.62618c2.77004,2.6662 4.66606,9.22153 4.66606,9.22153l-28.58576,-0.29213c0,0 0.13966,-6.57307 3.34998,-9.37017z" data-paper-data="{&quot;index&quot;:null}" fill="#ffffff" stroke="#000000" stroke-width="2.5" stroke-linecap="butt"/><path d="M170.38268,131.79053c0,-23.45832 19.01673,-42.47507 42.47508,-42.47507c23.45834,0 42.47507,19.01673 42.47507,42.47507c0,23.45833 -19.01673,42.47508 -42.47507,42.47508c-23.45834,0 -42.47508,-19.01672 -42.47508,-42.47506z" fill="#2c4c45" stroke="none" stroke-width="NaN" stroke-linecap="butt"/><g stroke-linecap="butt"><g fill="#000000" stroke="#000000" stroke-width="1"><path d="M176.40741,131.47554c0,-19.98385 16.20013,-36.18394 36.18394,-36.18394c19.98384,0 36.18394,16.20011 36.18394,36.18394c0,19.98385 -16.20012,36.18394 -36.18394,36.18394c-19.98384,0 -36.18394,-16.20012 -36.18394,-36.18394z"/><path d="M201.62158,131.63926c0,-5.96801 4.83803,-10.80606 10.80608,-10.80606c5.96802,0 10.80606,4.83803 10.80606,10.80606c0,5.96801 -4.83803,10.80607 -10.80606,10.80607c-5.96802,0 -10.80608,-4.83803 -10.80608,-10.80607z"/></g><g><path d="M184.26131,131.47554c0,-15.80117 12.80938,-28.61056 28.61056,-28.61056c15.80118,0 28.61055,12.80938 28.61055,28.61056c0,15.80118 -12.80938,28.61056 -28.61055,28.61056c-15.80117,0 -28.61056,-12.80938 -28.61056,-28.61056z" fill="#944009" stroke="#de6000" stroke-width="2.5"/><path d="M204.19809,131.605c0,-4.71891 3.82543,-8.54433 8.54433,-8.54433c4.71891,0 8.54433,3.82541 8.54433,8.54433c0,4.71892 -3.8254,8.54434 -8.54433,8.54434c-4.71891,0 -8.54433,-3.82544 -8.54433,-8.54434z" fill="#ffffff" stroke="#ffa300" stroke-width="4.5"/></g></g></g></g></svg>