<svg version="1.1" xmlns="http://www.w3.org/2000/svg" xmlns:xlink="http://www.w3.org/1999/xlink" width="597.53134" height="453.45345" viewBox="0,0,597.53134,453.45345"><defs><radialGradient cx="243.5" cy="173.71816" r="247" gradientUnits="userSpaceOnUse" id="color-1"><stop offset="0" stop-color="#ff6f00"/><stop offset="1" stop-color="#060f10"/></radialGradient><linearGradient x1="241.33645" y1="-14.62528" x2="241.33645" y2="338.57725" gradientUnits="userSpaceOnUse" id="color-2"><stop offset="0" stop-color="#fa7900"/><stop offset="1" stop-color="#d97c04"/></linearGradient><linearGradient x1="239.99999" y1="152.84691" x2="239.99999" y2="360" gradientUnits="userSpaceOnUse" id="color-3"><stop offset="0" stop-color="#000000" stop-opacity="0"/><stop offset="1" stop-color="#000000"/></linearGradient></defs><g transform="translate(58.76567,46.72672)"><g data-paper-data="{&quot;isPaintingLayer&quot;:true}" fill-rule="nonzero" stroke-miterlimit="10" stroke-dasharray="" stroke-dashoffset="0" style="mix-blend-mode: normal"><path d="M-3.5,384.46035v-421.48437h494v421.48437z" fill="url(#color-1)" stroke="none" stroke-width="0" stroke-linecap="butt" stroke-linejoin="miter"/><path d="M-33.52703,376.11478l263.88339,-390.74007l289.67218,390.69577z" fill="url(#color-2)" stroke="#000000" stroke-width="0" stroke-linecap="round" stroke-linejoin="miter"/><path d="M183.25,55.84691l99,-0.5" fill="none" stroke="#ffffff" stroke-width="1" stroke-linecap="round" stroke-linejoin="miter"/><path d="M161.25,87.84691h144" fill="none" stroke="#ffffff" stroke-width="1" stroke-linecap="round" stroke-linejoin="miter"/><path d="M328.75,120.34691l-190.5,1.5" fill="none" stroke="#ffffff" stroke-width="1" stroke-linecap="round" stroke-linejoin="miter"/><path d="M356.25,152.84691l-241,3" fill="none" stroke="#ffffff" stroke-width="1" stroke-linecap="round" stroke-linejoin="miter"/><path d="M93.25,189.34691l286,-3" fill="none" stroke="#ffffff" stroke-width="1" stroke-linecap="round" stroke-linejoin="miter"/><path d="M400.75,216.34691l-329,4" fill="none" stroke="#ffffff" stroke-width="1" stroke-linecap="round" stroke-linejoin="miter"/><path d="M54.75,249.97598l367.5,-6" fill="none" stroke="#ffffff" stroke-width="1" stroke-linecap="round" stroke-linejoin="miter"/><path d="M448.75,279.97598l-417.5,1.5" fill="none" stroke="#ffffff" stroke-width="1" stroke-linecap="round" stroke-linejoin="miter"/><path d="M467.75,305.47598l-452.5,1" fill="none" stroke="#ffffff" stroke-width="1" stroke-linecap="round" stroke-linejoin="miter"/><path d="M210.25,17.47597h43" fill="none" stroke="#ffffff" stroke-width="1" stroke-linecap="round" stroke-linejoin="miter"/><g stroke-linejoin="miter"><path d="M295.46407,187.02539c0.18523,-1.74142 -5.88363,-2.67054 -5.88363,-2.67054c0,0 8.03157,-8.58362 9.03909,-11.49601c2.3538,-6.80416 5.29373,-13.46569 8.97357,-19.6381c9.122,1.23897 18.38957,1.51875 27.91789,1.51715c8.62955,-0.00146 17.19135,0.03641 25.85288,0.11751c4.19589,0.03929 14.61814,4.57617 19.7214,5.14538c11.65781,1.30026 30.72879,1.7135 43.87085,5.6823c3.559,1.0748 7.19134,2.06573 10.87415,2.96809c3.31469,10.74784 4.30425,22.31749 3.10052,33.63434c-0.07469,0.70218 2.41793,8.03037 3.49828,11.39288c1.81995,5.66443 2.67413,8.21398 2.67413,8.21398c0,0 -2.59658,-2.04835 -4.67218,-4.28897c-2.04146,-2.20375 -3.55991,-4.60878 -3.85882,-3.61588c-0.71448,2.37345 -1.84744,11.41546 -6.56743,20.47647c-4.66762,8.96046 -12.9268,17.95406 -12.9268,17.95406c0,0 -1.81824,-5.81356 -3.61896,-3.72486c-7.37016,8.54889 -13.58708,14.83087 -13.58708,14.83087c0,0 -1.97667,-5.50165 -4.26767,-4.56577c-10.3648,4.23409 -21.9754,6.07274 -34.1599,4.77672c-13.25249,-1.40963 -25.64249,-6.519 -36.01291,-13.95951c-2.69503,-1.93362 -1.35921,4.52033 -1.35921,4.52033c0,0 -7.76409,-6.3507 -12.60023,-13.04193c-5.64164,-7.80574 -8.60628,-16.40585 -10.67133,-21.00441c-0.29294,-0.65236 -4.40351,1.21971 -6.46308,1.45214c-3.18598,0.35955 -4.70423,-0.58736 -4.70423,-0.58736c0,0 3.18541,-3.25104 4.30933,-5.02205c1.20522,-1.89907 2.69509,-6.015 2.69509,-6.015c0,0 -3.01397,1.7088 -4.53434,2.05329c-1.61878,0.36678 -4.90162,0.0847 -4.90162,0.0847c0,0 5.24837,-5.44141 7.32996,-11.51035c1.96106,-5.71753 0.75683,-12.02975 0.9323,-13.67952z" fill="#000000" stroke="#000000" stroke-width="0" stroke-linecap="butt"/><path d="M371.98537,158.43142l0.51226,-0.68377c0.6214,0.19901 1.2403,0.39572 1.85023,0.5854c-1.5117,0.07255 -2.36248,0.09838 -2.36248,0.09838z" fill="#000000" stroke="none" stroke-width="0" stroke-linecap="butt"/><path d="M309.13179,153.70523c0.05677,-0.08808 0.11368,-0.17596 0.17068,-0.26361c1.27575,0.15659 2.55447,0.29531 3.83649,0.418c-2.47177,-0.08304 -4.00383,-0.15425 -4.00716,-0.1544z" fill="#000000" stroke="none" stroke-width="0" stroke-linecap="butt"/><path d="M309.13179,153.70523c0,0 0,0 0.00001,0c0,0 0,0.00001 -0.00001,0.00001z" fill="#000000" stroke="none" stroke-width="0" stroke-linecap="butt"/><path d="M295.4641,187.02539c0.18523,-1.74142 -5.88363,-2.67054 -5.88363,-2.67054c0,0 8.03157,-8.58362 9.03909,-11.49601c2.19224,-6.33713 4.89291,-12.55054 8.22624,-18.36029c3.67875,0.21169 6.48622,0.31226 7.79376,0.4664c10.19503,1.20176 20.12752,4.11041 30.35742,5.26082c27.01791,3.03829 53.77672,7.22188 80.78078,10.11625c3.42112,0.3667 7.11958,0.78677 10.89069,1.22877c2.63681,9.90767 3.35781,20.41588 2.26234,30.71475c-0.07469,0.70218 2.41793,8.03037 3.49828,11.39288c1.81995,5.66443 2.67413,8.21398 2.67413,8.21398c0,0 -2.59658,-2.04835 -4.67218,-4.28897c-2.04146,-2.20375 -3.55991,-4.60878 -3.85882,-3.61588c-0.71448,2.37345 -1.84744,11.41546 -6.56743,20.47647c-4.66762,8.96046 -12.9268,17.95406 -12.9268,17.95406c0,0 -1.81824,-5.81356 -3.61896,-3.72486c-7.37016,8.54889 -13.58708,14.83087 -13.58708,14.83087c0,0 -1.97667,-5.50165 -4.26767,-4.56577c-10.3648,4.23409 -21.9754,6.07274 -34.1599,4.77672c-13.25249,-1.40963 -25.64249,-6.519 -36.01291,-13.95951c-2.69503,-1.93362 -1.35921,4.52033 -1.35921,4.52033c0,0 -7.76409,-6.3507 -12.60023,-13.04193c-5.64164,-7.80574 -8.60628,-16.40585 -10.67133,-21.00441c-0.29294,-0.65236 -4.40351,1.21971 -6.46308,1.45214c-3.18598,0.35955 -4.70423,-0.58736 -4.70423,-0.58736c0,0 3.18541,-3.25104 4.30933,-5.02205c1.20522,-1.89907 2.69509,-6.015 2.69509,-6.015c0,0 -3.01397,1.7088 -4.53434,2.05329c-1.61878,0.36678 -4.90162,0.0847 -4.90162,0.0847c0,0 5.24837,-5.44141 7.32996,-11.51035c1.96106,-5.71753 0.75683,-12.02975 0.9323,-13.67952z" fill="#000000" stroke="#000000" stroke-width="0" stroke-linecap="butt"/><path d="M313.88239,367.22255l30.66091,-136.90421l39.73685,4.05883l-0.49044,140.28121z" fill="#2c4c45" stroke="#000000" stroke-width="0" stroke-linecap="butt"/><path d="M339.05661,259.98589l6.22524,-27.3276l37.68253,3.85718l-0.00994,27.75295c0,0 -8.36969,3.57067 -23.16794,2.33005c-13.15544,-1.10291 -20.7299,-6.61256 -20.7299,-6.61256z" fill="#e6e6e6" stroke="#000000" stroke-width="0" stroke-linecap="butt"/><path d="M334.83112,298.22878l48.53135,-9.38357l-0.93943,30.80968l-45.58587,10.99559z" fill="#142d2b" stroke="#142d2b" stroke-width="0.5" stroke-linecap="round"/><path d="M346.74006,250.94648c3.18088,-0.8831 5.95266,-2.64385 8.70169,-2.35722c0.9207,0.09601 12.93624,0.35842 14.71196,0.91665c2.92722,0.92022 5.14412,3.5392 7.82861,5.033c9.97865,5.55275 18.21795,12.33112 18.21795,12.33112c0,0 1.34883,2.63734 1.17492,4.27243c-0.28401,2.67011 -3.61163,10.28074 -3.61163,10.28074c0,0 -7.50253,16.60304 -10.02712,16.41162c-0.95214,-0.07218 -32.60598,14.17695 -33.80296,13.7416c-1.47523,-0.53655 -0.03975,14.46104 -3.51391,19.11412c-2.00715,2.68824 -11.62428,6.89339 -12.33866,6.33498c-0.36432,-0.28477 -10.9162,-7.82168 -11.11382,-8.43146c-0.23489,-0.72473 10.68161,-49.67314 10.68161,-49.67314c0,0 2.93036,-25.15345 13.09138,-27.97444z" fill="#000000" stroke="none" stroke-width="0" stroke-linecap="butt"/><g stroke="none" stroke-width="0" stroke-linecap="butt"><path d="M312.04195,267.17059l9.02935,-13.3731l19.25344,1.65222l-1.522,5.00856z" fill="#142d2b"/><path d="M330.20516,292.03653l-18.36615,-24.95862l27.10869,-6.78876l7.30295,12.09798z" fill="#2c4c45"/><path d="M356.16145,307.64157l-26.36697,-15.57347l16.52955,-19.71298l12.48538,9.82592z" fill="#456761"/></g><g data-paper-data="{&quot;index&quot;:null}" stroke="none" stroke-width="0" stroke-linecap="butt"><path d="M382.98567,265.20622l-0.43436,-5.21664l19.17021,2.43477l6.01425,14.97326z" fill="#2c4c45"/><path d="M373.19517,275.30149l9.6844,-10.29108l25.07408,12.33927l-23.20534,20.53678z" fill="#789396"/><path d="M358.85718,282.23451l14.27295,-6.97972l12.013,22.74896l-29.05294,9.67863z" fill="#5f7f7c"/></g><path d="M300.4705,184.36844c1.17504,-11.04704 5.29039,-21.11383 11.54525,-29.59434c1.14082,0.06277 2.0346,0.12135 2.62382,0.19081c10.19503,1.20176 20.12752,4.11041 30.35742,5.26082c27.01791,3.03829 53.77672,7.22188 80.78078,10.11625c1.98589,0.21285 4.06524,0.4437 6.198,0.68638c3.24943,8.63538 4.57958,18.04046 3.55154,27.70567c-3.72371,35.00817 -36.97587,60.17206 -74.27077,56.20511c-37.29489,-3.96694 -64.50974,-35.56252 -60.78603,-70.57068z" fill="#ffffff" stroke="#000000" stroke-width="2" stroke-linecap="butt"/><path d="M301.22457,184.50594c0.0814,-0.76529 -0.77929,59.36678 60.24071,66.93626c58.30206,7.23232 73.24803,-53.82065 73.13411,-52.74959c-3.66813,34.48564 -36.49872,59.26599 -73.32915,55.34845c-36.83043,-3.91754 -63.71381,-35.04947 -60.04568,-69.53512z" fill="#e6e6e6" stroke="#000000" stroke-width="0" stroke-linecap="butt"/><path d="M314.66699,186.33511c1.45004,-13.63246 13.67683,-23.50826 27.30929,-22.05822c13.63246,1.45004 23.50826,13.67683 22.05822,27.30929c-1.45004,13.63246 -13.67683,23.50826 -27.30929,22.05822c-13.63246,-1.45004 -23.50826,-13.67683 -22.05822,-27.30929z" fill="#ffffff" stroke="#000000" stroke-width="2" stroke-linecap="butt"/><path d="M322.1252,186.83533c1.02067,-9.59578 9.62701,-16.54727 19.22278,-15.5266c9.59578,1.02067 16.54727,9.62702 15.52661,19.22279c-1.02067,9.59578 -9.62702,16.54727 -19.22279,15.52661c-9.59578,-1.02067 -16.54726,-9.62702 -15.52659,-19.22279z" fill="#000000" stroke="none" stroke-width="0" stroke-linecap="butt"/><path d="M350.33344,231.99581l26.39616,2.80768" fill="none" stroke="#000000" stroke-width="2" stroke-linecap="round"/><path d="M393.76369,219.71132c-13.63246,-1.45004 -23.50826,-13.67683 -22.05822,-27.30929c1.45004,-13.63246 13.67683,-23.50826 27.30929,-22.05822c13.63246,1.45004 23.50826,13.67683 22.05822,27.30929c-1.45004,13.63246 -13.67683,23.50826 -27.30929,22.05822z" data-paper-data="{&quot;index&quot;:null}" fill="#ffffff" stroke="#000000" stroke-width="2" stroke-linecap="butt"/><path d="M394.45362,212.09995c-9.59577,-1.02066 -16.54726,-9.62702 -15.52659,-19.22279c1.02067,-9.59578 9.62702,-16.54727 19.22278,-15.5266c9.59577,1.02066 16.54726,9.62702 15.52659,19.22279c-1.02067,9.59578 -9.62702,16.54727 -19.22278,15.5266z" data-paper-data="{&quot;index&quot;:null}" fill="#000000" stroke="none" stroke-width="0" stroke-linecap="butt"/><path d="M314.66699,186.33511c1.45004,-13.63246 13.67683,-23.50826 27.30929,-22.05822c13.63246,1.45004 23.50826,13.67683 22.05822,27.30929c0,0 -49.50522,-3.95642 -49.36751,-5.25107z" fill="#ffffff" stroke="#000000" stroke-width="2" stroke-linecap="butt"/><path d="M371.70551,192.40212c1.45004,-13.63246 13.67683,-23.50826 27.30929,-22.05822c13.63246,1.45004 23.50826,13.67683 22.05822,27.30929c-0.13572,1.27599 -49.36751,-5.25107 -49.36751,-5.25107z" data-paper-data="{&quot;index&quot;:null}" fill="#ffffff" stroke="#000000" stroke-width="2" stroke-linecap="butt"/><path d="" fill="#000000" stroke="none" stroke-width="0" stroke-linecap="butt"/><path d="" data-paper-data="{&quot;index&quot;:null}" fill="#000000" stroke="none" stroke-width="0" stroke-linecap="butt"/><path d="" fill="#000000" stroke="none" stroke-width="0" stroke-linecap="butt"/><g stroke-width="0" stroke-linecap="butt"><g><path d="M295.73406,134.11019c0,0 -1.96006,-11.46079 2.43401,-24.49018c3.22982,-9.57716 11.25277,-19.85718 19.10377,-27.79085c17.60898,-17.79426 50.44812,-20.84586 62.89415,-19.52202c12.42834,1.32196 46.87796,12.14184 60.96005,32.52523c7.28831,10.54953 10.85694,22.89221 11.83311,33.45698c1.15652,12.51657 -1.44498,23.05564 -1.44498,23.05564c0,0 -5.97637,-4.55154 -6.39148,-6.05252c-3.12731,-11.30801 1.79428,-27.82953 -8.88632,-40.2819c-4.41719,-5.14991 -10.70856,-12.72022 -17.86343,-17.51665c-14.33154,-9.60743 -33.04215,-13.99921 -40.312,-14.77248c-5.9172,-0.6294 -35.516,0.71369 -54.90556,16.47303c-4.29239,3.48877 -13.31779,11.27423 -17.50534,20.83979c-2.84732,6.50406 -1.05882,14.80128 -3.35585,19.35719c-2.4003,4.76075 -6.56018,4.7188 -6.56018,4.7188z" fill="#5f7f7c" stroke="none"/><g><path d="M300.10386,170.5849c0.51644,-4.85537 11.06562,-3.49933 14.38783,-5.75028c0.90268,-0.6116 0.16496,-6.58032 1.05839,-7.12944c0.79942,-0.49134 -6.17083,-0.85922 -11.55163,-2.82392c-5.75778,-2.10239 -10.52695,-6.06046 -9.59719,-6.26761c0.14896,-0.0332 0.57119,-12.03374 1.30353,-11.92194c3.29938,0.50361 13.39248,5.25599 22.94418,8.37075c5.72971,1.86842 24.00249,4.79393 29.57492,5.42022c11.1188,1.24969 21.51128,3.02333 23.67779,3.25377c17.64252,1.87658 2.58315,21.15564 0.70657,38.79816c-0.57779,5.43208 4.44902,17.33662 1.58093,21.56101c-1.72818,2.54539 -10.73465,-2.11375 -13.08836,-0.17317c-6.42711,5.29881 -14.89764,8.10962 -23.83502,7.15898c-9.86318,-1.04912 -20.84787,-6.13653 -25.96046,-13.78459c-1.6084,-2.40605 -7.41705,-2.00073 -7.82744,-4.84554c-0.61849,-4.28738 -3.87144,-27.18993 -3.37402,-31.86634z" fill="#8fa7b3" stroke="#000000"/><path d="M316.60962,186.5782c1.29783,-12.20139 12.24105,-21.04049 24.4425,-19.74266c12.20139,1.29783 21.04048,12.24107 19.74266,24.4425c-1.29783,12.20139 -12.24107,21.04048 -24.4425,19.74266c-12.20139,-1.29783 -21.04048,-12.24107 -19.74266,-24.4425z" fill="#000000" stroke="#000000"/><path d="M333.02976,188.32477c0.33322,-3.13279 3.14298,-5.4023 6.27577,-5.06907c3.13279,0.33322 5.40229,3.143 5.06907,6.27578c-0.33322,3.13279 -3.143,5.40229 -6.27578,5.06907c-3.13279,-0.33322 -5.40228,-3.14299 -5.06906,-6.27578z" fill="#ff9a00" stroke="none"/></g><g data-paper-data="{&quot;index&quot;:null}"><path d="M428.58387,215.14024c-0.99962,2.69481 -6.59306,1.07671 -8.67159,3.09055c-6.60698,6.40146 -18.41606,9.06443 -28.27923,8.01531c-17.64252,-1.87658 -30.42335,-17.69993 -28.54676,-35.34246c1.87658,-17.64252 -8.79046,-39.65801 8.85209,-37.78143c2.16654,0.23045 12.69954,0.68262 23.83245,1.79974c5.57949,0.55988 24.05885,1.54358 30.05336,0.92223c9.99318,-1.03584 20.86015,-3.55872 24.19161,-3.35705c0.73947,0.04477 -1.37209,11.86557 -1.23345,11.92937c0.86537,0.39813 -4.62967,3.26439 -10.70089,4.10855c-5.67368,0.78891 -12.56538,-0.3177 -11.8872,0.33081c0.75795,0.72477 -1.2188,6.40476 -0.46498,7.19255c2.7744,2.89944 13.37278,3.79276 12.85633,8.64815c-0.49742,4.67641 -8.49525,26.38226 -10.00175,30.44362z" fill="#8fa7b3" stroke="#000000"/><path d="M394.64249,216.60255c-12.20139,-1.29783 -21.04048,-12.24107 -19.74266,-24.4425c1.29783,-12.20139 12.24107,-21.04048 24.4425,-19.74266c12.20139,1.29783 21.04049,12.24105 19.74266,24.4425c-1.29783,12.20139 -12.24107,21.04048 -24.4425,19.74266z" fill="#000000" stroke="#000000"/><path d="M396.38902,200.1826c-3.13279,-0.33322 -5.40229,-3.143 -5.06907,-6.27578c0.33322,-3.13279 3.143,-5.40229 6.27578,-5.06907c3.13279,0.33322 5.40229,3.143 5.06907,6.27578c-0.33322,3.13279 -3.143,5.40229 -6.27578,5.06907z" fill="#ff9a00" stroke="none"/></g><path d="M451.30376,151.18133c-0.79124,7.43881 -36.24699,9.76603 -79.19261,5.19804c-42.94565,-4.56799 -77.11851,-14.30144 -76.32728,-21.74021c0.79124,-7.43879 36.24698,-9.76603 79.19261,-5.19804c42.94562,4.56799 77.11851,14.30144 76.32728,21.74021z" fill="#bed3e5" stroke="none"/></g><path d="M332.17031,135.21843l46.84792,0.682l38.13656,10.89904l-52.92764,-0.33544z" fill="#a7bccd" stroke="none"/><path d="M332.93842,125.3218l47.21927,-38.12977l-14.33543,51.04293z" fill="#ffa300" stroke="none"/><path d="M365.89777,137.89324l14.01573,-50.56211l38.54988,50.01609z" data-paper-data="{&quot;index&quot;:null}" fill="#dd5f00" stroke="none"/></g><path d="" fill="#000000" stroke="#000000" stroke-width="2" stroke-linecap="butt"/><path d="" fill="#2c4c45" stroke="none" stroke-width="0" stroke-linecap="butt"/><path d="" fill="#142d2b" stroke="none" stroke-width="0" stroke-linecap="butt"/><path d="" fill="#031718" stroke="none" stroke-width="0" stroke-linecap="butt"/><g stroke="none" stroke-width="0" stroke-linecap="butt"><path d="M345.52237,317.75089c-0.83765,7.87516 -5.60986,13.82389 -10.65901,13.28683c-5.04915,-0.53707 -8.46325,-7.35653 -7.62559,-15.23171c0.83766,-7.87517 5.60986,-13.82389 10.65901,-13.28683c5.04915,0.53707 8.46325,7.35654 7.62559,15.23171z" fill="#bed3e5"/><path d="M345.53969,317.97454c-0.85268,8.01647 -5.27469,12.13615 -9.24325,11.71403c-3.96855,-0.42212 -7.39211,-5.68927 -6.53943,-13.70576c0.85268,-8.01647 5.84534,-12.59707 9.81389,-12.17495c3.96855,0.42212 6.82148,6.15018 5.96879,14.16666z" fill="#8fa7b3"/><path d="M340.89353,308.81976c-0.04586,0.43125 -1.29658,0.20687 -2.40703,0.94274c-0.17265,0.11441 -2.78355,3.19968 -3.2961,3.14516c-0.62592,-0.06658 0.00853,-2.23405 0.75953,-3.45323c0.44526,-0.72283 2.33887,-2.78955 3.33587,-2.6835c0.99699,0.10605 1.7168,1.02334 1.60772,2.04882z" fill="#bdd2e4"/></g></g><g stroke-linejoin="miter"><path d="M37.64597,198.49056c-0.19511,-1.75976 -6.38946,-1.35991 -6.38946,-1.35991c0,0 6.06758,-10.21923 6.43027,-13.31376c3.68044,-31.40256 18.86431,-62.54838 64.15885,-68.13519c48.46711,-5.97813 76.61246,29.15618 80.77869,66.73613c0.07866,0.70957 4.13067,7.40474 5.92735,10.49054c3.02665,5.19829 4.42352,7.53042 4.42352,7.53042c0,0 -3.00862,-1.45902 -5.54451,-3.22097c-2.49419,-1.73296 -4.51563,-3.7782 -4.59525,-2.73289c-0.19033,2.49874 0.65362,11.6732 -2.04031,21.645c-2.66405,9.86116 -8.86738,20.53466 -8.86738,20.53466c0,0 -3.05733,-5.34592 -4.38206,-2.89255c-5.42201,10.04137 -10.1973,17.59397 -10.1973,17.59397c0,0 -3.14607,-5.00353 -5.20517,-3.5821c-9.31565,6.43076 -20.3814,10.76658 -32.69429,12.13162c-13.39214,1.48469 -26.73567,-0.87114 -38.59097,-5.96722c-3.08092,-1.32435 -0.36095,4.75862 -0.36095,4.75862c0,0 -9.04514,-4.58568 -15.273,-10.14318c-7.26517,-6.48317 -12.05936,-14.33182 -15.09667,-18.42442c-0.43087,-0.58058 -4.0835,2.16024 -6.06676,2.8368c-3.06795,1.0466 -4.77267,0.44113 -4.77267,0.44113c0,0 2.43975,-3.90168 3.16515,-5.8944c0.77786,-2.13685 1.35564,-6.52451 1.35564,-6.52451c0,0 -2.60522,2.34158 -4.03174,3.01175c-1.51884,0.71356 -4.82172,1.14759 -4.82172,1.14759c0,0 4.00137,-6.51234 4.73949,-12.95694c0.69538,-6.07144 -1.86389,-12.04303 -2.04871,-13.71018z" fill="#000000" stroke="#000000" stroke-width="0" stroke-linecap="butt"/><g stroke-linecap="butt"><path d="M94.94722,372.42802l0.55924,-141.84117l40.1191,-4.61752l29.96557,138.6269z" fill="#ffffff" stroke="#000000" stroke-width="2"/><path d="M157.53041,287.14052c0.00642,0.09312 2.80381,25.04162 2.35707,25.34648c-0.31968,0.21814 -2.88657,9.52952 -3.1892,9.34567c-1.72761,-1.04944 10.08488,45.28307 8.13398,42.71336c-0.28965,-0.38152 -14.85128,1.93018 -15.28227,0.87541c-1.16975,-2.86275 -6.04874,-55.44045 -7.25089,-59.2376c-6.83349,-21.58424 -12.37479,-21.14351 -12.37479,-21.14351l-2.67855,-24.16082c0,0 18.84449,-7.80191 23.84559,-8.35636c1.98724,-0.22031 6.70006,4.96996 6.70006,4.96996l2.67855,24.16082c0,0 -2.96084,5.17756 -2.93952,5.48655z" data-paper-data="{&quot;index&quot;:null}" fill="#000000" stroke="none" stroke-width="0"/><path d="M83.37544,290.48834l-2.67855,-24.16082c0,0 3.46153,-6.09652 5.44877,-6.31683c5.00108,-0.55445 25.09688,2.93043 25.09688,2.93043l2.67855,24.16082c0,0 -5.50328,0.78371 -7.44315,23.3406c-0.34126,3.96824 6.36294,55.82621 5.84864,58.87565c-0.12781,0.75778 -17.03525,2.58816 -17.10006,2.73001c-1.34068,2.93461 1.36216,-46.53366 -0.09362,-45.13129c-0.25501,0.24567 -4.07597,-6.329 -4.43565,-6.47182c-0.50267,-0.19961 -3.23778,-25.155 -3.25191,-25.24727c-0.04687,-0.30616 -4.06987,-4.70948 -4.06987,-4.70948z" fill="#000000" stroke="none" stroke-width="0"/><path d="M130.4699,263.02139l-1.62277,-14.63758c0,0 9.91516,-2.01761 14.80131,-4.60526c2.37182,-1.2561 12.91148,-10.07111 12.91148,-10.07111l-5.55433,25.96618z" data-paper-data="{&quot;index&quot;:null}" fill="#000000" stroke="none" stroke-width="0"/><path d="M87.96905,266.94948l-11.10693,-24.11904c0,0 12.21451,6.29242 14.80387,6.99851c5.33429,1.45458 15.4506,1.25145 15.4506,1.25145l1.62277,14.63758z" fill="#000000" stroke="none" stroke-width="0"/><path d="M119.05309,262.08085c0,0 0.35648,18.80315 0.19822,34.2168c-0.05804,5.65296 2.13593,23.13211 1.06611,21.61949c-6.48637,-9.17127 -16.19159,-22.25414 -20.4936,-26.97596c-0.98952,-1.08606 5.55867,-4.36628 4.72102,-5.28565c-7.18788,-7.88931 -22.31826,-24.49626 -22.31826,-24.49626l32.03755,-40.6904l40.17218,32.685c0,0 -10.7296,20.07972 -15.92578,29.29302c-0.82707,1.4665 6.33309,1.87795 5.31184,3.63913c-3.13957,5.41434 -9.92864,20.59285 -13.86399,30.9653c-0.69611,1.83472 -2.69017,-19.39034 -4.17543,-25.72341c-3.63919,-15.51711 -6.72988,-29.24704 -6.72988,-29.24704z" fill="#304d47" stroke="none" stroke-width="0"/><path d="M121.62911,282.96155l-47.74899,-49.87825l37.85003,-42.67947l45.12489,32.74435z" fill="#0a1d1e" stroke="none" stroke-width="0"/><path d="M120.0659,307.66506c0,0 -1.75585,-15.32698 -5.57293,-20.97162c-1.47686,-2.18397 -3.1889,-6.79584 -4.38846,-10.29503c-2.24352,-6.5444 -3.46975,-12.23237 -3.46975,-12.23237c0,0 1.06357,-20.29111 4.03866,-20.62094c2.50443,-0.27765 8.70653,-5.01732 13.88698,-0.54367c1.20878,1.04385 3.71979,4.9992 4.7095,8.23239c1.76951,5.78058 2.30289,12.84539 2.30289,12.84539c0,0 0.24461,5.98134 -1.39877,14.47856c-1.02333,5.2912 -1.76476,10.51645 -2.10315,13.03209c-1.04776,7.78921 -0.06297,13.23097 -0.06297,13.23097z" fill="#dd6000" stroke="none" stroke-width="0"/><path d="M127.35152,260.62315c1.07502,9.69687 -1.87291,17.9812 -6.58439,18.50353c-4.71149,0.52233 -9.40238,-6.91511 -10.4774,-16.61201c-1.07502,-9.69687 1.87291,-17.9812 6.58439,-18.50353c4.71149,-0.52233 9.40238,6.91511 10.4774,16.61201z" fill="#fefeff" stroke="none" stroke-width="0"/></g><g><path d="M42.01283,194.78029c-3.92201,-35.37704 23.45065,-67.44289 61.13849,-71.62108c37.68787,-4.1782 71.41934,21.11347 75.34134,56.4905c3.92201,35.37704 -23.45065,67.44289 -61.13849,71.62108c-37.68787,4.1782 -71.41934,-21.11347 -75.34134,-56.4905z" fill="#ffffff" stroke="#000000" stroke-width="2" stroke-linecap="butt"/><path d="M42.78729,194.75234c-0.08573,-0.77335 12.11681,58.79079 74.01397,53.02007c59.14014,-5.51367 60.64617,-69.04455 60.76616,-67.96221c3.86346,34.849 -23.17615,66.44463 -60.39464,70.57078c-37.2185,4.12615 -70.52204,-20.77964 -74.3855,-55.62864z" fill="#e6e6e6" stroke="#000000" stroke-width="0" stroke-linecap="butt"/><path d="M56.45802,193.64071c-1.52726,-13.77609 8.40239,-26.18193 22.17849,-27.70919c13.77609,-1.52726 26.18193,8.40239 27.70919,22.17849c1.52726,13.77609 -8.40239,26.18193 -22.17849,27.70919c-13.77609,1.52726 -26.18193,-8.40239 -27.70919,-22.17849z" fill="#ffffff" stroke="#000000" stroke-width="2" stroke-linecap="butt"/><path d="M63.93121,192.51579c-1.07503,-9.69689 5.91436,-18.42924 15.61124,-19.50427c9.69689,-1.07503 18.42924,5.91437 19.50427,15.61125c1.07503,9.69689 -5.91437,18.42924 -15.61125,19.50427c-9.69689,1.07503 -18.42923,-5.91437 -19.50426,-15.61125z" fill="#000000" stroke="none" stroke-width="0" stroke-linecap="butt"/><path d="M101.58805,230.98643l26.67429,-2.9572" fill="none" stroke="#000000" stroke-width="2" stroke-linecap="round"/><path d="M141.80672,209.42908c-13.77609,1.52726 -26.18193,-8.40239 -27.70919,-22.17849c-1.52726,-13.77609 8.40239,-26.18193 22.17849,-27.70919c13.77609,-1.52726 26.18193,8.40239 27.70919,22.17849c1.52726,13.77609 -8.40239,26.18193 -22.17849,27.70919z" data-paper-data="{&quot;index&quot;:null}" fill="#ffffff" stroke="#000000" stroke-width="2" stroke-linecap="butt"/><path d="M140.83584,201.76348c-9.69687,1.07502 -18.42923,-5.91437 -19.50426,-15.61125c-1.07503,-9.69689 5.91437,-18.42924 15.61124,-19.50427c9.69687,-1.07502 18.42923,5.91437 19.50426,15.61125c1.07503,9.69689 -5.91437,18.42924 -15.61124,19.50427z" data-paper-data="{&quot;index&quot;:null}" fill="#000000" stroke="none" stroke-width="0" stroke-linecap="butt"/><path d="M56.45802,193.64071c-1.52726,-13.77609 8.40239,-26.18193 22.17849,-27.70919c13.77609,-1.52726 26.18193,8.40239 27.70919,22.17849c0,0 -49.74264,6.83899 -49.88768,5.5307z" fill="#ffffff" stroke="#000000" stroke-width="2" stroke-linecap="butt"/><path d="M114.09755,187.2506c-1.52726,-13.77609 8.40239,-26.18193 22.17849,-27.70919c13.77609,-1.52726 26.18193,8.40239 27.70919,22.17849c0.14296,1.28944 -49.88768,5.5307 -49.88768,5.5307z" data-paper-data="{&quot;index&quot;:null}" fill="#ffffff" stroke="#000000" stroke-width="2" stroke-linecap="butt"/><path d="M66.49038,161.54869c0,0 6.51824,-6.28145 11.78291,-8.14947c5.26468,-1.86801 13.18509,-0.70965 13.18509,-0.70965c0,0 -8.54611,0.88262 -12.61185,2.32524c-4.24885,1.50759 -12.35614,6.53389 -12.35614,6.53389z" fill="#000000" stroke="none" stroke-width="0" stroke-linecap="butt"/><path d="M133.8434,148.9177c-4.28299,-0.51704 -12.81491,0.49366 -12.81491,0.49366c0,0 7.47436,-2.86506 13.02036,-2.19556c5.54599,0.66951 13.28179,5.37071 13.28179,5.37071c0,0 -9.01136,-3.12849 -13.48724,-3.66882z" data-paper-data="{&quot;index&quot;:null}" fill="#000000" stroke="none" stroke-width="0" stroke-linecap="butt"/><path d="M43.90958,162.62189c9.46558,-25.44131 29.47215,-38.83141 60.46969,-42.03267c25.69028,-2.65315 42.67584,5.243 52.64552,12.69893c1.1156,0.83432 -11.20778,7.24408 -18.51204,10.14066c-15.75725,6.2487 -31.51263,10.21675 -31.51263,10.21675l5.74899,-12.64959c0,0 -24.31773,10.59259 -36.03084,14.30732c-11.60666,3.68097 -32.80869,7.31859 -32.80869,7.31859z" fill="#000000" stroke="none" stroke-width="0" stroke-linecap="butt"/><g stroke="#ff5252" stroke-width="0" stroke-linecap="round"><path d="M59.75822,183.19809c9.32188,1.68226 29.50305,-0.38678 29.50305,-0.38678c0,0 -11.93508,-13.4346 -17.24493,-21.62703c-4.18744,-6.46075 -10.78582,-18.97776 -14.52775,-26.22334c-1.72108,-3.33258 -0.24147,-3.16189 2.19298,-0.80113c9.33445,9.05196 32.46038,30.61491 49.32068,36.66278c28.51014,10.22671 67.8828,3.34773 67.8828,3.34773l1.64715,11.62259c0,0 -18.19522,15.81452 -28.18363,20.86c-3.99332,2.01716 -14.92649,8.61213 -26.51499,9.59265c-2.61181,0.22095 -8.73102,-9.13218 -10.94786,-8.37275c-3.38328,1.15911 -0.6713,7.58702 -2.2232,11.60223c-1.14606,2.96525 -6.5043,3.89727 -6.5043,3.89727c0,0 -26.51388,-2.13784 -38.94748,-7.7829c-15.5329,-7.05224 -31.68674,-30.89175 -31.68674,-30.89175l-1.33206,-12.0153c0,0 18.47429,8.87494 27.56623,10.5156z" fill="#934211"/><path d="M75.18544,184.22562l16.76251,37.41546l-30.45836,-7.69319l-12.751,-33.74115z" fill="#ff9600"/><path d="M150.7855,176.47363l12.487,22.07125c0,0 -8.06657,5.31981 -12.84273,7.9224c-4.93296,2.688 -15.37911,5.07485 -15.37911,5.07485l-22.58597,-39.37283z" fill="#ff9600"/><path d="M62.24919,180.75351c9.19768,1.39603 27.61723,1.98747 27.61723,1.98747c0,0 -13.86588,2.65365 -29.64381,0.43008c-10.79629,-1.40893 -27.7329,-10.20197 -27.7329,-10.20197c0,0 20.03647,6.30865 29.75941,7.78445z" fill="#c05406"/><path d="M107.80866,170.57283c-0.64954,-0.30281 -3.65784,-1.49805 -4.56511,-1.84472c-19.36994,-7.40306 -45.81232,-36.28178 -45.81232,-36.28178c0,0 30.78289,24.23983 52.20227,33.93427c18.7463,8.48462 67.48748,7.94576 67.48748,7.94576c0,0 -46.09957,7.06835 -69.31218,-3.75355z" fill="#c05406"/></g></g></g><g stroke-linejoin="miter"><path d="M157.03691,152.06552c0,-1.89802 -6.64711,-2.20366 -6.64711,-2.20366c0,0 7.6719,-10.17154 8.42387,-13.42581c7.63067,-33.02361 27.48754,-64.41488 76.40723,-65.0172c52.34618,-0.64452 78.18399,40.11443 78.18399,80.64669c0,0.76532 3.52644,8.37741 5.07623,11.87745c2.61076,5.89611 3.82361,8.54592 3.82361,8.54592c0,0 -3.03323,-1.90992 -5.52703,-4.08676c-2.45276,-2.14103 -4.36496,-4.55894 -4.57328,-3.45459c-0.49794,2.63984 -0.68243,12.51459 -4.73061,22.82101c-4.00327,10.19204 -11.87345,20.83154 -11.87345,20.83154c0,0 -2.62602,-6.05703 -4.32727,-3.59953c-6.96306,10.05829 -12.94309,17.54126 -12.94309,17.54126c0,0 -2.76101,-5.70271 -5.12281,-4.43144c-10.6851,5.75138 -22.98744,9.06394 -36.26764,9.06394c-14.44423,0 -28.38304,-4.0862 -40.41251,-10.91626c-3.12618,-1.77498 -0.94667,5.02752 -0.94667,5.02752c0,0 -9.09562,-5.95431 -15.07474,-12.61128c-6.97498,-7.76577 -11.15595,-16.69452 -13.90867,-21.41382c-0.3905,-0.66949 -4.60599,1.81931 -6.799,2.30591c-3.39242,0.75273 -5.13722,-0.09375 -5.13722,-0.09375c0,0 3.06033,-3.86891 4.06861,-5.90641c1.0812,-2.18485 2.21506,-6.79151 2.21506,-6.79151c0,0 -3.05236,2.18714 -4.65143,2.73269c-1.70256,0.58086 -5.27293,0.65318 -5.27293,0.65318c0,0 5.03256,-6.46603 6.58024,-13.24534c1.45807,-6.38678 -0.56338,-13.0516 -0.56338,-14.84973z" fill="#000000" stroke="#000000" stroke-width="0" stroke-linecap="butt"/><path d="M197.54378,344.15837l17.35024,-151.06084l43.29095,-0.18091l15.55257,151.24175z" fill="#0a1d1e" stroke="#000000" stroke-width="2" stroke-linecap="butt"/><path d="M249.19738,274.99397c0,2.12694 -4.48119,23.42374 -14.10628,23.44002c-9.09147,0.01538 -14.05178,-20.31046 -14.05178,-23.32071c0,-7.97332 5.95793,-4.65324 13.60178,-4.65324c7.64384,0 14.55627,-3.4394 14.55627,4.53393z" fill="#1b312f" stroke="none" stroke-width="0" stroke-linecap="butt"/><path d="M200.06124,248.3337c0,0 -8.87591,-18.00349 -10.84355,-25.09142c-1.37027,-4.93614 0.16719,-13.36777 0.16719,-13.36777c0,0 30.68813,-8.31786 46.13265,-8.31786c15.57964,0 46.9434,8.31787 46.9434,8.31787c0,0 0.39764,9.31564 -1.65964,14.6976c-2.50703,6.55859 -12.30176,21.82655 -12.30176,21.82655z" fill="#000000" stroke="none" stroke-width="0" stroke-linecap="butt"/><path d="M289.30474,219.06602c0,5.42714 -3.26118,19.77956 -12.06577,31.67458c-10.48371,14.1635 -28.0712,26.13515 -42.82172,26.13515c-14.00703,0 -31.17,-11.65185 -41.32075,-25.49879c-9.51628,-12.98145 -12.47174,-28.00933 -12.47174,-33.7622c0,-11.88929 27.74895,27.8164 54.8875,27.8164c27.13855,0 53.7925,-38.2544 53.7925,-26.3651z" fill="#304d47" stroke="none" stroke-width="0" stroke-linecap="butt"/><path d="M189.34689,217.89023c0,2.9151 36.94849,20.52705 46.85428,27.17128c0.2032,0.13629 8.63054,-3.47509 18.30411,-9.81222c9.54844,-6.25518 20.30002,-15.21495 27.23413,-18.43029c0.67531,-0.31314 -1.58611,-1.17539 -1.48843,-2.43536c0.11717,-1.51107 2.58905,-3.42734 3.63915,-3.41348c0.79742,0.01053 3.92768,0.70613 5.3742,2.06963c1.46023,1.3764 1.23337,3.42256 1.30476,3.80447c0.29934,1.6017 -4.82137,5.23489 -5.08071,5.51259c-0.878,0.94015 -19.83278,14.33933 -36.28169,23.13452c-9.91335,5.30063 -20.28803,7.71723 -21.36797,8.1538c-4.10235,1.65838 -13.45101,1.45823 -14.01917,1.57626c-0.39502,0.08207 3.80595,-2.22762 8.34944,-4.09752c5.14503,-2.11745 10.72926,-3.83215 10.5762,-3.83215c-2.6519,0 -25.7696,-9.54458 -40.57588,-18.75768c-8.10602,-5.04391 -12.51432,-11.45435 -12.51432,-12.73717c0,-3.62598 4.61899,-6.18479 8.72273,-6.18479c4.10374,0 0.96918,4.65215 0.96918,8.2781z" fill="#779295" stroke="none" stroke-width="0" stroke-linecap="butt"/><path d="M162.12789,148.62817c0,-38.15629 32.95226,-69.08807 73.60091,-69.08807c40.64865,0 73.60091,30.93179 73.60091,69.08807c0,38.15629 -32.95226,69.08807 -73.60091,69.08807c-40.64865,0 -73.60091,-30.93179 -73.60091,-69.08807z" fill="#ffffff" stroke="#000000" stroke-width="2" stroke-linecap="butt"/><path d="M162.95635,148.68986c0,-0.83411 5.96564,64.07081 72.59657,65.23365c63.66306,1.11105 72.77201,-66.40102 72.77201,-65.23365c0,37.58677 -32.54187,68.05688 -72.68429,68.05688c-40.14241,0 -72.68429,-30.4701 -72.68429,-68.05688z" fill="#e6e6e6" stroke="#000000" stroke-width="0" stroke-linecap="butt"/><path d="M177.65335,149.12024c0,-14.85836 12.04509,-26.90344 26.90344,-26.90344c14.85836,0 26.90344,12.04509 26.90344,26.90344c0,14.85836 -12.04509,26.90344 -26.90344,26.90344c-14.85836,0 -26.90344,-12.04509 -26.90344,-26.90344z" fill="#ffffff" stroke="#000000" stroke-width="2" stroke-linecap="butt"/><path d="M185.74864,148.80444c0,-10.45869 8.47843,-18.93712 18.93711,-18.93712c10.45869,0 18.93712,8.47844 18.93712,18.93712c0,10.45869 -8.47844,18.93712 -18.93712,18.93712c-10.45869,0 -18.93711,-8.47844 -18.93711,-18.93712z" fill="#000000" stroke="none" stroke-width="0" stroke-linecap="butt"/><path d="M250.09637,194.24162h-28.76984" fill="none" stroke="#000000" stroke-width="2" stroke-linecap="round"/><path d="M266.72452,176.02368c-14.85836,0 -26.90344,-12.04509 -26.90344,-26.90344c0,-14.85836 12.04509,-26.90344 26.90344,-26.90344c14.85836,0 26.90344,12.04509 26.90344,26.90344c0,14.85836 -12.04509,26.90344 -26.90344,26.90344z" data-paper-data="{&quot;index&quot;:null}" fill="#ffffff" stroke="#000000" stroke-width="2" stroke-linecap="butt"/><path d="M266.59554,167.74155c-10.45868,0 -18.93711,-8.47844 -18.93711,-18.93712c0,-10.45869 8.47844,-18.93712 18.93711,-18.93712c10.45868,0 18.93711,8.47844 18.93711,18.93712c0,10.45869 -8.47844,18.93712 -18.93711,18.93712z" data-paper-data="{&quot;index&quot;:null}" fill="#000000" stroke="none" stroke-width="0" stroke-linecap="butt"/><path d="M177.65335,149.12024c0,-14.85836 12.04509,-26.90344 26.90344,-26.90344c14.85836,0 26.90344,12.04509 26.90344,26.90344c0,0 -53.8069,1.41107 -53.8069,0z" fill="#ffffff" stroke="#000000" stroke-width="2" stroke-linecap="butt"/><path d="M239.82108,149.12024c0,-14.85836 12.04509,-26.90344 26.90344,-26.90344c14.85836,0 26.90344,12.04509 26.90344,26.90344c0,1.39074 -53.8069,0 -53.8069,0z" data-paper-data="{&quot;index&quot;:null}" fill="#ffffff" stroke="#000000" stroke-width="2" stroke-linecap="butt"/><path d="M192.13322,116.11234c0,0 7.68692,-5.92274 13.5169,-7.29117c5.82999,-1.36843 14.13209,0.80132 14.13209,0.80132c0,0 -9.20984,-0.06907 -13.71215,0.98773c-4.70509,1.1044 -13.93684,5.50212 -13.93684,5.50212z" fill="#000000" stroke="none" stroke-width="0" stroke-linecap="butt"/><path d="M265.38752,110.61023c-4.50231,-1.0568 -13.71215,-0.98773 -13.71215,-0.98773c0,0 8.3021,-2.16975 14.13209,-0.80132c5.82998,1.36843 13.5169,7.29117 13.5169,7.29117c0,0 -9.23175,-4.39772 -13.93684,-5.50212z" data-paper-data="{&quot;index&quot;:null}" fill="#000000" stroke="none" stroke-width="0" stroke-linecap="butt"/><path d="M167.94739,114.58854c13.09039,-25.98875 35.98835,-37.89227 69.3933,-37.64163c27.6855,0.20772 44.85033,10.62713 54.59198,19.74879c1.09007,1.0207 -12.79717,6.39444 -20.92176,8.61787c-17.52689,4.79652 -34.78243,7.1633 -34.78243,7.1633l7.61953,-12.79863c0,0 -27.16091,8.41361 -40.07962,10.98797c-12.80129,2.55096 -35.821,3.92232 -35.821,3.92232z" fill="#000000" stroke="none" stroke-width="0" stroke-linecap="butt"/><path d="M164.13819,159.70252c0,7.09246 6.62671,19.0941 10.38823,26.45625c1.75028,3.42572 -6.17788,1.16433 -7.88288,1.16433c-3.14923,0 -5.65614,-7.04166 -11.29603,-16.13462c-3.97584,-6.41008 -4.91399,-25.19088 -4.91399,-29.48797c0,-1.80167 -1.89501,-9.64528 1.78177,-16.46011c0.85882,-1.59187 1.87782,-3.20355 3.02927,-4.80996c7.26791,-10.13909 19.8145,-20.06583 30.69097,-23.43834c14.88237,-4.61464 99.84087,-11.72525 110.34641,-5.73786c2.29881,1.31013 30.18758,32.46208 26.67655,43.36318c-0.114,0.35394 2.2987,10.14077 -0.68548,17.20021c-2.43337,5.75647 -1.7782,14.04075 -5.03103,19.1748c-2.64352,4.1723 -11.15745,20.61683 -11.8481,20.48897c-0.22974,-0.04255 -10.68856,-1.37914 -10.48104,-2.07238c1.39562,-4.66192 9.16287,-19.29814 12.47113,-25.51464c2.32549,-4.36986 0.53964,-26.85986 -2.42312,-31.5293c-3.7364,-5.88878 -8.83509,-9.70145 -17.18234,-12.40341c-18.98113,-6.14404 -49.69566,-7.94521 -49.53846,-7.94521c3.51015,0 -29.20459,-2.8484 -52.06741,5.60792c-12.10963,4.47899 -20.61607,18.62227 -20.61607,22.22086c0,0 -2.63517,7.10659 -2.87804,10.5068c-0.22912,3.20765 1.45969,9.35049 1.45969,9.35049z" fill="#1b312f" stroke="none" stroke-width="0" stroke-linecap="butt"/><path d="M177.13224,107.44464c-20.36215,7.59911 -25.93646,25.93237 -25.93646,16.65788c0,-2.3508 8.80172,-19.67865 10.71722,-26.34136c2.63055,-9.15009 1.86149,-20.59126 8.69825,-28.76902c6.21737,-7.43689 18.08191,-18.27016 26.28299,-23.69726c17.35611,-11.48553 32.27988,-13.75944 40.71191,-13.75944c5.97133,0 29.53448,8.1737 46.6135,18.64956c6.77781,4.15736 16.19105,11.6788 22.88648,21.01795c1.57884,2.20226 4.07237,17.82626 9.00265,31.30656c3.51329,9.60598 9.10121,28.99158 6.61073,31.8857c-0.4251,0.49401 -10.00583,-17.90783 -22.6157,-22.75059c-12.62892,-4.85009 -29.48309,-12.04411 -62.95303,-12.47143c-33.06389,-0.42212 -29.02851,-0.314 -60.0185,8.27149z" fill="#476761" stroke="none" stroke-width="NaN" stroke-linecap="butt"/><path d="M262.47395,219.40373c0,0.46588 -7.38927,5.72439 -14.93438,9.42917c-4.58197,2.24982 -9.35509,3.75766 -12.1809,3.75766c-0.76436,0 -7.41324,-1.36888 -12.6938,-3.95157c-7.42078,-3.62946 -13.9978,-8.87298 -13.9978,-9.23527c0,-0.76766 4.18301,-2.5699 9.65085,-0.45682c4.80183,1.85571 9.34152,7.08368 16.61708,7.08368c9.54793,0 16.31931,-6.70141 21.59997,-8.44333c3.3253,-1.09692 5.93899,1.25935 5.93899,1.81645z" fill="#314e48" stroke="none" stroke-width="0" stroke-linecap="butt"/><g stroke="none" stroke-width="0" stroke-linecap="butt"><path d="M190.8314,225.82852c-2.3355,0 2.30777,-6.95402 -10.03943,-21.03785c-21.10236,-24.07045 -28.55913,-12.76578 -28.55913,-16.91128c0,-3.7087 14.78899,-13.81842 22.01053,-16.17147c3.58242,-1.1673 20.87451,12.90778 34.49413,11.59761c4.41996,-0.4252 20.4781,-4.13925 27.12268,-17.35213c6.60679,14.07418 23.59044,19.05837 31.92052,18.10525c8.2669,0.17382 25.48845,-11.14803 25.86959,-11.14803c0.70574,0 22.01649,7.86537 23.89503,13.89945c4.10004,5.8096 -32.65272,-3.67914 -39.16521,38.06781c-5.44246,0.88138 -6.05719,-8.16503 -13.19239,-6.29748c-7.72018,2.02072 -22.05844,5.18723 -30.42451,5.12671c-8.98642,-0.065 -21.36031,-2.66808 -28.76219,-4.27615c-9.69693,-2.10669 -13.38537,6.39755 -15.16959,6.39755zM214.81606,187.78559c-2.8349,2.1508 -4.66579,5.55607 -4.66579,9.38897c0,6.19986 4.79035,11.28086 10.87167,11.74365c0.31344,0.00794 0.61801,0.01712 0.90633,0.03435c5.8785,0.3514 11.78055,-0.17314 17.66701,0c4.97929,0.14644 10.48315,1.87565 15.31139,-0.88335c0.93689,-0.53536 0.84308,-2.04765 1.60608,-2.81066c0.763,-0.763 2.27531,-0.66921 2.81067,-1.6061c1.98666,-3.47666 1.98666,-9.47915 0,-12.95579c-0.53536,-0.93689 -2.04765,-0.84308 -2.81067,-1.6061c-0.763,-0.763 -0.6692,-2.27531 -1.60608,-2.81067c-1.75681,-1.00389 -3.88019,-1.22958 -5.889,-1.47225c-3.12421,-0.37742 -6.27683,0.49638 -9.4224,0.5889c-5.88646,0.17314 -11.7885,-0.3514 -17.66701,0c-1.17116,0 -2.3024,0.17094 -3.37014,0.48923c-0.88221,0.22561 -1.73438,0.54174 -2.51886,0.98303c-0.45631,0.25669 -0.86061,0.56575 -1.22321,0.91678z" fill="#0a1d1e"/><path d="M320.34024,190.62229c5.324,6.57324 0.65672,23.9904 -9.8118,32.46938c-10.46852,8.479 -26.31317,9.00344 -31.6372,2.43017c-5.324,-6.57324 2.61592,-20.45664 13.08438,-28.93561c10.46852,-8.479 23.04057,-12.53719 28.36461,-5.96392z" data-paper-data="{&quot;index&quot;:null}" fill="#dd6000"/><path d="M312.04139,221.77895c-7.20944,6.96644 -17.54,9.71781 -21.54573,5.57238c-4.00573,-4.14543 -0.16968,-13.61785 7.03977,-20.5843c7.20944,-6.96644 17.98636,-9.63575 21.99205,-5.4903c4.00573,4.14543 -0.27667,13.53583 -7.48609,20.50226z" data-paper-data="{&quot;index&quot;:null}" fill="#ffa200"/><path d="M310.31193,219.33989c-4.39328,4.24522 -10.6885,5.92184 -13.12949,3.39568c-2.44098,-2.52614 -0.10339,-8.29841 4.28988,-12.54365c4.39328,-4.24522 10.96051,-5.87187 13.40149,-3.3457c2.44098,2.52614 -0.1686,8.24845 -4.56188,12.49369z" data-paper-data="{&quot;index&quot;:null}" fill="#000000"/><path d="M178.59081,198.16524c9.66179,8.45484 16.05786,21.27955 10.749,27.3463c-5.30884,6.06673 -20.37932,4.99223 -30.04109,-3.46259c-9.66179,-8.45483 -13.47457,-25.21124 -8.1657,-31.27796c3.68347,-4.2093 11.09587,-3.32206 18.20256,0.71489c3.13594,1.78136 6.08693,3.93366 9.04506,6.52224z" fill="#dd6000"/><path d="M151.5203,200.94699c3.96526,-3.80247 14.13162,-0.86926 20.74458,6.02682c6.61298,6.89607 9.92239,16.05628 5.95713,19.85873c-3.96526,3.80247 -13.70356,0.8073 -20.31656,-6.08876c-6.61298,-6.89607 -10.35042,-15.99432 -6.38517,-19.79677z" data-paper-data="{&quot;index&quot;:null}" fill="#ffa200"/><path d="M155.67718,207.26125c2.41634,-2.31718 8.61151,-0.52971 12.64131,3.67262c4.02983,4.20236 6.0465,9.78436 3.63018,12.10151c-2.41634,2.31718 -8.35069,0.49198 -12.38049,-3.71035c-4.02983,-4.20236 -6.30732,-9.74663 -3.891,-12.06378z" data-paper-data="{&quot;index&quot;:null}" fill="#000000"/></g></g><path d="M-58.76567,360v-207.15309h597.53134v207.15309z" fill="url(#color-3)" stroke="none" stroke-width="0" stroke-linecap="butt" stroke-linejoin="miter"/><g stroke="#000000" stroke-width="0" stroke-linecap="butt" stroke-linejoin="miter"><path d="M257.09644,304.53941c0.17599,-0.65994 0.62327,-0.98991 1.34187,-0.98991h1.31989c0.36663,0 0.62327,0.13931 0.76993,0.41796c0.16132,0.27864 0.198,0.60861 0.10999,0.98991l-7.69931,30.22527c-0.17599,0.65994 -0.62328,0.98991 -1.34188,0.98991h-1.31988c-0.36663,0 -0.63061,-0.13199 -0.79192,-0.39596c-0.16132,-0.27864 -0.19799,-0.60861 -0.10998,-0.98991z" fill="#b100ff"/><path d="M236.62555,304.53941c0.17599,-0.65994 0.62327,-0.98991 1.34187,-0.98991h1.31989c0.36663,0 0.62328,0.13931 0.76994,0.41796c0.16132,0.27864 0.19799,0.60861 0.10998,0.98991l-3.18971,12.49487l10.82302,-13.17681c0.38131,-0.48396 0.87259,-0.72593 1.47386,-0.72593h1.89184c0.39596,0 0.6526,0.13199 0.76993,0.39596c0.13199,0.26397 0.07333,0.55727 -0.17599,0.87992l-12.29689,14.58468l4.59758,15.42061c0.27864,0.89458 0.02199,1.34188 -0.76994,1.34188h-1.67185c-0.42529,0 -0.71126,-0.07333 -0.85792,-0.21997c-0.14666,-0.16132 -0.27865,-0.46196 -0.39597,-0.90192l-4.24562,-14.23273l-3.65167,14.3647c-0.17599,0.65994 -0.62328,0.98991 -1.34188,0.98991h-1.31988c-0.36663,0 -0.63061,-0.13199 -0.79192,-0.39596c-0.16132,-0.27864 -0.19799,-0.60861 -0.10998,-0.98991z" fill="#0b00ff"/><path d="M213.57553,304.53941c0.17599,-0.64528 0.60861,-0.97523 1.29789,-0.98991h1.36387c0.60128,0 0.98991,0.46929 1.1659,1.40787l3.98164,22.81194l5.91747,-23.22991c0.17599,-0.65994 0.63061,-0.98991 1.36387,-0.98991h1.29789c0.36663,0 0.63061,0.13931 0.79192,0.41796c0.16133,0.27864 0.19798,0.60861 0.10993,0.98991l-7.6993,30.22527c-0.17599,0.65994 -0.63062,0.98991 -1.36388,0.98991h-1.60586c-0.38131,0 -0.62328,-0.17598 -0.72594,-0.52794c-0.05868,-0.21998 -0.10267,-0.40329 -0.132,-0.54995c-0.01461,-0.14666 -0.02928,-0.24932 -0.044,-0.30798l-3.98164,-22.72396l-5.89547,23.11992c-0.17599,0.65994 -0.62328,0.98991 -1.34188,0.98991h-1.31988c-0.36663,0 -0.63061,-0.13199 -0.79192,-0.39596c-0.16132,-0.27864 -0.19799,-0.60861 -0.10998,-0.98991z" fill="#4df6ff"/><path d="M154.49962,319.58604l2.50777,-0.13199c2.39044,-0.08799 4.04763,-0.98991 4.97155,-2.70576c0.5866,-1.08524 1.02657,-2.32445 1.31988,-3.71767c0.30798,-1.40787 0.46196,-2.5811 0.46196,-3.51968c0,-1.77451 -1.01924,-2.70576 -3.05772,-2.79375c-0.65994,-0.02933 -1.62787,-0.05133 -2.90375,-0.066zM154.14764,306.62922c-0.49862,0 -0.97523,0 -1.42988,0c-0.43996,0 -0.74792,-0.12466 -0.92391,-0.37396c-0.17599,-0.26397 -0.21999,-0.56463 -0.132,-0.90192l0.26397,-0.90192c0.05868,-0.26397 0.19799,-0.47662 0.41797,-0.63794c0.21999,-0.17599 0.4253,-0.26397 0.61595,-0.26397h7.06136c2.41979,0 4.25295,0.50594 5.49949,1.51786c1.26123,1.01192 1.89184,2.66908 1.89184,4.97155c0,1.70118 -0.36664,3.57834 -1.09991,5.6315c-0.71861,2.05315 -1.58386,3.46836 -2.59577,4.24562c-0.49862,0.38131 -0.85058,0.64528 -1.0559,0.79192c-0.19065,0.13199 -0.65994,0.37396 -1.40787,0.72594c-0.74794,0.35196 -1.48854,0.60127 -2.2218,0.74793c-1.53986,0.30798 -3.31438,0.47662 -5.32353,0.50595l-3.18971,12.49488c-0.17599,0.65994 -0.62328,0.98991 -1.34188,0.98991h-1.29788c-0.36663,0 -0.63061,-0.13199 -0.79194,-0.39596c-0.16132,-0.27864 -0.19795,-0.60861 -0.10992,-0.98991z" fill="#ff6f00"/><path d="M173.42622,318.81612l2.81575,-0.13199c2.03848,-0.08799 3.60034,-0.96791 4.68558,-2.63976c1.04124,-1.59852 1.56186,-3.77633 1.56186,-6.5334c0,-0.77727 -0.26397,-1.42988 -0.79194,-1.95782c-0.51328,-0.52794 -1.23188,-0.79927 -2.15579,-0.81393c-0.92393,-0.01467 -1.9285,-0.02932 -3.01373,-0.044zM172.85425,306.67321c-0.46929,0 -0.92391,0 -1.36387,0c-0.43996,0 -0.74794,-0.12466 -0.92393,-0.37396c-0.17599,-0.26397 -0.21999,-0.56463 -0.132,-0.90192l0.21998,-0.94591c0.05868,-0.26397 0.19799,-0.47662 0.41797,-0.63794c0.21998,-0.17599 0.42529,-0.26397 0.61593,-0.26397h7.65531c2.0678,0 3.725,0.52062 4.97156,1.56186c1.24654,1.02657 1.86982,2.55178 1.86982,4.5756c0,2.02382 -0.38864,3.92298 -1.16589,5.69748c-0.76259,1.77451 -1.60586,3.04307 -2.52977,3.80566c-0.90925,0.74794 -1.60586,1.24655 -2.08981,1.49586c-0.48396,0.23464 -1.01191,0.44729 -1.58386,0.63794l2.0678,13.30879c0.16132,1.02657 -0.16865,1.53986 -0.98991,1.53986h-1.53986c-0.39596,0 -0.68194,-0.11731 -0.85793,-0.35196c-0.16132,-0.23464 -0.27864,-0.64527 -0.35196,-1.23188l-1.69385,-12.71486l-2.81575,0.044l-3.38769,13.26481c-0.17599,0.65994 -0.62328,0.98991 -1.34189,0.98991h-1.29787c-0.36665,0 -0.63062,-0.13199 -0.79194,-0.39596c-0.16132,-0.27864 -0.19795,-0.60861 -0.10992,-0.98991z" fill="#ffe900"/><path d="M141.50906,303.06553c1.95049,0 3.32902,0.79926 4.13562,2.39778c0.8066,1.59852 1.2099,3.89365 1.2099,6.88538c0,0.74794 -0.24932,1.19523 -0.74794,1.34187l-1.58386,0.50595c-0.24931,0.07333 -0.49129,0.02933 -0.72594,-0.13199c-0.23464,-0.16132 -0.35196,-0.43264 -0.35196,-0.81393c0,-3.9743 -0.64528,-6.2621 -1.93583,-6.86337c-0.60128,-0.30798 -1.31988,-0.25664 -2.15581,0.15399c-0.83593,0.39596 -1.68653,1.36387 -2.55178,2.90373c-0.86525,1.5252 -1.32721,3.27036 -1.38587,5.23553c-0.02933,0.79192 0.10266,1.40055 0.39597,1.82583c0.2933,0.41063 0.86525,0.7626 1.71585,1.05592l1.84783,0.63794c1.77451,0.60128 2.9404,1.33455 3.49768,2.1998c0.49862,0.79192 0.74794,2.07516 0.74794,3.84966c0,1.75984 -0.47662,3.65167 -1.42988,5.67549c-0.93858,2.02382 -2.21446,3.69568 -3.82766,5.01555c-1.61319,1.30522 -3.29971,1.95782 -5.05955,1.95782c-3.54901,0 -5.32351,-2.88174 -5.32351,-8.64523v-0.15399c0,-1.1439 0.22731,-1.77451 0.68193,-1.89184l1.67185,-0.52795c0.2933,-0.11732 0.5353,-0.09531 0.72594,0.066c0.20531,0.16132 0.30798,0.42529 0.30798,0.79192c0,2.36113 0.13931,4.14296 0.41796,5.34551c0.27864,1.1879 0.74059,1.94317 1.38587,2.2658c0.45462,0.10266 1.04124,-0.00001 1.75984,-0.30798c1.21723,-0.54262 2.3098,-1.66452 3.27771,-3.36569c1.18788,-2.05315 1.75984,-4.3776 1.71585,-6.97336c-0.01472,-0.79192 -0.45469,-1.42255 -1.31989,-1.89184c-0.43996,-0.21998 -1.06322,-0.45462 -1.86981,-0.70393l-1.89184,-0.59396c-0.8506,-0.24931 -1.58386,-0.72594 -2.19979,-1.42988c-0.61595,-0.70393 -0.92393,-1.65719 -0.92393,-2.85974c0,-1.20255 0.24198,-2.56643 0.72594,-4.09164c0.49862,-1.53986 1.15857,-2.96974 1.97982,-4.28962c0.83593,-1.31988 1.87717,-2.41246 3.12372,-3.27771c1.26122,-0.86525 2.5811,-1.29788 3.95964,-1.29788z" fill="#ff0000"/><path d="M188.05049,334.87466c-2.09714,-2.22914 -2.45644,-5.98347 -1.0779,-11.26298l4.86156,-19.0723c0.17599,-0.65994 0.63061,-0.98991 1.36389,-0.98991h1.29787c0.36665,0 0.63062,0.13931 0.79194,0.41796c0.16132,0.27864 0.19795,0.60861 0.10992,0.98991l-5.08154,20.08418c-1.45185,5.67549 -0.43262,8.51324 3.05773,8.51324c1.45188,0 2.72776,-0.59395 3.82766,-1.78183c1.0999,-1.20255 2.03114,-3.27771 2.79374,-6.22544l5.36752,-21.00812c0.17599,-0.65994 0.62327,-0.98991 1.34188,-0.98991h1.1219c0.36663,0 0.62328,0.13931 0.76992,0.41796c0.14666,0.27864 0.176,0.60861 0.08801,0.98991l-5.25753,20.89812c-1.1439,4.66358 -3.00639,7.7653 -5.58749,9.30516c-1.4812,0.87992 -3.22638,1.31988 -5.23553,1.31988c-1.99449,0 -3.51236,-0.53529 -4.5536,-1.60586z" fill="#00ff15"/></g><g fill="#ffffff" stroke="none" stroke-width="1.20157" stroke-linecap="round" stroke-linejoin="round"><path d="M292.25767,312.34867c0,0.74794 -0.25665,1.19524 -0.76994,1.34188l-1.58386,0.50598c-0.23464,0.08799 -0.47663,0.05128 -0.72594,-0.11012c-0.23464,-0.17596 -0.35197,-0.4546 -0.35197,-0.83593c0,-3.97432 -0.64529,-6.26212 -1.93584,-6.86342c-0.60129,-0.2933 -1.26122,-0.27865 -1.97984,0.04399c-0.93858,0.48396 -1.8405,1.49587 -2.70577,3.03576c-0.86526,1.52519 -1.32723,3.26304 -1.38588,5.21353c-0.02934,0.77727 0.10266,1.3859 0.39596,1.82587c0.29331,0.43995 0.86526,0.79192 1.71586,1.0559l1.84785,0.63793c1.74518,0.6013 2.88908,1.2979 3.43171,2.08984c0.55729,0.79194 0.82127,1.95784 0.79194,3.4977c-0.02933,3.24107 -1.08524,6.23282 -3.16773,8.97524c-2.08249,2.72777 -4.46563,4.10631 -7.14939,4.13565c-3.53437,0 -5.30156,-2.88176 -5.30156,-8.64527c-0.05866,-1.20258 0.16131,-1.88453 0.65995,-2.04584l1.67187,-0.52797c0.30797,-0.1173 0.55729,-0.09526 0.74793,0.06613c0.19065,0.1614 0.28597,0.42537 0.28597,0.79194c-0.02934,4.50228 0.57195,7.03939 1.80385,7.61136c0.45463,0.08799 1.04125,-0.01468 1.75985,-0.30798c1.23191,-0.54261 2.31713,-1.65719 3.25573,-3.34371c0.95325,-1.68651 1.51053,-3.32904 1.67187,-4.92757c0.17598,-1.6132 0.08065,-2.67643 -0.28597,-3.18972c-0.36664,-0.51329 -1.31256,-1.00459 -2.83776,-1.47388l-1.89184,-0.59395c-0.83593,-0.26398 -1.56187,-0.74061 -2.17781,-1.42987c-0.61595,-0.70396 -0.92391,-1.57656 -0.92391,-2.61779c0,-1.86251 0.39596,-3.79101 1.18789,-5.78549c0.79194,-2.00918 1.96517,-3.74703 3.5197,-5.21357c1.5692,-1.46655 3.29239,-2.1998 5.16956,-2.1998c1.87717,0 3.21906,0.79926 4.02566,2.39779c0.82126,1.58386 1.23191,3.879 1.23191,6.88541z"/><path d="M332.63038,328.94717c-0.41064,2.19982 0,3.41705 1.23191,3.65169c1.09991,-0.41064 2.46379,-1.53252 4.09164,-3.36571c0.27865,-0.24931 0.57928,-0.27865 0.90192,-0.08799l0.85792,0.52797c0.39596,0.30797 0.52796,0.63793 0.39598,0.98992c-0.57195,1.08524 -1.62786,2.23647 -3.16773,3.45372c-1.53987,1.21722 -2.7791,1.73785 -3.71768,1.56187c-2.12648,-0.54263 -3.37305,-1.65721 -3.73968,-3.34371c-0.42529,-2.25849 -0.05133,-5.36024 1.1219,-9.30523c1.17322,-3.945 2.80843,-6.92208 4.90559,-8.93125c0.73326,-0.6746 1.64253,-1.17322 2.72777,-1.49585c1.09991,-0.33732 2.25847,-0.24934 3.47571,0.26394c1.21723,0.51329 1.81851,1.97984 1.80385,4.39965c-0.01476,2.41979 -1.078,4.70759 -3.18972,6.86342c-2.09716,2.14114 -4.6636,3.747 -7.69934,4.81757zM333.18032,326.02143c1.40789,-0.60126 2.61045,-1.30519 3.60769,-2.11181c1.01191,-0.80661 1.8405,-1.78921 2.48579,-2.94779c0.65995,-1.15855 0.98992,-2.34645 0.98992,-3.56369c0,-1.21722 -0.35197,-1.82585 -1.05591,-1.82585c-1.37855,0 -2.58845,1.12924 -3.62969,3.3877c-1.02658,2.24382 -1.82585,4.59761 -2.39779,7.0614z"/><path d="M317.9523,314.72419h1.65532c0.18392,0 0.33247,0.11319 0.44566,0.33954c0.11319,0.22638 0.12732,0.48812 0.04244,0.78522l-6.38779,23.11068c-0.69326,2.67395 -1.83923,4.44245 -3.43796,5.30548c-0.69326,0.38199 -1.16013,0.61542 -1.40065,0.70029c-0.58007,0.25467 -1.42895,0.03537 -2.54662,-0.65787l-4.43538,-2.50418c-0.38199,-0.18399 -0.58714,-0.44572 -0.61543,-0.78522c-0.02829,-0.32542 0.05658,-0.58716 0.25466,-0.78524l0.65789,-0.91253c0.46688,-0.49518 0.94791,-0.61543 1.4431,-0.36077l4.81737,2.97105c0.63666,0.33954 1.11769,-0.05658 1.4431,-1.18843l4.20193,-14.8978l-0.99744,1.90997l-2.56785,4.30806c-0.91962,1.58459 -1.86045,2.773 -2.8225,3.56529c-0.94791,0.77813 -1.78971,1.1672 -2.52541,1.1672h-0.25466c-0.60837,0 -1.11769,-0.21928 -1.52797,-0.65787c-1.00451,-1.10354 -1.23087,-2.65274 -0.67911,-4.6476l4.43538,-16.17109c0.11319,-0.39617 0.33954,-0.59424 0.67911,-0.59424h2.27074c0.43859,0 0.55176,0.34664 0.33954,1.0399l-4.39293,15.06757c-0.22636,0.90547 -0.25467,1.47139 -0.08489,1.69775c0.32541,0.49518 1.0611,-0.11319 2.20708,-1.8251c1.14598,-1.71191 4.06047,-6.84054 8.74344,-15.38589c0.24051,-0.39617 0.58714,-0.59424 1.03987,-0.59424z"/><path d="M302.33337,307.43506l-1.71527,6.77533h2.27274c0.64323,0 0.86477,0.32162 0.66468,0.96485l-0.30017,1.13637c-0.21441,0.64323 -0.60034,0.96485 -1.15781,0.96485h-2.27274l-4.65268,18.2677c-0.17151,0.64323 -0.61463,0.96485 -1.32933,0.96485h-0.81475c-0.47169,0 -0.80761,-0.12864 -1.00773,-0.38593c-0.18582,-0.2716 -0.23585,-0.61463 -0.15009,-1.02915l4.56693,-17.81744h-1.75816c-0.58606,0 -0.77189,-0.3502 -0.55748,-1.05059l0.34305,-1.17925c0.17151,-0.55748 0.49313,-0.83622 0.96485,-0.83622h1.75816l1.75816,-6.81819c0.17151,-0.64323 0.6075,-0.96485 1.30789,-0.96485h1.11493c0.81475,0 1.13637,0.3359 0.96485,1.00771z"/><path d="M331.31927,303.51545l-8.24281,32.30826c-0.17676,0.66296 -0.63347,0.99444 -1.37011,0.99444h-0.75136c-1.11965,0 -1.56162,-0.48616 -1.32592,-1.4585l8.28702,-31.88839c0.17676,-0.66296 0.62611,-0.99444 1.34799,-0.99444h1.03866c0.85447,0 1.19331,0.34621 1.01654,1.03863z"/></g><g fill="#ffffff" stroke="none" stroke-width="1.20157" stroke-linecap="round" stroke-linejoin="round"><g><path d="M130.28362,9.88219c0.28153,-1.05577 0.99711,-1.58365 2.14672,-1.58365h2.11153c0.56307,0 0.97364,0.22288 1.23173,0.66866c0.28153,0.42231 0.34019,0.95019 0.17596,1.58365l-12.31724,48.35402c-0.28153,1.05577 -0.99711,1.58365 -2.14672,1.58365h-2.11153c-0.56307,0 -0.97364,-0.21117 -1.23173,-0.63348c-0.28153,-0.44578 -0.35192,-0.97364 -0.21117,-1.58365z"/><path d="M142.31932,44.12413l7.49594,-12.38765c1.59536,-2.60421 3.22595,-4.56323 4.89171,-5.87708c1.68922,-1.31383 3.13212,-1.97078 4.32864,-1.97078h1.51326c0.77421,0 1.3725,0.12902 1.79482,0.38711c0.44578,0.25806 0.79768,0.8446 1.05577,1.75961c0.28151,0.91499 0.15249,2.26402 -0.38711,4.04711l-8.05901,29.38544c-0.14078,0.68037 -0.52788,1.02056 -1.16134,1.02056h-3.76555c-0.70384,0 -0.89154,-0.5748 -0.56307,-1.72441l7.56631,-24.74009c0.37537,-1.29038 0.56307,-2.135 0.56307,-2.53384c0,-0.42231 -0.16423,-0.63346 -0.49268,-0.63346c-0.32847,0 -0.72731,0.22288 -1.19652,0.66866c-0.44578,0.42231 -1.05577,1.20828 -1.83,2.35788c-0.91499,1.31383 -2.01768,3.01481 -3.30806,5.10285c-1.29038,2.08806 -2.92095,4.66883 -4.89171,7.74229c-3.7069,5.6542 -6.33458,9.90072 -7.88305,12.73955c-0.37537,0.68037 -0.95019,1.02056 -1.72441,1.02056h-2.00596c-0.28153,0 -0.51615,-0.1877 -0.70384,-0.56307c-0.21115,-0.39884 -0.24635,-0.83287 -0.10557,-1.30212l8.72765,-32.86946c0.23461,-1.24346 0.71556,-1.86518 1.44287,-1.86518h2.95615c1.14962,0 1.53671,0.69211 1.16134,2.07633z"/><path d="M187.33006,27.90055c0.77421,0.82115 0.86807,1.57192 0.28153,2.25231l-1.19652,1.37248c-0.82115,0.91499 -1.54847,1.0323 -2.1819,0.35192l-0.77421,-0.87981c-1.73616,-1.75961 -3.10865,-2.52211 -4.11749,-2.28749c-1.73614,0.32847 -3.56614,2.1819 -5.48998,5.56035c-1.92384,3.355 -3.30806,6.82728 -4.15268,10.41687c-0.82115,3.56614 -1.02056,6.54572 -0.59827,8.93881c0.09384,0.58654 0.5396,1.12616 1.3373,1.61883c0.79768,0.46923 1.40769,0.65693 1.83,0.56307c1.45461,-0.77421 3.06171,-2.21711 4.82132,-4.32864c0.53962,-0.72731 1.31383,-0.77421 2.32268,-0.14076l1.09097,0.70384c1.525,0.91499 0.22288,3.03824 -3.90633,6.36978c-1.73616,1.47806 -3.08518,2.34615 -4.04711,2.60421c-0.96193,0.28151 -2.41652,-0.07039 -4.36382,-1.05577c-1.92384,-0.98538 -3.10865,-1.95902 -3.55441,-2.92095c-1.3373,-2.93268 -1.36077,-7.09708 -0.07037,-12.49322c1.29038,-5.41957 2.87403,-9.56053 4.75095,-12.42283c1.8769,-2.8623 3.71863,-5.03248 5.52516,-6.51054c1.80653,-1.50153 3.75384,-2.14672 5.8419,-1.93555c2.08806,0.1877 4.30517,1.59538 6.65132,4.22305z"/><path d="M197.53584,33.53131c1.525,-2.4869 2.93268,-4.55152 4.22305,-6.19382c1.31383,-1.6423 2.26402,-2.66287 2.85056,-3.06171c0.61001,-0.42231 1.66577,-0.63346 3.1673,-0.63346h0.70384c1.40769,0 1.88865,0.53962 1.44287,1.61883c-0.23461,0.56307 -0.82115,1.26693 -1.75961,2.11153c-0.93846,0.84462 -2.21711,2.28749 -3.83594,4.32864c-1.59536,2.04114 -2.39307,3.36671 -2.39307,3.97672c0,1.26693 0.59827,2.45172 1.7948,3.55441c0.28151,0.23461 0.36364,0.49268 0.24635,0.77421c-0.11733,0.25806 -0.36368,0.43403 -0.73903,0.52788l-2.74499,0.49268c-0.77423,0.14078 -1.3725,0.05865 -1.79482,-0.24635c-0.39884,-0.30498 -1.10269,-1.39595 -2.11153,-3.27287l-5.52516,21.39682c-0.30502,1.05577 -1.03232,1.58365 -2.1819,1.58365h-2.07633c-1.36077,0 -1.88865,-0.55135 -1.58365,-1.65404l8.79803,-33.50292c0.23461,-0.96193 0.90328,-1.44287 2.00596,-1.44287h2.21711c0.63346,0 1.05577,0.10557 1.26693,0.31672c0.21115,0.21115 0.24633,0.61001 0.10555,1.19652z"/><path d="M210.73289,50.5291c-0.65693,3.5192 0,5.46651 1.97078,5.84188c1.75961,-0.65693 3.94151,-2.45172 6.54572,-5.38439c0.44578,-0.39884 0.92672,-0.44576 1.44287,-0.14076l1.3725,0.84462c0.63346,0.49268 0.84462,1.02056 0.63346,1.58365c-0.91499,1.73616 -2.60421,3.57788 -5.06767,5.52516c-2.46346,1.94731 -4.44595,2.78017 -5.94747,2.49864c-3.40189,-0.86807 -5.39614,-2.65115 -5.98266,-5.3492c-0.68037,-3.61306 -0.08212,-8.57515 1.7948,-14.88628c1.8769,-6.31113 4.49287,-11.07379 7.84784,-14.28801c1.17307,-1.07922 2.62768,-1.8769 4.36382,-2.39307c1.75961,-0.53962 3.61306,-0.39884 5.56035,0.42229c1.94731,0.82115 2.90922,3.1673 2.88577,7.03844c-0.02361,3.87114 -1.72457,7.53112 -5.10285,10.97996c-3.35498,3.42536 -7.46073,5.99439 -12.31724,7.70706zM211.61266,45.84854c2.25231,-0.96193 4.17615,-2.08806 5.77151,-3.37844c1.61883,-1.29038 2.9444,-2.8623 3.9767,-4.71575c1.05577,-1.85347 1.58365,-3.75384 1.58365,-5.70114c0,-1.94731 -0.56307,-2.92095 -1.68922,-2.92095c-2.20537,0 -4.14094,1.80653 -5.8067,5.41961c-1.6423,3.58961 -2.92095,7.35516 -3.83596,11.29667z"/><path d="M248.10695,29.34343c-2.39307,-1.3373 -4.39903,-1.43116 -6.01786,-0.28153c-1.59536,1.14962 -3.13212,3.7069 -4.61017,7.67188c-1.45461,3.96498 -2.52211,7.449 -3.20248,10.45205c-0.65693,3.00305 -0.75078,5.0794 -0.28153,6.22901c0.49268,1.14962 1.29036,1.39595 2.39307,0.73903c2.25231,-1.45461 4.26999,-4.12921 6.05305,-8.02382c1.80653,-3.91804 3.69518,-9.51361 5.66594,-16.78665zM259.64997,7.45392l-13.68974,47.5446c1.38422,-1.10269 2.82711,-2.68634 4.32864,-4.75095c0.51615,-0.77421 1.1144,-0.93846 1.7948,-0.49268l1.72441,1.16134c0.77421,0.51615 0.89152,1.1144 0.35192,1.79482c-1.97078,2.29921 -3.78902,4.09402 -5.45479,5.38439c-1.6423,1.26693 -3.58961,2.15845 -5.84188,2.67462c-0.68037,0.14078 -1.1144,-0.11731 -1.30212,-0.77421l-1.3725,-3.97672c-0.96193,1.3373 -1.98249,2.45172 -3.06171,3.34324c-1.07922,0.89152 -1.95902,1.3373 -2.6394,1.3373h-0.14076c-0.91499,0 -2.135,-0.78597 -3.65998,-2.35786c-1.50153,-1.59536 -2.27576,-3.30806 -2.32268,-5.13806c-0.04692,-3.75384 1.00885,-8.63381 3.1673,-14.63991c2.1819,-6.00613 4.21133,-9.9359 6.08823,-11.78937c1.90037,-1.8769 4.24652,-2.79191 7.03844,-2.74499c1.59536,0 3.10865,0.43403 4.53978,1.30212l4.82132,-17.94799c0.30498,-1.05577 1.0323,-1.58365 2.1819,-1.58365h1.86518c1.38422,0 1.91212,0.55135 1.58365,1.65404z"/><path d="M268.30723,12.9087h0.66866c0.79768,0 1.53671,0.36366 2.21711,1.09097c0.68037,0.72731 1.02056,1.56018 1.02056,2.49864c0,0.93846 -0.35192,1.74788 -1.05577,2.42827c-0.70384,0.65693 -1.58365,0.98538 -2.6394,0.98538h-0.56307c-0.82115,0 -1.56018,-0.34019 -2.21711,-1.02056c-0.63346,-0.70384 -0.95019,-1.525 -0.95019,-2.46346c0,-0.93846 0.32847,-1.75961 0.98538,-2.46346c0.68037,-0.70384 1.525,-1.05577 2.53384,-1.05577zM269.60933,25.4019l-8.72765,33.50292c-0.28151,1.05577 -0.99711,1.58365 -2.14672,1.58365h-2.11153c-1.3373,0 -1.86518,-0.55135 -1.58365,-1.65404l8.79803,-33.50292c0.23461,-0.96193 0.90328,-1.44287 2.00596,-1.44287h2.39307c0.63346,0 1.05577,0.10557 1.26693,0.31672c0.21115,0.21115 0.24633,0.61001 0.10555,1.19652z"/><path d="M276.01432,55.456c2.29921,1.38422 4.2817,1.47806 5.94747,0.28153c1.68922,-1.19652 3.31979,-3.95325 4.89171,-8.27015c1.59536,-4.34035 2.61595,-7.73053 3.06171,-10.17052c0.46923,-2.46346 0.66866,-4.12921 0.59827,-4.9973c-0.07037,-0.86807 -0.50439,-1.50153 -1.30212,-1.90037c-0.77421,-0.39884 -2.07633,0.43403 -3.90633,2.49864c-1.83,2.06461 -3.41365,4.79787 -4.75095,8.19978c-1.31383,3.40189 -2.75672,7.96517 -4.32864,13.68974zM279.46313,60.77001c-1.59536,0 -3.13212,-0.45749 -4.61017,-1.3725c-0.39884,0.72731 -1.04403,1.09097 -1.93555,1.09097h-1.23171c-1.68922,0 -2.39307,-0.77421 -2.11153,-2.32268l13.19704,-50.78227c0.28151,-1.05577 1.00883,-1.58365 2.1819,-1.58365h1.65404c1.3373,0 1.86518,0.55135 1.58365,1.65404l-6.26419,24.56412l1.05577,-1.7948c1.00885,-1.68922 2.15845,-3.13212 3.44883,-4.32864c1.31383,-1.19652 2.38133,-1.79482 3.20248,-1.79482h0.1408c0.37537,0 0.97364,0.28153 1.7948,0.84462c0.82115,0.53962 1.61883,1.30212 2.39307,2.28749c0.79768,0.98538 1.3373,2.01768 1.61883,3.09691c0.30498,1.07922 0.23459,3.04999 -0.21117,5.91229c-0.42231,2.8623 -1.54847,6.79207 -3.37844,11.78937c-1.83,4.9973 -3.68345,8.37572 -5.56037,10.13533c-1.85347,1.73614 -4.17615,2.60421 -6.96804,2.60421z"/><path d="M296.74248,50.0364c0.21115,-6.42844 1.81826,-12.51667 4.82132,-18.26473c3.00305,-5.74804 6.82728,-8.57515 11.47264,-8.48132c2.41652,0.14078 4.29345,1.34904 5.63073,3.62479c1.00885,1.57192 1.4194,4.2348 1.23171,7.98862c-0.1877,7.10881 -2.135,13.68974 -5.8419,19.74281c-2.55729,4.43421 -5.99439,6.56919 -10.3113,6.40499c-1.525,-0.04692 -2.9444,-0.71556 -4.25823,-2.00596c-1.97078,-1.8769 -2.88577,-4.87999 -2.74499,-9.0092zM309.02455,52.92217c3.26114,-5.13806 4.98554,-10.88612 5.17324,-17.24415c0.04692,-2.81538 -0.10557,-4.70401 -0.45751,-5.66594c-0.32847,-0.96193 -1.0323,-1.45461 -2.11153,-1.47806c-1.07922,-0.02361 -2.06461,0.48082 -2.95613,1.51326c-0.89154,1.03232 -1.75961,2.46346 -2.60421,4.29345c-2.135,4.26999 -3.29634,9.26728 -3.48402,14.99186c-0.09384,4.31688 0.65695,6.54572 2.25231,6.6865c1.38422,0.04692 2.78017,-0.98538 4.18786,-3.09691z"/><path d="M316.80203,58.69368c5.81845,-7.06189 10.17054,-12.58706 13.05631,-16.57551c-1.19652,-5.0442 -2.5925,-10.24091 -4.18786,-15.59013c-0.61001,-1.75961 -0.22288,-2.6394 1.16134,-2.6394h2.00596c1.05577,0 1.75961,0.55133 2.11153,1.65402c1.29038,4.45768 2.36962,8.49303 3.23769,12.10609c2.11153,-3.07346 4.7744,-7.35516 7.98862,-12.84514c0.32847,-0.61001 0.97364,-0.91499 1.93555,-0.91499h2.46346c1.29038,0 1.40769,0.85634 0.35192,2.56903c-2.58076,4.48113 -6.36978,10.13533 -11.36706,16.96261c1.10269,4.90344 2.08806,10.08842 2.95613,15.55492c0.14078,0.96193 -0.24633,1.46634 -1.16134,1.51328l-2.1819,0.21117c-0.65693,0.09384 -1.1144,-0.00002 -1.3725,-0.28153c-0.23461,-0.28151 -0.46921,-0.9267 -0.70384,-1.93555c-0.46923,-3.28461 -1.09097,-6.69824 -1.86518,-10.24091c-3.30806,4.22305 -5.50169,6.97979 -6.58095,8.27015c-1.05577,1.26693 -1.67749,2.01768 -1.86518,2.25231c-0.1877,0.23461 -0.305,0.38711 -0.35192,0.45747c-0.04692,0.07037 -0.15249,0.21115 -0.31672,0.42229c-0.16423,0.1877 -0.31674,0.305 -0.45751,0.35192c-0.11733,0.04692 -0.26984,0.11731 -0.45751,0.21117c-0.28151,0.1877 -0.66864,0.28153 -1.16134,0.28153h-2.07633c-0.68037,0 -1.12616,-0.19943 -1.3373,-0.59827c-0.21115,-0.42231 -0.15249,-0.82115 0.17598,-1.19652z"/></g><g><path d="M180.53667,69.00945l-2.21201,0.26884c-0.53749,0 -0.75801,-0.32387 -0.66154,-0.97162l0.16538,-1.19905c0.0827,-0.42724 0.32388,-0.69598 0.72356,-0.80624c1.11634,-0.24808 2.9149,-0.35144 5.39566,-0.3101c2.49454,0.04144 4.48604,0.82701 5.97451,2.35672c1.50224,1.51602 2.30849,3.7487 2.41874,6.69804c0.11026,2.94934 -0.37211,6.19501 -1.44711,9.73699c-1.06121,3.54197 -2.56345,6.47066 -4.50671,8.78604c-1.92948,2.31538 -4.44469,3.48685 -7.54565,3.51441c-1.5298,0 -2.80464,-0.07583 -3.8245,-0.22751c-1.00609,-0.15168 -1.35754,-0.83389 -1.05432,-2.04663zM184.00977,68.92676l-6.44998,25.15907c0.26187,0.02756 0.9165,0.04134 1.96393,0.04134c1.77788,0 3.41104,-1.01988 4.8995,-3.05962c1.50224,-2.05349 2.65304,-4.55493 3.45239,-7.50428c0.79936,-2.94934 1.21971,-5.4439 1.26105,-7.48364c0.05512,-2.05353 -0.32388,-3.74871 -1.13701,-5.08558c-0.79936,-1.35063 -2.12932,-2.03974 -3.98989,-2.06729z"/><path d="M207.3289,75.41806h1.6125c0.17916,0 0.32387,0.11026 0.43413,0.33076c0.11026,0.22052 0.12403,0.47549 0.04134,0.76491l-6.22257,22.51292c-0.67533,2.60479 -1.79166,4.32754 -3.34904,5.16825c-0.67533,0.37211 -1.13012,0.5995 -1.36442,0.68218c-0.56507,0.24808 -1.39199,0.03446 -2.48075,-0.64085l-4.32066,-2.43941c-0.37211,-0.17923 -0.57195,-0.43419 -0.59951,-0.76491c-0.02756,-0.317 0.05512,-0.57197 0.24807,-0.76493l0.64087,-0.88893c0.4548,-0.48237 0.92339,-0.59951 1.40577,-0.35144l4.69277,2.8942c0.62019,0.33076 1.08878,-0.05512 1.40577,-1.15769l4.09325,-14.51246l-0.97164,1.86057l-2.50143,4.19663c-0.89583,1.5436 -1.81233,2.70128 -2.7495,3.47307c-0.92339,0.758 -1.74342,1.13701 -2.46009,1.13701h-0.24807c-0.59263,0 -1.08878,-0.21361 -1.48845,-0.64085c-0.97853,-1.075 -1.19903,-2.58413 -0.66154,-4.52739l4.32066,-15.75282c0.11026,-0.38592 0.33076,-0.57887 0.66154,-0.57887h2.21201c0.42725,0 0.53749,0.33767 0.33076,1.013l-4.27931,14.67784c-0.22051,0.88205 -0.24808,1.43333 -0.08269,1.65384c0.31699,0.48237 1.03365,-0.11026 2.14999,-1.77789c1.11634,-1.66763 3.95544,-6.66361 8.51729,-14.98793c0.23429,-0.38592 0.57195,-0.57887 1.01297,-0.57887z"/><path d="M217.64472,75.14932h0.64087c0.96474,0 1.85368,0.37211 2.66682,1.11634c0.81314,0.73045 1.47468,1.63318 1.98461,2.70818c0.28942,0.59263 0.19296,1.04055 -0.28942,1.34374l-1.28172,0.72356c-0.59263,0.42724 -1.01297,0.35834 -1.26105,-0.2067c-0.02756,-0.05512 -0.1447,-0.31698 -0.35144,-0.78557c-0.19296,-0.46858 -0.35144,-0.79937 -0.47549,-0.99232c-0.12403,-0.20671 -0.34455,-0.43412 -0.66154,-0.68222c-0.3032,-0.24808 -0.65463,-0.40657 -1.05432,-0.47545c-0.70288,0.15168 -1.36442,0.62026 -1.98461,1.40577c-0.62019,0.78557 -0.93029,1.90191 -0.93029,3.34903c0,0.62019 0.14471,1.05432 0.43413,1.3024c0.3032,0.23429 0.8338,0.43413 1.59183,0.5995l1.17837,0.24804c1.72275,0.37211 2.58413,1.79856 2.58413,4.27934c0,1.47468 -0.55128,3.16986 -1.65384,5.08555c-0.52372,0.89584 -1.24038,1.66075 -2.14999,2.29472c-0.90962,0.62019 -1.89503,0.93029 -2.95624,0.93029h-0.3101c-1.075,0 -2.03284,-0.37211 -2.87355,-1.11634c-0.84071,-0.758 -1.43333,-1.52292 -1.77788,-2.29472c-0.34455,-0.78557 -0.34455,-1.37129 0,-1.75719l0.93029,-0.76491c0.28942,-0.28943 0.59951,-0.42037 0.93029,-0.39282c0.34455,0.02756 0.57884,0.27563 0.70288,0.74424c0.12403,0.46858 0.46858,1.03366 1.03365,1.69522c0.56507,0.66153 1.08879,1.00607 1.57116,1.03364c0.84071,-0.13781 1.57115,-0.63394 2.19134,-1.48845c0.62019,-0.86826 0.93029,-1.86057 0.93029,-2.97691c0,-1.11634 -0.10337,-1.82612 -0.31008,-2.12933c-0.20673,-0.31698 -0.68221,-0.55815 -1.42645,-0.72352l-0.93029,-0.2067c-1.08879,-0.26187 -1.86057,-0.71666 -2.31537,-1.3644c-0.4548,-0.64775 -0.68221,-1.52291 -0.68221,-2.62546c0,-1.833 0.65463,-3.604 1.96393,-5.31297c1.30929,-1.70897 2.75641,-2.56345 4.34133,-2.56345z"/><path d="M233.35623,68.8854l-1.65384,6.53266h2.19134c0.62019,0 0.8338,0.3101 0.64087,0.93029l-0.28942,1.09567c-0.20673,0.62019 -0.57884,0.93029 -1.11634,0.93029h-2.19134l-4.48604,17.61342c-0.16537,0.62019 -0.59262,0.93029 -1.28172,0.93029h-0.78557c-0.4548,0 -0.77868,-0.12403 -0.97164,-0.37211c-0.17916,-0.26187 -0.2274,-0.59262 -0.14471,-0.99229l4.40336,-17.17929h-1.69519c-0.56507,0 -0.74424,-0.33766 -0.53751,-1.01296l0.33076,-1.13701c0.16537,-0.53751 0.47547,-0.80627 0.93029,-0.80627h1.69519l1.69519,-6.57399c0.16537,-0.62019 0.58574,-0.93029 1.26105,-0.93029h1.075c0.78557,0 1.09567,0.32387 0.93029,0.97162z"/><path d="M232.40528,90.77811c0.12403,-3.77628 1.06811,-7.35271 2.8322,-10.72928c1.76409,-3.3766 4.01057,-5.03734 6.73941,-4.9822c1.41954,0.08269 2.52211,0.79244 3.30768,2.12931c0.59263,0.92339 0.8338,2.48767 0.72356,4.6928c-0.11026,4.17595 -1.25417,8.0418 -3.43172,11.59757c-1.50224,2.60479 -3.5213,3.85896 -6.05719,3.76247c-0.89583,-0.02756 -1.72964,-0.42034 -2.50143,-1.17835c-1.1577,-1.10255 -1.69519,-2.86667 -1.6125,-5.2923zM239.62016,92.4733c1.9157,-3.01826 2.92867,-6.39486 3.03893,-10.12977c0.02756,-1.65383 -0.06202,-2.76328 -0.26876,-3.32836c-0.19296,-0.56508 -0.60642,-0.8545 -1.24038,-0.86827c-0.63397,-0.01295 -1.21282,0.28336 -1.73654,0.88895c-0.52371,0.60642 -1.03365,1.44711 -1.5298,2.52211c-1.25416,2.50832 -1.93637,5.44389 -2.04663,8.8067c-0.05512,2.53588 0.38591,3.84516 1.32308,3.92787c0.81314,0.02756 1.63316,-0.57884 2.46009,-1.81923z"/><path d="M249.91532,93.96175c1.3782,0.78559 2.54968,0.84764 3.51441,0.18617c0.97853,-0.66153 1.92948,-2.27402 2.85288,-4.83748c0.93717,-2.57724 1.5367,-4.58253 1.79855,-6.01585c0.27564,-1.44711 0.39279,-2.42563 0.35144,-2.93558c-0.04134,-0.50992 -0.2963,-0.88894 -0.76491,-1.13701c-0.4548,-0.24808 -1.2266,0.25496 -2.31537,1.50912c-1.08879,1.25418 -2.01908,2.86668 -2.79086,4.83751c-0.75801,1.97082 -1.59871,4.63765 -2.52211,8.00044zM254.40136,76.34833l-0.97164,3.76251l0.57884,-0.97162c0.59263,-0.9923 1.26794,-1.83991 2.02596,-2.54278c0.77179,-0.70289 1.39887,-1.05433 1.88124,-1.05433h0.08269c0.22051,0 0.57195,0.16538 1.05432,0.49617c0.48237,0.31698 0.93717,0.75111 1.36442,1.3024c0.44103,0.55127 0.75112,1.11633 0.93029,1.69519c0.19296,0.57884 0.17917,1.75033 -0.04134,3.51441c-0.20673,1.7641 -0.87516,4.13462 -2.00529,7.11154c-1.13012,2.97691 -2.23268,4.96152 -3.30768,5.95381c-1.06121,0.97853 -2.41184,1.46778 -4.05191,1.46778c-0.93717,0 -1.82612,-0.25496 -2.66682,-0.76491l-2.06731,8.14516c-0.17916,0.62019 -0.6064,0.93029 -1.28172,0.93029h-0.76491c-0.4548,0 -0.77179,-0.13093 -0.95096,-0.39278c-0.17916,-0.24808 -0.2274,-0.57195 -0.14471,-0.97162l7.11151,-27.72252c0.16537,-0.59263 0.54438,-0.88895 1.13701,-0.88895h1.24038c0.73045,0 1.01297,0.3101 0.84759,0.93029z"/><path d="M269.12052,68.96807h0.39279c0.46858,0 0.90271,0.21362 1.3024,0.64088c0.39967,0.42724 0.59951,0.91649 0.59951,1.46778c0,0.55127 -0.20673,1.02675 -0.62019,1.42645c-0.41346,0.3859 -0.93029,0.57884 -1.55047,0.57884h-0.33076c-0.48237,0 -0.9165,-0.19985 -1.3024,-0.59954c-0.37211,-0.41345 -0.55817,-0.89582 -0.55817,-1.44709c0,-0.55129 0.19296,-1.03366 0.57884,-1.44711c0.39967,-0.41347 0.89583,-0.62022 1.48846,-0.62022zM269.88545,76.307l-5.1269,19.6807c-0.16537,0.62019 -0.58574,0.93029 -1.26105,0.93029h-1.24038c-0.78557,0 -1.09567,-0.32387 -0.93029,-0.97162l5.16825,-19.6807c0.13782,-0.56508 0.53061,-0.8476 1.17837,-0.8476h1.40577c0.37211,0 0.62019,0.06206 0.74424,0.18617c0.12403,0.12412 0.1447,0.35841 0.062,0.70289z"/><path d="M282.47533,76.26566c0.11026,-0.66153 0.43413,-0.99229 0.97164,-0.99229l0.97164,-0.04134c1.03365,0.02756 1.41266,0.53751 1.13701,1.52982l-5.08557,16.9312c0.88205,-0.64777 1.75721,-1.57805 2.62547,-2.79086c0.31699,-0.45481 0.66842,-0.55129 1.05432,-0.28943l1.03365,0.68222c0.44103,0.3032 0.50993,0.65462 0.20673,1.05431c-1.1577,1.35063 -2.22579,2.40496 -3.20432,3.16299c-0.96474,0.74424 -2.11554,1.26794 -3.45239,1.57114c-0.3859,0.05512 -0.64087,-0.09647 -0.76491,-0.45479l-0.78557,-2.33605c-0.79936,1.04742 -1.48157,1.77098 -2.04663,2.17067c-0.56507,0.3859 -0.9992,0.57884 -1.3024,0.57884h-0.08271c-0.23429,0 -0.58574,-0.1585 -1.05432,-0.4755c-0.4548,-0.33075 -0.90962,-0.758 -1.36442,-1.28172c-0.4548,-0.52371 -0.78557,-1.09566 -0.9923,-1.71586c-0.19296,-0.62019 -0.17917,-1.74342 0.04134,-3.36969c0.23429,-1.64007 0.88205,-3.92789 1.94326,-6.86347c1.06121,-2.93555 2.14999,-4.98218 3.26633,-6.13988c1.11634,-1.15769 2.51521,-1.72274 4.19663,-1.69519c0.93717,0 1.833,0.25496 2.6875,0.76491zM281.83445,78.62239c-1.50224,-0.84071 -2.72883,-0.85448 -3.67979,-0.04134c-0.93717,0.79935 -1.86057,2.43939 -2.77018,4.92015c-0.89583,2.48077 -1.48157,4.43093 -1.75721,5.85047c-0.26187,1.40577 -0.37211,2.36363 -0.33076,2.87356c0.04134,0.50992 0.28942,0.88205 0.74424,1.11634c0.4548,0.23429 1.20593,-0.22741 2.25336,-1.3851c1.06121,-1.15769 1.98462,-2.74261 2.77018,-4.75479c0.79936,-2.01216 1.72275,-4.87193 2.77018,-8.57928z"/></g></g><path d="M-41.53153,406.72673v-453.45345h563.06306v453.45345z" fill-opacity="0.5" fill="#000000" stroke="none" stroke-width="0" stroke-linecap="butt" stroke-linejoin="miter"/><text transform="translate(9.80421,156.35009) scale(2.04983,2.04983)" font-size="40" xml:space="preserve" fill="#ffffff" fill-rule="nonzero" stroke="none" stroke-width="1" stroke-linecap="butt" stroke-linejoin="miter" stroke-miterlimit="10" stroke-dasharray="" stroke-dashoffset="0" font-family="Sans Serif" font-weight="normal" text-anchor="start" style="mix-blend-mode: normal"><tspan x="0" dy="0">CANCELLED</tspan><tspan x="0" dy="46.150000000000006px">   UPDATE</tspan></text></g></g></svg>