<svg version="1.1" xmlns="http://www.w3.org/2000/svg" xmlns:xlink="http://www.w3.org/1999/xlink" width="34.17311" height="34.17311" viewBox="0,0,34.17311,34.17311"><g transform="translate(-222.91346,-162.91346)"><g data-paper-data="{&quot;isPaintingLayer&quot;:true}" stroke-miterlimit="10" stroke-dasharray="" stroke-dashoffset="0" style="mix-blend-mode: normal"><path d="M229.98313,162.91347h20.03379c3.9166,0 7.06966,3.15307 7.06966,7.06966v20.03379c0,3.91659 -3.15306,7.06966 -7.06966,7.06966h-20.03379c-3.91659,0 -7.06966,-3.15307 -7.06966,-7.06966v-20.03379c0,-3.91659 3.15307,-7.06966 7.06966,-7.06966z" fill-opacity="0.13218" fill="#1a1a1a" fill-rule="evenodd" stroke="none" stroke-width="4.43922" stroke-linecap="round" stroke-linejoin="round"/><path d="M251.80795,191.78626l-2.89322,-1.32801l3.45031,-4.37752l1.90847,2.70451z" fill="#ffffff" fill-rule="nonzero" stroke="none" stroke-width="0" stroke-linecap="butt" stroke-linejoin="miter"/><path d="M248.7937,191.76046l-5.81708,-1.95226l6.57695,-9.49343l4.28742,5.22982z" fill="#bfbfbf" fill-rule="nonzero" stroke="none" stroke-width="0" stroke-linecap="butt" stroke-linejoin="miter"/><path d="M227.63117,179.87669c0,-5.9153 4.7953,-10.71061 10.71061,-10.71061c5.91531,0 10.71061,4.79531 10.71061,10.71061c0,5.9153 -4.7953,10.71061 -10.71061,10.71061c-5.91531,0 -10.71061,-4.79531 -10.71061,-10.71061z" fill="#ffffff" fill-rule="nonzero" stroke="#bfbfbf" stroke-width="3" stroke-linecap="butt" stroke-linejoin="miter"/><path d="M234.71107,179.87669c0,-2.00519 1.62553,-3.63072 3.63072,-3.63072c2.00519,0 3.63072,1.62553 3.63072,3.63072c0,2.00519 -1.62553,3.63072 -3.63072,3.63072c-2.00519,0 -3.63072,-1.62553 -3.63072,-3.63072z" fill="#bfbfbf" fill-rule="nonzero" stroke="none" stroke-width="3" stroke-linecap="butt" stroke-linejoin="miter"/><path d="M248.04189,177.46962l-9.72593,2.31486" fill="none" fill-rule="nonzero" stroke="#bfbfbf" stroke-width="1.5" stroke-linecap="round" stroke-linejoin="miter"/></g></g></svg>