<svg version="1.1" xmlns="http://www.w3.org/2000/svg" xmlns:xlink="http://www.w3.org/1999/xlink" width="407.5878" height="337.5099" viewBox="0,0,407.5878,337.5099"><g transform="translate(-36.5,-15.99011)"><g data-paper-data="{&quot;isPaintingLayer&quot;:true}" fill-rule="nonzero" stroke-linejoin="miter" stroke-miterlimit="10" stroke-dasharray="" stroke-dashoffset="0" style="mix-blend-mode: normal"><path d="M291.30096,311.35965v-267.22501h123.18203v267.22501z" fill-opacity="0.01" fill="#000000" stroke="none" stroke-width="0" stroke-linecap="butt"/><path d="M288.64187,127.40424l-11.56543,-108.98528l62.49542,54.509" fill="#ffffff" stroke="#000000" stroke-width="2" stroke-linecap="round"/><path d="M363.90977,72.92796l62.49542,-54.509l-11.56544,108.98528" data-paper-data="{&quot;index&quot;:null}" fill="#ffffff" stroke="#000000" stroke-width="2" stroke-linecap="round"/><path d="M314.91539,177.44735l-34,-2l16,-20.33333l-33,-6.66667l25.66667,-12" fill="#ffffff" stroke="#000000" stroke-width="2" stroke-linecap="round"/><path d="M314.24872,176.61402l-31.37398,-1.84553l15.63923,-20.38787l-30.99288,-6.3601l4.51761,-2.36484l26.44339,8.75181l-12.48699,16.30706z" fill="#e6e6e6" stroke="none" stroke-width="0" stroke-linecap="round"/><path d="M415.24872,136.44734l25.66667,12l-33,6.66667l16,20.33333l-34,2" data-paper-data="{&quot;index&quot;:null}" fill="#ffffff" stroke="#000000" stroke-width="2" stroke-linecap="round"/><path d="M418.94137,170.71455l-12.48699,-16.30706l26.44338,-8.75181l4.51761,2.36484l-30.99288,6.3601l15.63923,20.38787l-31.37399,1.84553z" data-paper-data="{&quot;index&quot;:null}" fill="#e6e6e6" stroke="none" stroke-width="0" stroke-linecap="round"/><path d="M318.76725,305.24713l15.14285,-131.8421l37.78325,-0.15789l13.57389,132z" fill="#ffffff" stroke="#000000" stroke-width="2" stroke-linecap="butt"/><path d="M331.71749,201.85976l3.12142,-26.32765l35.83075,-0.14203l2.76735,26.1059c0,0 -7.51543,4.19603 -21.55904,4.50964c-12.48458,0.27879 -20.16049,-4.14586 -20.16049,-4.14586z" fill="#e6e6e6" stroke="#000000" stroke-width="0" stroke-linecap="butt"/><path d="M287.78023,129.74712c0,-33.30185 28.7599,-60.29833 64.23702,-60.29833c35.47713,0 64.23702,26.99648 64.23702,60.29833c0,33.30185 -28.75989,60.29834 -64.23702,60.29834c-35.47712,0 -64.23702,-26.99649 -64.23702,-60.29834z" fill="#ffffff" stroke="#000000" stroke-width="2" stroke-linecap="butt"/><path d="M351.9407,186.58142c22.75803,0.39718 39.31767,-10.24678 38.34372,-9.55603c-10.63726,7.54427 -23.89398,12.02007 -38.26716,12.02007c-14.23449,0 -27.37396,-4.38984 -37.9585,-11.80253c-0.40164,-0.28128 15.12391,8.94132 37.88194,9.33849z" fill="#e6e6e6" stroke="#000000" stroke-width="0" stroke-linecap="butt"/><path d="M301.40737,130.02276c0,-12.96801 10.51265,-23.48065 23.48066,-23.48065c12.96801,0 23.48065,10.51264 23.48065,23.48065c0,12.96801 -10.51264,23.48066 -23.48065,23.48066c-12.96801,0 -23.48066,-10.51265 -23.48066,-23.48066z" fill="#ffffff" stroke="#000000" stroke-width="2" stroke-linecap="butt"/><path d="M303.16927,129.74712c0,-8.29964 6.72818,-15.02784 15.02783,-15.02784c8.29964,0 15.02784,6.72819 15.02784,15.02785c0,8.29964 -6.72819,15.02785 -15.02784,15.02785c-8.29964,0 -15.02783,-6.72819 -15.02783,-15.02785z" fill="none" stroke="#000000" stroke-width="5" stroke-linecap="butt"/><path d="M379.14647,153.50342c-12.96801,0 -23.48065,-10.51265 -23.48065,-23.48066c0,-12.96801 10.51264,-23.48065 23.48065,-23.48065c12.96801,0 23.48066,10.51264 23.48066,23.48065c0,12.96801 -10.51265,23.48066 -23.48066,23.48066z" data-paper-data="{&quot;index&quot;:null}" fill="#ffffff" stroke="#000000" stroke-width="2" stroke-linecap="butt"/><path d="M387.25823,129.74712c0,8.29966 -6.72818,15.02785 -15.02783,15.02785c-8.29964,0 -15.02784,-6.72821 -15.02784,-15.02785c0,-8.29966 6.7282,-15.02785 15.02784,-15.02785c8.29964,0 15.02783,6.7282 15.02783,15.02784z" data-paper-data="{&quot;index&quot;:null}" fill="none" stroke="#000000" stroke-width="5" stroke-linecap="butt"/><path d="M297.75614,127.12282l3.6,2.6" fill="none" stroke="#000000" stroke-width="2" stroke-linecap="round"/><path d="M406.35614,126.12282l-4.2,3.4" fill="none" stroke="#000000" stroke-width="2" stroke-linecap="round"/><path d="M313.46701,104.00547c0,0 7.97578,-2.84916 13.1844,-2.41668c5.20863,0.43248 11.51777,4.46776 11.51777,4.46776c0,0 -7.62803,-2.53539 -11.65048,-2.86937c-4.20362,-0.34903 -13.0517,0.81829 -13.0517,0.81829z" fill="#000000" stroke="none" stroke-width="0" stroke-linecap="butt"/><path d="M377.9796,83.66219c-3.9295,-0.92235 -11.96762,-0.86207 -11.96762,-0.86207c0,0 7.24586,-1.8937 12.33413,-0.69937c5.08826,1.19433 11.79721,6.36355 11.79721,6.36355c0,0 -8.05724,-3.83822 -12.16372,-4.80211z" data-paper-data="{&quot;index&quot;:null}" fill="#000000" stroke="none" stroke-width="0" stroke-linecap="butt"/><path d="M408.88384,135.40357c0,0 6.7871,31.4286 -55.84731,34c-55.59552,2.28242 -58.76229,-33.75 -58.76229,-33.75" fill="none" stroke="#000000" stroke-width="2" stroke-linecap="round"/><path d="M301.49901,130.02281c0,-12.968 10.51265,-23.48065 23.48065,-23.48065c12.968,0 23.48065,10.51265 23.48065,23.48065c0,0 -13.06321,-5.68365 -24.96166,-5.53195c-11.57782,0.14761 -21.99965,6.13931 -21.99965,5.53195z" fill="#ffffff" stroke="#000000" stroke-width="2" stroke-linecap="butt"/><path d="M355.79747,130.02281c0,-12.968 10.51265,-23.48065 23.48065,-23.48065c12.968,0 23.48065,10.51265 23.48065,23.48065c0,0.60117 -11.51971,0.60684 -23.14817,0.45943c-11.8501,-0.15023 -23.81315,-0.45943 -23.81315,-0.45943z" data-paper-data="{&quot;index&quot;:null}" fill="#ffffff" stroke="#000000" stroke-width="2" stroke-linecap="butt"/><g fill="#779295" stroke-width="2" stroke-linecap="butt"><path d="M160.70692,204.09369c0,8.09484 -6.94587,14.65699 -15.51402,14.65699c-8.56815,0 -15.51401,-6.56216 -15.51401,-14.65699c0,-8.09484 6.94586,-14.65699 15.51401,-14.65699c8.56815,0 15.51402,6.56216 15.51402,14.65701z" stroke="#000000"/><path d="M167.24806,239.29554c0,0 3.47554,38.02755 -0.54144,37.93065c-5.94995,-0.14352 -35.80582,-1.2817 -41.03833,-0.42393c-3.4296,0.56221 -1.78698,-37.03623 -1.78698,-37.03623c0,0 3.20681,-22.47584 3.20681,-23.76111c0,-5.86956 -3.48443,-21.33092 2.13427,-21.33092c1.00453,0 2.46179,2.58361 4.52883,3.80367c2.98595,1.76243 7.56342,19.50305 11.86618,19.05624c4.26751,-0.44314 8.78446,-17.97824 12.44035,-19.72406c1.60977,-0.76872 3.12465,-3.02691 4.69779,-3.21464c2.70618,-0.32295 4.49253,44.70036 4.49253,44.70036z" stroke="#779295"/></g><path d="M111.46111,303.54381l15.14285,-131.8421l37.78325,-0.15789l13.57389,132z" fill="#0b141c" stroke="#000000" stroke-width="0" stroke-linecap="butt"/><path d="M109.75412,205.34876l64.17837,-2.1326c0,0 3.65469,16.41901 4.58407,23.77087c0.75566,5.9775 1.78772,15.7871 1.78772,15.7871c0,0 -2.04014,33.71652 -34.58346,33.99465c-14.86279,0.12703 -29.00931,-7.25439 -34.86692,-14.2957c-1.4615,-1.75684 -2.12047,-15.6204 -1.98873,-31.20013c0.10507,-12.42548 0.88895,-25.9242 0.88895,-25.9242z" fill="#2f3e4d" stroke="none" stroke-width="0" stroke-linecap="butt"/><path d="M109.31366,237.98361c0,0 -1.19316,-13.80198 -0.92252,-18.85751c0.33162,-6.19464 3.31999,-24.2866 3.31999,-24.2866c0,0 5.68953,-20.47965 30.13772,-21.21375c25.63613,-0.76978 34.04064,19.08116 34.04064,19.08116c0,0 3.65469,16.41901 4.58408,23.77087c0.75566,5.9775 0.57969,17.07658 0.57969,17.07658c0,0 -0.83211,32.42703 -33.37545,32.70517c-29.97326,0.25617 -38.36416,-28.27593 -38.36416,-28.27593z" fill="#1a2330" stroke="none" stroke-width="0" stroke-linecap="butt"/><path d="M173.38601,219.26895c0,6.14519 -3.0345,20.52632 -9.99245,29.02682c-4.8668,5.94573 -14.33944,7.93822 -17.15625,7.93822c-7.5187,0 -17.37109,-5.69049 -23.21327,-15.78417c-5.38768,-9.30846 -7.07172,-22.64845 -7.07172,-32.16574c0,-19.83743 14.26433,-24.58524 28.71684,-24.58524c14.15406,0 28.42782,8.97265 28.89795,28.24336c0.00992,0.40635 -0.18111,6.91711 -0.18111,7.32675z" fill="#000000" stroke="none" stroke-width="0" stroke-linecap="butt"/><g stroke-linecap="butt"><path d="M193.05736,167.8061c0,12.28167 17.05687,10.51565 10.79209,23.15008c-5.3481,10.78572 -15.48482,28.12919 -29.30836,38.44747c-10.65429,7.95266 -25.3289,12.14857 -32.41279,12.14857c-3.88319,0 -14.02362,-1.06619 -22.08949,-4.67458c-5.26009,-2.35317 -8.28179,-6.34337 -12.78244,-9.90913c-8.23937,-6.52783 -25.20533,-31.05192 -31.41452,-42.06522c-3.81097,-6.75959 1.8229,-1.34639 0.10154,-4.45897c-7.95179,-14.37828 19.18858,2.356 19.18858,-12.63819c0,-30.84709 21.92137,-55.85359 48.9627,-55.85359c27.04132,0 48.9627,25.00651 48.9627,55.85359z" fill="#0b0e1c" stroke="none" stroke-width="0"/><path d="M183.33655,129.94979c0,10.91094 26.68954,19.98436 29.79581,36.90329c0.85135,4.63706 -5.22125,13.03124 -7.88155,18.39069c-4.49955,9.06475 -15.02769,24.435 -30.74363,34.09052c-15.62923,9.60219 -39.99554,13.51826 -43.0815,12.27799c-27.81429,-11.17863 -45.09631,-30.76962 -55.99317,-50.01569c-11.26168,-19.89037 -12.12399,-39.45476 -12.12399,-51.64679c0,-23.98914 9.3769,-77.89565 63.05269,-77.99829c144.08172,-0.27555 56.97534,54.00918 56.97534,77.99834z" fill="#2f3e4d" stroke="none" stroke-width="0"/><path d="M218.78785,131.97369c0,24.24711 -18.63506,72.8941 -71.40907,81.5791c-37.08099,6.10242 -72.92841,-57.33198 -72.92841,-81.57906c0,-24.24711 26.89155,-92.47707 111.92483,-73.17208c34.63492,7.86313 32.41262,48.92499 32.41262,73.17208z" fill="#0b111c" stroke="none" stroke-width="0"/><path d="M99.39836,161.73373c0,0 -7.48076,-25.46846 -8.81614,-36.17456c-1.34326,-10.76908 0.78005,-28.2521 0.78005,-28.2521l106.39784,-3.55729l-12.5363,68.77446c0,0 -27.1849,17.91953 -41.46145,17.78801c-14.33171,-0.13199 -44.36402,-18.57852 -44.36402,-18.57852z" fill="#000002" stroke="none" stroke-width="0"/><path d="M107.22602,80.89662c8.84738,-6.00842 19.82206,-14.27067 41.48816,-14.58914c21.69885,-0.31895 37.97656,4.29154 47.28282,15.78118c0.26213,0.32362 0.0117,0.92032 0.17776,1.75365c1.16391,5.84087 -5.94781,70.40195 -11.10386,77.19642c-7.78063,10.25316 -37.3057,9.16198 -43.34552,9.15738c-19.55861,-0.01489 -40.75826,-8.7106 -41.61522,-8.78703c-1.3162,-0.11739 -12.64322,-38.93629 -9.24525,-62.95069c1.34751,-9.5233 13.00775,-15.28436 16.36111,-17.56169z" fill="#000000" stroke="#000000" stroke-width="2.5"/><path d="M185.84243,182.58709c0,7.40043 -29.75444,22.35763 -41.19252,22.38534c-17.03589,0.04126 -43.95914,-15.61549 -43.95914,-23.01592c0,-1.48174 5.92566,-1.53733 7.70024,-1.68706c1.60798,-0.13569 2.73147,0.35553 9.76507,3.64158c6.72307,3.141 14.47144,10.83762 25.87903,10.02637c6.44332,-0.45822 10.88417,-2.98769 19.08358,-6.6309c5.93363,-2.63646 13.24003,-7.23789 14.29934,-7.1157c1.4652,0.16899 8.42441,0.87851 8.42441,2.39629z" fill="#000000" stroke="none" stroke-width="2"/></g><path d="M80.551,132.88999c0,-33.30185 28.7599,-60.29833 64.23702,-60.29833c35.47712,0 64.23702,26.99649 64.23702,60.29833c0,33.30185 -28.7599,60.29833 -64.23702,60.29833c-35.47712,0 -64.23702,-26.99649 -64.23702,-60.29833z" fill="#ffffff" stroke="#000000" stroke-width="2" stroke-linecap="butt"/><path d="M81.27407,132.94381c0,-0.72799 5.20666,55.91939 63.36046,56.93429c55.56352,0.9697 63.51358,-57.95314 63.51358,-56.93429c0,32.80479 -28.40173,59.39833 -63.43702,59.39833c-35.03529,0 -63.43702,-26.59354 -63.43702,-59.39833z" fill="#e6e6e6" stroke="#000000" stroke-width="0" stroke-linecap="butt"/><path d="M94.10124,133.31944c0,-12.968 10.51265,-23.48065 23.48065,-23.48065c12.968,0 23.48065,10.51265 23.48065,23.48065c0,12.968 -10.51265,23.48065 -23.48065,23.48065c-12.968,0 -23.48065,-10.51265 -23.48065,-23.48065z" fill="#ffffff" stroke="#000000" stroke-width="2" stroke-linecap="butt"/><path d="M108.42367,133.04383c0,-9.12808 7.39976,-16.52784 16.52783,-16.52784c9.12808,0 16.52784,7.39977 16.52784,16.52784c0,9.12808 -7.39977,16.52784 -16.52784,16.52784c-9.12808,0 -16.52783,-7.39977 -16.52783,-16.52784z" fill="#000000" stroke="none" stroke-width="0" stroke-linecap="butt"/><path d="M132.2181,172.70026h25.10959" fill="none" stroke="#000000" stroke-width="2" stroke-linecap="round"/><path d="M171.84032,156.8001c-12.968,0 -23.48065,-10.51265 -23.48065,-23.48065c0,-12.968 10.51265,-23.48065 23.48065,-23.48065c12.968,0 23.48065,10.51265 23.48065,23.48065c0,12.968 -10.51265,23.48065 -23.48065,23.48065z" data-paper-data="{&quot;index&quot;:null}" fill="#ffffff" stroke="#000000" stroke-width="2" stroke-linecap="butt"/><path d="M178.98481,149.57167c-9.12807,0 -16.52783,-7.39977 -16.52783,-16.52784c0,-9.12808 7.39977,-16.52784 16.52783,-16.52784c9.12807,0 16.52783,7.39977 16.52783,16.52784c0,9.12808 -7.39977,16.52784 -16.52783,16.52784z" data-paper-data="{&quot;index&quot;:null}" fill="#000000" stroke="none" stroke-width="0" stroke-linecap="butt"/><path d="M94.10124,133.31944c0,-12.968 10.51265,-23.48065 23.48065,-23.48065c12.968,0 23.48065,10.51265 23.48065,23.48065c0,0 -12.1241,3.03935 -24.05164,3.1906c-11.54695,0.14642 -22.90967,-2.5848 -22.90967,-3.1906z" fill="#ffffff" stroke="#000000" stroke-width="2" stroke-linecap="butt"/><path d="M148.35967,133.31944c0,-12.968 10.51265,-23.48065 23.48065,-23.48065c12.968,0 23.48065,10.51265 23.48065,23.48065c0,0.60657 -11.72756,3.3283 -23.4615,3.17682c-11.74671,-0.15164 -23.49981,-3.17682 -23.49981,-3.17682z" data-paper-data="{&quot;index&quot;:null}" fill="#ffffff" stroke="#000000" stroke-width="2" stroke-linecap="butt"/><path d="M106.40837,106.42336c0,0 8.23236,-1.98977 13.36604,-1.0089c5.13369,0.98087 10.98073,5.66069 10.98073,5.66069c0,0 -7.31714,-3.32782 -11.28173,-4.08531c-4.14314,-0.7916 -13.06505,-0.56648 -13.06505,-0.56648z" fill="#000000" stroke="none" stroke-width="0" stroke-linecap="butt"/><path d="M170.08675,106.99841c-3.95468,0.80757 -11.22915,4.22769 -11.22915,4.22769c0,0 5.78737,-4.75341 10.90825,-5.79913c5.12087,-1.04572 13.37773,0.83975 13.37773,0.83975c0,0 -8.92404,-0.11225 -13.05684,0.7317z" data-paper-data="{&quot;index&quot;:null}" fill="#000000" stroke="none" stroke-width="0" stroke-linecap="butt"/><path d="M85.63012,103.18106c11.42496,-22.68233 31.40973,-33.07142 60.56473,-32.85267c24.16321,0.18129 39.14424,9.27509 47.64651,17.23625c0.95139,0.89084 -11.16905,5.58091 -18.25999,7.52146c-15.29703,4.18628 -30.35723,6.25195 -30.35723,6.25195l6.65013,-11.17032c0,0 -23.70536,7.34319 -34.98048,9.59002c-11.17264,2.22641 -31.26367,3.4233 -31.26367,3.4233z" fill="#000000" stroke="none" stroke-width="0" stroke-linecap="butt"/><path d="M36.5,353.50001v-41h407v41z" fill="#666666" stroke="none" stroke-width="0" stroke-linecap="butt"/><text transform="translate(38.61257,342.38029) scale(0.78169,0.78169)" font-size="40" xml:space="preserve" fill="#ffffff" fill-rule="nonzero" stroke="none" stroke-width="1" stroke-linecap="butt" stroke-linejoin="miter" stroke-miterlimit="10" stroke-dasharray="" stroke-dashoffset="0" font-family="Sans Serif" font-weight="normal" text-anchor="start" style="mix-blend-mode: normal"><tspan x="0" dy="0">Lead Is Mad At Wenda Pt 1</tspan></text></g></g></svg>