<svg version="1.1" xmlns="http://www.w3.org/2000/svg" xmlns:xlink="http://www.w3.org/1999/xlink" width="34.17311" height="34.17311" viewBox="0,0,34.17311,34.17311"><g transform="translate(-222.91346,-162.91346)"><g data-paper-data="{&quot;isPaintingLayer&quot;:true}" stroke="none" stroke-miterlimit="10" stroke-dasharray="" stroke-dashoffset="0" style="mix-blend-mode: normal"><path d="M229.98313,162.91347h20.03379c3.9166,0 7.06966,3.15307 7.06966,7.06966v20.03379c0,3.91659 -3.15306,7.06966 -7.06966,7.06966h-20.03379c-3.91659,0 -7.06966,-3.15307 -7.06966,-7.06966v-20.03379c0,-3.91659 3.15307,-7.06966 7.06966,-7.06966z" fill-opacity="0.13218" fill="#1a1a1a" fill-rule="evenodd" stroke-width="4.43922" stroke-linecap="round" stroke-linejoin="round"/><g fill-rule="nonzero" stroke-linecap="butt" stroke-linejoin="miter"><path d="M228.99338,177.33231c2.51438,-5.15734 6.27122,-7.28763 13.08753,-4.556c6.43263,2.57787 8.10322,8.504 5.58886,13.66134c-2.51438,5.15734 -8.73352,7.29989 -13.89086,4.78551c-5.15734,-2.51438 -7.29989,-8.73352 -4.78551,-13.89086z" fill="#ffffff" stroke-width="NaN"/><path d="M230.95635,194.37252c-2.04297,-1.09652 -6.64594,-14.0997 -1.66801,-23.55999c2.08075,-3.60414 2.794,-4.28525 3.79229,-4.48776c0.18773,-0.03808 -0.35228,1.13643 -0.79202,2.26724c-0.47478,1.22095 -0.84915,2.4074 -0.52899,2.42619c0.26266,0.01541 1.48445,-1.80081 3.21147,-3.34738c1.65553,-1.48254 4.52739,-2.08455 5.23322,-1.95977c0.76654,0.13552 -15.37937,12.55485 -4.54818,18.73136c12.62212,7.19779 12.90341,-14.67289 13.82719,-14.75512c0.29807,-0.02653 0.96006,1.23529 1.16725,3.28033c0.28513,2.81436 0.06364,6.66863 0.06364,6.66863c0,0 0.71569,-1.40872 1.27331,-2.6772c0.46726,-1.06289 0.76444,-2.05689 1.00775,-1.75562c0.59508,0.73682 0.19751,6.06752 -3.17087,10.84094c-4.2342,6.00039 -16.77278,9.45273 -18.86804,8.32815z" fill="#bfbfbf" stroke-width="0"/><path d="M242.55301,188.43172c-0.4931,0.86642 -7.53073,4.25641 -9.49401,2.88826c-1.41613,-0.98685 -3.37584,-8.09165 -2.88273,-8.95808c0.4931,-0.86642 1.53845,3.10781 4.87099,5.00442c3.33254,1.89661 7.99886,0.19897 7.50575,1.06539z" fill="#ffffff" stroke-width="0"/></g></g></g></svg>