<svg version="1.1" xmlns="http://www.w3.org/2000/svg" xmlns:xlink="http://www.w3.org/1999/xlink" width="537.3398" height="370.83997" viewBox="0,0,537.3398,370.83997"><defs><radialGradient cx="117.58189" cy="133.31944" r="20.47042" gradientUnits="userSpaceOnUse" id="color-1"><stop offset="0" stop-color="#182a40" stop-opacity="0"/><stop offset="1" stop-color="#182a40" stop-opacity="0.5"/></radialGradient><radialGradient cx="117.58189" cy="133.31944" r="16.52784" gradientUnits="userSpaceOnUse" id="color-2"><stop offset="0" stop-color="#ffffff"/><stop offset="1" stop-color="#182a40" stop-opacity="0.5"/></radialGradient><radialGradient cx="171.84032" cy="133.31945" r="20.47042" gradientUnits="userSpaceOnUse" id="color-3"><stop offset="0" stop-color="#182a40" stop-opacity="0"/><stop offset="1" stop-color="#182a40" stop-opacity="0.5"/></radialGradient><radialGradient cx="171.84032" cy="133.31945" r="16.52784" gradientUnits="userSpaceOnUse" id="color-4"><stop offset="0" stop-color="#ffffff"/><stop offset="1" stop-color="#182a40" stop-opacity="0.5"/></radialGradient><radialGradient cx="117.58189" cy="133.31944" r="12.06567" gradientUnits="userSpaceOnUse" id="color-5"><stop offset="0" stop-color="#ffffff" stop-opacity="0.5"/><stop offset="1" stop-color="#ffffff" stop-opacity="0"/></radialGradient><radialGradient cx="171.84032" cy="133.31945" r="12.06567" gradientUnits="userSpaceOnUse" id="color-6"><stop offset="0" stop-color="#ffffff" stop-opacity="0.5"/><stop offset="1" stop-color="#ffffff" stop-opacity="0"/></radialGradient><radialGradient cx="117.5819" cy="133.31944" r="8.97648" gradientUnits="userSpaceOnUse" id="color-7"><stop offset="0" stop-color="#ffffff"/><stop offset="1" stop-color="#cceeff"/></radialGradient><radialGradient cx="171.84033" cy="133.31945" r="8.97647" gradientUnits="userSpaceOnUse" id="color-8"><stop offset="0" stop-color="#ffffff"/><stop offset="1" stop-color="#cceeff"/></radialGradient><radialGradient cx="117.5819" cy="133.31944" r="8.97648" gradientUnits="userSpaceOnUse" id="color-9"><stop offset="0" stop-color="#ffffff"/><stop offset="1" stop-color="#ffffff" stop-opacity="0"/></radialGradient><radialGradient cx="171.84032" cy="133.31945" r="8.97648" gradientUnits="userSpaceOnUse" id="color-10"><stop offset="0" stop-color="#ffffff"/><stop offset="1" stop-color="#ffffff" stop-opacity="0"/></radialGradient><radialGradient cx="144.71109" cy="162.63644" r="160.44339" gradientUnits="userSpaceOnUse" id="color-11"><stop offset="0" stop-color="#bfc6ff" stop-opacity="0"/><stop offset="1" stop-color="#bfc6ff" stop-opacity="0.5"/></radialGradient><radialGradient cx="144.71109" cy="162.63644" r="160.44339" gradientUnits="userSpaceOnUse" id="color-12"><stop offset="0" stop-color="#0400ff"/><stop offset="1" stop-color="#0400ff" stop-opacity="0"/></radialGradient></defs><g transform="translate(23.2323,17.33997)"><g data-paper-data="{&quot;isPaintingLayer&quot;:true}" fill-rule="nonzero" stroke-linejoin="miter" stroke-miterlimit="10" stroke-dasharray="" stroke-dashoffset="0" style="mix-blend-mode: normal"><path d="M280.79143,263.8991l95.93533,-249.41054l114.97014,44.22306l-95.93533,249.41055z" fill-opacity="0.01" fill="#000000" stroke="none" stroke-width="0" stroke-linecap="butt"/><path d="M344.35067,91.25239l28.33193,-105.87187l38.76013,73.3114" fill="#ffffff" stroke="#000000" stroke-width="2" stroke-linecap="round"/><path d="M434.15816,67.42936l77.89823,-28.43895l-49.92078,97.56775" data-paper-data="{&quot;index&quot;:null}" fill="#ffffff" stroke="#000000" stroke-width="2" stroke-linecap="round"/><path d="M350.90691,147.39174l-31.01539,-14.07287l22.23315,-13.23372l-28.4067,-18.06943l28.26368,-1.98555" fill="#ffffff" stroke="#000000" stroke-width="2" stroke-linecap="round"/><path d="M350.58385,146.37462l-28.61989,-12.98594l21.91601,-13.41414l-26.64344,-17.06273l5.06543,-0.58534l21.5386,17.6617l-17.50888,10.73705z" fill="#e6e6e6" stroke="none" stroke-width="0" stroke-linecap="round"/><path d="M459.27079,145.14522l19.64754,20.41451l-33.19344,-5.62495l7.63358,24.72191l-32.45141,-10.33953" data-paper-data="{&quot;index&quot;:null}" fill="#ffffff" stroke="#000000" stroke-width="2" stroke-linecap="round"/><path d="M450.41514,178.45371l-5.80022,-19.70286l27.8225,1.32495l3.36745,3.82904l-31.21006,-5.19052l7.27728,24.64329l-29.94501,-9.54094z" data-paper-data="{&quot;index&quot;:null}" fill="#e6e6e6" stroke="none" stroke-width="0" stroke-linecap="round"/><path d="M308.62112,268.05463l61.46543,-117.61652l35.32113,13.41704l-34.71978,128.07337z" fill="#ffffff" stroke="#000000" stroke-width="2" stroke-linecap="butt"/><path d="M357.8247,176.20875l12.36511,-23.45192l33.49309,12.73089l-6.7893,25.35905c0,0 -8.52082,1.21822 -21.7408,-3.53081c-11.75239,-4.22183 -17.3281,-11.10721 -17.3281,-11.10721z" fill="#e6e6e6" stroke="#000000" stroke-width="0" stroke-linecap="butt"/><path d="M342.70536,93.12975c11.95556,-31.08179 48.49008,-45.95359 81.60213,-33.2171c33.11206,12.7365 50.26279,48.25823 38.30723,79.34003c-11.95556,31.0818 -48.49007,45.9536 -81.60213,33.21711c-33.11205,-12.73649 -50.26278,-48.25823 -38.30723,-79.34003z" fill="#ffffff" stroke="#000000" stroke-width="2" stroke-linecap="butt"/><path d="M382.18475,169.20919c21.09828,8.54097 40.37523,4.55159 39.21822,4.84664c-12.63657,3.2225 -26.61638,2.64068 -40.03137,-2.51938c-13.28555,-5.11026 -23.97311,-13.9246 -31.19083,-24.64304c-0.27389,-0.40672 10.9057,13.77482 32.00398,22.31578z" fill="#e6e6e6" stroke="#000000" stroke-width="0" stroke-linecap="butt"/><path d="M355.3251,98.27923c4.65559,-12.1035 18.24152,-18.14122 30.34502,-13.48562c12.1035,4.65559 18.14122,18.24151 13.48563,30.34501c-4.65559,12.1035 -18.24152,18.14123 -30.34502,13.48564c-12.1035,-4.65559 -18.14123,-18.24153 -13.48564,-30.34503z" fill="#ffffff" stroke="#000000" stroke-width="2" stroke-linecap="butt"/><path d="M356.66329,106.88326c1.77932,-4.62582 6.97171,-6.93339 11.59754,-5.15407c4.62582,1.77932 6.93338,6.97171 5.15407,11.59755c-1.77932,4.62582 -6.97172,6.93339 -11.59755,5.15407c-4.62582,-1.77932 -6.93338,-6.97171 -5.15406,-11.59755z" fill="none" stroke="#000000" stroke-width="5" stroke-linecap="butt"/><path d="M419.45205,148.10334c-12.1035,-4.65559 -18.14121,-18.24151 -13.48562,-30.34501c4.65559,-12.1035 18.24151,-18.14122 30.34501,-13.48563c12.1035,4.65559 18.14123,18.24151 13.48564,30.34501c-4.65559,12.1035 -18.24153,18.14122 -30.34503,13.48564z" data-paper-data="{&quot;index&quot;:null}" fill="#ffffff" stroke="#000000" stroke-width="2" stroke-linecap="butt"/><path d="M355.38496,97.9809l-2.42659,-3.7191" fill="none" stroke="#000000" stroke-width="2" stroke-linecap="round"/><path d="M454.67759,132.3165l-5.14062,1.66551" fill="none" stroke="#000000" stroke-width="2" stroke-linecap="round"/><path d="M383.77843,61.8339c0,0 8.35659,-1.37775 13.40404,-0.02128c5.04746,1.35647 10.53377,6.45442 10.53377,6.45442c0,0 -7.05205,-3.85794 -10.95003,-4.90549c-4.07355,-1.09473 -12.9878,-1.52766 -12.9878,-1.52766z" fill="#000000" stroke="none" stroke-width="0" stroke-linecap="butt"/><path d="M443.43638,82.49915c-3.33641,-2.27157 -10.86032,-5.10104 -10.86032,-5.10104c0,0 7.44267,0.83385 11.76296,3.77528c4.32028,2.94142 8.7262,10.17459 8.7262,10.17459c0,0 -6.14217,-6.47494 -9.62885,-8.84883z" data-paper-data="{&quot;index&quot;:null}" fill="#000000" stroke="none" stroke-width="0" stroke-linecap="butt"/><path d="M355.41061,98.31218c4.65558,-12.10349 18.24151,-18.14122 30.34501,-13.48563c12.1035,4.65559 18.14121,18.24152 13.48563,30.34501c0,0 -4.1519,-22.66118 -15.3116,-26.79121c-10.85898,-4.01874 -28.7371,10.4987 -28.51905,9.93183z" fill="#ffffff" stroke="#000000" stroke-width="2" stroke-linecap="butt"/><path d="M406.08928,117.80564c4.65558,-12.10349 18.24151,-18.14122 30.34501,-13.48564c12.1035,4.65559 18.14121,18.24152 13.48563,30.34501c-0.21582,0.56109 -4.63628,-21.23592 -15.43661,-25.54819c-11.00619,-4.39447 -28.39405,8.6888 -28.39405,8.6888z" data-paper-data="{&quot;index&quot;:null}" fill="#ffffff" stroke="#000000" stroke-width="2" stroke-linecap="butt"/><g fill="#779295" stroke-width="2" stroke-linecap="butt"><path d="M160.70692,204.09369c0,8.09484 -6.94587,14.65699 -15.51402,14.65699c-8.56815,0 -15.51401,-6.56216 -15.51401,-14.65699c0,-8.09484 6.94586,-14.65699 15.51401,-14.65699c8.56815,0 15.51402,6.56216 15.51402,14.65701z" stroke="#000000"/><path d="M167.24806,239.29554c0,0 3.47554,38.02755 -0.54144,37.93065c-5.94995,-0.14352 -35.80582,-1.2817 -41.03833,-0.42393c-3.4296,0.56221 -1.78698,-37.03623 -1.78698,-37.03623c0,0 3.20681,-22.47584 3.20681,-23.76111c0,-5.86956 -3.48443,-21.33092 2.13427,-21.33092c1.00453,0 2.46179,2.58361 4.52883,3.80367c2.98595,1.76243 7.56342,19.50305 11.86618,19.05624c4.26751,-0.44314 8.78446,-17.97824 12.44035,-19.72406c1.60977,-0.76872 3.12465,-3.02691 4.69779,-3.21464c2.70618,-0.32295 4.49253,44.70036 4.49253,44.70036z" stroke="#779295"/></g><path d="M111.46111,303.54381l15.14285,-131.8421l37.78325,-0.15789l13.57389,132z" fill="#0b141c" stroke="#000000" stroke-width="0" stroke-linecap="butt"/><path d="M109.75412,205.34876l64.17837,-2.1326c0,0 3.65469,16.41901 4.58407,23.77087c0.75566,5.9775 1.78772,15.7871 1.78772,15.7871c0,0 -2.04014,33.71652 -34.58346,33.99465c-14.86279,0.12703 -29.00931,-7.25439 -34.86692,-14.2957c-1.4615,-1.75684 -2.12047,-15.6204 -1.98873,-31.20013c0.10507,-12.42548 0.88895,-25.9242 0.88895,-25.9242z" fill="#2f3e4d" stroke="none" stroke-width="0" stroke-linecap="butt"/><path d="M109.31366,237.98361c0,0 -1.19316,-13.80198 -0.92252,-18.85751c0.33162,-6.19464 3.31999,-24.2866 3.31999,-24.2866c0,0 5.68953,-20.47965 30.13772,-21.21375c25.63613,-0.76978 34.04064,19.08116 34.04064,19.08116c0,0 3.65469,16.41901 4.58408,23.77087c0.75566,5.9775 0.57969,17.07658 0.57969,17.07658c0,0 -0.83211,32.42703 -33.37545,32.70517c-29.97326,0.25617 -38.36416,-28.27593 -38.36416,-28.27593z" fill="#1a2330" stroke="none" stroke-width="0" stroke-linecap="butt"/><path d="M173.38601,219.26895c0,6.14519 -3.0345,20.52632 -9.99245,29.02682c-4.8668,5.94573 -14.33944,7.93822 -17.15625,7.93822c-7.5187,0 -17.37109,-5.69049 -23.21327,-15.78417c-5.38768,-9.30846 -7.07172,-22.64845 -7.07172,-32.16574c0,-19.83743 14.26433,-24.58524 28.71684,-24.58524c14.15406,0 28.42782,8.97265 28.89795,28.24336c0.00992,0.40635 -0.18111,6.91711 -0.18111,7.32675z" fill="#000000" stroke="none" stroke-width="0" stroke-linecap="butt"/><g stroke-linecap="butt"><path d="M193.05736,167.8061c0,12.28167 17.05687,10.51565 10.79209,23.15008c-5.3481,10.78572 -15.48482,28.12919 -29.30836,38.44747c-10.65429,7.95266 -25.3289,12.14857 -32.41279,12.14857c-3.88319,0 -14.02362,-1.06619 -22.08949,-4.67458c-5.26009,-2.35317 -8.28179,-6.34337 -12.78244,-9.90913c-8.23937,-6.52783 -25.20533,-31.05192 -31.41452,-42.06522c-3.81097,-6.75959 1.8229,-1.34639 0.10154,-4.45897c-7.95179,-14.37828 19.18858,2.356 19.18858,-12.63819c0,-30.84709 21.92137,-55.85359 48.9627,-55.85359c27.04132,0 48.9627,25.00651 48.9627,55.85359z" fill="#0b0e1c" stroke="none" stroke-width="0"/><path d="M183.33655,129.94979c0,10.91094 26.68954,19.98436 29.79581,36.90329c0.85135,4.63706 -5.22125,13.03124 -7.88155,18.39069c-4.49955,9.06475 -15.02769,24.435 -30.74363,34.09052c-15.62923,9.60219 -39.99554,13.51826 -43.0815,12.27799c-27.81429,-11.17863 -45.09631,-30.76962 -55.99317,-50.01569c-11.26168,-19.89037 -12.12399,-39.45476 -12.12399,-51.64679c0,-23.98914 9.3769,-77.89565 63.05269,-77.99829c144.08172,-0.27555 56.97534,54.00918 56.97534,77.99834z" fill="#2f3e4d" stroke="none" stroke-width="0"/><path d="M218.78785,131.97368c0,24.24711 -18.63506,72.8941 -71.40907,81.5791c-37.08099,6.10242 -72.92841,-57.33198 -72.92841,-81.57906c0,-24.24711 26.89155,-92.47707 111.92483,-73.17208c34.63492,7.86313 32.41262,48.92499 32.41262,73.17208z" fill="#0b111c" stroke="none" stroke-width="0"/><path d="M99.39836,161.73373c0,0 -7.48076,-25.46846 -8.81614,-36.17456c-1.34326,-10.76908 0.78005,-28.2521 0.78005,-28.2521l106.39784,-3.55729l-12.5363,68.77446c0,0 -27.1849,17.91953 -41.46145,17.78801c-14.33171,-0.13199 -44.36402,-18.57852 -44.36402,-18.57852z" fill="#000002" stroke="none" stroke-width="0"/><path d="M107.22602,80.89662c8.84738,-6.00842 19.82206,-14.27067 41.48816,-14.58914c21.69885,-0.31895 37.97656,4.29154 47.28282,15.78118c0.26213,0.32362 0.0117,0.92032 0.17776,1.75365c1.16391,5.84087 -5.94781,70.40195 -11.10386,77.19642c-7.78063,10.25316 -37.3057,9.16198 -43.34552,9.15738c-19.55861,-0.01489 -40.75826,-8.7106 -41.61522,-8.78703c-1.3162,-0.11739 -12.64322,-38.93629 -9.24525,-62.95069c1.34751,-9.5233 13.00775,-15.28436 16.36111,-17.56169z" fill="#000000" stroke="#000000" stroke-width="2.5"/><path d="M185.84243,182.58709c0,7.40043 -29.75444,22.35763 -41.19252,22.38534c-17.03589,0.04126 -43.95914,-15.61549 -43.95914,-23.01592c0,-1.48174 5.92566,-1.53733 7.70024,-1.68706c1.60798,-0.13569 2.73147,0.35553 9.76507,3.64158c6.72307,3.141 14.47144,10.83762 25.87903,10.02637c6.44332,-0.45822 10.88417,-2.98769 19.08358,-6.6309c5.93363,-2.63646 13.24003,-7.23789 14.29934,-7.1157c1.4652,0.16899 8.42441,0.87851 8.42441,2.39629z" fill="#000000" stroke="none" stroke-width="2"/></g><path d="M80.551,132.88999c0,-33.30185 28.7599,-60.29833 64.23702,-60.29833c35.47712,0 64.23702,26.99649 64.23702,60.29833c0,33.30185 -28.7599,60.29833 -64.23702,60.29833c-35.47712,0 -64.23702,-26.99649 -64.23702,-60.29833z" fill="#ffffff" stroke="#000000" stroke-width="2" stroke-linecap="butt"/><path d="M81.27407,132.94381c0,-0.72799 5.20666,55.91939 63.36046,56.93429c55.56352,0.9697 63.51358,-57.95314 63.51358,-56.93429c0,32.80479 -28.40173,59.39833 -63.43702,59.39833c-35.03529,0 -63.43702,-26.59354 -63.43702,-59.39833z" fill="#e6e6e6" stroke="#000000" stroke-width="0" stroke-linecap="butt"/><path d="M94.10124,133.31944c0,-12.968 10.51265,-23.48065 23.48065,-23.48065c12.968,0 23.48065,10.51265 23.48065,23.48065c0,12.968 -10.51265,23.48065 -23.48065,23.48065c-12.968,0 -23.48065,-10.51265 -23.48065,-23.48065z" fill="#000000" stroke="#000000" stroke-width="2" stroke-linecap="butt"/><path d="M97.11148,133.31944c0,-11.3055 9.16491,-20.47042 20.47041,-20.47042c11.30551,0 20.47042,9.16492 20.47042,20.47042c0,11.30551 -9.16492,20.47042 -20.47042,20.47042c-11.3055,0 -20.4704,-9.16493 -20.4704,-20.47042z" fill="url(#color-1)" stroke="none" stroke-width="0" stroke-linecap="butt"/><path d="M101.05406,133.31944c0,-9.12808 7.39976,-16.52784 16.52783,-16.52784c9.12808,0 16.52784,7.39977 16.52784,16.52784c0,9.12808 -7.39977,16.52784 -16.52784,16.52784c-9.12808,0 -16.52783,-7.39977 -16.52783,-16.52784z" fill="url(#color-2)" stroke="none" stroke-width="0" stroke-linecap="butt"/><path d="M132.2181,172.70026h25.10959" fill="none" stroke="#000000" stroke-width="2" stroke-linecap="round"/><path d="M171.84032,156.8001c-12.968,0 -23.48065,-10.51265 -23.48065,-23.48065c0,-12.968 10.51265,-23.48065 23.48065,-23.48065c12.968,0 23.48065,10.51265 23.48065,23.48065c0,12.968 -10.51265,23.48065 -23.48065,23.48065z" data-paper-data="{&quot;index&quot;:null}" fill="#000000" stroke="#000000" stroke-width="2" stroke-linecap="butt"/><path d="M151.36991,133.31945c0,-11.3055 9.16491,-20.47042 20.47041,-20.47042c11.30551,0 20.47042,9.16492 20.47042,20.47042c0,11.30551 -9.16492,20.47042 -20.47042,20.47042c-11.3055,0 -20.4704,-9.16493 -20.4704,-20.47042z" fill="url(#color-3)" stroke="none" stroke-width="0" stroke-linecap="butt"/><path d="M171.84032,149.84729c-9.12807,0 -16.52783,-7.39977 -16.52783,-16.52784c0,-9.12808 7.39977,-16.52784 16.52783,-16.52784c9.12807,0 16.52783,7.39977 16.52783,16.52784c0,9.12808 -7.39977,16.52784 -16.52783,16.52784z" data-paper-data="{&quot;index&quot;:null}" fill="url(#color-4)" stroke="none" stroke-width="0" stroke-linecap="butt"/><path d="M94.10124,133.31944c0,-12.968 10.51265,-23.48065 23.48065,-23.48065c12.968,0 23.48065,10.51265 23.48065,23.48065c0,0 -12.1241,-17.46065 -24.05164,-17.3094c-11.54695,0.14642 -22.90967,17.9152 -22.90967,17.3094z" fill="#ffffff" stroke="#000000" stroke-width="2" stroke-linecap="butt"/><path d="M148.35967,133.31944c0,-12.968 10.51265,-23.48065 23.48065,-23.48065c12.968,0 23.48065,10.51265 23.48065,23.48065c0,0.60657 -11.72756,-17.1717 -23.4615,-17.32318c-11.74671,-0.15164 -23.49981,17.32318 -23.49981,17.32318z" data-paper-data="{&quot;index&quot;:null}" fill="#ffffff" stroke="#000000" stroke-width="2" stroke-linecap="butt"/><path d="M85.63012,103.18106c11.42496,-22.68233 31.40973,-33.07142 60.56473,-32.85267c24.16321,0.18129 39.14424,9.27509 47.64651,17.23625c0.95139,0.89084 -11.16905,5.58091 -18.25999,7.52146c-15.29703,4.18628 -30.35723,6.25195 -30.35723,6.25195l6.65013,-11.17032c0,0 -23.70536,7.34319 -34.98048,9.59002c-11.17264,2.22641 -31.26367,3.4233 -31.26367,3.4233z" fill="#000000" stroke="none" stroke-width="0" stroke-linecap="butt"/><path d="M105.51622,133.31944c0,-6.66369 5.40198,-12.06567 12.06566,-12.06567c6.66369,0 12.06568,5.40198 12.06568,12.06567c0,6.66369 -5.40199,12.06567 -12.06568,12.06567c-6.66369,0 -12.06566,-5.40198 -12.06566,-12.06567z" fill="url(#color-5)" stroke="none" stroke-width="0" stroke-linecap="butt"/><path d="M159.77465,133.31945c0,-6.66369 5.40198,-12.06567 12.06566,-12.06567c6.66369,0 12.06568,5.40198 12.06568,12.06567c0,6.66369 -5.40199,12.06567 -12.06568,12.06567c-6.66369,0 -12.06566,-5.40199 -12.06566,-12.06567z" fill="url(#color-6)" stroke="none" stroke-width="0" stroke-linecap="butt"/><path d="M108.60542,133.31944c0,-4.95757 4.0189,-8.97648 8.97647,-8.97648c4.95757,0 8.97648,4.01891 8.97648,8.97648c0,4.95757 -4.01891,8.97648 -8.97648,8.97648c-4.95757,0 -8.97647,-4.01891 -8.97647,-8.97648z" fill="url(#color-7)" stroke="none" stroke-width="0" stroke-linecap="butt"/><path d="M162.86385,133.31945c0,-4.95757 4.0189,-8.97647 8.97647,-8.97647c4.95758,0 8.97648,4.0189 8.97648,8.97647c0,4.95757 -4.01891,8.97648 -8.97648,8.97648c-4.95757,0 -8.97647,-4.01891 -8.97647,-8.97648z" fill="url(#color-8)" stroke="none" stroke-width="0" stroke-linecap="butt"/><path d="M106.42637,104.56042c0,0 6.70895,-5.16922 11.79721,-6.36355c5.08827,-1.19433 12.33413,0.69937 12.33413,0.69937c0,0 -8.03812,-0.06028 -11.96762,0.86207c-4.10648,0.96389 -12.16372,4.80211 -12.16372,4.80211z" fill="#000000" stroke="none" stroke-width="0" stroke-linecap="butt"/><path d="M170.36088,99.75832c-3.9295,-0.92235 -11.96762,-0.86207 -11.96762,-0.86207c0,0 7.24586,-1.8937 12.33413,-0.69937c5.08826,1.19433 11.79721,6.36355 11.79721,6.36355c0,0 -8.05724,-3.83822 -12.16372,-4.80211z" data-paper-data="{&quot;index&quot;:null}" fill="#000000" stroke="none" stroke-width="0" stroke-linecap="butt"/><path d="M108.60542,133.31944c0,-4.95757 4.0189,-8.97648 8.97647,-8.97648c4.95757,0 8.97648,4.01891 8.97648,8.97648c0,4.95757 -4.01891,8.97648 -8.97648,8.97648c-4.95757,0 -8.97647,-4.01891 -8.97647,-8.97648z" fill="url(#color-9)" stroke="none" stroke-width="0" stroke-linecap="butt"/><path d="M162.86385,133.31945c0,-4.95757 4.0189,-8.97648 8.97647,-8.97648c4.95757,0 8.97648,4.01891 8.97648,8.97648c0,4.95757 -4.01891,8.97648 -8.97648,8.97648c-4.95757,0 -8.97647,-4.01891 -8.97647,-8.97648z" fill="url(#color-10)" stroke="none" stroke-width="0" stroke-linecap="butt"/><path d="M-15.7323,162.63644c0,-88.61044 71.83295,-160.44339 160.44339,-160.44339c88.61044,0 160.44339,71.83295 160.44339,160.44339c0,88.61044 -71.83295,160.44339 -160.44339,160.44339c-88.61044,0 -160.44339,-71.83295 -160.44339,-160.44339z" fill="url(#color-11)" stroke="url(#color-12)" stroke-width="15" stroke-linecap="butt"/><path d="M36.5,353.50001v-41h407v41z" fill="#666666" stroke="none" stroke-width="0" stroke-linecap="butt"/><text transform="translate(38.61257,342.38029) scale(0.78169,0.78169)" font-size="40" xml:space="preserve" fill="#ffffff" fill-rule="nonzero" stroke="none" stroke-width="1" stroke-linecap="butt" stroke-linejoin="miter" stroke-miterlimit="10" stroke-dasharray="" stroke-dashoffset="0" font-family="Sans Serif" font-weight="normal" text-anchor="start" style="mix-blend-mode: normal"><tspan x="0" dy="0">Lead Is Mad At Wenda Pt 3</tspan></text><path d="M354.97019,158.43287c0,0 19.17686,3.93219 30.48126,7.57532c12.08754,3.89551 26.51874,13.09135 26.51874,13.09135c0,0 -3.00655,-30.98574 -18,-37.33333c-14.99345,-6.34759 -39,16.66667 -39,16.66667z" fill="#000000" stroke="#000000" stroke-width="2" stroke-linecap="round"/><path d="M406.66329,126.00158c1.77931,-4.62582 6.97171,-6.93338 11.59754,-5.15407c4.62583,1.77931 6.93338,6.97171 5.15407,11.59755c-1.77931,4.62582 -6.97172,6.93339 -11.59755,5.15407c-4.62583,-1.77931 -6.93338,-6.97172 -5.15406,-11.59755z" fill="none" stroke="#000000" stroke-width="5" stroke-linecap="butt"/></g></g></svg>