<svg version="1.1" xmlns="http://www.w3.org/2000/svg" xmlns:xlink="http://www.w3.org/1999/xlink" width="725.51351" height="458.04054" viewBox="0,0,725.51351,458.04054"><g transform="translate(122.00601,46.04054)"><g data-paper-data="{&quot;isPaintingLayer&quot;:true}" stroke-miterlimit="10" stroke-dasharray="" stroke-dashoffset="0" style="mix-blend-mode: normal"><path d="M-122.00601,412v-360h724.03889v360z" fill="#ffffff" fill-rule="nonzero" stroke="none" stroke-width="0" stroke-linecap="butt" stroke-linejoin="miter"/><path d="M-122.00601,55.08069v-101.12123h725.51351v101.12123z" fill="#808080" fill-rule="nonzero" stroke="none" stroke-width="0" stroke-linecap="butt" stroke-linejoin="miter"/><path d="M19.5,123h441" fill="none" fill-rule="nonzero" stroke="#7f7f7f" stroke-width="0.5" stroke-linecap="round" stroke-linejoin="miter"/><text transform="translate(19.4442,99.47992) scale(0.45666,0.45666)" font-size="40" xml:space="preserve" fill="#000000" fill-rule="nonzero" stroke="none" stroke-width="1" stroke-linecap="butt" stroke-linejoin="miter" stroke-miterlimit="10" stroke-dasharray="" stroke-dashoffset="0" font-family="&quot;Microsoft YaHei&quot;, &quot;微软雅黑&quot;, STXihei, &quot;华文细黑&quot;" font-weight="normal" text-anchor="start" style="mix-blend-mode: normal"><tspan x="0" dy="0">Dark mode</tspan></text><path d="M19.5,181h441" fill="none" fill-rule="nonzero" stroke="#7f7f7f" stroke-width="0.5" stroke-linecap="round" stroke-linejoin="miter"/><text transform="translate(19.4442,212.47992) scale(0.45666,0.45666)" font-size="40" xml:space="preserve" fill="#000000" fill-rule="nonzero" stroke="none" stroke-width="1" stroke-linecap="butt" stroke-linejoin="miter" stroke-miterlimit="10" stroke-dasharray="" stroke-dashoffset="0" font-family="&quot;Microsoft YaHei&quot;, &quot;微软雅黑&quot;, STXihei, &quot;华文细黑&quot;" font-weight="normal" text-anchor="start" style="mix-blend-mode: normal"><tspan x="0" dy="0">Update server backup</tspan></text><path d="M223.74193,206.23181c0,-6.08348 4.93165,-11.01514 11.01514,-11.01514c6.08348,0 11.01513,4.93165 11.01513,11.01514c0,6.08348 -4.93165,11.01513 -11.01513,11.01513c-6.08348,0 -11.01514,-4.93165 -11.01514,-11.01513z" fill="#7f7f7f" fill-rule="nonzero" stroke="none" stroke-width="0" stroke-linecap="butt" stroke-linejoin="miter"/><text transform="translate(229.83193,212.56752) scale(0.53177,0.44726)" font-size="40" xml:space="preserve" fill="#ffffff" fill-rule="nonzero" stroke="#ffffff" stroke-width="1" stroke-linecap="butt" stroke-linejoin="miter" stroke-miterlimit="10" stroke-dasharray="" stroke-dashoffset="0" font-family="&quot;ヒラギノ角ゴ Pro W3&quot;, &quot;Hiragino Kaku Gothic Pro&quot;, Osaka, &quot;メイリオ&quot;, Meiryo, &quot;ＭＳ Ｐゴシック&quot;, &quot;MS PGothic&quot;" font-weight="normal" text-anchor="start" style="mix-blend-mode: normal"><tspan x="0" dy="0">?</tspan></text><path d="M442.61945,93.5h-60" fill="none" fill-rule="nonzero" stroke="#b3b3b3" stroke-width="35" stroke-linecap="round" stroke-linejoin="miter"/><path d="M397.61945,93.50001h-15" fill="none" fill-rule="nonzero" stroke="#ffffff" stroke-width="26.5" stroke-linecap="round" stroke-linejoin="miter"/><path d="M442.61945,206h-60" fill="#7f7f7f" fill-rule="nonzero" stroke="#808080" stroke-width="35" stroke-linecap="round" stroke-linejoin="miter"/><path d="M442.61945,206h-60" fill="#7f7f7f" fill-rule="nonzero" stroke="#ffffff" stroke-width="34" stroke-linecap="round" stroke-linejoin="miter"/><text transform="translate(377.4442,212.97992) scale(0.45666,0.45666)" font-size="40" xml:space="preserve" fill="#7f7f7f" fill-rule="nonzero" stroke="none" stroke-width="1" stroke-linecap="butt" stroke-linejoin="miter" stroke-miterlimit="10" stroke-dasharray="" stroke-dashoffset="0" font-family="&quot;Microsoft YaHei&quot;, &quot;微软雅黑&quot;, STXihei, &quot;华文细黑&quot;" font-weight="normal" text-anchor="start" style="mix-blend-mode: normal"><tspan x="0" dy="0">UPDATE</tspan></text><path d="M9.50127,27.22868c0,-10.84593 8.7806,-19.63829 19.61204,-19.63829c10.83143,0 19.61203,8.79236 19.61203,19.63829c0,10.84593 -8.7806,19.63829 -19.61203,19.63829c-10.83143,0 -19.61204,-8.79235 -19.61204,-19.63829z" fill="#a7a7a7" fill-rule="nonzero" stroke="none" stroke-width="2" stroke-linecap="butt" stroke-linejoin="miter"/><path d="M32.00245,34.41008l-8.2014,-7.18582l8.91457,-7.81068" fill="none" fill-rule="nonzero" stroke="#ffffff" stroke-width="2" stroke-linecap="round" stroke-linejoin="miter"/><text transform="translate(56.98386,33.84345) scale(0.43728,0.41678)" font-size="40" xml:space="preserve" fill="#ffffff" fill-rule="nonzero" stroke="none" stroke-width="1" stroke-linecap="butt" stroke-linejoin="miter" stroke-miterlimit="10" stroke-dasharray="" stroke-dashoffset="0" font-family="&quot;Microsoft YaHei&quot;, &quot;微软雅黑&quot;, STXihei, &quot;华文细黑&quot;" font-weight="normal" text-anchor="start" style="mix-blend-mode: normal"><tspan x="0" dy="0">SETTINGS</tspan></text><text transform="translate(19.4442,157.47992) scale(0.45666,0.45666)" font-size="40" xml:space="preserve" fill="#000000" fill-rule="nonzero" stroke="none" stroke-width="1" stroke-linecap="butt" stroke-linejoin="miter" stroke-miterlimit="10" stroke-dasharray="" stroke-dashoffset="0" font-family="&quot;Microsoft YaHei&quot;, &quot;微软雅黑&quot;, STXihei, &quot;华文细黑&quot;" font-weight="normal" text-anchor="start" style="mix-blend-mode: normal"><tspan x="0" dy="0">Accent Color</tspan></text><g fill="#808080" fill-rule="evenodd" stroke="none" stroke-width="0.82588" stroke-linecap="round" stroke-linejoin="round"><path d="M15.03564,331.43132l3.68978,10.49277l3.65133,-10.49277h2.78654l-5.16952,13.64445h-2.55594l-5.18873,-13.64445z"/><path d="M29.73706,345.26795c-0.80713,0 -1.5374,-0.13452 -2.19079,-0.40357c-0.6534,-0.28186 -1.2107,-0.6598 -1.67193,-1.13384c-0.46122,-0.48685 -0.81996,-1.03775 -1.07619,-1.6527c-0.24342,-0.62778 -0.36513,-1.28757 -0.36513,-1.97941c0,-0.96087 0.21139,-1.83847 0.63419,-2.63279c0.4356,-0.79434 1.05055,-1.42852 1.84488,-1.90254c0.80713,-0.48685 1.75519,-0.73026 2.84419,-0.73026c1.1018,0 2.04346,0.24342 2.82498,0.73026c0.78151,0.47403 1.37726,1.10821 1.78723,1.90254c0.42279,0.78151 0.63419,1.62708 0.63419,2.53671c0,0.15374 -0.00644,0.31388 -0.01933,0.48044c-0.01288,0.15374 -0.0257,0.28186 -0.03843,0.38436h-7.7831c0.05124,0.51245 0.19858,0.96087 0.44201,1.34523c0.25623,0.38435 0.57653,0.679 0.96087,0.88399c0.39716,0.19219 0.81995,0.28828 1.26836,0.28828c0.51247,0 0.9929,-0.12171 1.44132,-0.36514c0.46122,-0.25623 0.77511,-0.58934 0.94166,-0.9993l2.21003,0.61494c-0.24342,0.51248 -0.59574,0.9673 -1.05696,1.36445c-0.44841,0.39716 -0.9801,0.71105 -1.59505,0.94168c-0.61495,0.21779 -1.29398,0.32669 -2.03706,0.32669zM27.10426,339.23363h5.26559c-0.05124,-0.51245 -0.19858,-0.95446 -0.44201,-1.32599c-0.23061,-0.38436 -0.5381,-0.67903 -0.92244,-0.88401c-0.38435,-0.2178 -0.81354,-0.32672 -1.28757,-0.32672c-0.46122,0 -0.88401,0.10891 -1.26836,0.32672c-0.37155,0.20498 -0.67904,0.49965 -0.92246,0.88401c-0.23061,0.37152 -0.37152,0.81353 -0.42278,1.32599z"/><path d="M42.57438,337.23502c-0.78151,0 -1.47976,0.15374 -2.09471,0.46122c-0.61495,0.29467 -1.05696,0.72386 -1.326,1.28756v6.09196h-2.57515v-10.06997h2.36376v2.15235c0.35873,-0.69182 0.81354,-1.23632 1.36445,-1.63349c0.5509,-0.39716 1.13384,-0.61496 1.74879,-0.6534c0.14093,0 0.24983,0 0.3267,0c0.07687,0 0.14092,0.00614 0.19218,0.01841z"/><path d="M47.72466,345.26795c-0.85838,0 -1.67834,-0.14093 -2.45985,-0.42279c-0.78151,-0.28186 -1.45412,-0.69824 -2.01785,-1.24913l0.92246,-1.67194c0.60215,0.48686 1.19148,0.84559 1.76801,1.07619c0.58934,0.23063 1.15305,0.34593 1.69114,0.34593c0.49965,0 0.89683,-0.08969 1.19149,-0.26906c0.30748,-0.17937 0.46122,-0.4484 0.46122,-0.80712c0,-0.24343 -0.08328,-0.4292 -0.24983,-0.55732c-0.16655,-0.14099 -0.40998,-0.2627 -0.73028,-0.36512c-0.30748,-0.10249 -0.68542,-0.21779 -1.13384,-0.34593c-0.74308,-0.24342 -1.36445,-0.48043 -1.8641,-0.71104c-0.49965,-0.2306 -0.8776,-0.51886 -1.13384,-0.86479c-0.24342,-0.35872 -0.36514,-0.81353 -0.36514,-1.36445c0,-0.6662 0.16655,-1.23632 0.49966,-1.71035c0.34592,-0.48686 0.81995,-0.86481 1.42209,-1.13384c0.61495,-0.26905 1.33241,-0.40357 2.15236,-0.40357c0.71745,0 1.39648,0.1153 2.03706,0.3459c0.64058,0.2178 1.22353,0.57654 1.7488,1.07619l-1.03775,1.63349c-0.51247,-0.39715 -0.99931,-0.68541 -1.46054,-0.86477c-0.46122,-0.19219 -0.92885,-0.28828 -1.40288,-0.28828c-0.26904,0 -0.52528,0.03207 -0.7687,0.09619c-0.23061,0.06412 -0.42279,0.17302 -0.57653,0.32669c-0.14093,0.14099 -0.21139,0.34598 -0.21139,0.61496c0,0.24342 0.06405,0.43559 0.19218,0.57652c0.14093,0.12811 0.34592,0.24342 0.61495,0.34593c0.28186,0.10249 0.62137,0.21778 1.01853,0.3459c0.80713,0.23063 1.48616,0.46764 2.03706,0.71106c0.56371,0.24342 0.9865,0.54449 1.26836,0.90322c0.28186,0.34592 0.42279,0.82635 0.42279,1.44131c0,0.99931 -0.36513,1.78082 -1.0954,2.34453c-0.73026,0.56371 -1.71036,0.84558 -2.94028,0.84558z"/><path d="M53.50913,345.07577v-10.06997h2.57515v10.06997zM53.50913,333.60289v-2.55593h2.57515v2.55593z"/><path d="M63.06023,345.26795c-0.81996,0 -1.55661,-0.13452 -2.21001,-0.40357c-0.6534,-0.28186 -1.2107,-0.6662 -1.67193,-1.15305c-0.44841,-0.48685 -0.79432,-1.04414 -1.03775,-1.67192c-0.24342,-0.62778 -0.36513,-1.28757 -0.36513,-1.97941c0,-0.70465 0.12171,-1.37086 0.36513,-1.99862c0.24343,-0.62778 0.58933,-1.18507 1.03775,-1.67192c0.46122,-0.48685 1.01853,-0.86478 1.67193,-1.13384c0.6534,-0.28186 1.39006,-0.42279 2.21001,-0.42279c0.81996,0 1.55022,0.14093 2.1908,0.42279c0.6534,0.26905 1.2107,0.64699 1.67193,1.13384c0.46122,0.48685 0.80713,1.04414 1.03775,1.67192c0.24342,0.62778 0.36513,1.29398 0.36513,1.99862c0,0.69184 -0.12171,1.35163 -0.36513,1.97941c-0.23061,0.62778 -0.57653,1.18507 -1.03775,1.67192c-0.44841,0.48685 -0.99931,0.8712 -1.65271,1.15305c-0.6534,0.26905 -1.39007,0.40357 -2.21003,0.40357zM60.42743,340.05999c0,0.58934 0.1153,1.11462 0.34592,1.57584c0.23061,0.44841 0.5445,0.80074 0.94167,1.05697c0.39716,0.25622 0.84557,0.38434 1.34522,0.38434c0.48685,0 0.92885,-0.12812 1.32602,-0.38434c0.39716,-0.26905 0.71104,-0.62778 0.94166,-1.07619c0.24343,-0.46122 0.36514,-0.9865 0.36514,-1.57584c0,-0.57653 -0.12171,-1.0954 -0.36514,-1.55662c-0.23061,-0.46122 -0.54449,-0.81996 -0.94166,-1.07619c-0.39716,-0.25622 -0.83917,-0.38434 -1.32602,-0.38434c-0.49965,0 -0.94805,0.13452 -1.34522,0.40355c-0.39716,0.25623 -0.71105,0.61496 -0.94167,1.07619c-0.23061,0.44841 -0.34592,0.96729 -0.34592,1.55662z"/><path d="M79.41437,345.07577h-2.57515v-5.64995c0,-0.80713 -0.14093,-1.39646 -0.42279,-1.76802c-0.28186,-0.37152 -0.67262,-0.5573 -1.17227,-0.5573c-0.34592,0 -0.69824,0.08968 -1.05697,0.26904c-0.34592,0.17937 -0.65979,0.42919 -0.94166,0.74948c-0.28186,0.30748 -0.48684,0.6662 -0.61495,1.07619v5.88057h-2.57515v-10.06997h2.32532v1.8641c0.25623,-0.4356 0.58294,-0.80074 0.9801,-1.0954c0.39716,-0.30748 0.85197,-0.5381 1.36445,-0.69183c0.52528,-0.16655 1.07619,-0.24983 1.65271,-0.24983c0.62778,0 1.14023,0.1153 1.5374,0.3459c0.40997,0.2178 0.71747,0.51887 0.92246,0.90322c0.2178,0.37156 0.36513,0.79434 0.44201,1.26837c0.08969,0.47403 0.13454,0.95446 0.13454,1.44131z"/><path d="M95.96067,339.44502c0,1.12744 -0.2178,2.13316 -0.6534,3.01717c-0.42279,0.87118 -1.01212,1.55661 -1.76801,2.05628c-0.74308,0.49965 -1.58866,0.74948 -2.53672,0.74948c-0.94806,0 -1.80005,-0.24983 -2.55594,-0.74948c-0.74308,-0.49966 -1.33241,-1.1851 -1.76801,-2.05628c-0.42279,-0.88401 -0.63419,-1.88973 -0.63419,-3.01717c0,-1.12743 0.21139,-2.12673 0.63419,-2.99793c0.4356,-0.88401 1.02493,-1.57584 1.76801,-2.07549c0.75588,-0.51248 1.60787,-0.76872 2.55594,-0.76872c0.94806,0 1.79364,0.25623 2.53672,0.76872c0.75588,0.49965 1.34522,1.19148 1.76801,2.07549c0.4356,0.87121 0.6534,1.87051 0.6534,2.99793zM93.3663,339.44502c0,-0.69182 -0.1025,-1.29397 -0.30748,-1.80644c-0.19218,-0.52528 -0.46761,-0.93525 -0.82635,-1.22991c-0.35873,-0.29467 -0.76871,-0.44201 -1.22993,-0.44201c-0.47403,0 -0.89041,0.14734 -1.24914,0.44201c-0.35873,0.29467 -0.64058,0.70463 -0.84557,1.22991c-0.19218,0.51248 -0.28827,1.11464 -0.28827,1.80644c0,0.69184 0.09609,1.29399 0.28827,1.80644c0.20498,0.51248 0.48684,0.91606 0.84557,1.21071c0.35873,0.29467 0.77512,0.44201 1.24914,0.44201c0.46122,0 0.86479,-0.14734 1.2107,-0.44201c0.35873,-0.29467 0.64058,-0.69824 0.84557,-1.21071c0.20498,-0.52528 0.30748,-1.12743 0.30748,-1.80644z"/><path d="M98.01696,345.07577v-2.76732h2.11392v2.76732z"/><path d="M101.95656,345.07577c0,-0.57653 0.04484,-1.0954 0.13454,-1.55662c0.08969,-0.46122 0.24343,-0.89041 0.46122,-1.28756c0.23061,-0.39716 0.5381,-0.76871 0.92244,-1.11462c0.39716,-0.35873 0.89683,-0.70466 1.49897,-1.03776c0.52528,-0.28186 0.9865,-0.52528 1.38366,-0.73026c0.39716,-0.2178 0.73028,-0.41639 0.99931,-0.59575c0.28186,-0.17937 0.49324,-0.35872 0.63417,-0.53808c0.14093,-0.19217 0.21139,-0.40997 0.21139,-0.6534c0,-0.25623 -0.07046,-0.48685 -0.21139,-0.69183c-0.14093,-0.2178 -0.33951,-0.39077 -0.59574,-0.51886c-0.25623,-0.12811 -0.57654,-0.19216 -0.96088,-0.19216c-0.30748,0 -0.59574,0.03843 -0.86478,0.11529c-0.25623,0.07687 -0.49966,0.18577 -0.73028,0.32672c-0.2178,0.14099 -0.42278,0.30113 -0.61495,0.48044c-0.19218,0.16655 -0.36514,0.34592 -0.51887,0.53808l-1.63349,-1.88331c0.17937,-0.17937 0.41638,-0.37155 0.71104,-0.57654c0.30748,-0.21779 0.66621,-0.41636 1.07619,-0.59573c0.42279,-0.19219 0.88401,-0.34593 1.38366,-0.46122c0.51247,-0.12811 1.05696,-0.19216 1.63349,-0.19216c0.8712,0 1.61429,0.14093 2.22924,0.42279c0.61495,0.26903 1.0826,0.64698 1.40288,1.13384c0.33311,0.48685 0.49965,1.05696 0.49965,1.71035c0,0.44841 -0.08328,0.84558 -0.24983,1.1915c-0.16655,0.34592 -0.37795,0.65339 -0.63419,0.92244c-0.25623,0.25622 -0.53808,0.48684 -0.84557,0.69183c-0.29467,0.20498 -0.58294,0.38435 -0.86479,0.53808c-0.39716,0.20498 -0.75589,0.39716 -1.07619,0.57654c-0.32029,0.16655 -0.60215,0.33951 -0.84557,0.51886c-0.24342,0.16655 -0.46122,0.33951 -0.6534,0.51886c-0.17937,0.17937 -0.33951,0.38435 -0.48044,0.61496h5.86135v2.32532z"/><path d=""/></g><path d="M442.68275,151.46981h-60" fill="#666666" fill-rule="nonzero" stroke="#666666" stroke-width="34" stroke-linecap="round" stroke-linejoin="miter"/><g fill="#ffffff" fill-rule="evenodd" stroke="none" stroke-width="2.58387" stroke-linecap="round" stroke-linejoin="round"><path d="M388.31735,149.5003v8.89205h-2.691v-13.84508h2.145l7.15653,9.12604v-9.10655h2.69103v13.82559h-2.24251z"/><path d="M406.41346,158.48984c-1.01401,0 -1.93703,-0.195 -2.76903,-0.58499c-0.81901,-0.39001 -1.5275,-0.91652 -2.12551,-1.57951c-0.58499,-0.67601 -1.03999,-1.43001 -1.365,-2.26202c-0.325,-0.84501 -0.48751,-1.70951 -0.48751,-2.59352c0,-0.92301 0.169,-1.80051 0.50699,-2.63252c0.35099,-0.84501 0.8255,-1.5925 1.42351,-2.24251c0.61101,-0.663 1.32602,-1.183 2.14501,-1.56c0.83201,-0.39001 1.742,-0.58502 2.73001,-0.58502c1.00101,0 1.91101,0.2015 2.73001,0.6045c0.83201,0.40301 1.54052,0.94251 2.12553,1.61852c0.58499,0.67601 1.03999,1.43001 1.365,2.26202c0.325,0.83201 0.48751,1.69001 0.48751,2.57401c0,0.91001 -0.169,1.78751 -0.50699,2.63252c-0.33802,0.83201 -0.81251,1.57951 -1.42351,2.24251c-0.59801,0.65 -1.31301,1.1635 -2.14501,1.54051c-0.81901,0.37701 -1.716,0.56551 -2.691,0.56551zM402.39643,151.46981c0,0.59801 0.091,1.17651 0.27299,1.73551c0.18201,0.55902 0.44201,1.05951 0.78001,1.50151c0.35099,0.429 0.77351,0.77351 1.2675,1.0335c0.507,0.247 1.07901,0.3705 1.716,0.3705c0.65,0 1.22851,-0.12999 1.73551,-0.39c0.507,-0.273 0.92951,-0.63051 1.2675,-1.07251c0.33802,-0.455 0.59151,-0.95548 0.76051,-1.50149c0.18199,-0.55902 0.27299,-1.11801 0.27299,-1.67702c0,-0.59801 -0.0975,-1.17 -0.2925,-1.716c-0.18199,-0.55902 -0.44849,-1.05301 -0.79949,-1.482c-0.33802,-0.44201 -0.76052,-0.78651 -1.26752,-1.03352c-0.494,-0.25999 -1.05299,-0.39 -1.677,-0.39c-0.663,0 -1.248,0.1365 -1.75501,0.4095c-0.494,0.25999 -0.91,0.611 -1.24801,1.05301c-0.33799,0.442 -0.59799,0.936 -0.78,1.482c-0.169,0.546 -0.2535,1.10501 -0.2535,1.677z"/><path d="M417.93803,149.5003v8.89205h-2.691v-13.84508h2.145l7.15655,9.12604v-9.10655h2.691v13.82559h-2.24251z"/><path d="M439.73916,156.03285v2.35951h-9.61356v-13.84508h9.43807v2.35951h-6.74704v3.33452h5.83053v2.18401h-5.83053v3.60752z"/></g></g></g></svg>