<svg version="1.1" xmlns="http://www.w3.org/2000/svg" xmlns:xlink="http://www.w3.org/1999/xlink" width="150.04303" height="230.54679" viewBox="0,0,150.04303,230.54679"><g transform="translate(-159.09527,-77.95321)"><g data-paper-data="{&quot;isPaintingLayer&quot;:true}" fill-rule="nonzero" stroke-linecap="butt" stroke-linejoin="miter" stroke-miterlimit="10" stroke-dasharray="" stroke-dashoffset="0" style="mix-blend-mode: normal"><path d="M217.80082,269.41024c0,0 -10.07755,1.37212 -12.949,2.13201c-2.83617,0.75055 -4.7671,2.2699 -4.7671,2.2699l0.59188,-19.61547h-0.5905c0,0 76.82198,-2.91455 79.86656,-0.29985c0.14844,0.12749 2.02965,22.39471 1.50019,22.56959c-0.47711,0.15757 -1.52487,-1.98773 -2.64615,-2.61006c-0.75859,-0.42103 -4.6956,-2.35402 -10.23482,-2.83458c-1.7652,-0.15314 -4.28358,0.03191 -6.32316,-0.09362c-18.11415,-1.11483 -44.44788,-1.51793 -44.44788,-1.51793z" fill="#a8bacd" stroke="none" stroke-width="0"/><path d="M164.8967,148.34619c0,-1.65654 -5.80143,-1.9233 -5.80143,-1.9233c0,0 6.69584,-8.87746 7.35214,-11.71771c6.65986,-28.82218 23.99043,-56.21969 66.68631,-56.74538c45.68643,-0.56252 68.23702,35.01087 68.23702,70.3864c0,0.66795 3.07779,7.31159 4.43041,10.36634c2.27861,5.14598 3.33715,7.45866 3.33715,7.45866c0,0 -2.64733,-1.66693 -4.82385,-3.56682c-2.14071,-1.86864 -3.80963,-3.97893 -3.99144,-3.01508c-0.43459,2.30399 -0.59561,10.92242 -4.12876,19.9176c-3.49395,8.89536 -10.36285,18.18124 -10.36285,18.18124c0,0 -2.29192,-5.28642 -3.77673,-3.14158c-6.07718,8.77862 -11.2964,15.30957 -11.2964,15.30957c0,0 -2.40974,-4.97718 -4.47106,-3.86765c-9.32569,5.01966 -20.06286,7.91078 -31.65348,7.91078c-12.60656,0 -24.772,-3.56633 -35.27102,-9.52744c-2.72845,-1.54916 -0.82623,4.38789 -0.82623,4.38789c0,0 -7.93843,-5.19677 -13.15685,-11.00681c-6.08759,-6.77777 -9.73663,-14.57056 -12.13914,-18.68944c-0.34082,-0.58431 -4.01999,1.58785 -5.934,2.01254c-2.96082,0.65696 -4.48364,-0.08182 -4.48364,-0.08182c0,0 2.67098,-3.37669 3.55098,-5.15497c0.94364,-1.90688 1.93325,-5.92746 1.93325,-5.92746c0,0 -2.66402,1.90888 -4.05965,2.38502c-1.48595,0.50696 -4.60208,0.57008 -4.60208,0.57008c0,0 4.39229,-5.64339 5.74307,-11.5602c1.27257,-5.57422 -0.4917,-11.39111 -0.4917,-12.96047z" fill="#000000" stroke="#000000" stroke-width="0"/><path d="M206.75008,307.5l15.14285,-131.8421l37.78325,-0.15789l13.57389,132z" fill="#000000" stroke="#000000" stroke-width="2"/><path d="M241.14582,279.09382c0,0 -0.86378,0.05674 -2.23663,-0.13756c-2.06769,-0.29266 -5.29017,-0.96306 -8.45551,-1.72747c-5.79551,-1.39958 -11.50439,-3.49366 -12.00982,-3.57584c-2.26488,-0.36832 -8.507,0.6033 -8.507,0.6033l2.33408,-20.71083l27.21566,3.02348l28.60562,-6.69371c0,0 1.75581,22.88761 1.59127,23.31945c-0.16012,0.42019 -4.35583,0.61858 -7.80524,1.64449c-4.00732,1.19182 -9.3586,3.69959 -9.71496,3.74872c-2.15216,0.2968 -11.01748,0.50596 -11.01748,0.50596z" fill="#456861" stroke="none" stroke-width="0"/><path d="M199.90557,252.85432v-1.51573c0,0 -1.05359,-56.23246 12.25346,-56.23246c1.83171,0 -6.32235,13.91259 -2.25375,24.36469c4.457,11.44993 21.34713,19.50893 28.15583,18.96665c4.87632,-0.38838 25.92627,-2.61954 31.32522,-12.98262c6.24882,-11.99442 -3.2525,-32.12349 0.49921,-28.69871c15.14103,13.82164 10.92176,54.58246 10.92176,54.58246v1.51573c0,0 -11.46053,7.59601 -40.34163,7.23534c-29.69609,-0.37086 -40.5601,-7.23534 -40.5601,-7.23534z" fill="#031717" stroke="none" stroke-width="0"/><path d="M230.47245,190.15605c0,0 6.4485,5.57229 9.83774,5.5545c3.32819,-0.01748 10.31785,-5.66032 10.31785,-5.66032l-10.05273,27.3664l-10.10285,-27.26059z" fill="#bed3e4" stroke="none" stroke-width="0"/><path d="M278.22292,218.48325c-0.19687,5.05736 -1.63554,10.0034 -1.77356,10.76128c-0.54527,2.99423 -2.98268,8.70228 -6.44441,11.77844c-2.86889,2.54933 -7.69196,3.67035 -8.41625,3.49302c-0.40089,-0.09814 -3.94547,-0.81159 -6.76881,-2.48346c-2.22528,-1.31772 -3.73903,-3.56018 -4.7212,-4.3051c-1.54346,-1.17061 -7.4208,4.14133 -8.55716,2.91058c-2.52071,-2.73006 0.56143,-11.74735 0.5595,-11.75745c-0.3111,-1.62321 2.86267,-1.10153 4.57724,-3.66914c1.43669,-2.1515 1.79023,-1.7201 1.79023,-1.7201c0,0 14.78725,-1.8212 15.55913,-2.20186c0.3481,-0.17166 -2.51072,-5.59396 -1.60715,-7.68583c1.14283,-2.64575 2.18454,-6.5816 1.74555,-10.7452c-0.92611,-8.78359 -6.70583,-18.54089 -6.70583,-18.54089l3.36777,-1.5048c0,0 3.62956,3.19649 7.03298,7.10466c2.59956,2.98509 4.99473,6.6027 5.97018,8.23731c2.34235,3.92523 3.59195,8.63859 3.59195,8.63859c0,0 1.02457,5.91746 0.79987,11.68995z" data-paper-data="{&quot;index&quot;:null}" fill="#2c4c46" stroke="none" stroke-width="0"/><path d="M203.59063,206.90981c0,0 1.24959,-4.71336 3.59195,-8.63859c0.97545,-1.63462 3.37062,-5.25223 5.97018,-8.23731c3.40341,-3.90816 7.03298,-7.10466 7.03298,-7.10466l3.36777,1.5048c0,0 -5.7797,9.75731 -6.70583,18.54089c-0.43899,4.16361 0.60272,8.09944 1.74555,10.74521c0.90358,2.09187 -1.95525,7.51417 -1.60714,7.68583c0.77188,0.38066 15.55913,2.20186 15.55913,2.20186c0,0 0.35353,-0.4314 1.79023,1.7201c1.71457,2.56762 4.88834,2.04592 4.57724,3.66915c-0.00194,0.0101 3.0802,9.02738 0.5595,11.75745c-1.13636,1.23074 -7.0137,-4.08121 -8.55716,-2.91059c-0.98216,0.74491 -2.49591,2.98738 -4.72119,4.3051c-2.82334,1.67189 -6.36793,2.38531 -6.76882,2.48346c-0.7243,0.17732 -5.54738,-0.94368 -8.41625,-3.49302c-3.46175,-3.07615 -5.89915,-8.78421 -6.44443,-11.77843c-0.13801,-0.75788 -1.5767,-5.70393 -1.77356,-10.76128c-0.22471,-5.77248 0.79986,-11.68995 0.79986,-11.68995z" fill="#2c4c46" stroke="none" stroke-width="0"/><path d="M210.32975,200.45953c0,0 2.59195,-6.97125 4.15926,-9.57357c1.83903,-3.05348 7.60959,-8.38596 7.60959,-8.38596l2.68194,1.51026c0,0 -5.80075,9.79282 -6.73024,18.60837c-0.44059,4.17876 0.60492,8.12893 1.7519,10.78432c0.90687,2.09948 1.87715,3.35296 2.22652,3.52525c0.77469,0.38205 12.12529,0.81369 12.12529,0.81369c0,0 2.44909,1.13775 3.89103,3.29708c1.72081,2.57696 2.4628,6.06743 2.15056,7.69655c-0.00538,0.02809 0.91204,0.03911 0.91204,0.03911l0.81035,49.89409c0,0 -2.2144,-0.26331 -2.33108,-0.08784c-0.30353,0.45643 -0.84048,-46.36306 -1.48462,-46.67232c-0.84894,-0.40759 -1.99107,-3.68331 -4.60886,-4.47805c-0.9819,-0.29809 -3.49874,0.24275 -6.14633,1.0049c-2.91271,0.83849 -5.9426,1.92432 -6.30949,1.97991c-3.77819,0.57244 -8.44846,-7.17326 -10.01911,-8.30999c-3.59825,-2.60418 -0.68876,-21.6458 -0.68876,-21.6458z" fill="#607f7a" stroke="none" stroke-width="0"/><path d="M270.21511,222.14486c-1.57065,1.13673 -6.24092,8.88243 -10.01911,8.30999c-0.36689,-0.0556 -3.3968,-1.14141 -6.3095,-1.97991c-2.64762,-0.76218 -5.16445,-1.30301 -6.14634,-1.00491c-2.61779,0.79475 -3.7599,4.07048 -4.60884,4.47806c-0.64414,0.30926 -1.18109,47.12875 -1.48462,46.67232c-0.11668,-0.17546 -2.33108,0.08784 -2.33108,0.08784l0.81035,-49.89409c0,0 0.91741,-0.01103 0.91203,-0.03912c-0.31224,-1.62912 0.42976,-5.11958 2.15057,-7.69654c1.44192,-2.15932 3.89102,-3.29709 3.89102,-3.29709c0,0 11.35061,-0.43165 12.1253,-0.81369c0.34937,-0.17229 1.31966,-1.42577 2.22652,-3.52525c1.14698,-2.65539 2.19249,-6.60556 1.7519,-10.78432c-0.92949,-8.81556 -6.73024,-18.60837 -6.73024,-18.60837l2.68194,-1.51026c0,0 5.77055,5.33247 7.60959,8.38596c1.5673,2.60232 4.15926,9.57356 4.15926,9.57356c0,0 2.90951,19.04163 -0.68876,21.64581z" data-paper-data="{&quot;index&quot;:null}" fill="#607f7a" stroke="none" stroke-width="0"/><path d="M169.33998,145.34616c0,-33.30185 28.7599,-60.29833 64.23702,-60.29833c35.47712,0 64.23702,26.99649 64.23702,60.29833c0,33.30185 -28.7599,60.29833 -64.23702,60.29833c-35.47712,0 -64.23702,-26.99649 -64.23702,-60.29833z" fill="#ffffff" stroke="#000000" stroke-width="2"/><path d="M170.06304,145.39998c0,-0.72799 5.20666,55.91939 63.36046,56.93429c55.56352,0.9697 63.51358,-57.95314 63.51358,-56.93429c0,32.80479 -28.40173,59.39833 -63.43702,59.39833c-35.03529,0 -63.43702,-26.59354 -63.43702,-59.39833z" fill="#e6e6e6" stroke="#000000" stroke-width="0"/><path d="M182.89021,145.77563c0,-12.968 10.51265,-23.48065 23.48065,-23.48065c12.968,0 23.48065,10.51265 23.48065,23.48065c0,12.968 -10.51265,23.48065 -23.48065,23.48065c-12.968,0 -23.48065,-10.51265 -23.48065,-23.48065z" fill="#ffffff" stroke="#000000" stroke-width="2"/><path d="M189.95558,145.5c0,-9.12808 7.39976,-16.52784 16.52783,-16.52784c9.12808,0 16.52784,7.39977 16.52784,16.52784c0,9.12808 -7.39977,16.52784 -16.52784,16.52784c-9.12808,0 -16.52783,-7.39977 -16.52783,-16.52784z" fill="#000000" stroke="none" stroke-width="0"/><path d="M260.62926,169.25627c-12.968,0 -23.48065,-10.51265 -23.48065,-23.48065c0,-12.968 10.51265,-23.48065 23.48065,-23.48065c12.968,0 23.48065,10.51265 23.48065,23.48065c0,12.968 -10.51265,23.48065 -23.48065,23.48065z" data-paper-data="{&quot;index&quot;:null}" fill="#ffffff" stroke="#000000" stroke-width="2"/><path d="M260.51671,162.02784c-9.12807,0 -16.52783,-7.39977 -16.52783,-16.52784c0,-9.12808 7.39977,-16.52784 16.52783,-16.52784c9.12807,0 16.52783,7.39977 16.52783,16.52784c0,9.12808 -7.39977,16.52784 -16.52783,16.52784z" data-paper-data="{&quot;index&quot;:null}" fill="#000000" stroke="none" stroke-width="0"/><path d="M182.89021,145.77563c0,-12.968 10.51265,-23.48065 23.48065,-23.48065c12.968,0 23.48065,10.51265 23.48065,23.48065c0,0 -46.96131,1.23155 -46.96131,0z" fill="#ffffff" stroke="#000000" stroke-width="2"/><path d="M237.14864,145.77563c0,-12.968 10.51265,-23.48065 23.48065,-23.48065c12.968,0 23.48065,10.51265 23.48065,23.48065c0,1.2138 -46.96131,0 -46.96131,0z" data-paper-data="{&quot;index&quot;:null}" fill="#ffffff" stroke="#000000" stroke-width="2"/><path d="M195.52788,116.96716c0,0 6.70895,-5.16922 11.79721,-6.36355c5.08827,-1.19433 12.33413,0.69937 12.33413,0.69937c0,0 -8.03812,-0.06028 -11.96762,0.86207c-4.10648,0.96389 -12.16372,4.80211 -12.16372,4.80211z" fill="#000000" stroke="none" stroke-width="0"/><path d="M259.46236,112.16506c-3.9295,-0.92235 -11.96762,-0.86207 -11.96762,-0.86207c0,0 7.24586,-1.8937 12.33413,-0.69937c5.08826,1.19433 11.79721,6.36355 11.79721,6.36355c0,0 -8.05724,-3.83822 -12.16372,-4.80211z" data-paper-data="{&quot;index&quot;:null}" fill="#000000" stroke="none" stroke-width="0"/><path d="M174.41909,115.63723c11.42496,-22.68233 31.40973,-33.07142 60.56473,-32.85267c24.16321,0.18129 39.14424,9.27509 47.64651,17.23625c0.95139,0.89084 -11.16905,5.58091 -18.25999,7.52146c-15.29703,4.18628 -30.35723,6.25195 -30.35723,6.25195l6.65013,-11.17032c0,0 -23.70536,7.34319 -34.98048,9.59002c-11.17264,2.22641 -31.26367,3.4233 -31.26367,3.4233z" fill="#000000" stroke="none" stroke-width="0"/><g stroke="none"><g><path d="M170.24992,161.0665l-3.62241,-37.51598c0.55282,-0.54171 1.10083,-1.12729 1.64297,-1.77351c0.78967,-0.94125 1.41774,-1.9877 1.94235,-3.09845c0.77207,6.21468 1.91272,10.78054 1.91272,10.78054c0,0 20.36452,8.09332 61.14509,8.2945c42.57382,0.21004 60.63398,-7.85412 60.63398,-7.85412c0,0 3.11376,-6.4679 4.29828,-14.61406c0.13433,0.24 0.22177,0.41833 0.24999,0.51787c0.91518,3.22753 1.55322,6.40259 2.66075,9.31388c-1.86951,16.84614 -4.27703,35.70174 -4.27703,35.70174c0,0 -17.72624,10.81312 -62.81431,11.0106c-42.49822,0.18614 -63.77238,-10.76298 -63.77238,-10.76298z" fill="#132d2a" stroke-width="0"/><path d="M176.01205,115.35779c0,0 36.87588,3.83264 56.19438,3.77364c19.08836,-0.05831 59.03452,-4.12556 59.03452,-4.12556c0,0 0.85555,-3.9097 1.40757,-8.04533c1.45446,2.04952 5.57552,8.03566 5.80438,8.84275c0.00198,0.007 0.00397,0.014 0.00595,0.02099c-0.06047,1.2787 -0.13389,2.25193 -0.21566,2.79851c-0.5421,3.62385 -2.39512,10.47808 -2.48703,11.37147c-0.11057,1.07474 -11.02722,4.41389 -28.19119,6.4681c-9.91597,1.18676 -23.33299,1.79777 -34.30184,1.67453c-13.66148,-0.15348 -26.31695,-0.83609 -37.11747,-2.44963c-14.69788,-2.19577 -25.40637,-5.46702 -25.40637,-5.46702l-1.01285,-10.58809c2.29415,-4.16094 2.76693,-9.47482 4.84056,-13.53491c0.61633,4.91581 1.44505,9.26054 1.44505,9.26054z" fill="#456861" stroke-width="NaN"/></g><g fill="none" stroke-width="1" font-family="sans-serif" font-weight="normal" font-size="12" text-anchor="start"/></g><path d="M240.69745,189.9741c0,3.89076 -3.23474,7.04485 -7.225,7.04485c-3.99026,0 -7.225,-3.15408 -7.225,-7.04485c0,-3.89076 3.23474,-7.04485 7.225,-7.04485c3.99026,0 7.225,3.15408 7.225,7.04485z" fill="#000000" stroke="none" stroke-width="0"/></g></g></svg>