<svg version="1.1" xmlns="http://www.w3.org/2000/svg" xmlns:xlink="http://www.w3.org/1999/xlink" width="159.68198" height="235.04678" viewBox="0,0,159.68198,235.04678"><defs><radialGradient cx="289.04643" cy="191.95557" r="34.16743" gradientUnits="userSpaceOnUse" id="color-1"><stop offset="0" stop-color="#364c47" stop-opacity="0"/><stop offset="1" stop-color="#364c47"/></radialGradient><radialGradient cx="296.42409" cy="199.02933" r="34.16743" gradientUnits="userSpaceOnUse" id="color-2"><stop offset="0" stop-color="#a95d1f" stop-opacity="0"/><stop offset="1" stop-color="#a95d1f"/></radialGradient><radialGradient cx="183.57594" cy="198.67979" r="34.16743" gradientUnits="userSpaceOnUse" id="color-3"><stop offset="0" stop-color="#a95d1f" stop-opacity="0"/><stop offset="1" stop-color="#a95d1f"/></radialGradient><radialGradient cx="190.76741" cy="191.79983" r="34.16744" gradientUnits="userSpaceOnUse" id="color-4"><stop offset="0" stop-color="#364c47" stop-opacity="0"/><stop offset="1" stop-color="#364c47"/></radialGradient></defs><g transform="translate(-160.15902,-62.47664)"><g data-paper-data="{&quot;isPaintingLayer&quot;:true}" fill-rule="nonzero" stroke-linecap="butt" stroke-linejoin="miter" stroke-miterlimit="10" stroke-dasharray="" stroke-dashoffset="0" style="mix-blend-mode: normal"><g><path d="M263.72666,189.41449c3.22905,2.89726 7.23056,7.81702 9.75485,14.04475c3.49327,8.61833 1.09117,21.39271 1.24614,27.25852c0.22626,8.56425 -12.88245,4.26235 -12.88245,4.26235c0,0 3.42166,41.41922 -0.53305,41.31367c-5.85771,-0.15633 -35.25073,-1.39602 -40.40212,-0.46175c-3.37643,0.61236 -1.75928,-40.33948 -1.75928,-40.33948c0,0 -8.94587,0.20645 -11.69155,-1.59664c-2.90268,-1.90619 -0.78309,-22.88383 -0.78309,-24.28373c0,-6.39306 12.20133,-23.23341 17.73291,-23.23341c0.98896,0 33.71956,-0.36446 35.75456,0.96441c2.93964,1.91962 -23.84978,24.42102 -19.61373,23.93436c4.20135,-0.48266 8.64828,-19.58171 12.24749,-21.48325c1.58481,-0.83729 3.0762,-3.29688 4.62496,-3.50136c2.66421,-0.35176 5.17648,2.10957 6.30436,3.12155z" fill="#000000" stroke="#000000" stroke-width="2"/><path d="M206.50004,297.52341l15.14285,-131.8421l37.78325,-0.15789l13.57389,132z" fill="#294640" stroke="#000000" stroke-width="0"/><path d="M206.50004,297.52341l15.14285,-131.8421l20.28325,-0.15789l-5.42611,132z" fill="#031517" stroke="#000000" stroke-width="0"/><path d="M270.43129,260.84072c-4.16814,5.10043 -26.99554,14.18258 -28.26535,15.61101c-0.76337,0.85872 -2.57614,-0.19812 -2.57614,-0.19812c0,0 3.78163,-6.36884 9.42392,-14.85346c5.7366,-8.62643 24.71744,-24.75667 24.71744,-24.75667l2.39806,-2.54387v12.7805c0,0 0.17597,6.77288 -5.69792,13.9606z" data-paper-data="{&quot;index&quot;:null}" fill="#456761" stroke="none" stroke-width="0"/><path d="M203.46643,246.84169v-12.7805l2.39805,2.54387c0,0 18.98084,16.13025 24.71744,24.75667c5.64229,8.48462 9.42392,14.85346 9.42392,14.85346c0,0 -1.81278,1.05684 -2.57614,0.19812c-1.26981,-1.42842 -24.09723,-10.51057 -28.26535,-15.611c-5.87388,-7.18772 -5.69791,-13.9606 -5.69791,-13.9606z" fill="#2c4c45" stroke="none" stroke-width="0"/><path d="M202.12328,234.06246c0,0 -1.10166,-6.28954 -0.18273,-11.98573c1.34303,-8.3251 4.87146,-17.51343 4.87146,-21.53867c0,-3.10778 5.62647,-7.03309 5.62647,-7.03309l22.97477,3.98543c0,0 35.23973,-5.04451 36.68387,-2.43075c0.86486,1.56532 3.48079,11.50019 4.85742,21.07796c1.20204,8.36306 1.23643,16.62095 1.23643,16.62095l-22.74225,26.66693l-15.69466,16.94646l-15.12488,-16.75589z" fill="#000000" stroke="none" stroke-width="0"/><path d="M239.48966,229.89197c0,0 33.78555,-24.9681 32.26988,-28.30874c-1.36541,-3.00948 -5.84409,-6.27533 -5.84409,-6.27533l2.3056,-4.07915c0,0 6.91869,3.74836 8.51174,6.4586c0.49428,0.84092 2.04775,4.15653 1.62921,8.2469c-0.38216,3.7347 -2.5558,8.08579 -5.7047,12.38402c-4.47431,6.10741 -9.71539,13.3144 -15.61664,18.66005c-8.5819,7.77391 -17.37362,12.59998 -17.37362,12.59998z" data-paper-data="{&quot;index&quot;:null}" fill="#456761" stroke="none" stroke-width="0"/><path d="M239.83306,249.28707c0,0 -8.79173,-4.82607 -17.37362,-12.59998c-5.90125,-5.34564 -11.14233,-12.55263 -15.61665,-18.66005c-3.1489,-4.29823 -5.32255,-8.64932 -5.7047,-12.38402c-0.41854,-4.09037 1.13493,-7.40598 1.62921,-8.2469c1.59305,-2.71026 8.51173,-6.4586 8.51173,-6.4586l2.30561,4.07915c0,0 -4.47869,3.26587 -5.84411,6.27533c-1.51565,3.34063 32.26988,28.30874 32.26988,28.30874z" fill="#2c4c45" stroke="none" stroke-width="0"/><g stroke="none" stroke-width="0"><path d="M239.66685,261.58815v-13.34565l7.69071,-4.18465z" fill="#d4ecfe"/><path d="M232.1049,243.90427l7.69071,4.18465v13.34565z" data-paper-data="{&quot;index&quot;:null}" fill="#6d878a"/></g></g><path d="M267.91396,211.83327l26.15583,-19.70325l6.56323,6.16522l-35.20436,27.33651z" data-paper-data="{&quot;index&quot;:null}" fill="#1b322d" stroke="none" stroke-width="0"/><path d="M171.14666,132.86961c0,-1.65654 -5.80143,-1.9233 -5.80143,-1.9233c0,0 6.69584,-8.87746 7.35214,-11.71771c6.65986,-28.82218 23.99043,-56.21969 66.68631,-56.74538c45.68643,-0.56252 68.23702,35.01087 68.23702,70.3864c0,0.66795 3.07779,7.31159 4.43041,10.36634c2.27861,5.14598 3.33715,7.45866 3.33715,7.45866c0,0 -2.64733,-1.66693 -4.82385,-3.56682c-2.14071,-1.86864 -3.80963,-3.97893 -3.99144,-3.01508c-0.43459,2.30399 -0.59561,10.92242 -4.12876,19.9176c-3.49395,8.89536 -10.36285,18.18124 -10.36285,18.18124c0,0 -2.29192,-5.28642 -3.77673,-3.14158c-6.07718,8.77862 -11.2964,15.30957 -11.2964,15.30957c0,0 -2.40974,-4.97718 -4.47106,-3.86765c-9.32569,5.01966 -20.06286,7.91078 -31.65348,7.91078c-12.60656,0 -24.772,-3.56633 -35.27102,-9.52744c-2.72845,-1.54916 -0.82623,4.38789 -0.82623,4.38789c0,0 -7.93843,-5.19677 -13.15685,-11.00681c-6.08759,-6.77777 -9.73663,-14.57056 -12.13914,-18.68944c-0.34082,-0.58431 -4.01999,1.58785 -5.934,2.01254c-2.96082,0.65696 -4.48364,-0.08182 -4.48364,-0.08182c0,0 2.67098,-3.37669 3.55098,-5.15497c0.94364,-1.90688 1.93325,-5.92746 1.93325,-5.92746c0,0 -2.66402,1.90888 -4.05965,2.38502c-1.48595,0.50696 -4.60208,0.57008 -4.60208,0.57008c0,0 4.39229,-5.64339 5.74307,-11.5602c1.27257,-5.57422 -0.4917,-11.39111 -0.4917,-12.96047z" fill="#000000" stroke="#000000" stroke-width="0"/><path d="M175.58993,129.8696c0,-33.30185 28.7599,-60.29833 64.23702,-60.29833c35.47712,0 64.23702,26.99649 64.23702,60.29833c0,33.30185 -28.7599,60.29833 -64.23702,60.29833c-35.47712,0 -64.23702,-26.99649 -64.23702,-60.29833z" fill="#ffffff" stroke="#000000" stroke-width="2"/><path d="M176.31301,129.92342c0,-0.72799 5.20666,55.91939 63.36046,56.93429c55.56352,0.9697 63.51358,-57.95314 63.51358,-56.93429c0,32.80479 -28.40173,59.39833 -63.43702,59.39833c-35.03529,0 -63.43702,-26.59354 -63.43702,-59.39833z" fill="#e6e6e6" stroke="#000000" stroke-width="0"/><path d="M189.14017,130.29905c0,-12.968 10.51265,-23.48065 23.48065,-23.48065c12.968,0 23.48065,10.51265 23.48065,23.48065c0,12.968 -10.51265,23.48065 -23.48065,23.48065c-12.968,0 -23.48065,-10.51265 -23.48065,-23.48065z" fill="#ffffff" stroke="#000000" stroke-width="2"/><path d="M203.20554,130.02344c0,-9.12808 7.39976,-16.52784 16.52783,-16.52784c9.12808,0 16.52784,7.39977 16.52784,16.52784c0,9.12808 -7.39977,16.52784 -16.52784,16.52784c-9.12808,0 -16.52783,-7.39977 -16.52783,-16.52784z" fill="#000000" stroke="none" stroke-width="0"/><path d="M266.87925,153.77971c-12.968,0 -23.48065,-10.51265 -23.48065,-23.48065c0,-12.968 10.51265,-23.48065 23.48065,-23.48065c12.968,0 23.48065,10.51265 23.48065,23.48065c0,12.968 -10.51265,23.48065 -23.48065,23.48065z" data-paper-data="{&quot;index&quot;:null}" fill="#ffffff" stroke="#000000" stroke-width="2"/><path d="M273.76669,146.55128c-9.12807,0 -16.52783,-7.39977 -16.52783,-16.52784c0,-9.12808 7.39977,-16.52784 16.52783,-16.52784c9.12807,0 16.52783,7.39977 16.52783,16.52784c0,9.12808 -7.39977,16.52784 -16.52783,16.52784z" data-paper-data="{&quot;index&quot;:null}" fill="#000000" stroke="none" stroke-width="0"/><path d="M201.77784,101.4906c0,0 6.70895,-5.16922 11.79721,-6.36355c5.08827,-1.19433 12.33413,0.69937 12.33413,0.69937c0,0 -8.03812,-0.06028 -11.96762,0.86207c-4.10648,0.96389 -12.16372,4.80211 -12.16372,4.80211z" fill="#000000" stroke="none" stroke-width="0"/><path d="M265.71235,96.6885c-3.9295,-0.92235 -11.96762,-0.86207 -11.96762,-0.86207c0,0 7.24586,-1.8937 12.33413,-0.69937c5.08826,1.19433 11.79721,6.36355 11.79721,6.36355c0,0 -8.05724,-3.83822 -12.16372,-4.80211z" data-paper-data="{&quot;index&quot;:null}" fill="#000000" stroke="none" stroke-width="0"/><path d="M180.66905,100.16067c11.42496,-22.68233 31.40973,-33.07142 60.56473,-32.85267c24.16321,0.18129 39.14424,9.27509 47.64651,17.23625c0.95139,0.89084 -11.16905,5.58091 -18.25999,7.52146c-15.29703,4.18628 -30.35723,6.25195 -30.35723,6.25195l6.65013,-11.17032c0,0 -23.70536,7.34319 -34.98048,9.59002c-11.17264,2.22641 -31.26367,3.4233 -31.26367,3.4233z" fill="#000000" stroke="none" stroke-width="0"/><path d="M246.39496,167.63473c0,2.96295 -2.40194,5.3649 -5.3649,5.3649c-2.96295,0 -5.3649,-2.40194 -5.3649,-5.3649c0,-2.96295 2.40194,-5.36492 5.3649,-5.36492c2.96295,0 5.3649,2.40194 5.3649,5.36492z" fill="#ffffff" stroke="#000000" stroke-width="2.5"/><path d="M275.57473,192.83471l8.63171,-31.91864l9.89046,-2.69741l-12.0484,40.28123z" data-paper-data="{&quot;index&quot;:null}" fill="#456761" stroke="none" stroke-width="0"/><path d="M184.92818,192.26004l-11.69778,-42.30697l38.77586,12.91109l10.13158,56.22635z" fill="#8fa7b3" stroke="none" stroke-width="0"/><path d="M258.12603,218.97456l10.4134,-55.63884l38.60265,-13.77708l-11.69778,42.82657z" data-paper-data="{&quot;index&quot;:null}" fill="#d4ecfe" stroke="none" stroke-width="0"/><path d="M209.6603,162.61177h61.94081l-13.66598,57.44299l-37.62736,-0.99675z" fill="#bed3e5" stroke="none" stroke-width="0"/><path d="M211.50218,162.96024l-38.45816,-13.36258l15.15512,-2.77032l25.58448,10.26638z" fill="#2c4c45" stroke="none" stroke-width="0"/><path d="M266.5211,157.36131l25.58445,-10.26638l15.15512,2.7703l-38.45816,13.36258z" data-paper-data="{&quot;index&quot;:null}" fill="#5f7f7c" stroke="none" stroke-width="0"/><path d="M210.08682,163.08773l2.65214,-6.23486h54.81106l1.92883,6.23486z" fill="#446660" stroke="none" stroke-width="0"/><path d="M173.07712,149.87207c0,0 -2.66765,-14.0275 3.33022,-21.80485c1.33241,-1.72772 3.22555,-4.3987 5.17681,-6.05556c2.14615,-1.82235 4.29578,-2.55144 4.29578,-2.55144l3.82139,27.70504z" fill="#142d2b" stroke="none" stroke-width="0"/><path d="M265.62949,226.12303l10.80226,-54.46312l36.03161,-13.87179l-12.3471,38.95728z" data-paper-data="{&quot;index&quot;:null}" fill="url(#color-1)" stroke="none" stroke-width="0"/><path d="M291.88897,147.08133l3.50916,-27.70504c0,0 1.97402,0.72909 3.94481,2.55144c1.79183,1.65687 3.53031,4.32783 4.75385,6.05556c5.50782,7.77736 3.05813,21.80485 3.05813,21.80485z" data-paper-data="{&quot;index&quot;:null}" fill="#789396" stroke="none" stroke-width="0"/><path d="M273.00714,233.19681l12.98576,-53.00743l33.8481,-15.32744l-12.3471,38.95724z" data-paper-data="{&quot;index&quot;:null}" fill="url(#color-2)" stroke="none" stroke-width="0"/><path d="M189.25629,130.48047c0,-12.96801 10.51265,-23.48065 23.48066,-23.48065c12.96801,0 23.48065,10.51264 23.48065,23.48065c0,0 -4.90806,22.46511 -23.43307,22.26121c-19.92475,-0.21931 -23.52823,-21.6446 -23.52823,-22.26121z" fill="#ffffff" stroke="#000000" stroke-width="2"/><path d="M243.43629,130.37516c0,-12.96801 10.51264,-23.48065 23.48065,-23.48065c12.96801,0 23.48066,10.51264 23.48066,23.48065c0,0.60606 -3.97259,22.59312 -22.72496,22.469c-22.15221,-0.14662 -24.23635,-22.469 -24.23635,-22.469z" data-paper-data="{&quot;index&quot;:null}" fill="#ffffff" stroke="#000000" stroke-width="2"/><path d="M172.50612,203.46964l-12.3471,-38.95724l33.84811,15.32744l12.98575,53.00744z" fill="url(#color-3)" stroke="none" stroke-width="0"/><path d="M179.6976,196.58965l-12.34712,-38.95725l36.0316,13.8718l10.80226,54.4631z" fill="url(#color-4)" stroke="none" stroke-width="0"/><path d="M213.13302,223.03741l-35.20436,-27.33651l6.56323,-6.16522l26.15583,19.70325z" data-paper-data="{&quot;index&quot;:null}" fill="#1b322d" stroke="none" stroke-width="0"/><path d="M178.71192,195.91606l-5.02602,-24.39578l20.25948,7.79969l7.03197,30.62296z" fill="#ff8c2e" stroke="none" stroke-width="0"/><path d="M279.11785,210.24225l7.03197,-30.62296l20.25948,-7.7997l-5.02602,24.39578z" data-paper-data="{&quot;index&quot;:null}" fill="#ff8c2e" stroke="none" stroke-width="0"/></g></g></svg>