<svg version="1.1" xmlns="http://www.w3.org/2000/svg" xmlns:xlink="http://www.w3.org/1999/xlink" width="145.50821" height="233.28011" viewBox="0,0,145.50821,233.28011"><g transform="translate(-166.38697,-74.17914)"><g data-paper-data="{&quot;isPaintingLayer&quot;:true}" fill-rule="nonzero" stroke-linejoin="miter" stroke-miterlimit="10" stroke-dasharray="" stroke-dashoffset="0" style="mix-blend-mode: normal"><g><path d="M206.03422,307.45923l15.14285,-131.8421l37.78325,-0.15789l13.57389,132z" fill="#395858" stroke="#000000" stroke-width="0" stroke-linecap="butt"/><path d="M220.58675,223.11263l19.43547,4.41787l22.11638,-4.5394l1.95241,-1.15069l7.17795,50.65863l-32.24809,13l-31.71829,-12.80674l6.62795,-51.53844z" fill="#314b4b" stroke="#314b4b" stroke-width="2" stroke-linecap="round"/><path d="M250.72085,245.43238l-1.33334,13.83333l-10.66666,7.83334l-16.66667,-27.33334z" fill="#ff7c0b" stroke="#ff7c0b" stroke-width="2" stroke-linecap="round"/><path d="M249.15989,246.9649l-1.10569,11.47154l-8.84553,6.49594l-13.82114,-22.66667z" fill="#ffc30a" stroke="#ffc30a" stroke-width="2" stroke-linecap="round"/><path d="M248.17207,247.80839l-0.95122,9.8689l-7.60975,5.58842l-11.89024,-19.5z" fill="#ff9e0a" stroke="#ff9e0a" stroke-width="2" stroke-linecap="round"/><path d="M244.78086,252.69571c0,2.73381 -1.99233,4.95 -4.45,4.95c-2.45766,0 -4.45,-2.21619 -4.45,-4.95c0,-2.73381 1.99234,-4.95 4.45,-4.95c2.45766,0 4.45,2.21619 4.45,4.95z" fill="#ffb50a" stroke="#ff9e0a" stroke-width="2" stroke-linecap="butt"/><path d="M219.76302,173.58197l19.32668,-1.55029l19.10219,2.15029l-18.5077,32.90673z" fill="#243d3d" stroke="#243d3d" stroke-width="2" stroke-linecap="round"/><path d="M264.11112,221.52911l-6.62693,1.69327l-17.6,3.4l-19.2,-4.4l-7.07688,-2.03844l3.44017,-26.211l2.83573,-19.17748l20.00098,38.22692l18.3077,-37.52019z" fill="#385656" stroke="#385656" stroke-width="2" stroke-linecap="round"/></g><g><path d="M229.34334,245.46033l-49.65533,-35.86584l6.39978,-6.33472l40.41031,28.47178z" fill="#1b322d" stroke="none" stroke-width="0" stroke-linecap="butt"/><path d="M256.00649,231.22832l38.86664,-30.54536l6.72219,5.9915l-47.71248,38.41263z" data-paper-data="{&quot;index&quot;:null}" fill="#1b322d" stroke="none" stroke-width="0" stroke-linecap="butt"/><path d="M294.98725,201.30236l6.91065,-29.55853l9.9902,-3.58772l-10.28298,38.571z" data-paper-data="{&quot;index&quot;:null}" fill="#456761" stroke="none" stroke-width="0" stroke-linecap="butt"/><path d="M241.44269,216.71242l16.93561,5.16666l-4.22195,23.86888l-11.23895,3.30091l-13.95318,-2.97194l-5.77823,-23.27731z" fill="#24433d" stroke="#24433d" stroke-width="2" stroke-linecap="round"/><path d="M174.81405,142.32418c-0.87076,-33.29046 27.17342,-61.02971 62.63841,-61.95734c35.46499,-0.92763 64.92095,25.30764 65.7917,58.59809c0.87076,33.29046 -27.17342,61.02971 -62.63841,61.95734c-35.46499,0.92763 -64.92095,-25.30764 -65.7917,-58.59809z" fill="#ffffff" stroke="#000000" stroke-width="2" stroke-linecap="butt"/><path d="M175.53826,142.35909c-0.01903,-0.72774 6.66702,55.76413 64.82748,55.25811c55.56988,-0.48347 61.97654,-59.59404 62.00318,-58.57554c0.85776,32.79358 -26.83891,60.12065 -61.86222,61.03673c-35.02331,0.91608 -64.11068,-24.92573 -64.96844,-57.71931z" fill="#e6e6e6" stroke="#000000" stroke-width="0" stroke-linecap="butt"/><path d="M287.9983,170.09841l-1.2281,-10.89342l8.50722,-3.36448l12.37553,1.51515l3.03238,10.43403l-13.14366,5.4694z" data-paper-data="{&quot;index&quot;:null}" fill="#22302c" stroke="#22302c" stroke-width="2" stroke-linecap="round"/><path d="M188.37087,142.3992c-0.33908,-12.96357 9.8951,-23.7475 22.85866,-24.08658c12.96357,-0.33908 23.7475,9.8951 24.08658,22.85866c0.33908,12.96357 -9.8951,23.7475 -22.85866,24.08658c-12.96357,0.33908 -23.7475,-9.8951 -24.08658,-22.85866z" fill="#ffffff" stroke="#000000" stroke-width="2" stroke-linecap="butt"/><path d="M195.42664,141.93891c-0.23868,-9.12496 6.96507,-16.71567 16.09002,-16.95435c9.12496,-0.23868 16.71567,6.96508 16.95435,16.09003c0.23868,9.12496 -6.96508,16.71567 -16.09003,16.95435c-9.12496,0.23868 -16.71566,-6.96508 -16.95434,-16.09003z" fill="#000000" stroke="none" stroke-width="0" stroke-linecap="butt"/><path d="M259.73479,228.54786l8.95503,-55.8921l38.22922,-14.78173l-10.57397,43.11779z" data-paper-data="{&quot;index&quot;:null}" fill="#37514d" stroke="none" stroke-width="0" stroke-linecap="butt"/><path d="M227.50443,180.76988l25.101,-0.65655" fill="none" stroke="#000000" stroke-width="2" stroke-linecap="round"/><path d="M266.69735,163.83913c-12.96357,0.33908 -23.7475,-9.8951 -24.08658,-22.85866c-0.33908,-12.96357 9.8951,-23.7475 22.85866,-24.08658c12.96357,-0.33908 23.7475,9.8951 24.08658,22.85866c0.33908,12.96357 -9.8951,23.7475 -22.85866,24.08658z" data-paper-data="{&quot;index&quot;:null}" fill="#ffffff" stroke="#000000" stroke-width="2" stroke-linecap="butt"/><path d="M266.39581,156.61612c-9.12495,0.23868 -16.71566,-6.96508 -16.95434,-16.09003c-0.23868,-9.12496 6.96508,-16.71567 16.09002,-16.95435c9.12495,-0.23868 16.71566,6.96508 16.95434,16.09003c0.23868,9.12496 -6.96508,16.71567 -16.09002,16.95435z" data-paper-data="{&quot;index&quot;:null}" fill="#000000" stroke="none" stroke-width="0" stroke-linecap="butt"/><path d="M188.37087,142.3992c-0.33908,-12.96357 9.8951,-23.7475 22.85866,-24.08658c12.96357,-0.33908 23.7475,9.8951 24.08658,22.85866c0,0 -46.91305,2.45904 -46.94525,1.22792z" fill="#ffffff" stroke="#000000" stroke-width="2" stroke-linecap="butt"/><path d="M242.61078,140.98048c-0.33908,-12.96357 9.8951,-23.7475 22.85866,-24.08658c12.96357,-0.33908 23.7475,9.8951 24.08658,22.85866c0.03174,1.21338 -46.94525,1.22792 -46.94525,1.22792z" data-paper-data="{&quot;index&quot;:null}" fill="#ffffff" stroke="#000000" stroke-width="2" stroke-linecap="butt"/><path d="M200.25096,113.27013c0,0 6.57149,-5.34287 11.62679,-6.66984c5.05531,-1.32696 12.3482,0.37662 12.3482,0.37662c0,0 -8.03695,0.14992 -11.94099,1.1747c-4.07987,1.07093 -12.03399,5.11851 -12.03399,5.11851z" fill="#000000" stroke="none" stroke-width="0" stroke-linecap="butt"/><path d="M264.03806,106.79796c-3.95228,-0.81929 -11.98607,-0.54886 -11.98607,-0.54886c0,0 7.19386,-2.08251 12.31163,-1.02164c5.11775,1.06088 11.95957,6.05291 11.95957,6.05291c0,0 -8.15484,-3.62623 -12.28512,-4.48242z" data-paper-data="{&quot;index&quot;:null}" fill="#000000" stroke="none" stroke-width="0" stroke-linecap="butt"/><g stroke-width="7.5" stroke-linecap="round"><path d="M211.61045,111.95504l27.86623,16.24685l3.77589,48.9832l-39.31902,-12.99498l-1.6642,-4.01587l-2.92409,-28.33937z" fill="#ff8300" stroke="#ff8300"/><path d="M282.54774,129.65857l-1.4386,28.45349l-1.45199,4.09738l-38.5859,15.03269l1.21002,-49.11362l26.97881,-17.6814z" data-paper-data="{&quot;index&quot;:null}" fill="#ffa900" stroke="#ffa900"/><path d="M299.41843,126.19727l0.59685,28.96595l-28.15122,8.0172l13.95802,-33.06385l-13.49244,-18.18566l-31.94753,15.10268l-29.77178,-13.06487l-13.84238,15.42006l11.26801,34.50152l-30.18592,-9.64429l0.14877,-27.14229l2.19951,-35.81866l15.04927,3.10771l40.29449,-16.18759l42.02365,15.96919l16.20932,-4.99755z" fill="#30433d" stroke="#30433d"/></g><path d="M209.81189,173.47157l60.58934,-1.58479l-12.04579,57.77771l-34.50339,0.06519z" fill="#476863" stroke="none" stroke-width="0" stroke-linecap="butt"/><path d="M167.63183,169.38933l-0.23484,-10.09555l4.73771,-4.50749l16.14338,4.62201l1.64887,7.38998l-13.22497,5.34637z" fill="#22302c" stroke="#22302c" stroke-width="2" stroke-linecap="round"/><path d="M185.86346,203.7564l-12.8,-41.98664l39.10019,11.89279l11.59829,55.94221z" fill="#476863" stroke="none" stroke-width="0" stroke-linecap="butt"/><path d="M276.49404,201.96071l7.79417,-32.13342l9.81655,-2.9551l-10.99103,40.58249z" data-paper-data="{&quot;index&quot;:null}" fill="#456761" stroke="none" stroke-width="0" stroke-linecap="butt"/><path d="M179.77786,209.79684l-13.09752,-39.95243l9.95762,2.43787l9.46335,31.68203z" fill="#364c47" stroke="none" stroke-width="0" stroke-linecap="butt"/><path d="M211.66226,173.77178l-38.79441,-12.35243l15.07751,-3.16564l25.84418,9.5939z" fill="#2c4c45" stroke="none" stroke-width="0" stroke-linecap="butt"/><path d="M266.51597,166.73616l25.30726,-10.93183l15.22237,2.37309l-38.09561,14.36359z" data-paper-data="{&quot;index&quot;:null}" fill="#5f7f7c" stroke="none" stroke-width="0" stroke-linecap="butt"/><path d="M210.25072,173.93623l2.48821,-6.30207l54.79232,-1.43317l2.0912,6.1823z" fill="#446660" stroke="none" stroke-width="0" stroke-linecap="butt"/><path d="M257.07643,201.19371c0.23613,9.02751 -6.79857,16.53473 -15.7124,16.76788c-8.91385,0.23315 -16.33136,-6.89605 -16.56749,-15.92356c-0.23613,-9.02751 6.79857,-16.53477 15.7124,-16.76792c8.91385,-0.23315 16.33136,6.89609 16.56749,15.9236z" fill="#ffc100" stroke="#ff8300" stroke-width="2" stroke-linecap="butt"/><path d="M252.1103,201.32358c0.16679,6.37693 -4.70067,11.67729 -10.87178,11.83871c-6.17112,0.16142 -11.30903,-4.87725 -11.47583,-11.25417c-0.16679,-6.37693 4.70067,-11.6773 10.8718,-11.83872c6.17112,-0.16142 11.30901,4.87725 11.47581,11.25419z" fill="#ffc100" stroke="#ff8300" stroke-width="2" stroke-linecap="butt"/><path d="M247.19468,201.45215c0.09342,3.57158 -2.63273,6.54018 -6.08904,6.63059c-3.4563,0.09041 -6.33393,-2.73165 -6.42735,-6.30321c-0.09342,-3.57158 2.63274,-6.54018 6.08905,-6.63059c3.4563,-0.09041 6.33392,2.73162 6.42734,6.30321z" fill="#ff8300" stroke="#ff8300" stroke-width="2" stroke-linecap="butt"/><path d="M262.34912,224.4525l10.2048,-51.34126l31.95267,-12.29294l-9.41575,39.05519z" data-paper-data="{&quot;index&quot;:null}" fill="#ffc100" stroke="none" stroke-width="0" stroke-linecap="butt"/><path d="M186.18406,202.01609l-11.44455,-38.50956l32.55162,10.60574l12.8748,50.73758z" data-paper-data="{&quot;index&quot;:null}" fill="#ff8300" stroke="none" stroke-width="0" stroke-linecap="butt"/></g></g></g></svg>