<svg version="1.1" xmlns="http://www.w3.org/2000/svg" xmlns:xlink="http://www.w3.org/1999/xlink" width="80.34522" height="38.19044" viewBox="0,0,80.34522,38.19044"><g transform="translate(-220.90478,-160.90478)"><g data-paper-data="{&quot;isPaintingLayer&quot;:true}" stroke-miterlimit="10" stroke-dasharray="" stroke-dashoffset="0" style="mix-blend-mode: normal"><path d="M239.875,199.09522v-38.19044h43.35938v38.19044z" fill="#cc0000" fill-rule="nonzero" stroke="#000000" stroke-width="0" stroke-linecap="butt" stroke-linejoin="miter"/><path d="M240,199.09522c-10.54601,0 -19.09522,-8.54922 -19.09522,-19.09522c0,-10.54601 8.54922,-19.09522 19.09522,-19.09522" fill="#cc0000" fill-rule="evenodd" stroke="none" stroke-width="0.07853" stroke-linecap="round" stroke-linejoin="round"/><g fill="#ffffff" fill-rule="nonzero" stroke="none" stroke-width="1" stroke-linecap="butt" stroke-linejoin="miter"><g><g><g><path d="M243.50079,188.14729"/></g></g></g><g><g><g><path d="M240,172.99842c-3.88269,0 -7.00158,3.11889 -7.00158,7.00158c0,3.88269 3.11889,7.00158 7.00158,7.00158c3.88269,0 7.00158,-3.11889 7.00158,-7.00158c0,-3.88269 -3.11889,-7.00158 -7.00158,-7.00158M240,171.0889c4.90111,0 8.9111,4.01 8.9111,8.9111c0,4.90111 -4.01,8.9111 -8.9111,8.9111c-4.90111,0 -8.9111,-4.01 -8.9111,-8.9111c0,-4.90111 4.01,-8.9111 8.9111,-8.9111z"/></g><path d="M240,172.99842c-3.88269,0 -7.00158,3.11889 -7.00158,7.00158c0,3.88269 3.11889,7.00158 7.00158,7.00158c3.88269,0 7.00158,-3.11889 7.00158,-7.00158c0,-3.88269 -3.11889,-7.00158 -7.00158,-7.00158M240,171.0889c4.90111,0 8.9111,4.01 8.9111,8.9111c0,4.90111 -4.01,8.9111 -8.9111,8.9111c-4.90111,0 -8.9111,-4.01 -8.9111,-8.9111c0,-4.90111 4.01,-8.9111 8.9111,-8.9111z"/><g><path d="M240,178.09048c1.08206,0 1.90952,0.82746 1.90952,1.90952c0,1.08206 -0.82746,1.90952 -1.90952,1.90952c-1.08206,0 -1.90952,-0.82746 -1.90952,-1.90952c0,-1.08206 0.82746,-1.90952 1.90952,-1.90952z"/></g></g></g></g><path d="M282.15478,160.90478c10.546,0 19.09522,8.54921 19.09522,19.09522c0,10.546 -8.54921,19.09522 -19.09522,19.09522" data-paper-data="{&quot;index&quot;:null}" fill="#cc0000" fill-rule="evenodd" stroke="none" stroke-width="0.07853" stroke-linecap="round" stroke-linejoin="round"/><text transform="translate(258.125,184.59763) scale(0.35516,0.35516)" font-size="40" xml:space="preserve" fill="#ffffff" fill-rule="nonzero" stroke="none" stroke-width="1" stroke-linecap="butt" stroke-linejoin="miter" stroke-miterlimit="10" stroke-dasharray="" stroke-dashoffset="0" font-family="&quot;ヒラギノ角ゴ Pro W3&quot;, &quot;Hiragino Kaku Gothic Pro&quot;, Osaka, &quot;メイリオ&quot;, Meiryo, &quot;ＭＳ Ｐゴシック&quot;, &quot;MS PGothic&quot;" font-weight="normal" text-anchor="start" style="mix-blend-mode: normal"><tspan x="0" dy="0">REC</tspan></text></g></g></svg>