<svg version="1.1" xmlns="http://www.w3.org/2000/svg" xmlns:xlink="http://www.w3.org/1999/xlink" width="502" height="308" viewBox="0,0,502,308"><g transform="translate(11,-61)"><g data-paper-data="{&quot;isPaintingLayer&quot;:true}" fill-rule="nonzero" stroke="none" stroke-linecap="butt" stroke-linejoin="miter" stroke-miterlimit="10" stroke-dasharray="" stroke-dashoffset="0" style="mix-blend-mode: normal"><path d="M-11,369v-308h502v308z" fill="#191919" stroke-width="0"/><g fill="#808080" stroke-width="0.61938"><path d="M175.75699,208.70141h9.5434v3.65681h-13.67589v-20.63276h4.13249z"/><path d="M194.22827,197.3742c2.28922,0 4.19196,0.71353 5.67847,2.14057c1.48651,1.45678 2.22977,3.27032 2.22977,5.50009c0,2.22976 -0.74326,4.0433 -2.22977,5.47035c-1.48651,1.42705 -3.38925,2.14058 -5.67847,2.14058c-2.28922,0 -4.19195,-0.71353 -5.67846,-2.14058c-1.51624,-1.42705 -2.2595,-3.24059 -2.2595,-5.47035c0,-2.22976 0.74326,-4.04331 2.2595,-5.50009c1.48651,-1.42705 3.38924,-2.14057 5.67846,-2.14057zM194.19854,200.73371c-1.15948,0 -2.08111,0.38649 -2.82436,1.18921c-0.74326,0.80272 -1.10002,1.84327 -1.10002,3.09194c0,2.4676 1.63516,4.25142 3.92439,4.25142c2.28922,0 3.95412,-1.78382 3.95412,-4.25142c0,-1.24867 -0.35676,-2.28922 -1.10002,-3.09194c-0.74326,-0.80272 -1.69463,-1.18921 -2.8541,-1.18921z"/><path d="M215.9211,197.6715h3.89466v14.68672h-3.89465v-2.37842c-1.2784,1.75408 -3.00275,2.64599 -5.17306,2.64599c-1.93247,0 -3.53789,-0.71353 -4.78656,-2.14058c-1.2784,-1.42705 -1.90273,-3.24059 -1.90273,-5.47035c0,-2.22976 0.62433,-4.04331 1.90273,-5.50009c1.24867,-1.42705 2.8541,-2.14057 4.78656,-2.14057c2.17031,0 3.89466,0.8919 5.17306,2.64598zM211.99672,209.26628c1.15948,0 2.08111,-0.41622 2.82437,-1.21894c0.74326,-0.80272 1.10002,-1.81354 1.10002,-3.03248c0,-2.49734 -1.63516,-4.28115 -3.92439,-4.28115c-2.28922,0 -3.95412,1.78381 -3.95412,4.28115c0,1.21894 0.38649,2.22976 1.12975,3.03248c0.74326,0.80271 1.66489,1.21894 2.82437,1.21894z"/><path d="M234.38634,191.72546h3.89466v20.63276h-3.89465v-2.37842c-1.2784,1.75408 -3.00275,2.64599 -5.17306,2.64599c-1.93247,0 -3.53789,-0.71353 -4.78656,-2.14058c-1.2784,-1.42705 -1.90273,-3.24059 -1.90273,-5.47035c0,-2.22976 0.62433,-4.04331 1.90273,-5.50009c1.24867,-1.42705 2.8541,-2.14057 4.78656,-2.14057c2.17031,0 3.89466,0.8919 5.17306,2.64598zM230.46196,209.26628c1.15947,0 2.08111,-0.41622 2.82437,-1.21894c0.74326,-0.80272 1.10002,-1.81354 1.10002,-3.03248c0,-2.49734 -1.63516,-4.28115 -3.92439,-4.28115c-2.28922,0 -3.95412,1.78381 -3.95412,4.28115c0,1.21894 0.38649,2.22976 1.12975,3.03248c0.74326,0.80271 1.66489,1.21894 2.82437,1.21894z"/><path d="M243.75414,195.73904c-1.39732,0 -2.34869,-0.92163 -2.34869,-2.14057c0,-1.2784 0.95137,-2.17031 2.34869,-2.17031c0.6838,0 1.2784,0.20811 1.72435,0.5946c1.42705,1.2784 0.41622,3.89466 -1.72435,3.71627zM241.82168,197.6715h3.89465v14.68672h-3.89465z"/><path d="M261.73952,198.97963c0.9811,1.10002 1.48651,2.49734 1.48651,4.19196v9.18664h-3.86492v-8.62176c0,-1.99193 -1.24867,-3.27032 -3.06221,-3.27032c-1.873,0 -3.09194,1.33786 -3.09194,3.27032v8.62176h-3.89466v-14.68672h3.89466v2.20003c1.04055,-1.66489 2.55679,-2.49733 4.60818,-2.49733c1.60543,0 2.91356,0.53515 3.92438,1.60543z"/><path d="M277.70417,197.6715h3.89466v13.70562c0,2.08112 -0.71352,3.80547 -2.14057,5.17306c-1.45678,1.33786 -3.27033,2.02166 -5.50009,2.02166c-1.873,0 -3.50816,-0.50542 -4.90548,-1.54597c-1.39732,-1.04056 -2.2595,-2.34869 -2.52707,-3.92439h3.62708c0.3865,1.39732 1.90274,2.37841 3.65682,2.37841c2.25949,0 3.89465,-1.63516 3.89465,-3.86492v-2.31895c-1.24866,1.66489 -2.97302,2.49733 -5.17305,2.49733c-1.93246,0 -3.53789,-0.68379 -4.78656,-2.05138c-1.2784,-1.33786 -1.90274,-3.06221 -1.90274,-5.17306c0,-2.08111 0.62434,-3.80546 1.90274,-5.17306c1.24867,-1.33786 2.8541,-2.02165 4.78656,-2.02165c2.1703,0 3.89466,0.83245 5.17305,2.49733zM273.77978,208.82033c1.15948,0 2.08111,-0.38649 2.82437,-1.18921c0.74325,-0.80272 1.10001,-1.81354 1.10001,-3.03248c0,-1.21894 -0.35676,-2.25949 -1.10001,-3.06221c-0.74326,-0.80272 -1.66489,-1.18921 -2.82437,-1.18921c-1.15948,0 -2.08112,0.38649 -2.82437,1.18921c-0.74326,0.80272 -1.12975,1.84327 -1.12975,3.06221c0,1.21894 0.38649,2.22976 1.12975,3.03248c0.74325,0.80271 1.66489,1.18921 2.82437,1.18921z"/><path d="M290.49095,210.069c0,1.51624 -1.10002,2.52707 -2.67572,2.52707c-1.54597,0 -2.64599,-1.07029 -2.64599,-2.52707c0,-1.45678 1.10002,-2.52707 2.64599,-2.52707c1.5757,0 2.67572,1.07029 2.67572,2.52707z"/><path d="M299.43323,210.069c0,1.51624 -1.10002,2.52707 -2.67572,2.52707c-1.54597,0 -2.64599,-1.07029 -2.64599,-2.52707c0,-1.45678 1.10002,-2.52707 2.64599,-2.52707c1.5757,0 2.67572,1.07029 2.67572,2.52707z"/><path d="M308.3755,210.069c0,1.51624 -1.10001,2.52707 -2.67571,2.52707c-1.54597,0 -2.64599,-1.07029 -2.64599,-2.52707c0,-1.45678 1.10002,-2.52707 2.64599,-2.52707c1.5757,0 2.67571,1.07029 2.67571,2.52707z"/></g></g></g></svg>