<svg version="1.1" xmlns="http://www.w3.org/2000/svg" xmlns:xlink="http://www.w3.org/1999/xlink" width="14.08135" height="24.39974" viewBox="0,0,14.08135,24.39974"><g transform="translate(-239.89762,-170.89806)"><g data-paper-data="{&quot;isPaintingLayer&quot;:true}" fill-rule="nonzero" stroke="none" stroke-linecap="butt" stroke-linejoin="miter" stroke-miterlimit="10" stroke-dasharray="" stroke-dashoffset="0" style="mix-blend-mode: normal"><path d="M250.52898,176.78381h3.44999v12.14075c0,1.8435 -0.63206,3.37098 -1.89619,4.58242c-1.29044,1.1851 -2.89691,1.79082 -4.8721,1.79082c-1.65915,0 -3.10761,-0.4477 -4.34539,-1.36944c-1.23777,-0.92176 -2.00152,-2.08052 -2.23854,-3.47631h3.21296c0.34236,1.23777 1.68549,2.10685 3.23929,2.10685c2.00153,0 3.44997,-1.44847 3.44997,-3.42364v-2.05419c-1.10609,1.4748 -2.63357,2.21219 -4.5824,2.21219c-1.71182,0 -3.13396,-0.60572 -4.24006,-1.81716c-1.13243,-1.1851 -1.68549,-2.71258 -1.68549,-4.58241c0,-1.8435 0.55306,-3.37097 1.68549,-4.58241c1.10611,-1.1851 2.52824,-1.79083 4.24006,-1.79083c1.92251,0 3.44997,0.7374 4.5824,2.2122zM247.05268,186.6597c1.0271,0 1.84351,-0.34236 2.50191,-1.05343c0.65839,-0.71106 0.97441,-1.60648 0.97441,-2.68624c0,-1.07977 -0.31602,-2.00152 -0.97441,-2.71258c-0.6584,-0.71106 -1.47481,-1.05343 -2.50191,-1.05343c-1.02708,0 -1.84349,0.34236 -2.50189,1.05343c-0.65839,0.71106 -1.00075,1.63281 -1.00075,2.71258c0,1.07977 0.34236,1.97518 1.00075,2.68624c0.6584,0.71106 1.47481,1.05343 2.50189,1.05343z" fill="#000000" stroke-width="0.35808"/><path d="M239.89762,194.55715v-23.65909h14.07896v23.65909z" fill-opacity="0.00403" fill="#808080" stroke-width="0"/></g></g></svg>