<svg version="1.1" xmlns="http://www.w3.org/2000/svg" xmlns:xlink="http://www.w3.org/1999/xlink" width="34.17311" height="34.17311" viewBox="0,0,34.17311,34.17311"><g transform="translate(-222.91346,-162.91346)"><g data-paper-data="{&quot;isPaintingLayer&quot;:true}" stroke="none" stroke-miterlimit="10" stroke-dasharray="" stroke-dashoffset="0" style="mix-blend-mode: normal"><path d="M229.98313,162.91347h20.03379c3.9166,0 7.06966,3.15307 7.06966,7.06966v20.03379c0,3.91659 -3.15306,7.06966 -7.06966,7.06966h-20.03379c-3.91659,0 -7.06966,-3.15307 -7.06966,-7.06966v-20.03379c0,-3.91659 3.15307,-7.06966 7.06966,-7.06966z" fill-opacity="0.13218" fill="#1a1a1a" fill-rule="evenodd" stroke-width="4.43922" stroke-linecap="round" stroke-linejoin="round"/><g fill-rule="nonzero" stroke-width="0" stroke-linecap="butt" stroke-linejoin="miter"><path d="M227.0671,180.80994c0,0 -3.76033,-9.82195 -0.99653,-10.96523c1.00005,-1.14514 3.33405,2.58659 5.85806,4.91832c2.34258,2.16411 4.92206,2.90255 4.92206,2.90255l-1.54865,-10.52594l0.91454,-0.88829c0,0 5.0382,9.34572 8.31142,12.91965c3.22264,3.5187 10.71017,6.58715 10.8615,8.3608c-0.38807,2.8634 -6.93509,2.8915 -6.93509,2.8915l-9.42156,-8.69014z" fill="#ffffff"/><path d="M233.36297,190.55943c0,0 -4.37461,-3.10262 -6.83689,-8.21232c-2.03,-4.21265 -2.35398,-10.46654 -1.40673,-11.55121c1.00005,-1.14514 3.33405,2.58659 5.85805,4.91832c2.34258,2.16411 4.92206,2.90255 4.92206,2.90255c0,0 -0.59804,-2.84334 -0.74856,-4.64952c-0.16519,-1.98218 0.11444,-6.76471 0.11444,-6.76471c0,0 5.0382,9.34573 8.31142,12.91965c3.22266,3.5187 10.71017,6.58715 10.86149,8.3608c0.13932,1.63283 -4.25038,2.45967 -6.93508,2.8915c-3.14608,0.50605 -10.77769,-0.04241 -10.77769,-0.04241c0,0 3.01442,-6.20338 0.65295,-6.83116c-1.93587,-0.34051 -4.01546,6.05853 -4.01546,6.05853z" fill="#bfbfbf"/><path d="M226.39146,182.07872l2.5888,-9.46761l5.09811,4.57072l-3.08432,11.34232c0,0 -1.53406,-1.52111 -2.76949,-3.24599c-1.04298,-1.45619 -1.83309,-3.19943 -1.83309,-3.19943z" fill="#ffffff"/><path d="M240.72917,191.57044l1.96326,-13.62686l6.62167,5.71385l-1.09348,7.66204c0,0 -2.51662,0.26328 -3.75444,0.30474c-1.25897,0.04217 -3.73702,-0.05378 -3.73702,-0.05378z" fill="#ffffff"/></g></g></g></svg>