<svg version="1.1" xmlns="http://www.w3.org/2000/svg" xmlns:xlink="http://www.w3.org/1999/xlink" width="14.07572" height="23.65909" viewBox="0,0,14.07572,23.65909"><g transform="translate(-239.89386,-170.89806)"><g data-paper-data="{&quot;isPaintingLayer&quot;:true}" fill-rule="nonzero" stroke="none" stroke-linecap="butt" stroke-linejoin="miter" stroke-miterlimit="10" stroke-dasharray="" stroke-dashoffset="0" style="mix-blend-mode: normal"><path d="M253.77279,183.58572c-0.18435,1.65915 -0.89542,3.0286 -2.18587,4.10837c-1.29045,1.07977 -2.84426,1.60648 -4.66142,1.60648c-2.02785,0 -3.71333,-0.63207 -5.03012,-1.89617c-1.34312,-1.26412 -2.00152,-2.87059 -2.00152,-4.84577c0,-1.97518 0.6584,-3.58166 2.00152,-4.87211c1.31679,-1.26412 3.00227,-1.89617 5.03012,-1.89617c1.81716,0 3.37097,0.52671 4.66142,1.60648c1.29045,1.07977 2.00152,2.47555 2.18587,4.1347h-3.47631c-0.34237,-1.60647 -1.68548,-2.76525 -3.34463,-2.76525c-2.08052,0 -3.52899,1.58014 -3.52899,3.79235c0,2.18587 1.50114,3.76601 3.52899,3.76601c1.65915,0 3.02861,-1.13244 3.37097,-2.73891z" fill="#000000" stroke-width="0.35808"/><path d="M239.89762,194.55715v-23.65909h14.07197v23.65909z" fill-opacity="0.00403" fill="#808080" stroke-width="0"/></g></g></svg>