<svg version="1.1" xmlns="http://www.w3.org/2000/svg" xmlns:xlink="http://www.w3.org/1999/xlink" width="34.17311" height="34.17311" viewBox="0,0,34.17311,34.17311"><g transform="translate(-222.91346,-162.91346)"><g data-paper-data="{&quot;isPaintingLayer&quot;:true}" stroke="none" stroke-miterlimit="10" stroke-dasharray="" stroke-dashoffset="0" style="mix-blend-mode: normal"><path d="M229.98313,162.91347h20.03379c3.9166,0 7.06966,3.15307 7.06966,7.06966v20.03379c0,3.91659 -3.15306,7.06966 -7.06966,7.06966h-20.03379c-3.91659,0 -7.06966,-3.15307 -7.06966,-7.06966v-20.03379c0,-3.91659 3.15307,-7.06966 7.06966,-7.06966z" fill-opacity="0.13218" fill="#1a1a1a" fill-rule="evenodd" stroke-width="4.43922" stroke-linecap="round" stroke-linejoin="round"/><path d="M226.26353,180.86344c1.43249,-2.75822 4.82976,-3.8329 7.58797,-2.40041c2.75822,1.43249 4.90316,7.96015 4.90316,7.96015c0,0 -6.21115,4.13352 -10.09071,2.02821c-2.75822,-1.43249 -3.83291,-4.82976 -2.40042,-7.58797z" fill="#ffffff" fill-rule="nonzero" stroke-width="0" stroke-linecap="butt" stroke-linejoin="miter"/><path d="M243.44058,183.76487c2.75822,1.43249 3.83291,4.82973 2.40042,7.58795c-1.43249,2.75822 -4.82975,3.83291 -7.58797,2.40042c-2.75822,-1.43249 -4.95426,-4.82975 -3.52176,-7.58795c0,0 5.95109,-3.83292 8.70931,-2.40042z" fill="#ffffff" fill-rule="nonzero" stroke-width="0" stroke-linecap="butt" stroke-linejoin="miter"/><path d="M252.66074,184.36023c-2.47278,3.54724 -9.92352,3.41254 -16.64169,-0.30085c-6.71817,-3.71339 -10.15972,-9.59927 -7.68694,-13.14651c2.47278,-3.54724 9.92353,-3.41254 16.6417,0.30085c6.71817,3.71339 10.15972,9.59927 7.68693,13.14651z" fill="#ffffff" fill-rule="nonzero" stroke-width="0" stroke-linecap="butt" stroke-linejoin="miter"/><path d="M238.96949,184.77038c-0.74061,1.33006 -2.07614,1.99896 -2.98301,1.494c-0.90688,-0.50496 -1.04165,-1.99254 -0.30104,-3.32262c0.74061,-1.33006 2.07614,-1.99895 2.98301,-1.494c0.90688,0.50496 1.04165,1.99254 0.30104,3.32262z" fill="#ffffff" fill-rule="nonzero" stroke-width="0" stroke-linecap="butt" stroke-linejoin="miter"/><path d="M237.70239,187.24821c0.8608,-1.65743 2.90225,-2.30324 4.55968,-1.44243c1.65743,0.8608 2.30324,2.90225 1.44243,4.55968c-0.8608,1.65743 -2.90225,2.30324 -4.55968,1.44243c-1.65743,-0.8608 -2.30324,-2.90225 -1.44243,-4.55968z" fill="#bfbfbf" fill-rule="nonzero" stroke-width="0" stroke-linecap="butt" stroke-linejoin="miter"/><path d="M228.04775,181.99076c0.8608,-1.65743 2.90224,-2.30324 4.55967,-1.44243c1.65743,0.8608 2.30324,2.90224 1.44244,4.55968c-0.8608,1.65743 -2.90225,2.30324 -4.55968,1.44244c-1.65743,-0.8608 -2.30324,-2.90225 -1.44243,-4.55968z" fill="#bfbfbf" fill-rule="nonzero" stroke-width="0" stroke-linecap="butt" stroke-linejoin="miter"/><path d="M253.3183,183.2078c-2.45284,3.6863 -7.62298,2.10798 -15.09385,-1.72622c-8.55349,-4.38984 -11.49134,-8.56202 -9.0385,-12.24832c2.45284,-3.6863 11.48787,-5.23506 18.15185,-1.3761c6.66397,3.85897 8.43335,11.66434 5.98051,15.35065z" fill="#bfbfbf" fill-rule="nonzero" stroke-width="0" stroke-linecap="butt" stroke-linejoin="miter"/><path d="M240.71861,177.93636l-5.66441,-5.17472l10.1601,-3.6223l2.47376,10.5135z" fill="#ffffff" fill-rule="nonzero" stroke-width="0" stroke-linecap="butt" stroke-linejoin="miter"/></g></g></svg>