<svg version="1.1" xmlns="http://www.w3.org/2000/svg" xmlns:xlink="http://www.w3.org/1999/xlink" width="150.04303" height="227.53628" viewBox="0,0,150.04303,227.53628"><defs><radialGradient cx="232.75554" cy="213.47258" r="5.78027" gradientUnits="userSpaceOnUse" id="color-1"><stop offset="0" stop-color="#df8100"/><stop offset="1" stop-color="#df8100" stop-opacity="0"/></radialGradient></defs><g transform="translate(-164.9785,-71.48712)"><g data-paper-data="{&quot;isPaintingLayer&quot;:true}" fill-rule="nonzero" stroke-linejoin="miter" stroke-miterlimit="10" stroke-dasharray="" stroke-dashoffset="0" style="mix-blend-mode: normal"><path d="M170.77993,141.8801c0,-1.65654 -5.80143,-1.9233 -5.80143,-1.9233c0,0 6.69584,-8.87746 7.35214,-11.71771c6.65986,-28.82218 23.99043,-56.21969 66.68631,-56.74538c45.68643,-0.56252 68.23702,35.01087 68.23702,70.3864c0,0.66795 3.07779,7.31159 4.43041,10.36634c2.27861,5.14598 3.33715,7.45866 3.33715,7.45866c0,0 -2.64733,-1.66693 -4.82385,-3.56682c-2.14071,-1.86864 -3.80963,-3.97893 -3.99144,-3.01508c-0.43459,2.30399 -0.59561,10.92242 -4.12876,19.9176c-3.49395,8.89536 -10.36285,18.18124 -10.36285,18.18124c0,0 -2.29192,-5.28642 -3.77673,-3.14158c-6.07718,8.77862 -11.2964,15.30957 -11.2964,15.30957c0,0 -2.40974,-4.97718 -4.47106,-3.86765c-9.32569,5.01966 -20.06286,7.91078 -31.65348,7.91078c-12.60656,0 -24.772,-3.56633 -35.27102,-9.52744c-2.72845,-1.54916 -0.82623,4.38789 -0.82623,4.38789c0,0 -7.93843,-5.19677 -13.15685,-11.00681c-6.08759,-6.77777 -9.73663,-14.57056 -12.13914,-18.68944c-0.34082,-0.58431 -4.01999,1.58785 -5.934,2.01254c-2.96082,0.65696 -4.48364,-0.08182 -4.48364,-0.08182c0,0 2.67098,-3.37669 3.55098,-5.15497c0.94364,-1.90688 1.93325,-5.92746 1.93325,-5.92746c0,0 -2.66402,1.90888 -4.05965,2.38502c-1.48595,0.50696 -4.60208,0.57008 -4.60208,0.57008c0,0 4.39229,-5.64339 5.74307,-11.5602c1.27257,-5.57422 -0.4917,-11.39111 -0.4917,-12.96047z" fill="#000000" stroke="#000000" stroke-width="0" stroke-linecap="butt"/><path d="M206.13331,299.0234l15.14285,-131.8421l37.78325,-0.15789l13.57389,132z" fill="#53686e" stroke="#000000" stroke-width="0" stroke-linecap="butt"/><path d="M175.22322,138.88007c0,-33.30185 28.7599,-60.29833 64.23702,-60.29833c35.47712,0 64.23702,26.99649 64.23702,60.29833c0,33.30185 -28.7599,60.29833 -64.23702,60.29833c-35.47712,0 -64.23702,-26.99649 -64.23702,-60.29833z" fill="#ffffff" stroke="#000000" stroke-width="2" stroke-linecap="butt"/><g stroke="none" stroke-width="0" stroke-linecap="butt"><path d="M254.96451,215.3887c0,8.53787 -6.97595,15.45917 -15.58122,15.45917c-8.60527,0 -15.58121,-6.92131 -15.58121,-15.45917c0,-8.53787 6.97595,-15.45917 15.58121,-15.45917c8.60527,0 15.58122,6.9213 15.58122,15.45917z" fill="#08161a"/><path d="M227.87028,230.92924v-5.28866h22.94467v5.28866c0,0 -7.31399,3.41729 -11.22825,3.41729c-3.72452,0 -11.71642,-3.41729 -11.71642,-3.41729z" fill="#08161a"/><path d="M234.94895,213.45951c0,1.27122 -1.01999,2.30175 -2.2782,2.30175c-1.25821,0 -2.27819,-1.03053 -2.27819,-2.30175c0,-1.27122 1.01998,-2.30175 2.27819,-2.30175c1.25821,0 2.2782,1.03053 2.2782,2.30175z" fill="#df8100"/><path d="M238.53581,213.47258c0,3.16575 -2.58792,5.7321 -5.78027,5.7321c-3.19235,0 -5.78026,-2.56635 -5.78026,-5.7321c0,-3.16575 2.58791,-5.7321 5.78026,-5.7321c3.19235,0 5.78027,2.56635 5.78027,5.7321z" fill="url(#color-1)"/></g><path d="M175.94628,138.93391c0,-0.72799 5.20666,55.91939 63.36046,56.93429c55.56352,0.9697 63.51358,-57.95314 63.51358,-56.93429c0,32.80479 -28.40173,59.39833 -63.43702,59.39833c-35.03529,0 -63.43702,-26.59354 -63.43702,-59.39833z" fill="#e6e6e6" stroke="#000000" stroke-width="0" stroke-linecap="butt"/><path d="M188.77344,139.30954c0,-12.968 10.51265,-23.48065 23.48065,-23.48065c12.968,0 23.48065,10.51265 23.48065,23.48065c0,12.968 -10.51265,23.48065 -23.48065,23.48065c-12.968,0 -23.48065,-10.51265 -23.48065,-23.48065z" fill="#e66200" stroke="#000000" stroke-width="2" stroke-linecap="butt"/><path d="M195.83882,139.03391c0,-9.12808 7.39976,-16.52784 16.52783,-16.52784c9.12808,0 16.52784,7.39977 16.52784,16.52784c0,9.12808 -7.39977,16.52784 -16.52784,16.52784c-9.12808,0 -16.52783,-7.39977 -16.52783,-16.52784z" fill="#ff9400" stroke="none" stroke-width="0" stroke-linecap="butt"/><path d="M226.89031,178.69034h25.10959" fill="none" stroke="#000000" stroke-width="2" stroke-linecap="round"/><path d="M266.5125,162.79018c-12.968,0 -23.48065,-10.51265 -23.48065,-23.48065c0,-12.968 10.51265,-23.48065 23.48065,-23.48065c12.968,0 23.48065,10.51265 23.48065,23.48065c0,12.968 -10.51265,23.48065 -23.48065,23.48065z" data-paper-data="{&quot;index&quot;:null}" fill="#ffffff" stroke="#000000" stroke-width="2" stroke-linecap="butt"/><path d="M266.39995,155.56175c-9.12807,0 -16.52783,-7.39977 -16.52783,-16.52784c0,-9.12808 7.39977,-16.52784 16.52783,-16.52784c9.12807,0 16.52783,7.39977 16.52783,16.52784c0,9.12808 -7.39977,16.52784 -16.52783,16.52784z" data-paper-data="{&quot;index&quot;:null}" fill="#000000" stroke="none" stroke-width="0" stroke-linecap="butt"/><path d="M200.95348,113.71285c0,0 7.95369,-2.91027 13.16548,-2.51776c5.2118,0.39252 11.55171,4.37926 11.55171,4.37926c0,0 -7.64726,-2.47679 -11.67216,-2.77991c-4.20618,-0.31677 -13.04503,0.91841 -13.04503,0.91841z" fill="#000000" stroke="none" stroke-width="0" stroke-linecap="butt"/><path d="M264.9819,112.77241c-4.03443,0.12254 -11.78495,2.25433 -11.78495,2.25433c0,0 6.51211,-3.69877 11.73626,-3.85746c5.22414,-0.15868 13.03949,3.10492 13.03949,3.10492c0,0 -8.77466,-1.62984 -12.9908,-1.50178z" data-paper-data="{&quot;index&quot;:null}" fill="#000000" stroke="none" stroke-width="0" stroke-linecap="butt"/><path d="M180.30233,109.17114c11.42496,-22.68233 31.40973,-33.07142 60.56473,-32.85267c24.16321,0.18129 39.14424,9.27509 47.64651,17.23625c0.95139,0.89084 -11.16905,5.58091 -18.25999,7.52146c-15.29703,4.18628 -30.35723,6.25195 -30.35723,6.25195l6.65013,-11.17032c0,0 -23.70536,7.34319 -34.98048,9.59002c-11.17264,2.22641 -31.26367,3.4233 -31.26367,3.4233z" fill="#000000" stroke="none" stroke-width="0" stroke-linecap="butt"/><g stroke-linecap="butt"><path d="M192.10973,202.69273v-35.29349h94.54713v35.29349z" fill="#698584" stroke="#000000" stroke-width="2"/><path d="M195.92065,199.6066v-28.72864h87.08897v28.72864z" fill="#e66200" stroke="none" stroke-width="1"/></g><path d="M188.77343,139.56626c0,-12.96801 10.51265,-23.48065 23.48066,-23.48065c12.96801,0 23.48065,10.51264 23.48065,23.48065c0,0 -11.70863,-7.69294 -23.43307,-7.53879c-11.75617,0.15456 -23.52823,8.1554 -23.52823,7.53879z" fill="#688384" stroke="#000000" stroke-width="2" stroke-linecap="butt"/><path d="M243.03187,139.56286c0,-12.96801 10.51264,-23.48065 23.48065,-23.48065c12.96801,0 23.48066,10.51264 23.48066,23.48065c0,0.60606 -11.37275,-7.38438 -22.92496,-7.531c-11.92261,-0.15132 -24.03635,7.531 -24.03635,7.531z" data-paper-data="{&quot;index&quot;:null}" fill="#ffffff" stroke="#000000" stroke-width="2" stroke-linecap="butt"/><path d="M188.77343,139.31611c0,-0.61661 11.77206,8.88423 23.52823,9.03879c11.72444,0.15415 23.43307,-9.03879 23.43307,-9.03879c0,12.96801 -10.51264,23.48065 -23.48065,23.48065c-12.96801,0 -23.48066,-10.51264 -23.48066,-23.48065z" data-paper-data="{&quot;index&quot;:null}" fill="#688384" stroke="#000000" stroke-width="2" stroke-linecap="butt"/><path d="M267.06822,148.35051c11.55221,-0.14662 22.92496,-9.63706 22.92496,-9.031c0,12.96801 -10.51265,23.48065 -23.48066,23.48065c-12.96801,0 -23.48065,-10.51264 -23.48065,-23.48065c0,0 12.11374,9.18232 24.03635,9.031z" data-paper-data="{&quot;index&quot;:null}" fill="#ffffff" stroke="#000000" stroke-width="2" stroke-linecap="butt"/><path d="M195.83881,186.54505v-1.83179l16.39912,5.83173l11.92507,-16.32882l41.83711,20.05464l16.92766,-9.55755v1.83179l-16.43077,9.33075l-41.73775,-19.24467l-12.52132,15.94003z" fill="#ff9400" stroke="#000000" stroke-width="0" stroke-linecap="butt"/></g></g></svg>