<svg version="1.1" xmlns="http://www.w3.org/2000/svg" xmlns:xlink="http://www.w3.org/1999/xlink" width="35.14904" height="35.14874" viewBox="0,0,35.14904,35.14874"><g transform="translate(-222.41348,-162.41347)"><g data-paper-data="{&quot;isPaintingLayer&quot;:true}" stroke="none" stroke-miterlimit="10" stroke-dasharray="" stroke-dashoffset="0" style="mix-blend-mode: normal"><path d="M229.48314,162.41348h20.03379c3.9166,0 7.06966,3.15307 7.06966,7.06966v20.03379c0,3.91659 -3.15306,7.06966 -7.06966,7.06966h-20.03379c-3.91659,0 -7.06966,-3.15307 -7.06966,-7.06966v-20.03379c0,-3.91659 3.15307,-7.06966 7.06966,-7.06966z" fill-opacity="0.59677" fill="#5e807a" fill-rule="evenodd" stroke-width="4.43922" stroke-linecap="round" stroke-linejoin="round"/><path d="M225.6605,180.36994c1.44324,-2.77891 4.86599,-3.86165 7.64489,-2.41841c2.77891,1.44324 4.93994,8.01986 4.93994,8.01986c0,0 -6.25774,4.16453 -10.1664,2.04343c-2.77891,-1.44324 -3.86166,-4.86599 -2.41842,-7.64489z" fill="#5e807a" fill-rule="nonzero" stroke-width="0" stroke-linecap="butt" stroke-linejoin="miter"/><path d="M242.96641,183.29312c2.77891,1.44324 3.86166,4.86596 2.41842,7.64487c-1.44324,2.77891 -4.86598,3.86166 -7.64489,2.41842c-2.77891,-1.44324 -4.99142,-4.86598 -3.54817,-7.64487c0,0 5.99573,-3.86167 8.77464,-2.41842z" fill="#5e807a" fill-rule="nonzero" stroke-width="0" stroke-linecap="butt" stroke-linejoin="miter"/><path d="M252.25569,183.89294c-2.49133,3.57385 -9.99796,3.43814 -16.76652,-0.3031c-6.76856,-3.74124 -10.23592,-9.67128 -7.74459,-13.24512c2.49133,-3.57385 9.99796,-3.43814 16.76652,0.3031c6.76856,3.74124 10.23592,9.67128 7.74459,13.24512z" fill="#5e807a" fill-rule="nonzero" stroke-width="0" stroke-linecap="butt" stroke-linejoin="miter"/><path d="M238.46176,184.30617c-0.74616,1.34004 -2.09172,2.01396 -3.00538,1.50521c-0.91368,-0.50875 -1.04947,-2.00749 -0.3033,-3.34754c0.74616,-1.34004 2.09172,-2.01395 3.00538,-1.50521c0.91368,0.50875 1.04947,2.00749 0.3033,3.34754z" fill="#5e807a" fill-rule="nonzero" stroke-width="0" stroke-linecap="butt" stroke-linejoin="miter"/><path d="M237.18516,186.8026c0.86725,-1.66986 2.92402,-2.32052 4.59388,-1.45325c1.66986,0.86725 2.32052,2.92402 1.45325,4.59388c-0.86725,1.66986 -2.92402,2.32052 -4.59388,1.45325c-1.66986,-0.86725 -2.32052,-2.92402 -1.45325,-4.59388z" fill="#000000" fill-rule="nonzero" stroke-width="0" stroke-linecap="butt" stroke-linejoin="miter"/><path d="M227.45809,181.5057c0.86725,-1.66986 2.92401,-2.32052 4.59387,-1.45325c1.66986,0.86725 2.32052,2.92401 1.45326,4.59388c-0.86725,1.66986 -2.92402,2.32052 -4.59388,1.45326c-1.66986,-0.86725 -2.32052,-2.92402 -1.45325,-4.59388z" fill="#000000" fill-rule="nonzero" stroke-width="0" stroke-linecap="butt" stroke-linejoin="miter"/><path d="M252.91821,182.73187c-2.47124,3.71395 -7.68016,2.12379 -15.20707,-1.73917c-8.61765,-4.42276 -11.57754,-8.62624 -9.1063,-12.3402c2.47124,-3.71395 11.57404,-5.27433 18.288,-1.38642c6.71396,3.88791 8.49661,11.75183 6.02537,15.46579z" fill="#000000" fill-rule="nonzero" stroke-width="0" stroke-linecap="butt" stroke-linejoin="miter"/><path d="M240.22401,177.42089l-5.7069,-5.21354l10.23631,-3.64947l2.49232,10.59235z" fill="#5e807a" fill-rule="nonzero" stroke-width="0" stroke-linecap="butt" stroke-linejoin="miter"/><path d="M257.56251,169.83175v20.49804c0,4.00745 -3.22497,7.23243 -7.23242,7.23243h-20.5c-3.66107,0 -6.66147,-2.69385 -7.1543,-6.21484c0.7952,3.03475 3.54108,5.26367 6.83204,5.26367h20.0332c3.9166,0 7.07032,-3.15372 7.07032,-7.07031v-20.03321c0,-3.2976 -2.23906,-6.0451 -5.28321,-6.83398c3.52994,0.48496 6.23438,3.49081 6.23438,7.15821z" fill-opacity="0.50151" fill="#000000" fill-rule="evenodd" stroke-width="4.54219" stroke-linecap="round" stroke-linejoin="round"/></g></g></svg>