<svg version="1.1" xmlns="http://www.w3.org/2000/svg" xmlns:xlink="http://www.w3.org/1999/xlink" width="151.33261" height="225.68721" viewBox="0,0,151.33261,225.68721"><g transform="translate(-156.77607,-82.81281)"><g data-paper-data="{&quot;isPaintingLayer&quot;:true}" fill-rule="nonzero" stroke-linecap="butt" stroke-linejoin="miter" stroke-miterlimit="10" stroke-dasharray="" stroke-dashoffset="0" style="mix-blend-mode: normal"><path d="M162.78751,162.88098c-0.22875,-1.64067 -6.01144,-1.10375 -6.01144,-1.10375c0,0 5.4058,-9.71704 5.6636,-12.62071c2.61598,-29.46572 15.99717,-58.99394 58.21141,-65.4105c45.17106,-6.86601 72.41796,25.25255 77.30299,60.28917c0.09224,0.66155 4.05797,6.81653 5.81946,9.65523c2.96739,4.78202 4.33515,6.92637 4.33515,6.92637c0,0 -2.85216,-1.28539 -5.27018,-2.86652c-2.37824,-1.55513 -4.32259,-3.41474 -4.36956,-2.43501c-0.11227,2.34193 0.91838,10.90003 -1.33877,20.29692c-2.23211,9.29262 -7.75291,19.43807 -7.75291,19.43807c0,0 -2.99997,-4.91928 -4.17437,-2.58995c-4.80671,9.53372 -9.07407,16.72283 -9.07407,16.72283c0,0 -3.07396,-4.59673 -4.96231,-3.21318c-8.54318,6.25936 -18.77824,10.60549 -30.25782,12.20604c-12.48578,1.74085 -25.02715,-0.11138 -36.24876,-4.56556c-2.91623,-1.15754 -0.21239,4.45995 -0.21239,4.45995c0,0 -8.58,-4.05076 -14.55074,-9.08452c-6.96522,-5.8722 -11.65541,-13.08643 -14.60368,-16.83408c-0.41824,-0.53165 -3.76221,2.12776 -5.59924,2.81269c-2.84173,1.05953 -4.45198,0.53811 -4.45198,0.53811c0,0 2.1791,-3.71318 2.80511,-5.59594c0.67128,-2.01892 1.0962,-6.13764 1.0962,-6.13764c0,0 -2.3749,2.25847 -3.69141,2.92277c-1.40171,0.7073 -4.47927,1.20012 -4.47927,1.20012c0,0 3.57091,-6.19586 4.09169,-12.24251c0.49063,-5.69655 -2.06,-11.21408 -2.27671,-12.7684z" fill="#000000" stroke="#000000" stroke-width="0"/><g><path d="M210.54669,245.56724c-1.23593,-0.71221 -2.52595,-1.52016 -2.52595,-1.52016l3.43821,-16.9072l9.39711,1.15465l-4.03278,19.831c0,0 -4.71536,-1.6586 -6.27659,-2.55828z" data-paper-data="{&quot;index&quot;:null}" fill="#456761" stroke="none" stroke-width="0"/><path d="M207.03135,262.05225c-1.23591,-0.71222 1.23248,-17.84906 1.23248,-17.84906l8.55917,3.73009l-3.51504,16.67726c0,0 -4.71537,-1.6586 -6.2766,-2.55828z" data-paper-data="{&quot;index&quot;:null}" fill="#8fa7b3" stroke="none" stroke-width="0"/><path d="M206.50534,277.10697c-0.41826,-4.16402 0.32148,-15.15658 0.32148,-15.15658l6.45499,2.59498l-4.18718,19.98242c0,0 -2.30176,-4.55834 -2.58929,-7.42084z" data-paper-data="{&quot;index&quot;:null}" fill="#bed3e5" stroke="none" stroke-width="0"/><path d="M269.52356,247.31727c-1.56123,0.89968 -6.27659,2.55828 -6.27659,2.55828l-4.03278,-19.831l9.39711,-1.15465l3.43821,16.9072c0,0 -1.29002,0.80795 -2.52595,1.52016z" fill="#456761" stroke="none" stroke-width="0"/><path d="M273.0389,263.80225c-1.56123,0.89968 -6.2766,2.55828 -6.2766,2.55828l-3.51504,-16.67726l8.55917,-3.73009c0,0 2.46839,17.13685 1.23248,17.84906z" fill="#8fa7b3" stroke="none" stroke-width="0"/><path d="M273.56491,278.85696c-0.28753,2.8625 -2.58929,7.42084 -2.58929,7.42084l-4.18718,-19.98242l6.45499,-2.59498c0,0 0.73974,10.99257 0.32148,15.15658z" fill="#bed3e5" stroke="none" stroke-width="0"/><path d="M221.27616,175.65793l37.78325,-0.15789l3.8671,37.60586c-0.6963,-0.01127 -1.29913,-0.00206 -1.77404,0.02951c-2.88185,0.19158 -5.78843,1.63667 -8.62277,1.66666c-4.68104,0.04954 -9.3637,0.10145 -14.04389,0c-7.21416,-0.15638 -13.93214,-2.38082 -21.56128,-1.25648z" fill="#ffffff" stroke="#000000" stroke-width="2"/><path d="M219.08353,204.11266l3.12142,-26.32765l35.83075,-0.14203l2.76735,26.1059c0,0 -7.51543,4.19603 -21.55904,4.50964c-12.48458,0.27879 -20.16049,-4.14586 -20.16049,-4.14586z" fill="#e6e6e6" stroke="#000000" stroke-width="0"/><path d="M206.13331,307.50001l12.03846,-92.87157c15.40868,0.04436 28.15085,-0.19563 43.55925,-0.18198l10.90227,93.05356z" fill="#000000" stroke="#000000" stroke-width="2"/><path d="M211.31263,230.75613v-18.75668c0,0 18.56293,1.0198 27.99732,1.0198c9.68908,0 29.39343,-1.0198 29.39343,-1.0198v18.75668c0,0 -6.76554,5.34882 -28.49928,5.27047c-19.35935,-0.06978 -28.89147,-5.27047 -28.89147,-5.27047z" fill="#031718" stroke="none" stroke-width="0"/><path d="M268.4235,211.41184c0,1.05713 0.4488,3.69311 -1.94204,5.02269c-5.38056,2.99221 -17.49912,4.69199 -27.20676,4.69199c-9.23809,0 -19.08557,-0.8843 -24.36256,-3.66197c-2.73224,-1.43818 -3.84595,-4.66221 -3.84595,-5.83441c0,-1.28914 1.07545,-4.64227 4.33484,-5.32834c1.80205,-0.37932 2.46887,-1.03189 2.29478,-0.25307c-0.17823,0.79731 -1.22489,3.0403 -1.71366,3.8537c-0.47202,0.78554 -1.88092,1.40023 0.9944,1.40023c0.35881,0 1.20582,1.14373 2.68738,1.74085c1.86955,0.75349 4.51081,1.02454 5.79246,1.35846c3.71724,0.96851 8.41136,0.54272 14.65228,0.78744c4.59407,0.18015 18.41762,-1.21693 22.85473,-3.46693c1.61361,-0.81824 1.02726,-1.31455 0.87427,-2.15731c-0.07332,-0.40389 -0.34679,-0.62672 -0.51864,-1.0152c-0.4476,-1.01181 -0.896,-2.02544 -0.46897,-1.92504c0.59863,0.14073 2.51087,0.64384 3.57677,1.66022c1.19582,1.14025 1.99667,2.81358 1.99667,3.12667z" fill="#142d2b" stroke="none" stroke-width="0"/><path d="M266.26903,208.77607c0,0.9804 0.41623,3.42504 -1.80108,4.65813c-4.99001,2.77502 -16.22895,4.35142 -25.23196,4.35142c-8.56755,0 -17.70026,-0.8201 -22.59422,-3.39617c-2.53391,-1.33379 -3.5668,-4.32381 -3.5668,-5.41092c0,-1.19556 0.99739,-4.30531 4.0202,-4.94159c1.67126,-0.35179 2.28967,-0.957 2.12822,-0.2347c-0.1653,0.73944 -1.13598,2.81963 -1.58929,3.57399c-0.43777,0.72851 -1.74439,1.29859 0.92222,1.29859c0.33276,0 1.1183,1.06072 2.49233,1.61449c1.73385,0.69881 4.1834,0.95018 5.37202,1.25987c3.44743,0.89822 7.80083,0.50332 13.58875,0.73028c4.2606,0.16706 17.08079,-1.12858 21.19583,-3.21528c1.49649,-0.75885 0.9527,-1.21914 0.81081,-2.00071c-0.068,-0.37458 -0.32163,-0.58124 -0.481,-0.94152c-0.41511,-0.93836 -0.83098,-1.87844 -0.43493,-1.78532c0.55518,0.13052 2.32861,0.59712 3.31714,1.5397c1.10902,1.05749 1.85175,2.60935 1.85175,2.89973z" fill="#2c4c45" stroke="none" stroke-width="0"/><path d="M220.0828,257.56559l1.06229,-17.65228c0,0 5.06206,0.33784 6.6753,0.38673c2.41665,0.07323 6.74126,0.07606 6.74126,0.07606l-0.13223,17.78451z" fill="#789396" stroke="none" stroke-width="0"/><path d="M218.89276,258.09451l0.06611,-18.51175l2.24785,0.33057v16.33001z" fill="#466862" stroke="none" stroke-width="0"/><path d="M218.69443,258.22673l2.31397,-2.04951c0,0 3.43956,1.01301 5.56424,1.20141c2.33003,0.2066 7.85678,-0.01137 7.85678,-0.01137l0.19834,2.44619c0,0 -7.46269,0.38734 -10.38283,0.09654c-2.15463,-0.21456 -5.55049,-1.68325 -5.55049,-1.68325z" fill="#142d2b" stroke="none" stroke-width="0"/><path d="M224.38018,251.35096c0,0 1.44883,-3.00632 2.09459,-4.13946c0.44988,-0.78943 1.40942,-2.00908 1.40942,-2.00908c0,0 0.8535,1.34902 1.31674,2.21546c0.65742,1.22962 2.25339,4.46198 2.25339,4.46198c0,0 -2.9845,0.24955 -4.24288,0.15546c-1.06845,-0.07988 -2.83126,-0.68437 -2.83126,-0.68437z" fill="#d4ecfe" stroke="none" stroke-width="0"/></g><path d="" fill="#ffffff" stroke="#000000" stroke-width="2"/><g><path d="M166.77395,159.29612c-4.59868,-32.9828 20.15772,-63.69212 55.29496,-68.59119c35.13723,-4.89906 67.34957,17.86731 71.94825,50.85011c4.59868,32.9828 -20.15772,63.69212 -55.29496,68.59119c-35.13723,4.89906 -67.34957,-17.86731 -71.94825,-50.85011z" fill="#ffffff" stroke="#000000" stroke-width="2"/><path d="M167.49751,159.24955c-0.10053,-0.72102 12.87873,54.66467 70.61554,47.63934c55.1651,-6.7124 54.9023,-66.16856 55.04299,-65.15947c4.53004,32.49051 -19.92727,62.75129 -54.62691,67.58934c-34.69964,4.83805 -66.50159,-17.5787 -71.03163,-50.0692z" fill="#e6e6e6" stroke="#000000" stroke-width="0"/><path d="M274.99849,192.92539c-2.98982,3.30019 -15.25255,-15.97414 -40.28501,-12.97243c-29.50428,3.43306 -33.62473,25.18909 -37.42484,22.65936c-23.70709,-12.33373 -27.97373,-30.32783 -29.78736,-43.3356c-1.76772,-12.67852 -0.81229,-32.47097 9.20231,-44.57733c10.76868,-13.01792 29.46734,-26.81475 44.28605,-28.88088c13.34169,-1.86019 34.4676,5.39807 47.47703,13.13279c14.87805,8.84568 26.67157,28.02856 25.5194,41.48978c0,0 6.80484,27.93351 -18.98758,52.48431z" fill="#2c4c45" stroke="#000000" stroke-width="2"/><path d="M175.16231,158.28185c-2.18847,-15.69619 8.76171,-30.19456 24.4579,-32.38302c15.69619,-2.18847 30.19456,8.76171 32.38302,24.4579c2.18847,15.69619 -8.7617,30.19457 -24.45789,32.38303c-15.69618,2.18846 -30.19457,-8.76171 -32.38303,-24.4579z" fill="#000000" stroke="none" stroke-width="0"/><path d="M196.4231,115.94034c-2.18847,-15.69619 8.76171,-30.19456 24.4579,-32.38302c15.69618,-2.18846 30.19457,8.76171 32.38303,24.4579c2.18847,15.69619 -8.7617,30.19457 -24.4579,32.38303c-15.69618,2.18846 -30.19457,-8.76171 -32.38303,-24.45789z" fill="#000000" stroke="none" stroke-width="0"/><path d="M180.25367,157.85031c-1.79076,-12.84376 7.16947,-24.7074 20.01323,-26.49816c12.84376,-1.79076 24.7074,7.16947 26.49816,20.01323c1.79076,12.84376 -7.16947,24.7074 -20.01323,26.49816c-12.84376,1.79076 -24.7074,-7.16947 -26.49816,-20.01323z" fill="#de6000" stroke="#000000" stroke-width="0"/><path d="M183.79492,162.12663c-1.2605,-9.04063 5.04652,-17.39133 14.08714,-18.65184c9.04063,-1.2605 17.39134,5.04653 18.65184,14.08715c1.2605,9.04063 -5.04653,17.39134 -14.08715,18.65184c-9.04063,1.2605 -17.39133,-5.04654 -18.65183,-14.08716z" fill="#ffa300" stroke="none" stroke-width="0"/><path d="M228.67795,150.82035c-2.18847,-15.69619 8.76171,-30.19456 24.4579,-32.38302c15.69618,-2.18846 30.19457,8.76171 32.38303,24.4579c2.18847,15.69619 -8.7617,30.19457 -24.4579,32.38303c-15.69618,2.18846 -30.19457,-8.76171 -32.38303,-24.4579z" fill="#000000" stroke="none" stroke-width="0"/><path d="M260.49043,170.37094c-12.84376,1.79076 -24.7074,-7.16947 -26.49816,-20.01323c-1.79076,-12.84376 7.16947,-24.7074 20.01323,-26.49816c12.84376,-1.79076 24.7074,7.16947 26.49816,20.01323c1.79076,12.84376 -7.16947,24.7074 -20.01323,26.49816z" data-paper-data="{&quot;index&quot;:null}" fill="#944009" stroke="#000000" stroke-width="0"/><path d="M255.96241,168.75226c-9.04062,1.2605 -17.39133,-5.04654 -18.65183,-14.08716c-1.2605,-9.04063 5.04653,-17.39134 14.08714,-18.65184c9.04062,-1.2605 17.39133,5.04654 18.65183,14.08716c1.2605,9.04063 -5.04653,17.39134 -14.08714,18.65184z" data-paper-data="{&quot;index&quot;:null}" fill="#de6000" stroke="none" stroke-width="0"/><path d="M228.23558,135.4909c-12.84376,1.79076 -24.7074,-7.16947 -26.49816,-20.01323c-1.79076,-12.84376 7.16947,-24.7074 20.01323,-26.49816c12.84376,-1.79076 24.7074,7.16947 26.49816,20.01323c1.79076,12.84376 -7.16947,24.7074 -20.01323,26.49816z" data-paper-data="{&quot;index&quot;:null}" fill="#ffa300" stroke="#000000" stroke-width="0"/><path d="M223.70755,133.87224c-9.04062,1.2605 -17.39133,-5.04654 -18.65183,-14.08716c-1.2605,-9.04063 5.04653,-17.39134 14.08714,-18.65184c9.04062,-1.2605 17.39133,5.04654 18.65183,14.08716c1.2605,9.04063 -5.04653,17.39134 -14.08714,18.65184z" data-paper-data="{&quot;index&quot;:null}" fill="#d4ecfe" stroke="none" stroke-width="0"/><path d="M244.4133,194.73486c0.75139,5.38913 -1.84324,10.20458 -5.79527,10.7556c-3.95203,0.55102 -7.7649,-3.37104 -8.51629,-8.76019c-0.75139,-5.38913 1.84324,-10.20458 5.79527,-10.7556c3.95203,-0.55102 7.7649,3.37104 8.51629,8.76019z" fill="#000000" stroke="none" stroke-width="0"/></g></g></g></svg>