<svg version="1.1" xmlns="http://www.w3.org/2000/svg" xmlns:xlink="http://www.w3.org/1999/xlink" width="18.25378" height="23.94582" viewBox="0,0,18.25378,23.94582"><g transform="translate(-239.89762,-170.61133)"><g data-paper-data="{&quot;isPaintingLayer&quot;:true}" fill-rule="nonzero" stroke="none" stroke-linecap="butt" stroke-linejoin="miter" stroke-miterlimit="10" stroke-dasharray="" stroke-dashoffset="0" style="mix-blend-mode: normal"><path d="M257.95233,181.646c-0.32329,2.29121 -1.29311,4.16104 -2.9095,5.58317c-1.64126,1.44846 -3.63067,2.15953 -5.96823,2.15953c-2.6111,0 -4.77458,-0.89542 -6.46557,-2.65991c-1.71586,-1.7645 -2.56137,-4.02936 -2.56137,-6.74194c0,-2.71258 0.84551,-4.97745 2.56137,-6.74195c1.691,-1.76449 3.85447,-2.63357 6.46557,-2.63357c2.33756,0 4.32697,0.71106 5.94336,2.1332c1.61639,1.42213 2.6111,3.29196 2.93438,5.58317h-3.55607c-0.59683,-2.60724 -2.63598,-4.34539 -5.32166,-4.34539c-1.61639,0 -2.93438,0.55305 -3.95395,1.68548c-1.01958,1.13244 -1.54178,2.55457 -1.54178,4.29273c0,1.7645 0.52221,3.23929 1.54178,4.37172c1.01958,1.13244 2.33756,1.71183 3.95395,1.71183c2.68571,0 4.72485,-1.7645 5.32166,-4.39807z" fill="#000000" stroke-width="0.35808"/><path d="M239.89762,194.55715v-23.65909h18.25378v23.65909z" fill-opacity="0.00403" fill="#808080" stroke-width="0"/></g></g></svg>