<svg version="1.1" xmlns="http://www.w3.org/2000/svg" xmlns:xlink="http://www.w3.org/1999/xlink" width="14.15588" height="23.65909" viewBox="0,0,14.15588,23.65909"><g transform="translate(-239.89762,-170.89806)"><g data-paper-data="{&quot;isPaintingLayer&quot;:true}" fill-rule="nonzero" stroke="none" stroke-linecap="butt" stroke-linejoin="miter" stroke-miterlimit="10" stroke-dasharray="" stroke-dashoffset="0" style="mix-blend-mode: normal"><path d="M254.01846,182.58494c0,0.39504 -0.02634,0.7374 -0.10534,1.0271h-10.50795c0.42137,1.71182 1.8435,2.89693 3.63433,2.89693c1.50114,0 2.79158,-0.89542 3.29197,-2.08052h3.44998c-0.3687,1.42213 -1.1851,2.5809 -2.44922,3.50266c-1.26411,0.92174 -2.71258,1.36945 -4.31906,1.36945c-2.02785,0 -3.71333,-0.63207 -5.03012,-1.89617c-1.34312,-1.26412 -2.00152,-2.87059 -2.00152,-4.84577c0,-1.97518 0.6584,-3.58166 2.00152,-4.87211c1.31679,-1.26412 3.00227,-1.89617 5.03012,-1.89617c2.02785,0 3.687,0.63206 5.00379,1.89617c1.31678,1.29045 1.97517,2.92326 2.00151,4.89844zM243.53685,181.0048h7.13698c-0.52672,-1.44846 -1.97518,-2.42288 -3.63433,-2.42288c-1.60647,0 -2.9496,0.94808 -3.50265,2.42288z" fill="#000000" stroke-width="0.35808"/><path d="M239.89762,194.55715v-23.65909h14.15588v23.65909z" fill-opacity="0.00403" fill="#808080" stroke-width="0"/></g></g></svg>