<svg version="1.1" xmlns="http://www.w3.org/2000/svg" xmlns:xlink="http://www.w3.org/1999/xlink" width="15.91977" height="23.69564" viewBox="0,0,15.91977,23.69564"><g transform="translate(-239.89762,-170.86151)"><g data-paper-data="{&quot;isPaintingLayer&quot;:true}" fill-rule="nonzero" stroke="none" stroke-linecap="butt" stroke-linejoin="miter" stroke-miterlimit="10" stroke-dasharray="" stroke-dashoffset="0" style="mix-blend-mode: normal"><path d="M246.41554,170.86151c2.76525,0 5.00378,0.84274 6.76827,2.55456c1.7645,1.71182 2.63358,3.89769 2.63358,6.55759c0,2.68625 -0.86908,4.87211 -2.63358,6.58393c-1.76449,1.71182 -4.00302,2.5809 -6.76827,2.5809h-6.39957v-18.27698zM246.36287,185.8992c1.68549,0 3.05494,-0.55305 4.1347,-1.65915c1.05343,-1.1061 1.58014,-2.52822 1.58014,-4.29272c0,-1.71182 -0.52671,-3.13395 -1.58014,-4.24005c-1.07977,-1.07976 -2.44922,-1.63281 -4.1347,-1.63281h-2.68624v11.82474z" fill="#000000" stroke-width="0.35808"/><path d="M239.89762,194.55715v-23.65909h15.89015v23.65909z" fill-opacity="0.00403" fill="#808080" stroke-width="0"/></g></g></svg>