<svg version="1.1" xmlns="http://www.w3.org/2000/svg" xmlns:xlink="http://www.w3.org/1999/xlink" width="34.17311" height="34.17311" viewBox="0,0,34.17311,34.17311"><g transform="translate(-222.91346,-162.91346)"><g data-paper-data="{&quot;isPaintingLayer&quot;:true}" stroke="none" stroke-miterlimit="10" stroke-dasharray="" stroke-dashoffset="0" style="mix-blend-mode: normal"><path d="M229.98313,162.91347h20.03379c3.9166,0 7.06966,3.15307 7.06966,7.06966v20.03379c0,3.91659 -3.15306,7.06966 -7.06966,7.06966h-20.03379c-3.91659,0 -7.06966,-3.15307 -7.06966,-7.06966v-20.03379c0,-3.91659 3.15307,-7.06966 7.06966,-7.06966z" fill-opacity="0.13218" fill="#1a1a1a" fill-rule="evenodd" stroke-width="4.43922" stroke-linecap="round" stroke-linejoin="round"/><path d="M228.65062,183.36347c-1.38175,-0.89062 -2.81704,-5.66709 -2.93738,-7.34344c-0.11202,-1.56058 2.01526,-6.06749 3.32052,-6.44307c1.29666,-0.37311 8.04708,-1.08553 9.8466,0.14686c1.94334,1.33089 1.05231,3.54789 3.07917,4.64714c2.02686,1.09926 6.41558,0.15004 8.08168,1.18729c1.41903,0.88342 4.51322,7.04843 4.2319,8.86816c-0.28116,1.81871 -2.11073,5.37013 -3.57927,6.05841c-1.42041,0.66572 -7.66708,0.67604 -9.2961,-0.16274c-1.73994,-0.89589 -1.54724,-5.95773 -3.20064,-6.66486c-1.65715,-0.70874 -7.83009,0.81258 -9.54647,-0.29374z" fill="#bfbfbf" fill-rule="nonzero" stroke-width="0" stroke-linecap="butt" stroke-linejoin="miter"/><path d="M229.50747,176.51438c0,-2.645 2.1442,-4.78921 4.7892,-4.78921c2.645,0 4.78921,2.1442 4.78921,4.78921c0,2.645 -2.1442,4.7892 -4.78921,4.7892c-2.645,0 -4.7892,-2.1442 -4.7892,-4.7892z" fill="#ffffff" fill-rule="nonzero" stroke-width="0" stroke-linecap="butt" stroke-linejoin="miter"/><path d="M231.51787,177.48026c-1.02437,-2.71241 1.71015,-3.78573 1.71015,-3.78573l2.07556,5.49589c0,0 -2.76135,1.00225 -3.78572,-1.71016z" fill="#bfbfbf" fill-rule="nonzero" stroke-width="0" stroke-linecap="butt" stroke-linejoin="miter"/><path d="M241.12926,182.89998c0,-2.645 2.1442,-4.78919 4.7892,-4.78919c2.645,0 4.78921,2.14419 4.78921,4.78919c0,2.645 -2.1442,4.78921 -4.78921,4.78921c-2.645,0 -4.7892,-2.1442 -4.7892,-4.78921z" fill="#ffffff" fill-rule="nonzero" stroke-width="0" stroke-linecap="butt" stroke-linejoin="miter"/><path d="M243.13966,183.86588c-1.02437,-2.71241 1.71015,-3.78573 1.71015,-3.78573l2.07557,5.49588c0,0 -2.76137,1.00224 -3.78572,-1.71015z" fill="#bfbfbf" fill-rule="nonzero" stroke-width="0" stroke-linecap="butt" stroke-linejoin="miter"/></g></g></svg>