<svg version="1.1" xmlns="http://www.w3.org/2000/svg" xmlns:xlink="http://www.w3.org/1999/xlink" width="128.47404" height="201.92216" viewBox="0,0,128.47404,201.92216"><g transform="translate(-175.76298,-94.55394)"><g data-paper-data="{&quot;isPaintingLayer&quot;:true}" fill-rule="nonzero" stroke-linejoin="miter" stroke-miterlimit="10" stroke-dasharray="" stroke-dashoffset="0" style="mix-blend-mode: normal"><path d="M206.67308,295.4761l15.14285,-131.8421l37.78325,-0.15789l13.57389,132z" fill="#010001" stroke="#000000" stroke-width="2" stroke-linecap="butt"/><path d="M175.76298,154.85227c0,-33.30185 28.7599,-60.29833 64.23702,-60.29833c35.47712,0 64.23702,26.99649 64.23702,60.29833c0,33.30185 -28.7599,60.29833 -64.23702,60.29833c-35.47712,0 -64.23702,-26.99649 -64.23702,-60.29833z" fill="#adbecb" stroke="#000000" stroke-width="0" stroke-linecap="butt"/><path d="M175.76298,154.85227c0,-33.30185 28.7599,-60.29833 64.23702,-60.29833c35.47712,0 64.23702,26.99649 64.23702,60.29833c0,1.91741 -29.70763,-13.62424 -65.18474,-13.62424c-35.47712,0 -63.28929,15.78492 -63.28929,13.62424z" fill="#537962" stroke="#000000" stroke-width="0" stroke-linecap="butt"/><path d="M189.31321,155.28175c0,-12.968 10.51265,-23.48065 23.48065,-23.48065c12.968,0 23.48065,10.51265 23.48065,23.48065c0,12.968 -10.51265,23.48065 -23.48065,23.48065c-12.968,0 -23.48065,-10.51265 -23.48065,-23.48065z" fill="#f09738" stroke="#f09738" stroke-width="2" stroke-linecap="butt"/><path d="M262.08324,193.48294l-44.16648,0.06113" fill="none" stroke="#000000" stroke-width="1.5" stroke-linecap="round"/><path d="M267.05229,178.76239c-12.968,0 -23.48065,-10.51265 -23.48065,-23.48065c0,-12.968 10.51265,-23.48065 23.48065,-23.48065c12.968,0 23.48065,10.51265 23.48065,23.48065c0,12.968 -10.51265,23.48065 -23.48065,23.48065z" data-paper-data="{&quot;index&quot;:null}" fill="#f09738" stroke="#f09738" stroke-width="2" stroke-linecap="butt"/><path d="M178.19589,140.12439c3.03646,-19.52778 26.57028,-45.57043 62.0474,-45.57043c35.47712,0 60.68677,29.53452 61.07425,45.32715c0.05154,2.10071 -26.07814,-14.75332 -61.55526,-14.75332c-35.47712,0 -61.88242,17.029 -61.56639,14.99661z" fill="#24423a" stroke="#000000" stroke-width="0" stroke-linecap="butt"/><path d="M188.65737,119.688c13.25465,-20.25765 39.70796,-25.13405 51.58592,-25.13405c35.47712,0 51.68503,25.39858 50.36948,24.16089c0.05154,2.10071 -14.64907,-9.56625 -50.12619,-9.56625c-35.47712,0 -52.14524,12.57181 -51.82921,10.53942z" fill="#0b1014" stroke="#000000" stroke-width="0" stroke-linecap="butt"/></g></g></svg>