<svg version="1.1" xmlns="http://www.w3.org/2000/svg" xmlns:xlink="http://www.w3.org/1999/xlink" width="34.17311" height="34.17311" viewBox="0,0,34.17311,34.17311"><g transform="translate(-222.91346,-162.91346)"><g data-paper-data="{&quot;isPaintingLayer&quot;:true}" stroke-miterlimit="10" stroke-dasharray="" stroke-dashoffset="0" style="mix-blend-mode: normal"><path d="M229.98313,162.91347h20.03379c3.9166,0 7.06966,3.15307 7.06966,7.06966v20.03379c0,3.91659 -3.15306,7.06966 -7.06966,7.06966h-20.03379c-3.91659,0 -7.06966,-3.15307 -7.06966,-7.06966v-20.03379c0,-3.91659 3.15307,-7.06966 7.06966,-7.06966z" fill-opacity="0.13218" fill="#1a1a1a" fill-rule="evenodd" stroke="none" stroke-width="4.43922" stroke-linecap="round" stroke-linejoin="round"/><g fill-rule="nonzero" stroke-linecap="butt" stroke-linejoin="miter"><path d="M250.22834,170.6957c0.21055,-0.19201 2.80722,-0.84391 4.11018,0.45905c1.423,1.423 0,2.84599 0,2.84599l-0.5683,0.46802c-1.21048,0.64587 -1.82729,0.63422 -2.30691,1.91046c-0.28004,0.74518 -0.97925,1.67407 -1.45249,2.3142c-2.33428,3.15746 -3.13436,0.98847 -5.45123,2.59221c-1.16669,0.80758 -2.07158,3.78705 -3.02479,4.93001c-1.84934,2.21748 -3.62517,2.45727 -5.8543,3.76473c-1.40863,0.82621 -2.70967,1.10412 -4.33328,1.2795c-1.43002,0.15446 -2.72366,0.28856 -4.16199,0.29217c0,0 -2.15617,0.43124 -2.15617,-1.58119c0,-2.01243 1.72494,-3.30613 1.72494,-3.30613c4.3417,0.00957 8.63453,0.71893 11.66821,-3.00079c1.31332,-1.61031 2.13913,-4.53087 3.87496,-5.70709c0.66914,-0.45343 4.69417,-0.41027 5.18587,-1.43264c1.29264,-2.68771 0.04302,-4.15668 2.74531,-5.8285z" fill="#bfbfbf" stroke="none" stroke-width="0.5"/><path d="M230.34761,177.60882c2.1978,-5.70411 5.96168,-10.06212 12.07455,-10.06212c6.11288,0 10.06213,2.7993 9.6309,4.74357c-0.33829,1.52524 -0.57228,1.11641 -2.33331,3.08673c-0.78281,0.87584 -0.84291,1.53342 -1.8605,2.50618c-0.94169,0.90018 -4.70756,1.39427 -5.7695,2.81798c-1.44509,1.93739 -1.21563,3.7117 -2.59565,4.91727c-1.56305,1.36547 -3.42472,1.89801 -5.06366,2.55539c-2.23101,0.89488 -4.1719,1.65329 -5.52027,1.65329c-6.11288,0 -0.86247,-6.24917 1.43745,-12.2183z" fill="#ffffff" stroke="none" stroke-width="0"/><path d="M232.64752,179.90873c0,-1.66715 1.35149,-3.01863 3.01864,-3.01863c1.66715,0 3.01864,1.35148 3.01864,3.01863c0,1.66715 -1.35149,3.01864 -3.01864,3.01864c-1.66715,0 -3.01864,-1.35149 -3.01864,-3.01864z" fill="#ffffff" stroke="#bfbfbf" stroke-width="2.5"/></g></g></g></svg>