<svg version="1.1" xmlns="http://www.w3.org/2000/svg" xmlns:xlink="http://www.w3.org/1999/xlink" width="145.3049" height="251.74238" viewBox="0,0,145.3049,251.74238"><g transform="translate(-167.34755,-54.12881)"><g data-paper-data="{&quot;isPaintingLayer&quot;:true}" fill-rule="nonzero" stroke-linecap="butt" stroke-linejoin="miter" stroke-miterlimit="10" stroke-dasharray="" stroke-dashoffset="0" style="mix-blend-mode: normal"><path d="M206.29505,305.87118l15.14285,-131.8421l37.78325,-0.15789l13.57389,132z" fill="#789396" stroke="#000000" stroke-width="0"/><path d="M216.44513,181.27601c0,0.86954 50.03373,1.22137 47.69153,1.04541c-0.22534,-0.01693 0.93339,1.30884 2.20441,1.36113c1.34001,0.05515 2.78454,-1.12246 2.0523,0.52007c-0.20248,0.45419 3.13119,-6.72675 6.75214,-10.83402c0.54398,-0.61704 5.77229,-6.54966 6.65999,-2.88036c2.25803,9.33363 1.79429,35.42369 -0.24608,38.76405c-2.57169,4.21019 -9.5005,12.24949 -18.59954,17.54384c-10.69788,6.22465 -23.56027,9.4207 -23.56027,9.4207c0,0 -12.69851,-3.48958 -21.35648,-8.7794c-10.80511,-6.60166 -18.05804,-15.29657 -18.16849,-15.29657c-0.53115,0 -3.0506,-7.52323 -3.66628,-14.9598c-0.7832,-9.46003 0.38858,-19.45527 0.38858,-21.00367c0,-2.76559 1.16041,-6.64641 2.36723,-6.64641c0.42896,0 3.39987,0.87791 6.34727,3.64595c2.78796,2.6183 5.86156,7.99162 8.33841,9.7764c2.27143,1.63676 2.79529,-2.53005 2.79529,-1.67732z" fill="#040404" stroke="none" stroke-width="0"/><path d="M212.31287,271.9606v-19.36508h54.32982v19.36508z" fill="#466962" stroke="none" stroke-width="0"/><path d="M212.38669,253.5659l2,-20.29953h50.66316l1.66667,20.29953z" fill="#132d2a" stroke="none" stroke-width="0"/><path d="M213.88669,240.65583l1.98737,-17.93063c0,0 23.22928,10.95058 23.22928,12.73075c0,0.33548 -5.144,2.45432 -11.58152,3.62956c-6.90445,1.26049 -13.80181,1.57033 -13.80181,1.57033z" fill="#031717" stroke="none" stroke-width="0"/><path d="M251.32822,239.19097c-6.43752,-1.17526 -11.58152,-3.29409 -11.58152,-3.62956c0,-1.57754 23.72928,-12.89742 23.72928,-12.89742c0,0 0.85914,8.46107 1.19353,11.75424c0.24239,2.38717 0.62716,6.1764 0.62716,6.1764c0,0 -7.06403,-0.14315 -13.96847,-1.40365z" data-paper-data="{&quot;index&quot;:null}" fill="#031717" stroke="none" stroke-width="0"/><path d="M212.32551,258.51263l1.8207,-17.93063c0,0 25.06262,10.95059 25.06262,12.73075c0,0.33548 -5.144,2.45431 -11.58152,3.62956c-6.90445,1.26049 -15.13513,1.57033 -15.13513,1.57033z" fill="#2c4c46" stroke="none" stroke-width="0"/><path d="M251.43368,257.04776c-6.43752,-1.17526 -11.58152,-3.29409 -11.58152,-3.62956c0,-1.78015 25.56264,-12.73075 25.56264,-12.73075l1.82069,17.93064c0,0 -8.89735,-0.30983 -15.80181,-1.57031z" data-paper-data="{&quot;index&quot;:null}" fill="#2c4c46" stroke="none" stroke-width="0"/><path d="M210.59763,276.74067l1.8207,-17.76398c0,0 26.89595,10.95058 26.89595,12.73075c0,0.33548 -5.144,2.45432 -11.58152,3.62956c-6.90445,1.26049 -15.13514,1.57031 -15.13514,1.57031z" fill="#607f7b" stroke="none" stroke-width="0"/><path d="M251.53913,275.44247c-6.43752,-1.17526 -11.58152,-3.29409 -11.58152,-3.62956c0,-1.78015 27.22929,-12.73075 27.22929,-12.73075l2.15403,17.93062c0,0 -10.89736,-0.30983 -17.80181,-1.57032z" data-paper-data="{&quot;index&quot;:null}" fill="#607f7b" stroke="none" stroke-width="0"/><path d="M215.26765,202.8541v-0.54628c0,0 14.11248,-24.94681 23.49006,-25.311c12.70639,-0.49346 24.21842,25.311 24.21842,25.311v0.54628c0,0 -15.48163,7.83003 -23.30797,7.83003c-8.06907,0 -24.40053,-7.83003 -24.40053,-7.83003z" fill="#132d2a" stroke="none" stroke-width="0"/><path d="M256.20622,216.67101c0,0.3819 -7.16204,8.06764 -16.4234,8.06764c-9.26136,0 -16.76917,-7.80099 -16.76917,-8.1829c0,-0.3819 7.50782,3.68807 16.76917,3.68807c9.26135,0 16.4234,-3.95471 16.4234,-3.57282z" fill="#d2ebfc" stroke="none" stroke-width="0"/><g stroke="none" stroke-width="0"><path d="M198.54149,173.84261v-81.36589h86.15654v81.36589z" fill="#000000"/><g><path d="M190.60863,165.94917l9.1416,-4.05979l41.13718,9.00214c0,0 0,3.56625 0,4.94233c0,0.51403 -50.27878,-9.8847 -50.27878,-9.8847z" fill="#2c4c44"/><path d="M240.717,175.95699c0,-1.37609 0,-4.94234 0,-4.94234l41.13719,-9.00214l9.14164,4.0598c0,0 -50.2788,10.39874 -50.2788,9.8847z" data-paper-data="{&quot;index&quot;:null}" fill="#456761"/><g><path d="M290.43206,177.3108c-1.37304,1.61813 -51.82162,13.21462 -51.60037,10.06722c0.10315,-1.46698 1.76792,-11.53145 1.76792,-11.53145c0,0 49.27416,-9.16162 49.27416,-9.27441c0,-1.74726 8.49514,1.38487 0.55829,10.73864z" data-paper-data="{&quot;index&quot;:null}" fill="#bed3e6"/><path d="M191.51338,165.58061c0,0.11277 49.2742,10.34996 49.2742,10.34996c0,0 -0.86169,10.59123 -0.75858,12.05828c0.22122,3.14741 -47.70085,-8.97594 -49.07385,-10.59407c-7.93685,-9.35377 0.55822,-13.56146 0.55822,-11.81417z" fill="#90a7b4"/></g></g><path d="M191.42591,165.57667l-0.03004,-73.0913l7.59589,-0.15324l0.86073,69.5563z" fill="#132a25"/><path d="M281.98224,162.47421l-0.38532,-70.16926l8.84194,0.15325l-0.03004,73.70428z" data-paper-data="{&quot;index&quot;:null}" fill="#2a4d45"/></g><path d="M175.38495,135.21734c0,-33.30185 28.7599,-60.29833 64.23702,-60.29833c35.47712,0 64.23702,26.99649 64.23702,60.29833c0,11.49725 -3.42799,22.24296 -9.37689,31.38565c-3.49643,0.26987 -6.86125,0.6359 -9.79884,0.7682c-4.38597,0.19755 -8.83026,1.49198 -13.18686,1.5c-22.90144,0.04215 -45.803,0.04125 -68.70445,0c-3.36707,-0.00607 -6.99952,0.04587 -10.55507,0.50489c-1.73023,0.03789 -3.4063,0.29551 -5.00142,0.74606c-7.46245,-9.85079 -11.8505,-21.89677 -11.8505,-34.90479z" fill="#ffffff" stroke="#000000" stroke-width="2"/><path d="M302.98204,135.27118c0,11.53676 -3.51268,22.30532 -9.59123,31.41916c-1.17998,0.0975 -2.34111,0.20215 -3.47174,0.30093c10.76425,-15.48402 13.06297,-32.26794 13.06297,-31.72009z" fill="#e6e6e6" stroke="#000000" stroke-width="0"/><path d="M176.10801,135.27118c0,-0.41912 1.72574,18.17879 14.2871,34.22948c-0.80973,0.09223 -1.60477,0.2328 -2.38218,0.41877c-7.49225,-9.75226 -11.90492,-21.71774 -11.90492,-34.64825z" fill="#e6e6e6" stroke="#000000" stroke-width="0"/><path d="M188.93518,135.64681c0,-12.968 10.51265,-23.48065 23.48065,-23.48065c12.968,0 23.48065,10.51265 23.48065,23.48065c0,12.968 -10.51265,23.48065 -23.48065,23.48065c-12.968,0 -23.48065,-10.51265 -23.48065,-23.48065z" fill="#000000" stroke="#000000" stroke-width="2"/><path d="M266.67425,159.12745c-12.968,0 -23.48065,-10.51265 -23.48065,-23.48065c0,-12.968 10.51265,-23.48065 23.48065,-23.48065c12.968,0 23.48065,10.51265 23.48065,23.48065c0,12.968 -10.51265,23.48065 -23.48065,23.48065z" data-paper-data="{&quot;index&quot;:null}" fill="#000000" stroke="#000000" stroke-width="2"/><path d="M201.57285,106.83834c0,0 6.70895,-5.16922 11.79721,-6.36355c5.08827,-1.19433 12.33413,0.69937 12.33413,0.69937c0,0 -8.03812,-0.06028 -11.96762,0.86207c-4.10648,0.96389 -12.16372,4.80211 -12.16372,4.80211z" fill="#000000" stroke="none" stroke-width="0"/><path d="M175.38495,135.21734c0,-33.30185 28.7599,-61.29833 64.23702,-61.29833c20.02133,0 -21.06926,1.03205 -40.4075,23.51049c-32.33859,37.58982 -10.38387,72.24208 -11.979,72.69263c-7.46245,-9.85079 -11.85051,-21.89677 -11.85051,-34.90479z" fill="#122b25" stroke="#000000" stroke-width="0"/><path d="M265.50735,102.03624c-3.9295,-0.92235 -11.96762,-0.86207 -11.96762,-0.86207c0,0 7.24586,-1.8937 12.33413,-0.69937c5.08826,1.19433 11.79721,6.36355 11.79721,6.36355c0,0 -8.05724,-3.83822 -12.16372,-4.80211z" data-paper-data="{&quot;index&quot;:null}" fill="#000000" stroke="none" stroke-width="0"/><path d="M292.12366,168.62213c-1.59512,-0.45055 20.35959,-35.10281 -11.979,-72.69263c-19.33824,-22.47844 -60.42883,-23.51049 -40.4075,-23.51049c35.47712,0 65.23702,29.49648 65.23702,62.79833c0,13.00802 -5.38807,23.554 -12.85051,33.40479z" data-paper-data="{&quot;index&quot;:null}" fill="#122b25" stroke="#000000" stroke-width="0"/><path d="M221.82702,96.52913l-0.81932,-21.71224c0,0 11.97371,-3.68698 18.02526,-3.68698c5.7445,0 19.04943,3.687 19.04943,3.687l-0.61451,22.1219c0,0 -4.85592,15.11109 -17.61571,15.37187c-13.23952,0.27057 -18.02515,-15.78151 -18.02515,-15.78151z" fill="#a9bbcc" stroke="none" stroke-width="0"/><path d="M231.65898,80.75702c0,0 -1.19356,-8.92205 -0.63515,-13.19233c0.59939,-4.5836 4.1173,-13.43588 4.1173,-13.43588h8.60297c0,0 3.4655,9.21158 4.15822,13.71432c0.6722,4.36935 -0.0616,12.91394 -0.0616,12.91394z" fill="#5e7f7b" stroke="none" stroke-width="0"/><path d="M247.79776,80.71402c0,0 -0.45901,12.40969 -0.95318,17.69948c-0.41281,4.41872 -1.54615,12.16469 -1.54615,12.16469c0,0 -3.68749,1.87053 -5.65371,1.79632c-1.55527,-0.0587 -5.20242,-2.20599 -5.20242,-2.20599c0,0 -1.18339,-6.91505 -1.6332,-11.17308c-0.55292,-5.23439 -1.04045,-18.31196 -1.04045,-18.31196z" data-paper-data="{&quot;index&quot;:null}" fill="#2b4a44" stroke="none" stroke-width="0"/><path d="M312.65243,144.9761c0,0 -5.26632,1.05187 -7.36118,2.00626c-1.72965,0.78802 -5.60111,4.06186 -5.60111,4.06186l2.43914,-24.8719l9.41873,1.59745l1.10444,17.20636z" data-paper-data="{&quot;index&quot;:null}" fill="#61807d" stroke="none" stroke-width="0"/><path d="M290.48877,169.45114c0.45907,-1.37344 10.90005,-22.77507 11.14931,-22.69175c1.67874,0.56112 3.35406,-1.04339 5.80624,-1.21116c3.62658,-0.24812 4.8369,-2.87349 4.54557,-2.0019c-0.36588,1.09465 -17.22028,29.48572 -24.28129,35.29941c-1.22147,1.00573 2.75057,-9.30593 2.78019,-9.39458z" data-paper-data="{&quot;index&quot;:null}" fill="#90a7b4" stroke="none" stroke-width="0"/><path d="M301.24215,128.90991c0,0 -0.78831,-17.44142 -4.7888,-23.55694c-5.56085,-8.5009 -25.46497,-22.69195 -25.46497,-22.69195c0,0 13.4741,-2.33199 28.13785,10.21921c8.37766,7.17073 12.75187,35.54216 12.75187,35.54216z" data-paper-data="{&quot;index&quot;:null}" fill="#000000" stroke="none" stroke-width="0"/><path d="M167.34756,144.47612l1.10443,-17.20636l9.41874,-1.59745l2.43914,24.87191c0,0 -3.87146,-3.27384 -5.60111,-4.06186c-2.09485,-0.95439 -7.36118,-2.00626 -7.36118,-2.00626z" fill="#61807d" stroke="none" stroke-width="0"/><path d="M189.51124,168.95115c0.02963,0.08865 4.00167,10.40031 2.78019,9.39458c-7.06102,-5.81369 -23.91541,-34.20475 -24.28129,-35.29941c-0.29133,-0.87159 0.91899,1.75378 4.54557,2.0019c2.45218,0.16778 4.12749,1.77228 5.80623,1.21116c0.24926,-0.08331 10.69024,21.31832 11.1493,22.69176z" fill="#90a7b4" stroke="none" stroke-width="0"/><path d="M168.12191,127.92238c0,0 4.37422,-28.37143 12.75187,-35.54216c14.66375,-12.5512 28.13785,-10.21921 28.13785,-10.21921c0,0 -19.90411,14.19105 -25.46497,22.69195c-4.00049,6.11553 -4.7888,23.55694 -4.7888,23.55694z" fill="#000000" stroke="none" stroke-width="0"/></g></g></svg>