<svg version="1.1" xmlns="http://www.w3.org/2000/svg" xmlns:xlink="http://www.w3.org/1999/xlink" width="144.44336" height="233.99475" viewBox="0,0,144.44336,233.99475"><g transform="translate(-177.00481,-73.46449)"><g data-paper-data="{&quot;isPaintingLayer&quot;:true}" fill-rule="nonzero" stroke-linejoin="miter" stroke-miterlimit="10" stroke-dasharray="" stroke-dashoffset="0" style="mix-blend-mode: normal"><g><path d="M206.03423,307.45923l15.14285,-131.8421l37.78325,-0.15789l13.57389,132z" fill="#395858" stroke="#000000" stroke-width="0" stroke-linecap="butt"/><path d="M220.58676,223.11263l19.43547,4.41787l22.11638,-4.5394l1.95241,-1.15069l7.17795,50.65863l-32.24809,13l-31.71829,-12.80674l6.62795,-51.53844z" fill="#314b4b" stroke="#314b4b" stroke-width="2" stroke-linecap="round"/><path d="M250.72086,245.43238l-1.33334,13.83333l-10.66666,7.83334l-16.66667,-27.33334z" fill="#ff7c0b" stroke="#ff7c0b" stroke-width="2" stroke-linecap="round"/><path d="M249.1599,246.9649l-1.10569,11.47154l-8.84553,6.49594l-13.82114,-22.66667z" fill="#ffc30a" stroke="#ffc30a" stroke-width="2" stroke-linecap="round"/><path d="M248.17208,247.80839l-0.95122,9.8689l-7.60975,5.58842l-11.89024,-19.5z" fill="#ff9e0a" stroke="#ff9e0a" stroke-width="2" stroke-linecap="round"/><path d="M244.78087,252.69571c0,2.73381 -1.99233,4.95 -4.45,4.95c-2.45766,0 -4.45,-2.21619 -4.45,-4.95c0,-2.73381 1.99234,-4.95 4.45,-4.95c2.45766,0 4.45,2.21619 4.45,4.95z" fill="#ffb50a" stroke="#ff9e0a" stroke-width="2" stroke-linecap="butt"/><path d="M219.76303,173.58197l19.32668,-1.55029l19.10219,2.15029l-18.5077,32.90673z" fill="#243d3d" stroke="#243d3d" stroke-width="2" stroke-linecap="round"/><path d="M264.11113,221.52911l-6.62693,1.69327l-17.6,3.4l-19.2,-4.4l-7.07688,-2.03844l3.44017,-26.211l2.83573,-19.17748l20.00098,38.22692l18.3077,-37.52019z" fill="#385656" stroke="#385656" stroke-width="2" stroke-linecap="round"/></g><g><path d="M230.29351,242.79654l-45.03617,-41.51811l7.1079,-5.52842l36.73639,33.07679z" fill="#1b322d" stroke="none" stroke-width="0" stroke-linecap="butt"/><path d="M258.46036,231.83741l42.22431,-25.70492l5.96172,6.74861l-51.94321,32.46403z" data-paper-data="{&quot;index&quot;:null}" fill="#1b322d" stroke="none" stroke-width="0" stroke-linecap="butt"/><path d="M300.7243,206.76107l10.37784,-28.52656l10.34604,-2.37382l-14.79834,37.07386z" data-paper-data="{&quot;index&quot;:null}" fill="#456761" stroke="none" stroke-width="0" stroke-linecap="butt"/><path d="M245.72677,215.69208l16.20072,7.14462l-7.03139,23.19716l-11.55181,1.94049l-13.50056,-4.61071l-2.96815,-23.7994z" fill="#24433d" stroke="#24433d" stroke-width="2" stroke-linecap="round"/><path d="M188.42041,133.90599c3.09564,-33.15765 34.24051,-57.36383 69.56402,-54.06598c35.32351,3.29784 61.44939,32.85087 58.35374,66.00852c-3.09564,33.15765 -34.24051,57.36383 -69.56402,54.06598c-35.32351,-3.29784 -61.44939,-32.85087 -58.35374,-66.00852z" fill="#ffffff" stroke="#000000" stroke-width="2" stroke-linecap="butt"/><path d="M189.13533,134.0268c0.06767,-0.72484 -0.01397,56.16126 57.79369,62.57756c55.2328,6.13051 68.62571,-51.79819 68.531,-50.78375c-3.04943,32.66276 -33.80023,56.50101 -68.68382,53.24425c-34.88359,-3.25677 -60.6903,-32.37529 -57.64088,-65.03804z" fill="#e6e6e6" stroke="#000000" stroke-width="0" stroke-linecap="butt"/><path d="M297.49696,174.94729l0.0765,-10.96216l8.84704,-2.32859l12.10742,2.97657l1.76962,10.72068l-13.70097,3.867z" data-paper-data="{&quot;index&quot;:null}" fill="#22302c" stroke="#22302c" stroke-width="2" stroke-linecap="round"/><path d="M201.87205,135.59318c1.20546,-12.91186 12.64981,-22.40175 25.56166,-21.19629c12.91186,1.20546 22.40175,12.64981 21.19629,25.56166c-1.20546,12.91186 -12.64981,22.40175 -25.56166,21.19629c-12.91186,-1.20546 -22.40175,-12.64981 -21.19629,-25.56166z" fill="#ffffff" stroke="#000000" stroke-width="2" stroke-linecap="butt"/><path d="M208.93246,135.9755c0.84851,-9.08856 8.9041,-15.76842 17.99264,-14.9199c9.08856,0.84851 15.76842,8.90411 14.9199,17.99265c-0.84851,9.08856 -8.90411,15.76842 -17.99265,14.9199c-9.08856,-0.84851 -15.76841,-8.90411 -14.91989,-17.99265z" fill="#000000" stroke="none" stroke-width="0" stroke-linecap="butt"/><path d="M262.48106,229.61949l15.54032,-54.42994l39.71618,-10.12905l-15.62814,41.55375z" data-paper-data="{&quot;index&quot;:null}" fill="#37514d" stroke="none" stroke-width="0" stroke-linecap="butt"/><path d="M236.16318,178.3467l25.00087,2.3341" fill="none" stroke="#000000" stroke-width="2" stroke-linecap="round"/><path d="M277.09186,166.19852c-12.91186,-1.20546 -22.40175,-12.64981 -21.19629,-25.56166c1.20546,-12.91186 12.64981,-22.40175 25.56166,-21.19629c12.91186,1.20546 22.40175,12.64981 21.19629,25.56166c-1.20546,12.91186 -12.64981,22.40175 -25.56166,21.19629z" data-paper-data="{&quot;index&quot;:null}" fill="#ffffff" stroke="#000000" stroke-width="2" stroke-linecap="butt"/><path d="M277.65172,158.99092c-9.08855,-0.84852 -15.76841,-8.90411 -14.91989,-17.99265c0.84851,-9.08856 8.90411,-15.76842 17.99264,-14.9199c9.08855,0.84852 15.76841,8.90411 14.91989,17.99265c-0.84851,9.08856 -8.90411,15.76842 -17.99264,14.9199z" data-paper-data="{&quot;index&quot;:null}" fill="#000000" stroke="none" stroke-width="0" stroke-linecap="butt"/><path d="M201.87205,135.59318c1.20546,-12.91186 12.64981,-22.40175 25.56166,-21.19629c12.91186,1.20546 22.40175,12.64981 21.19629,25.56166c0,0 -46.87246,-3.13916 -46.75798,-4.36536z" fill="#ffffff" stroke="#000000" stroke-width="2" stroke-linecap="butt"/><path d="M255.89557,140.63686c1.20546,-12.91186 12.64981,-22.40175 25.56166,-21.19629c12.91186,1.20546 22.40175,12.64981 21.19629,25.56166c-0.11283,1.20854 -46.75798,-4.36536 -46.75798,-4.36536z" data-paper-data="{&quot;index&quot;:null}" fill="#ffffff" stroke="#000000" stroke-width="2" stroke-linecap="butt"/><path d="M217.13295,108.0842c0,0 7.16041,-4.52321 12.33766,-5.23935c5.17726,-0.71618 12.21571,1.84288 12.21571,1.84288c0,0 -7.99772,-0.8072 -11.99595,-0.25413c-4.1783,0.57798 -12.55743,3.6506 -12.55743,3.6506z" fill="#000000" stroke="none" stroke-width="0" stroke-linecap="butt"/><path d="M281.23703,109.24604c-3.82675,-1.28365 -11.83567,-1.97081 -11.83567,-1.97081c0,0 7.39052,-1.21195 12.34574,0.45019c4.95521,1.66215 11.15459,7.43263 11.15459,7.43263c0,0 -7.66556,-4.57057 -11.66467,-5.91203z" data-paper-data="{&quot;index&quot;:null}" fill="#000000" stroke="none" stroke-width="0" stroke-linecap="butt"/><g stroke-width="7.5" stroke-linecap="round"><path d="M228.56821,108.12975l25.73564,19.44644l-2.07792,49.08456l-37.49395,-17.58007l-1.17467,-4.18532l0.4679,-28.48598z" fill="#ff8300" stroke="#ff8300"/><path d="M296.89579,134.14621l-4.81319,28.0803l-1.9291,3.89556l-40.10017,10.3358l7.04395,-48.62094l28.8906,-14.34647z" data-paper-data="{&quot;index&quot;:null}" fill="#ffa900" stroke="#ffa900"/><path d="M314.05844,132.71642l-2.85315,28.83127l-28.90504,4.61143l17.79216,-31.16863l-11.23328,-19.66158l-33.51728,11.19498l-28.00619,-16.51372l-15.57844,13.66389l7.08373,35.59696l-28.8243,-13.16669l3.37653,-26.93186l6.44485,-35.30266l14.57271,4.87589l41.93403,-11.27924l39.82556,20.8549l16.68873,-3.03383z" fill="#30433d" stroke="#30433d"/></g><path d="M219.46448,168.99552l60.34764,5.63412l-18.83344,55.93448l-34.26614,-4.03978z" fill="#476863" stroke="none" stroke-width="0" stroke-linecap="butt"/><path d="M178.06955,159.92455l0.96778,-10.0518l5.24027,-3.91189l15.47892,6.50959l0.75807,7.53365l-13.76706,3.73518z" fill="#22302c" stroke="#22302c" stroke-width="2" stroke-linecap="round"/><path d="M192.08344,196.2164l-7.71442,-43.21119l37.4078,16.45966l4.8611,56.9247z" fill="#476863" stroke="none" stroke-width="0" stroke-linecap="butt"/><path d="M282.28407,205.2148l11.5614,-30.97807l10.09838,-1.76635l-15.74064,38.98683z" data-paper-data="{&quot;index&quot;:null}" fill="#456761" stroke="none" stroke-width="0" stroke-linecap="butt"/><path d="M185.32249,201.49002l-8.25181,-41.2268l9.5969,3.60511l5.62728,32.58281z" fill="#364c47" stroke="none" stroke-width="0" stroke-linecap="butt"/><path d="M221.26598,169.51372l-37.04952,-16.87967l15.34703,-1.34955l24.51938,12.60019z" fill="#2c4c45" stroke="none" stroke-width="0" stroke-linecap="butt"/><path d="M276.56714,169.0534l26.42799,-7.84368l14.83197,4.16707l-39.53379,9.72977z" data-paper-data="{&quot;index&quot;:null}" fill="#5f7f7c" stroke="none" stroke-width="0" stroke-linecap="butt"/><path d="M219.8449,169.50906l3.22023,-5.96132l54.57374,5.09506l1.34092,6.38716z" fill="#446660" stroke="none" stroke-width="0" stroke-linecap="butt"/><path d="M263.09559,202.14335c-0.83945,8.9915 -8.71726,15.60857 -17.59553,14.77968c-8.87828,-0.82888 -15.39504,-8.78984 -14.55558,-17.78134c0.83945,-8.9915 8.71726,-15.60861 17.59552,-14.77973c8.87828,0.82888 15.39505,8.78988 14.55559,17.78138z" fill="#ffc100" stroke="#ffc100" stroke-width="2" stroke-linecap="butt"/><path d="M258.14928,201.68152c-0.593,6.3515 -6.05641,11.03519 -12.2029,10.46134c-6.1465,-0.57384 -10.64853,-6.18794 -10.05556,-12.53941c0.593,-6.3515 6.05641,-11.0352 12.20292,-10.46135c6.1465,0.57384 10.64851,6.18793 10.05554,12.53944z" fill="#ff8300" stroke="#ffc100" stroke-width="2" stroke-linecap="butt"/><path d="M253.25327,201.22443c-0.33212,3.55733 -3.39206,6.18056 -6.83458,5.85916c-3.44251,-0.3214 -5.964,-3.46573 -5.63189,-7.02305c0.33212,-3.55733 3.39207,-6.18056 6.83459,-5.85916c3.44251,0.3214 5.964,3.4657 5.63188,7.02305z" fill="#ff8300" stroke="#ffc100" stroke-width="2" stroke-linecap="butt"/><path d="M265.564,225.86422l16.23984,-49.76273l33.18814,-8.40459l-13.99486,37.65778z" data-paper-data="{&quot;index&quot;:null}" fill="#ffc100" stroke="none" stroke-width="0" stroke-linecap="butt"/><path d="M192.60879,194.52659l-6.78222,-39.59754l31.05883,14.40274l6.74768,51.90887z" data-paper-data="{&quot;index&quot;:null}" fill="#ffc100" stroke="none" stroke-width="0" stroke-linecap="butt"/></g></g></g></svg>