<svg version="1.1" xmlns="http://www.w3.org/2000/svg" xmlns:xlink="http://www.w3.org/1999/xlink" width="139.19847" height="239.23545" viewBox="0,0,139.19847,239.23545"><defs><radialGradient cx="239.81706" cy="141.09155" r="76.37147" gradientUnits="userSpaceOnUse" id="color-1"><stop offset="0" stop-color="#8ba1a5" stop-opacity="0"/><stop offset="1" stop-color="#8ba1a5"/></radialGradient><radialGradient cx="240.58108" cy="141.04147" r="76.37148" gradientUnits="userSpaceOnUse" id="color-2"><stop offset="0" stop-color="#a9c4c9" stop-opacity="0"/><stop offset="1" stop-color="#a9c4c9"/></radialGradient></defs><g transform="translate(-172.19126,-69.26456)"><g data-paper-data="{&quot;isPaintingLayer&quot;:true}" fill-rule="nonzero" stroke-linejoin="miter" stroke-miterlimit="10" stroke-dasharray="" stroke-dashoffset="0" style="mix-blend-mode: normal"><g stroke-linecap="butt"><path d="M206.75013,307.50001l15.14285,-131.8421l37.78325,-0.15789l13.57389,132z" fill="#000000" stroke="#000000" stroke-width="2"/><path d="M212.92318,247.481l55.25932,0.96842l2.638,27.45667c0,0 -19.15108,15.00445 -30.32597,14.72548c-9.78941,-0.24439 -31.08175,-15.47548 -31.08175,-15.47548z" fill="#132d2a" stroke="none" stroke-width="0"/><path d="M213.86271,240.13088l53.50933,1.46842l2.63799,26.20667c0,0 -20.67173,13.454 -29.82597,13.22547c-9.78941,-0.24439 -29.83176,-15.72547 -29.83176,-15.72547z" fill="#2c4c46" stroke="none" stroke-width="0"/><path d="M211.54819,256.33934l2.1692,-15.43468l53.83493,2.25l1.40878,13.33515c0,0 -19.41323,14.58907 -28.82597,14.47548c-9.41274,-0.11359 -28.58694,-14.62595 -28.58694,-14.62595z" fill="#466962" stroke="none" stroke-width="0"/><path d="M198.91685,233.85632c0,0 4.85083,-3.50795 7.25728,-4.62637c2.61693,-1.21624 7.86587,-2.40229 7.86587,-2.40229c0,0 11.9363,5.21671 16.50094,5.21671c6.56862,0 35.81409,-4.81827 35.81409,-4.81827c0,0 6.29446,1.43033 8.8286,2.56477c2.20388,0.98659 5.52425,3.86049 5.52425,3.86049c0,0 -2.027,2.84869 -5.91832,5.28785c-5.654,3.54402 -14.11978,7.20415 -16.66922,8.16607c-0.7579,0.28597 -2.37643,1.61067 -3.42521,2.90771c-0.79842,0.98742 -1.01853,2.02627 -1.73013,2.18347c-4.32552,0.95555 -7.36618,0.46178 -12.20013,0.58791c-1.78385,0.04654 -6.93681,1.77332 -12.95035,-0.52016c-1.00892,-0.38478 -1.1219,-1.27392 -1.7775,-2.29506c-0.42312,-0.65904 -1.31817,-1.46669 -2.00229,-1.91565c-4.03296,-2.6467 -9.52023,-4.68303 -13.21301,-6.53046c-6.94011,-3.47202 -11.90488,-7.66672 -11.90488,-7.66672z" fill="#2c4c46" stroke="#ffffff" stroke-width="0"/><path d="M253.62448,245.56424l-26.68332,-0.12703c0,0 -9.94985,-7.20862 -15.29987,-10.85476c-4.09058,-2.78781 -12.19509,-13.1304 -12.19509,-13.1304l15.12316,-7.02866c0,0 11.93629,5.21671 16.50094,5.21671c6.56862,0 35.8141,-4.81827 35.8141,-4.81827l14.35286,6.42526c0,0 -5.81604,8.59855 -9.8659,11.64697c-5.27002,3.96685 -17.74685,12.67015 -17.74685,12.67015z" fill="#031717" stroke="#ffffff" stroke-width="0"/><path d="M253.32728,233.95943c0,0 0.66565,10.46547 -0.06033,15.72666c-0.38203,2.76856 -3.42473,13.09548 -13.54943,12.65913c-11.92263,-0.51383 -11.98556,-11.05702 -12.43096,-13.67726c-0.84577,-4.9756 -0.64261,-14.83557 -0.64261,-14.83557c0,0 -9.94985,-7.20862 -15.29987,-10.85476c-4.09058,-2.78781 -12.1951,-13.1304 -12.1951,-13.1304l15.12315,-7.02867c0,0 17.39141,-3.51807 25.93741,-3.45298c8.87957,0.06763 26.37762,3.85143 26.37762,3.85143l14.35285,6.42526c0,0 -5.81604,8.59855 -9.8659,11.64697c-5.27002,3.96685 -17.74685,12.67016 -17.74685,12.67016z" fill="#000000" stroke="#ffffff" stroke-width="0"/><path d="M245.49566,226.31379l0.05941,21.45008c0,0 -0.31777,2.20318 -1.74208,3.41652c-0.9491,0.80852 -2.9617,0.79609 -3.60394,0.79609c-0.74794,0 -2.798,0.37486 -4.01662,-0.98507c-1.06956,-1.19359 -1.36731,-4.14369 -1.36731,-4.14369l-0.20399,-20.61418c0,0 -8.82664,-4.78816 -12.20659,-7.09164c-2.58428,-1.76122 -7.04872,-6.11095 -7.04872,-6.11095l6.03001,-4.05037c0,0 12.48938,-8.61638 18.81571,-8.49748c6.43707,0.12099 19.48026,9.21728 19.48026,9.21728l4.55987,2.96706c0,0 -3.01869,3.872 -5.57725,5.79787c-3.32939,2.50611 -13.17877,7.84849 -13.17877,7.84849z" fill="#789396" stroke="#ffffff" stroke-width="0"/><path d="M238.12816,243.91697v-42.55948h4.15135v42.78818z" fill="#d3ecfe" stroke="none" stroke-width="0"/><path d="M236.45179,247.61007c0,-1.97871 1.68519,-3.58277 3.76399,-3.58277c2.0788,0 3.764,1.60406 3.764,3.58277c0,1.97871 -1.6852,3.58277 -3.764,3.58277c-2.0788,0 -3.76399,-1.60406 -3.76399,-3.58277z" fill="none" stroke="#ffffff" stroke-width="4.5"/></g><path d="M176.56309,136.90001c0,-0.72799 5.20666,55.91939 63.36046,56.93429c55.56352,0.9697 63.51358,-57.95314 63.51358,-56.93429c0,32.80479 -28.40173,59.39833 -63.43702,59.39833c-35.03529,0 -63.43702,-26.59354 -63.43702,-59.39833z" fill="#e6e6e6" stroke="#000000" stroke-width="0" stroke-linecap="butt"/><path d="M227.50712,176.65644h25.10959" fill="none" stroke="#000000" stroke-width="2" stroke-linecap="round"/><path d="" fill="#ffffff" stroke="#000000" stroke-width="3.5" stroke-linecap="butt"/><path d="" fill="#132d2a" stroke="none" stroke-width="0" stroke-linecap="butt"/><path d="" fill="#2c4c46" stroke="none" stroke-width="0" stroke-linecap="butt"/><path d="" fill="#466962" stroke="none" stroke-width="0" stroke-linecap="butt"/><path d="M311.38973,157.89267z" fill="#031717" stroke="#ffffff" stroke-width="0" stroke-linecap="butt"/><path d="" fill="none" stroke="#ffffff" stroke-width="4.5" stroke-linecap="butt"/><g stroke-linecap="butt"><path d="M175.84003,131.9433c0,-33.30185 28.7599,-60.29833 64.23702,-60.29833c35.47712,0 64.23702,26.99649 64.23702,60.29833c0,33.30185 -28.7599,60.29833 -64.23702,60.29833c-35.47712,0 -64.23702,-26.99649 -64.23702,-60.29833z" fill="#ffffff" stroke="#000000" stroke-width="2"/><path d="M189.39026,132.37277c0,-12.968 10.51265,-23.48065 23.48065,-23.48065c12.968,0 23.48065,10.51265 23.48065,23.48065c0,12.968 -10.51265,23.48065 -23.48065,23.48065c-12.968,0 -23.48065,-10.51265 -23.48065,-23.48065z" fill="#ffffff" stroke="#000000" stroke-width="2"/><path d="M196.45563,132.09713c0,-9.12808 7.39976,-16.52784 16.52783,-16.52784c9.12808,0 16.52784,7.39977 16.52784,16.52784c0,9.12808 -7.39977,16.52784 -16.52784,16.52784c-9.12808,0 -16.52783,-7.39977 -16.52783,-16.52784z" fill="#000000" stroke="none" stroke-width="0"/><path d="M267.1293,155.8534c-12.968,0 -23.48065,-10.51265 -23.48065,-23.48065c0,-12.968 10.51265,-23.48065 23.48065,-23.48065c12.968,0 23.48065,10.51265 23.48065,23.48065c0,12.968 -10.51265,23.48065 -23.48065,23.48065z" data-paper-data="{&quot;index&quot;:null}" fill="#ffffff" stroke="#000000" stroke-width="2"/><path d="M267.01671,148.62498c-9.12807,0 -16.52783,-7.39977 -16.52783,-16.52784c0,-9.12808 7.39977,-16.52784 16.52783,-16.52784c9.12807,0 16.52783,7.39977 16.52783,16.52784c0,9.12808 -7.39977,16.52784 -16.52783,16.52784z" data-paper-data="{&quot;index&quot;:null}" fill="#000000" stroke="none" stroke-width="0"/><path d="M202.02793,103.5643c0,0 6.70895,-5.16922 11.79721,-6.36355c5.08827,-1.19433 12.33413,0.69937 12.33413,0.69937c0,0 -8.03812,-0.06028 -11.96762,0.86207c-4.10648,0.96389 -12.16372,4.80211 -12.16372,4.80211z" fill="#000000" stroke="none" stroke-width="0"/><path d="M265.96236,98.7622c-3.9295,-0.92235 -11.96762,-0.86207 -11.96762,-0.86207c0,0 7.24586,-1.8937 12.33413,-0.69937c5.08826,1.19433 11.79721,6.36355 11.79721,6.36355c0,0 -8.05724,-3.83822 -12.16372,-4.80211z" data-paper-data="{&quot;index&quot;:null}" fill="#000000" stroke="none" stroke-width="0"/><path d="M180.91914,102.23437c11.42496,-22.68233 31.40973,-33.07142 60.56473,-32.85267c24.16321,0.18129 39.14424,9.27509 47.64651,17.23625c0.95139,0.89084 -11.16905,5.58091 -18.25999,7.52146c-15.29703,4.18628 -30.35723,6.25195 -30.35723,6.25195l6.65013,-11.17032c0,0 -23.70536,7.34319 -34.98048,9.59002c-11.17264,2.22641 -31.26367,3.4233 -31.26367,3.4233z" fill="#000000" stroke="none" stroke-width="0"/><path d="M189.51016,131.62172c0,-12.96801 10.51265,-23.48065 23.48066,-23.48065c12.96801,0 23.48065,10.51264 23.48065,23.48065c0,0 -11.70863,-7.69294 -23.43307,-7.53879c-11.75617,0.15456 -23.52823,8.1554 -23.52823,7.53879z" fill="#ffffff" stroke="#000000" stroke-width="2"/><path d="M243.68262,131.91049c0,-12.96801 10.51264,-23.48065 23.48065,-23.48065c12.96801,0 23.48066,10.51264 23.48066,23.48065c0,0.60606 -11.37275,-7.38438 -22.92496,-7.531c-11.92261,-0.15132 -24.03635,7.531 -24.03635,7.531z" data-paper-data="{&quot;index&quot;:null}" fill="#ffffff" stroke="#000000" stroke-width="2"/></g><g stroke="#000000" stroke-width="0" stroke-linecap="butt"><path d="M190.56169,182.61447c0,0 -14.59962,-41.01737 -14.59962,-60.78353c0,-7.87028 6.75149,-32.45135 22.44445,-42.9863c17.47783,-11.73317 41.85707,-9.389 41.85707,-9.389v115.56356z" fill="url(#color-1)"/><path d="M240.13459,184.96915v-115.56355c0,0 23.89828,-2.02945 41.37613,9.70372c15.69295,10.53496 22.92539,34.80132 22.92539,42.6716c0,19.76617 -15.56149,62.7073 -15.56149,62.7073z" data-paper-data="{&quot;index&quot;:null}" fill="url(#color-2)"/></g><g stroke="none" stroke-linecap="butt"><path d="M173.99607,161.8385c-2.98637,-8.94233 -1.36588,-44.58194 -1.36588,-46.9288c0,-5.2294 2.46538,3.89507 6.24874,10.7042c2.37043,4.26622 6.74372,6.838 6.74372,6.838c0,0 1.34721,5.11882 1.38322,10.17109c0.02595,3.63843 -1.38937,7.38722 -0.89488,8.48274c2.18811,4.84762 6.75454,11.12569 11.18436,14.50511c4.83772,3.69058 9.35626,4.65844 13.29387,7.38523c-2.50664,3.89569 -3.96084,8.53276 -3.96084,13.50947c0,3.89958 0.89284,7.59063 2.48524,10.87987c-15.55268,-6.08476 -29.39411,-18.40887 -35.11755,-35.54691z" fill="#031717" stroke-width="NaN"/><path d="M303.72803,171.57323c-6.87473,13.28223 -18.46238,21.3109 -30.3125,25.61691c1.65229,-3.33821 2.58094,-7.09834 2.58094,-11.07537c0,-4.74826 -1.32374,-9.18735 -3.62232,-12.96834c0.11822,-0.04429 0.23381,-0.08818 0.34677,-0.13162c9.37849,-3.6072 22.13914,-20.75516 22.13914,-20.75516c0,0 0.66389,-2.495 0.32382,-3.90957c-0.28191,-1.17253 -2.17097,-0.22731 -2.2572,-1.24398c-0.22352,-2.63541 1.1063,-4.78769 1.1985,-6.68992c0.15929,-3.28734 1.7271,-8.63112 1.7271,-8.63112c0,0 5.38074,-4.67275 7.29567,-7.38735c2.18167,-3.09275 5.09882,-10.18311 5.09882,-10.18311c0,0 3.02421,42.78548 -4.51873,57.35867z" fill="#031717" stroke-width="NaN"/><path d="M194.75494,160.92709c10.10561,5.75744 24.54744,17.96117 46.9949,20.55944c21.89157,-3.64642 14.66198,0.04836 45.56429,-17.91936c6.82257,-3.96689 -1.43503,26.56673 -1.43503,26.56673c0,0 -12.4687,12.99214 -44.24683,13.94737c-41.15352,-2.92443 -47.45515,-18.08085 -47.45515,-18.08085c0,0 -5.88332,-28.75441 0.57782,-25.07333z" fill="#031717" stroke-width="0.5"/><g stroke-width="0"><path d="M233.82784,182.1768c0,0 -1.16066,-0.44609 -3.09459,-1.19815c-9.16982,-3.5659 -42.41073,-20.51565 -43.99846,-23.16834c-1.78305,-2.979 -3.17675,-7.3058 -3.17675,-7.3058l11.52923,0.06226l29.8308,14.71472z" fill="#2b4c46"/><path d="M183.74533,150.70953l-0.40981,-14.62759h11.98667v14.6276z" fill="#607f7b"/><path d="M183.62817,136.42462c0,0 -3.37104,-1.50913 -6.47586,-6.26795c-2.22544,-3.41096 -4.41162,-9.88415 -4.67021,-12.22266c-0.23436,-2.11908 -0.26146,-6.35579 1.22756,-8.83601c2.2083,-3.67833 6.30757,-5.32557 6.30757,-5.32557c0,0 0.28976,11.19581 3.20971,17.75821c1.78772,4.0178 7.02664,8.62717 9.88724,11.59772c1.8117,1.88134 1.94861,3.10534 1.94861,3.10534z" fill="#456861"/></g><g stroke-width="0"><path d="M256.07302,165.43108c0,0 24.3916,-9.89529 25.91486,-11.51272c1.73763,-1.84506 4.45273,-5.4649 4.45273,-5.4649l11.58026,0.32786c0,0 -4.3778,5.61923 -5.41454,7.61884c-7.44437,13.05707 -38.79197,25.10136 -38.79197,25.10136z" data-paper-data="{&quot;index&quot;:null}" fill="#2b4c46"/><path d="M286.21254,148.78621v-14.19969h11.63602l-0.39782,14.1997z" data-paper-data="{&quot;index&quot;:null}" fill="#607f7b"/><path d="M286.46434,134.7338c0,0 0.13288,-1.18816 1.8916,-3.01448c2.77691,-2.88364 7.86256,-7.35819 9.59801,-11.25845c2.83454,-6.37043 1.83544,-16.26374 1.83544,-16.26374c0,0 5.05897,2.15276 7.20268,5.72346c1.44547,2.40767 1.82067,7.28477 1.59319,9.34185c-0.25104,2.27008 -1.50426,6.26092 -3.66458,9.5721c-3.01401,4.61961 -6.50036,6.69556 -6.50036,6.69556z" data-paper-data="{&quot;index&quot;:null}" fill="#456861"/></g></g><path d="M218.70213,198.22799c0,-4.27517 1.43229,-30.05533 1.4555,-30.49202c0.6375,-11.99595 9.96265,-17.98893 20.10533,-17.96126c10.15067,0.02769 17.55692,7.58589 19.02435,17.98522c0.01055,0.0749 1.13436,27.69924 1.13436,30.31795c0,9.88819 -9.99835,18.65463 -20.38669,18.65463c-10.38837,0 -21.33282,-8.61633 -21.33282,-18.50451z" fill="#000000" stroke="none" stroke-width="0" stroke-linecap="butt"/><path d="M252.22392,185.70499c0,13.1719 -5.77748,23.84981 -12.90436,23.84981c-7.12688,0 -12.90436,-10.67793 -12.90436,-23.84981c0,-13.1719 5.77748,-23.84981 12.90436,-23.84981c7.12688,0 12.90436,10.67793 12.90436,23.84981z" fill="#ab4400" stroke="none" stroke-width="NaN" stroke-linecap="butt"/><path d="M252.7086,179.80371c0,9.101 -5.7775,16.4788 -12.90437,16.4788c-7.12687,0 -12.90435,-7.37782 -12.90435,-16.4788c0,-9.101 5.77749,-16.47882 12.90435,-16.47882c7.12687,0 12.90437,7.37782 12.90437,16.47882z" fill="#f58f00" stroke="none" stroke-width="NaN" stroke-linecap="butt"/><path d="M228.32643,172.79365c0,-6.04114 5.14501,-10.93846 11.49177,-10.93846c6.34675,0 11.49176,4.8973 11.49176,10.93846c0,6.04114 -5.14504,10.93848 -11.49176,10.93848c-6.34675,0 -11.49177,-4.89732 -11.49177,-10.93848z" fill="#000000" stroke="#fea300" stroke-width="4" stroke-linecap="butt"/></g></g></svg>