<svg version="1.1" xmlns="http://www.w3.org/2000/svg" xmlns:xlink="http://www.w3.org/1999/xlink" width="15.7483" height="23.94584" viewBox="0,0,15.7483,23.94584"><g transform="translate(-239.89762,-170.61131)"><g data-paper-data="{&quot;isPaintingLayer&quot;:true}" fill-rule="nonzero" stroke="none" stroke-linecap="butt" stroke-linejoin="miter" stroke-miterlimit="10" stroke-dasharray="" stroke-dashoffset="0" style="mix-blend-mode: normal"><path d="M240.4874,189.28087v-18.56174h15.15852v18.56174z" fill-opacity="0.01" fill="#000000" stroke-width="0"/><path d="M253.34284,173.16589c1.39579,1.71182 2.08052,3.9767 2.08052,6.84729c0,2.87059 -0.68473,5.13547 -2.08052,6.82095c-1.39579,1.71182 -3.23929,2.55456 -5.58317,2.55456c-2.37022,0 -4.24005,-0.84274 -5.63584,-2.52823c-1.39579,-1.68548 -2.08052,-3.9767 -2.08052,-6.84729c0,-2.87059 0.68473,-5.16181 2.08052,-6.87363c1.39579,-1.68549 3.26563,-2.52823 5.63584,-2.52823c2.34388,0 4.18738,0.84275 5.58317,2.55457zM243.54596,180.01318c0,4.02936 1.58015,6.45225 4.21372,6.45225c2.60724,0 4.16104,-2.42289 4.16104,-6.45225c0,-4.02936 -1.5538,-6.47859 -4.16104,-6.47859c-2.63357,0 -4.21372,2.44923 -4.21372,6.47859z" fill="#000000" stroke-width="0.35808"/><path d="M239.89762,194.55715v-23.65909h15.5405v23.65909z" fill-opacity="0.00403" fill="#808080" stroke-width="0"/></g></g></svg>