<svg version="1.1" xmlns="http://www.w3.org/2000/svg" xmlns:xlink="http://www.w3.org/1999/xlink" width="500" height="382" viewBox="0,0,500,382"><g transform="translate(10,11)"><g data-paper-data="{&quot;isPaintingLayer&quot;:true}" fill-rule="nonzero" stroke="none" stroke-linecap="butt" stroke-linejoin="miter" stroke-miterlimit="10" stroke-dasharray="" stroke-dashoffset="0" style="mix-blend-mode: normal"><path d="M-10,371v-382h500v382z" fill="#232323" stroke-width="0"/><path d="M259.90262,175.89015c0,-27.78009 22.52021,-50.3003 50.3003,-50.3003c27.78009,0 50.3003,22.52021 50.3003,50.3003c0,27.78009 -22.52021,50.3003 -50.3003,50.3003c-27.78009,0 -50.3003,-22.52021 -50.3003,-50.3003z" fill="#bfbfbf" stroke-width="0"/><path d="M281.92964,151.86613c0,-27.78009 22.52021,-50.3003 50.3003,-50.3003c27.78009,0 50.3003,22.52021 50.3003,50.3003c0,27.78009 -22.52021,50.3003 -50.3003,50.3003c-27.78009,0 -50.3003,-22.52021 -50.3003,-50.3003z" fill="#ffffff" stroke-width="0"/><path d="M111.56148,175.97664c0,-27.78009 22.52021,-50.3003 50.3003,-50.3003c27.78009,0 50.3003,22.52021 50.3003,50.3003c0,27.78009 -22.52021,50.3003 -50.3003,50.3003c-27.78009,0 -50.3003,-22.52021 -50.3003,-50.3003z" fill="#000000" stroke-width="0"/><path d="M135.09,153.45412c0,-27.78009 22.52021,-50.3003 50.3003,-50.3003c27.78009,0 50.3003,22.52021 50.3003,50.3003c0,27.78009 -22.52021,50.3003 -50.3003,50.3003c-27.78009,0 -50.3003,-22.52021 -50.3003,-50.3003z" fill="#ff3a3a" stroke-width="0"/><text transform="translate(97.46976,269.14059) scale(0.5,0.5)" font-size="40" xml:space="preserve" fill="#808080" fill-rule="nonzero" stroke="none" stroke-width="1" stroke-linecap="butt" stroke-linejoin="miter" stroke-miterlimit="10" stroke-dasharray="" stroke-dashoffset="0" font-family="Sans Serif" font-weight="normal" text-anchor="start" style="mix-blend-mode: normal"><tspan x="0" dy="0">Pick these colors for the icons</tspan></text><text transform="translate(298.50973,89.94418) scale(0.5,0.5)" font-size="40" xml:space="preserve" fill="#969696" fill-rule="nonzero" stroke="none" stroke-width="1" stroke-linecap="butt" stroke-linejoin="miter" stroke-miterlimit="10" stroke-dasharray="" stroke-dashoffset="0" font-family="Sans Serif" font-weight="normal" text-anchor="start" style="mix-blend-mode: normal"><tspan x="0" dy="0">picked</tspan></text><text transform="translate(138.50973,90.74418) scale(0.5,0.5)" font-size="40" xml:space="preserve" fill="#969696" fill-rule="nonzero" stroke="none" stroke-width="1" stroke-linecap="butt" stroke-linejoin="miter" stroke-miterlimit="10" stroke-dasharray="" stroke-dashoffset="0" font-family="Sans Serif" font-weight="normal" text-anchor="start" style="mix-blend-mode: normal"><tspan x="0" dy="0">unpicked</tspan></text><text transform="translate(123.30973,284.08658) scale(0.33077,0.33077)" font-size="40" xml:space="preserve" fill="#969696" fill-rule="nonzero" stroke="none" stroke-width="1" stroke-linecap="butt" stroke-linejoin="miter" stroke-miterlimit="10" stroke-dasharray="" stroke-dashoffset="0" font-family="Sans Serif" font-weight="normal" text-anchor="start" style="mix-blend-mode: normal"><tspan x="0" dy="0">(Insert your icon color instead of red)</tspan></text></g></g></svg>