<svg version="1.1" xmlns="http://www.w3.org/2000/svg" xmlns:xlink="http://www.w3.org/1999/xlink" width="18.61742" height="23.94583" viewBox="0,0,18.61742,23.94583"><g transform="translate(-239.89762,-170.61132)"><g data-paper-data="{&quot;isPaintingLayer&quot;:true}" fill-rule="nonzero" stroke="none" stroke-linecap="butt" stroke-linejoin="miter" stroke-miterlimit="10" stroke-dasharray="" stroke-dashoffset="0" style="mix-blend-mode: normal"><path d="M258.42671,179.03875c0,0.18435 0.02547,0.7374 0.02547,0.94808c0,2.73892 -0.84002,4.97744 -2.54556,6.74194c-1.70552,1.76449 -3.92014,2.65991 -6.61843,2.65991c-2.67283,0 -4.88747,-0.89542 -6.61845,-2.65991c-1.75643,-1.7645 -2.62192,-4.02936 -2.62192,-6.74194c0,-2.71258 0.86548,-4.97745 2.62192,-6.74194c1.73098,-1.76449 3.94561,-2.63357 6.61845,-2.63357c2.21464,0 4.14925,0.6584 5.80387,1.94885c1.6546,1.31679 2.67282,3.00227 3.05466,5.03012h-3.69106c-0.71276,-2.31754 -2.67283,-3.81868 -5.14203,-3.81868c-1.6546,0 -3.00375,0.57939 -4.04742,1.73816c-1.06912,1.1851 -1.6037,2.65991 -1.6037,4.45073c0,1.81717 0.53458,3.29197 1.6037,4.47707c1.04368,1.18511 2.39282,1.76449 4.04742,1.76449c2.64739,0 4.73475,-1.63281 5.2693,-4.0557h-5.2693v-3.10762z" fill="#000000" stroke-width="0.35808"/><path d="M239.89762,194.55715v-23.65909h18.61742v23.65909z" fill-opacity="0.00403" fill="#808080" stroke-width="0"/></g></g></svg>