<svg version="1.1" xmlns="http://www.w3.org/2000/svg" xmlns:xlink="http://www.w3.org/1999/xlink" width="475.45852" height="360.69546" viewBox="0,0,475.45852,360.69546"><g transform="translate(-2.27074,-0.1967)"><g data-paper-data="{&quot;isPaintingLayer&quot;:true}" fill-rule="nonzero" stroke-linejoin="miter" stroke-miterlimit="10" stroke-dasharray="" stroke-dashoffset="0" style="mix-blend-mode: normal"><g stroke="none" stroke-width="0" stroke-linecap="butt"><path d="M211.76466,123.24192v-57.11818h8.70012v57.11818z" fill="#000000"/><path d="M162.93741,122.8304v-57.11818h8.57403v57.11818z" fill="#000000"/><path d="M173.52886,123.20867v-48.16588h36.06137v48.16588z" fill="#000000"/><path d="M190.42712,123.01749v-65.18785h2.14351v65.18785z" fill="#d4ecfe"/><g data-paper-data="{&quot;index&quot;:null}"><path d="M211.32486,93.04818c-2.58481,2.21543 -5.2615,3.92981 -6.45896,4.16065c-3.11828,0.60114 -6.14987,-0.88171 -6.76633,-1.8089c-0.9377,-1.41036 -3.4588,-3.33456 -4.50069,-5.36582c-1.47935,-2.88413 -1.38174,-5.86702 -1.62403,-6.89405c-1.22009,-5.17171 2.59465,-13.07446 1.64073,-14.8299c-0.1727,-0.3178 5.38838,-4.1516 6.23825,-7.25291c2.68899,-9.81239 9.48196,-19.34305 9.48196,-19.34305l7.84542,-2.76247c0,0 3.08962,-1.20909 4.70973,-1.55379c1.81909,-0.38704 5.67717,-0.65619 5.67717,-0.65619c0,0 0.09877,5.66017 -0.61624,13.12053c-0.37062,3.86696 -1.29701,8.21758 -1.85588,12.51431c-0.54466,4.18744 -1.51344,8.5733 -3.00183,12.74926c-1.34657,3.77805 -3.22303,7.46795 -3.69416,9.16256c-0.67183,2.41652 -3.83424,5.98198 -7.07515,8.75976z" fill="#031718"/><path d="M199.19491,87.58934c-3.01617,-2.2618 -5.64545,-6.68269 -6.26766,-9.32011c-1.22009,-5.17171 -1.3238,-13.76596 -2.27773,-15.52139c-0.1727,-0.3178 5.38838,-4.1516 6.23825,-7.25291c2.68899,-9.81239 9.48196,-19.34305 9.48196,-19.34305l7.84542,-2.76247c0,0 3.08963,-1.20909 4.70973,-1.55379c1.81909,-0.38704 5.67717,-0.65619 5.67717,-0.65619c0,0 -0.83503,13.04859 -2.47212,25.63484c-1.03742,7.97588 -5.70411,18.34411 -6.696,21.91182c-1.20766,4.34382 -4.1578,7.84997 -7.04549,9.3627c-2.14899,1.12576 -4.57193,0.78756 -4.57193,0.78756c0,0 -3.0299,-0.0934 -4.62161,-1.28701z" fill="#2c4c45"/><path d="M199.34614,76.06158c-2.56192,-2.68873 -4.77938,-8.26182 -6.47651,-11.38491c-0.1727,-0.3178 0.45041,17.97633 0.06013,23.5493c-0.06192,0.8842 -2.1126,0.12357 -2.13788,0.12114c-0.4115,-0.03957 0.02779,-24.51149 -0.02933,-25.17633c-0.16883,-1.96491 -0.2262,-8.17765 0.62367,-11.27897c2.68899,-9.81239 9.48196,-19.34305 9.48196,-19.34305l7.84542,-2.76247l10.3869,-2.20998c0,0 -0.0283,13.39434 -1.66538,25.98059c-1.03742,7.97588 -3.51439,15.69338 -4.50627,19.2611c-2.10638,7.57645 -8.9667,6.6928 -8.9667,6.6928c0,0 -2.51463,-1.24382 -4.61602,-3.44923z" fill="#789396"/><path d="M205.50915,72.54938c-8.13372,0.68761 -8.72941,-20.2213 -8.72941,-20.2213l0.33149,-19.22681l15.46985,-1.32599l-0.663,20.7738c0,0 -0.02286,19.46043 -6.40893,20.00031z" fill="#a7bccd"/></g><g><path d="M165.12426,84.24494c-0.47113,-1.69461 -2.3476,-5.38451 -3.69417,-9.16256c-1.48839,-4.17595 -2.45718,-8.56181 -3.00183,-12.74926c-0.55887,-4.29674 -1.48527,-8.64735 -1.85588,-12.51431c-0.71502,-7.46036 -0.61624,-13.12053 -0.61624,-13.12053c0,0 3.85808,0.26915 5.67717,0.65619c1.6201,0.3447 4.70973,1.55379 4.70973,1.55379l7.84542,2.76247c0,0 6.79298,9.53066 9.48196,19.34305c0.84989,3.10131 6.41095,6.93511 6.23825,7.25291c-0.95393,1.75544 2.86082,9.65819 1.64073,14.8299c-0.24229,1.02702 -0.14468,4.00991 -1.62403,6.89405c-1.04189,2.03126 -3.56299,3.95545 -4.50069,5.36582c-0.61646,0.92719 -3.64805,2.41004 -6.76632,1.8089c-1.19746,-0.23084 -3.87414,-1.94523 -6.45896,-4.16065c-3.24092,-2.77778 -6.40332,-6.34324 -7.07515,-8.75976z" fill="#031718"/><path d="M179.70776,88.83288c0,0 -2.42294,0.33819 -4.57193,-0.78756c-2.88769,-1.51273 -5.83784,-5.01887 -7.04549,-9.3627c-0.99188,-3.56771 -5.65858,-13.93594 -6.696,-21.91182c-1.63709,-12.58625 -2.47212,-25.63484 -2.47212,-25.63484c0,0 3.85808,0.26915 5.67717,0.65619c1.6201,0.3447 4.70973,1.55379 4.70973,1.55379l7.84542,2.76247c0,0 6.79297,9.53066 9.48196,19.34305c0.84989,3.10131 6.41096,6.93511 6.23826,7.25291c-0.95393,1.75544 -1.05763,10.34968 -2.27773,15.52139c-0.62222,2.63742 -3.25149,7.05831 -6.26766,9.32011c-1.59171,1.19361 -4.62161,1.28701 -4.62161,1.28701z" fill="#2c4c45"/><path d="M179.56212,79.46734c0,0 -6.86032,0.88365 -8.9667,-6.6928c-0.99188,-3.56771 -3.46885,-11.28522 -4.50627,-19.2611c-1.63709,-12.58625 -1.66538,-25.98059 -1.66538,-25.98059l10.3869,2.20998l7.84542,2.76247c0,0 6.79297,9.53066 9.48196,19.34305c0.84989,3.10131 0.7925,9.31405 0.62367,11.27897c-0.05713,0.66485 0.38217,25.13676 -0.02933,25.17634c-0.02529,0.00243 -2.07596,0.76305 -2.13788,-0.12114c-0.39027,-5.57297 0.23282,-23.8671 0.06013,-23.5493c-1.69713,3.12308 -3.91459,8.69618 -6.47651,11.38491c-2.10139,2.20541 -4.61602,3.44923 -4.61602,3.44923z" fill="#789396"/><path d="M171.6062,52.5056l-0.66299,-20.7738l15.46984,1.32599l0.3315,19.22681c0,0 -0.59569,20.90892 -8.72941,20.22131c-6.38609,-0.53987 -6.40893,-20.00031 -6.40893,-20.00031z" fill="#a7bccd"/></g><g><path d="M171.78517,25.39374c0,-0.76192 -1.878,-2.83655 -1.75951,-3.56498c1.0696,-6.57527 8.71441,-10.26745 15.59194,-10.26745c7.63944,0 13.83243,3.84505 13.83243,11.48449c0,0.68656 -0.47252,13.0317 -0.55781,13.2421c-1.86026,4.58913 2.56864,13.06691 -0.98247,16.18864c-0.95304,0.83781 -5.03856,1.9026 -7.69954,1.48019c-0.79967,-0.12695 -4.71426,-0.3703 -7.18411,-2.13209c-4.67424,-3.3342 -8.91776,-9.73491 -10.40949,-14.41256c-1.5095,-4.73338 -0.83143,-8.97523 -0.83143,-12.01834z" fill="#031718"/><path d="M183.90629,26.48973c0,-7.63944 6.19299,-13.83243 13.83243,-13.83243c7.63944,0 13.83243,3.84505 13.83243,11.48449c0,0.68656 -0.47252,13.0317 -0.55781,13.2421c-2.79351,6.89136 -10.05118,15.64564 -14.0913,15.69882c-4.59593,0.0605 -9.90437,-7.42533 -12.18432,-14.57463c-1.5095,-4.73338 -0.83143,-8.97523 -0.83143,-12.01834z" fill="#142d2b"/></g></g><g stroke="none" stroke-width="0" stroke-linecap="butt"><path d="M20.03845,126.06993v-74.86312h35.59068v74.86312z" fill="#000000"/><path d="M71.79077,126.17616c0,0 -17.01934,-0.01303 -20.60788,-0.01303c-2.6182,0 -12.46561,-16.79028 -19.4963,-33.412c-7.00185,-16.55351 -11.32676,-33.20738 -11.32676,-33.20738c0,0 -0.52304,-9.96004 0.72027,-9.77471c4.1477,0.61826 15.90914,17.90178 27.2999,17.90178c11.39786,0 23.2971,47.73114 23.2971,47.73114z" fill="#2c4c45"/><path d="M71.40395,58.47911c0,0.60956 0.38023,57.431 0.25375,57.431c-3.63328,0 -22.26711,-15.25721 -31.65043,-26.95133c-13.65927,-17.02307 -19.01402,-32.74271 -19.01402,-34.70876c0,-3.31664 22.4576,13.78683 31.37982,13.78683c8.92223,0 19.0309,-12.87438 19.0309,-9.55774z" fill="#142d2b"/><path d="M71.32457,47.99029c0,0 0.03402,13.49596 -0.0856,13.67092c-2.9779,4.35526 -10.36566,6.4548 -21.99186,6.4548c-7.46291,0 -15.16775,-2.71688 -20.35385,-6.22446c-5.60333,-3.78978 -8.3996,-8.4093 -8.5082,-8.90809c-1.67216,-7.68083 12.22048,-5.76854 27.74668,-5.76854c15.5262,0 23.19285,0.77539 23.19285,0.77539z" fill="#031718"/><path d="M8.09342,126.11981v-79.50157h9.33026v79.50158z" fill="#000000"/><g><path d="M2.27074,38.21454c0,0 4.96703,-4.23816 7.38997,-5.86087c2.77029,-1.85534 8.76242,-4.95547 8.76242,-4.95547l1.87483,23.94014c0,0 -2.48979,0.51263 -5.15358,-0.15256c-2.41625,-0.60339 -4.9501,-2.32921 -6.37698,-3.41692c-1.04971,-0.80019 -2.72321,-2.34033 -3.6907,-3.96894c-1.66672,-2.80563 -2.80595,-5.58539 -2.80595,-5.58539z" fill="#a7bccd"/><path d="M7.16243,46.43758c0,0 -1.43783,-1.26229 -1.94427,-1.8983c-0.51166,-0.64255 -1.11019,-1.93753 -1.11019,-1.93753l14.61531,-12.1776l0.31433,4.98958z" fill="#d4ecfe"/></g><path d="M77.11138,38.08841c0,8.20253 -20.12887,24.04607 -32.09088,24.04607c-11.96201,0 -28.82648,-9.39657 -28.82648,-17.5991c0,-2.34738 -0.51388,-12.82608 1.16902,-14.86165c4.19771,-5.07737 13.99126,-0.7794 22.53,-0.7794c6.43114,0 11.22387,-4.31044 19.34959,-2.77072c2.99077,0.56671 17.86877,9.79534 17.86877,11.9648z" fill="#2c4c45"/><path d="M60.00569,26.98865c0,5.06681 -2.41525,12.48229 -6.58026,17.11048c-3.96944,4.41087 -10.95508,7.27098 -16.13357,7.27098c-5.83479,0 -13.39642,-2.6475 -16.83215,-7.84395c-2.81307,-4.25466 -2.26677,-10.25147 -2.26677,-14.70628c0,-2.34008 1.77662,-5.63055 2.82167,-7.74113c3.37425,-6.81461 10.28262,-10.89511 18.38524,-10.89511c10.61213,0 20.60586,6.90934 20.60586,16.80503z" fill="#142d2b"/><path d="M58.75667,28.0811c0,9.89569 -8.60283,17.91775 -19.21496,17.91775c-10.61213,0 -19.21496,-8.02205 -19.21496,-17.91774c0,-9.89569 8.60283,-17.91774 19.21496,-17.91774c10.61213,0 19.21496,8.02206 19.21496,17.91775z" fill="#000000"/></g><g><path d="M139.33308,104.80544v-38.18887h7.85292v38.18887z" fill="#ffffff" stroke="#000000" stroke-width="3.5" stroke-linecap="butt"/><path d="M87.12106,103.69121v-38.18888h7.85292v38.18888z" fill="#ffffff" stroke="#000000" stroke-width="3.5" stroke-linecap="butt"/><g><path d="M135.97856,116.61523c0,-4.82932 3.91494,-8.74426 8.74426,-8.74426c2.19219,0 2.21136,-3.11786 3.74606,-1.78514c1.8462,1.60323 4.9982,7.89226 4.9982,10.5294c0,0.92656 -17.48852,1.42194 -17.48852,0z" data-paper-data="{&quot;index&quot;:null}" fill="#d3ebfe" stroke="none" stroke-width="0" stroke-linecap="butt"/><path d="M149.01274,112.99067c-2.25347,3.1113 -22.41171,12.02823 -20.32891,2.62648c1.13376,-5.11777 5.7078,-9.44373 5.7078,-10.86566c0,-4.82932 3.91494,-8.74426 8.74426,-8.74426c2.19219,0 2.21135,-3.11787 3.74606,-1.78514c1.8462,1.60323 4.9982,7.89226 4.9982,10.5294c0,0.92656 -0.05308,4.35351 -2.86741,8.23919z" data-paper-data="{&quot;index&quot;:null}" fill="#bdd2e4" stroke="none" stroke-width="0" stroke-linecap="butt"/><path d="M148.31267,97.87511c-2.25347,3.1113 -5.71563,5.34777 -8.75499,8.59131c-2.34838,2.50615 -4.4052,6.12252 -5.70183,8.02586c-5.85306,8.59169 -4.65452,9.40522 -4.97846,9.13595c-1.98608,-1.65087 -2.97641,-13.72488 -0.89361,-23.12663c1.13376,-5.11777 5.70779,-9.44372 5.70779,-10.86566c0,-4.82932 3.91494,-8.74426 8.74426,-8.74426c2.19219,0 2.21136,-3.11786 3.74606,-1.78513c1.8462,1.60323 4.9982,7.89226 4.9982,10.5294c0,0.92656 -0.05308,4.35351 -2.86741,8.23918z" data-paper-data="{&quot;index&quot;:null}" fill="#8ea6b2" stroke="none" stroke-width="0" stroke-linecap="butt"/><path d="M148.64727,81.13365c-2.25347,3.1113 -5.71563,5.34777 -8.75499,8.59131c-2.34838,2.50615 -4.4052,6.12252 -5.70183,8.02586c-5.85306,8.59169 -4.65452,9.40522 -4.97846,9.13595c-1.98608,-1.65087 -2.97641,-13.72488 -0.89361,-23.12663c1.13376,-5.11777 5.70779,-9.44373 5.70779,-10.86566c0,-4.82932 3.91494,-8.74426 8.74426,-8.74426c2.19219,0 2.21136,-3.11786 3.74606,-1.78513c1.8462,1.60323 4.9982,7.89226 4.9982,10.5294c0,0.92656 -0.05308,4.35351 -2.86741,8.23918z" data-paper-data="{&quot;index&quot;:null}" fill="#5f7e7b" stroke="none" stroke-width="0" stroke-linecap="butt"/><path d="M147.94721,63.65315c-2.25347,3.1113 -5.71563,5.34777 -8.75499,8.59131c-2.34838,2.50615 -4.4052,6.12252 -5.70183,8.02586c-5.85306,8.59169 -4.65452,9.40522 -4.97846,9.13595c-1.98608,-1.65087 -2.97642,-13.72488 -0.89362,-23.12664c1.13376,-5.11777 5.7078,-9.44372 5.7078,-10.86566c0,-4.82932 3.91494,-8.74426 8.74426,-8.74426c2.19219,0 5.16754,-3.85692 6.70225,-2.52419c1.8462,1.60323 2.04201,8.63131 2.04201,11.26844c0,0.92656 -0.05308,4.35351 -2.86741,8.23918z" data-paper-data="{&quot;index&quot;:null}" fill="#304d47" stroke="none" stroke-width="0" stroke-linecap="butt"/><path d="M135.18541,56.18258c-2.12432,2.56618 -6.84974,11.43541 -6.13362,22.04567c1.32617,19.64874 10.09644,44.8008 9.50735,43.65562c-1.24567,-2.42154 -20.6085,4.04444 -21.80986,-0.59046c-6.80333,-26.24755 -1.36986,-88.44131 -1.36986,-88.44131l20.39282,-20.7776h4.04009c0,0 9.4625,5.40708 11.90637,10.9754c2.61118,5.94952 3.29205,23.65393 3.29205,23.65393c0,0 -13.2372,1.52024 -19.82536,9.47874z" data-paper-data="{&quot;index&quot;:null}" fill="#0a1d1e" stroke="none" stroke-width="0" stroke-linecap="butt"/><path d="M79.99609,117.29551c0,-2.63714 3.152,-8.92616 4.9982,-10.5294c1.53471,-1.33273 1.55387,1.78514 3.74606,1.78514c4.82932,0 8.74426,3.91494 8.74426,8.74426c0,1.42194 -17.48852,0.92655 -17.48852,-0.00001z" fill="#d3ebfe" stroke="none" stroke-width="0" stroke-linecap="butt"/><path d="M81.58301,105.43177c0,-2.63714 3.152,-8.92616 4.9982,-10.5294c1.53471,-1.33273 1.55387,1.78514 3.74606,1.78514c4.82932,0 8.74426,3.91494 8.74426,8.74426c0,1.42194 4.57404,5.74789 5.7078,10.86566c2.08281,9.40174 -9.22554,8.47097 -11.57392,5.96483c-3.03936,-3.24354 -6.50152,-5.48 -8.75499,-8.59131c-2.81434,-3.88567 -2.86741,-7.31262 -2.86741,-8.23918z" fill="#bdd2e4" stroke="none" stroke-width="0" stroke-linecap="butt"/><path d="M82.28308,90.31622c0,-2.63714 3.152,-8.92616 4.9982,-10.5294c1.53471,-1.33273 1.55387,1.78514 3.74606,1.78514c4.82932,0 8.74426,3.91494 8.74426,8.74426c0,1.42194 4.57404,5.74789 5.7078,10.86566c2.08281,9.40174 1.09247,21.47575 -0.89361,23.12663c-0.32395,0.26927 0.8746,-0.54425 -4.97846,-9.13595c-1.29663,-1.90334 -3.35346,-5.51971 -5.70184,-8.02586c-3.03936,-3.24354 -6.50152,-5.48 -8.75499,-8.59131c-2.81434,-3.88567 -2.86741,-7.31262 -2.86741,-8.23918z" fill="#8ea6b2" stroke="none" stroke-width="0" stroke-linecap="butt"/><path d="M81.94848,73.57476c0,-2.63714 3.15199,-8.92616 4.9982,-10.5294c1.53471,-1.33273 1.55387,1.78514 3.74606,1.78514c4.82932,0 8.74426,3.91494 8.74426,8.74426c0,1.42194 4.57404,5.7479 5.70779,10.86566c2.08281,9.40174 1.09247,21.47576 -0.89361,23.12663c-0.32395,0.26927 0.8746,-0.54426 -4.97846,-9.13595c-1.29663,-1.90334 -3.35346,-5.51971 -5.70184,-8.02586c-3.03936,-3.24354 -6.50152,-5.48 -8.75499,-8.59131c-2.81434,-3.88567 -2.86741,-7.31262 -2.86741,-8.23918z" fill="#5f7e7b" stroke="none" stroke-width="0" stroke-linecap="butt"/><path d="M82.64855,56.09426c0,-2.63714 0.19581,-9.66521 2.042,-11.26844c1.53471,-1.33273 4.51006,2.52419 6.70225,2.52419c4.82932,0 8.74426,3.91494 8.74426,8.74426c0,1.42194 4.57404,5.74789 5.70779,10.86566c2.08281,9.40174 1.09247,21.47576 -0.89361,23.12663c-0.32395,0.26927 0.87459,-0.54425 -4.97846,-9.13595c-1.29663,-1.90334 -3.35346,-5.51971 -5.70184,-8.02586c-3.03936,-3.24354 -6.50152,-5.48 -8.75499,-8.59131c-2.81434,-3.88567 -2.86741,-7.31262 -2.86741,-8.23918z" fill="#304d47" stroke="none" stroke-width="0" stroke-linecap="butt"/><path d="M78.4524,47.38413c0,0 0.68087,-17.70441 3.29205,-23.65394c2.44388,-5.56832 11.90637,-10.9754 11.90637,-10.9754h4.04009l20.39282,20.7776c0,0 5.43347,62.19375 -1.36986,88.4413c-1.20135,4.6349 -20.56419,-1.83108 -21.80986,0.59046c-0.58909,1.14518 8.18118,-24.00688 9.50734,-43.65562c0.71613,-10.61026 -4.0093,-19.47949 -6.13362,-22.04567c-6.58816,-7.9585 -19.82536,-9.47874 -19.82536,-9.47874z" fill="#0a1d1e" stroke="none" stroke-width="0" stroke-linecap="butt"/><path d="M99.19848,122.16748c0,0 8.15605,-20.35288 7.63491,-32.93849c-0.26431,-6.38313 0.75271,-17.20819 -1.07459,-27.56963c-1.78569,-10.12546 -7.68108,-21.00826 -9.96021,-28.59997c-2.16467,-7.21045 -0.76155,-11.39094 -0.76155,-11.39094c0,0 2.64437,-0.75922 3.58449,1.61106c0.52796,1.33114 2.52327,5.53559 5.04272,8.24116c2.64121,2.83632 5.83783,4.25195 7.60762,9.06113c1.24625,3.38652 9.59041,7.49555 10.86081,11.37583c0.38478,1.17526 -2.71231,-5.85327 0.89619,-14.06033c1.85207,-4.21228 10.37491,-9.80783 11.82882,-12.52994c3.48243,-6.52008 3.47711,-0.73689 4.39855,-1.90248c0.6508,-0.82324 0.59638,3.94137 -1.5806,10.94053c-3.58639,11.5305 -10.43691,28.76884 -10.95131,34.44553c-0.96443,10.64308 1.23281,23.50019 1.82285,28.27226c1.37306,11.1049 5.60751,23.17162 5.60751,23.17162v1.87265z" fill="#000000" stroke="none" stroke-width="0" stroke-linecap="butt"/><path d="M104.86507,49.75132l-3.401,-9.37917l31.11552,0.18923l-3.18391,9.33466z" fill="#d3ebfe" stroke="none" stroke-width="0" stroke-linecap="butt"/><path d="M100.2535,20.95966l3.61993,1.6672c0,0 2.49528,3.88989 6.01388,6.8697c3.01727,2.55524 7.26564,4.25926 7.10243,4.32797c-0.18971,0.07988 11.86086,2.81224 8.34247,2.92707c-0.95707,0.03123 -16.28145,0.30106 -17.4158,-0.24902c-1.48063,-0.718 -9.81829,-10.26698 -9.02265,-11.95607c0.46968,-0.99708 1.35973,-3.58687 1.35973,-3.58687z" fill="#779295" stroke="none" stroke-width="0" stroke-linecap="butt"/><path d="M135.27692,24.617c0.79565,1.68908 -7.54202,11.23807 -9.02265,11.95607c-1.13434,0.55007 -16.45872,0.28024 -17.41579,0.24901c-3.5184,-0.11483 8.53218,-2.84719 8.34246,-2.92706c-0.16598,-0.06988 4.26747,-2.93692 7.55874,-5.59431c3.71877,-3.00255 6.35989,-5.8326 6.35989,-5.8326l2.81762,-1.43798c0,0 0.89005,2.58979 1.35973,3.58687z" data-paper-data="{&quot;index&quot;:null}" fill="#779295" stroke="none" stroke-width="0" stroke-linecap="butt"/><path d="M101.35542,40.47738c0,0 2.88683,-2.16035 4.14036,-2.86173c0.94093,-0.52648 2.71571,-0.9744 2.71571,-0.9744l17.71152,0.32648c0,0 2.49298,0.82363 3.58727,1.40455c1.10924,0.58885 3.35042,2.1051 3.35042,2.1051z" fill="#8ea6b2" stroke="none" stroke-width="0" stroke-linecap="butt"/><path d="M126.73324,44.77972h-19.7151" fill="none" stroke="#000000" stroke-width="5" stroke-linecap="round"/><path d="M117.00997,44.73853h-10.01336" fill="none" stroke="#ffa200" stroke-width="5" stroke-linecap="round"/><path d="M112.45796,44.89904h-5.58069" fill="none" stroke="#dd6000" stroke-width="5" stroke-linecap="round"/></g></g><g stroke="none" stroke-width="0" stroke-linecap="butt"><path d="M289.7034,80.1396c-0.00306,0.07368 0.02168,19.90635 -0.35563,20.10682c-0.26999,0.14345 -5.88336,5.63838 -6.10498,5.46768c-1.26514,-0.97439 0.58601,18.34121 -0.72213,16.1537c-0.19422,-0.32478 -6.05319,0.81804 -6.29979,-0.04766c-0.66927,-2.34961 0.47883,-24.96779 -0.13455,-28.05389c-3.48668,-17.54244 -7.87599,-17.67874 -7.87599,-17.67874v-19.20385c0,0 15.47553,-4.48557 19.45057,-4.48557c1.57952,0 4.82815,4.48557 4.82815,4.48557v19.20385c0,0 -2.7755,3.80761 -2.78565,4.05208z" data-paper-data="{&quot;index&quot;:null}" fill="#000000"/><path d="M231.18668,76.31323v-19.20385c0,0 3.24863,-4.48557 4.82815,-4.48557c3.97504,0 19.45057,4.48557 19.45057,4.48557v19.20385c0,0 -4.38931,0.1363 -7.87599,17.67874c-0.61338,3.08609 0.53472,25.70429 -0.13455,28.05389c-0.24659,0.8657 -6.10556,-0.27712 -6.29979,0.04766c-1.30814,2.1875 0.54301,-17.1281 -0.72213,-16.1537c-0.22162,0.1707 -5.835,-5.32423 -6.10498,-5.46768c-0.37731,-0.20048 -0.35257,-20.03314 -0.35563,-20.10682c-0.01015,-0.24447 -2.78565,-4.05208 -2.78565,-4.05208z" fill="#000000"/><path d="M270.55543,58.8461v-11.63445c0,0 7.96085,-0.72111 12.02263,-2.32756c1.97166,-0.7798 11.01456,-6.78376 11.01456,-6.78376l-6.62147,19.90473z" data-paper-data="{&quot;index&quot;:null}" fill="#000000"/><path d="M236.84251,58.23076l-6.62147,-19.90472c0,0 9.0429,6.00396 11.01456,6.78376c4.06178,1.60645 12.02263,2.32756 12.02263,2.32756v11.63445z" fill="#000000"/><path d="M261.67302,57.11379c0,0 -1.35687,14.79496 -2.82286,26.88373c-0.53765,4.43356 -0.33651,18.34889 -1.04484,17.06807c-4.29467,-7.76576 -10.7762,-18.88303 -13.74304,-22.96501c-0.68241,-0.9389 4.74465,-2.94447 4.16698,-3.73926c-4.95705,-6.82025 -15.39158,-21.17682 -15.39158,-21.17682l28.69738,-29.16064l28.69738,29.16064c0,0 -10.17261,14.83228 -15.05455,21.61409c-0.77706,1.07947 4.80916,2.02582 3.85399,3.31977c-2.93645,3.97795 -9.58837,15.3049 -13.58125,23.10662c-0.70627,1.38 -0.42438,-15.45915 -1.03932,-20.56107c-1.5067,-12.50057 -2.7383,-23.55012 -2.7383,-23.55012z" fill="#304d47"/><path d="M261.87805,73.73321l-33.14993,-43.32004l33.43439,-30.21647l32.58101,29.63837z" fill="#0a1d1e"/><path d="M258.50025,92.99394c0,0 -0.04449,-12.18733 -2.55023,-16.95169c-0.96949,-1.84338 -1.91231,-5.61357 -2.54959,-8.46549c-1.19189,-5.33386 -1.65959,-9.9067 -1.65959,-9.9067c0,0 2.6014,-15.83967 4.9661,-15.83967c1.99061,0 7.27297,-3.18163 10.95116,0.78195c0.85825,0.92484 2.48555,4.24908 2.98121,6.87389c0.8862,4.69285 0.69003,10.28645 0.69003,10.28645c0,0 -0.3286,4.71775 -2.35862,11.24657c-1.26409,4.06548 -2.3011,8.10373 -2.78578,10.04952c-1.50072,6.02476 -1.20118,10.38326 -1.20118,10.38326z" fill="#dd6000"/></g><g stroke-linecap="butt"><path d="M373.60189,12.37577c4.04641,3.63064 9.06082,9.79573 12.22408,17.59987c4.37752,10.79988 1.36737,26.80781 1.56157,34.15843c0.28353,10.7321 -16.14337,5.34127 -16.14337,5.34127c0,0 4.28778,51.9036 -0.66798,51.77134c-7.34046,-0.1959 -44.17369,-1.74939 -50.62905,-0.57863c-4.2311,0.76736 -2.2046,-50.55055 -2.2046,-50.55055c0,0 -11.21032,0.25871 -14.65101,-2.00079c-3.63743,-2.3887 -0.98131,-28.67638 -0.98131,-30.43063c0,-8.01132 15.28984,-29.11445 22.22162,-29.11445c1.23929,0 42.25494,-0.45671 44.80506,1.20853c3.68375,2.40553 -29.88684,30.60267 -24.57852,29.99283c5.26483,-0.60484 10.8374,-24.5384 15.34768,-26.92127c1.98597,-1.04923 3.85488,-4.13142 5.79567,-4.38766c3.3386,-0.4408 6.4868,2.64356 7.90017,3.9117z" fill="#000000" stroke="#000000" stroke-width="2"/><path d="M343.11781,122.04301v-26.07469h30.82794l0.23368,26.07469z" fill="#294640" stroke="none" stroke-width="0"/><path d="M313.4531,122.25769v-26.07469h30.82795v26.07469z" fill="#031517" stroke="none" stroke-width="0"/><path d="M382.00367,101.88201c-5.22321,6.3915 -33.82888,17.7726 -35.42012,19.5626c-0.9566,1.07609 -3.22824,-0.24827 -3.22824,-0.24827c0,0 4.73887,-7.98097 11.80938,-18.61329c7.1887,-10.81002 30.97413,-31.02329 30.97413,-31.02329l3.00508,-3.18779v16.01561c0,0 0.22051,8.48729 -7.14023,17.49442z" data-paper-data="{&quot;index&quot;:null}" fill="#456761" stroke="none" stroke-width="0"/><path d="M298.08809,84.33944v-16.01561l3.00507,3.18779c0,0 23.78543,20.21327 30.97413,31.02329c7.07052,10.63232 11.80938,18.61329 11.80938,18.61329c0,0 -2.27165,1.32436 -3.22824,0.24827c-1.59123,-1.78999 -30.19692,-13.17109 -35.42012,-19.56259c-7.36073,-9.00714 -7.14021,-17.49442 -7.14021,-17.49442z" fill="#2c4c45" stroke="none" stroke-width="0"/><path d="M296.40493,68.32541c0,0 -1.38052,-7.8816 -0.22899,-15.01966c1.68299,-10.43242 6.10457,-21.94658 6.10457,-26.99072c0,-3.89445 7.05069,-8.81337 7.05069,-8.81337l28.79034,4.99425c0,0 44.15991,-6.32142 45.9696,-3.04604c1.08378,1.96155 4.36188,14.41122 6.08697,26.41339c1.50631,10.47999 1.5494,20.82818 1.5494,20.82818l-28.49896,33.41709l-19.66742,21.23609l-18.95342,-20.99728z" fill="#000000" stroke="none" stroke-width="0"/><path d="M343.22983,63.09925c0,0 42.33763,-31.28824 40.43831,-35.47449c-1.71104,-3.77126 -7.3234,-7.8638 -7.3234,-7.8638l2.88921,-5.1117c0,0 8.67001,4.69718 10.6663,8.09346c0.6194,1.05378 2.5661,5.20866 2.04161,10.33442c-0.47889,4.68006 -3.20275,10.13253 -7.14872,15.51877c-5.60689,7.65337 -12.17463,16.68465 -19.56966,23.38344c-10.75422,9.74171 -21.77138,15.78939 -21.77138,15.78939z" data-paper-data="{&quot;index&quot;:null}" fill="#456761" stroke="none" stroke-width="0"/><path d="M343.66013,87.40381c0,0 -11.01717,-6.04768 -21.77138,-15.78939c-7.39503,-6.69877 -13.96277,-15.73006 -19.56967,-23.38344c-3.94597,-5.38623 -6.66984,-10.83871 -7.14872,-15.51877c-0.52449,-5.12576 1.42221,-9.28064 2.04161,-10.33442c1.9963,-3.3963 10.66629,-8.09346 10.66629,-8.09346l2.88923,5.1117c0,0 -5.61238,4.09255 -7.32342,7.8638c-1.89931,4.18624 40.43831,35.47449 40.43831,35.47449z" fill="#2c4c45" stroke="none" stroke-width="0"/><g stroke="none" stroke-width="0"><path d="M343.45185,102.81866v-16.72382l9.63745,-5.24391z" fill="#d4ecfe"/><path d="M333.97576,80.65847l9.63745,5.24391v16.72381z" data-paper-data="{&quot;index&quot;:null}" fill="#6d878a"/></g></g><path d="M453.80783,73.27951c0,1.27165 -3.71409,3.1398 -10.36133,3.1398c-6.64724,0 -10.25668,-2.91475 -10.25668,-4.1864c0,-1.27165 3.71409,-1.46524 10.36134,-1.46524c6.64724,0 10.25668,1.24019 10.25668,2.51184z" fill="#000000" stroke="#000000" stroke-width="2.5" stroke-linecap="butt"/><g stroke-linecap="butt"><path d="M398.85967,122.1385v-79.39456h61.78202v79.39456z" fill="#000000" stroke="none" stroke-width="0"/><path d="M443.2199,16.83836c0,7.78619 -6.03884,14.09813 -13.48812,14.09813c-7.44928,0 -13.48812,-6.31195 -13.48812,-14.09813c0,-7.78618 6.03884,-14.09813 13.48812,-14.09813c7.44928,0 13.48812,6.31195 13.48812,14.09814z" fill="#ffffff" stroke="#000000" stroke-width="2"/><path d="M439.26405,11.66172c0,1.43995 -6.07953,6.6113 -9.48191,6.6113c-3.40238,0 -9.16048,-5.54381 -9.16048,-6.98376c0,-1.43995 5.97238,1.48987 9.37477,1.48987c3.40238,0 9.26762,-2.55736 9.26762,-1.1174z" fill="#ffffff" stroke="#000000" stroke-width="2.5"/><path d="M446.30583,55.32616l15.87754,-17.84684l2.06919,1.84088l-15.87754,17.84685z" data-paper-data="{&quot;index&quot;:null}" fill="#8fa7b3" stroke="#8fa7b3" stroke-width="2.5"/><path d="M410.9094,57.10637l-15.87754,-17.84684l2.06919,-1.84088l15.87754,17.84685z" fill="#8fa7b3" stroke="#8fa7b3" stroke-width="2.5"/><path d="M402.02225,39.1687l-0.35906,-0.71793c0,0 10.74102,-27.68862 27.98343,-27.64024c17.57253,0.04931 25.79441,27.64024 25.79441,27.64024l-1.25671,0.89746c0,0 -2.5821,8.3078 -6.67886,15.79013c-5.39906,9.86083 -17.51489,38.23406 -17.51489,38.23406c0,0 -11.59699,-27.18743 -17.27869,-37.14012c-3.97975,-6.97137 -10.68963,-17.0636 -10.68963,-17.0636z" fill="#5f7f7c" stroke="none" stroke-width="0"/><path d="M393.39813,34.33986v-0.54309c0,0 15.69621,-21.08109 36.11506,-21.04449c20.80979,0.0373 35.4362,21.04449 35.4362,21.04449v0.54309l-35.02889,40.86704z" fill="#2c4c45" stroke="none" stroke-width="0"/><path d="M393.61205,22.95777v-0.54309c0,0 15.69621,-21.08109 36.11506,-21.04449c20.80979,0.0373 35.4362,21.04449 35.4362,21.04449v0.54309l-35.02889,40.86703z" fill="#031718" stroke="none" stroke-width="0"/><path d="M429.9665,98.95647l-18.83751,-41.87882l1.27945,-0.8959l17.47018,37.22756l17.59358,-37.18498l0.9576,1.18591z" fill="#d6eeff" stroke="#d6eeff" stroke-width="3.5"/></g><g stroke="none" stroke-width="0" stroke-linecap="butt"><path d="M24.62816,237.15145l0.51405,-23.95942c0,0 4.05067,-20.90614 5.93289,-32.91453c1.03795,-6.62199 8.37338,-10.80316 8.37338,-14.74998c0,-0.99115 -2.34865,-2.36156 -4.40909,-4.24223c-4.51485,-4.12096 -11.53891,-10.05804 -13.27909,-13.52346c-1.47627,-2.93986 -0.29985,-12.84222 -0.29985,-12.84222c0,0 14.16613,-7.47673 21.03911,-7.42031c6.90929,0.05671 20.30828,7.75971 20.30828,7.75971c0,0 0.72738,11.28153 -0.61582,13.79476c-1.74162,3.25874 -7.09832,7.89109 -11.5631,11.44773c-2.60826,2.07773 -5.58284,3.19218 -5.58284,5.02602c0,4.31889 7.72009,8.27084 8.8214,15.16189c1.839,11.50697 5.49655,33.45117 5.49655,33.45117l0.27611,23.01088z" fill="#000000"/><path d="M61.83527,237.10121v-28.72427h8.7419v28.72427z" fill="#000000"/><path d="M13.48435,237.2677v-28.72427h8.63948v28.72427z" fill="#000000"/><path d="M37.3899,183.99626l4.70073,-4.70072l4.70072,4.70072l-4.70072,4.70072z" fill="#90a6b7"/><path d="M52.1735,216.49573c-2.30699,0.59277 -7.01666,1.13064 -7.01666,1.13064l-0.09928,-14.29717l14.39646,0.09928v10.52431c0,0 -4.8304,1.91339 -7.28051,2.54294z" data-paper-data="{&quot;index&quot;:null}" fill="#132d2a"/><path d="M24.63619,214.08362v-10.52431l14.39645,-0.09928l-0.09928,14.29717c0,0 -4.70967,-0.53787 -7.01666,-1.13064c-2.45012,-0.62955 -7.28051,-2.54294 -7.28051,-2.54294z" fill="#132d2a"/><path d="M66.60066,211.26852c-1.43895,0.7864 -4.6645,2.08856 -4.6645,2.08856l-0.19857,-13.99931h8.73716v9.53145c0,0 -2.46758,1.61063 -3.87409,2.3793z" data-paper-data="{&quot;index&quot;:null}" fill="#132d2a"/><path d="M71.9868,163.42047c-0.57515,1.86118 -1.43395,3.77029 -1.28269,4.08339c0.27593,0.57118 2.34873,0.91541 3.25531,1.79414c1.17337,1.1373 1.99184,3.16493 1.99184,3.16493c0,0 -0.46937,2.87635 -1.38114,5.58524c-0.80709,2.39786 -2.04677,4.64302 -2.35518,4.9606c-0.4307,0.44353 -3.82884,-4.15512 -8.35464,-7.81051c-4.49365,-3.62941 -10.11727,-6.31346 -9.96181,-6.51571c3.75514,-4.88537 11.51429,-10.54721 11.40206,-10.7738c-0.43391,-0.87612 1.2217,-1.44579 1.35822,-1.44087c1.49026,0.05362 3.83418,0.85941 4.99998,1.73888c1.13381,0.85533 1.11029,1.7857 1.11029,1.7857c0,0 -0.24832,1.70022 -0.78225,3.42802z" data-paper-data="{&quot;index&quot;:null}" fill="#031717"/><path d="M11.32351,159.68224c0,0 -0.02353,-0.93037 1.11028,-1.7857c1.16581,-0.87946 3.50973,-1.68527 4.99999,-1.73888c0.13652,-0.00491 1.79214,0.56476 1.35822,1.44087c-0.11222,0.22658 8.24199,6.10757 11.99713,10.99295c0.15546,0.20226 -6.06322,2.66715 -10.55687,6.29657c-4.52581,3.65539 -7.92394,8.25404 -8.35464,7.81051c-0.3084,-0.31759 -1.5481,-2.56275 -2.35518,-4.9606c-0.91177,-2.70888 -1.38114,-5.58524 -1.38114,-5.58524c0,0 0.81848,-2.02762 1.99184,-3.16493c0.90659,-0.87873 2.97938,-1.22296 3.25532,-1.79414c0.15126,-0.31311 -0.70755,-2.22221 -1.2827,-4.08339c-0.53393,-1.7278 -0.78225,-3.42802 -0.78225,-3.42802z" fill="#031717"/><path d="M63.04194,161.46225c-2.02906,2.08951 -17.42461,13.65248 -17.89731,13.85669c-0.59993,0.25917 -0.06258,-5.3725 -0.23757,-5.52078c-0.3756,-0.31827 0.96836,-2.24641 3.36241,-4.59417c2.78601,-2.73214 6.88173,-6.10747 9.59755,-9.33987c3.84014,-4.57058 4.30711,-8.29871 4.11841,-8.67971c-0.43391,-0.87612 3.20742,-0.35364 3.34394,-0.34873c2.9396,0.10576 4.12456,2.43243 4.12456,2.43243l-0.95183,3.91303c0,0 -1.43634,4.13743 -5.46015,8.28111z" data-paper-data="{&quot;index&quot;:null}" fill="#2c4c46"/><path d="M15.5833,153.00323l-0.95182,-3.91303c0,0 1.18495,-2.32667 4.12455,-2.43243c0.13652,-0.00491 3.77785,-0.52739 3.34394,0.34873c-0.1887,0.38099 0.27827,4.10914 4.11841,8.67972c2.71583,3.2324 6.81154,6.60773 9.59755,9.33987c2.39406,2.34777 3.738,4.27591 3.3624,4.59417c-0.175,0.14828 0.36236,5.77996 -0.23757,5.52078c-0.4727,-0.20421 -15.86825,-11.76718 -17.89731,-13.85669c-4.02381,-4.14368 -5.46015,-8.28111 -5.46015,-8.28111z" fill="#2c4c46"/><path d="M36.04143,165.00881c-0.82916,-0.88095 -2.22544,-1.6589 -3.34129,-2.69696c-2.87807,-2.67743 -6.89576,-6.7144 -8.23926,-8.38449c-2.17554,-2.7044 -2.4829,-6.70263 -2.4829,-6.70263c0,0 1.96793,2.51218 3.91392,4.7398c0.87503,1.00167 2.82319,3.22141 4.89459,5.05215c1.15082,1.01712 3.56769,3.05962 5.47757,4.91902c1.66117,1.61726 2.9735,3.14292 2.9735,3.14292l-0.00305,4.01489c0,0 -1.03811,-1.79513 -3.19308,-4.0847z" fill="#bed4e5"/><path d="M44.95103,165.29085c0,0 1.17902,-1.57583 2.84018,-3.19309c1.90988,-1.8594 4.32675,-3.9019 5.47757,-4.91902c2.0714,-1.83074 4.01956,-4.05048 4.89459,-5.05214c1.94599,-2.22761 3.91392,-4.7398 3.91392,-4.7398c0,0 -0.30736,3.99822 -2.4829,6.70263c-1.3435,1.6701 -5.3612,5.70705 -8.23927,8.38449c-0.96055,0.89359 -2.3236,1.62135 -3.07264,2.40373c-2.38257,2.48863 -3.46171,4.4281 -3.46171,4.4281z" data-paper-data="{&quot;index&quot;:null}" fill="#bed4e5"/><path d="M13.51617,209.02004v-9.53145h8.73716l-0.19857,13.99932c0,0 -3.22554,-1.30216 -4.66449,-2.08856c-1.4065,-0.76868 -3.8741,-2.3793 -3.8741,-2.3793z" fill="#132d2a"/><path d="M40.69873,183.84514c0.0065,-1.81478 1.84524,-4.08175 1.84524,-4.08175l4.20264,4.20264l-4.23287,4.23287c0,0 -1.82152,-2.53898 -1.81502,-4.35376z" fill="#d6eeff"/><path d="M69.6639,200.1425c-2.19535,0.97766 -5.13411,1.87659 -7.55513,2.75391c-0.37457,0.13574 -0.01068,-0.88604 -0.46614,-1.25912c-0.31295,-0.25634 -0.93055,-0.03306 -1.17469,0.06662c-0.73028,0.29816 -0.38723,1.85695 -1.07099,2.13155c-2.73879,1.09992 -3.70529,1.44618 -5.37659,1.98935c-3.47293,1.1287 -9.26071,1.39428 -9.26071,1.39428l0.10576,-14.59458l8.14335,-8.59232c0,0 7.74059,1.98914 11.15969,4.088c3.68238,2.26047 10.20339,9.47494 10.20339,9.47494c0,0 -1.82887,1.26524 -4.70792,2.54736z" data-paper-data="{&quot;index&quot;:null}" fill="#2c4c46"/><path d="M9.6016,197.44293c0,0 6.52101,-7.21447 10.20339,-9.47494c3.4191,-2.09885 11.30934,-4.088 11.30934,-4.088l7.99369,8.59232l0.10577,14.59458c0,0 -5.78778,-0.26557 -9.26072,-1.39428c-1.6713,-0.54317 -2.63779,-0.88944 -5.37658,-1.98935c-0.68375,-0.27459 -0.34072,-1.8334 -1.07099,-2.13156c-0.24414,-0.09968 -0.86175,-0.32297 -1.17469,-0.06662c-0.45546,0.37309 -0.09158,1.39486 -0.46614,1.25912c-2.42103,-0.87732 -5.35979,-1.77626 -7.55514,-2.75391c-2.87904,-1.28212 -4.70792,-2.54736 -4.70792,-2.54736z" fill="#2c4c46"/><path d="M30.75317,184.22321c0,0 -7.1531,1.74431 -10.45321,3.83384c-3.67479,2.32674 -10.59259,9.49164 -10.59259,9.49164c0,0 -2.87335,-8.23544 0.2374,-12.48891c1.89431,-2.59018 6.48685,-8.38051 11.23716,-11.76133c4.52061,-3.21734 9.25398,-4.72741 9.25398,-4.72741l8.88365,6.55698z" fill="#132d2a"/><path d="M44.52766,175.09443l8.88366,-6.55698c0,0 4.73336,1.51006 9.25398,4.7274c4.75031,3.38082 9.34284,9.17114 11.23716,11.76133c3.11074,4.25346 0.2374,12.48891 0.2374,12.48891c0,0 -6.91781,-7.1649 -10.59259,-9.49165c-3.30011,-2.08952 -10.45321,-3.83383 -10.45321,-3.83383z" data-paper-data="{&quot;index&quot;:null}" fill="#132d2a"/></g><g stroke="none" stroke-width="0" stroke-linecap="butt"><path d="M78.01375,161.24837l0.87835,-7.02679l66.31534,1.31752v5.70927c0,0 0.60131,14.33206 -0.86585,26.14039c-0.60182,4.84374 -3.28371,9.37108 -3.77765,12.14038c-2.69076,15.08599 -7.23919,33.53921 -7.23919,33.53921c0,0 -38.65407,1.05611 -44.15014,0.8658c-2.03504,-0.07047 -5.27299,-14.1241 -6.72737,-27.6984c-0.53912,-5.03186 -2.44853,-13.77144 -3.27434,-22.21717c-1.14061,-11.6654 -1.15914,-22.77021 -1.15914,-22.77021z" fill="#031718"/><path d="M136.84701,177.00259c-0.94113,1.29627 -7.34645,8.81464 -15.07293,13.44579c-8.73622,5.23637 -18.8484,7.56426 -18.8484,7.56426c0,0 -11.38481,-10.55142 -14.41243,-16.42817c-1.95616,-3.79698 -7.57102,-13.31234 -8.73637,-21.12681c-0.24495,-1.64254 -2.04544,-8.95241 -0.10493,-15.05091c1.16882,-3.67326 2.60901,-7.32033 4.74367,-9.85634c3.21949,-3.82478 7.17896,-5.68204 7.49245,-5.74154c5.04871,-0.95818 29.45033,-5.59693 41.44069,1.92708c3.88941,2.44062 8.55643,7.55686 10.12613,12.45573c2.62668,8.19755 1.63127,17.45537 1.63127,17.45537c0,0 -3.15403,8.32394 -8.25916,15.35553z" fill="#142d2b"/><path d="M113.62278,183.37891c0,0 -8.51417,-6.76508 -12.17727,-11.07041c-4.1592,-4.88841 -11.47918,-16.7336 -11.47918,-16.7336c0,0 -1.47293,-25.83845 1.51059,-26.28496c0.26567,-0.03976 0.14258,-0.72486 0.52823,-1.17607c0.56975,-0.66661 1.70486,-1.18608 2.40564,-1.31907c7.62443,-1.44702 24.72563,-3.19127 34.9649,0.43038c1.00798,0.35652 1.94946,0.76505 2.80886,1.23098c4.25211,2.30531 2.9441,20.35976 2.9441,20.35976c0,0 -6.75598,15.31958 -10.79078,21.58047c-3.18907,4.94855 -11.48316,12.98253 -11.48316,12.98253z" fill="#2c4c45"/><path d="M125.39653,131.9945v-3.62265l3.47775,-1.73887l-0.1449,5.79624c0,0 -1.25873,5.00916 -3.97353,9.88381c-1.68376,3.02332 -4.55179,5.7274 -6.13848,7.96195c-1.31593,1.85323 -4.53303,3.21479 -4.61669,3.20387c-0.27486,-0.03585 -4.93485,1.66872 -2.33359,-3.12772c0.55183,-1.01751 4.24946,-4.16482 6.99639,-7.79425c3.75166,-4.95694 6.73306,-10.56238 6.73306,-10.56238z" fill="#789396"/><path d="M94.67645,127.59452v-0.57962l3.18794,1.01434c0,0 1.05056,0.78119 1.32201,1.91422c0.44375,1.85214 10.583,15.70999 18.95216,26.03548c2.58528,3.18961 11.94883,10.89207 11.93985,11.61022c-0.03249,2.59883 -5.75338,7.67252 -8.04888,6.80637c-0.19696,-0.07432 -14.84556,16.76619 -23.74745,33.44335c-3.4104,6.38917 -5.27163,25.42692 -5.27163,25.42692c0,0 -3.06785,0.53739 -3.19472,0.40117c-0.10506,-0.11282 -1.14632,-13.14392 4.94017,-25.48424c2.50931,-5.0876 5.56014,-11.42463 8.82147,-16.20778c7.87912,-11.55573 16.28597,-19.64891 16.17633,-19.76185c-4.02257,-4.14386 -11.19423,-14.10089 -12.91111,-15.5161c-0.66257,-0.54615 3.60506,-2.99247 2.95806,-3.56838c-4.05248,-3.60722 -7.09353,-8.45181 -9.12347,-10.92173c-4.29197,-5.22225 -6.00073,-14.61236 -6.00073,-14.61236z" fill="#8fa7b3"/><path d="M120.48126,166.8132l5.76576,-6.97961l3.39009,2.80051l-5.76576,6.97961z" fill="#d4ecfe"/><path d="M75.94199,233.12468l3.04303,-54.04997c0,0 0.88783,2.83441 2.10346,6.88341c2.03873,6.79059 4.99947,16.99744 6.24049,22.97981c1.76047,8.48633 2.95872,24.62147 2.95872,24.62147z" fill="#000000"/><path d="M133.41782,233.50752c0,0 1.19826,-16.13513 2.95872,-24.62146c1.981,-9.54946 8.34396,-29.86322 8.34396,-29.86322l3.04303,54.04997z" data-paper-data="{&quot;index&quot;:null}" fill="#000000"/><path d="M128.99437,126.85121c0,0.62855 -5.4943,9.92605 -10.26437,16.24299c-2.67016,3.53606 -5.90405,5.87463 -5.90405,5.87463c0,0 -4.09184,-4.59487 -8.32731,-9.66874c-4.77577,-5.72113 -9.7602,-12.02524 -9.7602,-12.54483c0,-0.9804 12.51666,-1.87112 17.8956,-1.87112c5.37894,0 16.36032,0.98668 16.36032,1.96708z" fill="#000000"/></g><g stroke="none" stroke-width="0" stroke-linecap="butt"><path d="M172.97718,216.30466l-0.21078,-24.72384c0,0 24.58494,-3.58179 27.57359,-0.49495c0.21048,0.21739 8.15156,-4.13492 9.73171,0.05358c2.81095,7.451 -0.13605,25.59324 -0.13605,25.59324l-10.42421,-0.16441l-5.67179,-8.30884l-4.84941,0.07824l-5.37484,7.96697z" fill="#2c4c45"/><path d="M163.73511,232.43555v-87.38797h51.34444v87.38797z" fill="#456761"/><path d="M208.91927,232.51455v-93.58038h23.81971v93.58038z" fill="#000000"/><path d="M150.55172,232.40371v-93.58038h23.81971v93.58038z" fill="#000000"/><path d="M209.24181,124.80095c0,0.15662 27.87739,13.60229 27.87739,13.60229l-3.05328,23.90328c0,0 4.56784,17.44225 1.90029,17.50688c-5.76604,0.13968 -24.55428,9.65815 -44.00851,9.8911c-19.51312,0.23364 -39.69207,-8.8231 -45.28383,-11.89705c-1.27452,-0.70064 2.71506,-14.80853 2.71506,-14.80853l-4.05149,-24.62229c0,0 27.71082,-13.29622 27.71082,-13.44461c0,-0.30639 9.11355,14.90913 17.76915,14.90913c8.6556,0 18.4244,-15.34657 18.4244,-15.04017z" fill="#142d2b"/><path d="M209.65029,125.0362c0,0.15662 27.87739,13.60229 27.87739,13.60229c0,0 -3.74139,14.38776 -15.77223,21.07883c-9.52058,5.29495 -27.61206,3.22291 -29.48115,3.22291c-2.25264,0 -21.5528,1.66621 -32.71944,-4.47242c-10.959,-6.02448 -13.80892,-19.85594 -13.80892,-19.85594c0,0 27.71082,-13.29622 27.71082,-13.44461c0,-0.1335 33.86897,-2.75428 36.53761,0.46325c3.45607,4.16692 -0.34406,-0.90068 -0.34406,-0.59429z" fill="#2c4c45"/><g><path d="M170.92233,208.9055v-53.19022h41.00795v53.19022l-9.95188,0.05632l-5.51296,-8.75933l-9.95808,0.02799l-5.54752,8.58922z" fill="#8fa7b3"/><path d="M170.95511,155.78276l2.7453,-3.5674h36.12927l2.14477,3.6532z" fill="#d4ecfe"/><path d="M186.36465,200.32643v-32.17151h10.20909v32.17151z" fill="#000000"/></g></g><g stroke-linecap="butt"><path d="M289.73843,141.23222c0,1.75904 -7.42671,8.07633 -11.58305,8.07633c-4.15633,0 -11.19039,-6.77228 -11.19039,-8.53133c0,-1.75904 7.29583,1.82002 11.45216,1.82002c4.15633,0 11.32128,-3.12405 11.32128,-1.36501z" fill="#ffffff" stroke="#000000" stroke-width="2.5"/><path d="M256.18359,232.67847v-14.56633h44.56545v14.56633z" fill="#789396" stroke="none" stroke-width="0"/><path d="M256.09709,218.61396v-15.88471h44.56545v15.88471z" fill="#466962" stroke="none" stroke-width="0"/><path d="M256.15766,203.52524v-17.06136h44.56545v17.06136z" fill="#132d2a" stroke="none" stroke-width="0"/><path d="M302.62103,232.61225v-75.00541h11.25727c0,0 0,4.59835 0,9.07844c0,2.43428 5.26549,-6.63404 5.26549,-1.45255c0,3.30769 -0.48791,9.39549 -1.74389,14.808c-1.34551,5.79836 -3.46526,10.8217 -3.46526,10.8217l-0.05635,41.74982z" data-paper-data="{&quot;index&quot;:null}" fill="#031717" stroke="none" stroke-width="0"/><path d="M242.95972,233.05018l-0.05635,-41.74982c0,0 -2.11975,-5.02335 -3.46526,-10.8217c-1.25598,-5.41251 -1.74389,-11.50032 -1.74389,-14.808c0,-5.18149 5.26549,3.88682 5.26549,1.45255c0,-4.4801 0,-9.07843 0,-9.07843h11.25726v75.00541z" fill="#031717" stroke="none" stroke-width="0"/><path d="M257.01252,137.11932c0,0.80418 46.27279,1.12957 44.10665,0.96683c-0.2084,-0.01566 0.86323,1.21046 2.03871,1.25882c1.23929,0.051 2.57524,-1.03809 1.89804,0.48098c-0.18726,0.42005 2.89583,-6.22111 6.24459,-10.01965c0.50309,-0.57066 5.3384,-6.05733 6.15937,-2.66385c2.0883,8.63204 1.65942,32.76096 -0.22758,35.85023c-2.37838,3.89372 -8.78637,11.32872 -17.20145,16.2251c-9.89374,5.75675 -21.7893,8.71257 -21.7893,8.71257c0,0 -11.74397,-3.22727 -19.75114,-8.11947c-9.99291,-6.10543 -16.70067,-14.14676 -16.80281,-14.14676c-0.49122,0 -2.82129,-6.95772 -3.39069,-13.8353c-0.72433,-8.74894 0.35938,-17.99286 0.35938,-19.42487c0,-2.55771 1.07318,-6.14681 2.18928,-6.14681c0.39671,0 3.14431,0.81192 5.87016,3.37189c2.57839,2.42149 5.42096,7.39091 7.71163,9.04153c2.10069,1.51373 2.58517,-2.33987 2.58517,-1.55124z" fill="#040404" stroke="none" stroke-width="0"/><path d="M255.92354,157.07543v-0.50522c0,0 13.05168,-23.07161 21.72436,-23.40842c11.75128,-0.45637 22.39798,23.40842 22.39798,23.40842v0.50522c0,0 -14.3179,7.24146 -21.55596,7.24146c-7.46254,0 -22.56639,-7.24146 -22.56639,-7.24146z" fill="#132d2a" stroke="none" stroke-width="0"/><path d="M293.78489,169.85375c0,0.3532 -6.62369,7.46121 -15.18889,7.46121c-8.5652,0 -15.50867,-7.2146 -15.50867,-7.5678c0,-0.3532 6.94347,3.41085 15.50867,3.41085c8.56519,0 15.18889,-3.65745 15.18889,-3.30426z" fill="#d2ebfc" stroke="none" stroke-width="0"/><path d="M256.15766,192.93542l-0.14708,-14.70807c0,0 22.0621,8.9825 22.0621,10.44273c0,0.27518 -4.2195,2.01322 -9.50004,2.97724c-5.66355,1.03395 -12.41499,1.2881 -12.41499,1.2881z" fill="#031717" stroke="none" stroke-width="0"/><path d="M288.10047,191.73383c-5.28054,-0.96404 -9.50004,-2.70207 -9.50004,-2.97724c0,-1.46022 22.0621,-10.44273 22.0621,-10.44273l-0.14708,14.70807c0,0 -6.75144,-0.25414 -12.41499,-1.2881z" data-paper-data="{&quot;index&quot;:null}" fill="#031717" stroke="none" stroke-width="0"/><path d="M256.24417,207.58292l-0.14708,-14.70807c0,0 22.0621,8.9825 22.0621,10.44273c0,0.27518 -4.2195,2.01322 -9.50004,2.97724c-5.66355,1.03395 -12.41499,1.2881 -12.41499,1.2881z" fill="#2c4c46" stroke="none" stroke-width="0"/><path d="M288.18695,206.38132c-5.28054,-0.96404 -9.50004,-2.70207 -9.50004,-2.97724c0,-1.46022 22.06211,-10.44273 22.06211,-10.44273l-0.14708,14.70807c0,0 -6.75143,-0.25414 -12.41499,-1.28809z" data-paper-data="{&quot;index&quot;:null}" fill="#2c4c46" stroke="none" stroke-width="0"/><path d="M256.33067,222.67165l-0.14708,-14.70807c0,0 22.0621,8.9825 22.0621,10.44273c0,0.27518 -4.2195,2.01322 -9.50004,2.97724c-5.66355,1.03395 -12.41499,1.28809 -12.41499,1.28809z" fill="#607f7b" stroke="none" stroke-width="0"/><path d="M288.27345,221.47006c-5.28054,-0.96404 -9.50004,-2.70207 -9.50004,-2.97724c0,-1.46022 22.06211,-10.44273 22.06211,-10.44273l-0.14708,14.70806c0,0 -6.75144,-0.25414 -12.41499,-1.28809z" data-paper-data="{&quot;index&quot;:null}" fill="#607f7b" stroke="none" stroke-width="0"/></g><g stroke-linecap="butt"><path d="M388.46395,230.05344v-43.63706h9.19852v43.63706z" fill="#ffffff" stroke="#000000" stroke-width="3.5"/><path d="M327.30544,228.78024v-43.63706h9.19852v43.63706z" fill="#ffffff" stroke="#000000" stroke-width="3.5"/><path d="M334.98077,165.01613l-4.93746,-35.97295c0,0 5.40571,-1.75828 9.26696,1.23733c7.02994,5.45393 15.18551,18.51253 22.21755,18.51253c3.63936,0 10.00912,-2.3674 14.56703,-6.02213c4.30653,-3.45316 7.00304,-9.41268 10.95222,-12.01692c5.1848,-3.41904 10.58738,-1.7108 10.58738,-1.7108l-8.37223,36.40229c0,0 -18.22871,5.4373 -27.3024,5.36553c-9.01979,-0.07135 -26.97903,-5.79488 -26.97903,-5.79488z" fill="#000000" stroke="none" stroke-width="0"/><path d="M342.05979,133.52505c0,0 1.55249,0.43729 3.25087,1.46074c1.50167,0.90491 3.0365,2.29502 4.88637,3.85518c4.21153,3.55193 8.29145,8.45107 11.75329,8.40897c4.69919,-0.05713 12.2342,-7.59414 16.8123,-11.77736c2.09474,-1.91406 3.96132,-2.44192 3.96132,-2.44192c0,0 -2.7477,7.04514 -7.05846,13.2272c-3.99408,5.72791 -9.55855,11.36905 -12.84103,11.36905c-3.81446,0 -10.31958,-7.2994 -14.80748,-13.77438c-3.8088,-5.49521 -5.9572,-10.32747 -5.9572,-10.32747z" fill="#bed3e5" stroke="none" stroke-width="0"/><path d="M400.95926,167.73279c-0.8976,2.61476 -2.0023,7.57292 -2.0023,7.57292c0,0 -0.03223,60.58229 -0.89357,57.32833c-0.20178,-0.76229 -15.9082,0.04482 -15.9082,0.04482c0,0 4.05148,-32.03676 4.65235,-51.12753c0.41003,-13.02763 5.2665,-32.24781 5.2665,-32.24781l7.90263,-2.03939c0,0 4.00596,3.82389 4.83476,5.75776c0.66382,1.54891 -0.24614,4.94903 -0.24614,4.94903c0,0 -2.56931,6.74192 -3.60601,9.76188z" data-paper-data="{&quot;index&quot;:null}" fill="#142d2b" stroke="none" stroke-width="0"/><path d="M320.49096,157.38823c0,0 -0.90996,-3.40012 -0.24614,-4.94903c0.8288,-1.93386 4.83476,-5.75776 4.83476,-5.75776l7.90263,2.03939c0,0 4.85647,19.22017 5.2665,32.24781c0.60087,19.09077 4.65235,51.12753 4.65235,51.12753c0,0 -15.70643,-0.80713 -15.90821,-0.04484c-0.86135,3.25397 -0.89357,-57.32834 -0.89357,-57.32834c0,0 -1.1047,-4.95816 -2.0023,-7.57292c-1.0367,-3.01996 -3.60602,-9.76187 -3.60602,-9.76187z" fill="#031718" stroke="none" stroke-width="0"/><path d="M336.19294,232.53508v-57.03726h52.28248v57.03726z" fill="#000000" stroke="none" stroke-width="0"/><path d="M378.72282,231.72761c0,0 -11.20533,1.52263 -18.37854,-1.80434c-4.87115,-2.25927 -6.03999,-7.52981 -8.61598,-11.78295c-4.81394,-7.94816 -8.19181,-22.56454 -8.19181,-22.56454l44.79856,-19.37419v56.30803z" fill="#031718" stroke="none" stroke-width="0"/><path d="M349.84253,159.96345c5.05946,5.54012 12.12112,8.37377 12.57899,12.68834c0.25434,2.39668 -19.42667,15.14547 -19.94997,15.24231c-1.1218,0.20759 -13.90747,-28.81837 -19.37069,-44.88837c-1.06649,-3.13708 -2.32798,-9.28496 -0.4559,-13.47436c1.5245,-3.41157 11.61219,-7.0107 11.61219,-7.0107l3.10764,7.96332c0,0 -6.46695,-0.43437 -4.50995,5.58824c2.0307,6.24939 12.56541,19.04882 16.98769,23.89121z" fill="#142d2b" stroke="none" stroke-width="0"/><path d="M392.04214,136.26647c1.95702,-6.02261 -4.50994,-5.58824 -4.50994,-5.58824l3.10764,-7.96332c0,0 10.08769,3.59913 11.61219,7.0107c1.87207,4.18938 0.61058,10.33728 -0.45591,13.47435c-1.1705,3.44304 -4.96533,15.35472 -10.08161,26.7722c-4.89133,10.91548 -11.0887,21.35119 -13.17367,24.69812c-1.9765,3.17282 -15.8135,20.5393 -16.01984,20.50113c-0.10411,-0.01927 -0.53535,-1.46809 -1.94154,-3.01156c-1.9988,-2.19394 -5.2027,-5.34389 -8.29149,-8.79684c-5.65948,-6.32674 -11.31709,-13.2862 -11.18529,-14.52817c0.45787,-4.31457 28.8923,-23.13702 33.95176,-28.67714c4.42228,-4.8424 14.95699,-17.64182 16.98769,-23.89121z" data-paper-data="{&quot;index&quot;:null}" fill="#2c4c45" stroke="none" stroke-width="0"/><g stroke="none" stroke-width="0"><path d="M354.54848,189.60419l0.15995,-2.87913l15.83524,17.2748v2.7192z" fill="#bed3e5"/><path d="M370.54368,206.79901v-2.71919l4.75857,-6.19814l0.15995,2.95911z" data-paper-data="{&quot;index&quot;:null}" fill="#d4ecfe"/><path d="M354.69086,186.72898l5.4384,-4.91967l15.39049,15.76614l-5.07049,6.54479z" fill="#8fa7b3"/></g><path d="M352.0018,225.90628c-1.54702,-2.63251 -5.51963,-9.19928 -7.96174,-16.20626c-2.75914,-7.9166 -3.91161,-16.22163 -3.88196,-16.81098c0.07869,-1.56393 1.12104,-3.46855 1.12104,-3.46855c0,0 17.34032,20.26928 20.27811,23.93786c0.86709,1.08278 0.74327,2.31273 0.74327,2.31273c0,0 -2.53268,-1.62759 -5.26738,-3.13413c-0.81215,-0.44741 -4.57755,-3.80852 -7.61718,-7.51644c-0.8154,-0.99466 -5.12925,-7.16337 -5.49849,-7.12267c-0.81014,0.08931 3.32297,7.31484 3.32297,7.31484c0,0 3.59239,10.05171 6.81182,15.73895c1.03954,1.83639 3.914,5.99854 7.28179,7.63868c2.55112,1.24242 5.38532,-0.42874 7.91944,2.75218c0.59605,0.74819 -11.28231,0.52911 -11.28231,0.52911c0,0 -4.64302,-3.70835 -5.96936,-5.96533z" fill="#5f7f7c" stroke="none" stroke-width="0"/></g><g stroke="none" stroke-width="0" stroke-linecap="butt"><path d="M404.92784,200.73736v-1.27375c0,0 4.27729,-3.00956 9.01438,-3.59398c4.83545,-0.59655 9.94194,0.29722 9.94194,0.29722c0,0 19.76788,-0.34947 35.79753,0.70766c1.59765,0.10536 3.20611,0.08088 4.70517,0.2191c3.92505,0.36191 7.24921,1.57454 9.94556,2.10401c1.13589,0.22305 2.22316,2.14356 3.03718,2.37092c0.72331,0.20202 0.26221,2.30667 -0.55686,3.15248c-0.65247,0.67379 -2.25474,0.55989 -2.06044,0.68776c0.37024,0.24365 -13.91846,-1.9453 -14.0504,-1.72859c-0.56497,0.92794 -40.66368,0.73212 -41.3429,1.1003c-1.31781,0.71432 -4.18211,1.95804 -6.64395,1.81233c-2.65429,-0.15708 -4.8651,-1.73453 -4.8651,-1.73453c0,0 -1.10605,-1.09194 -1.64135,-1.72921c-0.51269,-0.61034 -1.28078,-2.39173 -1.28078,-2.39173z" fill="#d2ebfe"/><path d="M420.86586,195.85562c0,0 -8.90635,1.10608 -11.44409,1.71864c-2.50656,0.60503 -4.21307,1.82979 -4.21307,1.82979l0.52309,-15.81226h-0.52187c0,0 67.8938,-2.34945 70.58454,-0.24171c0.13119,0.10277 1.79377,18.05264 1.32584,18.19361c-0.42166,0.12702 -1.34765,-1.60233 -2.33861,-2.104c-0.67043,-0.3394 -4.14989,-1.8976 -9.04534,-2.28499c-1.56005,-0.12345 -3.78574,0.02572 -5.58829,-0.07547c-16.00894,-0.89868 -39.28219,-1.22362 -39.28219,-1.22362z" fill="#a8bacd"/><path d="M420.77128,232.70252v-44.35785h40.24218v44.35785z" fill="#000000"/><path d="M463.85475,232.30025v-51.68242h9.66502v51.68242z" fill="#000000"/><path d="M463.89971,204.48605v-22.32092l9.61791,2.8288l0.30532,20.46781c0,0 -3.42805,-0.09957 -5.19688,-0.27535c-1.43263,-0.14236 -4.72634,-0.70035 -4.72634,-0.70035z" fill="#456861"/><path d="M408.26877,232.57958v-51.68243h9.66501v51.68243z" fill="#000000"/><path d="M408.24924,204.75155v-19.91474l9.61791,2.8288l-0.11315,17.53855c0,0 -1.99194,1.07779 -4.5206,1.18438c-3.24124,0.13662 -4.98415,-1.63699 -4.98415,-1.63699z" fill="#456861"/><path d="M441.16726,208.09529c0,0 -0.63442,0.04574 -1.64272,-0.11089c-1.51864,-0.23592 -3.88542,-0.77633 -6.21024,-1.39253c-4.25658,-1.12822 -8.44952,-2.81628 -8.82074,-2.88253c-1.66347,-0.29691 -3.67744,0.48633 -3.67744,0.48633l-0.12186,-16.69524l19.25437,2.43726l21.00969,-5.39588c0,0 -0.17934,18.85303 -0.3002,19.20114c-0.1176,0.33872 -1.73026,0.09559 -4.26372,0.92259c-2.94322,0.96074 -6.87352,2.98228 -7.13525,3.02189c-1.58068,0.23925 -8.0919,0.40786 -8.0919,0.40786z" fill="#456861"/><path d="M419.6143,159.80283c0,0 0.89617,-17.21991 2.15798,-23.61041c0.92068,-4.66282 4.71747,-11.2104 4.71747,-11.2104c0,0 3.11075,2.23169 5.95067,5.02478c1.25459,1.23391 1.57088,3.13077 2.73533,4.24786c1.48457,1.42419 3.79288,1.92768 5.17579,1.92768c1.03662,0 3.58715,-0.7524 4.89489,-1.84473c1.76065,-1.47064 2.35001,-3.55744 4.19716,-5.25391c2.85676,-2.6237 5.65689,-4.10169 5.65689,-4.10169c0,0 6.9428,6.7793 8.02764,11.44561c1.48555,6.38986 0.06764,23.3752 0.06764,23.3752c0,0 -15.10956,6.87544 -22.40065,6.87544c-7.23565,0 -21.18081,-6.87544 -21.18081,-6.87544z" fill="#000000"/><path d="M405.36073,183.78811v-1.32418c0,0 -0.92044,-49.12617 10.70495,-49.12617c1.60023,0 -5.52337,12.1544 -1.96894,21.28564c3.89375,10.00296 18.64942,17.04352 24.59768,16.56977c4.26008,-0.3393 22.64988,-2.2885 27.36654,-11.34196c5.45913,-10.47864 -2.84147,-28.06394 0.43613,-25.07196c13.22761,12.07496 9.54154,47.68469 9.54154,47.68469v1.32418c0,0 -10.01222,6.63607 -35.24352,6.32098c-25.9433,-0.32399 -35.43438,-6.32098 -35.43438,-6.32098z" fill="#031717"/><path d="M473.78086,154.19744c-0.17199,4.41824 -1.42885,8.73924 -1.54943,9.40134c-0.47636,2.61583 -2.60575,7.60254 -5.63001,10.28995c-2.50634,2.22716 -6.71991,3.20651 -7.35267,3.05159c-0.35022,-0.08574 -3.44686,-0.70902 -5.91341,-2.16962c-1.94406,-1.1512 -3.26652,-3.11027 -4.12457,-3.76105c-1.34841,-1.02268 -6.48301,3.61798 -7.47577,2.54277c-2.20216,-2.38506 0.49048,-10.2628 0.48879,-10.27162c-0.27179,-1.41808 2.50091,-0.96233 3.9988,-3.20546c1.25513,-1.87961 1.56399,-1.50273 1.56399,-1.50273c0,0 12.91854,-1.59105 13.59287,-1.9236c0.30411,-0.14997 -2.19343,-4.88704 -1.40405,-6.71455c0.99841,-2.3114 1.90848,-5.74987 1.52496,-9.3873c-0.80908,-7.67358 -5.85839,-16.19781 -5.85839,-16.19781l2.94218,-1.31463c0,0 3.17087,2.79254 6.14419,6.20682c2.27104,2.60785 4.36353,5.76829 5.21571,7.19634c2.04634,3.42918 3.13802,7.5469 3.13802,7.5469c0,0 0.89509,5.16966 0.69879,10.21265z" data-paper-data="{&quot;index&quot;:null}" fill="#2c4c46"/><path d="M408.5801,144.08657c0,0 1.09168,-4.11771 3.13802,-7.5469c0.85218,-1.42805 2.94467,-4.58849 5.21571,-7.19634c2.97331,-3.41428 6.14419,-6.20682 6.14419,-6.20682l2.94218,1.31463c0,0 -5.04931,8.52424 -5.85839,16.19781c-0.38351,3.63744 0.52655,7.07588 1.52496,9.3873c0.78939,1.82751 -1.70815,6.56458 -1.40404,6.71455c0.67434,0.33255 13.59287,1.9236 13.59287,1.9236c0,0 0.30885,-0.37687 1.56399,1.50273c1.49789,2.24314 4.27059,1.78737 3.9988,3.20546c-0.00169,0.00882 2.69094,7.88656 0.48879,10.27162c-0.99275,1.07521 -6.12736,-3.56546 -7.47577,-2.54277c-0.85804,0.65077 -2.1805,2.60985 -4.12456,3.76105c-2.46655,1.4606 -5.56319,2.08387 -5.91342,2.16962c-0.63277,0.15491 -4.84634,-0.82443 -7.35267,-3.05159c-3.02427,-2.68741 -5.15365,-7.67412 -5.63002,-10.28995c-0.12057,-0.6621 -1.37744,-4.9831 -1.54943,-9.40134c-0.19631,-5.04299 0.69878,-10.21265 0.69878,-10.21265z" fill="#2c4c46"/><path d="M432.70217,132.37094c0,0 5.19821,4.49189 7.93032,4.47755c2.68289,-0.01409 8.31734,-4.56285 8.31734,-4.56285l-8.10362,22.06038l-8.14403,-21.97508z" fill="#bed3e4"/><path d="M414.35981,139.68779c0,0 2.2644,-6.09027 3.63364,-8.36372c1.60663,-2.6676 6.64794,-7.3262 6.64794,-7.3262l2.34301,1.3194c0,0 -5.06769,8.55526 -5.87972,16.25677c-0.38491,3.65068 0.52847,7.10165 1.53051,9.42147c0.79226,1.83416 1.63993,2.92923 1.94515,3.07975c0.67679,0.33376 10.59298,0.71086 10.59298,0.71086c0,0 2.1396,0.99397 3.39931,2.88042c1.50334,2.2513 2.15157,5.30066 1.87879,6.72391c-0.0047,0.02454 0.79678,0.03417 0.79678,0.03417l0.70794,43.5888c0,0 -1.93456,-0.23003 -2.0365,-0.07674c-0.26517,0.39875 -0.73426,-40.504 -1.297,-40.77418c-0.74166,-0.35608 -1.73945,-3.21784 -4.02642,-3.91215c-0.85781,-0.26042 -3.05659,0.21207 -5.3696,0.87791c-2.54462,0.73253 -5.19162,1.68114 -5.51214,1.7297c-3.30073,0.5001 -7.3808,-6.26675 -8.75296,-7.25983c-3.14353,-2.27508 -0.60172,-18.91035 -0.60172,-18.91035z" fill="#607f7a"/><path d="M466.67725,158.63267c-1.37216,0.99308 -5.45223,7.75993 -8.75296,7.25983c-0.32053,-0.04857 -2.96753,-0.99717 -5.51214,-1.7297c-2.31303,-0.66586 -4.5118,-1.13834 -5.36961,-0.87791c-2.28697,0.69431 -3.28475,3.55608 -4.02641,3.91215c-0.56274,0.27018 -1.03183,41.17293 -1.297,40.77418c-0.10194,-0.15329 -2.0365,0.07674 -2.0365,0.07674l0.70794,-43.5888c0,0 0.80148,-0.00963 0.79678,-0.03417c-0.27278,-1.42324 0.37545,-4.47261 1.87879,-6.72391c1.2597,-1.88644 3.3993,-2.88042 3.3993,-2.88042c0,0 9.91619,-0.3771 10.59298,-0.71086c0.30522,-0.15052 1.15289,-1.24559 1.94515,-3.07975c1.00204,-2.31982 1.91542,-5.7708 1.53051,-9.42147c-0.81203,-7.70151 -5.87972,-16.25677 -5.87972,-16.25677l2.34302,-1.3194c0,0 5.04131,4.65859 6.64794,7.3262c1.36924,2.27345 3.63364,8.36372 3.63364,8.36372c0,0 2.54182,16.63527 -0.60172,18.91035z" data-paper-data="{&quot;index&quot;:null}" fill="#607f7a"/></g><g stroke="none" stroke-width="0" stroke-linecap="butt"><path d="M78.42222,359.29549v-45.05434h12.15192v45.05434z" fill="#000000"/><path d="M25.93459,359.46707v-32.98658h49.04629v32.98658z" fill="#000000"/><path d="M20.17259,265.17356v-25.66655h60.24885v25.66655z" fill="#142d2b"/><path d="M86.02056,303.34083c-6.03774,0 -10.93229,-4.89454 -10.93229,-10.93228c0,-6.03774 4.89455,-10.93229 10.93229,-10.93229c6.03774,0 10.93229,4.89454 10.93229,10.93229c0,6.03774 -4.89455,10.93228 -10.93229,10.93228z" fill="#000000"/><path d="M85.96499,284.07424c-6.03774,0 -10.93229,-4.89454 -10.93229,-10.93228c0,-6.03774 4.89455,-10.93229 10.93229,-10.93229c6.03774,0 10.93229,4.89454 10.93229,10.93229c0,6.03774 -4.89455,10.93228 -10.93229,10.93228z" fill="#000000"/><path d="M79.17207,266.58729c-7.51207,0 -13.60181,-6.08973 -13.60181,-13.6018c0,-2.89765 -41.25007,-10.26768 -39.70578,-12.47419c2.45925,-3.51382 48.69316,-1.12762 53.30758,-1.12762c7.51207,0 13.6018,6.08974 13.6018,13.60181c0,7.51207 -6.08973,13.6018 -13.6018,13.6018z" fill="#000000"/><path d="M75.38224,294.57541v-23.56488h13.00866v23.56488z" fill="#000000"/><path d="M88.49293,319.29124c-2.6773,1.45064 -8.28783,1.264 -10.35165,1.264c-0.1767,0 -2.02518,-0.18629 -2.21585,-5.45238c-0.4071,-11.24313 0.93678,-32.54678 1.41418,-32.54678c2.53435,0 8.86784,17.87579 11.81127,19.55318c2.8672,1.63395 4.62296,5.31504 4.62296,7.78377c0,2.93924 -1.46798,7.33225 -5.28092,9.3982z" fill="#000000"/><path d="M4.14631,292.258c0,-6.03774 4.89454,-10.93228 10.93229,-10.93228c6.03774,0 10.93229,4.89454 10.93229,10.93228c0,6.03774 -4.89454,10.93228 -10.93229,10.93228c-6.03774,0 -10.93229,-4.89454 -10.93229,-10.93228z" fill="#000000"/><path d="M4.20189,272.99138c0,-6.03774 4.89454,-10.93229 10.93229,-10.93229c6.03774,0 10.93229,4.89454 10.93229,10.93229c0,6.03774 -4.89454,10.93228 -10.93229,10.93228c-6.03774,0 -10.93229,-4.89454 -10.93229,-10.93228z" fill="#000000"/><path d="M8.32529,252.83494c0,-7.51207 6.08973,-13.60181 13.6018,-13.60181c4.92483,0 53.73652,-2.73582 56.12358,1.18375c1.25404,2.05912 -42.52177,9.83082 -42.52177,12.41806c0,7.51207 -6.08974,13.6018 -13.60181,13.6018c-7.51207,0 -13.6018,-6.08973 -13.6018,-13.6018z" fill="#000000"/><path d="M12.70826,294.42483v-23.56488h13.00866v23.56488z" fill="#000000"/><path d="M7.32532,309.74247c0,-2.46873 1.75576,-6.14981 4.62296,-7.78377c2.94341,-1.67739 9.27691,-19.55318 11.81127,-19.55318c0.47741,0 2.36246,21.30365 1.95536,32.54678c-0.19068,5.26608 -2.58033,5.45238 -2.75704,5.45238c-2.06382,0 -7.67436,0.18664 -10.35165,-1.26401c-3.81293,-2.06594 -5.2809,-6.45896 -5.2809,-9.3982z" fill="#000000"/><path d="M26.03286,334.14979v-27.16328h49.86136v27.16328c0,0 -1.37166,12.45981 -9.10189,13.80484c-9.4314,1.64102 -22.02209,0.70705 -30.34068,0.70705c-7.83183,0 -10.4188,-14.51189 -10.4188,-14.51189z" fill="#142d2b"/><path d="M25.65949,320.78123v-27.16329h49.86138v27.16329c0,0 -1.37167,12.45981 -9.10189,13.80484c-9.4314,1.64102 -22.02208,0.70704 -30.34067,0.70704c-7.83183,0 -10.4188,-14.51189 -10.4188,-14.51189z" fill="#2c4c45"/><path d="M22.56131,305.33271v-30.60152h56.17266v30.60152c0,0 -1.54529,14.03693 -10.25398,15.55222c-10.62518,1.84875 -24.80957,0.79655 -34.18111,0.79655c-8.82315,0 -11.73757,-16.34876 -11.73757,-16.34876z" fill="#456761"/><path d="M26.30537,300.20042c0,0 -3.72678,-3.90372 -3.72678,-7.01512c0,-2.82268 -1.09813,-14.88063 -0.34997,-20.99459c1.05984,-8.66106 6.26896,-11.45031 6.26896,-11.45031h44.94059c0,0 4.0383,3.97479 5.54655,11.30498c1.37311,6.6734 0.23844,16.57617 0.06119,20.05031c-0.0746,1.46222 -0.6561,4.27899 -2.43633,6.64708c-2.06473,2.74654 -5.36363,4.96522 -5.36363,4.96522c0,0 -12.33135,1.53456 -20.16846,1.53456c-4.82386,0 -13.91207,0.08044 -19.5495,-1.38569c-3.56416,-0.92694 -5.22262,-3.65643 -5.22262,-3.65643z" fill="#142d2b"/><path d="M33.9577,308.33663c0,0 -6.17455,-2.19556 -8.08571,-4.4065c-1.81012,-2.09407 -3.09463,-8.52761 -3.09463,-8.52761c0,0 3.04433,6.45527 6.79191,7.25302c1.34907,0.28718 11.33681,2.27239 21.2661,2.38667c9.9204,0.11417 19.78286,-1.64241 20.03788,-1.82343c4.59795,-3.26375 8.59302,-7.59981 8.41515,-7.41206c-0.24587,0.25953 -0.3698,4.91952 -3.12739,7.59726c-3.49501,3.39381 -9.7584,4.93266 -9.7584,4.93266z" fill="#d4ecfe"/><path d="M48.42637,359.38588v-52.14537h4.38444v52.14537z" fill="#d4ecfe"/><path d="M10.7809,359.59604v-43.18041h12.15192v43.18041z" fill="#000000"/></g><g stroke-linecap="butt"><path d="M174.3885,357.13427v-52.17607h10.23519v52.17607z" fill="#ffffff" stroke="#000000" stroke-width="3.5"/><path d="M120.81784,358.84295c0,0 0.38674,-31.43798 0.38674,-47.7015c0,-0.35845 -2.95218,0.27694 -2.95218,0.27694l-0.50438,47.19528l-11.91552,0.41585c0,0 0.05047,-69.41834 0.12086,-71.37311c0.64263,-17.84672 14.86448,-27.32118 14.86448,-27.32118h47.78394c0,0 15.72619,2.81364 16.98633,26.77269c1.10697,21.04703 0.28057,71.98129 0.28057,71.98129l-12.36149,0.19416c0,0 0.09249,-48.88647 0.10295,-47.86007c0.01252,1.22952 -3.46141,-1.1687 -3.46141,-0.07434c0,16.19945 -0.19336,47.49399 -0.19336,47.49399z" fill="#000000" stroke="none" stroke-width="0"/><path d="M121.91937,330.82195l-0.59868,-22.22415l49.83971,-1.56709l-0.74834,23.79124c0,0 -10.57837,18.65284 -24.24281,18.31172c-11.9703,-0.29883 -24.24989,-18.31172 -24.24989,-18.31172z" fill="#132d2a" stroke="none" stroke-width="0"/><path d="M121.53973,319.08311l-0.59868,-22.22415l49.83972,-1.56709l-0.74835,23.79124c0,0 -10.57837,18.65284 -24.24281,18.31172c-11.9703,-0.29883 -24.24989,-18.31172 -24.24989,-18.31172z" fill="#2c4c46" stroke="none" stroke-width="0"/><path d="M121.77925,307.2018c0,0 -0.8801,-1.78928 -1.27743,-3.925c-0.44531,-2.39363 -1.26694,-9.75141 -1.26694,-9.75141h52.68342c0,0 -0.00259,6.70239 -0.35904,9.12958c-0.26382,1.79651 -1.58667,4.11944 -1.58667,4.11944c0,0 -10.57837,18.65283 -24.24281,18.31172c-11.9703,-0.29883 -23.95056,-17.88433 -23.95056,-17.88433z" fill="#466962" stroke="none" stroke-width="0"/><path d="M95.32887,279.71c0,0 5.9315,-4.28945 8.87406,-5.65704c3.19993,-1.4872 9.61824,-2.93747 9.61824,-2.93747c0,0 14.59547,6.37889 20.17703,6.37889c8.03199,0 43.79278,-5.89168 43.79278,-5.89168c0,0 7.69673,1.74898 10.79543,3.13615c2.69486,1.20639 6.75495,4.72053 6.75495,4.72053c0,0 -2.47858,3.48333 -7.23681,6.46588c-6.9136,4.33356 -17.26539,8.80909 -20.38279,9.98531c-0.92675,0.34967 -2.90586,1.9695 -4.18829,3.5555c-0.97629,1.2074 -1.24544,2.47769 -2.11557,2.6699c-5.28917,1.16842 -9.00722,0.56465 -14.91808,0.71888c-2.18125,0.0569 -8.4822,2.16838 -15.83544,-0.63605c-1.23368,-0.47051 -1.37184,-1.55772 -2.17349,-2.80635c-0.51738,-0.80586 -1.61184,-1.79344 -2.44836,-2.34242c-4.93143,-3.23634 -11.64115,-5.72631 -16.15661,-7.98532c-8.48623,-4.24552 -14.55705,-9.37472 -14.55705,-9.37472z" fill="#2c4c46" stroke="#ffffff" stroke-width="0"/><path d="M162.22436,294.02621l-32.62785,-0.15532c0,0 -12.16648,-8.81456 -18.70839,-13.27299c-5.00188,-3.40888 -14.91192,-16.05561 -14.91192,-16.05561l18.4923,-8.59451c0,0 14.59547,6.37889 20.17703,6.37889c8.03199,0 43.79278,-5.89168 43.79278,-5.89168l17.5504,7.85668c0,0 -7.11175,10.51414 -12.06384,14.2417c-6.44407,4.85059 -21.7005,15.49282 -21.7005,15.49282z" fill="#031717" stroke="#ffffff" stroke-width="0"/><path d="M161.86089,279.83608c0,0 0.81394,12.79698 -0.07377,19.23026c-0.46714,3.38535 -4.18769,16.01291 -16.56798,15.47935c-14.57876,-0.62831 -14.65571,-13.52031 -15.20034,-16.72429c-1.03419,-6.08407 -0.78576,-18.14064 -0.78576,-18.14064c0,0 -12.16648,-8.81456 -18.70839,-13.27299c-5.00188,-3.40888 -14.91193,-16.05561 -14.91193,-16.05561l18.4923,-8.59452c0,0 21.26588,-4.30183 31.71576,-4.22224c10.85777,0.0827 32.25405,4.70946 32.25405,4.70946l17.55039,7.85668c0,0 -7.11175,10.51414 -12.06384,14.24169c-6.44407,4.85059 -21.7005,15.49283 -21.7005,15.49283z" fill="#000000" stroke="#ffffff" stroke-width="0"/><path d="M152.28452,270.48714l0.07264,26.22874c0,0 -0.38856,2.69401 -2.13018,4.17766c-1.16054,0.98864 -3.6215,0.97344 -4.40682,0.97344c-0.91457,0 -3.42135,0.45837 -4.91144,-1.20452c-1.30783,-1.45949 -1.67192,-5.06683 -1.67192,-5.06683l-0.24944,-25.20661c0,0 -10.79304,-5.85488 -14.92597,-8.67153c-3.16001,-2.15359 -8.61905,-7.47235 -8.61905,-7.47235l7.37338,-4.95272c0,0 15.27177,-10.53594 23.00748,-10.39055c7.87113,0.14795 23.82008,11.27071 23.82008,11.27071l5.57573,3.62807c0,0 -3.6912,4.7346 -6.81975,7.08952c-4.07111,3.06442 -16.11475,9.59699 -16.11475,9.59699z" fill="#789396" stroke="#ffffff" stroke-width="0"/><path d="M143.27569,292.01197v-52.04091h5.0762v52.32055z" fill="#d3ecfe" stroke="none" stroke-width="0"/><path d="M141.22586,296.52782c0,-2.41953 2.06062,-4.38094 4.60254,-4.38094c2.54192,0 4.60255,1.96141 4.60255,4.38094c0,2.41953 -2.06063,4.38094 -4.60255,4.38094c-2.54192,0 -4.60254,-1.96141 -4.60254,-4.38094z" fill="none" stroke="#ffffff" stroke-width="4.5"/><path d="M153.31157,241.50686c0,1.66487 -3.24915,3.01452 -7.25718,3.01452c-4.00803,0 -7.25718,-1.34965 -7.25718,-3.01452c0,-1.66487 3.24915,-3.01452 7.25718,-3.01452c4.00803,0 7.25718,1.34965 7.25718,3.01452z" fill="#d3ecfe" stroke="none" stroke-width="0"/></g><g stroke-linecap="butt"><path d="M266.35152,244.36228c3.8174,3.64446 -3.93071,16.07237 -0.94648,23.90622c4.12977,10.84098 -10.14885,16.51087 -9.96564,23.88947c0.26748,10.77293 8.68784,9.52117 8.68784,9.52117c0,0 -5.31394,52.10111 -9.98922,51.96834c-6.92503,-0.19665 -21.39572,-1.75604 -27.48573,-0.58083c-3.99164,0.77028 -12.99872,-50.74291 -12.99872,-50.74291c0,0 4.5026,0.25969 1.25664,-2.0084c-3.43157,-2.39779 1.67396,-25.14587 1.67396,-26.90679c0,-8.04181 -3.2537,-32.86487 3.28577,-32.86487c1.16915,0 2.86523,3.53977 5.27101,5.21135c3.47527,2.41468 8.8029,26.7209 13.81079,26.10874c4.96687,-0.60715 10.22405,-24.63178 14.47907,-27.02371c1.87357,-1.05322 3.63671,-4.14714 5.46766,-4.40436c3.14965,-0.44247 6.11968,2.65362 7.45306,3.92659z" fill="#000000" stroke="#000000" stroke-width="2"/><path d="M215.42017,359.57825v-31.25332l62.57102,-28.55307l0.1343,17.24027l-13.31083,7.89221l-1.23422,34.67393z" fill="#2c4c45" stroke="none" stroke-width="0"/><path d="M220.66609,328.47546l-9.13628,-55.58665h66.57397v27.18895c0,0 -38.41899,20.77 -48.20248,25.52168c-4.28236,2.07987 -9.2352,2.87604 -9.2352,2.87604z" fill="#142d2b" stroke="none" stroke-width="0"/><path d="M219.53775,303.20665c0,-3.20309 3.75746,-5.79971 8.39251,-5.79971c4.63505,0 7.02787,8.05516 7.02787,11.25825c0,1.68362 0.19208,8.93776 -3.14712,14.14659c-3.01364,4.70098 -10.00629,6.66411 -12.20505,6.66411c-4.63505,0 -0.06823,-23.06616 -0.06823,-26.26924z" fill="#031718" stroke="none" stroke-width="0"/><path d="M199.73003,271.70913c0,0 -4.06781,-10.07217 -4.49552,-13.52433c-0.12788,-1.03221 2.06834,-6.06645 2.06834,-6.06645c0,0 12.14994,-8.08652 23.69161,-12.65333c3.61309,-1.42963 6.63808,-3.83556 9.89133,-3.84231c1.08957,-0.00226 15.18572,-1.191 17.33358,-0.7587c3.5407,0.71262 6.4615,3.50199 9.78951,4.9162c12.3707,5.25686 22.85818,12.16478 22.85818,12.16478c0,0 1.90706,2.91892 1.90706,4.85435c0,3.16057 -2.94729,12.48262 -2.94729,12.48262c0,0 -6.71424,20.36689 -9.69295,20.45715c-1.12341,0.03404 -36.39837,20.65259 -37.85356,20.29206c-1.79347,-0.44434 0.56477,6.82382 -2.92224,12.7025c-2.01457,3.39631 -10.36925,7.13737 -11.2749,6.57275c-0.46188,-0.28795 -17.91218,-9.57936 -18.2194,-10.26847c-0.36515,-0.81901 -0.13377,-47.3288 -0.13377,-47.3288z" fill="#000000" stroke="none" stroke-width="0"/><g stroke="none" stroke-width="0"><path d="M197.97343,251.80716l6.5249,-12.29473l16.66558,-0.33942l-0.84854,4.435z" fill="#142d2b"/><path d="M215.82181,271.47901l-18.03091,-19.73284l22.63337,-8.29645l7.36797,9.71087z" fill="#2c4c45"/><path d="M239.50985,282.49623l-24.03742,-10.95266l12.37983,-18.41712l11.60596,7.28915z" fill="#456761"/></g><g data-paper-data="{&quot;index&quot;:null}" stroke="none" stroke-width="0"><path d="M258.64693,243.64949l-0.84854,-4.435l16.66559,0.33941l6.5249,12.29474z" fill="#2c4c45"/><path d="M251.17008,253.20207l7.36797,-9.71086l22.63336,8.29645l-18.03091,19.73284z" fill="#789396"/><path d="M239.50408,260.4571l11.60596,-7.28915l12.37983,18.41712l-24.03741,10.95266z" fill="#5f7f7c"/></g><g stroke="none" stroke-width="0"><path d="M225.47161,300.4745c0,9.28811 -4.82753,16.81763 -10.78259,16.81763c-5.95507,0 -10.78259,-7.5295 -10.78259,-16.81763c0,-9.28812 4.82753,-16.81763 10.78259,-16.81763c5.95507,0 10.78259,7.52951 10.78259,16.81763z" fill="#bed3e5"/><path d="M225.51956,300.73315c0,9.45477 -4.646,14.80777 -9.32659,14.80777c-4.68058,0 -9.32659,-5.71798 -9.32659,-15.17277c0,-9.45477 5.25433,-15.41609 9.93491,-15.41609c4.68058,0 8.71828,6.32631 8.71828,15.78108z" fill="#8fa7b3"/><path d="M218.96547,290.63295c0,0.50862 -1.48643,0.40209 -2.69019,1.39804c-0.18716,0.15484 -2.84933,4.07684 -3.45383,4.07684c-0.73821,0 -0.26718,-2.60646 0.45742,-4.12146c0.42961,-0.89821 2.38161,-3.54338 3.55749,-3.54338c1.17587,0 2.12912,0.98047 2.12912,2.18995z" fill="#bdd2e4"/></g></g><g stroke="none" stroke-width="0" stroke-linecap="butt"><path d="M296.32039,359.80332v-90.19048h64.03716v90.19048z" fill="#000000"/><path d="M303.82754,309.81526l1.80504,-29.99482c0,0 8.60147,0.57407 11.34268,0.65714c4.10637,0.12444 11.45478,0.12924 11.45478,0.12924l-0.22468,30.2195z" fill="#789396"/><path d="M284.65386,290.30309v-23.60011l11.71133,-0.53233v27.68132c0,0 -6.14346,-1.19047 -8.2642,-2.05804c-1.67884,-0.6868 -3.44713,-1.49084 -3.44713,-1.49084z" fill="#456761"/><path d="M284.98802,290.45979l11.32927,3.13257l-0.15028,23.30664c0,0 -6.14346,-1.19047 -8.2642,-2.05804c-1.67885,-0.6868 -2.91479,-24.38118 -2.91479,-24.38118z" fill="#8fa7b3"/><path d="M287.62894,314.74894l8.49017,2.0679l-0.15027,27.9202c0,0 -3.92578,-5.64408 -4.98316,-9.44615c-1.53816,-5.53079 -3.35672,-20.54195 -3.35672,-20.54195z" fill="#bed3e5"/><path d="M368.02665,292.66042c-2.12074,0.86757 -8.26419,2.05804 -8.26419,2.05804v-27.68132l11.71133,0.53232v23.6001c0,0 -1.76829,0.80405 -3.44714,1.49085z" fill="#456761"/><path d="M368.22483,315.70745c-2.12074,0.86757 -8.2642,2.05804 -8.2642,2.05804l-0.15027,-23.30664l11.32928,-3.13257c0,0 -1.23596,23.69437 -2.9148,24.38117z" fill="#8fa7b3"/><path d="M365.14197,336.15737c-1.05738,3.80206 -4.98316,9.44615 -4.98316,9.44615l-0.15028,-27.92019l8.49017,-2.0679c0,0 -1.81858,15.01116 -3.35673,20.54195z" fill="#bed3e5"/><path d="M284.37978,266.47372v-24.28561c0,0 28.49921,1.3204 42.98359,1.3204c14.87541,0 45.12701,-1.3204 45.12701,-1.3204v24.28561c0,0 -10.38698,6.92549 -43.75424,6.82405c-29.72194,-0.09035 -44.35636,-6.82405 -44.35636,-6.82405z" fill="#031718"/><path d="M372.79006,242.23388c0,1.00409 0.6928,3.50782 -2.99785,4.77069c-8.30577,2.84208 -27.01274,4.45658 -41.99807,4.45658c-14.26049,0 -29.46169,-0.83993 -37.60759,-3.47824c-4.21765,-1.36602 -5.93685,-4.42829 -5.93685,-5.54168c0,-1.22446 1.66014,-4.40935 6.69154,-5.061c2.78177,-0.36029 3.81111,-0.98012 3.54237,-0.24037c-0.27513,0.75731 -1.89081,2.88776 -2.64532,3.66035c-0.72865,0.74613 -2.9035,1.32998 1.53502,1.32998c0.55388,0 1.86138,1.08635 4.14841,1.65351c2.88595,0.71569 6.96318,0.97314 8.94162,1.2903c5.73817,0.91992 12.9843,0.51549 22.61818,0.74793c7.09169,0.17111 28.4306,-1.15587 35.28,-3.29298c2.49087,-0.77719 1.58575,-1.2486 1.34957,-2.04907c-0.11319,-0.38363 -0.53534,-0.59528 -0.80061,-0.96426c-0.69094,-0.96104 -1.38313,-1.92382 -0.72392,-1.82846c0.92408,0.13367 3.87593,0.61154 5.52132,1.57692c1.84594,1.08304 3.08219,2.67241 3.08219,2.9698z" fill="#142d2b"/><path d="M369.4643,239.73036c0,0.93121 0.64252,3.2532 -2.78026,4.42442c-7.7029,2.63579 -25.05204,4.1331 -38.94966,4.1331c-13.22541,0 -27.32323,-0.77895 -34.87786,-3.22577c-3.91151,-1.26687 -5.50593,-4.10687 -5.50593,-5.13944c0,-1.13558 1.53964,-4.0893 6.20583,-4.69366c2.57986,-0.33414 3.53449,-0.90898 3.28525,-0.22292c-0.25516,0.70234 -1.75357,2.67816 -2.45332,3.39467c-0.67576,0.69196 -2.69275,1.23344 1.4236,1.23344c0.51368,0 1.72628,1.0075 3.84731,1.53349c2.67648,0.66375 6.45776,0.90251 8.29259,1.19666c5.32167,0.85315 12.04185,0.47807 20.97646,0.69364c6.57694,0.15868 26.36698,-1.07196 32.71922,-3.05396c2.31007,-0.72078 1.47064,-1.15797 1.25162,-1.90033c-0.10497,-0.35579 -0.49648,-0.55208 -0.7425,-0.89428c-0.64078,-0.89128 -1.28274,-1.78419 -0.67138,-1.69575c0.85701,0.12397 3.5946,0.56716 5.12056,1.46245c1.71196,1.00443 2.85848,2.47843 2.85848,2.75424z" fill="#2c4c45"/><path d="M301.80542,310.71397l0.11234,-31.45523l3.81956,0.5617v27.74801z" fill="#466862"/><path d="M301.46839,310.93865l3.9319,-3.48254c0,0 5.84452,1.72132 9.45478,2.04145c3.95919,0.35106 13.35027,-0.01933 13.35027,-0.01933l0.33702,4.15658c0,0 -12.68062,0.65817 -17.64255,0.16404c-3.66115,-0.36459 -9.43142,-2.8602 -9.43142,-2.8602z" fill="#142d2b"/><path d="M311.12965,299.25528c0,0 2.46185,-5.10835 3.55914,-7.03378c0.76445,-1.3414 2.39489,-3.41384 2.39489,-3.41384c0,0 1.45025,2.29227 2.2374,3.76453c1.11709,2.08938 3.82897,7.58182 3.82897,7.58182c0,0 -5.07128,0.42402 -7.20952,0.26415c-1.81552,-0.13574 -4.81088,-1.16288 -4.81088,-1.16288z" fill="#d4ecfe"/></g><g stroke="none" stroke-width="0" stroke-linecap="butt"><path d="M450.90076,360.44198v-83.5012h14.01776v83.5012z" fill="#1b312f"/><path d="M388.81021,360.89216v-83.5012h14.01776v83.5012z" fill="#1b312f"/><path d="M400.13225,360.43925c0,0 0.25106,-39.17572 0.25106,-57.83968c0,-0.72985 -5.47367,-6.41611 -9.52504,-12.84931c-4.85359,-7.70705 -8.43075,-16.37557 -8.43311,-17.38585c-0.00884,-3.78942 4.61978,-8.68751 8.10253,-10.66914c8.26811,-4.70443 9.60455,-7.30553 9.60455,-7.30553l46.61494,16.00679c0,0 10.58936,-7.56697 17.72087,-6.9713c0.63878,0.05336 2.70296,1.4146 4.06585,3.21132c1.59445,2.10199 2.46049,4.70635 2.45827,5.0943c-0.00182,0.31645 -0.93996,4.18217 -2.57792,7.95664c-1.29405,2.98198 -3.26081,5.907 -3.90927,6.97988c-4.74744,7.85464 -11.35554,15.43041 -11.35554,16.31335c0,18.36723 0.62767,57.45857 0.62767,57.45857z" fill="#0a1d1e"/><path d="M439.16852,295.21914c0,1.85634 -3.91107,20.44365 -12.31161,20.45786c-7.93481,0.01342 -12.26404,-17.72646 -12.26404,-20.35373c0,-6.95891 5.19993,-4.06123 11.87129,-4.06123c6.67135,0 12.70435,-3.00182 12.70435,3.9571z" fill="#1b312f"/><path d="M400.60432,274.23291c0,0 -6.71033,-15.40433 -8.19789,-21.46899c-1.03595,-4.22352 0.1264,-11.43787 0.1264,-11.43787c0,0 23.20068,-7.11702 34.87697,-7.11702c11.77844,0 35.48991,7.11702 35.48991,7.11702c0,0 0.30062,7.97075 -1.25471,12.57572c-1.89535,5.61173 -9.30032,18.67546 -9.30032,18.67546z" fill="#000000"/><path d="M468.07374,249.19058c0,4.64363 -2.4655,16.92399 -9.1219,27.10174c-7.92584,12.11873 -21.22225,22.36204 -32.37386,22.36204c-10.58952,0 -23.56498,-9.96968 -31.2391,-21.81755c-7.19445,-11.10733 -9.42882,-23.96565 -9.42882,-28.88798c0,-10.17284 20.97862,23.80056 41.49577,23.80056c20.51715,0 40.66793,-32.73164 40.66793,-22.55879z" fill="#304d47"/><path d="M392.50412,248.18454c0,2.49426 27.9336,17.56358 35.42253,23.24858c0.15363,0.11662 6.52482,-2.97339 13.83818,-8.39564c7.21876,-5.35212 15.34712,-13.01839 20.5894,-15.76952c0.51054,-0.26793 -1.19913,-1.0057 -1.12527,-2.08377c0.08858,-1.29291 1.95736,-2.93254 2.75125,-2.92068c0.60286,0.00901 2.96938,0.60418 4.06298,1.77084c1.10395,1.17769 0.93244,2.92844 0.98641,3.25522c0.22631,1.37046 -3.64502,4.47913 -3.84109,4.71674c-0.66379,0.80442 -14.99388,12.26918 -27.4295,19.79461c-7.49464,4.53539 -15.33805,6.60309 -16.15451,6.97664c-3.10144,1.41896 -10.16916,1.24771 -10.5987,1.3487c-0.29864,0.07022 2.87736,-1.90602 6.3123,-3.50596c3.88971,-1.81176 8.11148,-3.2789 7.99576,-3.2789c-2.00488,0 -19.4822,-8.16664 -30.67597,-16.04965c-6.12827,-4.31572 -9.46101,-9.8007 -9.46101,-10.89831c0,-3.10249 3.49203,-5.2919 6.59452,-5.2919c3.10249,0 0.73272,3.98052 0.73272,7.083z" fill="#779295"/></g></g></g></svg>