<svg version="1.1" xmlns="http://www.w3.org/2000/svg" xmlns:xlink="http://www.w3.org/1999/xlink" width="34.17311" height="34.17311" viewBox="0,0,34.17311,34.17311"><g transform="translate(-222.91346,-162.91346)"><g data-paper-data="{&quot;isPaintingLayer&quot;:true}" stroke-miterlimit="10" stroke-dasharray="" stroke-dashoffset="0" style="mix-blend-mode: normal"><path d="M229.98313,162.91347h20.03379c3.9166,0 7.06966,3.15307 7.06966,7.06966v20.03379c0,3.91659 -3.15306,7.06966 -7.06966,7.06966h-20.03379c-3.91659,0 -7.06966,-3.15307 -7.06966,-7.06966v-20.03379c0,-3.91659 3.15307,-7.06966 7.06966,-7.06966z" fill-opacity="0.13218" fill="#1a1a1a" fill-rule="evenodd" stroke="none" stroke-width="4.43922" stroke-linecap="round" stroke-linejoin="round"/><path d="M226.36495,185.3662c0,0 -0.48259,-2.15535 0.0628,-4.66181c1.57247,-7.22662 10.49808,-19.47535 21.79902,-13.67608c9.35023,4.79824 5.34852,17.73816 -0.06472,23.23388c-3.00767,3.05348 -5.27689,4.22153 -5.27689,4.22153c0,0 -3.39876,-2.73606 -7.9607,-5.25379c-4.56194,-2.51773 -8.55952,-3.86371 -8.55952,-3.86371z" fill="#ffffff" fill-rule="nonzero" stroke="none" stroke-width="0" stroke-linecap="butt" stroke-linejoin="miter"/><path d="M231.85948,174.86053c1.39312,-2.23851 4.33714,-2.92384 6.57567,-1.53072c2.23851,1.39312 2.92385,4.33714 1.53072,6.57567c-1.39312,2.23851 -4.33714,2.92384 -6.57567,1.53071c-2.23851,-1.39312 -2.92384,-4.33714 -1.53072,-6.57566z" fill="#ffffff" fill-rule="nonzero" stroke="#bfbfbf" stroke-width="2" stroke-linecap="butt" stroke-linejoin="miter"/><path d="M240.28745,180.01904c1.39312,-2.23851 4.33714,-2.92384 6.57566,-1.53071c2.23851,1.39312 2.92384,4.33713 1.53072,6.57566c-1.39312,2.23851 -4.33714,2.92385 -6.57567,1.53072c-2.23851,-1.39312 -2.92384,-4.33714 -1.53071,-6.57567z" fill="#ffffff" fill-rule="nonzero" stroke="#bfbfbf" stroke-width="2" stroke-linecap="butt" stroke-linejoin="miter"/><path d="M240.48944,170.42826c1.39312,-2.23851 4.33714,-2.92384 6.57566,-1.53072c2.23851,1.39312 2.92384,4.33714 1.53072,6.57567c-1.39312,2.23851 -4.33714,2.92384 -6.57567,1.53071c-2.23851,-1.39312 -2.92384,-4.33714 -1.53071,-6.57566z" fill="#ffffff" fill-rule="nonzero" stroke="#bfbfbf" stroke-width="2" stroke-linecap="butt" stroke-linejoin="miter"/><path d="M233.21082,192.06954c-1.465,-0.97155 -3.06624,-14.38775 -3.06624,-14.38775c0,0 1.33934,2.24941 3.11423,3.30211c0.9218,0.54673 3.81538,0.18739 5.60769,1.07169c1.69058,0.83411 0.87649,2.85295 2.26918,3.84877c2.1325,1.5248 6.1091,1.91963 6.1091,1.91963c0,0 -11.85888,5.68803 -14.03396,4.24556z" fill="#bfbfbf" fill-rule="nonzero" stroke="none" stroke-width="0" stroke-linecap="butt" stroke-linejoin="miter"/></g></g></svg>