<svg version="1.1" xmlns="http://www.w3.org/2000/svg" xmlns:xlink="http://www.w3.org/1999/xlink" width="35.14907" height="35.14876" viewBox="0,0,35.14907,35.14876"><g transform="translate(-222.41345,-162.41345)"><g data-paper-data="{&quot;isPaintingLayer&quot;:true}" stroke-miterlimit="10" stroke-dasharray="" stroke-dashoffset="0" style="mix-blend-mode: normal"><path d="M229.48312,162.41346h20.03379c3.9166,0 7.06966,3.15307 7.06966,7.06966v20.03379c0,3.91659 -3.15306,7.06966 -7.06966,7.06966h-20.03379c-3.91659,0 -7.06966,-3.15307 -7.06966,-7.06966v-20.03379c0,-3.91659 3.15307,-7.06966 7.06966,-7.06966z" fill-opacity="0.59677" fill="#5e807a" fill-rule="evenodd" stroke="none" stroke-width="4.43922" stroke-linecap="round" stroke-linejoin="round"/><g fill-rule="nonzero" stroke-width="0.5" stroke-linejoin="miter"><path d="M237.693,190.57894c-1.25742,2.88753 -4.60406,4.21487 -7.47493,2.96471c-2.87087,-1.25017 -4.17882,-4.60443 -2.9214,-7.49196c1.25742,-2.88753 4.60406,-4.21488 7.47493,-2.96471c2.87087,1.25017 4.17882,4.60443 2.9214,7.49196z" fill="#e18300" stroke="#000000" stroke-linecap="butt"/><path d="M228.73726,183.85185c0,0 -1.5431,-3.55377 -2.46484,-7.71606c-1.03157,-4.65827 -1.36911,-10.02525 0.41909,-10.95472c1.15421,-0.59994 2.3584,1.18915 2.3584,1.18915c0,0 -1.27898,0.43116 -1.44677,2.104c-0.14594,1.455 0.80268,4.07585 0.96056,5.31106c0.35781,2.79941 2.58074,8.97212 2.58074,8.97212z" fill="#98b3c1" stroke="#000000" stroke-linecap="round"/><path d="M226.12206,166.16659l1.62998,0.82884" fill="none" stroke="#6d838b" stroke-linecap="round"/><path d="M227.33019,168.65683l-1.60893,-0.04592" fill="none" stroke="#6d838b" stroke-linecap="round"/><path d="M227.278,170.30065l-1.40645,0.45889" fill="none" stroke="#6d838b" stroke-linecap="round"/><path d="M226.08759,172.34161l1.71036,0.09009" fill="none" stroke="#6d838b" stroke-linecap="round"/><path d="M228.10076,174.23011l-1.91358,0.23805" fill="none" stroke="#6d838b" stroke-linecap="round"/><path d="M228.64323,175.47817l-2.26932,0.91641" fill="none" stroke="#6d838b" stroke-linecap="round"/><path d="M226.80707,178.30927l2.4286,-0.72801" fill="none" stroke="#6d838b" stroke-linecap="round"/><path d="M229.55312,179.20749l-2.11718,0.98267" fill="none" stroke="#6d838b" stroke-linecap="round"/><path d="M228.04303,182.12107l2.37075,-0.87225" fill="none" stroke="#6d838b" stroke-linecap="round"/><path d="M228.70833,183.77974c0,0 -1.5431,-3.55377 -2.46484,-7.71606c-1.03157,-4.65827 -1.36912,-10.02524 0.41909,-10.95472c1.15421,-0.59994 2.3584,1.18915 2.3584,1.18915c0,0 -1.27899,0.43116 -1.44677,2.104c-0.14594,1.45499 0.80269,4.07584 0.96056,5.31106c0.35781,2.79941 2.58074,8.97211 2.58074,8.97211z" fill="none" stroke="#000000" stroke-linecap="round"/><path d="M237.58403,185.44257c0,0 6.03331,-2.57739 8.3265,-4.22238c1.01186,-0.72584 3.57678,-1.81666 4.54258,-2.91463c1.11039,-1.26236 0.03303,-2.54108 0.03303,-2.54108c0,0 2.65187,-0.28847 2.99889,0.96521c0.53764,1.9423 -3.62147,5.35113 -7.73451,7.7691c-3.67511,2.16052 -7.32799,3.45162 -7.32799,3.45162z" data-paper-data="{&quot;index&quot;:null}" fill="#98b3c1" stroke="#000000" stroke-linecap="round"/><path d="M253.15144,177.81793l-1.99249,-0.6891" data-paper-data="{&quot;index&quot;:null}" fill="none" stroke="#6d838b" stroke-linecap="round"/><path d="M250.50533,178.62979l1.12961,1.14662" data-paper-data="{&quot;index&quot;:null}" fill="none" stroke="#6d838b" stroke-linecap="round"/><path d="M249.95955,181.13002l-0.62211,-1.34226" data-paper-data="{&quot;index&quot;:null}" fill="none" stroke="#6d838b" stroke-linecap="round"/><path d="M247.42312,180.85875l1.23104,1.19079" data-paper-data="{&quot;index&quot;:null}" fill="none" stroke="#6d838b" stroke-linecap="round"/><path d="M247.02947,183.42524l-1.12924,-1.5631" data-paper-data="{&quot;index&quot;:null}" fill="none" stroke="#6d838b" stroke-linecap="round"/><path d="M245.49192,184.60079l-0.87494,-2.28563" data-paper-data="{&quot;index&quot;:null}" fill="none" stroke="#6d838b" stroke-linecap="round"/><path d="M243.7951,185.58796l-1.12137,-2.2739" data-paper-data="{&quot;index&quot;:null}" fill="none" stroke="#6d838b" stroke-linecap="round"/><path d="M241.98973,186.4088l-0.72279,-2.21938" data-paper-data="{&quot;index&quot;:null}" fill="none" stroke="#6d838b" stroke-linecap="round"/><path d="M239.18619,184.94988l0.97637,2.3298" data-paper-data="{&quot;index&quot;:null}" fill="none" stroke="#6d838b" stroke-linecap="round"/><path d="M237.65653,185.41463c0,0 6.03331,-2.57739 8.3265,-4.22238c1.01186,-0.72584 3.57678,-1.81666 4.54257,-2.91463c1.11039,-1.26236 -0.11198,-2.48518 -0.11198,-2.48518c0,0 2.79687,-0.34436 3.14389,0.90931c0.53764,1.9423 -3.62147,5.35113 -7.73451,7.7691c-3.67511,2.16052 -7.32799,3.45162 -7.32799,3.45162z" data-paper-data="{&quot;index&quot;:null}" fill="none" stroke="#000000" stroke-linecap="round"/><path d="M233.2511,182.84595c-0.01672,-0.28605 0.27183,-0.29978 0.27183,-0.29978l0.20555,0.00033c2.36147,0.52854 3.77563,2.52942 4.31037,4.72115c0.61959,1.61047 -0.17132,4.38832 -1.69584,5.29068c-0.04657,0.03941 -0.11259,0.071 -0.20017,0.0588c-0.05567,-0.00169 -0.11747,-0.01995 -0.17223,-0.07433c-0.0603,-0.04827 -0.08514,-0.1073 -0.09272,-0.16202c-0.02296,-0.09093 0.00682,-0.16287 0.04507,-0.21371c0.02605,-1.19388 -0.25995,-2.46355 -0.11103,-3.63178c0.06521,-1.93003 -1.11704,-3.89446 -2.32628,-5.32314c0,0 -0.04025,-0.04761 -0.06121,-0.1169c-0.07845,-0.02965 -0.16443,-0.09696 -0.17334,-0.24929z" fill="#d65605" stroke="none" stroke-linecap="butt"/><path d="M237.693,190.57894c-1.25742,2.88753 -4.60406,4.21487 -7.47493,2.96471c-2.87087,-1.25017 -4.17882,-4.60443 -2.9214,-7.49196c1.25742,-2.88753 4.60406,-4.21488 7.47493,-2.96471c2.87087,1.25017 4.17882,4.60443 2.9214,7.49196z" fill="none" stroke="#000000" stroke-linecap="butt"/></g><path d="M257.56252,169.83175v20.49804c0,4.00745 -3.22497,7.23243 -7.23242,7.23243h-20.5c-3.66107,0 -6.66147,-2.69385 -7.1543,-6.21484c0.7952,3.03475 3.54108,5.26367 6.83204,5.26367h20.0332c3.9166,0 7.07032,-3.15372 7.07032,-7.07031v-20.03321c0,-3.2976 -2.23906,-6.0451 -5.28321,-6.83398c3.52994,0.48496 6.23438,3.49081 6.23438,7.15821z" fill-opacity="0.50151" fill="#000000" fill-rule="evenodd" stroke="none" stroke-width="4.54219" stroke-linecap="round" stroke-linejoin="round"/></g></g></svg>