<svg version="1.1" xmlns="http://www.w3.org/2000/svg" xmlns:xlink="http://www.w3.org/1999/xlink" width="104.71084" height="55.85714" viewBox="0,0,104.71084,55.85714"><g transform="translate(-187.64458,-152.07143)"><g data-paper-data="{&quot;isPaintingLayer&quot;:true}" fill-rule="nonzero" stroke-width="0" stroke-linecap="butt" stroke-linejoin="miter" stroke-miterlimit="10" stroke-dasharray="" stroke-dashoffset="0" style="mix-blend-mode: normal"><path d="M187.64458,207.92857v-55.85714h104.71084v55.85714z" data-paper-data="{&quot;index&quot;:null}" fill-opacity="0.1" fill="#ffffff" stroke="none"/><g fill="#ffffff"><g data-paper-data="{&quot;index&quot;:null}" stroke="#ffffff"><path d="M230.82748,174.60002h2.11429v12.15721h-1.42715v-10.41292l-4.26383,10.41292h-1.33906l-4.26383,-10.41292v10.41292h-1.42715v-12.15721h2.11429l4.24621,10.34244z"/><path d="M245.34401,174.60002l-4.70432,6.92432v5.23289h-1.42715v-5.19765l-4.72193,-6.95957h1.62096l3.80574,5.72622l3.82336,-5.72622z"/><path d="M262.14276,174.60002h2.11429v12.15721h-1.42715v-10.41292l-4.26383,10.41292h-1.33906l-4.26383,-10.41292v10.41292h-1.42715v-12.15721h2.11429l4.24621,10.34244z"/><path d="M268.44877,174.60002v12.15721h-1.42715v-12.15721z"/><path d="M281.19237,186.75724h-1.69144l-3.75288,-5.23289l-3.75288,5.23289h-1.70906l4.49289,-6.16671l-4.35193,-5.99051h1.70906l3.61193,5.07432l3.61193,-5.07432h1.69144l-4.35193,5.99051z"/></g><g stroke="none"><path d="M211.08986,184.1721c0,1.84428 -2.57125,2.44888 -5.74303,2.44888c-3.17179,0 -5.74303,-0.60459 -5.74303,-2.44888c0,-1.84428 2.57124,-3.33937 5.74303,-3.33937c3.17179,0 5.74303,1.49509 5.74303,3.33937z"/><path d="M202.40749,177.48639c0,-1.59839 1.29574,-2.89412 2.89413,-2.89412c1.59839,0 2.89412,1.29574 2.89412,2.89412c0,1.59839 -1.29574,2.89413 -2.89412,2.89413c-1.59839,0 -2.89413,-1.29574 -2.89413,-2.89412z"/></g></g></g></g></svg>