<svg version="1.1" xmlns="http://www.w3.org/2000/svg" xmlns:xlink="http://www.w3.org/1999/xlink" width="34.17311" height="34.17311" viewBox="0,0,34.17311,34.17311"><defs><linearGradient x1="226.35186" y1="177.29898" x2="239.66831" y2="181.29392" gradientUnits="userSpaceOnUse" id="color-1"><stop offset="0" stop-color="#000000" stop-opacity="0"/><stop offset="1" stop-color="#000000" stop-opacity="0"/></linearGradient><linearGradient x1="248.72951" y1="190.03226" x2="238.75251" y2="180.34996" gradientUnits="userSpaceOnUse" id="color-2"><stop offset="0" stop-color="#000000" stop-opacity="0"/><stop offset="1" stop-color="#000000" stop-opacity="0"/></linearGradient><linearGradient x1="228.25182" y1="178.12643" x2="242.1546" y2="178.12643" gradientUnits="userSpaceOnUse" id="color-3"><stop offset="0" stop-color="#000000" stop-opacity="0"/><stop offset="1" stop-color="#000000" stop-opacity="0"/></linearGradient><linearGradient x1="248.66797" y1="188.1133" x2="240.36087" y2="177.28831" gradientUnits="userSpaceOnUse" id="color-4"><stop offset="0" stop-color="#000000" stop-opacity="0"/><stop offset="1" stop-color="#000000" stop-opacity="0"/></linearGradient></defs><g transform="translate(-222.91346,-162.91346)"><g data-paper-data="{&quot;isPaintingLayer&quot;:true}" stroke-miterlimit="10" stroke-dasharray="" stroke-dashoffset="0" style="mix-blend-mode: normal"><path d="M229.98313,162.91347h20.03379c3.9166,0 7.06966,3.15307 7.06966,7.06966v20.03379c0,3.91659 -3.15306,7.06966 -7.06966,7.06966h-20.03379c-3.91659,0 -7.06966,-3.15307 -7.06966,-7.06966v-20.03379c0,-3.91659 3.15307,-7.06966 7.06966,-7.06966z" fill-opacity="0.13218" fill="#1a1a1a" fill-rule="evenodd" stroke="none" stroke-width="4.43922" stroke-linecap="round" stroke-linejoin="round"/><path d="M239.66831,181.29392c-1.35625,4.52084 -7.52212,5.66941 -11.19937,4.56623c-3.67725,-1.10317 -3.47334,-4.04035 -2.11707,-8.56119c1.35625,-4.52084 3.45281,-8.1247 3.45281,-8.1247c0,0 0.48377,3.09036 2.97152,5.34089c2.80242,2.5352 7.61058,4.3839 6.89211,6.77877z" fill="#ffffff" fill-rule="nonzero" stroke="url(#color-1)" stroke-width="0" stroke-linecap="butt" stroke-linejoin="miter"/><path d="M254.14218,183.05832c0,0 -2.1256,3.58683 -5.41267,6.97394c-3.28707,3.38714 -5.75265,4.99631 -8.50772,2.32261c-2.75507,-2.6737 -4.75634,-8.6178 -1.46928,-12.00491c1.64564,-1.69574 5.3833,0.7477 8.82318,1.85066c3.43108,1.10016 6.56649,0.85769 6.56649,0.85769z" data-paper-data="{&quot;index&quot;:null}" fill="#ffffff" fill-rule="nonzero" stroke="url(#color-2)" stroke-width="0" stroke-linecap="butt" stroke-linejoin="miter"/><path d="M252.34016,182.26454c-2.37887,1.44058 -5.74588,-0.69774 -12.1314,-3.65973c-6.17761,-2.86555 -11.09899,-7.10029 -8.72012,-8.54086c2.37887,-1.44058 8.97508,0.12278 14.73307,3.49188c5.75797,3.3691 8.49733,7.26812 6.11845,8.70871z" fill="none" fill-rule="nonzero" stroke="#bfbfbf" stroke-width="3" stroke-linecap="butt" stroke-linejoin="miter"/><path d="M241.33214,180.12385c0,3.64719 -2.28978,4.60642 -6.12893,4.60642c-3.83915,0 -6.95139,-2.95665 -6.95139,-6.60384c0,-3.64719 0.69513,-7.18311 0.69513,-7.18311c0,0 12.38519,5.53333 12.38519,9.18052z" fill="#bfbfbf" fill-rule="nonzero" stroke="url(#color-3)" stroke-width="0" stroke-linecap="butt" stroke-linejoin="miter"/><path d="M253.84552,183.28004c0,0 -2.33778,2.65401 -5.17755,4.83324c-2.83978,2.17925 -7.00149,1.52261 -9.29544,-1.46662c-2.29395,-2.98924 -2.55643,-5.53418 0.28334,-7.71343c2.83977,-2.17925 14.18962,4.3468 14.18962,4.3468z" data-paper-data="{&quot;index&quot;:null}" fill="#bfbfbf" fill-rule="nonzero" stroke="url(#color-4)" stroke-width="0" stroke-linecap="butt" stroke-linejoin="miter"/><path d="M247.70085,184.62145c-0.47632,0.72128 -4.96694,1.11712 -9.46745,-1.5264c-4.72204,-2.77366 -6.27409,-6.21491 -5.79776,-6.93619c0.47632,-0.72128 1.78807,1.79665 6.1435,4.67293c4.35544,2.87628 9.59802,3.0684 9.1217,3.78966z" fill="#ffffff" fill-rule="nonzero" stroke="none" stroke-width="0" stroke-linecap="butt" stroke-linejoin="miter"/></g></g></svg>