<svg version="1.1" xmlns="http://www.w3.org/2000/svg" xmlns:xlink="http://www.w3.org/1999/xlink" width="38.19044" height="38.19044" viewBox="0,0,38.19044,38.19044"><g transform="translate(-220.9048,-160.90479)"><g data-paper-data="{&quot;isPaintingLayer&quot;:true}" stroke="none" stroke-miterlimit="10" stroke-dasharray="" stroke-dashoffset="0" style="mix-blend-mode: normal"><path d="M259.09524,180.00002c0,10.54601 -8.54924,19.09522 -19.09522,19.09522c-10.54601,0 -19.09522,-8.54922 -19.09522,-19.09522c0,-10.54601 8.54922,-19.09522 19.09522,-19.09522c10.54601,0 19.09522,8.54922 19.09522,19.09522" fill="#828282" fill-rule="evenodd" stroke-width="0.07853" stroke-linecap="round" stroke-linejoin="round"/><g fill-rule="nonzero" stroke-width="1" stroke-linecap="butt" stroke-linejoin="miter"><path d="M220.90481,180.00002c0,-10.546 8.54922,-19.09522 19.09522,-19.09522c10.546,0 19.09522,8.54923 19.09522,19.09522c0,10.546 -8.54923,19.09522 -19.09522,19.09522c-10.546,0 -19.09522,-8.54923 -19.09522,-19.09522z" fill="none"/><g fill="#ffffff"><g><g><path d="M245.85589,175.54447h-11.64809c-0.50921,0 -0.95476,-0.44556 -0.95476,-0.95476c0,-0.50921 0.44555,-0.95476 0.95476,-0.95476h11.64809c0.50921,0 0.95476,0.44556 0.95476,0.95476c0,0.50921 -0.44555,0.95476 -0.95476,0.95476z"/></g><g><path d="M245.85589,180.95478h-11.64809c-0.50921,0 -0.95476,-0.44555 -0.95476,-0.95476c0,-0.50921 0.44555,-0.95476 0.95476,-0.95476h11.64809c0.50921,0 0.95476,0.44555 0.95476,0.95476c0,0.50921 -0.44555,0.95476 -0.95476,0.95476z"/></g><g><path d="M245.85589,186.36509h-11.64809c-0.50921,0 -0.95476,-0.44556 -0.95476,-0.95476c0,-0.50921 0.44555,-0.95476 0.95476,-0.95476h11.64809c0.50921,0 0.95476,0.44556 0.95476,0.95476c0,0.50921 -0.44555,0.95476 -0.95476,0.95476z"/></g></g></g></g></g></g></svg>