<svg version="1.1" xmlns="http://www.w3.org/2000/svg" xmlns:xlink="http://www.w3.org/1999/xlink" width="183.34483" height="283.45164" viewBox="0,0,183.34483,283.45164"><g transform="translate(-149.64283,-25.04837)"><g data-paper-data="{&quot;isPaintingLayer&quot;:true}" fill-rule="nonzero" stroke-linejoin="miter" stroke-miterlimit="10" stroke-dasharray="" stroke-dashoffset="0" style="mix-blend-mode: normal"><g stroke="#000000" stroke-linecap="butt"><path d="M206.75001,307.5l15.14285,-131.8421l37.78325,-0.15789l13.57389,132z" fill="#ffffff" stroke-width="2"/><path d="M219.70025,204.11263l3.12142,-26.32765l35.83075,-0.14203l2.76735,26.1059c0,0 -7.51543,4.19603 -21.55904,4.50964c-12.48458,0.27879 -20.16049,-4.14586 -20.16049,-4.14586z" fill="#e6e6e6" stroke-width="0"/></g><g><path d="M177.54173,136.46249l-11.56543,-108.98528l62.49542,54.509" fill="#ffffff" stroke="#000000" stroke-width="2" stroke-linecap="round"/><path d="M252.80963,81.98622l62.49542,-54.509l-11.56544,108.98528" data-paper-data="{&quot;index&quot;:null}" fill="#ffffff" stroke="#000000" stroke-width="2" stroke-linecap="round"/><path d="M203.81525,186.50561l-34,-2l16,-20.33333l-33,-6.66667l25.66667,-12" fill="#ffffff" stroke="#000000" stroke-width="2" stroke-linecap="round"/><path d="M203.14858,185.67228l-31.37398,-1.84553l15.63923,-20.38787l-30.99288,-6.3601l4.51761,-2.36484l26.44339,8.75181l-12.48699,16.30706z" fill="#e6e6e6" stroke="none" stroke-width="0" stroke-linecap="round"/><path d="M304.14858,145.50561l25.66667,12l-33,6.66667l16,20.33333l-34,2" data-paper-data="{&quot;index&quot;:null}" fill="#ffffff" stroke="#000000" stroke-width="2" stroke-linecap="round"/><path d="M307.84123,179.77281l-12.48699,-16.30706l26.44338,-8.75181l4.51761,2.36484l-30.99288,6.3601l15.63923,20.38787l-31.37399,1.84553z" data-paper-data="{&quot;index&quot;:null}" fill="#e6e6e6" stroke="none" stroke-width="0" stroke-linecap="round"/><path d="M176.68009,138.80539c0,-33.30185 28.7599,-60.29833 64.23702,-60.29833c35.47713,0 64.23702,26.99648 64.23702,60.29833c0,33.30185 -28.75989,60.29834 -64.23702,60.29834c-35.47712,0 -64.23702,-26.99649 -64.23702,-60.29834z" fill="#ffffff" stroke="#000000" stroke-width="2" stroke-linecap="butt"/><path d="M240.84056,195.63968c22.75803,0.39718 39.31767,-10.24678 38.34372,-9.55603c-10.63726,7.54427 -23.89398,12.02007 -38.26716,12.02007c-14.23449,0 -27.37396,-4.38984 -37.9585,-11.80253c-0.40164,-0.28128 15.12391,8.94132 37.88194,9.33849z" fill="#e6e6e6" stroke="#000000" stroke-width="0" stroke-linecap="butt"/></g><path d="M189.00557,138.97569l-3.6,-2.6" fill="none" stroke="#000000" stroke-width="2" stroke-linecap="round"/><path d="M189.39014,139.27563c0,-12.96801 10.51265,-23.48065 23.48066,-23.48065c12.96801,0 23.48065,10.51264 23.48065,23.48065c0,12.96801 -10.51264,23.48066 -23.48065,23.48066c-12.96801,0 -23.48066,-10.51265 -23.48066,-23.48066z" fill="#ffffff" stroke="#000000" stroke-width="2" stroke-linecap="butt"/><path d="M290.1389,138.77569l4.2,-3.4" fill="none" stroke="#000000" stroke-width="2" stroke-linecap="round"/><path d="M267.12924,162.75629c-12.96801,0 -23.48065,-10.51265 -23.48065,-23.48066c0,-12.96801 10.51264,-23.48065 23.48065,-23.48065c12.96801,0 23.48066,10.51264 23.48066,23.48065c0,12.96801 -10.51265,23.48066 -23.48066,23.48066z" data-paper-data="{&quot;index&quot;:null}" fill="#ffffff" stroke="#000000" stroke-width="2" stroke-linecap="butt"/><path d="M202.02783,96.81717c0,0 6.70895,-5.16922 11.79721,-6.36355c5.08827,-1.19433 12.33413,0.69937 12.33413,0.69937c0,0 -8.03812,-0.06028 -11.96762,0.86207c-4.10648,0.96389 -12.16372,4.80211 -12.16372,4.80211z" fill="#000000" stroke="none" stroke-width="0" stroke-linecap="butt"/><path d="M265.96236,92.01507c-3.9295,-0.92235 -11.96762,-0.86207 -11.96762,-0.86207c0,0 7.24586,-1.8937 12.33413,-0.69937c5.08826,1.19433 11.79721,6.36355 11.79721,6.36355c0,0 -8.05724,-3.83822 -12.16372,-4.80211z" data-paper-data="{&quot;index&quot;:null}" fill="#000000" stroke="none" stroke-width="0" stroke-linecap="butt"/><path d="M249.35202,180c0,5.65995 -4.18703,10.24824 -9.35202,10.24824c-5.16499,0 -9.35202,-4.58829 -9.35202,-10.24824c0,-5.65995 4.18703,-10.24824 9.35202,-10.24824c5.16499,0 9.35202,4.58829 9.35202,10.24824z" fill="#000000" stroke="none" stroke-width="0" stroke-linecap="butt"/><path d="M199.15961,139.32006c0,-7.64788 6.13866,-13.84771 13.71111,-13.84771c7.57244,0 13.71112,6.19983 13.71112,13.84773c0,7.64788 -6.13867,13.84773 -13.71112,13.84773c-7.57244,0 -13.71111,-6.19983 -13.71111,-13.84773z" fill="none" stroke="#000000" stroke-width="5" stroke-linecap="butt"/><path d="M253.41806,139.32006c0,-7.64788 6.13866,-13.84771 13.71111,-13.84771c7.57244,0 13.71112,6.19983 13.71112,13.84773c0,7.64788 -6.13867,13.84773 -13.71112,13.84773c-7.57244,0 -13.71111,-6.19983 -13.71111,-13.84773z" fill="none" stroke="#000000" stroke-width="5" stroke-linecap="butt"/><path d="M189.39012,138.9423c0,-12.96801 10.51265,-23.48065 23.48066,-23.48065c12.96801,0 23.48065,10.51264 23.48065,23.48065c0,0 -7.7034,-16.72633 -23.92315,-16.61577c-15.92464,0.10855 -23.03816,17.22381 -23.03816,16.61577z" fill="#ffffff" stroke="#000000" stroke-width="2" stroke-linecap="butt"/><path d="M267.57172,122.65986c-16.21975,-0.11056 -23.92315,16.61577 -23.92315,16.61577c0,-12.96801 10.51264,-23.48065 23.48065,-23.48065c12.96801,0 23.48066,10.51264 23.48066,23.48065c0,0.60804 -7.11352,-16.50722 -23.03816,-16.61577z" data-paper-data="{&quot;index&quot;:null}" fill="#ffffff" stroke="#000000" stroke-width="2" stroke-linecap="butt"/></g></g></svg>