<svg version="1.1" xmlns="http://www.w3.org/2000/svg" xmlns:xlink="http://www.w3.org/1999/xlink" width="14.38665" height="23.81414" viewBox="0,0,14.38665,23.81414"><g transform="translate(-239.89762,-170.74301)"><g data-paper-data="{&quot;isPaintingLayer&quot;:true}" fill-rule="nonzero" stroke="none" stroke-linecap="butt" stroke-linejoin="miter" stroke-miterlimit="10" stroke-dasharray="" stroke-dashoffset="0" style="mix-blend-mode: normal"><path d="M252.47598,178.38036c1.13243,1.13243 1.71182,2.5809 1.71182,4.29272c0,1.92251 -0.6584,3.47631 -2.00152,4.71409c-1.34311,1.23777 -3.02859,1.86983 -5.08279,1.86983c-2.02785,0 -3.71334,-0.60572 -5.05646,-1.8435c-1.34312,-1.23777 -2.00151,-2.79157 -2.00151,-4.66142c0,-1.34311 0.39503,-2.60724 1.21145,-3.79234l5.58316,-8.21673h4.08204l-4.58242,6.26789c0.57939,-0.21076 1.21145,-0.31602 1.92251,-0.31602c1.65915,0 3.08127,0.55304 4.21371,1.68549zM250.65882,182.75208c0,-2.08051 -1.47481,-3.55532 -3.55532,-3.55532c-2.08053,0 -3.52899,1.47481 -3.52899,3.55532c0,2.08053 1.50114,3.55533 3.52899,3.55533c2.08051,0 3.55532,-1.4748 3.55532,-3.55533z" fill="#000000" stroke-width="0.35808"/><path d="M239.89762,194.55715v-23.65909h14.38665v23.65909z" fill-opacity="0.00403" fill="#808080" stroke-width="0"/></g></g></svg>