<svg version="1.1" xmlns="http://www.w3.org/2000/svg" xmlns:xlink="http://www.w3.org/1999/xlink" width="35.14904" height="35.14873" viewBox="0,0,35.14904,35.14873"><g transform="translate(-222.41348,-162.41348)"><g data-paper-data="{&quot;isPaintingLayer&quot;:true}" stroke="none" stroke-miterlimit="10" stroke-dasharray="" stroke-dashoffset="0" style="mix-blend-mode: normal"><path d="M229.48315,162.41349h20.03379c3.9166,0 7.06966,3.15307 7.06966,7.06966v20.03379c0,3.91659 -3.15306,7.06966 -7.06966,7.06966h-20.03379c-3.91659,0 -7.06966,-3.15307 -7.06966,-7.06966v-20.03379c0,-3.91659 3.15307,-7.06966 7.06966,-7.06966z" fill-opacity="0.59677" fill="#5e807a" fill-rule="evenodd" stroke-width="4.43922" stroke-linecap="round" stroke-linejoin="round"/><path d="M226.61489,180.30696c0,0 -3.74644,-9.78565 -0.99285,-10.92471c0.99635,-1.1409 3.32173,2.57704 5.83642,4.90015c2.33392,2.15611 4.90387,2.89182 4.90387,2.89182l-1.54293,-10.48705l0.91116,-0.88501c0,0 5.01958,9.31119 8.28071,12.87191c3.21073,3.50569 10.6706,6.56281 10.82137,8.32991c-0.38664,2.85282 -6.90946,2.88082 -6.90946,2.88082l-9.38675,-8.65803z" fill="#5e807a" fill-rule="nonzero" stroke-width="0" stroke-linecap="butt" stroke-linejoin="miter"/><path d="M232.88751,190.02045c0,0 -4.35844,-3.09116 -6.81162,-8.18197c-2.02251,-4.19709 -2.34529,-10.42787 -1.40153,-11.50853c0.99635,-1.1409 3.32173,2.57704 5.8364,4.90015c2.33392,2.15611 4.90387,2.89182 4.90387,2.89182c0,0 -0.59583,-2.83283 -0.74579,-4.63234c-0.16457,-1.97486 0.11402,-6.73972 0.11402,-6.73972c0,0 5.01958,9.3112 8.28071,12.87191c3.21075,3.50569 10.6706,6.56281 10.82136,8.32991c0.13881,1.6268 -4.23468,2.45058 -6.90946,2.88082c-3.13446,0.50417 -10.73786,-0.04226 -10.73786,-0.04226c0,0 3.00328,-6.18046 0.65054,-6.80592c-1.92871,-0.33924 -4.00062,6.03614 -4.00062,6.03614z" fill="#000000" fill-rule="nonzero" stroke-width="0" stroke-linecap="butt" stroke-linejoin="miter"/><path d="M225.94178,181.57107l2.57923,-9.43262l5.07927,4.55383l-3.07292,11.30039c0,0 -1.52838,-1.51549 -2.75925,-3.23399c-1.03913,-1.4508 -1.82633,-3.18761 -1.82633,-3.18761z" fill="#5e807a" fill-rule="nonzero" stroke-width="0" stroke-linecap="butt" stroke-linejoin="miter"/><path d="M240.22649,191.02771l1.956,-13.5765l6.5972,5.69274l-1.08944,7.63373c0,0 -2.50733,0.26231 -3.74056,0.30362c-1.25432,0.04202 -3.7232,-0.05358 -3.7232,-0.05358z" fill="#5e807a" fill-rule="nonzero" stroke-width="0" stroke-linecap="butt" stroke-linejoin="miter"/><path d="M257.56252,169.83175v20.49804c0,4.00745 -3.22497,7.23243 -7.23242,7.23243h-20.5c-3.66107,0 -6.66147,-2.69385 -7.1543,-6.21484c0.7952,3.03475 3.54108,5.26367 6.83204,5.26367h20.0332c3.9166,0 7.07032,-3.15372 7.07032,-7.07031v-20.03321c0,-3.2976 -2.23906,-6.0451 -5.28321,-6.83398c3.52994,0.48496 6.23438,3.49081 6.23438,7.15821z" fill-opacity="0.50151" fill="#000000" fill-rule="evenodd" stroke-width="4.54219" stroke-linecap="round" stroke-linejoin="round"/></g></g></svg>