<svg version="1.1" xmlns="http://www.w3.org/2000/svg" xmlns:xlink="http://www.w3.org/1999/xlink" width="146.09881" height="224.36853" viewBox="0,0,146.09881,224.36853"><g transform="translate(-192.71456,-83.0907)"><g data-paper-data="{&quot;isPaintingLayer&quot;:true}" fill-rule="nonzero" stroke-linejoin="miter" stroke-miterlimit="10" stroke-dasharray="" stroke-dashoffset="0" style="mix-blend-mode: normal"><g><path d="M206.03423,307.45923l15.14285,-131.8421l37.78325,-0.15789l13.57389,132z" fill="#395858" stroke="#000000" stroke-width="0" stroke-linecap="butt"/><path d="M220.58676,223.11263l19.43547,4.41787l22.11638,-4.5394l1.95241,-1.15069l7.17795,50.65863l-32.24809,13l-31.71829,-12.80674l6.62795,-51.53844z" fill="#314b4b" stroke="#314b4b" stroke-width="2" stroke-linecap="round"/><path d="M250.72086,245.43238l-1.33334,13.83333l-10.66666,7.83334l-16.66667,-27.33334z" fill="#ff7c0b" stroke="#ff7c0b" stroke-width="2" stroke-linecap="round"/><path d="M249.1599,246.9649l-1.10569,11.47154l-8.84553,6.49594l-13.82114,-22.66667z" fill="#ffc30a" stroke="#ffc30a" stroke-width="2" stroke-linecap="round"/><path d="M248.17208,247.80839l-0.95122,9.8689l-7.60975,5.58842l-11.89024,-19.5z" fill="#ff9e0a" stroke="#ff9e0a" stroke-width="2" stroke-linecap="round"/><path d="M244.78087,252.69571c0,2.73381 -1.99233,4.95 -4.45,4.95c-2.45766,0 -4.45,-2.21619 -4.45,-4.95c0,-2.73381 1.99234,-4.95 4.45,-4.95c2.45766,0 4.45,2.21619 4.45,4.95z" fill="#ffb50a" stroke="#ff9e0a" stroke-width="2" stroke-linecap="butt"/><path d="M219.76303,173.58197l19.32668,-1.55029l19.10219,2.15029l-18.5077,32.90673z" fill="#243d3d" stroke="#243d3d" stroke-width="2" stroke-linecap="round"/><path d="M264.11113,221.52911l-6.62693,1.69327l-17.6,3.4l-19.2,-4.4l-7.07688,-2.03844l3.44017,-26.211l2.83573,-19.17748l20.00098,38.22692l18.3077,-37.52019z" fill="#385656" stroke="#385656" stroke-width="2" stroke-linecap="round"/></g><g><path d="M236.93626,249.56876l-40.35596,-46.08044l7.6565,-4.73959l33.00287,36.80281z" fill="#1b322d" stroke="none" stroke-width="0" stroke-linecap="butt"/><path d="M266.11047,241.67325l44.72283,-21.05952l5.2087,7.34543l-55.1066,26.74458z" data-paper-data="{&quot;index&quot;:null}" fill="#1b322d" stroke="none" stroke-width="0" stroke-linecap="butt"/><path d="M310.80574,221.24296l13.35831,-27.25839l10.54008,-1.25791l-18.66437,35.28602z" data-paper-data="{&quot;index&quot;:null}" fill="#456761" stroke="none" stroke-width="0" stroke-linecap="butt"/><path d="M255.16969,224.26305l15.34723,8.83016l-9.46306,22.31589l-11.69281,0.69858l-12.93242,-6.02296l-0.41539,-23.98018z" fill="#24433d" stroke="#24433d" stroke-width="2" stroke-linecap="round"/><path d="M206.90401,136.83646c6.61102,-32.63905 40.15779,-53.38888 74.92882,-46.34603c34.77103,7.04284 57.59925,39.21139 50.98822,71.85043c-6.61102,32.63905 -40.15779,53.38888 -74.92882,46.34603c-34.77103,-7.04284 -57.59925,-39.21139 -50.98822,-71.85043z" fill="#ffffff" stroke="#000000" stroke-width="2" stroke-linecap="butt"/><path d="M207.60198,137.03276c0.14452,-0.7135 -5.99797,55.84005 50.79694,68.37933c54.26515,11.98075 73.75422,-44.19113 73.55196,-43.19256c-6.51234,32.15189 -39.62809,52.57789 -73.96608,45.62276c-34.33799,-6.95513 -56.89516,-38.65764 -50.38282,-70.80952z" fill="#e6e6e6" stroke="#000000" stroke-width="0" stroke-linecap="butt"/><path d="M310.98658,189.26641l1.2441,-10.8916l9.04479,-1.37267l11.72133,4.24969l0.61724,10.8482l-14.03501,2.38513z" data-paper-data="{&quot;index&quot;:null}" fill="#22302c" stroke="#22302c" stroke-width="2" stroke-linecap="round"/><path d="M220.09929,139.94734c2.57437,-12.70991 14.96474,-20.92636 27.67464,-18.35199c12.70991,2.57437 20.92636,14.96474 18.35199,27.67464c-2.57437,12.70991 -14.96474,20.92636 -27.67464,18.35199c-12.70991,-2.57437 -20.92636,-14.96474 -18.35199,-27.67464z" fill="#ffffff" stroke="#000000" stroke-width="2" stroke-linecap="butt"/><path d="M227.07877,141.07978c1.81209,-8.94641 10.53356,-14.7299 19.47995,-12.91782c8.94641,1.81209 14.7299,10.53357 12.91782,19.47996c-1.81209,8.94641 -10.53357,14.7299 -19.47996,12.91782c-8.94641,-1.81209 -14.72989,-10.53357 -12.91781,-19.47996z" fill="#000000" stroke="none" stroke-width="0" stroke-linecap="butt"/><path d="M270.3446,239.89636l21.25145,-52.46423l40.56935,-5.83956l-19.96679,39.65199z" data-paper-data="{&quot;index&quot;:null}" fill="#37514d" stroke="none" stroke-width="0" stroke-linecap="butt"/><path d="M249.63976,186.11124l24.60984,4.9847" fill="none" stroke="#000000" stroke-width="2" stroke-linecap="round"/><path d="M291.62984,178.39324c-12.70991,-2.57437 -20.92636,-14.96474 -18.35199,-27.67464c2.57437,-12.70991 14.96474,-20.92636 27.67464,-18.35199c12.70991,2.57437 20.92636,14.96474 18.35199,27.67464c-2.57437,12.70991 -14.96474,20.92636 -27.67464,18.35199z" data-paper-data="{&quot;index&quot;:null}" fill="#ffffff" stroke="#000000" stroke-width="2" stroke-linecap="butt"/><path d="M292.95449,171.28633c-8.9464,-1.81209 -14.72989,-10.53357 -12.91781,-19.47996c1.81209,-8.94641 10.53357,-14.7299 19.47995,-12.91782c8.9464,1.81209 14.72989,10.53357 12.91781,19.47996c-1.81209,8.94641 -10.53357,14.7299 -19.47995,12.91782z" data-paper-data="{&quot;index&quot;:null}" fill="#000000" stroke="none" stroke-width="0" stroke-linecap="butt"/><path d="M220.09929,139.94734c2.57437,-12.70991 14.96474,-20.92636 27.67464,-18.35199c12.70991,2.57437 20.92636,14.96474 18.35199,27.67464c0,0 -46.27114,-8.11563 -46.02665,-9.32265z" fill="#ffffff" stroke="#000000" stroke-width="2" stroke-linecap="butt"/><path d="M273.27786,150.71861c2.57437,-12.70991 14.96474,-20.92636 27.67464,-18.35199c12.70991,2.57437 20.92636,14.96474 18.35199,27.67464c-0.24096,1.18964 -46.02665,-9.32265 -46.02665,-9.32265z" data-paper-data="{&quot;index&quot;:null}" fill="#ffffff" stroke="#000000" stroke-width="2" stroke-linecap="butt"/><path d="M238.20444,114.22104c0,0 7.6016,-3.7345 12.82569,-3.89493c5.2241,-0.16045 11.94981,3.13399 11.94981,3.13399c0,0 -7.86618,-1.65478 -11.90058,-1.53087c-4.2161,0.12949 -12.87492,2.29181 -12.87492,2.29181z" fill="#000000" stroke="none" stroke-width="0" stroke-linecap="butt"/><path d="M301.81979,122.20666c-3.66819,-1.68408 -11.5583,-3.2207 -11.5583,-3.2207c0,0 7.47758,-0.41758 12.22749,1.76308c4.7499,2.18067 10.29913,8.57886 10.29913,8.57886c0,0 -7.13492,-5.36133 -10.96832,-7.12126z" data-paper-data="{&quot;index&quot;:null}" fill="#000000" stroke="none" stroke-width="0" stroke-linecap="butt"/><g stroke-width="7.5" stroke-linecap="round"><path d="M249.56975,115.48478l23.51708,22.07791l-7.29613,48.58373l-35.40732,-21.47503l-0.72203,-4.28666l3.50047,-28.27396z" fill="#ff8300" stroke="#ff8300"/><path d="M314.73626,148.63355l-7.77779,27.40759l-2.33319,3.66783l-40.97319,6.00422l12.18449,-47.5936l30.25477,-11.18646z" data-paper-data="{&quot;index&quot;:null}" fill="#ffa900" stroke="#ffa900"/><path d="M331.95355,149.0406l-5.90893,28.36313l-29.23185,1.5053l21.01194,-29.09541l-9.07436,-20.74657l-34.51931,7.55993l-26.08719,-19.40382l-16.94567,11.92619l3.25049,36.14909l-27.25727,-16.16301l6.22695,-26.41877l10.16972,-34.41498l13.97022,6.40088l42.89713,-6.74689l37.37672,24.97966l16.91698,-1.23834z" fill="#30433d" stroke="#30433d"/></g><path d="M234.0325,175.03403l59.40376,12.03218l-24.68613,53.60932l-33.64062,-7.66789z" fill="#476863" stroke="none" stroke-width="0" stroke-linecap="butt"/><path d="M193.83975,161.604l2.03331,-9.89146l5.62725,-3.33126l14.69719,8.12183l-0.04897,7.57154l-14.08668,2.24701z" fill="#22302c" stroke="#22302c" stroke-width="2" stroke-linecap="round"/><path d="M203.9069,199.18246l-3.06628,-43.78718l35.44104,20.35182l-1.232,57.11859z" fill="#476863" stroke="none" stroke-width="0" stroke-linecap="butt"/><path d="M292.63525,217.74065l14.79634,-29.56983l10.2291,-0.68029l-19.80515,37.0877z" data-paper-data="{&quot;index&quot;:null}" fill="#456761" stroke="none" stroke-width="0" stroke-linecap="butt"/><path d="M196.62253,203.70566l-3.81205,-41.87135l9.15814,4.60715l2.12349,32.99692z" fill="#364c47" stroke="none" stroke-width="0" stroke-linecap="butt"/><path d="M235.76853,175.74123l-35.04004,-20.73126l15.40346,0.29338l23.03722,15.14103z" fill="#2c4c45" stroke="none" stroke-width="0" stroke-linecap="butt"/><path d="M290.80392,181.17597l27.1133,-4.98308l14.30353,5.72372l-40.34545,5.46199z" data-paper-data="{&quot;index&quot;:null}" fill="#5f7f7c" stroke="none" stroke-width="0" stroke-linecap="butt"/><path d="M234.35604,175.58519l3.83709,-5.58426l53.72017,10.88098l0.65272,6.49368z" fill="#446660" stroke="none" stroke-width="0" stroke-linecap="butt"/><path d="M273.88327,212.64212c-1.79273,8.85087 -10.33075,14.59087 -19.07016,12.82071c-8.73942,-1.77016 -14.37083,-10.38017 -12.57809,-19.23103c1.79273,-8.85087 10.33076,-14.59091 19.07016,-12.82076c8.73942,1.77016 14.37083,10.38021 12.57809,19.23107z" fill="#ffc100" stroke="#ffc100" stroke-width="2" stroke-linecap="butt"/><path d="M269.01432,211.65589c-1.26638,6.25215 -7.19775,10.32704 -13.24811,9.10155c-6.05037,-1.2255 -9.92858,-7.28733 -8.66222,-13.53947c1.26638,-6.25215 7.19775,-10.32705 13.24813,-9.10156c6.05037,1.2255 9.92856,7.28732 8.66219,13.53949z" fill="#ffc100" stroke="#ffc100" stroke-width="2" stroke-linecap="butt"/><path d="M264.19489,210.67972c-0.70927,3.50169 -4.0313,5.78394 -7.41997,5.09757c-3.38867,-0.68637 -5.56077,-4.08147 -4.85151,-7.58315c0.70927,-3.50169 4.03131,-5.78394 7.41998,-5.09757c3.38867,0.68637 5.56077,4.08144 4.8515,7.58315z" fill="#ff8300" stroke="#ffc100" stroke-width="2" stroke-linecap="butt"/><path d="M273.81013,236.49097l21.44969,-47.74906l33.89473,-4.8205l-17.92769,35.95222z" data-paper-data="{&quot;index&quot;:null}" fill="#ff8300" stroke="none" stroke-width="0" stroke-linecap="butt"/><path d="M204.60931,197.55824l-2.52443,-40.09478l29.34738,17.63012l1.17829,52.33234z" data-paper-data="{&quot;index&quot;:null}" fill="#ffc100" stroke="none" stroke-width="0" stroke-linecap="butt"/></g></g></g></svg>