<svg version="1.1" xmlns="http://www.w3.org/2000/svg" xmlns:xlink="http://www.w3.org/1999/xlink" width="271.91247" height="71.38137" viewBox="0,0,271.91247,71.38137"><g transform="translate(-134.76553,-145.16912)"><g data-paper-data="{&quot;isPaintingLayer&quot;:true}" fill-rule="nonzero" stroke="none" stroke-width="0" stroke-linecap="butt" stroke-linejoin="miter" stroke-miterlimit="10" stroke-dasharray="" stroke-dashoffset="0" style="mix-blend-mode: normal"><g><path d="M135.42206,172.44343l23.80367,-2.182l19.93556,3.47137l-26.86933,2.6859z" fill="#a7bccd"/><path d="M135.2777,167.38126l21.89771,-21.89203l-4.51826,26.66865z" fill="#ffa300"/><path d="M152.677,171.98043l4.38203,-26.40746l22.25608,23.29392z" data-paper-data="{&quot;index&quot;:null}" fill="#dd5f00"/></g><g><path d="M192.24011,171.96328l23.80367,-2.182l19.45541,4.91183l-30.71055,1.72559z" fill="#a7bccd"/><path d="M190.33518,167.06116l21.89771,-21.89203l-4.51826,26.66865z" fill="#ffa300"/><path d="M207.73448,171.66033c0,0 -2.25092,0.39034 -3.60011,-0.3848c-0.80831,-0.46438 -1.08774,-1.75752 -0.93828,-2.6582c0.78285,-4.71776 8.92041,-23.36446 8.92041,-23.36446l22.25608,23.29392z" data-paper-data="{&quot;index&quot;:null}" fill="#dd5f00"/></g><g><path d="M303.86059,171.41102l39.51152,0.05871l1.50685,6.3843l-41.75863,0.09307z" fill="#a7bccd"/><path d="M301.53039,169.10171l21.89771,-21.89203l-4.51826,26.66865z" fill="#ffa300"/><path d="M318.92969,173.70088c0,0 -17.65916,-2.48291 -17.22951,-5.07211c0.79352,-4.782 21.61153,-21.33534 21.61153,-21.33534l22.25608,23.29392z" data-paper-data="{&quot;index&quot;:null}" fill="#dd5f00"/></g><g><path d="M134.9099,210.85563l23.80367,-2.182l19.93556,3.47137l-26.86933,2.6859z" fill="#a7bccd"/><path d="M134.76554,205.79345l21.89771,-21.89203l-4.51826,26.66865z" fill="#dc5e00"/><path d="M152.16484,210.39262l4.38203,-26.40746l22.25608,23.29392z" data-paper-data="{&quot;index&quot;:null}" fill="#ffa300"/></g><g><path d="M192.75227,209.09507l23.80367,-2.182l19.45541,4.91183l-30.71055,1.72559z" fill="#a7bccd"/><path d="M190.84734,204.19295l21.89771,-21.89203l-4.51826,26.66865z" fill="#dd5f00"/><path d="M208.24665,208.79212c0,0 -2.25092,0.39036 -3.60011,-0.38479c-0.80831,-0.46438 -1.08774,-1.75751 -0.93828,-2.6582c0.78285,-4.71775 8.92041,-23.36447 8.92041,-23.36447l22.25608,23.29392z" data-paper-data="{&quot;index&quot;:null}" fill="#ffa300"/></g><g><path d="M250.12516,206.86504l36.76778,0.05871l0.40936,6.3843l-36.08826,0.09307z" fill="#a7bccd"/><path d="M246.33164,204.55574l21.89771,-21.89203l-4.51826,26.66865z" fill="#dc5e00"/><path d="M263.73094,209.15491c0,0 -12.72044,-2.11709 -12.29079,-4.70629c0.79352,-4.782 16.67281,-21.70118 16.67281,-21.70118l22.25608,23.29392z" data-paper-data="{&quot;index&quot;:null}" fill="#ffa300"/></g><g><path d="M301.69811,207.84363l39.51152,0.05871l1.50686,6.3843l-41.75863,0.09307z" fill="#a7bccd"/><path d="M299.36791,205.53433l21.89771,-21.89203l-4.51826,26.66865z" fill="#ffa300"/><path d="M316.76721,210.13349c0,0 -17.65916,-2.48291 -17.22951,-5.07213c0.79352,-4.782 21.61153,-21.33534 21.61153,-21.33534l22.25608,23.29392z" data-paper-data="{&quot;index&quot;:null}" fill="#ffa300"/></g><g data-paper-data="{&quot;index&quot;:null}"><path d="M396.81997,176.40113l-36.08826,-0.09307l0.40936,-6.3843l36.76778,-0.05871z" fill="#a7bccd"/><path d="M384.32292,172.33237l-4.51826,-26.66865l21.89771,21.89203z" fill="#ffa300"/><path d="M357.66497,169.04137l22.25608,-23.29392c0,0 15.87929,16.91918 16.67281,21.70118c0.42965,2.5892 -12.29079,4.70629 -12.29079,4.70629z" data-paper-data="{&quot;index&quot;:null}" fill="#dc5e00"/></g><g><path d="M249.613,170.75757l36.76778,0.05871l0.40936,6.3843l-36.08826,0.09307z" fill="#a7bccd"/><path d="M245.81947,168.44827l21.89771,-21.89203l-4.51826,26.66865z" fill="#ffa300"/><path d="M263.21878,173.04744c0,0 -12.72044,-2.11709 -12.29079,-4.70629c0.79352,-4.782 16.67281,-21.70118 16.67281,-21.70118l22.25608,23.29392z" data-paper-data="{&quot;index&quot;:null}" fill="#dd5f00"/></g><g data-paper-data="{&quot;index&quot;:null}"><path d="M392.22455,216.5505l-30.71055,-1.72559l19.45541,-4.91183l23.80367,2.182z" fill="#a7bccd"/><path d="M389.29856,211.96958l-4.51826,-26.66865l21.89771,21.89203z" fill="#ffa300"/><path d="M362.6406,208.67859l22.25608,-23.29392c0,0 8.13756,18.64672 8.92041,23.36447c0.14946,0.90069 -0.12997,2.19382 -0.93828,2.6582c-1.34919,0.77515 -3.60011,0.38479 -3.60011,0.38479z" data-paper-data="{&quot;index&quot;:null}" fill="#dc5e00"/></g></g></g></svg>