<svg version="1.1" xmlns="http://www.w3.org/2000/svg" xmlns:xlink="http://www.w3.org/1999/xlink" width="34.17311" height="34.17311" viewBox="0,0,34.17311,34.17311"><defs><linearGradient x1="225.99624" y1="177.2286" x2="239.65969" y2="181.32766" gradientUnits="userSpaceOnUse" id="color-1"><stop offset="0" stop-color="#000000" stop-opacity="0"/><stop offset="1" stop-color="#000000" stop-opacity="0"/></linearGradient><linearGradient x1="248.957" y1="190.29369" x2="238.72003" y2="180.3591" gradientUnits="userSpaceOnUse" id="color-2"><stop offset="0" stop-color="#000000" stop-opacity="0"/><stop offset="1" stop-color="#000000" stop-opacity="0"/></linearGradient><linearGradient x1="227.94571" y1="178.07762" x2="242.21077" y2="178.07762" gradientUnits="userSpaceOnUse" id="color-3"><stop offset="0" stop-color="#000000" stop-opacity="0"/><stop offset="1" stop-color="#000000" stop-opacity="0"/></linearGradient><linearGradient x1="248.89385" y1="188.32472" x2="240.37029" y2="177.21768" gradientUnits="userSpaceOnUse" id="color-4"><stop offset="0" stop-color="#000000" stop-opacity="0"/><stop offset="1" stop-color="#000000" stop-opacity="0"/></linearGradient></defs><g transform="translate(-222.91346,-162.91346)"><g data-paper-data="{&quot;isPaintingLayer&quot;:true}" stroke-miterlimit="10" stroke-dasharray="" stroke-dashoffset="0" style="mix-blend-mode: normal"><path d="M229.98313,162.91347h20.03379c3.9166,0 7.06966,3.15307 7.06966,7.06966v20.03379c0,3.91659 -3.15306,7.06966 -7.06966,7.06966h-20.03379c-3.91659,0 -7.06966,-3.15307 -7.06966,-7.06966v-20.03379c0,-3.91659 3.15307,-7.06966 7.06966,-7.06966z" fill-opacity="0.59677" fill="#5e807a" fill-rule="evenodd" stroke="none" stroke-width="4.43922" stroke-linecap="round" stroke-linejoin="round"/><path d="M239.65969,181.32766c-1.39158,4.63863 -7.71814,5.81714 -11.4912,4.68521c-3.77306,-1.13192 -3.56385,-4.14563 -2.17224,-8.78428c1.39158,-4.63863 3.54279,-8.33641 3.54279,-8.33641c0,0 0.49638,3.1709 3.04895,5.48006c2.87545,2.60127 7.80889,4.49814 7.0717,6.95541z" fill="#5e807a" fill-rule="nonzero" stroke="url(#color-1)" stroke-width="0" stroke-linecap="butt" stroke-linejoin="miter"/><path d="M254.51071,183.13801c0,0 -2.18099,3.6803 -5.55371,7.15566c-3.37273,3.47539 -5.90255,5.1265 -8.72941,2.38313c-2.82686,-2.74337 -4.88028,-8.84235 -1.50758,-12.31772c1.68851,-1.73992 5.52358,0.76718 9.0531,1.89888c3.52049,1.12882 6.7376,0.88004 6.7376,0.88004z" data-paper-data="{&quot;index&quot;:null}" fill="#5e807a" fill-rule="nonzero" stroke="url(#color-2)" stroke-width="0" stroke-linecap="butt" stroke-linejoin="miter"/><path d="M252.66173,182.32357c-2.44085,1.47812 -5.89559,-0.71591 -12.44751,-3.7551c-6.33858,-2.94022 -11.38819,-7.2853 -8.94734,-8.76341c2.44085,-1.47812 9.20894,0.12599 15.11696,3.58288c5.90801,3.45689 8.71874,7.45751 6.27789,8.93564z" fill="none" fill-rule="nonzero" stroke="#000000" stroke-width="3" stroke-linecap="butt" stroke-linejoin="miter"/><path d="M241.36687,180.1271c0,3.74222 -2.34945,4.72645 -6.28863,4.72645c-3.93919,0 -7.13253,-3.03369 -7.13253,-6.77591c0,-3.74222 0.71325,-7.37028 0.71325,-7.37028c0,0 12.70792,5.67752 12.70792,9.41975z" fill="#000000" fill-rule="nonzero" stroke="url(#color-3)" stroke-width="0" stroke-linecap="butt" stroke-linejoin="miter"/><path d="M254.20631,183.36554c0,0 -2.39869,2.72317 -5.31246,4.95919c-2.91377,2.23603 -7.18393,1.56228 -9.53765,-1.50484c-2.35372,-3.06713 -2.62304,-5.67839 0.29073,-7.91442c2.91377,-2.23603 14.55936,4.46006 14.55936,4.46006z" data-paper-data="{&quot;index&quot;:null}" fill="#000000" fill-rule="nonzero" stroke="url(#color-4)" stroke-width="0" stroke-linecap="butt" stroke-linejoin="miter"/><path d="M247.90153,184.74189c-0.48873,0.74007 -5.09636,1.14623 -9.71415,-1.56617c-4.84509,-2.84593 -6.43758,-6.37686 -5.94883,-7.11694c0.48873,-0.74007 1.83465,1.84348 6.30358,4.7947c4.46893,2.95122 9.84812,3.14835 9.3594,3.88841z" fill="#5e807a" fill-rule="nonzero" stroke="none" stroke-width="0" stroke-linecap="butt" stroke-linejoin="miter"/></g></g></svg>