<svg version="1.1" xmlns="http://www.w3.org/2000/svg" xmlns:xlink="http://www.w3.org/1999/xlink" width="34.17311" height="34.17311" viewBox="0,0,34.17311,34.17311"><g transform="translate(-222.91345,-162.91345)"><g data-paper-data="{&quot;isPaintingLayer&quot;:true}" stroke-miterlimit="10" stroke-dasharray="" stroke-dashoffset="0" style="mix-blend-mode: normal"><path d="M229.98312,162.91346h20.03379c3.9166,0 7.06966,3.15307 7.06966,7.06966v20.03379c0,3.91659 -3.15306,7.06966 -7.06966,7.06966h-20.03379c-3.91659,0 -7.06966,-3.15307 -7.06966,-7.06966v-20.03379c0,-3.91659 3.15307,-7.06966 7.06966,-7.06966z" fill-opacity="0.59677" fill="#5e807a" fill-rule="evenodd" stroke="none" stroke-width="4.43922" stroke-linecap="round" stroke-linejoin="round"/><g fill-rule="nonzero" stroke-width="0.5" stroke-linejoin="miter"><path d="M232.05516,173.3115c0.6248,-2.40865 2.06348,-5.62162 2.06348,-5.62162c0,0 1.65569,0.39592 5.37704,0.56542c2.85897,0.13021 6.03973,-0.51931 6.03973,-0.51931l-2.32784,1.71592c0,0 2.76741,0.34605 5.31369,0.25569c2.58366,-0.09169 2.16801,2.59637 2.54842,3.36589c0.67791,1.35629 -0.29971,5.40146 -1.07784,6.62824c-0.17693,0.27893 -1.0777,1.28143 -1.61169,2.18397c-0.53399,0.90254 -2.07808,4.56246 -2.98465,6.03818c-1.03128,1.67873 -2.49719,2.141 -5.01752,3.33418c-2.52033,1.19318 -4.32594,1.38462 -5.02853,1.14949c-0.89248,-0.29869 -2.49644,-2.23107 -3.51682,-4.48463c-1.08653,-2.39968 -1.91113,-3.71115 -1.44111,-5.94636c0.4233,-2.01304 0.85125,-3.27153 1.33326,-5.02657c0.35228,-1.2827 -0.01083,-2.32309 0.33038,-3.6385z" fill="#ffffff" stroke="#000000" stroke-linecap="butt"/><path d="M235.45073,171.09748l0.31305,-0.45398c0,0 1.29504,-0.18559 2.76232,0.17157c1.46253,0.356 2.41993,0.89369 2.41993,0.89369l-0.53281,1.4095c0,0 -0.97206,-0.58422 -2.30953,-0.96287c-0.98802,-0.37324 -5.90411,-0.91303 -5.90411,-0.91303l0.14088,-0.43393z" fill="#000000" stroke="none" stroke-linecap="butt"/><path d="M249.35455,174.01064c0,0 0.77388,0.4783 1.16429,0.74489c0.40491,0.2765 1.22328,0.88545 1.22328,0.88545l-0.17126,0.52346c0,0 -2.10898,-1.85528 -4.71095,-2.51728c-2.08048,-0.52931 -3.44251,-0.23826 -3.44251,-0.23826l0.60075,-1.45695c0,0 1.79477,0.04932 2.89011,0.3513c1.09534,0.30199 2.46246,1.12439 2.46246,1.12439z" data-paper-data="{&quot;index&quot;:null}" fill="#000000" stroke="none" stroke-linecap="butt"/><path d="M237.64786,186.59029c0.07743,0.03527 0.35922,-0.39957 0.99535,-0.41338c0.61478,-0.01334 1.36918,0.31891 1.82645,0.53838c0.46402,0.35835 2.74983,2.59034 2.74983,2.59034c0,0 -2.46917,-0.59205 -3.55723,-0.82225c-0.91181,-0.19291 -2.60121,-0.48938 -2.60121,-0.48938l-6.0317,-3.68729c0,0 0.64713,0.07294 1.64178,0.07892c1.149,0.00691 1.48544,-0.04613 1.81809,0.0227c0.79047,0.16357 1.68437,0.47561 2.44185,1.04569c0.81163,0.61084 0.63979,1.1012 0.71679,1.13627z" fill="#ffffff" stroke="#000000" stroke-linecap="butt"/><path d="M233.48717,173.94437c0.54357,-1.57274 2.38457,-2.36371 4.112,-1.76668c1.72743,0.59703 2.68714,2.35598 2.14357,3.92872c-0.54357,1.57274 -2.38457,2.36371 -4.112,1.76668c-1.72743,-0.59703 -2.68714,-2.35598 -2.14357,-3.92872z" fill="#ffffff" stroke="#000000" stroke-linecap="butt"/><path d="M239.34648,185.18243c-0.2912,0.70723 -0.93332,1.07779 -1.72786,0.80319c-0.79453,-0.27461 -0.91418,-1.29774 -0.66429,-2.02075c0.24989,-0.72301 0.77467,-0.8721 1.5692,-0.59749c0.79453,0.27461 1.2086,0.87844 0.82295,1.81506z" fill="#ffffff" stroke="#000000" stroke-linecap="butt"/><path d="M234.92025,174.41947c0.31314,-0.90604 1.30148,-1.38668 2.20752,-1.07353c0.90604,0.31314 1.38668,1.30148 1.07353,2.20752c-0.31314,0.90604 -1.30148,1.38667 -2.20752,1.07353c-0.90604,-0.31314 -1.38668,-1.30148 -1.07353,-2.20752z" fill="#000000" stroke="none" stroke-linecap="butt"/><path d="M242.0983,176.84865l-4.30359,11.25807l-1.13978,-0.39082c0,0 2.48745,-8.26768 2.89805,-10.20817c0.16954,-0.80124 0.32353,-1.50141 0.32353,-1.50141" fill="#ffffff" stroke="#000000" stroke-linecap="round"/><path d="M242.20578,176.95768c0.54357,-1.57274 2.37004,-2.36874 4.07954,-1.77791c1.70951,0.59083 2.65469,2.34476 2.11112,3.9175c-0.54357,1.57274 -2.37005,2.36874 -4.07955,1.7779c-1.70951,-0.59083 -2.65468,-2.34475 -2.11111,-3.9175z" fill="#ffffff" stroke="#000000" stroke-linecap="butt"/><path d="M243.64608,177.43527c0.31314,-0.90604 1.30148,-1.38667 2.20752,-1.07353c0.90604,0.31314 1.38667,1.30148 1.07353,2.20752c-0.31314,0.90604 -1.30148,1.38667 -2.20752,1.07353c-0.90604,-0.31314 -1.38667,-1.30148 -1.07353,-2.20752z" fill="#000000" stroke="none" stroke-linecap="butt"/><path d="M233.45733,173.79625c0,0 0.96668,-3.01138 4.3673,-1.87753c2.96497,0.9886 2.09233,4.1101 2.09233,4.1101z" fill="#ffffff" stroke="#000000" stroke-linecap="butt"/><path d="M242.11348,176.65c0,0 1.0905,-3.14791 4.59358,-1.80943c3.29074,1.25734 2.22515,4.16609 2.22515,4.16609z" fill="#ffffff" stroke="#000000" stroke-linecap="butt"/><path d="M235.68842,190.8239c-4.81535,-1.78636 -5.07876,-6.60086 -5.07876,-6.60086c0,0 2.12428,1.22047 3.13083,1.85711c1.03991,0.65773 1.83795,1.48288 3.22896,2.03044c1.39102,0.54755 2.3243,0.33925 3.20939,0.54491c0.68619,0.15945 3.07726,0.83098 3.07726,0.83098c0,0 -2.3232,3.28298 -7.56769,1.33742z" fill="#ffffff" stroke="#000000" stroke-linecap="butt"/><path d="M231.88582,175.40856c0,0 -0.85936,-1.0881 -0.49166,-2.92915c0.20512,-1.02699 1.03139,-0.47215 1.03139,-0.47215" fill="none" stroke="#000000" stroke-linecap="round"/><path d="M250.69777,178.04998c0,0 0.81015,0.13183 0.35869,1.07369c-0.80931,1.68842 -1.9438,1.9663 -1.9438,1.9663" data-paper-data="{&quot;index&quot;:null}" fill="none" stroke="#000000" stroke-linecap="round"/><path d="M238.02413,169.32218l3.90017,4.13346l-2.33152,7.56612l-5.77338,-4.61468l-0.50926,-0.68849l1.50533,-4.29601z" fill="#ff8300" stroke="#ff8300" stroke-linecap="round"/><path d="M249.25823,176.41426l-1.8182,4.03427l-0.47611,0.50155l-7.47201,-0.2814l2.91923,-7.04477l5.62015,-0.84307z" data-paper-data="{&quot;index&quot;:null}" fill="#ffa900" stroke="#ffa900" stroke-linecap="round"/><path d="M252.74469,177.39103l-2.05271,4.55134l-6.04369,-0.32494l5.07597,-5.19833l-1.4455,-3.85084l-6.06983,0.58974l-4.27518,-4.16583l-3.4212,2.10498l-0.3537,6.83553l-4.38927,-4.12665l1.64683,-5.45463l1.93327,-2.51342l3.20571,-1.20163l7.97052,-0.18402l6.19396,5.45521l2.41968,3.5814z" fill="#30433d" stroke="#30433d" stroke-linecap="round"/><g><path d="M240.47574,188.45909c-0.1961,0.56741 -3.24596,1.79448 -4.55865,1.34079c-1.31269,-0.45369 -2.77924,-3.40601 -2.58313,-3.97342c0.1961,-0.56741 2.10133,1.38345 3.41403,1.83714c1.31269,0.45369 3.92387,0.22808 3.72776,0.79549z" fill="#ffffff" stroke="#000000" stroke-linecap="butt"/><path d="M241.5948,186.59896c-0.17822,0.51566 -1.91465,0.76354 -4.55381,-0.1486c-2.63916,-0.91214 -3.66372,-2.58936 -3.4855,-3.10502c0.17822,-0.51566 1.67996,-0.0845 4.31912,0.82764c2.63916,0.91214 3.89841,1.91032 3.72019,2.42598z" fill="#000000" stroke="#000000" stroke-linecap="butt"/><path d="M242.67772,186.98392c-0.1961,0.56741 -4.08648,1.70935 -6.29879,0.94474c-2.2123,-0.76461 -4.75535,-5.03372 -4.55925,-5.60113c0.06024,-0.17427 1.7358,0.4244 3.25959,1.39337c0.90983,0.57855 1.67234,1.12056 2.68191,1.52576c0.77634,0.3116 1.58728,0.28616 2.39471,0.49895c1.47705,0.38925 2.58642,1.05141 2.52183,1.23831z" fill="#ffffff" stroke="#000000" stroke-linecap="butt"/><path d="M242.8649,186.63079c-0.4866,-0.0062 -1.47054,-0.41218 -2.28777,-0.62984c-1.28076,-0.34111 -2.43386,-0.56232 -2.78011,-0.682c-0.49863,-0.17234 -1.37914,-0.84259 -2.45059,-1.45602c-1.45242,-0.83153 -3.08875,-1.642 -3.04183,-1.74453c0.08147,-0.17801 2.25293,-0.0564 3.07708,0.08474c0.56771,0.09723 1.4901,0.80148 2.25705,1.0873c0.74115,0.2762 1.74496,0.38547 2.66836,0.9112c1.23981,0.70585 2.88405,2.43331 2.55781,2.42916z" fill="#ffffff" stroke="#000000" stroke-linecap="butt"/><path d="M239.82233,182.81503c-0.22412,0.64846 -0.92051,0.99626 -1.55544,0.77682c-0.63493,-0.21944 -0.96794,-0.92302 -0.74382,-1.57148c0.22412,-0.64846 0.92051,-0.99627 1.55544,-0.77683c0.63493,0.21944 0.96794,0.92302 0.74382,1.57149z" fill="#ffffff" stroke="#000000" stroke-linecap="butt"/><path d="M244.16902,190.49134l4.26403,-6.34638l2.32343,0.14215l-5.62874,7.92355z" data-paper-data="{&quot;index&quot;:null}" fill="#456761" stroke="none" stroke-linecap="butt"/><path d="M237.12603,192.71183l7.09523,-2.37508l0.94007,1.83539l-9.6116,3.37554z" data-paper-data="{&quot;index&quot;:null}" fill="#1b322d" stroke="none" stroke-linecap="butt"/><g stroke="none" stroke-linecap="butt"><path d="M226.8631,185.80974l0.46511,-9.7082l1.91536,1.32286l-0.5647,7.62493z" fill="#364c47"/><path d="M232.33653,194.34879l-5.47607,-8.5901l1.87276,-0.86323l4.15771,6.12426z" fill="#1b322d"/></g><path d="M227.71021,176.03326l0.66846,-1.91615l1.21903,-0.41658l2.70185,1.91214l-0.21142,1.50688l-2.8658,0.07241z" fill="#22302c" stroke="#22302c" stroke-linecap="round"/><path d="M246.31909,182.88258l0.51159,-2.03192l1.74832,-0.03093l2.16108,1.09937l-0.20597,2.07351l-2.71938,0.09634z" data-paper-data="{&quot;index&quot;:null}" fill="#22302c" stroke="#22302c" stroke-linecap="round"/><path d="M235.47038,191.21735l1.87807,1.44266l-1.65009,2.79069l-1.56251,-0.11465l-1.6077,-1.0277l0.37,-3.18643z" fill="#24433d" stroke="#24433d" stroke-linecap="round"/><path d="M228.64527,184.98527l0.69347,-10.12558l7.33255,5.69749l-2.08197,13.05595z" fill="#446660" stroke="none" stroke-linecap="butt"/><path d="M234.48842,193.54985l6.44005,-11.40579l9.31416,-0.15626l-5.74614,8.50659z" data-paper-data="{&quot;index&quot;:null}" fill="#37514d" stroke="none" stroke-linecap="butt"/><path d="M236.5091,180.43929l4.59449,1.58794l-6.58254,11.55435z" fill="#476863" stroke="none" stroke-linecap="butt"/><path d="M236.55601,180.54088l-7.21643,-5.67461l3.4432,0.41794l4.70586,4.1417z" fill="#2c4c45" stroke="none" stroke-linecap="butt"/><path d="M240.94788,180.68705l6.25897,-0.35206l3.09372,1.67328l-9.28835,0.17227z" data-paper-data="{&quot;index&quot;:null}" fill="#5f7f7c" stroke="none" stroke-linecap="butt"/><path d="M236.45736,180.53802l1.03993,-1.16813l3.60239,1.24505l-0.05829,1.50741z" fill="#446660" stroke="none" stroke-linecap="butt"/><path d="M229.93114,176.61948l5.7639,4.74625l-1.90738,9.75053l-4.68307,-6.2866z" fill="#000000" stroke="#000000" stroke-linecap="round"/><path d="M244.07665,189.9109l-7.70697,2.17414l4.70207,-8.98833l7.42435,-0.15421z" data-paper-data="{&quot;index&quot;:null}" fill="#000000" stroke="#000000" stroke-linecap="round"/><path d="M238.5804,187.75488c-0.3578,1.03526 -1.47653,1.58808 -2.49874,1.23479c-1.02222,-0.3533 -1.56083,-1.47893 -1.20303,-2.51418c0.3578,-1.03526 1.47654,-1.58809 2.49875,-1.23479c1.02222,0.3533 1.56083,1.47893 1.20303,2.51419z" fill="#000000" stroke="#000000" stroke-linecap="butt"/><path d="M237.95116,187.54643c-0.25275,0.73129 -1.03133,1.12584 -1.73902,0.88125c-0.70769,-0.24459 -1.07649,-1.0357 -0.82375,-1.76699c0.25275,-0.73129 1.03133,-1.12583 1.73902,-0.88124c0.70769,0.24459 1.07649,1.03569 0.82375,1.76698z" fill="#ff8300" stroke="#ff8300" stroke-linecap="butt"/><path d="M237.37029,187.36578c-0.14156,0.40958 -0.57763,0.63056 -0.97399,0.49357c-0.39636,-0.13699 -0.60292,-0.58007 -0.46136,-0.98965c0.14156,-0.40958 0.57763,-0.63056 0.97398,-0.49357c0.39636,0.13699 0.60292,0.58007 0.46137,0.98965z" fill="#ffc100" stroke="#ffc100" stroke-linecap="butt"/></g></g></g></g></svg>