<svg version="1.1" xmlns="http://www.w3.org/2000/svg" xmlns:xlink="http://www.w3.org/1999/xlink" width="14.2328" height="23.65909" viewBox="0,0,14.2328,23.65909"><g transform="translate(-239.89762,-170.89806)"><g data-paper-data="{&quot;isPaintingLayer&quot;:true}" fill-rule="nonzero" stroke="none" stroke-linecap="butt" stroke-linejoin="miter" stroke-miterlimit="10" stroke-dasharray="" stroke-dashoffset="0" style="mix-blend-mode: normal"><path d="M252.29473,177.62598c1.10611,1.29045 1.65917,2.89693 1.65917,4.87212c0,1.97517 -0.55306,3.58166 -1.65917,4.84577c-1.10609,1.26411 -2.52822,1.89617 -4.24004,1.89617c-1.94885,0 -3.47631,-0.79007 -4.60875,-2.34387v7.374h-3.42363v-18.27698h3.42363v2.08053c1.13245,-1.55382 2.68624,-2.34389 4.60875,-2.34389c1.71182,0 3.10762,0.63206 4.24004,1.89617zM250.45124,182.4981c0,-2.21221 -1.47481,-3.79235 -3.47631,-3.79235c-2.08053,0 -3.52899,1.58014 -3.52899,3.79235c0,2.18586 1.50114,3.766 3.52899,3.766c2.00151,0 3.47631,-1.58014 3.47631,-3.766z" fill="#000000" stroke-width="0.35808"/><path d="M239.89762,194.55715v-23.65909h14.2328v23.65909z" fill-opacity="0.00403" fill="#808080" stroke-width="0"/></g></g></svg>