<svg version="1.1" xmlns="http://www.w3.org/2000/svg" xmlns:xlink="http://www.w3.org/1999/xlink" width="149.92759" height="239.44499" viewBox="0,0,149.92759,239.44499"><g transform="translate(-164.9494,-69.05503)"><g data-paper-data="{&quot;isPaintingLayer&quot;:true}" fill-rule="nonzero" stroke-linejoin="miter" stroke-miterlimit="10" stroke-dasharray="" stroke-dashoffset="0" style="mix-blend-mode: normal"><path d="M170.73973,139.20406c0.00947,-1.65651 -5.79033,-1.95645 -5.79033,-1.95645c0,0 6.74652,-8.83901 7.41905,-11.67546c6.82464,-28.78361 24.31166,-56.08154 67.00985,-56.36296c45.68891,-0.30115 68.03561,35.40067 67.83323,70.77562c-0.00381,0.66794 3.03592,7.32908 4.37103,10.39151c2.24914,5.15893 3.29443,7.47763 3.29443,7.47763c0,0 -2.63776,-1.68204 -4.80337,-3.59436c-2.12998,-1.88086 -3.78681,-4.00067 -3.97413,-3.03786c-0.44776,2.30147 -0.65809,10.91883 -4.24264,19.89365c-3.54478,8.87523 -10.4667,18.12166 -10.4667,18.12166c0,0 -2.26164,-5.29944 -3.7587,-3.16313c-6.12731,8.74371 -11.3838,15.2447 -11.3838,15.2447c0,0 -2.38124,-4.99088 -4.44886,-3.89317c-9.35426,4.96622 -20.10778,7.79588 -31.69821,7.72957c-12.60635,-0.07212 -24.75119,-3.70798 -35.21594,-9.72906c-2.71954,-1.56474 -0.85132,4.38309 -0.85132,4.38309c0,0 -7.90856,-5.2421 -13.09368,-11.0819c-6.04872,-6.81249 -9.65312,-14.62603 -12.03202,-18.75858c-0.33748,-0.58626 -4.02901,1.56483 -5.94542,1.97857c-2.96454,0.64002 -4.4831,-0.10747 -4.4831,-0.10747c0,0 2.69025,-3.36136 3.58042,-5.13457c0.95454,-1.90146 1.96713,-5.91631 1.96713,-5.91631c0,0 -2.6749,1.89361 -4.07323,2.36175c-1.48883,0.49845 -4.60527,0.54374 -4.60527,0.54374c0,0 4.4245,-5.61817 5.8091,-11.52714c1.30444,-5.56686 -0.42653,-11.39374 -0.41755,-12.96307z" fill="#000000" stroke="#000000" stroke-width="0" stroke-linecap="butt"/><g stroke-linecap="butt"><path d="M210.54671,245.56724c-1.23593,-0.71221 -2.52595,-1.52016 -2.52595,-1.52016l3.43821,-16.9072l9.39711,1.15465l-4.03278,19.831c0,0 -4.71536,-1.6586 -6.27659,-2.55828z" data-paper-data="{&quot;index&quot;:null}" fill="#456761" stroke="none" stroke-width="0"/><path d="M207.03138,262.05225c-1.23591,-0.71222 1.23248,-17.84906 1.23248,-17.84906l8.55917,3.73009l-3.51504,16.67726c0,0 -4.71537,-1.6586 -6.2766,-2.55828z" data-paper-data="{&quot;index&quot;:null}" fill="#8fa7b3" stroke="none" stroke-width="0"/><path d="M206.50536,277.10697c-0.41826,-4.16402 0.32148,-15.15658 0.32148,-15.15658l6.45499,2.59498l-4.18718,19.98242c0,0 -2.30176,-4.55834 -2.58929,-7.42084z" data-paper-data="{&quot;index&quot;:null}" fill="#bed3e5" stroke="none" stroke-width="0"/><path d="M269.52359,247.31727c-1.56123,0.89968 -6.27659,2.55828 -6.27659,2.55828l-4.03278,-19.831l9.39711,-1.15465l3.43821,16.9072c0,0 -1.29002,0.80795 -2.52595,1.52016z" fill="#456761" stroke="none" stroke-width="0"/><path d="M273.03891,263.80225c-1.56123,0.89968 -6.2766,2.55828 -6.2766,2.55828l-3.51504,-16.67726l8.55917,-3.73009c0,0 2.46839,17.13685 1.23248,17.84906z" fill="#8fa7b3" stroke="none" stroke-width="0"/><path d="M273.56493,278.85696c-0.28753,2.8625 -2.58929,7.42084 -2.58929,7.42084l-4.18718,-19.98242l6.45499,-2.59498c0,0 0.73974,10.99257 0.32148,15.15658z" fill="#bed3e5" stroke="none" stroke-width="0"/><path d="M221.27619,175.65793l37.78325,-0.15789l3.8671,37.60586c-0.6963,-0.01127 -1.29913,-0.00206 -1.77404,0.02951c-2.88185,0.19158 -5.78843,1.63667 -8.62277,1.66666c-4.68104,0.04954 -9.3637,0.10145 -14.04389,0c-7.21416,-0.15638 -13.93214,-2.38082 -21.56128,-1.25648z" fill="#ffffff" stroke="#000000" stroke-width="2"/><path d="M219.08356,204.11266l3.12142,-26.32765l35.83075,-0.14203l2.76735,26.1059c0,0 -7.51543,4.19603 -21.55904,4.50964c-12.48458,0.27879 -20.16049,-4.14586 -20.16049,-4.14586z" fill="#e6e6e6" stroke="#000000" stroke-width="0"/><path d="M206.13334,307.50001l12.03846,-92.87157c15.40868,0.04436 28.15085,-0.19563 43.55925,-0.18198l10.90227,93.05356z" fill="#000000" stroke="#000000" stroke-width="2"/><path d="M211.31265,230.75613v-18.75668c0,0 18.56293,1.0198 27.99732,1.0198c9.68908,0 29.39343,-1.0198 29.39343,-1.0198v18.75668c0,0 -6.76554,5.34882 -28.49928,5.27047c-19.35935,-0.06978 -28.89147,-5.27047 -28.89147,-5.27047z" fill="#031718" stroke="none" stroke-width="0"/><path d="M268.4235,211.41184c0,1.05713 0.4488,3.69311 -1.94204,5.02269c-5.38056,2.99221 -17.49912,4.69199 -27.20676,4.69199c-9.23809,0 -19.08557,-0.8843 -24.36256,-3.66197c-2.73224,-1.43818 -3.84595,-4.66221 -3.84595,-5.83441c0,-1.28914 1.07545,-4.64227 4.33484,-5.32834c1.80205,-0.37932 2.46887,-1.03189 2.29478,-0.25307c-0.17823,0.79731 -1.22489,3.0403 -1.71366,3.8537c-0.47202,0.78554 -1.88092,1.40023 0.9944,1.40023c0.35881,0 1.20582,1.14373 2.68738,1.74085c1.86955,0.75349 4.51081,1.02454 5.79246,1.35846c3.71724,0.96851 8.41136,0.54272 14.65228,0.78744c4.59407,0.18015 18.41762,-1.21693 22.85473,-3.46693c1.61361,-0.81824 1.02726,-1.31455 0.87427,-2.15731c-0.07332,-0.40389 -0.34679,-0.62672 -0.51864,-1.0152c-0.4476,-1.01181 -0.896,-2.02544 -0.46897,-1.92504c0.59863,0.14073 2.51087,0.64384 3.57677,1.66022c1.19582,1.14025 1.99667,2.81358 1.99667,3.12667z" fill="#142d2b" stroke="none" stroke-width="0"/><path d="M266.26903,208.77607c0,0.9804 0.41623,3.42504 -1.80108,4.65813c-4.99001,2.77502 -16.22895,4.35142 -25.23196,4.35142c-8.56755,0 -17.70026,-0.8201 -22.59422,-3.39617c-2.53391,-1.33379 -3.5668,-4.32381 -3.5668,-5.41092c0,-1.19556 0.99739,-4.30531 4.0202,-4.94159c1.67126,-0.35179 2.28967,-0.957 2.12822,-0.2347c-0.1653,0.73944 -1.13598,2.81963 -1.58929,3.57399c-0.43777,0.72851 -1.74439,1.29859 0.92222,1.29859c0.33276,0 1.1183,1.06072 2.49233,1.61449c1.73385,0.69881 4.1834,0.95018 5.37202,1.25987c3.44743,0.89822 7.80083,0.50332 13.58875,0.73028c4.2606,0.16706 17.08079,-1.12858 21.19583,-3.21528c1.49649,-0.75885 0.9527,-1.21914 0.81081,-2.00071c-0.068,-0.37458 -0.32163,-0.58124 -0.481,-0.94152c-0.41511,-0.93836 -0.83098,-1.87844 -0.43493,-1.78532c0.55518,0.13052 2.32861,0.59712 3.31714,1.5397c1.10902,1.05749 1.85175,2.60935 1.85175,2.89973z" fill="#2c4c45" stroke="none" stroke-width="0"/><path d="M220.08283,257.56559l1.06229,-17.65228c0,0 5.06206,0.33784 6.6753,0.38673c2.41665,0.07323 6.74126,0.07606 6.74126,0.07606l-0.13223,17.78451z" fill="#789396" stroke="none" stroke-width="0"/><path d="M218.89279,258.09451l0.06611,-18.51175l2.24785,0.33057v16.33001z" fill="#466862" stroke="none" stroke-width="0"/><path d="M218.69445,258.22673l2.31397,-2.04951c0,0 3.43956,1.01301 5.56424,1.20141c2.33003,0.2066 7.85678,-0.01137 7.85678,-0.01137l0.19834,2.44619c0,0 -7.46269,0.38734 -10.38283,0.09654c-2.15463,-0.21456 -5.55049,-1.68325 -5.55049,-1.68325z" fill="#142d2b" stroke="none" stroke-width="0"/><path d="M224.38021,251.35096c0,0 1.44883,-3.00632 2.09459,-4.13946c0.44988,-0.78943 1.40942,-2.00908 1.40942,-2.00908c0,0 0.8535,1.34902 1.31674,2.21546c0.65742,1.22962 2.25339,4.46198 2.25339,4.46198c0,0 -2.9845,0.24955 -4.24288,0.15546c-1.06845,-0.07988 -2.83126,-0.68437 -2.83126,-0.68437z" fill="#d4ecfe" stroke="none" stroke-width="0"/></g><path d="" fill="#ffffff" stroke="#000000" stroke-width="2" stroke-linecap="butt"/><path d="M175.2001,136.22949c0.19051,-33.30129 29.10438,-60.13282 64.58093,-59.92986c35.47654,0.20296 64.08152,27.36353 63.89101,60.66483c-0.19051,33.30129 -29.10438,60.13282 -64.58093,59.92986c-35.47654,-0.20296 -64.08152,-27.36353 -63.89101,-60.66483z" fill="#ffffff" stroke="#000000" stroke-width="2" stroke-linecap="butt"/><path d="M175.92284,136.28742c0.00416,-0.72798 4.88667,55.94826 63.03371,57.29582c55.55706,1.28755 63.84408,-57.58884 63.83824,-56.57c-0.18767,32.80426 -28.74107,59.23488 -63.7758,59.03445c-35.03472,-0.20042 -63.28384,-26.95602 -63.09618,-59.76027z" fill="#e6e6e6" stroke="#000000" stroke-width="0" stroke-linecap="butt"/><path d="M277.4662,185.06723c-3.43319,2.83611 -12.79778,-18.00085 -38.00174,-18.62884c-29.69134,-0.84397 -36.89653,20.09376 -40.29351,17.04401c-21.68783,-15.61363 -23.32342,-34.03418 -23.24828,-47.16756c0.07324,-12.80094 3.86399,-32.25048 15.51492,-42.79145c12.52821,-11.33466 33.01602,-22.30017 47.97783,-22.21458c13.47052,0.07706 33.3336,10.29688 45.09601,19.82142c13.45191,10.89258 22.36531,31.57159 19.29,44.72737c0,0 2.71859,28.6216 -26.33521,49.20963z" fill="#2c4c45" stroke="#000000" stroke-width="2" stroke-linecap="butt"/><path d="M183.64715,136.43163c0.09066,-15.84776 13.0113,-28.62141 28.85907,-28.53073c15.84776,0.09066 28.62141,13.0113 28.53073,28.85907c-0.09066,15.84776 -13.0113,28.62142 -28.85907,28.53075c-15.84775,-0.09067 -28.62142,-13.01131 -28.53074,-28.85908z" fill="#000000" stroke="none" stroke-width="0" stroke-linecap="butt"/><path d="M210.77389,97.58624c0.09066,-15.84776 13.0113,-28.62141 28.85907,-28.53073c15.84775,0.09067 28.62142,13.01131 28.53074,28.85908c-0.09066,15.84776 -13.0113,28.62142 -28.85908,28.53074c-15.84775,-0.09067 -28.62142,-13.01131 -28.53075,-28.85907z" fill="#000000" stroke="none" stroke-width="0" stroke-linecap="butt"/><path d="M188.74765,136.73646c0.07419,-12.96778 10.64681,-23.42013 23.61459,-23.34595c12.96778,0.07419 23.42013,10.64681 23.34595,23.61459c-0.07419,12.96778 -10.64681,23.42013 -23.61459,23.34595c-12.96778,-0.07419 -23.42013,-10.64681 -23.34595,-23.61459z" fill="#de6000" stroke="#000000" stroke-width="0" stroke-linecap="butt"/><path d="M237.67955,136.74074c0.09066,-15.84776 13.0113,-28.62141 28.85907,-28.53073c15.84775,0.09067 28.62142,13.01131 28.53074,28.85908c-0.09066,15.84776 -13.0113,28.62142 -28.85908,28.53074c-15.84775,-0.09067 -28.62142,-13.01131 -28.53074,-28.85908z" fill="#000000" stroke="none" stroke-width="0" stroke-linecap="butt"/><path d="M266.35113,160.66144c-12.96778,-0.07419 -23.42013,-10.64681 -23.34595,-23.61459c0.07419,-12.96778 10.64681,-23.42013 23.61459,-23.34595c12.96778,0.07419 23.42013,10.64681 23.34595,23.61459c-0.07419,12.96778 -10.64681,23.42013 -23.61459,23.34595z" data-paper-data="{&quot;index&quot;:null}" fill="#944009" stroke="#000000" stroke-width="0" stroke-linecap="butt"/><path d="M239.44544,121.50692c-12.96778,-0.07419 -23.42013,-10.64681 -23.34595,-23.61459c0.07419,-12.96778 10.64681,-23.42013 23.61459,-23.34595c12.96778,0.07419 23.42013,10.64681 23.34595,23.61459c-0.07419,12.96778 -10.64681,23.42013 -23.61459,23.34595z" data-paper-data="{&quot;index&quot;:null}" fill="#ffa300" stroke="#000000" stroke-width="0" stroke-linecap="butt"/><path d="M226.8903,176.65646h25.10959" fill="none" stroke="#000000" stroke-width="2" stroke-linecap="round"/></g></g></svg>