<svg version="1.1" xmlns="http://www.w3.org/2000/svg" xmlns:xlink="http://www.w3.org/1999/xlink" width="35.14903" height="35.14873" viewBox="0,0,35.14903,35.14873"><g transform="translate(-222.41347,-162.41348)"><g data-paper-data="{&quot;isPaintingLayer&quot;:true}" stroke-miterlimit="10" stroke-dasharray="" stroke-dashoffset="0" style="mix-blend-mode: normal"><path d="M229.48314,162.41349h20.03379c3.9166,0 7.06966,3.15307 7.06966,7.06966v20.03379c0,3.91659 -3.15306,7.06966 -7.06966,7.06966h-20.03379c-3.91659,0 -7.06966,-3.15307 -7.06966,-7.06966v-20.03379c0,-3.91659 3.15307,-7.06966 7.06966,-7.06966z" fill-opacity="0.59677" fill="#5e807a" fill-rule="evenodd" stroke="none" stroke-width="4.43922" stroke-linecap="round" stroke-linejoin="round"/><path d="M226.61131,173.60726c0,-2.99608 2.4288,-5.42489 5.42489,-5.42489c2.99608,0 5.4249,2.4288 5.4249,5.42489c0,2.99608 -2.42881,5.4249 -5.4249,5.4249c-2.99608,0 -5.42489,-2.42881 -5.42489,-5.4249z" fill="none" fill-rule="nonzero" stroke="#000000" stroke-width="3" stroke-linecap="butt" stroke-linejoin="miter"/><path d="M254.63401,173.42653c0,3.74511 -11.98567,19.87161 -15.71449,19.87161c-0.72174,0 -2.92822,-0.96313 -5.45341,-2.54966c-1.54755,-0.9723 -3.50935,-1.88415 -4.45643,-3.81803c-2.06373,-4.21399 -0.80749,-11.48578 1.39733,-18.81613c1.45161,-4.82612 11.78511,1.89216 11.78511,1.89216c0,0 1.96141,-3.36107 5.69024,-3.36107c3.72883,0 6.75163,3.036 6.75163,6.78112z" fill="#5e807a" fill-rule="nonzero" stroke="none" stroke-width="0" stroke-linecap="butt" stroke-linejoin="miter"/><path d="M250.32103,174.95452l-5.19702,-2.59851" fill="none" fill-rule="nonzero" stroke="#000000" stroke-width="2" stroke-linecap="round" stroke-linejoin="miter"/><path d="M231.07711,186.4508c0,0 7.40986,-7.26681 8.74327,-6.50662c1.80794,1.03073 -0.81333,10.97991 -0.81333,10.97991" fill="none" fill-rule="nonzero" stroke="#000000" stroke-width="4.5" stroke-linecap="round" stroke-linejoin="miter"/><path d="M257.5625,169.83175v20.49804c0,4.00745 -3.22497,7.23243 -7.23242,7.23243h-20.5c-3.66107,0 -6.66147,-2.69385 -7.1543,-6.21484c0.7952,3.03475 3.54108,5.26367 6.83204,5.26367h20.0332c3.9166,0 7.07032,-3.15372 7.07032,-7.07031v-20.03321c0,-3.2976 -2.23906,-6.0451 -5.28321,-6.83398c3.52994,0.48496 6.23438,3.49081 6.23438,7.15821z" fill-opacity="0.50151" fill="#000000" fill-rule="evenodd" stroke="none" stroke-width="4.54219" stroke-linecap="round" stroke-linejoin="round"/></g></g></svg>