<svg version="1.1" xmlns="http://www.w3.org/2000/svg" xmlns:xlink="http://www.w3.org/1999/xlink" width="14.07896" height="23.94582" viewBox="0,0,14.07896,23.94582"><g transform="translate(-239.89762,-170.61133)"><g data-paper-data="{&quot;isPaintingLayer&quot;:true}" fill-rule="nonzero" stroke="none" stroke-linecap="butt" stroke-linejoin="miter" stroke-miterlimit="10" stroke-dasharray="" stroke-dashoffset="0" style="mix-blend-mode: normal"><path d="M253.93596,184.20055c0,1.47481 -0.63206,2.71258 -1.92251,3.68701c-1.29045,1.00074 -2.92327,1.50113 -4.89845,1.50113c-2.05418,0 -3.73967,-0.55304 -5.05645,-1.65914c-1.31679,-1.10611 -2.00151,-2.58091 -2.02785,-4.45074h3.42364c0.079,2.02785 1.5538,3.26563 3.55532,3.26563c1.97518,0 3.3973,-1.18511 3.3973,-2.76525c0,-1.68549 -1.60647,-2.84425 -3.95035,-2.84425h-0.89542v-2.31755h0.89542c2.1332,0 3.58165,-1.13244 3.58165,-2.73891c0,-1.47481 -1.29045,-2.5019 -3.00227,-2.5019c-1.81717,0 -3.13396,1.15877 -3.21296,3.18662h-3.18663c0.07901,-1.81716 0.71107,-3.26563 1.89618,-4.34539c1.1851,-1.07977 2.71258,-1.60647 4.60875,-1.60647c1.76449,0 3.21296,0.44771 4.39806,1.36945c1.15877,0.92176 1.73816,2.08052 1.73816,3.42365c0,1.92251 -1.31679,3.58166 -3.34463,4.21372c2.42288,0.63205 4.00302,2.39655 4.00302,4.5824z" fill="#000000" stroke-width="0.35808"/><path d="M239.89762,194.55715v-23.65909h14.07896v23.65909z" fill-opacity="0.00403" fill="#808080" stroke-width="0"/></g></g></svg>