<svg version="1.1" xmlns="http://www.w3.org/2000/svg" xmlns:xlink="http://www.w3.org/1999/xlink" width="19.61742" height="23.65909" viewBox="0,0,19.61742,23.65909"><g transform="translate(-239.89762,-170.89806)"><g data-paper-data="{&quot;isPaintingLayer&quot;:true}" fill-rule="nonzero" stroke="none" stroke-linecap="butt" stroke-linejoin="miter" stroke-miterlimit="10" stroke-dasharray="" stroke-dashoffset="0" style="mix-blend-mode: normal"><path d="M259.47112,180.68753v8.58543h-3.44998v-8.08506c0,-1.50115 -0.89542,-2.44923 -2.29121,-2.44923c-1.39579,0 -2.29121,0.94808 -2.29121,2.44923v8.08506h-3.44998v-8.08506c0,-1.50115 -0.86908,-2.44923 -2.26487,-2.44923c-1.39579,0 -2.31754,0.94808 -2.31754,2.44923v8.08506h-3.42364v-13.00984h3.42364v2.08053c0.76373,-1.55382 2.02785,-2.34389 3.81868,-2.34389c1.79083,0 3.16028,0.92174 3.79234,2.50189c0.7374,-1.55381 2.18587,-2.50189 4.0557,-2.50189c2.63357,0 4.39807,1.86983 4.39807,4.68776z" fill="#000000" stroke-width="0.35808"/><path d="M239.89762,194.55715v-23.65909h19.61742v23.65909z" fill-opacity="0.00403" fill="#808080" stroke-width="0"/></g></g></svg>