<svg version="1.1" xmlns="http://www.w3.org/2000/svg" xmlns:xlink="http://www.w3.org/1999/xlink" width="35.14903" height="35.14872" viewBox="0,0,35.14903,35.14872"><g transform="translate(-222.41348,-162.4135)"><g data-paper-data="{&quot;isPaintingLayer&quot;:true}" stroke-miterlimit="10" stroke-dasharray="" stroke-dashoffset="0" style="mix-blend-mode: normal"><path d="M229.48315,162.4135h20.03379c3.9166,0 7.06966,3.15307 7.06966,7.06966v20.03379c0,3.91659 -3.15306,7.06966 -7.06966,7.06966h-20.03379c-3.91659,0 -7.06966,-3.15307 -7.06966,-7.06966v-20.03379c0,-3.91659 3.15307,-7.06966 7.06966,-7.06966z" fill-opacity="0.59677" fill="#5e807a" fill-rule="evenodd" stroke="none" stroke-width="4.43922" stroke-linecap="round" stroke-linejoin="round"/><path d="M225.80201,186.88896c0,0 0.48758,-2.53634 -0.0329,-5.73856c-0.27884,-1.71553 -1.03336,-3.74864 -0.43768,-5.9472c1.85442,-9.38664 8.56346,-10.40292 8.56346,-10.40292l1.7924,15.35748z" fill="#5e807a" fill-rule="nonzero" stroke="none" stroke-width="0" stroke-linecap="butt" stroke-linejoin="miter"/><path d="M240.23937,181.92469l12.94692,-7.53034c0,0 2.97258,6.0358 -3.28619,13.03094c-1.37548,1.76926 -3.37953,2.34668 -4.86989,3.12411c-2.78189,1.45116 -4.48063,3.33034 -4.48063,3.33034z" data-paper-data="{&quot;index&quot;:null}" fill="#5e807a" fill-rule="nonzero" stroke="none" stroke-width="0" stroke-linecap="butt" stroke-linejoin="miter"/><path d="M228.32075,180.76888c-1.62457,-6.15667 2.04943,-12.4646 8.20611,-14.08917c6.15667,-1.62457 12.4646,2.04943 14.08917,8.20611c1.62457,6.15667 -2.04943,12.4646 -8.20611,14.08917c-0.85796,0.22639 -2.129,5.22477 -2.129,5.22477c0,0 -2.75864,-1.65753 -3.69499,-2.83184c-0.84512,-1.0599 -1.67751,-3.90602 -1.67751,-3.90602c0,0 -3.09137,0.65392 -4.63854,0.54018c-1.54913,-0.1139 -4.65033,-1.22313 -4.65033,-1.22313c0,0 3.13233,-4.37625 2.70122,-6.01007z" fill="#000000" fill-rule="nonzero" stroke="none" stroke-width="0" stroke-linecap="butt" stroke-linejoin="miter"/><path d="M241.50751,185.72116l-9.80629,-5.06623" fill="none" fill-rule="nonzero" stroke="#5e807a" stroke-width="3" stroke-linecap="round" stroke-linejoin="miter"/><path d="M257.56251,169.83175v20.49804c0,4.00745 -3.22497,7.23243 -7.23242,7.23243h-20.5c-3.66107,0 -6.66147,-2.69385 -7.1543,-6.21484c0.7952,3.03475 3.54108,5.26367 6.83204,5.26367h20.0332c3.9166,0 7.07032,-3.15372 7.07032,-7.07031v-20.03321c0,-3.2976 -2.23906,-6.0451 -5.28321,-6.83398c3.52994,0.48496 6.23438,3.49081 6.23438,7.15821z" fill-opacity="0.50151" fill="#000000" fill-rule="evenodd" stroke="none" stroke-width="4.54219" stroke-linecap="round" stroke-linejoin="round"/></g></g></svg>