<svg version="1.1" xmlns="http://www.w3.org/2000/svg" xmlns:xlink="http://www.w3.org/1999/xlink" width="35.14904" height="35.14874" viewBox="0,0,35.14904,35.14874"><g transform="translate(-222.41346,-162.41346)"><g data-paper-data="{&quot;isPaintingLayer&quot;:true}" stroke-miterlimit="10" stroke-dasharray="" stroke-dashoffset="0" style="mix-blend-mode: normal"><path d="M229.48313,162.41347h20.03379c3.9166,0 7.06966,3.15307 7.06966,7.06966v20.03379c0,3.91659 -3.15306,7.06966 -7.06966,7.06966h-20.03379c-3.91659,0 -7.06966,-3.15307 -7.06966,-7.06966v-20.03379c0,-3.91659 3.15307,-7.06966 7.06966,-7.06966z" fill-opacity="0.59677" fill="#5e807a" fill-rule="evenodd" stroke="none" stroke-width="4.43922" stroke-linecap="round" stroke-linejoin="round"/><g fill-rule="nonzero" stroke="#5e807a" stroke-linejoin="miter"><path d="M227.20206,179.50002c0,-6.79197 5.506,-12.29797 12.29797,-12.29797c6.79197,0 12.29797,5.506 12.29797,12.29797c0,6.79197 -5.506,12.29796 -12.29797,12.29796c-6.79197,0 -12.29797,-5.50599 -12.29797,-12.29796z" fill="#000000" stroke-width="2" stroke-linecap="butt"/><path d="M235.97518,179.50002c0,-1.94672 1.57813,-3.52484 3.52484,-3.52484c1.94672,0 3.52484,1.57813 3.52484,3.52484c0,1.94672 -1.57813,3.52484 -3.52484,3.52484c-1.94672,0 -3.52484,-1.57813 -3.52484,-3.52484z" fill="#000000" stroke-width="2" stroke-linecap="butt"/><path d="M243.78218,171.24323c0,0 1.2013,0.26603 2.47096,1.57332c1.13234,1.16591 1.38751,2.57987 1.38751,2.57987" fill="none" stroke-width="1.5" stroke-linecap="round"/></g><path d="M257.5625,169.83174v20.49804c0,4.00745 -3.22497,7.23243 -7.23242,7.23243h-20.5c-3.66107,0 -6.66147,-2.69385 -7.1543,-6.21484c0.7952,3.03475 3.54108,5.26367 6.83204,5.26367h20.0332c3.9166,0 7.07032,-3.15372 7.07032,-7.07031v-20.03321c0,-3.2976 -2.23906,-6.0451 -5.28321,-6.83398c3.52994,0.48496 6.23438,3.49081 6.23438,7.15821z" fill-opacity="0.50151" fill="#000000" fill-rule="evenodd" stroke="none" stroke-width="4.54219" stroke-linecap="round" stroke-linejoin="round"/></g></g></svg>