<svg version="1.1" xmlns="http://www.w3.org/2000/svg" xmlns:xlink="http://www.w3.org/1999/xlink" width="34.17311" height="34.17311" viewBox="0,0,34.17311,34.17311"><g transform="translate(-222.91349,-162.9135)"><g data-paper-data="{&quot;isPaintingLayer&quot;:true}" stroke="none" stroke-miterlimit="10" stroke-dasharray="" stroke-dashoffset="0" style="mix-blend-mode: normal"><path d="M229.98316,162.9135h20.03379c3.9166,0 7.06966,3.15307 7.06966,7.06966v20.03379c0,3.91659 -3.15306,7.06966 -7.06966,7.06966h-20.03379c-3.91659,0 -7.06966,-3.15307 -7.06966,-7.06966v-20.03379c0,-3.91659 3.15307,-7.06966 7.06966,-7.06966z" fill-opacity="0.59677" fill="#5e807a" fill-rule="evenodd" stroke-width="4.43922" stroke-linecap="round" stroke-linejoin="round"/><path d="M252.8949,184.47472c-0.73399,1.4943 -1.74149,2.13864 -2.62504,3.64486c-1.03189,1.75909 -2.00204,4.31815 -3.8062,5.05263c-3.15256,1.28342 -8.1193,-0.02127 -11.12584,-1.49804c-3.03163,-1.48909 -7.07153,-4.81857 -7.93846,-8.11581c-0.53597,-2.03846 0.4647,-3.73983 1.33707,-5.81612c0.60253,-1.43406 1.06,-2.98342 1.70493,-4.29642c3.08905,-6.28895 10.61964,-8.91825 16.82001,-5.87269c6.20038,3.04555 8.7226,10.61266 5.63353,16.9016z" fill="#000000" fill-rule="nonzero" stroke-width="0" stroke-linecap="butt" stroke-linejoin="miter"/><path d="M224.37399,174.58625c0,0 4.79354,-1.94026 6.29093,-2.6758c0.75552,-0.37114 1.60343,-1.55348 1.60343,-1.55348c0,0 5.37903,4.24064 8.68296,5.95036c3.68186,1.9053 13.27434,5.30573 13.27434,5.30573c0,0 -0.44479,1.1586 -0.40504,1.83242c0.08866,1.50295 0.921,6.91423 0.921,6.91423c0,0 -8.39299,-0.6817 -17.22431,-4.92058c-7.45361,-3.57761 -13.14329,-10.85288 -13.14329,-10.85288z" fill="#5e807a" fill-rule="nonzero" stroke-width="0" stroke-linecap="butt" stroke-linejoin="miter"/><path d="M229.42698,184.26265l2.33831,-0.81333l-0.50834,2.74498z" fill="#5e807a" fill-rule="nonzero" stroke-width="0" stroke-linecap="butt" stroke-linejoin="miter"/><path d="M234.82552,186.98524c-0.29027,0.89045 -1.085,1.42994 -1.77509,1.205c-0.6901,-0.22494 -1.01425,-1.12917 -0.72398,-2.01961c0.29027,-0.89045 1.085,-1.42995 1.7751,-1.205c0.6901,0.22494 1.01424,1.12917 0.72398,2.01962z" fill="#5e807a" fill-rule="nonzero" stroke-width="0" stroke-linecap="butt" stroke-linejoin="miter"/></g></g></svg>