<svg version="1.1" xmlns="http://www.w3.org/2000/svg" xmlns:xlink="http://www.w3.org/1999/xlink" width="150.04303" height="236.26079" viewBox="0,0,150.04303,236.26079"><g transform="translate(-164.47851,-73.58113)"><g data-paper-data="{&quot;isPaintingLayer&quot;:true}" fill-rule="nonzero" stroke-linejoin="miter" stroke-miterlimit="10" stroke-dasharray="" stroke-dashoffset="0" style="mix-blend-mode: normal"><path d="M170.27994,148.57887c0,-1.65654 -5.80143,-1.9233 -5.80143,-1.9233c0,0 6.69584,-8.87746 7.35214,-11.71771c6.65986,-28.82218 23.99043,-56.21969 66.68631,-56.74538c45.68643,-0.56252 68.23702,35.01087 68.23702,70.3864c0,0.66795 3.07779,7.31159 4.43041,10.36634c2.27861,5.14598 3.33715,7.45866 3.33715,7.45866c0,0 -2.64733,-1.66693 -4.82385,-3.56682c-2.14071,-1.86864 -3.80963,-3.97893 -3.99144,-3.01508c-0.43459,2.30399 -0.59561,10.92242 -4.12876,19.9176c-3.49395,8.89536 -10.36285,18.18124 -10.36285,18.18124c0,0 -2.29192,-5.28642 -3.77673,-3.14158c-6.07718,8.77862 -11.2964,15.30957 -11.2964,15.30957c0,0 -2.40974,-4.97718 -4.47106,-3.86765c-9.32569,5.01966 -20.06286,7.91078 -31.65348,7.91078c-12.60656,0 -24.772,-3.56633 -35.27102,-9.52744c-2.72845,-1.54916 -0.82623,4.38789 -0.82623,4.38789c0,0 -7.93843,-5.19677 -13.15685,-11.00681c-6.08759,-6.77777 -9.73663,-14.57056 -12.13914,-18.68944c-0.34082,-0.58431 -4.01999,1.58785 -5.934,2.01254c-2.96082,0.65696 -4.48364,-0.08182 -4.48364,-0.08182c0,0 2.67098,-3.37669 3.55098,-5.15497c0.94364,-1.90688 1.93325,-5.92746 1.93325,-5.92746c0,0 -2.66402,1.90888 -4.05965,2.38502c-1.48595,0.50696 -4.60208,0.57008 -4.60208,0.57008c0,0 4.39229,-5.64339 5.74307,-11.5602c1.27257,-5.57422 -0.4917,-11.39111 -0.4917,-12.96047z" fill="#000000" stroke="#000000" stroke-width="0" stroke-linecap="butt"/><g><path d="M200.9583,303.65972c0,-11.46758 3.97254,-38.81541 6.29934,-45.78704c1.93422,-5.7953 1.95838,7.76268 4.72124,7.76268c6.08649,0 11.02057,17.02409 11.02057,38.02436c0,6.18329 -22.04115,4.02913 -22.04115,0z" data-paper-data="{&quot;index&quot;:null}" fill="#d3ebfe" stroke="none" stroke-width="0" stroke-linecap="butt"/><path d="M206.5722,265.55172c-3.54696,-4.8972 -3.61386,-9.21626 -3.61386,-10.38402c0,-3.32364 3.97254,-11.24984 6.29934,-13.27042c1.93423,-1.67967 1.95838,2.24985 4.72124,2.24985c6.08649,0 11.02057,4.93408 11.02057,11.02057c0,1.79209 5.76476,7.24419 7.19366,13.69422c2.625,11.84922 -22.78085,0.61103 -25.62095,-3.31021z" data-paper-data="{&quot;index&quot;:null}" fill="#bdd2e4" stroke="none" stroke-width="0" stroke-linecap="butt"/><path d="M207.45449,246.50128c-3.54696,-4.89719 -3.61386,-9.21625 -3.61386,-10.38401c0,-3.32364 3.97254,-11.24984 6.29934,-13.27042c1.93422,-1.67966 1.95838,2.24984 4.72124,2.24984c6.08649,0 11.02057,4.93408 11.02057,11.02057c0,1.7921 5.76475,7.24419 7.19365,13.69422c2.62499,11.84923 1.37686,27.06635 -1.12624,29.14698c-0.40827,0.33937 1.10227,-0.68594 -6.27446,-11.51423c-1.63417,-2.39882 -4.22643,-6.95661 -7.18614,-10.11516c-3.83057,-4.0879 -8.194,-6.90657 -11.0341,-10.82781z" data-paper-data="{&quot;index&quot;:null}" fill="#8ea6b2" stroke="none" stroke-width="0" stroke-linecap="butt"/><path d="M207.03282,225.40167c-3.54696,-4.89719 -3.61386,-9.21625 -3.61386,-10.38401c0,-3.32364 3.97254,-11.24984 6.29934,-13.27042c1.93422,-1.67966 1.95838,2.24984 4.72124,2.24984c6.08649,0 11.02057,4.93408 11.02057,11.02057c0,1.79209 5.76475,7.24419 7.19365,13.69422c2.62499,11.84923 1.37686,27.06635 -1.12624,29.14698c-0.40827,0.33937 1.10227,-0.68594 -6.27446,-11.51423c-1.63417,-2.39882 -4.22643,-6.95661 -7.18614,-10.11516c-3.83057,-4.0879 -8.194,-6.90657 -11.0341,-10.82781z" data-paper-data="{&quot;index&quot;:null}" fill="#5f7e7b" stroke="none" stroke-width="0" stroke-linecap="butt"/><path d="M207.91509,203.3706c-3.54696,-4.89719 -3.61386,-9.21625 -3.61386,-10.38401c0,-3.32363 0.24679,-12.18127 2.57359,-14.20185c1.93423,-1.67967 5.68413,3.18129 8.44699,3.18129c6.08649,0 11.02057,4.93408 11.02057,11.02057c0,1.7921 5.76476,7.24419 7.19366,13.69422c2.62499,11.84924 1.37685,27.06636 -1.12625,29.14699c-0.40827,0.33937 1.10227,-0.68594 -6.27446,-11.51423c-1.63417,-2.39882 -4.22643,-6.95661 -7.18614,-10.11516c-3.83057,-4.0879 -8.194,-6.90657 -11.0341,-10.82781z" data-paper-data="{&quot;index&quot;:null}" fill="#304d47" stroke="none" stroke-width="0" stroke-linecap="butt"/><path d="M254.45302,305.97057c0,-21.00027 4.93408,-38.02436 11.02057,-38.02436c2.76286,0 2.78702,-13.55798 4.72124,-7.76268c2.3268,6.97163 6.29934,34.31946 6.29934,45.78704c0,4.02913 -22.04115,6.18329 -22.04115,0z" data-paper-data="{&quot;index&quot;:null}" fill="#d3ebfe" stroke="none" stroke-width="0" stroke-linecap="butt"/><path d="M270.88025,267.86257c-2.8401,3.92124 -28.24595,15.15943 -25.62095,3.31021c1.4289,-6.45003 7.19366,-11.90213 7.19366,-13.69422c0,-6.08649 4.93408,-11.02057 11.02057,-11.02057c2.76286,0 2.78701,-3.92952 4.72124,-2.24985c2.3268,2.02058 6.29934,9.94678 6.29934,13.27042c0,1.16776 -0.0669,5.48682 -3.61386,10.38402z" data-paper-data="{&quot;index&quot;:null}" fill="#bdd2e4" stroke="none" stroke-width="0" stroke-linecap="butt"/><path d="M269.99797,248.81211c-2.8401,3.92124 -7.20353,6.73991 -11.0341,10.82781c-2.95971,3.15855 -5.55197,7.71634 -7.18614,10.11516c-7.37673,10.82829 -5.86619,11.8536 -6.27446,11.51423c-2.5031,-2.08063 -3.75123,-17.29775 -1.12624,-29.14698c1.4289,-6.45003 7.19365,-11.90212 7.19365,-13.69422c0,-6.08649 4.93408,-11.02057 11.02057,-11.02057c2.76286,0 2.78702,-3.9295 4.72124,-2.24984c2.3268,2.02058 6.29934,9.94678 6.29934,13.27042c0,1.16776 -0.0669,5.48682 -3.61386,10.38401z" data-paper-data="{&quot;index&quot;:null}" fill="#8ea6b2" stroke="none" stroke-width="0" stroke-linecap="butt"/><path d="M270.41965,227.7125c-2.8401,3.92124 -7.20353,6.73991 -11.0341,10.82781c-2.95971,3.15855 -5.55197,7.71634 -7.18614,10.11516c-7.37673,10.82829 -5.86619,11.8536 -6.27446,11.51423c-2.5031,-2.08063 -3.75123,-17.29775 -1.12624,-29.14698c1.4289,-6.45003 7.19365,-11.90213 7.19365,-13.69422c0,-6.08649 4.93408,-11.02057 11.02057,-11.02057c2.76286,0 2.78702,-3.9295 4.72124,-2.24984c2.3268,2.02058 6.29934,9.94678 6.29934,13.27042c0,1.16776 -0.0669,5.48682 -3.61386,10.38401z" data-paper-data="{&quot;index&quot;:null}" fill="#5f7e7b" stroke="none" stroke-width="0" stroke-linecap="butt"/><path d="M269.53737,205.68146c-2.8401,3.92124 -7.20353,6.73991 -11.0341,10.82781c-2.95971,3.15855 -5.55197,7.71634 -7.18614,10.11516c-7.37673,10.82829 -5.86619,11.8536 -6.27446,11.51423c-2.5031,-2.08063 -3.75124,-17.29775 -1.12625,-29.14699c1.4289,-6.45003 7.19366,-11.90212 7.19366,-13.69422c0,-6.08649 4.93408,-11.02057 11.02057,-11.02057c2.76286,0 6.51276,-4.86096 8.44699,-3.18129c2.3268,2.02058 2.57359,10.87822 2.57359,14.20185c0,1.16776 -0.0669,5.48682 -3.61386,10.38401z" data-paper-data="{&quot;index&quot;:null}" fill="#304d47" stroke="none" stroke-width="0" stroke-linecap="butt"/><path d="M205.6333,307.22368c0,0 13.70618,-43.82794 16.26075,-66.06944c2.49147,-21.69213 -1.1179,-65.77266 -1.1179,-65.77266l37.78325,-0.15789c0,0 -4.22286,45.59329 -2.01266,67.0865c2.31002,22.4639 15.58655,64.9135 15.58655,64.9135z" fill="#000000" stroke="#000000" stroke-width="2" stroke-linecap="butt"/><path d="M259.84788,231.92944c-2.41334,2.91532 -7.78168,12.99125 -6.96813,25.0451c1.5066,22.32205 11.47011,50.89618 10.80087,49.59519c-1.41514,-2.75101 -23.41239,4.5947 -24.7772,-0.67079c-7.72896,-29.81867 -1.55624,-100.47421 -1.55624,-100.47421c0,0 -3.65768,-2.41583 -1.93582,-4.17018c3.94279,-4.01718 25.10319,-19.43431 25.10319,-19.43431h4.58977c0,0 10.74993,6.14275 13.5263,12.46867c2.96644,6.75898 3.73995,26.87216 3.73995,26.87216c0,0 -15.03819,1.72708 -22.52271,10.76837z" data-paper-data="{&quot;index&quot;:null}" fill="#0a1d1e" stroke="none" stroke-width="0" stroke-linecap="butt"/><path d="M195.39606,221.93392c0,0 0.7735,-20.11319 3.73995,-26.87218c2.77638,-6.32592 13.5263,-12.46866 13.5263,-12.46866h4.58977l23.16737,23.60449c0,0 6.17273,70.65553 -1.55623,100.4742c-1.3648,5.2655 -23.36206,-2.08021 -24.77721,0.67079c-0.66924,1.30099 9.29427,-27.27314 10.80087,-49.59519c0.81356,-12.05384 -4.55479,-22.12977 -6.96814,-25.0451c-7.48451,-9.04129 -22.52271,-10.76837 -22.52271,-10.76837z" fill="#0a1d1e" stroke="none" stroke-width="0" stroke-linecap="butt"/><path d="M225.4023,224.62318l-3.86372,-10.65525l35.34895,0.21498l-3.6171,10.60469z" fill="#d3ebfe" stroke="none" stroke-width="0" stroke-linecap="butt"/><path d="M221.41516,214.08747c0,0 3.27959,-2.45427 4.70367,-3.25108c1.06894,-0.59811 3.0852,-1.10698 3.0852,-1.10698l20.12127,0.3709c0,0 2.83216,0.93569 4.07533,1.59564c1.26016,0.66897 3.80626,2.3915 3.80626,2.3915z" fill="#8ea6b2" stroke="none" stroke-width="0" stroke-linecap="butt"/><path d="M250.24574,218.97516h-22.39744" fill="none" stroke="#000000" stroke-width="5" stroke-linecap="round"/><path d="M227.82386,218.92837h11.37574" fill="none" stroke="#ffa200" stroke-width="5" stroke-linecap="round"/><path d="M234.02825,219.11072h-6.33997" fill="none" stroke="#dd6000" stroke-width="5" stroke-linecap="round"/></g><path d="M220.1633,191.91426l4.11244,1.89404c0,0 2.83477,4.41913 6.8321,7.80436c3.42779,2.90289 8.25418,4.83875 8.06876,4.91681c-0.21553,0.09074 13.47459,3.19485 9.4775,3.32531c-1.08729,0.03548 -18.49662,0.34202 -19.78531,-0.2829c-1.68208,-0.81569 -11.15413,-11.66385 -10.25022,-13.58275c0.53359,-1.13273 1.54473,-4.07489 1.54473,-4.07489z" fill="#779295" stroke="none" stroke-width="0" stroke-linecap="butt"/><path d="M259.95184,196.0692c0.9039,1.91888 -8.56815,12.76707 -10.25022,13.58276c-1.28867,0.62491 -18.69801,0.31837 -19.7853,0.28288c-3.9971,-0.13045 9.69302,-3.23456 9.47749,-3.3253c-0.18856,-0.07939 4.84808,-3.3365 8.58715,-6.35545c4.22472,-3.41107 7.22519,-6.62616 7.22519,-6.62616l3.20097,-1.63362c0,0 1.01114,2.94215 1.54473,4.07488z" data-paper-data="{&quot;index&quot;:null}" fill="#779295" stroke="none" stroke-width="0" stroke-linecap="butt"/><path d="M174.72322,145.57885c0,-33.30185 28.7599,-60.29833 64.23702,-60.29833c35.47712,0 64.23702,26.99649 64.23702,60.29833c0,33.30185 -28.7599,60.29833 -64.23702,60.29833c-35.47712,0 -64.23702,-26.99649 -64.23702,-60.29833z" fill="#ffffff" stroke="#000000" stroke-width="2" stroke-linecap="butt"/><path d="M175.44629,145.63269c0,-0.72799 5.20666,55.91939 63.36046,56.93429c55.56352,0.9697 63.51358,-57.95314 63.51358,-56.93429c0,32.80479 -28.40173,59.39833 -63.43702,59.39833c-35.03529,0 -63.43702,-26.59354 -63.43702,-59.39833z" fill="#e6e6e6" stroke="#000000" stroke-width="0" stroke-linecap="butt"/><path d="M188.27345,146.00832c0,-12.968 10.51265,-23.48065 23.48065,-23.48065c12.968,0 23.48065,10.51265 23.48065,23.48065c0,12.968 -10.51265,23.48065 -23.48065,23.48065c-12.968,0 -23.48065,-10.51265 -23.48065,-23.48065z" fill="#ffffff" stroke="#000000" stroke-width="2" stroke-linecap="butt"/><path d="M195.33883,145.73269c0,-9.12808 7.39976,-16.52784 16.52783,-16.52784c9.12808,0 16.52784,7.39977 16.52784,16.52784c0,9.12808 -7.39977,16.52784 -16.52784,16.52784c-9.12808,0 -16.52783,-7.39977 -16.52783,-16.52784z" fill="#000000" stroke="none" stroke-width="0" stroke-linecap="butt"/><path d="M266.01254,169.48896c-12.968,0 -23.48065,-10.51265 -23.48065,-23.48065c0,-12.968 10.51265,-23.48065 23.48065,-23.48065c12.968,0 23.48065,10.51265 23.48065,23.48065c0,12.968 -10.51265,23.48065 -23.48065,23.48065z" data-paper-data="{&quot;index&quot;:null}" fill="#ffffff" stroke="#000000" stroke-width="2" stroke-linecap="butt"/><path d="M265.89995,162.26053c-9.12807,0 -16.52783,-7.39977 -16.52783,-16.52784c0,-9.12808 7.39977,-16.52784 16.52783,-16.52784c9.12807,0 16.52783,7.39977 16.52783,16.52784c0,9.12808 -7.39977,16.52784 -16.52783,16.52784z" data-paper-data="{&quot;index&quot;:null}" fill="#000000" stroke="none" stroke-width="0" stroke-linecap="butt"/><path d="M188.27345,146.00832c0,-12.968 10.51265,-23.48065 23.48065,-23.48065c12.968,0 23.48065,10.51265 23.48065,23.48065c0,0 -46.96131,1.23155 -46.96131,0z" fill="#ffffff" stroke="#000000" stroke-width="2" stroke-linecap="butt"/><path d="M242.53189,146.00832c0,-12.968 10.51265,-23.48065 23.48065,-23.48065c12.968,0 23.48065,10.51265 23.48065,23.48065c0,1.2138 -46.96131,0 -46.96131,0z" data-paper-data="{&quot;index&quot;:null}" fill="#ffffff" stroke="#000000" stroke-width="2" stroke-linecap="butt"/><path d="M200.91113,117.19985c0,0 6.70895,-5.16922 11.79721,-6.36355c5.08827,-1.19433 12.33413,0.69937 12.33413,0.69937c0,0 -8.03812,-0.06028 -11.96762,0.86207c-4.10648,0.96389 -12.16372,4.80211 -12.16372,4.80211z" fill="#000000" stroke="none" stroke-width="0" stroke-linecap="butt"/><path d="M264.84563,112.39775c-3.9295,-0.92235 -11.96762,-0.86207 -11.96762,-0.86207c0,0 7.24586,-1.8937 12.33413,-0.69937c5.08826,1.19433 11.79721,6.36355 11.79721,6.36355c0,0 -8.05724,-3.83822 -12.16372,-4.80211z" data-paper-data="{&quot;index&quot;:null}" fill="#000000" stroke="none" stroke-width="0" stroke-linecap="butt"/><path d="M303.22594,93.03699c0.12101,-1.50721 2.13016,-1.36271 2.26369,-1.36271c0.12302,0 10.36322,10.68917 8.88626,21.11275c-1.05927,7.4759 0.05543,16.87363 -3.23386,24.17189c-4.95565,10.99555 -19.70919,22.03146 -19.70919,22.55188c0,0.89148 6.78207,-23.63226 10.80216,-41.60153c2.0562,-9.191 2.87674,-18.05237 2.76025,-18.05237c-0.21073,0 -1.96026,-4.44149 -1.76932,-6.81991z" data-paper-data="{&quot;index&quot;:null}" fill="#304d47" stroke="none" stroke-width="0" stroke-linecap="butt"/><path d="M185.36101,158.65021c0,0 -9.04127,-16.0928 -10.58302,-30.82643c-1.44184,-13.77861 4.55186,-26.10558 6.09797,-30.32944c3.27064,-8.93516 19.24026,-21.86297 19.24026,-21.86297c0,0 4.64515,-1.82905 4.94788,-0.59404c0.25526,1.0413 -2.56914,6.6962 -4.88898,13.0924c-0.84944,2.34201 -3.12419,7.0087 -4.12396,11.62367c-1.37162,6.33149 -1.37106,12.56559 -1.37106,12.56559c0,0 5.62363,15.15216 15.55684,18.74842c20.21075,7.3172 54.60484,4.97308 70.15895,-2.84063c6.69927,-3.36543 1.7857,-34.0208 -2.86639,-43.60093c-0.32157,-0.66223 -9.09877,-11.81432 -4.22485,-11.00248c2.41548,0.40235 12.69355,6.99678 18.71127,15.27931c6.58478,9.06297 10.07623,19.47962 11.99626,20.37591c2.84102,6.99103 -8.80482,45.23401 -9.24725,47.43372c-0.79179,3.93642 -54.63805,30.41391 -54.63805,30.41391z" fill="#0a1d1e" stroke="none" stroke-width="0" stroke-linecap="butt"/><g stroke="none" stroke-width="0" stroke-linecap="butt"><path d="M228.79005,171.47018c-8.32941,-3.80361 -32.21452,-16.82601 -32.21452,-16.82601c0,0 -2.09407,-3.14568 -2.40856,-4.70745c-0.31151,-1.54712 0.53053,-4.6196 0.53053,-4.6196c0,0 8.60204,5.15796 13.31429,7.28288c3.99727,1.80252 14.42076,4.65933 14.42076,4.65933c0,0 8.38637,2.53896 18.6645,2.71339c6.08455,0.10325 15.67838,-2.74435 16.85182,-1.67004c0.91273,0.83561 -2.88561,5.77519 -7.23544,10.1181c-3.84033,3.83425 -11.16998,6.8406 -11.16998,6.8406c0,0 -4.23458,-0.81443 -10.75337,-3.79121z" data-paper-data="{&quot;index&quot;:null}" fill="#dd6000"/><path d="M239.29455,175.34434c0,0 -4.40825,-3.34434 -8.24862,-7.17858c-4.34983,-4.34291 -8.14819,-9.28248 -7.23544,-10.1181c0.64627,-0.59167 3.32614,0.56835 7.08774,1.20777c3.06833,0.52158 7.03062,0.50866 9.76408,0.46227c10.27812,-0.17442 18.6645,-2.71339 18.6645,-2.71339c0,0 10.4235,-2.85682 14.42076,-4.65935c4.71223,-2.12492 13.3143,-7.28289 13.3143,-7.28289c0,0 0.84203,3.07249 0.53052,4.6196c-0.31446,1.56176 -2.40856,4.70745 -2.40856,4.70745c0,0 -23.88512,13.02241 -32.21452,16.82601c-6.51879,2.97678 -13.67475,4.1292 -13.67475,4.1292z" fill="#ffa200"/></g><path d="M174.00479,99.63323c-0.11651,0 0.70404,8.86137 2.76026,18.05237c4.02008,17.96928 10.80215,42.493 10.80215,41.60153c0,-0.52041 -14.75356,-11.55632 -19.70919,-22.55187c-3.28929,-7.29825 -2.17456,-16.696 -3.23386,-24.1719c-1.47695,-10.42356 8.76322,-21.11275 8.88626,-21.11275c0.13353,0 2.14268,-0.1445 2.26369,1.36271c0.19094,2.37842 -1.5586,6.81991 -1.76933,6.81991z" fill="#304d47" stroke="none" stroke-width="0" stroke-linecap="butt"/><path d="M179.80234,115.86992c11.42496,-22.68233 31.40973,-33.07142 60.56473,-32.85267c24.16321,0.18129 39.14424,9.27509 47.64651,17.23625c0.95139,0.89084 -11.16905,5.58091 -18.25999,7.52146c-15.29703,4.18628 -30.35723,6.25195 -30.35723,6.25195l6.65013,-11.17032c0,0 -23.70536,7.34319 -34.98048,9.59002c-11.17264,2.22641 -31.26367,3.4233 -31.26367,3.4233z" fill="#000000" stroke="none" stroke-width="0" stroke-linecap="butt"/><path d="M260.26973,150.00022c-0.9759,0.78418 -2.78157,1.8476 -3.93619,1.8476c-1.7965,0 -7.92597,1.53286 -15.27169,1.84235c-11.92002,0.50221 -27.44753,-1.7172 -35.87937,-8.53299c-5.07133,-4.09936 -7.50678,-7.42587 -10.57194,-13.09754c-8.68869,-16.0771 -1.31505,-30.74505 -1.31505,-33.90912c0,-5.90771 18.24327,-17.80481 32.77412,-19.40138c3.95558,-0.37082 13.48678,-1.12211 15.64211,-1.12211c5.21809,0 13.52017,3.20117 19.12654,7.51666c6.6796,5.14162 9.25736,12.30984 9.25736,16.26773c0,6.54479 -1.13688,41.60678 -9.82587,48.58883z" data-paper-data="{&quot;index&quot;:null}" fill="#8ea6b2" stroke="none" stroke-width="0" stroke-linecap="butt"/><path d="M207.41916,101.55067c0,-3.95789 2.57778,-11.12613 9.2574,-16.26773c5.60638,-4.31549 12.40844,-7.01667 17.62653,-7.01667c2.15531,0 16.18653,0.75129 20.14211,1.12212c17.03085,1.59657 31.77413,15.49366 31.77413,21.40138c0,3.16407 4.87364,12.33201 -3.81505,28.40912c-3.0652,5.67168 -6.50064,11.99817 -11.57195,16.09754c-8.43183,6.81581 -22.45933,9.03521 -34.37937,8.53301c-7.34572,-0.30949 -13.47521,-1.84235 -15.27168,-1.84235c-1.15466,0 -2.96031,-1.06339 -3.93619,-1.84759c-8.68903,-6.98203 -9.82587,-42.04403 -9.82587,-48.58882z" fill="#bdd2e4" stroke="none" stroke-width="0" stroke-linecap="butt"/><path d="M248.13886,86.95881c0.40226,-0.63764 0.5404,-1.51613 1.10194,-2.00855c0.08564,-0.0751 0.18113,-0.1412 0.2889,-0.19611c0.12411,-0.06323 0.26288,-0.11485 0.41505,-0.15558c0.30362,-0.10304 0.63243,-0.15937 0.97578,-0.15937c0.20134,0 0.39768,0.01936 0.58688,0.05619c4.31444,0.28131 12.51266,4.02182 14.59994,5.30222c0.2272,0.13939 4.99845,3.52632 4.6909,4.82071c-0.3376,1.42083 -1.3956,2.83373 -3.14933,2.51962c-3.23663,-0.57969 -5.6603,-4.08503 -8.8503,-5.37597c-1.29125,-0.52254 -8.78797,-1.83604 -9.28991,-2.63169z" fill="#ffffff" stroke="none" stroke-width="0.5" stroke-linecap="butt"/><path d="M239.0209,201.9536c-4.24837,-0.12742 -12.96067,-3.85981 -12.96067,-3.85981c0,0 0.91122,-19.72517 12.43028,-19.29176c11.88231,0.44707 13.36973,20.06553 13.36973,20.06553c0,0 -8.49007,3.21647 -12.83933,3.08603z" fill="#000000" stroke="#000000" stroke-width="2" stroke-linecap="round"/><path d="M228.60786,198.21235l0.33156,-1.8318c0,0 6.74712,1.71476 9.89059,1.85703c3.14348,0.14227 9.29087,-1.29666 9.29087,-1.29666l0.60502,1.9549c0,0 -6.60751,2.69568 -9.89919,2.53455c-3.41015,-0.16694 -10.21886,-3.21803 -10.21886,-3.21803z" fill="#ffffff" stroke="none" stroke-width="0" stroke-linecap="butt"/></g></g></svg>