<svg version="1.1" xmlns="http://www.w3.org/2000/svg" xmlns:xlink="http://www.w3.org/1999/xlink" width="38.19044" height="38.19044" viewBox="0,0,38.19044,38.19044"><g transform="translate(-220.90478,-160.90478)"><g data-paper-data="{&quot;isPaintingLayer&quot;:true}" fill-rule="nonzero" stroke="none" stroke-width="1" stroke-linecap="butt" stroke-linejoin="miter" stroke-miterlimit="10" stroke-dasharray="" stroke-dashoffset="0" style="mix-blend-mode: normal"><path d="M220.90478,180c0,-10.546 8.54922,-19.09522 19.09522,-19.09522c10.546,0 19.09522,8.54922 19.09522,19.09522c0,10.546 -8.54922,19.09522 -19.09522,19.09522c-10.546,0 -19.09522,-8.54922 -19.09522,-19.09522z" fill="#9a9a9a"/><g fill="#ffffff"><g><path d="M230.63316,173.2374c0,-0.50921 0.44556,-0.95476 0.95476,-0.95476h9.92951v1.90952h-9.92951c-0.50921,0 -0.95476,-0.44556 -0.95476,-0.95476z"/></g><g><path d="M230.63316,178.64771c0,-0.50921 0.44556,-0.95476 0.95476,-0.95476h9.92951v1.90952h-9.92951c-0.50921,0 -0.95476,-0.44556 -0.95476,-0.95476z"/></g><g><path d="M236.67998,183.10326h0.89111c0,0 -0.63651,0.89111 -0.82746,1.90952h-5.28301c-0.50921,0 -0.95476,-0.44556 -0.95476,-0.95476c0,-0.50921 0.44556,-0.95476 0.95476,-0.95476z"/></g><g><path d="M249.47378,172.21899c0,0.2546 0,2.60968 0,3.18254c0,0.3819 -0.19095,0.70016 -0.63651,0.76381c-0.44556,0.06365 -2.92793,0.44556 -2.92793,0.44556v8.6565v0c0,0.06365 0,0.06365 0,0.06365c0.06365,1.33667 -1.27301,2.60968 -3.05524,2.86428c-1.84587,0.2546 -3.50079,-0.70016 -3.69174,-2.10047c-0.19095,-1.40032 1.20936,-2.73698 3.05524,-2.99158c0.19095,-0.06365 0.3819,-0.06365 0.57286,-0.06365c0.44556,0 0.95476,0 1.27301,0v-6.11047v-4.01c0,-0.31825 0.19095,-0.57286 0.50921,-0.57286c0,0 3.81904,-0.50921 4.3919,-0.57286c0.50921,-0.06365 0.57286,0.19095 0.50921,0.44556z"/></g></g></g></g></svg>