<svg version="1.1" xmlns="http://www.w3.org/2000/svg" xmlns:xlink="http://www.w3.org/1999/xlink" width="86.54199" height="38.22227" viewBox="0,0,86.54199,38.22227"><g transform="translate(-220.90478,-160.87295)"><g data-paper-data="{&quot;isPaintingLayer&quot;:true}" stroke-miterlimit="10" stroke-dasharray="" stroke-dashoffset="0" style="mix-blend-mode: normal"><path d="M239.875,199.09522v-38.19044h48.95298v38.19044z" fill="#3e55b3" fill-rule="nonzero" stroke="#000000" stroke-width="0" stroke-linecap="butt" stroke-linejoin="miter"/><path d="M240,199.09522c-10.54601,0 -19.09522,-8.54922 -19.09522,-19.09522c0,-10.54601 8.54922,-19.09522 19.09522,-19.09522" fill="#3e55b3" fill-rule="evenodd" stroke="none" stroke-width="0.07853" stroke-linecap="round" stroke-linejoin="round"/><path d="M288.35155,160.87295c10.546,0 19.09522,8.54921 19.09522,19.09522c0,10.546 -8.54921,19.09522 -19.09522,19.09522" data-paper-data="{&quot;index&quot;:null}" fill="#3e55b3" fill-rule="evenodd" stroke="none" stroke-width="0.07853" stroke-linecap="round" stroke-linejoin="round"/><g fill="#ffffff" fill-rule="nonzero" stroke="none" stroke-width="1" stroke-linecap="butt" stroke-linejoin="miter"><path d="M250.24777,176.18096l-1.59127,5.66492c-0.06365,0.19095 -0.2546,0.3819 -0.44556,0.44556c0,0 -0.06365,0 -0.1273,0c-0.1273,0 -0.31825,-0.06365 -0.44556,-0.19095l-3.18254,-3.30984c-0.19095,-0.19095 -0.2546,-0.3819 -0.19095,-0.57286c0,-0.19095 0.1273,-0.3819 0.31825,-0.44556l1.65492,-0.82746c-1.20936,-2.35508 -3.62809,-3.88269 -6.30142,-3.88269c-2.22778,0 -4.20095,1.01841 -5.47396,2.60968c-0.2546,0.3819 -0.70016,0.2546 -0.89111,0.06365l-0.44556,-0.50921c-0.19095,-0.2546 -0.2546,-0.57286 0,-0.89111c1.59127,-1.97317 4.1373,-3.24619 6.87428,-3.24619c3.37349,0 6.49237,1.97317 7.95634,4.96476l1.46397,-0.70016c0.2546,-0.1273 0.50921,-0.1273 0.70016,0.06365c0.19095,0.19095 0.2546,0.44556 0.1273,0.76381z"/><path d="M246.87428,184.71015c0.19095,0.2546 0.2546,0.57286 0,0.89111c-1.59127,1.97317 -4.1373,3.24619 -6.87428,3.24619c-3.37349,0 -6.49237,-1.97317 -7.95634,-4.96476l-1.46397,0.70016c-0.2546,0.1273 -0.50921,0.1273 -0.70016,-0.06365c-0.19095,-0.1273 -0.2546,-0.3819 -0.19095,-0.63651l1.59127,-5.66492c0.06365,-0.19095 0.2546,-0.3819 0.44556,-0.44556c0,0 0.06365,0 0.1273,0c0.1273,0 0.31825,0.06365 0.44556,0.19095l3.18254,3.30984c0.19095,0.19095 0.2546,0.3819 0.19095,0.57286c0,0.19095 -0.1273,0.3819 -0.31825,0.44556l-1.65492,0.82746c1.20936,2.35508 3.62809,3.88269 6.30142,3.88269c2.22778,0 4.20095,-1.01841 5.47396,-2.60968c0.2546,-0.3819 0.70016,-0.2546 0.89111,-0.06365z"/></g><text transform="translate(254.71139,184.43964) scale(0.3848,0.3848)" font-size="40" xml:space="preserve" fill="#ffffff" fill-rule="nonzero" stroke="none" stroke-width="1" stroke-linecap="butt" stroke-linejoin="miter" stroke-miterlimit="10" stroke-dasharray="" stroke-dashoffset="0" font-family="&quot;ヒラギノ角ゴ Pro W3&quot;, &quot;Hiragino Kaku Gothic Pro&quot;, Osaka, &quot;メイリオ&quot;, Meiryo, &quot;ＭＳ Ｐゴシック&quot;, &quot;MS PGothic&quot;" font-weight="normal" text-anchor="start" style="mix-blend-mode: normal"><tspan x="0" dy="0">AUTO</tspan></text></g></g></svg>