<svg version="1.1" xmlns="http://www.w3.org/2000/svg" xmlns:xlink="http://www.w3.org/1999/xlink" width="34.17311" height="34.17311" viewBox="0,0,34.17311,34.17311"><g transform="translate(-222.91355,-162.9135)"><g data-paper-data="{&quot;isPaintingLayer&quot;:true}" stroke="none" stroke-miterlimit="10" stroke-dasharray="" stroke-dashoffset="0" style="mix-blend-mode: normal"><path d="M229.98322,162.9135h20.03379c3.9166,0 7.06966,3.15307 7.06966,7.06966v20.03379c0,3.91659 -3.15306,7.06966 -7.06966,7.06966h-20.03379c-3.91659,0 -7.06966,-3.15307 -7.06966,-7.06966v-20.03379c0,-3.91659 3.15307,-7.06966 7.06966,-7.06966z" fill-opacity="0.13218" fill="#1a1a1a" fill-rule="evenodd" stroke-width="4.43922" stroke-linecap="round" stroke-linejoin="round"/><g fill-rule="nonzero" stroke-width="0" stroke-linejoin="miter"><path d="M248.65797,180.26751c-1.51695,4.42031 -6.34882,6.76751 -10.79227,5.24262c-4.44346,-1.52489 -6.81586,-6.34444 -5.29891,-10.76475c1.51695,-4.42031 6.34882,-6.76751 10.79227,-5.24262c4.44346,1.52489 6.81586,6.34444 5.29891,10.76475z" fill="#bfbfbf" stroke-linecap="butt"/><path d="M248.65797,180.26751c-1.51695,4.42031 -6.34882,6.76751 -10.79227,5.24262c-1.0881,-0.37341 4.36291,-16.39531 5.49337,-16.00737c4.44346,1.52489 6.81586,6.34444 5.29891,10.76475z" fill="#ffffff" stroke-linecap="butt"/><path d="M232.38002,183.1717l0.24156,-0.35195c0,0 1.00216,-0.14585 2.13857,0.12815c1.13273,0.27311 1.87475,0.68771 1.87475,0.68771l-0.41007,1.09197c0,0 -0.75344,-0.4506 -1.78941,-0.74145c-0.76545,-0.28725 -4.57184,-0.69679 -4.57184,-0.69679l0.10832,-0.33614z" fill="#000000" stroke-linecap="butt"/><path d="M243.1477,185.40326c0,0 0.59985,0.36893 0.90252,0.57464c0.3139,0.21335 0.94842,0.68335 0.94842,0.68335l-0.13169,0.40549c0,0 -1.63567,-1.43258 -3.65094,-1.94064c-1.61136,-0.40622 -2.66521,-0.17862 -2.66521,-0.17862l0.46257,-1.12882c0,0 1.3894,0.03515 2.23779,0.26706c0.8484,0.23191 1.90805,0.86622 1.90805,0.86622z" data-paper-data="{&quot;index&quot;:null}" fill="#000000" stroke-linecap="butt"/><path d="M230.86485,185.37877c0.41811,-1.21836 1.84188,-1.83375 3.18007,-1.37451c1.33819,0.45924 2.08406,1.81919 1.66595,3.03756c-0.41811,1.21836 -1.84188,1.83375 -3.18007,1.37451c-1.33819,-0.45924 -2.08406,-1.81919 -1.66595,-3.03756z" fill="#ffffff" stroke-linecap="butt"/><path d="M231.97499,185.74412c0.24087,-0.70188 1.00512,-1.07561 1.707,-0.83474c0.70188,0.24087 1.07561,1.00512 0.83474,1.707c-0.24087,0.70188 -1.00512,1.07561 -1.707,0.83474c-0.70188,-0.24087 -1.07561,-1.00512 -0.83474,-1.707z" fill="#000000" stroke-linecap="butt"/><path d="M237.61892,187.6966c0.41811,-1.21836 1.83062,-1.83761 3.15493,-1.38314c1.3243,0.45447 2.05892,1.81057 1.6408,3.02893c-0.41811,1.21836 -1.83062,1.83761 -3.15493,1.38314c-1.3243,-0.45447 -2.05892,-1.81057 -1.6408,-3.02893z" fill="#ffffff" stroke-linecap="butt"/><path d="M238.73465,188.06387c0.24087,-0.70188 1.00512,-1.07561 1.707,-0.83474c0.70188,0.24087 1.07561,1.00512 0.83474,1.707c-0.24087,0.70188 -1.00512,1.07561 -1.707,0.83474c-0.70188,-0.24087 -1.07561,-1.00512 -0.83474,-1.707z" fill="#000000" stroke-linecap="butt"/><path d="M230.84152,185.26416c0,0 0.74321,-2.3327 3.37751,-1.46075c2.29682,0.76025 1.62658,3.17804 1.62658,3.17804z" fill="#ffffff" stroke-linecap="butt"/><path d="M237.54696,187.45859c0,0 0.83882,-2.43859 3.55278,-1.40841c2.54945,0.96774 1.7295,3.22117 1.7295,3.22117z" fill="#ffffff" stroke-linecap="butt"/><path d="M243.72144,189.45946c0.48441,-0.87779 0.82632,-1.8059 1.39057,-1.60514c0.59673,0.21232 0.29789,1.1883 -0.45818,2.38059c-0.75607,1.19228 -2.07939,2.03355 -2.07712,1.61748c0.00271,-0.49686 0.6257,-1.4524 1.14474,-2.39292z" data-paper-data="{&quot;index&quot;:null}" fill="#ffffff" stroke-linecap="butt"/><path d="M229.62774,186.51488c0,0 -0.66706,-0.84083 -0.38553,-2.26659c0.15704,-0.79533 0.79759,-0.36723 0.79759,-0.36723" fill="none" stroke-linecap="round"/><path d="M244.19431,188.5278c0,0 0.62735,0.10069 0.27947,0.83053c-0.62363,1.30835 -1.50135,1.52537 -1.50135,1.52537" data-paper-data="{&quot;index&quot;:null}" fill="none" stroke-linecap="round"/><path d="M227.02414,185.91552l3.27475,-9.54244l7.8559,6.86248l10.66572,-0.50628l-3.27475,9.54244c0,0 -3.8894,-0.21701 -5.1869,-0.03703c-0.31611,0.04385 -5.5554,0.76647 -5.5554,0.76647c0,0 -2.09416,-2.24816 -3.43517,-3.55882c-1.32447,-1.29451 -4.34415,-3.52682 -4.34415,-3.52682z" fill="#bfbfbf" stroke-linecap="butt"/><path d="M238.15478,183.23555l10.66572,-0.50628l-3.27475,9.54244c0,0 -3.8894,-0.21701 -5.1869,-0.03703c-0.31611,0.04385 -5.5554,0.76647 -5.5554,0.76647z" fill="#ffffff" stroke-linecap="butt"/><path d="M228.42035,179.38841l0.23548,-7.03282l10.97081,6.38874l12.47144,2.00741l-3.39615,5.59686l-11.78771,0.36353z" fill="#bfbfbf" stroke-linecap="butt"/><path d="M227.03279,174.88374l0.23716,-5.58615l12.14304,7.63332l16.18413,2.08793l-3.10991,4.38951l-14.02809,-2.21455z" fill="#ffffff" stroke-linecap="butt"/></g></g></g></svg>