<svg version="1.1" xmlns="http://www.w3.org/2000/svg" xmlns:xlink="http://www.w3.org/1999/xlink" width="34.17311" height="34.17311" viewBox="0,0,34.17311,34.17311"><g transform="translate(-222.91352,-162.9135)"><g data-paper-data="{&quot;isPaintingLayer&quot;:true}" stroke="none" stroke-miterlimit="10" stroke-dasharray="" stroke-dashoffset="0" style="mix-blend-mode: normal"><path d="M229.98318,162.9135h20.03379c3.9166,0 7.06966,3.15307 7.06966,7.06966v20.03379c0,3.91659 -3.15306,7.06966 -7.06966,7.06966h-20.03379c-3.91659,0 -7.06966,-3.15307 -7.06966,-7.06966v-20.03379c0,-3.91659 3.15307,-7.06966 7.06966,-7.06966z" fill-opacity="0.13218" fill="#1a1a1a" fill-rule="evenodd" stroke-width="4.43922" stroke-linecap="round" stroke-linejoin="round"/><g fill-rule="nonzero" stroke-width="0" stroke-linecap="butt" stroke-linejoin="miter"><path d="M249.71925,185.86869c-3.77109,6.84474 -12.50271,8.70012 -16.68749,6.47784c-4.85043,-2.57575 -6.96046,-10.58421 -3.18937,-17.42895c2.2379,-4.0619 6.78687,-13.75417 17.55435,-7.81402c10.42012,5.74851 5.07147,13.77561 2.32251,18.76513z" fill="#bfbfbf"/><path d="M249.24844,186.54533c-1.47436,2.67604 -3.70944,4.27305 -6.21907,5.34574c-3.0687,1.31165 -6.54644,1.66052 -9.52783,0.01793c-5.41963,-2.98593 -7.15645,-10.22847 -3.8793,-16.17667c3.27715,-5.94821 10.32727,-8.3496 15.7469,-5.36367c5.41963,2.98593 7.15645,10.22847 3.8793,16.17667z" fill="#bfbfbf"/><path d="M246.95587,188.33429c-2.63554,4.78365 -9.21956,6.07141 -13.72041,3.73149c-4.54774,-2.36429 -6.81182,-8.80798 -4.17628,-13.59163c2.63554,-4.78365 8.77838,-6.4543 13.72041,-3.73149c4.94203,2.7228 6.81182,8.80798 4.17628,13.59163z" fill="#ffffff"/><path d="M244.10161,191.02411c-0.98848,1.79414 -4.05263,1.8584 -5.71704,2.46277c-1.55895,0.63351 -3.81836,0.49104 -5.19623,-0.2681c-3.9044,-2.15112 -4.82169,-6.76757 -5.28492,-9.0624c-0.18123,-0.89778 0.54546,-2.04418 1.39772,-2.91895c2.70716,-2.77868 5.78964,-6.55699 11.8485,-2.64676c4.91656,3.17302 4.91011,8.87932 2.95198,12.43343z" fill="#ffffff"/><path d="M239.03042,179.2347c-0.90379,1.64042 -2.96628,2.23758 -4.6067,1.3338c-1.64042,-0.90379 -2.23758,-2.96628 -1.3338,-4.6067c0.90379,-1.64042 2.96628,-2.23758 4.6067,-1.3338c1.64042,0.90379 2.23758,2.96628 1.3338,4.6067z" fill="#bfbfbf"/><path d="M247.04266,183.55099c-0.90379,1.64042 -2.96628,2.23758 -4.6067,1.3338c-1.64042,-0.90379 -2.23758,-2.96628 -1.3338,-4.6067c0.90379,-1.64042 2.96628,-2.23758 4.6067,-1.3338c1.64042,0.90379 2.23758,2.96628 1.3338,4.6067z" fill="#bfbfbf"/><path d="M237.81105,178.35983c-0.51645,0.93739 -1.69501,1.27862 -2.6324,0.76217c-0.93739,-0.51645 -1.27862,-1.69501 -0.76217,-2.6324c0.51645,-0.93739 1.69502,-1.27862 2.6324,-0.76217c0.93739,0.51645 1.27862,1.69502 0.76217,2.6324z" fill="#ffffff"/><path d="M237.04945,177.91222c-0.28764,0.52209 -0.94406,0.71214 -1.46614,0.4245c-0.52209,-0.28764 -0.71214,-0.94406 -0.4245,-1.46614c0.28764,-0.52209 0.94406,-0.71214 1.46615,-0.4245c0.52209,0.28764 0.71214,0.94406 0.4245,1.46615z" fill="#ffffff"/><path d="M245.91295,182.76755c-0.51645,0.93739 -1.69501,1.27862 -2.6324,0.76217c-0.93739,-0.51645 -1.27862,-1.69501 -0.76217,-2.6324c0.51645,-0.93739 1.69502,-1.27862 2.6324,-0.76217c0.93739,0.51645 1.27862,1.69502 0.76217,2.6324z" fill="#ffffff"/><path d="M245.23727,182.36727c-0.28764,0.52209 -0.94406,0.71214 -1.46614,0.4245c-0.52209,-0.28764 -0.71214,-0.94406 -0.4245,-1.46614c0.28764,-0.52209 0.94406,-0.71214 1.46615,-0.4245c0.52209,0.28764 0.71214,0.94406 0.4245,1.46615z" fill="#ffffff"/></g></g></g></svg>