<svg version="1.1" xmlns="http://www.w3.org/2000/svg" xmlns:xlink="http://www.w3.org/1999/xlink" width="34.17311" height="34.17311" viewBox="0,0,34.17311,34.17311"><g transform="translate(-222.91346,-162.91346)"><g data-paper-data="{&quot;isPaintingLayer&quot;:true}" stroke="none" stroke-miterlimit="10" stroke-dasharray="" stroke-dashoffset="0" style="mix-blend-mode: normal"><path d="M229.98313,162.91347h20.03379c3.9166,0 7.06966,3.15307 7.06966,7.06966v20.03379c0,3.91659 -3.15306,7.06966 -7.06966,7.06966h-20.03379c-3.91659,0 -7.06966,-3.15307 -7.06966,-7.06966v-20.03379c0,-3.91659 3.15307,-7.06966 7.06966,-7.06966z" fill-opacity="0.13218" fill="#1a1a1a" fill-rule="evenodd" stroke-width="4.43922" stroke-linecap="round" stroke-linejoin="round"/><path d="M243.79268,189.16955c0,0 0.78755,2.10923 -3.76665,3.92156c-3.21854,1.2808 -8.53523,1.63969 -8.53523,1.63969c0,0 -2.96937,-3.703 -3.37356,-5.82985c-1.20729,-6.35285 0.54418,-7.18641 0.54418,-7.18641l9.7594,0.10124l5.37188,7.35376z" fill="#ffffff" fill-rule="nonzero" stroke-width="0" stroke-linecap="butt" stroke-linejoin="miter"/><path d="M229.12372,172.01445c2.73407,-6.64718 11.74778,-7.51117 15.51055,-6.26101c3.76276,1.25015 9.70964,9.70777 6.97798,16.34801c-1.38901,3.37647 -8.65328,7.83673 -8.65328,7.83673l-9.3848,0.02007l-4.88645,-7.31341c0,0 -0.65436,-7.97946 0.43601,-10.6304z" fill="#bfbfbf" fill-rule="nonzero" stroke-width="0" stroke-linecap="butt" stroke-linejoin="miter"/><path d="M243.86593,189.89119l-6.86474,-7.08387l-8.82491,-0.58185c0,0 1.2098,-2.37735 3.34515,-3.04377c2.52314,-0.78744 6.06822,-0.99752 7.65193,-0.35925c1.54567,0.62294 4.15339,2.98022 4.70048,5.61238c0.55765,2.68291 -0.00791,5.45634 -0.00791,5.45634z" fill="#ffffff" fill-rule="nonzero" stroke-width="0" stroke-linecap="butt" stroke-linejoin="miter"/><path d="M246.53537,187.91743c-0.81658,0.44024 0.23171,-3.09545 -0.80737,-6.62944c-0.75917,-2.58199 -3.40076,-5.29668 -4.88535,-5.79613c-1.91149,-0.64306 -4.95435,-0.96725 -7.34721,0.00673c-2.99812,1.22034 -5.17998,3.82545 -5.16735,2.93966c0.00523,-0.36603 0.07162,-3.83246 4.17747,-6.09695c3.10629,-1.71319 7.83264,-2.6767 10.74089,-1.29495c2.32894,1.10652 5.45037,5.10965 5.5437,8.48485c0.16654,6.02212 -1.67813,8.07529 -2.2548,8.38621z" fill="#ffffff" fill-rule="nonzero" stroke-width="0" stroke-linecap="butt" stroke-linejoin="miter"/></g></g></svg>