<svg version="1.1" xmlns="http://www.w3.org/2000/svg" xmlns:xlink="http://www.w3.org/1999/xlink" width="145.3049" height="259.24238" viewBox="0,0,145.3049,259.24238"><g transform="translate(-167.34757,-46.62881)"><g data-paper-data="{&quot;isPaintingLayer&quot;:true}" fill-rule="nonzero" stroke-linecap="butt" stroke-linejoin="miter" stroke-miterlimit="10" stroke-dasharray="" stroke-dashoffset="0" style="mix-blend-mode: normal"><g stroke-width="0"><g><path d="M206.29508,305.87118l15.14285,-131.8421l37.78325,-0.15789l13.57389,132z" fill="#789396" stroke="#000000"/><path d="M216.44516,181.27601c0,0.86954 50.03373,1.22137 47.69153,1.04541c-0.22534,-0.01693 0.93339,1.30884 2.20441,1.36113c1.34001,0.05515 2.78454,-1.12246 2.0523,0.52007c-0.20248,0.45419 3.13119,-6.72675 6.75214,-10.83402c0.54398,-0.61704 5.77229,-6.54966 6.65999,-2.88036c2.25803,9.33363 1.79429,35.42369 -0.24608,38.76405c-2.57169,4.21019 -9.5005,12.24949 -18.59954,17.54384c-10.69788,6.22465 -23.56027,9.4207 -23.56027,9.4207c0,0 -12.6985,-3.48958 -21.35647,-8.7794c-10.80511,-6.60166 -18.05805,-15.29657 -18.1685,-15.29657c-0.53115,0 -3.0506,-7.52323 -3.66628,-14.9598c-0.7832,-9.46003 0.38859,-19.45527 0.38859,-21.00367c0,-2.76559 1.1604,-6.64641 2.36722,-6.64641c0.42896,0 3.39987,0.87791 6.34727,3.64595c2.78796,2.6183 5.86156,7.99162 8.33841,9.7764c2.27143,1.63676 2.79529,-2.53005 2.79529,-1.67732z" fill="#040404" stroke="none"/><path d="M212.3129,271.9606v-19.36508h54.32983v19.36508z" fill="#466962" stroke="none"/><path d="M212.38673,253.5659l2,-20.29953h50.66315l1.66667,20.29953z" fill="#132d2a" stroke="none"/><path d="M213.88673,240.65584l1.98737,-17.93063c0,0 23.22929,10.95058 23.22929,12.73075c0,0.33548 -5.144,2.45432 -11.58152,3.62956c-6.90445,1.26049 -13.80181,1.57034 -13.80181,1.57034z" fill="#031717" stroke="none"/><path d="M251.32827,239.19098c-6.43752,-1.17526 -11.58152,-3.29409 -11.58152,-3.62956c0,-1.57754 23.72928,-12.89742 23.72928,-12.89742c0,0 0.85915,8.46107 1.19353,11.75423c0.24239,2.38717 0.62716,6.1764 0.62716,6.1764c0,0 -7.06403,-0.14315 -13.96848,-1.40365z" data-paper-data="{&quot;index&quot;:null}" fill="#031717" stroke="none"/><path d="M212.32555,258.51263l1.8207,-17.93063c0,0 25.06261,10.95059 25.06261,12.73075c0,0.33548 -5.144,2.45431 -11.58152,3.62955c-6.90445,1.26049 -15.13513,1.57034 -15.13513,1.57034z" fill="#2c4c46" stroke="none"/><path d="M251.43371,257.04776c-6.43752,-1.17526 -11.58152,-3.29409 -11.58152,-3.62956c0,-1.78016 25.56264,-12.73076 25.56264,-12.73076l1.82068,17.93064c0,0 -8.89734,-0.30982 -15.8018,-1.57031z" data-paper-data="{&quot;index&quot;:null}" fill="#2c4c46" stroke="none"/><path d="M210.59766,276.74067l1.8207,-17.76398c0,0 26.89595,10.95058 26.89595,12.73075c0,0.33547 -5.144,2.45432 -11.58152,3.62956c-6.90445,1.26049 -15.13514,1.57031 -15.13514,1.57031z" fill="#607f7b" stroke="none"/><path d="M251.53916,275.44247c-6.43752,-1.17526 -11.58152,-3.29409 -11.58152,-3.62956c0,-1.78015 27.2293,-12.73075 27.2293,-12.73075l2.15403,17.93062c0,0 -10.89736,-0.30982 -17.80181,-1.57032z" data-paper-data="{&quot;index&quot;:null}" fill="#607f7b" stroke="none"/><path d="M256.20626,216.67101c0,0.3819 -7.16204,8.06764 -16.4234,8.06764c-9.26136,0 -16.76917,-7.80099 -16.76917,-8.1829c0,-0.3819 7.50782,3.68807 16.76917,3.68807c9.26135,0 16.4234,-3.95471 16.4234,-3.57282z" fill="#d2ebfc" stroke="none"/></g><path d="M215.26768,202.8541v-0.54628c0,0 14.11248,-24.94681 23.49006,-25.311c12.70639,-0.49346 24.21843,25.311 24.21843,25.311v0.54628c0,0 -15.48163,7.83003 -23.30797,7.83003c-8.06907,0 -24.40053,-7.83003 -24.40053,-7.83003z" fill="#132d2a" stroke="none"/></g><g stroke="none" stroke-width="0"><path d="M198.54152,196.34261v-81.3659h86.15654v81.3659z" fill="#000000"/><g><path d="M190.60867,188.44917l9.1416,-4.05979l41.13718,9.00214c0,0 0,3.56625 0,4.94233c0,0.51403 -50.27878,-9.8847 -50.27878,-9.8847z" fill="#2c4c44"/><path d="M240.71703,198.45699c0,-1.37609 0,-4.94234 0,-4.94234l41.1372,-9.00214l9.14164,4.0598c0,0 -50.27881,10.39874 -50.27881,9.8847z" data-paper-data="{&quot;index&quot;:null}" fill="#456761"/><g><path d="M290.43209,199.8108c-1.37304,1.61813 -51.82162,13.21461 -51.60037,10.06722c0.10315,-1.46698 1.76792,-11.53145 1.76792,-11.53145c0,0 49.27416,-9.16163 49.27416,-9.27441c0,-1.74726 8.49513,1.38487 0.55828,10.73864z" data-paper-data="{&quot;index&quot;:null}" fill="#bed3e6"/><path d="M191.51341,188.08061c0,0.11277 49.2742,10.34996 49.2742,10.34996c0,0 -0.86169,10.59123 -0.75859,12.05828c0.22122,3.14741 -47.70086,-8.97594 -49.07385,-10.59407c-7.93685,-9.35377 0.55822,-13.56146 0.55822,-11.81417z" fill="#90a7b4"/></g></g><path d="M191.42595,188.07667l-0.03004,-73.09131l7.59589,-0.15323l0.86073,69.5563z" fill="#132a25"/><path d="M281.98228,184.97421l-0.38532,-70.16926l8.84193,0.15325l-0.03003,73.70428z" data-paper-data="{&quot;index&quot;:null}" fill="#2a4d45"/></g><path d="M175.38498,127.71734c0,-33.30185 28.7599,-60.29833 64.23702,-60.29833c35.47712,0 64.23702,26.99649 64.23702,60.29833c0,11.49725 -3.42799,22.24296 -9.37689,31.38564c-3.49642,0.26987 -6.86124,0.6359 -9.79883,0.76821c-4.38597,0.19755 -8.83026,1.49198 -13.18686,1.5c-22.90144,0.04215 -45.803,0.04125 -68.70444,0c-3.36706,-0.00607 -6.99952,0.04587 -10.55507,0.50488c-1.73023,0.03789 -3.4063,0.29551 -5.00143,0.74606c-7.46245,-9.85079 -11.85052,-21.89677 -11.85052,-34.90479z" fill="#ffffff" stroke="#000000" stroke-width="2"/><path d="M302.98206,127.77118c0,11.53676 -3.51267,22.30533 -9.59122,31.41917c-1.17998,0.0975 -2.34111,0.20214 -3.47174,0.30092c10.76425,-15.48402 13.06296,-32.26794 13.06296,-31.72009z" fill="#e6e6e6" stroke="#000000" stroke-width="0"/><path d="M176.10804,127.77118c0,-0.41912 1.72574,18.17879 14.2871,34.22948c-0.80972,0.09223 -1.60476,0.2328 -2.38217,0.41878c-7.49225,-9.75226 -11.90492,-21.71775 -11.90492,-34.64825z" fill="#e6e6e6" stroke="#000000" stroke-width="0"/><path d="M188.93521,128.14681c0,-12.968 10.51265,-23.48065 23.48065,-23.48065c12.968,0 23.48065,10.51265 23.48065,23.48065c0,12.968 -10.51265,23.48065 -23.48065,23.48065c-12.968,0 -23.48065,-10.51265 -23.48065,-23.48065z" fill="#000000" stroke="#000000" stroke-width="2"/><path d="M266.67429,151.62745c-12.968,0 -23.48065,-10.51265 -23.48065,-23.48065c0,-12.968 10.51265,-23.48065 23.48065,-23.48065c12.968,0 23.48064,10.51265 23.48064,23.48065c0,12.968 -10.51264,23.48065 -23.48064,23.48065z" data-paper-data="{&quot;index&quot;:null}" fill="#000000" stroke="#000000" stroke-width="2"/><path d="M203.64172,128.14681c0,-6.86818 3.92831,-12.43595 8.77414,-12.43595c4.84582,0 8.77414,5.56777 8.77414,12.43595c0,6.86818 -3.92831,12.43595 -8.77414,12.43595c-4.84582,0 -8.77414,-5.56777 -8.77414,-12.43595z" fill="#ff8052" stroke="none" stroke-width="0"/><path d="M266.67428,140.58275c-4.84582,0 -8.77414,-5.56777 -8.77414,-12.43595c0,-6.86818 3.92832,-12.43595 8.77414,-12.43595c4.84582,0 8.77414,5.56777 8.77414,12.43595c0,6.86818 -3.92832,12.43595 -8.77414,12.43595z" data-paper-data="{&quot;index&quot;:null}" fill="#ffa71b" stroke="none" stroke-width="0"/><path d="M204.51622,97.7722c0,0 8.46931,0.04082 13.2184,2.22323c4.74911,2.18242 9.30444,8.12696 9.30444,8.12696c0,0 -6.30657,-4.98419 -9.97415,-6.6696c-3.83276,-1.76131 -12.54869,-3.68059 -12.54869,-3.68059z" fill="#000000" stroke="none" stroke-width="0"/><path d="M175.38498,127.71734c0,-33.30185 28.7599,-61.29833 64.23702,-61.29833c20.02133,0 -21.06926,1.03205 -40.40751,23.5105c-32.33859,37.58982 -10.38387,72.24208 -11.979,72.69262c-7.46245,-9.85079 -11.85051,-21.89677 -11.85051,-34.90479z" fill="#122b25" stroke="#000000" stroke-width="0"/><path d="M262.35945,101.32928c-3.82754,1.28127 -10.63347,5.55845 -10.63347,5.55845c0,0 5.16811,-5.42026 10.12434,-7.07938c4.95622,-1.65911 13.38082,-0.78903 13.38082,-0.78903c0,0 -8.87176,0.97098 -12.87168,2.30996z" data-paper-data="{&quot;index&quot;:null}" fill="#000000" stroke="none" stroke-width="0"/><path d="M292.12368,161.12213c-1.59512,-0.45055 20.35959,-35.1028 -11.979,-72.69262c-19.33824,-22.47844 -60.42883,-23.5105 -40.4075,-23.5105c35.47712,0 65.23701,29.49648 65.23701,62.79833c0,13.00802 -5.38806,23.554 -12.85051,33.40479z" data-paper-data="{&quot;index&quot;:null}" fill="#122b25" stroke="#000000" stroke-width="0"/><path d="M221.82705,89.02913l-0.81932,-21.71224c0,0 11.97371,-3.68698 18.02526,-3.68698c5.7445,0 19.04943,3.687 19.04943,3.687l-0.61451,22.1219c0,0 -4.85592,15.11109 -17.61571,15.37187c-13.23952,0.27057 -18.02515,-15.78151 -18.02515,-15.78151z" fill="#a9bbcc" stroke="none" stroke-width="0"/><path d="M231.65901,73.25702c0,0 -1.19357,-8.92205 -0.63515,-13.19233c0.59939,-4.5836 4.1173,-13.43588 4.1173,-13.43588h8.60297c0,0 3.4655,9.21158 4.15822,13.71432c0.6722,4.36935 -0.0616,12.91394 -0.0616,12.91394z" fill="#5e7f7b" stroke="none" stroke-width="0"/><path d="M247.79779,73.21402c0,0 -0.45901,12.40969 -0.95318,17.69948c-0.41281,4.41872 -1.54615,12.16469 -1.54615,12.16469c0,0 -3.68749,1.87053 -5.65371,1.79632c-1.55527,-0.0587 -5.20242,-2.20599 -5.20242,-2.20599c0,0 -1.18339,-6.91505 -1.6332,-11.17308c-0.55292,-5.23439 -1.04045,-18.31196 -1.04045,-18.31196z" data-paper-data="{&quot;index&quot;:null}" fill="#2b4a44" stroke="none" stroke-width="0"/><path d="M312.65246,137.4761c0,0 -5.26632,1.05187 -7.36118,2.00626c-1.72965,0.78802 -5.60111,4.06186 -5.60111,4.06186l2.43914,-24.87191l9.41873,1.59745l1.10444,17.20635z" data-paper-data="{&quot;index&quot;:null}" fill="#61807d" stroke="none" stroke-width="0"/><path d="M290.48881,161.95114c0.45907,-1.37344 10.90005,-22.77507 11.14931,-22.69175c1.67874,0.56112 3.35406,-1.04339 5.80623,-1.21117c3.62658,-0.24812 4.8369,-2.87348 4.54557,-2.0019c-0.36588,1.09465 -17.22028,29.48571 -24.28129,35.2994c-1.22147,1.00573 2.75057,-9.30593 2.78019,-9.39458z" data-paper-data="{&quot;index&quot;:null}" fill="#90a7b4" stroke="none" stroke-width="0"/><path d="M301.24217,121.40991c0,0 -0.78832,-17.44142 -4.78881,-23.55694c-5.56085,-8.5009 -25.46497,-22.69195 -25.46497,-22.69195c0,0 13.4741,-2.33199 28.13786,10.2192c8.37766,7.17073 12.75187,35.54216 12.75187,35.54216z" data-paper-data="{&quot;index&quot;:null}" fill="#000000" stroke="none" stroke-width="0"/><path d="M167.34758,136.97612l1.10443,-17.20636l9.41874,-1.59745l2.43914,24.87191c0,0 -3.87146,-3.27384 -5.60111,-4.06186c-2.09485,-0.95439 -7.36118,-2.00626 -7.36118,-2.00626z" fill="#61807d" stroke="none" stroke-width="0"/><path d="M189.51126,161.45115c0.02963,0.08865 4.00167,10.40031 2.78019,9.39458c-7.06102,-5.81369 -23.91541,-34.20475 -24.28129,-35.29941c-0.29133,-0.87159 0.91899,1.75378 4.54557,2.0019c2.45218,0.16778 4.12749,1.77228 5.80623,1.21116c0.24926,-0.08331 10.69024,21.31832 11.1493,22.69176z" fill="#90a7b4" stroke="none" stroke-width="0"/><path d="M168.12193,120.42238c0,0 4.37422,-28.37143 12.75187,-35.54216c14.66375,-12.5512 28.13785,-10.21921 28.13785,-10.21921c0,0 -19.90411,14.19105 -25.46497,22.69195c-4.00049,6.11553 -4.7888,23.55694 -4.7888,23.55694z" fill="#000000" stroke="none" stroke-width="0"/></g></g></svg>