<svg version="1.1" xmlns="http://www.w3.org/2000/svg" xmlns:xlink="http://www.w3.org/1999/xlink" width="94.54713" height="268.36409" viewBox="0,0,94.54713,268.36409"><g transform="translate(-191.80644,-61.04117)"><g data-paper-data="{&quot;isPaintingLayer&quot;:true}" fill-rule="nonzero" stroke-linejoin="miter" stroke-miterlimit="10" stroke-dasharray="" stroke-dashoffset="0" style="mix-blend-mode: normal"><path d="M277.30161,328.40525l-76.14441,-0.00001l0.33178,-137.73838c0,0 0.61006,-9.38466 4.22697,-17.4286c2.61863,-5.82379 7.83743,-10.29129 10.62815,-13.1216c5.21306,-5.28699 21.77336,-6.59777 21.77336,-6.59777c0,0 18.97157,1.0494 24.25478,6.29157c2.76221,2.74076 7.31546,8.03169 9.75043,13.70392c0.74165,1.72765 3.90016,7.97319 4.46258,17.77295c0.16002,2.78814 0.01474,5.82465 0.13983,9.06328c1.72803,44.74024 0.57654,128.05462 0.57654,128.05462z" fill="#182e2d" stroke="#000000" stroke-width="2" stroke-linecap="round"/><path d="M215.07737,207.71686l-0.43231,120.48764" fill="none" stroke="#000000" stroke-width="2" stroke-linecap="round"/><path d="M263.94096,327.75077l0.43231,-120.48764" fill="none" stroke="#000000" stroke-width="2.5" stroke-linecap="round"/><g stroke-width="1.5"><path d="M252.25739,203.56475c0,7.04253 -5.67616,12.75164 -12.67806,12.75164c-7.0019,0 -12.67806,-5.7091 -12.67806,-12.75164c0,-7.04253 5.67616,-12.75164 12.67806,-12.75164c7.0019,0 12.67806,5.7091 12.67806,12.75164z" fill="#e18300" stroke="#000000" stroke-linecap="butt"/><path d="M227.89079,197.76854c0,0 -6.33636,-5.90818 -11.9421,-13.6187c-6.27372,-8.62929 -11.75727,-19.33115 -8.92097,-22.83321c1.83072,-2.26044 5.89678,0.33243 5.89678,0.33243c0,0 -2.23721,2.02581 -1.08772,5.60521c0.9998,3.11329 5.28448,7.63957 6.71093,10.03103c3.23283,5.41983 13.3011,16.09034 13.3011,16.09034z" fill="#98b3c1" stroke="#000000" stroke-linecap="round"/><path d="M210.8218,164.08957l-4.08172,-0.24405" fill="none" stroke="#6d838b" stroke-linecap="round"/><path d="M208.10065,169.21463l3.33959,-1.34227" fill="none" stroke="#6d838b" stroke-linecap="round"/><path d="M210.32704,173.48552l2.47377,-2.19645" fill="none" stroke="#6d838b" stroke-linecap="round"/><path d="M215.76933,175.19388l-3.58696,1.34227" fill="none" stroke="#6d838b" stroke-linecap="round"/><path d="M214.28507,180.80704l3.71065,-2.19645" fill="none" stroke="#6d838b" stroke-linecap="round"/><path d="M220.22211,180.685l-3.83434,3.90481" fill="none" stroke="#6d838b" stroke-linecap="round"/><path d="M218.98522,188.12855l4.32909,-3.66076" fill="none" stroke="#6d838b" stroke-linecap="round"/><path d="M225.41702,187.51842l-3.46327,3.90481" fill="none" stroke="#6d838b" stroke-linecap="round"/><path d="M224.92226,194.83994l4.08172,-3.90481" fill="none" stroke="#6d838b" stroke-linecap="round"/><path d="M227.7671,197.64652c0,0 -6.33636,-5.90818 -11.9421,-13.6187c-6.27372,-8.62929 -11.75727,-19.33115 -8.92097,-22.83321c1.83072,-2.26044 5.89678,0.33244 5.89678,0.33244c0,0 -2.23721,2.02581 -1.08772,5.60521c0.9998,3.11328 5.28448,7.63956 6.71093,10.03102c3.23283,5.41983 13.3011,16.09034 13.3011,16.09034z" fill="none" stroke="#000000" stroke-linecap="round"/><path d="M247.44833,193.13158c0,0 10.06828,-10.67052 13.3011,-16.09034c1.42646,-2.39146 5.71114,-6.91774 6.71093,-10.03103c1.14948,-3.57939 -2.20092,-5.23913 -2.20092,-5.23913c0,0 5.17925,-2.95895 7.00997,-0.6985c2.8363,3.50205 -2.64724,14.20392 -8.92097,22.83321c-5.60574,7.71052 -11.9421,13.6187 -11.9421,13.6187z" data-paper-data="{&quot;index&quot;:null}" fill="#98b3c1" stroke="#000000" stroke-linecap="round"/><path d="M272.55706,163.60147l-4.70016,0.36608" data-paper-data="{&quot;index&quot;:null}" fill="none" stroke="#6d838b" stroke-linecap="round"/><path d="M267.85691,167.62831l3.33959,1.34227" data-paper-data="{&quot;index&quot;:null}" fill="none" stroke="#6d838b" stroke-linecap="round"/><path d="M266.49634,171.04501l2.47377,2.19645" data-paper-data="{&quot;index&quot;:null}" fill="none" stroke="#6d838b" stroke-linecap="round"/><path d="M267.11478,176.2921l-3.58696,-1.34227" data-paper-data="{&quot;index&quot;:null}" fill="none" stroke="#6d838b" stroke-linecap="round"/><path d="M265.01208,180.56298l-3.71065,-2.19645" data-paper-data="{&quot;index&quot;:null}" fill="none" stroke="#6d838b" stroke-linecap="round"/><path d="M262.90938,184.34577l-3.83434,-3.90481" data-paper-data="{&quot;index&quot;:null}" fill="none" stroke="#6d838b" stroke-linecap="round"/><path d="M260.31192,187.8845l-4.32909,-3.66076" data-paper-data="{&quot;index&quot;:null}" fill="none" stroke="#6d838b" stroke-linecap="round"/><path d="M253.88013,187.27437l3.46327,3.90481" data-paper-data="{&quot;index&quot;:null}" fill="none" stroke="#6d838b" stroke-linecap="round"/><path d="M254.37488,194.59589l-4.08172,-3.90481" data-paper-data="{&quot;index&quot;:null}" fill="none" stroke="#6d838b" stroke-linecap="round"/><path d="M247.57202,193.00956c0,0 10.06828,-10.67052 13.3011,-16.09034c1.42646,-2.39146 5.71114,-6.91774 6.71093,-10.03102c1.14948,-3.57939 -2.44829,-4.99508 -2.44829,-4.99508c0,0 5.42662,-3.203 7.25734,-0.94256c2.8363,3.50205 -2.64724,14.20392 -8.92097,22.83321c-5.60574,7.71052 -11.9421,13.6187 -11.9421,13.6187z" data-paper-data="{&quot;index&quot;:null}" fill="none" stroke="#000000" stroke-linecap="round"/><path d="M236.24685,191.6764c-0.28966,-0.57152 0.28966,-0.85729 0.28966,-0.85729l0.42172,-0.18284c5.31329,-1.02466 9.99891,1.81494 13.05196,5.83095c2.70807,2.74859 3.56656,9.14976 1.24666,12.36082c-0.06029,0.12238 -0.16745,0.24609 -0.35788,0.29926c-0.11564,0.04623 -0.25864,0.06398 -0.41947,0.00137c-0.16673,-0.04512 -0.27035,-0.14397 -0.33474,-0.2494c-0.12826,-0.16593 -0.13142,-0.34001 -0.0984,-0.47838c-1.01247,-2.47091 -2.73234,-4.81861 -3.47001,-7.34664c-1.5894,-4.01511 -5.76704,-6.98704 -9.52167,-8.8365c0,0 -0.12503,-0.06167 -0.22987,-0.18502c-0.1873,0.00925 -0.42369,-0.05199 -0.57793,-0.35633z" fill="#d65605" stroke="none" stroke-linecap="butt"/><path d="M252.25739,203.56475c0,7.04253 -5.67616,12.75164 -12.67806,12.75164c-7.0019,0 -12.67806,-5.7091 -12.67806,-12.75164c0,-7.04253 5.67616,-12.75164 12.67806,-12.75164c7.0019,0 12.67806,5.7091 12.67806,12.75164z" fill="none" stroke="#000000" stroke-linecap="butt"/></g><path d="M200.81188,111.32277c0,0 -2.27509,0.65404 -3.15736,0.67703c-0.95446,0.02487 -2.36989,-0.533 -2.36989,-0.533c0,0 6.18881,-5.09844 6.18881,-5.99624c0,-4.69754 -3.31982,-44.03916 41.05011,-44.42706c40.76517,-0.35637 37.57316,40.14252 37.57316,44.78328c0,2.28158 6.25686,17.15901 6.25686,17.15901l-7.18288,-5.17613c0,0 2.5429,9.57961 0.84774,19.96352c-1.58773,9.72579 -7.75862,17.67022 -7.75862,17.67022l-1.17402,-2.29289c0,0 -1.0393,2.13962 -2.19521,3.30372c-1.15591,1.1641 -3.6087,2.52763 -3.6087,2.52763l0.02046,-3.33957c0,0 -8.42909,10.1517 -25.20305,9.88643c-16.57167,-0.26207 -26.10827,-9.40883 -26.10827,-9.40883l-0.18649,1.89485c0,0 -4.59356,-4.74475 -6.82929,-10.09629c-2.90215,-6.94668 -2.67656,-11.17847 -2.67656,-11.17847c0,0 -2.77312,1.63955 -5.74169,2.15558c-3.46125,0.60167 -6.64931,0.35417 -6.64931,0.35417l7.40686,-7.39085c0,0 -2.5954,1.08897 -3.89125,1.31451c-1.19938,0.20877 -3.61685,-0.00772 -3.61685,-0.00772c0,0 5.7882,-7.50402 7.35039,-11.29317c1.42747,-3.46235 1.65507,-10.54979 1.65507,-10.54979z" fill="#000000" stroke="none" stroke-width="1.5" stroke-linecap="butt"/><path d="M212.95578,122.03225c-0.5716,-7.2238 0.33181,-17.43561 0.33181,-17.43561c0,0 4.93368,-0.4853 15.33738,-3.55876c7.99278,-2.36124 16.12948,-7.17468 16.12948,-7.17468l-4.77473,6.93722c0,0 7.94607,-1.68008 14.86838,-4.35096c7.02393,-2.71009 11.93698,-6.74954 13.71602,-4.99343c3.15602,3.08812 0.81331,26.98519 -0.16139,31.10194c-0.22163,0.93603 -1.74725,4.5521 -2.35842,7.54418c-0.61117,2.99208 -1.37953,14.53433 -2.47093,19.45843c-1.24153,5.60148 -4.8365,8.26827 -10.63832,13.94981c-5.80182,5.68155 -10.58939,7.9261 -12.74684,7.94727c-2.74056,0.02689 -8.99344,-3.76593 -13.9456,-8.99788c-5.27325,-5.57119 -8.7904,-8.39643 -9.62302,-14.99562c-0.74986,-5.94327 -0.76914,-9.8142 -1.11197,-15.10318c-0.25057,-3.86558 -2.23966,-6.38368 -2.55183,-10.32873z" fill="#ffffff" stroke="#000000" stroke-width="1.5" stroke-linecap="butt"/><path d="M220.19548,112.06508l0.42977,-1.54733c0,0 3.38788,-1.74273 7.76611,-2.15547c4.36405,-0.41141 7.51066,0.15777 7.51066,0.15777l-0.12571,4.38628c0,0 -3.23119,-0.6833 -7.2726,-0.4532c-3.07444,-0.08743 -17.11874,3.10338 -17.11874,3.10338l-0.02503,-1.32836z" fill="#000000" stroke="none" stroke-width="1.5" stroke-linecap="butt"/><path d="M261.23494,105.89195c0,0 2.58495,0.58027 3.9131,0.94264c1.37748,0.37583 4.20918,1.27342 4.20918,1.27342l0.02658,1.60365c0,0 -7.56951,-3.10018 -15.3608,-2.44708c-6.22972,0.52222 -9.70167,2.61896 -9.70167,2.61896l0.26753,-4.58151c0,0 4.98677,-1.57156 8.2888,-1.78234c3.30203,-0.21079 7.84714,0.75229 7.84714,0.75229z" data-paper-data="{&quot;index&quot;:null}" fill="#000000" stroke="none" stroke-width="1.5" stroke-linecap="butt"/><path d="M217.4992,122.41193c0,-4.84582 4.31467,-8.77414 9.63711,-8.77414c5.32243,0 9.63711,3.92831 9.63711,8.77414c0,4.84582 -4.31467,8.77414 -9.63711,8.77414c-5.32243,0 -9.63711,-3.92831 -9.63711,-8.77414z" fill="#000000" stroke="#000000" stroke-width="1.5" stroke-linecap="butt"/><path d="M244.31645,147.76933c-0.12873,2.22357 -1.54357,3.85431 -3.99162,3.85431c-2.44806,0 -3.75065,-2.70224 -3.75065,-4.92993c0,-2.22768 1.3026,-3.13723 3.75065,-3.13723c2.44806,0 4.1621,1.2681 3.99162,4.21285z" fill="#ffffff" stroke="#000000" stroke-width="1" stroke-linecap="butt"/><path d="M217.71381,122.35632c0,-2.79162 2.26305,-5.05467 5.05467,-5.05467c2.79162,0 5.05467,2.26305 5.05467,5.05467c0,2.79162 -2.26304,5.05467 -5.05467,5.05467c-2.79162,0 -5.05467,-2.26305 -5.05467,-5.05467z" fill="#e75d06" stroke="none" stroke-width="1.5" stroke-linecap="butt"/><g data-paper-data="{&quot;index&quot;:null}"><path d="M233.086,159.30386c0,-4.01747 5.97787,-4.84571 13.17573,-4.84571c7.19786,0 12.89002,0.82823 12.89002,4.84571c0,4.01747 -5.83501,7.27427 -13.03287,7.27427c-7.19786,0 -13.03287,-3.25679 -13.03287,-7.27427z" fill="#ffffff" stroke="none" stroke-width="NaN" stroke-linecap="butt"/><path d="M241.48046,154.39549c0.24528,-0.02626 8.74623,-6.84455 13.40264,-6.12361c0.95568,0.14797 8.55758,5.93574 8.55758,5.93574c0,0 -3.93396,1.63923 -6.60846,1.87291c-2.0044,0.17513 -4.18402,-0.69484 -5.67569,-0.32552c-3.19648,0.79141 -15.32811,1.83545 -18.02124,1.45574c-3.21371,-0.4531 -9.57295,-0.362 -9.57295,-0.362c0,0 8.41456,-4.47961 10.03261,-5.09465c1.46735,-0.19085 3.85979,-0.41299 5.53918,0.28853c1.73771,0.72589 2.09965,2.37929 2.34631,2.35288z" fill="#ffffff" stroke="#000000" stroke-width="1.25" stroke-linecap="butt"/><path d="M259.62564,157.15864c0,0 -12.87295,2.77724 -18.20971,3.05735c-6.94876,0.36473 -11.79029,-1.29699 -11.79029,-1.29699" fill="none" stroke="#000000" stroke-width="0.5" stroke-linecap="round"/><path d="M244.14622,171.66579c-14.61859,0.4225 -20.89566,-14.09453 -20.89566,-14.09453c0,0 7.05882,0.35567 9.09913,0.5971c2.63173,0.31141 16.38942,3.89734 19.57047,3.47724c3.18104,-0.42011 3.80249,-4.12534 5.93042,-5.38612c2.41583,-1.43136 5.05334,-1.46116 5.05334,-1.46116c0,0 -2.48261,16.10755 -18.7577,16.86746z" fill="#ffffff" stroke="#000000" stroke-width="1.9" stroke-linecap="butt"/></g><path d="M243.96285,122.21408l-1.13564,35.08008l-3.50884,0.00856c0,0 -1.01839,-25.12184 -1.73419,-30.85333c-0.29556,-2.36659 -0.53778,-4.44016 -0.53778,-4.44016" fill="#ffffff" stroke="#000000" stroke-width="1.5" stroke-linecap="round"/><path d="M244.36238,122.41193c0,-4.84582 4.2699,-8.77414 9.53711,-8.77414c5.2672,0 9.53711,3.92831 9.53711,8.77414c0,4.84582 -4.2699,8.77414 -9.53711,8.77414c-5.2672,0 -9.53711,-3.92831 -9.53711,-8.77414z" fill="#000000" stroke="#000000" stroke-width="1.5" stroke-linecap="butt"/><path d="M244.5992,122.35632c0,-2.79162 2.26305,-5.05467 5.05467,-5.05467c2.79162,0 5.05467,2.26305 5.05467,5.05467c0,2.79162 -2.26304,5.05467 -5.05467,5.05467c-2.79162,0 -5.05467,-2.26305 -5.05467,-5.05467z" fill="#e75d06" stroke="none" stroke-width="1.5" stroke-linecap="butt"/><path d="M217.27617,122.03263c0,0 -0.20396,-9.20795 10.23434,-9.32209c9.10107,-0.0995 9.6686,9.32209 9.6686,9.32209z" fill="#7f9ba7" stroke="#000000" stroke-width="1.25" stroke-linecap="butt"/><path d="M243.81564,121.65289c0,0 0.00695,-9.70149 10.92193,-9.34987c10.25337,0.3303 10.08746,9.34987 10.08746,9.34987z" fill="#7f9ba7" stroke="#000000" stroke-width="1.25" stroke-linecap="butt"/><path d="M214.08749,131.41542c-0.5,1.48326 -4.18147,-3.12616 -5.41584,-8.29187c-1.23436,-5.16572 -1.10594,-9.00347 1.27666,-9.03026c2.2529,-0.02534 2.33616,3.69464 2.98794,7.40959c0.69836,3.98046 1.74832,8.14128 1.15124,9.91254z" data-paper-data="{&quot;index&quot;:null}" fill="#ffffff" stroke="#000000" stroke-width="1" stroke-linecap="butt"/><path d="M268.22949,121.23272c0.65177,-3.71495 0.73504,-7.43493 2.98794,-7.40959c2.3826,0.0268 2.51103,3.86455 1.27666,9.03027c-1.23437,5.16572 -4.91584,9.77513 -5.41584,8.29187c-0.59708,-1.77126 0.45288,-5.93208 1.15124,-9.91254z" data-paper-data="{&quot;index&quot;:null}" fill="#ffffff" stroke="#000000" stroke-width="1" stroke-linecap="butt"/><path d="M214.48457,127.9652c0,0 -3.40034,-2.17736 -4.13961,-7.59436c-0.41239,-3.02178 2.38961,-2.28065 2.38961,-2.28065" fill="none" stroke="#000000" stroke-width="0.5" stroke-linecap="round"/><path d="M268.77443,117.3402c0,0 2.35523,-0.4078 2.0086,2.61398c-0.6214,5.417 -3.47956,7.26102 -3.47956,7.26102" data-paper-data="{&quot;index&quot;:null}" fill="none" stroke="#000000" stroke-width="0.5" stroke-linecap="round"/></g></g></svg>