<svg version="1.1" xmlns="http://www.w3.org/2000/svg" xmlns:xlink="http://www.w3.org/1999/xlink" width="184.71568" height="266.34944" viewBox="0,0,184.71568,266.34944"><g transform="translate(-146.84605,-42.23171)"><g data-paper-data="{&quot;isPaintingLayer&quot;:true}" fill-rule="nonzero" stroke-linejoin="miter" stroke-miterlimit="10" stroke-dasharray="" stroke-dashoffset="0" style="mix-blend-mode: normal"><path d="M171.39604,147.42733c0,-1.65654 -5.80143,-1.9233 -5.80143,-1.9233c0,0 6.69584,-8.87746 7.35214,-11.71771c6.65986,-28.82218 23.99043,-56.21969 66.68631,-56.74538c45.68643,-0.56252 68.23702,35.01087 68.23702,70.3864c0,0.66795 3.07779,7.31159 4.43041,10.36634c2.27861,5.14598 3.33715,7.45866 3.33715,7.45866c0,0 -2.64733,-1.66693 -4.82385,-3.56682c-2.14071,-1.86864 -3.80963,-3.97893 -3.99144,-3.01508c-0.43459,2.30399 -0.59561,10.92242 -4.12876,19.9176c-3.49395,8.89536 -10.36285,18.18124 -10.36285,18.18124c0,0 -2.29192,-5.28642 -3.77673,-3.14158c-6.07718,8.77862 -11.2964,15.30957 -11.2964,15.30957c0,0 -2.40974,-4.97718 -4.47106,-3.86765c-9.32569,5.01966 -20.06286,7.91078 -31.65348,7.91078c-12.60656,0 -24.772,-3.56633 -35.27102,-9.52744c-2.72845,-1.54916 -0.82623,4.38789 -0.82623,4.38789c0,0 -7.93843,-5.19677 -13.15685,-11.00681c-6.08759,-6.77777 -9.73663,-14.57056 -12.13914,-18.68944c-0.34082,-0.58431 -4.01999,1.58785 -5.934,2.01254c-2.96082,0.65696 -4.48364,-0.08182 -4.48364,-0.08182c0,0 2.67098,-3.37669 3.55098,-5.15497c0.94364,-1.90688 1.93325,-5.92746 1.93325,-5.92746c0,0 -2.66402,1.90888 -4.05965,2.38502c-1.48595,0.50696 -4.60208,0.57008 -4.60208,0.57008c0,0 4.39229,-5.64339 5.74307,-11.5602c1.27257,-5.57422 -0.4917,-11.39111 -0.4917,-12.96047z" fill="#000000" stroke="#000000" stroke-width="0" stroke-linecap="butt"/><path d="M206.74942,307.58114l15.14285,-131.8421l37.78325,-0.15789l13.57389,132z" fill="#0a1d1e" stroke="#000000" stroke-width="2" stroke-linecap="butt"/><path d="M251.83138,247.2162c0,1.85634 -3.91107,20.44365 -12.31161,20.45786c-7.93481,0.01342 -12.26404,-17.72646 -12.26404,-20.35373c0,-6.95891 5.19993,-4.06123 11.87129,-4.06123c6.67135,0 12.70435,-3.00182 12.70435,3.9571z" fill="#1b312f" stroke="none" stroke-width="0" stroke-linecap="butt"/><path d="M208.94659,223.94778c0,0 -7.74667,-15.71299 -9.46398,-21.89916c-1.19594,-4.30814 0.14592,-11.66705 0.14592,-11.66705c0,0 26.78383,-7.25962 40.26342,-7.25962c13.59752,0 40.97102,7.25963 40.97102,7.25963c0,0 0.34705,8.13046 -1.44849,12.8277c-2.18807,5.72417 -10.73667,19.04966 -10.73667,19.04966z" fill="#000000" stroke="none" stroke-width="0" stroke-linecap="butt"/><path d="M286.83608,198.40368c0,4.73667 -2.84628,17.2631 -10.5307,27.64478c-9.14992,12.36155 -24.49984,22.8101 -37.37372,22.8101c-12.22498,0 -27.20439,-10.16944 -36.06371,-22.2547c-8.30557,-11.32988 -10.88502,-24.44584 -10.88502,-29.4668c0,-10.37667 24.21859,24.27745 47.90443,24.27745c23.68584,0 46.94874,-33.38748 46.94874,-23.0108z" fill="#304d47" stroke="none" stroke-width="0" stroke-linecap="butt"/><path d="M199.59538,197.37748c0,2.54423 32.24771,17.91549 40.89324,23.71441c0.17735,0.11895 7.53252,-3.03297 15.97537,-8.56386c8.33364,-5.45936 17.71735,-13.27923 23.76926,-16.08549c0.58939,-0.2733 -1.38432,-1.02585 -1.29906,-2.12552c0.10226,-1.31882 2.25966,-2.9913 3.17616,-2.9792c0.69597,0.00919 3.42798,0.61629 4.69047,1.80632c1.27445,1.20129 1.07645,2.98712 1.13876,3.32045c0.26126,1.39792 -4.20797,4.56888 -4.43432,4.81125c-0.7663,0.82054 -17.30955,12.51501 -31.66575,20.19123c-8.65212,4.62626 -17.70688,6.7354 -18.64943,7.11643c-3.58043,1.44739 -11.7397,1.27271 -12.23558,1.37572c-0.34476,0.07163 3.32174,-1.94421 7.28718,-3.57621c4.49045,-1.84806 9.36423,-3.3446 9.23064,-3.3446c-2.31451,0 -22.49106,-8.33027 -35.41361,-16.37123c-7.07473,-4.4022 -10.92218,-9.99707 -10.92218,-11.11668c0,-3.16466 4.03134,-5.39793 7.61298,-5.39793c3.58164,0 0.84588,4.06028 0.84588,7.22492z" fill="#779295" stroke="none" stroke-width="0" stroke-linecap="butt"/><path d="M175.83932,144.4273c0,-33.30185 28.7599,-60.29833 64.23702,-60.29833c35.47712,0 64.23702,26.99649 64.23702,60.29833c0,33.30185 -28.7599,60.29833 -64.23702,60.29833c-35.47712,0 -64.23702,-26.99649 -64.23702,-60.29833z" fill="#ffffff" stroke="#000000" stroke-width="2" stroke-linecap="butt"/><path d="M176.56238,144.48114c0,-0.72799 5.20666,55.91939 63.36046,56.93429c55.56352,0.9697 63.51358,-57.95314 63.51358,-56.93429c0,32.80479 -28.40173,59.39833 -63.43702,59.39833c-35.03529,0 -63.43702,-26.59354 -63.43702,-59.39833z" fill="#e6e6e6" stroke="#000000" stroke-width="0" stroke-linecap="butt"/><path d="M189.38955,144.85677c0,-12.968 10.51265,-23.48065 23.48065,-23.48065c12.968,0 23.48065,10.51265 23.48065,23.48065c0,12.968 -10.51265,23.48065 -23.48065,23.48065c-12.968,0 -23.48065,-10.51265 -23.48065,-23.48065z" fill="#ffffff" stroke="#000000" stroke-width="2" stroke-linecap="butt"/><path d="M196.45492,144.58114c0,-9.12808 7.39976,-16.52784 16.52783,-16.52784c9.12808,0 16.52784,7.39977 16.52784,16.52784c0,9.12808 -7.39977,16.52784 -16.52784,16.52784c-9.12808,0 -16.52783,-7.39977 -16.52783,-16.52784z" fill="#000000" stroke="none" stroke-width="0" stroke-linecap="butt"/><path d="M267.12863,168.33741c-12.968,0 -23.48065,-10.51265 -23.48065,-23.48065c0,-12.968 10.51265,-23.48065 23.48065,-23.48065c12.968,0 23.48065,10.51265 23.48065,23.48065c0,12.968 -10.51265,23.48065 -23.48065,23.48065z" data-paper-data="{&quot;index&quot;:null}" fill="#ffffff" stroke="#000000" stroke-width="2" stroke-linecap="butt"/><path d="M267.01606,161.10898c-9.12807,0 -16.52783,-7.39977 -16.52783,-16.52784c0,-9.12808 7.39977,-16.52784 16.52783,-16.52784c9.12807,0 16.52783,7.39977 16.52783,16.52784c0,9.12808 -7.39977,16.52784 -16.52783,16.52784z" data-paper-data="{&quot;index&quot;:null}" fill="#000000" stroke="none" stroke-width="0" stroke-linecap="butt"/><path d="M189.38955,144.85677c0,-12.968 10.51265,-23.48065 23.48065,-23.48065c12.968,0 23.48065,10.51265 23.48065,23.48065c0,0 -12.03139,-2.0353 -23.57938,-1.87907c-11.92656,0.16135 -23.38193,2.50478 -23.38193,1.87907z" fill="#ffffff" stroke="#000000" stroke-width="2" stroke-linecap="butt"/><path d="M243.64798,144.85677c0,-12.968 10.51265,-23.48065 23.48065,-23.48065c12.968,0 23.48065,10.51265 23.48065,23.48065c0,0.59609 -11.32578,-1.72663 -22.85332,-1.8702c-11.94567,-0.14878 -24.10799,1.8702 -24.10799,1.8702z" data-paper-data="{&quot;index&quot;:null}" fill="#ffffff" stroke="#000000" stroke-width="2" stroke-linecap="butt"/><path d="M180.91843,114.71837c11.42496,-22.68233 31.40973,-33.07142 60.56473,-32.85267c24.16321,0.18129 39.14424,9.27509 47.64651,17.23625c0.95139,0.89084 -11.16905,5.58091 -18.25999,7.52146c-15.29703,4.18628 -30.35723,6.25195 -30.35723,6.25195l6.65013,-11.17032c0,0 -23.70536,7.34319 -34.98048,9.59002c-11.17264,2.22641 -31.26367,3.4233 -31.26367,3.4233z" fill="#000000" stroke="none" stroke-width="0" stroke-linecap="butt"/><path d="M177.59386,154.09271c0,6.19012 5.78363,16.66485 9.06659,23.09035c1.5276,2.98988 -5.3919,1.0162 -6.87998,1.0162c-2.74857,0 -4.93654,-6.14578 -9.85889,-14.08189c-3.47001,-5.59456 -4.28881,-21.98597 -4.28881,-25.73636c0,-1.57245 -1.65392,-8.41816 1.55508,-14.36597c0.74956,-1.38934 1.63891,-2.79598 2.64387,-4.19801c6.34325,-8.84914 17.2936,-17.51295 26.78631,-20.45639c12.98896,-4.02754 87.1386,-10.2335 96.30757,-5.00786c2.00634,1.14345 26.34696,28.33209 23.28262,37.84629c-0.0995,0.30891 2.00625,8.85061 -0.59827,15.01191c-2.12378,5.0241 -1.55197,12.25441 -4.39096,16.73528c-2.3072,3.64148 -9.73794,17.99385 -10.34072,17.88226c-0.20051,-0.03714 -9.32871,-1.20368 -9.14759,-1.80872c1.21806,-4.06881 7.99712,-16.84293 10.88449,-22.26854c2.02963,-3.8139 0.47098,-23.44261 -2.11484,-27.51798c-3.26104,-5.13958 -7.71104,-8.46718 -14.99631,-10.82538c-16.56625,-5.36236 -43.37312,-6.93438 -43.23592,-6.93438c3.06357,0 -25.48903,-2.48601 -45.44313,4.89445c-10.56898,3.90915 -17.99319,16.25305 -17.99319,19.39381c0,0 -2.29991,6.20245 -2.51188,9.17007c-0.19997,2.79956 1.27398,8.16087 1.27398,8.16087z" fill="#1b312f" stroke="none" stroke-width="0" stroke-linecap="butt"/><path d="M188.93474,108.48335c-17.77157,6.63231 -22.63669,22.63312 -22.63669,14.53858c0,-2.05172 7.68192,-17.17503 9.35372,-22.99008c2.29588,-7.98597 1.62466,-17.97153 7.59161,-25.10888c5.42636,-6.49073 15.78144,-15.94574 22.93913,-20.68237c15.14798,-10.02428 28.17307,-12.00889 35.53233,-12.00889c5.21163,0 25.77695,7.1338 40.68309,16.27687c5.9155,3.62844 14.13114,10.19296 19.97474,18.34394c1.37797,1.92208 3.55426,15.55831 7.85729,27.32358c3.06631,8.38386 7.94331,25.30312 5.76968,27.82904c-0.37102,0.43116 -8.73284,-15.6295 -19.73841,-19.85614c-11.0222,-4.23304 -25.7321,-10.5118 -54.94382,-10.88475c-28.85733,-0.36842 -25.33535,-0.27405 -52.38264,7.21915z" fill="#476761" stroke="none" stroke-width="NaN" stroke-linecap="butt"/><path d="M263.41884,206.19843c0,0.40661 -6.44917,4.9961 -13.03435,8.22954c-3.99903,1.96359 -8.16489,3.27959 -10.63118,3.27959c-0.66711,0 -6.47009,-1.19472 -11.07883,-3.44883c-6.47667,-3.1677 -12.21693,-7.74411 -12.21693,-8.06031c0,-0.66999 3.65083,-2.24294 8.42302,-0.3987c4.19092,1.61962 8.15304,6.18246 14.50297,6.18246c8.33319,0 14.24308,-5.84882 18.85191,-7.36913c2.90224,-0.95736 5.1834,1.09913 5.1834,1.58535z" fill="#314e48" stroke="none" stroke-width="0" stroke-linecap="butt"/><g stroke="none" stroke-width="0" stroke-linecap="butt"><path d="M200.89102,211.80582c-2.03837,0 2.01416,-6.06929 -8.76216,-18.36131c-18.41761,-21.00808 -24.92569,-11.14165 -24.92569,-14.75974c0,-3.23686 12.90746,-12.06037 19.21024,-14.11405c3.12665,-1.01879 18.21875,11.26559 30.10561,10.1221c3.85763,-0.3711 17.87277,-3.61263 23.67199,-15.1445c5.76624,12.28359 20.58914,16.63367 27.85943,15.80181c7.21514,0.15171 22.24568,-9.72972 22.57833,-9.72972c0.61595,0 19.21544,6.8647 20.85498,12.13109c3.57841,5.07047 -28.49847,-3.21106 -34.18241,33.22463c-4.75004,0.76925 -5.28656,-7.12623 -11.51399,-5.49628c-6.73798,1.76363 -19.25205,4.52728 -26.55375,4.47446c-7.84312,-0.05673 -18.64274,-2.32863 -25.10292,-3.73212c-8.46324,-1.83867 -11.68241,5.58362 -13.23964,5.58362zM221.82423,178.60291c-2.47423,1.87716 -4.07218,4.8492 -4.07218,8.19446c0,5.41108 4.1809,9.84565 9.48852,10.24956c0.27356,0.00693 0.53938,0.01494 0.79102,0.02998c5.13061,0.30669 10.28177,-0.15111 15.41932,0c4.3458,0.12781 9.14943,1.63702 13.3634,-0.77097c0.81769,-0.46725 0.73582,-1.78714 1.40175,-2.45307c0.66593,-0.66593 1.98583,-0.58407 2.45308,-1.40176c1.73391,-3.03434 1.73391,-8.27316 0,-11.30749c-0.46725,-0.81769 -1.78714,-0.73582 -2.45308,-1.40176c-0.66593,-0.66593 -0.58406,-1.98583 -1.40175,-2.45308c-1.5333,-0.87617 -3.38653,-1.07315 -5.13977,-1.28494c-2.72673,-0.3294 -5.47826,0.43323 -8.22363,0.51398c-5.13755,0.15111 -10.28871,-0.30669 -15.41932,0c-1.02216,0 -2.00948,0.14919 -2.94137,0.42699c-0.76997,0.19691 -1.51372,0.47282 -2.1984,0.85796c-0.39826,0.22403 -0.75112,0.49377 -1.06759,0.80014z" fill="#0a1d1e"/><path d="M313.92308,181.07871c4.64665,5.73696 0.57317,20.93822 -8.56349,28.33846c-9.13666,7.40026 -22.96547,7.85798 -27.61215,2.12099c-4.64665,-5.73696 2.28311,-17.85404 11.41972,-25.25427c9.13666,-7.40026 20.10923,-10.94214 24.75592,-5.20516z" data-paper-data="{&quot;index&quot;:null}" fill="#dd6000"/><path d="M306.68005,208.27146c-6.29222,6.08013 -15.30847,8.48146 -18.80457,4.86343c-3.4961,-3.61803 -0.14809,-11.88532 6.14413,-17.96546c6.29222,-6.08013 15.69804,-8.40984 19.19411,-4.7918c3.4961,3.61803 -0.24147,11.81373 -6.53367,17.89386z" data-paper-data="{&quot;index&quot;:null}" fill="#ffa200"/><path d="M305.17062,206.14271c-3.83434,3.70512 -9.32865,5.16843 -11.45909,2.96366c-2.13043,-2.20475 -0.09024,-7.24264 3.7441,-10.94778c3.83434,-3.70512 9.56606,-5.12482 11.69648,-2.92004c2.13043,2.20475 -0.14715,7.19904 -3.98149,10.90418z" data-paper-data="{&quot;index&quot;:null}" fill="#000000"/><path d="M190.20774,187.66201c8.43257,7.37917 14.0149,18.57226 9.38146,23.86716c-4.63342,5.29489 -17.78656,4.35709 -26.21911,-3.02206c-8.43257,-7.37916 -11.76027,-22.00374 -7.12682,-27.29862c3.21484,-3.67377 9.6842,-2.89941 15.88674,0.62394c2.73697,1.55473 5.31252,3.4332 7.8943,5.69245z" fill="#dd6000"/><path d="M166.58128,190.08985c3.46078,-3.3187 12.33372,-0.75867 18.10535,5.26006c5.77164,6.01872 8.66001,14.01352 5.19923,17.3322c-3.46078,3.3187 -11.96012,0.70459 -17.73178,-5.31412c-5.77164,-6.01872 -9.03359,-13.95944 -5.57282,-17.27812z" data-paper-data="{&quot;index&quot;:null}" fill="#ffa200"/><path d="M170.2093,195.60078c2.10892,-2.02238 7.51591,-0.46232 11.03302,3.20537c3.51713,3.66771 5.27723,8.53954 3.16833,10.56189c-2.10892,2.02238 -7.28827,0.42939 -10.80538,-3.2383c-3.51713,-3.66771 -5.50487,-8.50661 -3.39597,-10.52896z" data-paper-data="{&quot;index&quot;:null}" fill="#000000"/></g><path d="M230.07707,193.60328c-5.30563,-0.2 -3.73184,-8.88334 -3.73184,-8.88334c0,0 10.4676,-2 14.63184,-2c4.20523,0 12.67775,1.4 12.67775,1.4c0,0 -14.47858,9.82634 -23.57775,9.48334z" fill="#ffffff" stroke="#000000" stroke-width="2" stroke-linecap="round"/><path d="M226.98725,187.3945c0,0 3.50686,-0.21726 7.89631,0.13534c4.60219,0.36968 17.27035,-2.70695 17.27035,-2.70695" fill="none" stroke="#000000" stroke-width="0.5" stroke-linecap="round"/><path d="M207.84051,114.84826c0,0 8.44486,0.64433 13.02634,3.15967c4.58148,2.51534 8.70155,8.76942 8.70155,8.76942c0,0 -5.93531,-5.421 -9.47343,-7.3635c-3.69747,-2.03 -12.25446,-4.56559 -12.25446,-4.56559z" fill="#000000" stroke="none" stroke-width="0" stroke-linecap="butt"/><path d="M259.69802,119.43646c-3.49439,2.02014 -9.30857,7.57085 -9.30857,7.57085c0,0 3.981,-6.34352 8.50583,-8.95939c4.52483,-2.61586 12.95341,-3.44647 12.95341,-3.44647c0,0 -8.49891,2.72388 -12.15068,4.83502z" data-paper-data="{&quot;index&quot;:null}" fill="#000000" stroke="none" stroke-width="0" stroke-linecap="butt"/><path d="M213.2876,158.90417c12.77911,-0.35564 22.01209,-7.65512 21.67104,-6.90517c-2.69405,10.45628 -12.54675,16.43751 -22.05195,16.43751c-9.25386,0 -20.59075,-6.35317 -21.74956,-16.46508c0,0 10.51778,7.25592 22.13048,6.93274z" data-paper-data="{&quot;index&quot;:null}" fill="#ffffff" stroke="#000000" stroke-width="2" stroke-linecap="butt"/><g stroke="none" stroke-width="0" stroke-linecap="butt"><path d="M161.71453,221.72293c-3.18451,6.11004 -8.59392,9.58937 -12.08223,7.77128c-3.48831,-1.8181 -3.73457,-8.24512 -0.55006,-14.35515c3.18451,-6.11004 8.59389,-9.58936 12.08221,-7.77126c3.48831,1.8181 3.7346,8.2451 0.55009,14.35514z" fill="#dadada"/><path d="M178.32833,212.0157c-3.15338,6.05029 -8.53752,9.48119 -12.02584,7.66309c-3.48831,-1.8181 -3.75982,-8.19667 -0.60645,-14.24696c3.15338,-6.05029 8.53752,-9.48122 12.02585,-7.66312c3.48831,1.8181 3.75982,8.1967 0.60644,14.24699z" fill="#ebebeb"/><path d="M174.06303,231.07742c-2.93543,5.63212 -8.14289,8.72401 -11.6312,6.90591c-3.48831,-1.8181 -3.9365,-7.85767 -1.00108,-13.48978c2.93543,-5.63212 8.14288,-8.72401 11.63119,-6.90591c3.48831,1.8181 3.93653,7.85767 1.0011,13.48978z" fill="#ffffff"/><path d="M167.39189,206.12724c-1.71884,3.29789 -5.69792,4.62372 -8.88754,2.96131c-3.18962,-1.6624 -4.3819,-5.68351 -2.66306,-8.98141c1.71884,-3.29789 5.69792,-4.62373 8.88754,-2.96133c3.18962,1.6624 4.3819,5.68353 2.66306,8.98142z" fill="#ffffff"/><path d="M187.35607,219.00332c-2.06361,3.95939 -6.56434,5.69527 -10.05265,3.87717c-3.48831,-1.8181 -4.64325,-6.50166 -2.57964,-10.46104c2.06361,-3.95939 6.56432,-5.69527 10.05263,-3.87719c3.48831,1.8181 4.64327,6.50166 2.57965,10.46104z" fill="#dadada"/></g><g data-paper-data="{&quot;index&quot;:null}" stroke="none" stroke-width="0" stroke-linecap="butt"><path d="M316.69326,221.98846c-3.18451,-6.11004 -2.93822,-12.53704 0.55009,-14.35514c3.48833,-1.8181 8.89771,1.66123 12.08221,7.77126c3.18451,6.11004 2.93825,12.53706 -0.55006,14.35515c-3.48831,1.8181 -8.89772,-1.66124 -12.08223,-7.77128z" fill="#dadada"/><path d="M300.68592,198.03422c3.48833,-1.8181 8.87247,1.61283 12.02585,7.66312c3.15336,6.05029 2.88186,12.42887 -0.60645,14.24696c-3.48831,1.8181 -8.87246,-1.6128 -12.02584,-7.66309c-3.15338,-6.05029 -2.88187,-12.4289 0.60644,-14.24699z" fill="#ebebeb"/><path d="M305.34587,217.85315c3.48831,-1.8181 8.69576,1.27379 11.63119,6.90591c2.93542,5.63212 2.48723,11.67169 -1.00108,13.48978c-3.48831,1.8181 -8.69577,-1.27379 -11.6312,-6.90591c-2.93543,-5.63212 -2.48721,-11.67169 1.0011,-13.48978z" fill="#ffffff"/><path d="M313.67898,197.41133c3.18962,-1.6624 7.1687,-0.33656 8.88754,2.96133c1.71884,3.29789 0.52656,7.31901 -2.66306,8.98141c-3.18962,1.6624 -7.1687,0.33658 -8.88754,-2.96131c-1.71884,-3.29789 -0.52656,-7.31902 2.66306,-8.98142z" fill="#ffffff"/><path d="M291.05174,219.26883c-2.06361,-3.95939 -0.90866,-8.64295 2.57965,-10.46104c3.48831,-1.81808 7.98902,-0.0822 10.05263,3.87719c2.06361,3.95939 0.90867,8.64295 -2.57964,10.46104c-3.48831,1.8181 -7.98903,0.08222 -10.05265,-3.87717z" fill="#dadada"/></g><path d="M267.62093,159.2375c12.77911,-0.35564 22.01209,-7.65512 21.67104,-6.90517c-2.69405,10.45628 -12.54675,16.43751 -22.05195,16.43751c-9.25386,0 -20.59075,-6.35317 -21.74956,-16.46508c0,0 10.51778,7.25592 22.13048,6.93274z" data-paper-data="{&quot;index&quot;:null}" fill="#ffffff" stroke="#000000" stroke-width="2" stroke-linecap="butt"/></g></g></svg>