<svg version="1.1" xmlns="http://www.w3.org/2000/svg" xmlns:xlink="http://www.w3.org/1999/xlink" width="35.14905" height="35.14874" viewBox="0,0,35.14905,35.14874"><g transform="translate(-222.41348,-162.41347)"><g data-paper-data="{&quot;isPaintingLayer&quot;:true}" stroke="none" stroke-miterlimit="10" stroke-dasharray="" stroke-dashoffset="0" style="mix-blend-mode: normal"><path d="M229.48314,162.41348h20.03379c3.9166,0 7.06966,3.15307 7.06966,7.06966v20.03379c0,3.91659 -3.15306,7.06966 -7.06966,7.06966h-20.03379c-3.91659,0 -7.06966,-3.15307 -7.06966,-7.06966v-20.03379c0,-3.91659 3.15307,-7.06966 7.06966,-7.06966z" fill-opacity="0.59677" fill="#5e807a" fill-rule="evenodd" stroke-width="4.43922" stroke-linecap="round" stroke-linejoin="round"/><path d="M243.26485,188.60231c0,0 0.78177,2.09375 -3.73903,3.89279c-3.19493,1.27141 -8.47261,1.62766 -8.47261,1.62766c0,0 -2.94759,-3.67584 -3.34881,-5.78709c-1.19844,-6.30626 0.54019,-7.13369 0.54019,-7.13369l9.68779,0.1005l5.33248,7.29982z" fill="#5e807a" fill-rule="nonzero" stroke-width="0" stroke-linecap="butt" stroke-linejoin="miter"/><path d="M228.70351,171.57304c2.71402,-6.59843 11.6616,-7.45607 15.39675,-6.21508c3.73515,1.24098 9.63841,9.63656 6.92679,16.22808c-1.37882,3.35169 -8.5898,7.77924 -8.5898,7.77924l-9.31596,0.01993l-4.8506,-7.25976c0,0 -0.64955,-7.92092 0.43282,-10.55242z" fill="#000000" fill-rule="nonzero" stroke-width="0" stroke-linecap="butt" stroke-linejoin="miter"/><path d="M243.33756,189.31863l-6.81438,-7.0319l-8.76017,-0.5776c0,0 1.20092,-2.3599 3.3206,-3.02144c2.50463,-0.78167 6.02371,-0.9902 7.5958,-0.35661c1.53433,0.61838 4.12291,2.95836 4.666,5.5712c0.55356,2.66323 -0.00786,5.41631 -0.00786,5.41631z" fill="#5e807a" fill-rule="nonzero" stroke-width="0" stroke-linecap="butt" stroke-linejoin="miter"/><path d="M245.98742,187.35935c-0.81057,0.43702 0.23002,-3.07274 -0.80145,-6.5808c-0.7536,-2.56304 -3.37581,-5.25782 -4.84952,-5.75361c-1.89748,-0.63834 -4.918,-0.96017 -7.29332,0.00668c-2.97612,1.2114 -5.14198,3.79739 -5.12945,2.9181c0.00518,-0.36334 0.07109,-3.80435 4.14683,-6.05222c3.0835,-1.70062 7.77518,-2.65707 10.6621,-1.28545c2.31186,1.0984 5.41039,5.07216 5.50304,8.4226c0.16532,5.97795 -1.66582,8.01607 -2.23825,8.3247z" fill="#5e807a" fill-rule="nonzero" stroke-width="0" stroke-linecap="butt" stroke-linejoin="miter"/><path d="M257.56252,169.83175v20.49804c0,4.00745 -3.22497,7.23243 -7.23242,7.23243h-20.5c-3.66107,0 -6.66147,-2.69385 -7.1543,-6.21484c0.7952,3.03475 3.54108,5.26367 6.83204,5.26367h20.0332c3.9166,0 7.07032,-3.15372 7.07032,-7.07031v-20.03321c0,-3.2976 -2.23906,-6.0451 -5.28321,-6.83398c3.52994,0.48496 6.23438,3.49081 6.23438,7.15821z" fill-opacity="0.50151" fill="#000000" fill-rule="evenodd" stroke-width="4.54219" stroke-linecap="round" stroke-linejoin="round"/></g></g></svg>