<svg version="1.1" xmlns="http://www.w3.org/2000/svg" xmlns:xlink="http://www.w3.org/1999/xlink" width="1349.44786" height="766.95541" viewBox="0,0,1349.44786,766.95541"><defs><radialGradient cx="240.00016" cy="180" r="279.53153" gradientUnits="userSpaceOnUse" id="color-1"><stop offset="0" stop-color="#466760"/><stop offset="1" stop-color="#0b1d1f"/></radialGradient><radialGradient cx="-94.01997" cy="156.2203" r="674.72393" gradientUnits="userSpaceOnUse" id="color-2"><stop offset="0" stop-color="#060f10" stop-opacity="0"/><stop offset="1" stop-color="#060f10"/></radialGradient></defs><g transform="translate(768.7439,191.81422)"><g data-paper-data="{&quot;isPaintingLayer&quot;:true}" fill-rule="nonzero" stroke-linejoin="miter" stroke-miterlimit="10" stroke-dasharray="" stroke-dashoffset="0" style="mix-blend-mode: normal"><path d="M-39.5315,391.90294v-423.80587h559.06306v423.80587z" fill="url(#color-1)" stroke="none" stroke-width="NaN" stroke-linecap="butt"/><g><g stroke="none" stroke-width="0" stroke-linecap="butt"><path d="M170.49075,575.14119v-264.17282h23.2339v264.17282z" fill="#000000"/><path d="M40.09632,566.18408v-256.31468h22.89717v256.31468z" fill="#000000"/><path d="M68.38106,560.1184v-225.33147h96.30283v225.33147z" fill="#000000"/><path d="M113.50832,560.80594v-271.98718h5.7243v271.98718z" fill="#d4ecfe"/><g data-paper-data="{&quot;index&quot;:null}"><path d="M169.31625,382.87081c-6.90281,5.91636 -14.05097,10.49467 -17.24882,11.11112c-8.32745,1.60537 -16.42339,-2.35464 -18.06967,-4.83072c-2.50416,-3.7664 -9.23683,-8.90502 -12.0192,-14.32955c-3.95065,-7.70215 -3.68998,-15.66803 -4.33702,-18.41075c-3.25828,-13.81119 6.92908,-34.91568 4.38161,-39.60364c-0.46121,-0.84869 14.38981,-11.08696 16.65941,-19.3691c7.18102,-26.20424 25.32182,-51.65611 25.32182,-51.65611l20.95141,-7.37725c0,0 8.2509,-3.22891 12.57745,-4.14944c4.85792,-1.0336 15.16104,-1.75237 15.16104,-1.75237c0,0 0.26377,15.11563 -1.64568,35.03872c-0.98975,10.32682 -3.4637,21.94527 -4.95618,33.41979c-1.45453,11.18267 -4.04169,22.89521 -8.01647,34.04723c-3.59605,10.08939 -8.60717,19.94335 -9.86536,24.46885c-1.79413,6.45337 -10.23943,15.97505 -18.89438,23.39316z" fill="#031718"/><path d="M136.92294,368.29283c-8.05475,-6.04019 -15.07632,-17.84629 -16.73795,-24.88961c-3.25828,-13.81119 -3.53525,-36.76236 -6.08274,-41.45029c-0.46121,-0.84869 14.38981,-11.08696 16.65941,-19.3691c7.18102,-26.20424 25.32182,-51.65611 25.32182,-51.65611l20.95141,-7.37725c0,0 8.25095,-3.22891 12.57745,-4.14944c4.85792,-1.0336 15.16104,-1.75237 15.16104,-1.75237c0,0 -2.22998,34.8466 -6.60186,68.45852c-2.77045,21.2998 -15.23298,48.98842 -17.88185,58.5161c-3.2251,11.60029 -11.10351,20.96356 -18.81516,25.00333c-5.73893,3.00636 -12.20945,2.10319 -12.20945,2.10319c0,0 -8.09144,-0.24943 -12.34214,-3.437z" fill="#2c4c45"/><path d="M137.3268,337.50763c-6.84167,-7.18032 -12.76346,-22.06342 -17.29569,-30.4037c-0.46121,-0.84869 1.20283,48.00626 0.16057,62.88903c-0.16536,2.36127 -5.64176,0.33 -5.70926,0.3235c-1.09892,-0.10568 0.07421,-65.45857 -0.07832,-67.23405c-0.45087,-5.24734 -0.60409,-21.83864 1.66552,-30.12079c7.18102,-26.20424 25.32182,-51.65611 25.32182,-51.65611l20.95141,-7.37725l27.73848,-5.90182c0,0 -0.07558,35.76995 -4.44745,69.38185c-2.77045,21.2998 -9.38527,41.90959 -12.03412,51.43726c-5.62515,20.23312 -23.9458,17.8733 -23.9458,17.8733c0,0 -6.71538,-3.32165 -12.3272,-9.21126z" fill="#789396"/><path d="M153.78527,328.12821c-21.72132,1.83629 -23.31212,-54.00151 -23.31212,-54.00151l0.88526,-51.34571l41.31264,-3.54109l-1.77057,55.47697c0,0 -0.06104,51.96958 -17.11522,53.41135z" fill="#a7bccd"/></g><g><path d="M45.93638,359.36152c-1.25816,-4.52549 -6.26933,-14.37948 -9.86538,-24.46885c-3.97478,-11.15198 -6.56196,-22.86453 -8.01647,-34.04723c-1.49248,-11.47456 -3.96645,-23.09297 -4.95618,-33.41979c-1.90947,-19.92308 -1.64568,-35.03872 -1.64568,-35.03872c0,0 10.3031,0.71877 15.16104,1.75237c4.32652,0.92053 12.57745,4.14944 12.57745,4.14944l20.95141,7.37725c0,0 18.14084,25.45188 25.32182,51.65611c2.26966,8.28213 17.12061,18.52041 16.65941,19.3691c-2.5475,4.68794 7.63989,25.79244 4.38161,39.60364c-0.64704,2.74267 -0.38638,10.70858 -4.33702,18.41075c-2.7824,5.42454 -9.51506,10.56313 -12.0192,14.32955c-1.64628,2.47609 -9.74222,6.43607 -18.06962,4.83072c-3.19786,-0.61647 -10.34598,-5.19478 -17.24882,-11.11112c-8.65496,-7.41813 -17.10024,-16.93979 -18.89438,-23.39316z" fill="#031718"/><path d="M84.88198,371.61373c0,0 -6.47052,0.90315 -12.20945,-2.10319c-7.71165,-4.03979 -15.59011,-13.40302 -18.81516,-25.00333c-2.64884,-9.52765 -15.11137,-37.2163 -17.88185,-58.5161c-4.37188,-33.61191 -6.60186,-68.45852 -6.60186,-68.45852c0,0 10.3031,0.71877 15.16104,1.75237c4.32652,0.92053 12.57745,4.14944 12.57745,4.14944l20.95141,7.37725c0,0 18.1408,25.45188 25.32182,51.65611c2.26966,8.28213 17.12063,18.52041 16.65944,19.3691c-2.5475,4.68794 -2.82444,27.6391 -6.08274,41.45029c-1.66164,7.0433 -8.68319,18.8494 -16.73795,24.88961c-4.2507,3.18756 -12.34214,3.437 -12.34214,3.437z" fill="#2c4c45"/><path d="M84.49306,346.6028c0,0 -18.32065,2.35982 -23.9458,-17.8733c-2.64884,-9.52765 -9.26365,-30.13748 -12.03412,-51.43726c-4.37188,-33.61191 -4.44745,-69.38185 -4.44745,-69.38185l27.73848,5.90182l20.95141,7.37725c0,0 18.1408,25.45188 25.32182,51.65611c2.26966,8.28213 2.11639,24.87341 1.66552,30.12079c-0.15258,1.7755 1.02059,67.12837 -0.07832,67.23407c-0.06754,0.0065 -5.5439,2.03775 -5.70926,-0.3235c-1.04224,-14.88276 0.62176,-63.73772 0.16057,-62.88903c-4.53223,8.34027 -10.45401,23.22338 -17.29569,30.4037c-5.61181,5.88961 -12.3272,9.21126 -12.3272,9.21126z" fill="#789396"/><path d="M63.24655,274.60079l-1.77052,-55.47697l41.31262,3.54109l0.88528,51.34571c0,0 -1.59081,55.83781 -23.31212,54.00154c-17.05422,-1.44173 -17.11522,-53.41135 -17.11522,-53.41135z" fill="#a7bccd"/></g><g><path d="M63.72452,202.19785c0,-2.03473 -5.01524,-7.57507 -4.69881,-9.52036c2.8564,-17.55943 23.27205,-27.4195 41.63869,-27.4195c20.40133,0 36.93987,10.26831 36.93987,30.66963c0,1.83348 -1.26187,34.80149 -1.48966,35.36337c-4.96787,12.2554 6.85962,34.89553 -2.62372,43.23219c-2.54512,2.2374 -13.4556,5.08094 -20.56182,3.95289c-2.13553,-0.33903 -12.58955,-0.9889 -19.18534,-5.69379c-12.48268,-8.90408 -23.81511,-25.99732 -27.7988,-38.48912c-4.03116,-12.64061 -2.22035,-23.96858 -2.22035,-32.09529z" fill="#031718"/><path d="M96.09428,205.12471c0,-20.40133 16.53855,-36.93987 36.93987,-36.93987c20.40133,0 36.93987,10.26831 36.93987,30.66963c0,1.83348 -1.26187,34.80149 -1.48966,35.36337c-7.46013,18.40356 -26.84194,41.78209 -37.63117,41.9241c-12.27355,0.16156 -26.44987,-19.82955 -32.53854,-38.92193c-4.03116,-12.64061 -2.22035,-23.96858 -2.22035,-32.09529z" fill="#142d2b"/></g></g><path d="M61.55301,98.06649c0,-6.57643 3.05354,-27.26702 26.09645,-50.21367c9.47043,-9.43086 10.80697,-20.79873 36.33639,-21.02191c1.52997,-0.01337 24.88222,7.4646 26.35014,7.50845c13.20633,0.39452 -0.59142,-18.79067 8.10933,-14.60515c41.23325,19.83535 37.09564,73.74202 37.09564,81.168c0,4.50692 12.3595,33.89508 12.3595,33.89508l-14.18872,-10.22468c0,0 5.02312,18.9231 1.67459,39.43496c-3.13633,19.21185 -15.326,34.9049 -15.326,34.9049l-2.31911,-4.52927c0,0 -2.05298,4.2265 -4.33631,6.52601c-2.28333,2.29951 -7.12845,4.99296 -7.12845,4.99296l0.04042,-6.59682c0,0 -16.65041,20.05317 -49.78488,19.52918c-32.73487,-0.51768 -51.57301,-18.58575 -51.57301,-18.58575l-0.36838,3.74299c0,0 -3.03761,-104.15181 -3.03761,-105.92528z" fill="#000000" stroke="none" stroke-width="1.5" stroke-linecap="butt"/><path d="M62.91407,132.9137c-1.12911,-14.26954 0.65544,-34.44146 0.65544,-34.44146c0,0 9.74575,-0.95864 30.29672,-7.0298c15.78855,-4.66427 31.86139,-14.17251 31.86139,-14.17251l-9.43177,13.70345c0,0 15.69629,-3.31875 29.37027,-8.59467c13.87473,-5.35338 23.57973,-13.33271 27.09397,-9.86378c6.23425,6.10012 1.60658,53.30524 -0.3188,61.43727c-0.43779,1.84899 -3.45144,8.99199 -4.65871,14.90241c-1.20728,5.91041 -2.72505,28.71042 -4.88096,38.43724c-2.45245,11.06489 -9.55378,16.33274 -21.01442,27.55578c-11.46064,11.22305 -20.91777,15.65683 -25.17949,15.69865c-5.41357,0.05312 -17.7652,-7.43903 -27.54746,-17.77398c-10.41652,-11.00506 -17.36413,-16.5859 -19.00884,-29.62162c-1.48124,-11.74005 -1.51932,-19.3865 -2.19653,-29.83409c-0.49497,-7.63588 -4.42412,-12.61002 -5.04076,-20.40287z" fill="#ffffff" stroke="#000000" stroke-width="1.5" stroke-linecap="butt"/><path d="M77.21501,114.49584l0.84895,-3.05652c0,0 6.69226,-3.44251 15.3408,-4.25781c8.62053,-0.81268 14.83619,0.31165 14.83619,0.31165l-0.24832,8.66445c0,0 -6.38273,-1.34975 -14.36594,-0.89523c-6.0731,-0.1727 -33.81553,6.13026 -33.81553,6.13026l-0.04945,-2.62397z" fill="#000000" stroke="none" stroke-width="1.5" stroke-linecap="butt"/><path d="M118.27272,194.59962c0.48724,0.04623 1.2022,-2.84741 4.63479,-4.1178c3.31738,-1.22775 8.04329,-0.83898 10.94183,-0.50496c3.19622,1.07639 19.81794,8.9162 19.81794,8.9162c0,0 -14.53709,1.42085 -20.88529,2.21384c-5.31988,0.66453 -15.06204,2.22721 -15.06204,2.22721l-39.72229,-8.7133c0,0 3.65545,-0.81948 9.07447,-2.65596c6.25997,-2.12149 7.98947,-3.04206 9.9274,-3.29292c4.60502,-0.59608 10.05138,-0.57927 15.24095,1.09683c5.56055,1.79594 5.54772,4.78485 6.03223,4.83083z" fill="#ffffff" stroke="#000000" stroke-width="1.25" stroke-linecap="butt"/><path d="M71.88892,133.6637c0,-9.5722 8.52299,-17.33201 19.03668,-17.33201c10.51367,0 19.03668,7.75979 19.03668,17.33201c0,9.5722 -8.52299,17.33201 -19.03668,17.33201c-10.51367,0 -19.03668,-7.75979 -19.03668,-17.33201z" fill="#ffffff" stroke="#000000" stroke-width="1.5" stroke-linecap="butt"/><path d="M124.8624,183.75347c-0.25428,4.39234 -3.04909,7.61362 -7.88486,7.61362c-4.83577,0 -7.40886,-5.33787 -7.40886,-9.73835c0,-4.40045 2.57309,-6.19713 7.40886,-6.19713c4.83577,0 8.22161,2.50494 7.88486,8.32186z" fill="#ffffff" stroke="#000000" stroke-width="1" stroke-linecap="butt"/><path d="M80.57318,133.55385c0,-5.51443 4.47032,-9.98475 9.98475,-9.98475c5.51443,0 9.98475,4.47032 9.98475,9.98475c0,5.51443 -4.4703,9.98475 -9.98475,9.98475c-5.51443,0 -9.98475,-4.47032 -9.98475,-9.98475z" fill="#000000" stroke="none" stroke-width="1.5" stroke-linecap="butt"/><path d="M124.16393,133.27288l-2.24329,69.29549l-6.9312,0.01691c0,0 -2.01167,-49.62446 -3.42563,-60.94617c-0.58384,-4.67484 -1.0623,-8.77087 -1.0623,-8.77087" fill="#ffffff" stroke="#000000" stroke-width="1.5" stroke-linecap="round"/><path d="M124.95314,133.6637c0,-9.5722 8.43456,-17.33201 18.83914,-17.33201c10.40458,0 18.83914,7.75979 18.83914,17.33201c0,9.5722 -8.43456,17.33201 -18.83914,17.33201c-10.40458,0 -18.83914,-7.75979 -18.83914,-17.33201z" fill="#ffffff" stroke="#000000" stroke-width="1.5" stroke-linecap="butt"/><path d="M133.68127,133.55385c0,-5.51443 4.47032,-9.98475 9.98475,-9.98475c5.51443,0 9.98475,4.47032 9.98475,9.98475c0,5.51443 -4.4703,9.98475 -9.98475,9.98475c-5.51443,0 -9.98475,-4.47032 -9.98475,-9.98475z" fill="#000000" stroke="none" stroke-width="1.5" stroke-linecap="butt"/><path d="M71.44836,132.91445c0,0 -0.4029,-18.18894 20.21642,-18.4144c17.97781,-0.19654 19.09888,18.4144 19.09888,18.4144z" fill="#ffffff" stroke="#000000" stroke-width="1.25" stroke-linecap="butt"/><path d="M123.87313,132.16433c0,0 0.01373,-19.16385 21.57466,-18.46928c20.25401,0.65246 19.92628,18.46928 19.92628,18.46928z" fill="#ffffff" stroke="#000000" stroke-width="1.25" stroke-linecap="butt"/><path d="M115.57482,221.29918c-29.53713,-0.6638 -40.01608,-26.34461 -40.01608,-26.34461c0,0 13.84279,2.64388 20.51157,4.21378c6.88975,1.62192 12.77918,4.60858 21.37083,4.97175c8.59166,0.36315 13.27435,-2.52311 18.47293,-3.06812c4.03033,-0.42253 18.29215,-1.26447 18.29215,-1.26447c0,0 -6.46192,22.21462 -38.63142,21.49167z" fill="#ffffff" stroke="#000000" stroke-width="1.25" stroke-linecap="butt"/><path d="M65.14959,151.44876c-0.98768,2.92996 -8.25988,-6.17526 -10.69819,-16.37936c-2.43829,-10.20411 -2.18462,-17.78501 2.52186,-17.83793c4.45027,-0.05006 4.61474,7.29821 5.90223,14.63655c1.37951,7.86281 3.45354,16.08189 2.27411,19.58075z" data-paper-data="{&quot;index&quot;:null}" fill="#ffffff" stroke="#000000" stroke-width="1" stroke-linecap="butt"/><path d="M172.09906,131.33435c1.28748,-7.33834 1.45196,-14.6866 5.90223,-14.63655c4.70647,0.05294 4.96017,7.63384 2.52186,17.83796c-2.43831,10.20411 -9.71051,19.30932 -10.69819,16.37936c-1.17945,-3.49886 0.8946,-11.71795 2.27411,-19.58075z" data-paper-data="{&quot;index&quot;:null}" fill="#ffffff" stroke="#000000" stroke-width="1" stroke-linecap="butt"/><path d="M65.93396,144.63336c0,0 -6.71687,-4.30105 -8.17718,-15.00153c-0.81462,-5.96907 4.72032,-4.50509 4.72032,-4.50509" fill="none" stroke="#000000" stroke-width="0.5" stroke-linecap="round"/><path d="M173.17551,123.64526c0,0 4.6524,-0.80554 3.9677,5.16353c-1.22749,10.70048 -6.87335,14.34307 -6.87335,14.34307" data-paper-data="{&quot;index&quot;:null}" fill="none" stroke="#000000" stroke-width="0.5" stroke-linecap="round"/><g stroke="none" stroke-width="0" stroke-linecap="butt"><path d="M165.14943,21.95933c0,0.23437 4.54762,5.17196 -1.35384,11.56463c-2.29575,2.48683 -7.55764,25.16254 -10.5816,28.2417c-2.0605,2.09808 -17.01243,19.80142 -19.30744,21.90762c-1.84484,1.69309 -0.86901,12.96229 -2.7345,14.5281c-2.03052,1.70438 -4.36692,6.40059 -6.42836,7.86024c-1.6127,1.14194 -1.24477,37.6425 -2.8593,38.62229c-3.41076,2.06985 -9.40218,15.85248 -12.79868,16.08215c-1.29403,0.08751 -2.01165,3.86708 -5.39305,6.32379c-5.54709,4.03018 -12.72545,6.81032 -14.67716,5.75851c-0.60827,-0.32781 -0.62853,2.74464 -1.19574,6.54537c-0.26294,1.7619 -0.98123,5.46109 -3.14861,8.26795c-1.38189,1.78961 -7.76282,5.56753 -14.95836,6.29242c-3.97035,0.39997 -9.45622,0.72561 -12.81552,0.03614c-3.8407,-0.78826 -5.30609,-2.70114 -5.52211,-3.86005c-0.44509,-2.38802 0.41964,-5.97116 2.23598,-8.85037c1.21249,-1.92201 6.5165,-8.62978 6.78494,-10.62373c0.05434,-0.40353 -1.40953,1.21674 -1.35288,0.8093c3.3092,-23.79513 12.02972,-50.40821 11.54504,-50.40821c-2.27062,0 72.44493,-91.68548 72.44493,-92.85995c0,-0.54541 3.83001,-3.84502 7.6291,-5.58694c1.97806,-0.90695 5.97301,-2.67364 8.82762,-2.72569c3.46905,-0.06329 5.65956,1.72964 5.65956,2.07471z" fill="#2c4c45"/><path d="M61.17121,189.44844c0,0 -10.88332,-59.5522 -9.51934,-82.62637c0.70904,-11.9943 2.34446,-27.34748 6.90909,-38.97117c4.52636,-11.5263 10.94352,-19.37374 10.94352,-19.37374l21.87485,3.47222v26.0415c0,0 27.74241,-3.55232 35.16651,14.67224c0.68768,1.68812 -10.8444,11.14827 -10.30921,13.11306c1.74258,6.39718 -0.97517,27.33383 -1.00097,34.0181c-0.00753,1.94424 -3.24231,4.68231 -6.12997,7.0454c-2.75355,2.25328 -3.42382,4.48134 -3.68044,6.27269c-0.244,1.70342 -10.32032,9.37315 -17.53865,14.25035c-3.96751,2.68072 -6.37717,3.54852 -6.51065,4.38803c-1.52255,9.57638 -4.65668,9.65974 -5.72392,13.59743c-1.65876,6.12031 -14.48087,4.10024 -14.48087,4.10024z" fill="#8fa7b3"/><path d="M112.907,93.96298c-6.04199,0 -17.73765,-6.04062 -27.13928,-14.48118c-10.06445,-9.03565 -17.6521,-20.66952 -17.6521,-25.79632c0,-5.20533 9.08219,-16.92133 21.35477,-23.58224c10.94583,-5.94083 24.85567,-7.15032 30.4265,-7.29406c0.27821,-0.00717 21.45418,2.0032 30.75108,6.44557c1.04318,0.49848 3.48942,1.20553 2.99254,4.46724c-0.22632,1.48571 -3.13784,15.3419 -8.88395,25.69729c-2.32677,4.19322 -3.90257,3.83911 -6.45792,6.46238c-2.90049,2.97761 -6.66256,8.68975 -6.9769,9.33075c-1.21796,2.48357 -2.97937,6.60735 -3.25396,9.46452c-0.33974,3.53509 -0.18233,6.72587 -1.63792,8.01268c-1.72525,1.5252 -8.8475,1.2734 -13.52288,1.2734z" fill="#bed3e5"/><g><path d="M61.43399,133.90854c0,-12.90033 10.45777,-23.35811 23.35811,-23.35811c12.90033,0 23.35811,10.45779 23.35811,23.35811c0,12.90033 -10.45779,23.35811 -23.35811,23.35811c-12.90033,0 -23.35811,-10.45779 -23.35811,-23.35811z" fill="#000000"/><path d="M71.42339,134.20149c0,-7.37717 5.98036,-13.35754 13.35752,-13.35754c7.37715,0 13.35752,5.98036 13.35752,13.35754c0,7.37717 -5.98036,13.35752 -13.35752,13.35752c-7.37715,0 -13.35752,-5.98034 -13.35752,-13.35752z" fill="#de6000"/><path d="M78.71909,134.16536c0,-3.3405 2.708,-6.04852 6.04852,-6.04852c3.3405,0 6.04855,2.708 6.04855,6.04852c0,3.3405 -2.70803,6.04855 -6.04855,6.04855c-3.3405,0 -6.04852,-2.70803 -6.04852,-6.04855z" fill="#ffa300"/></g></g><path d="M158.48072,106.48553c0,0 5.10618,1.14623 7.72974,1.86205c2.721,0.74239 8.31461,2.51545 8.31461,2.51545l0.05251,3.16777c0,0 -14.95244,-6.12395 -30.34298,-4.83384c-12.30589,1.03157 -19.16421,5.17337 -19.16421,5.17337l0.52846,-9.05009c0,0 9.85062,-3.10438 16.37329,-3.52074c6.52267,-0.41638 15.50086,1.48604 15.50086,1.48604z" data-paper-data="{&quot;index&quot;:null}" fill="#000000" stroke="none" stroke-width="1.5" stroke-linecap="butt"/></g><g fill="#ffffff" stroke="none" stroke-width="0.87153" stroke-linecap="butt"><path d="M280.36415,226.80795c2.84153,0.20298 3.27283,2.23266 1.29391,6.08901c-4.36378,8.0172 -8.34701,21.36226 -11.94968,40.03521c-3.55192,18.62222 -4.08471,34.27601 -1.59836,46.96145c7.86497,-8.6261 15.24789,-20.55041 22.14876,-35.77293c6.95162,-15.22251 11.61984,-28.71979 14.00471,-40.49187l0.30446,-0.30443c0.91334,-4.56675 1.90281,-8.72758 2.96839,-12.48247c0.91334,-2.68932 2.71467,-4.03396 5.40399,-4.03396h5.63233c2.48635,0 3.17136,1.57302 2.05506,4.71899c-4.16083,12.22876 -7.02773,26.86773 -8.60073,43.91694c-1.57299,17.04921 -0.73576,32.42397 2.51171,46.12423c9.43796,-10.7065 17.35365,-25.06643 23.74711,-43.07973c6.39346,-18.01329 9.92001,-33.99692 10.57966,-47.9509c0.10147,-1.42077 0.30443,-2.38487 0.60889,-2.89227c0.30444,-0.55817 1.11631,-0.83724 2.4356,-0.83724h6.24122c1.67447,0 2.74005,0.27907 3.19673,0.83724c0.50741,0.50741 0.7104,1.52226 0.60891,3.04452c-0.55817,11.0617 -2.86692,23.51879 -6.92625,37.37127c-4.0086,13.8525 -9.97077,27.60348 -17.88646,41.253c-7.9157,13.5988 -16.69403,23.72178 -26.33495,30.36893h-1.90281c-1.87745,0 -3.17136,-1.04022 -3.88173,-3.12063c-3.95786,-11.41687 -5.73381,-27.27365 -5.32788,-47.57033c-3.70414,8.98127 -8.77833,18.11479 -15.22251,27.40052c-6.4442,9.28574 -12.48245,17.04922 -18.11479,23.29045h-3.88176c-1.87744,0 -3.17136,-1.04022 -3.88173,-3.12063c-4.46529,-14.00472 -5.5816,-31.66286 -3.34897,-52.97436c2.23263,-21.31151 6.92623,-39.50243 14.08081,-54.5727c0.71039,-1.4715 2.10577,-2.20727 4.18621,-2.20727z"/><path d="M379.31049,230.23302c0.60889,-2.28338 2.15652,-3.42507 4.64287,-3.42507h4.56675c1.21781,0 2.10577,0.48204 2.66394,1.44613c0.60889,0.91334 0.73576,2.05506 0.38056,3.42507l-26.63939,104.57868c-0.60889,2.28339 -2.15652,3.42506 -4.64287,3.42506h-4.56675c-1.21781,0 -2.10577,-0.45668 -2.66395,-1.37005c-0.60889,-0.96409 -0.76112,-2.10577 -0.45668,-3.42506z"/><path d="M408.4616,226.80795h24.50826c8.37237,0 14.68969,1.77595 18.95199,5.32789c4.26231,3.55192 6.44421,8.77832 6.54572,15.67919c0.1016,6.90087 -1.16695,14.00473 -3.80566,21.31154c-2.63857,7.25607 -6.34269,12.6093 -11.11241,16.05973c-4.76974,3.39969 -10.0215,5.55622 -15.7553,6.46957c-5.73381,0.86262 -11.29003,1.34467 -16.66866,1.44615l-11.11245,43.15584c-0.60889,2.28339 -2.15652,3.42507 -4.64287,3.42507h-4.49065c-1.26854,0 -2.18189,-0.45668 -2.74004,-1.37005c-0.60889,-0.96409 -0.73577,-2.10577 -0.38056,-3.42506l24.73659,-97.42407c-2.58783,0 -4.43991,0 -5.55622,0c-1.06558,0 -1.92816,-0.4313 -2.58781,-1.29391c-0.60889,-0.91334 -0.73578,-1.95356 -0.38058,-3.12062l0.91337,-3.1206c0.20299,-0.81186 0.65965,-1.52227 1.37003,-2.13116c0.76112,-0.65964 1.49688,-0.98947 2.20726,-0.98947zM425.13024,237.61593l-11.34077,44.67808l8.67683,-0.45667c8.32162,-0.60889 13.77636,-3.24747 16.36419,-7.91572c2.63857,-4.66825 4.46526,-9.43796 5.4801,-14.30916c1.01484,-4.92195 1.52226,-8.98128 1.52226,-12.17801c0,-6.13975 -3.52656,-9.36185 -10.57965,-9.66629c-1.21781,-0.10147 -4.59215,-0.15221 -10.12297,-0.15221z"/></g><path d="M-768.7439,504.25479v-696.06901h1349.44786v696.06905z" fill="url(#color-2)" stroke="none" stroke-width="NaN" stroke-linecap="butt"/></g></g></svg>