<svg version="1.1" xmlns="http://www.w3.org/2000/svg" xmlns:xlink="http://www.w3.org/1999/xlink" width="38.19044" height="38.19044" viewBox="0,0,38.19044,38.19044"><g transform="translate(-220.9048,-160.9048)"><g data-paper-data="{&quot;isPaintingLayer&quot;:true}" stroke="none" stroke-miterlimit="10" stroke-dasharray="" stroke-dashoffset="0" style="mix-blend-mode: normal"><path d="M259.09524,180.00003c0,10.54601 -8.54924,19.09522 -19.09522,19.09522c-10.54601,0 -19.09522,-8.54922 -19.09522,-19.09522c0,-10.54601 8.54922,-19.09522 19.09522,-19.09522c10.54601,0 19.09522,8.54922 19.09522,19.09522" fill="#727272" fill-rule="evenodd" stroke-width="0.07853" stroke-linecap="round" stroke-linejoin="round"/><g fill-rule="nonzero" stroke-width="1" stroke-linecap="butt" stroke-linejoin="miter"><path d="M220.9048,180.00002c0,-10.546 8.54922,-19.09522 19.09522,-19.09522c10.546,0 19.09522,8.54922 19.09522,19.09522c0,10.546 -8.54922,19.09522 -19.09522,19.09522c-10.546,0 -19.09522,-8.54922 -19.09522,-19.09522z" fill="none"/><g fill="#ffffff"><path d="M246.42875,184.96478c0.3819,0.3819 0.3819,0.95476 0,1.33667c-0.19095,0.19095 -0.44556,0.2546 -0.70016,0.2546c-0.2546,0 -0.50921,-0.06365 -0.70016,-0.2546l-4.96476,-4.96476l-4.96476,4.96476c-0.19095,0.19095 -0.44556,0.2546 -0.70016,0.2546c-0.2546,0 -0.50921,-0.06365 -0.70016,-0.2546c-0.3819,-0.3819 -0.3819,-0.95476 0,-1.33667l4.96476,-4.96476l-4.96476,-4.96476c-0.3819,-0.3819 -0.3819,-0.95476 0,-1.33667c0.3819,-0.3819 0.95476,-0.3819 1.33667,0l4.96476,4.96476l4.96476,-4.96476c0.3819,-0.3819 0.95476,-0.3819 1.33667,0c0.3819,0.3819 0.3819,0.95476 0,1.33667l-4.96476,4.96476z"/></g></g></g></g></svg>