<svg version="1.1" xmlns="http://www.w3.org/2000/svg" xmlns:xlink="http://www.w3.org/1999/xlink" width="14.16287" height="23.65909" viewBox="0,0,14.16287,23.65909"><g transform="translate(-239.89762,-170.89806)"><g data-paper-data="{&quot;isPaintingLayer&quot;:true}" fill-rule="nonzero" stroke="none" stroke-linecap="butt" stroke-linejoin="miter" stroke-miterlimit="10" stroke-dasharray="" stroke-dashoffset="0" style="mix-blend-mode: normal"><path d="M250.529,176.19916h3.44997v13.00984h-3.44997v-2.10685c-1.13243,1.55381 -2.65991,2.34387 -4.58241,2.34387c-1.71182,0 -3.13395,-0.63207 -4.24005,-1.89617c-1.13243,-1.26412 -1.68548,-2.87059 -1.68548,-4.84577c0,-1.97518 0.55305,-3.58166 1.68549,-4.87211c1.1061,-1.26412 2.52823,-1.89617 4.24005,-1.89617c1.92251,0 3.44998,0.79008 4.58241,2.34388zM247.05268,186.47009c1.02709,0 1.84349,-0.3687 2.50189,-1.07976c0.6584,-0.71106 0.97442,-1.60648 0.97442,-2.68624c0,-2.2122 -1.44846,-3.79235 -3.47631,-3.79235c-2.02785,0 -3.50265,1.58015 -3.50265,3.79235c0,1.07977 0.34236,1.97518 1.00075,2.68624c0.6584,0.71106 1.47481,1.07976 2.50189,1.07976z" fill="#000000" stroke-width="0.35808"/><path d="M239.89762,194.55715v-23.65909h14.16287v23.65909z" fill-opacity="0.00403" fill="#808080" stroke-width="0"/></g></g></svg>