<svg version="1.1" xmlns="http://www.w3.org/2000/svg" xmlns:xlink="http://www.w3.org/1999/xlink" width="14.38665" height="23.81415" viewBox="0,0,14.38665,23.81415"><g transform="translate(-239.89762,-170.743)"><g data-paper-data="{&quot;isPaintingLayer&quot;:true}" fill-rule="nonzero" stroke="none" stroke-linecap="butt" stroke-linejoin="miter" stroke-miterlimit="10" stroke-dasharray="" stroke-dashoffset="0" style="mix-blend-mode: normal"><path d="M252.18213,172.58651c1.34312,1.23777 2.00152,2.79157 2.00152,4.66142c0,1.34312 -0.39504,2.60724 -1.21144,3.79234l-5.58317,8.21673h-4.08204l4.55608,-6.24155c-0.60572,0.18442 -1.23778,0.28968 -1.89617,0.28968c-1.65915,0 -3.08128,-0.57939 -4.21371,-1.71181c-1.13243,-1.13245 -1.71182,-2.55457 -1.71182,-4.26639c0,-1.92251 0.65839,-3.50265 2.00151,-4.74042c1.34312,-1.23778 3.02861,-1.84351 5.08279,-1.84351c2.02785,0 3.71334,0.60572 5.05645,1.84351zM247.12568,180.80325c1.02709,0 1.89616,-0.34237 2.55456,-1.00077c0.6584,-0.65839 0.97442,-1.52747 0.97442,-2.55455c0,-2.08053 -1.50114,-3.55532 -3.52899,-3.55532c-2.08052,0 -3.55532,1.47479 -3.55532,3.55532c0,1.02708 0.34236,1.89617 1.00075,2.55455c0.6584,0.6584 1.52748,1.00077 2.55456,1.00077z" fill="#000000" stroke-width="0.35808"/><path d="M239.89762,194.55715v-23.65909h14.38665v23.65909z" fill-opacity="0.00403" fill="#808080" stroke-width="0"/></g></g></svg>