<svg version="1.1" xmlns="http://www.w3.org/2000/svg" xmlns:xlink="http://www.w3.org/1999/xlink" width="34.17311" height="34.17311" viewBox="0,0,34.17311,34.17311"><g transform="translate(-222.91346,-162.91346)"><g data-paper-data="{&quot;isPaintingLayer&quot;:true}" stroke="none" stroke-miterlimit="10" stroke-dasharray="" stroke-dashoffset="0" style="mix-blend-mode: normal"><path d="M229.98313,162.91347h20.03379c3.9166,0 7.06966,3.15307 7.06966,7.06966v20.03379c0,3.91659 -3.15306,7.06966 -7.06966,7.06966h-20.03379c-3.91659,0 -7.06966,-3.15307 -7.06966,-7.06966v-20.03379c0,-3.91659 3.15307,-7.06966 7.06966,-7.06966z" fill-opacity="0.59677" fill="#5e807a" fill-rule="evenodd" stroke-width="4.43922" stroke-linecap="round" stroke-linejoin="round"/><path d="M228.60837,183.37598c-1.3869,-0.89394 -2.82752,-5.68819 -2.94831,-7.37078c-0.11244,-1.56639 2.02277,-6.09008 3.33288,-6.46706c1.30149,-0.37449 8.07704,-1.08957 9.88326,0.14742c1.95058,1.33584 1.05623,3.56109 3.09063,4.66444c2.03441,1.10335 6.43946,0.1506 8.11177,1.19171c1.42431,0.88671 4.53002,7.07467 4.24765,8.90117c-0.2822,1.82549 -2.11859,5.39012 -3.5926,6.08096c-1.4257,0.66819 -7.69562,0.67855 -9.33071,-0.16335c-1.74641,-0.89922 -1.55299,-5.9799 -3.21255,-6.68967c-1.66332,-0.71138 -7.85924,0.81561 -9.58201,-0.29483z" fill="#000000" fill-rule="nonzero" stroke-width="0" stroke-linecap="butt" stroke-linejoin="miter"/><path d="M229.46842,176.50142c0,-2.65485 2.15218,-4.80703 4.80703,-4.80703c2.65485,0 4.80703,2.15218 4.80703,4.80703c0,2.65485 -2.15218,4.80703 -4.80703,4.80703c-2.65485,0 -4.80703,-2.15218 -4.80703,-4.80703z" fill="#5e807a" fill-rule="nonzero" stroke-width="0" stroke-linecap="butt" stroke-linejoin="miter"/><path d="M231.48629,177.47088c-1.02818,-2.72251 1.71652,-3.79982 1.71652,-3.79982l2.08329,5.51635c0,0 -2.77164,1.00598 -3.79982,-1.71653z" fill="#000000" fill-rule="nonzero" stroke-width="0" stroke-linecap="butt" stroke-linejoin="miter"/><path d="M241.13347,182.91078c0,-2.65485 2.15218,-4.80702 4.80703,-4.80702c2.65485,0 4.80703,2.15217 4.80703,4.80702c0,2.65485 -2.15218,4.80703 -4.80703,4.80703c-2.65485,0 -4.80703,-2.15218 -4.80703,-4.80703z" fill="#5e807a" fill-rule="nonzero" stroke-width="0" stroke-linecap="butt" stroke-linejoin="miter"/><path d="M243.15135,183.88026c-1.02818,-2.72251 1.71652,-3.79982 1.71652,-3.79982l2.0833,5.51634c0,0 -2.77165,1.00598 -3.79982,-1.71652z" fill="#000000" fill-rule="nonzero" stroke-width="0" stroke-linecap="butt" stroke-linejoin="miter"/></g></g></svg>