<svg version="1.1" xmlns="http://www.w3.org/2000/svg" xmlns:xlink="http://www.w3.org/1999/xlink" width="1085.5" height="533.86645" viewBox="0,0,1085.5,533.86645"><defs><radialGradient cx="240" cy="180" r="247" gradientUnits="userSpaceOnUse" id="color-1"><stop offset="0" stop-color="#ff6f00"/><stop offset="1" stop-color="#060f10"/></radialGradient><linearGradient x1="-46.25" y1="36" x2="-46.25" y2="275.5" gradientUnits="userSpaceOnUse" id="color-2"><stop offset="0" stop-color="#fac390"/><stop offset="1" stop-color="#fa9536"/></linearGradient><linearGradient x1="35.5" y1="10" x2="35.5" y2="249.5" gradientUnits="userSpaceOnUse" id="color-3"><stop offset="0" stop-color="#fac390"/><stop offset="1" stop-color="#fa9536"/></linearGradient><linearGradient x1="-112.25" y1="80" x2="-112.25" y2="319.5" gradientUnits="userSpaceOnUse" id="color-4"><stop offset="0" stop-color="#fac390"/><stop offset="1" stop-color="#fa9536"/></linearGradient><linearGradient x1="103.75" y1="-1.5" x2="103.75" y2="238" gradientUnits="userSpaceOnUse" id="color-5"><stop offset="0" stop-color="#fac390"/><stop offset="1" stop-color="#fa9536"/></linearGradient><linearGradient x1="526.00441" y1="-11.5" x2="526.00441" y2="228" gradientUnits="userSpaceOnUse" id="color-6"><stop offset="0" stop-color="#fac390"/><stop offset="1" stop-color="#fa9536"/></linearGradient><linearGradient x1="437.37872" y1="-45.5" x2="437.37872" y2="194" gradientUnits="userSpaceOnUse" id="color-7"><stop offset="0" stop-color="#fac390"/><stop offset="1" stop-color="#fa9536"/></linearGradient><linearGradient x1="593.13341" y1="43.5" x2="593.13341" y2="283" gradientUnits="userSpaceOnUse" id="color-8"><stop offset="0" stop-color="#fac390"/><stop offset="1" stop-color="#fa9536"/></linearGradient><linearGradient x1="226.5" y1="-104.875" x2="226.5" y2="55.125" gradientUnits="userSpaceOnUse" id="color-9"><stop offset="0" stop-color="#fad4b1"/><stop offset="1" stop-color="#fa9536"/></linearGradient><linearGradient x1="371.89305" y1="-69" x2="371.89305" y2="170.5" gradientUnits="userSpaceOnUse" id="color-10"><stop offset="0" stop-color="#fac390"/><stop offset="1" stop-color="#fa9536"/></linearGradient><linearGradient x1="237.83645" y1="9.39874" x2="237.83645" y2="362.60127" gradientUnits="userSpaceOnUse" id="color-11"><stop offset="0" stop-color="#fa7900"/><stop offset="1" stop-color="#d97c04"/></linearGradient><linearGradient x1="239.99999" y1="-2.02736" x2="239.99999" y2="362.02737" gradientUnits="userSpaceOnUse" id="color-12"><stop offset="0" stop-color="#000000" stop-opacity="0"/><stop offset="1" stop-color="#000000"/></linearGradient></defs><g transform="translate(298,112.625)"><g data-paper-data="{&quot;isPaintingLayer&quot;:true}" fill-rule="nonzero" stroke-miterlimit="10" stroke-dasharray="" stroke-dashoffset="0" style="mix-blend-mode: normal"><path d="M-7,373v-386h494v386z" fill="url(#color-1)" stroke="none" stroke-width="0" stroke-linecap="butt" stroke-linejoin="miter"/><g fill="none" stroke-width="8" stroke-linecap="round" stroke-linejoin="miter"><path d="M99,275.5l-290.5,-239.5" stroke="url(#color-2)"/><path d="M135.5,249.5l-200,-239.5" stroke="url(#color-3)"/><path d="M-294,80l363.5,239.5" stroke="url(#color-4)"/><path d="M159.5,238l-111.5,-239.5" stroke="url(#color-5)"/></g><path d="M678.14057,-11.5l-304.27233,239.5" fill="none" stroke="url(#color-6)" stroke-width="8" stroke-linecap="round" stroke-linejoin="miter"/><path d="M542.11963,-45.49999c0,0 -103.40184,118.21905 -154.79263,176.97401c-8.13578,9.30162 -14.96803,17.1129 -19.8801,22.72886c-16.0439,18.34294 -34.80908,39.79712 -34.80908,39.79712" fill="none" stroke="url(#color-7)" stroke-width="8" stroke-linecap="round" stroke-linejoin="miter"/><path d="M783.5,43.5l-380.73319,239.5" fill="none" stroke="url(#color-8)" stroke-width="8" stroke-linecap="round" stroke-linejoin="miter"/><path d="M226.5,-104.875v160" fill="none" stroke="url(#color-9)" stroke-width="15.5" stroke-linecap="round" stroke-linejoin="miter"/><path d="M430.28611,-69l-116.78611,239.5" fill="none" stroke="url(#color-10)" stroke-width="8" stroke-linecap="round" stroke-linejoin="miter"/><path d="M-10,362.60127l236.85636,-353.20253l261.14365,353.15823z" fill="url(#color-11)" stroke="#000000" stroke-width="0" stroke-linecap="round" stroke-linejoin="miter"/><path d="M179.75,79.87093l99,-0.5" fill="none" stroke="#ffffff" stroke-width="1" stroke-linecap="round" stroke-linejoin="miter"/><path d="M157.75,111.87093h144" fill="none" stroke="#ffffff" stroke-width="1" stroke-linecap="round" stroke-linejoin="miter"/><path d="M134.75,145.87093l190.5,-1.5" fill="none" stroke="#ffffff" stroke-width="1" stroke-linecap="round" stroke-linejoin="miter"/><path d="M352.75,176.87093l-241,3" fill="none" stroke="#ffffff" stroke-width="1" stroke-linecap="round" stroke-linejoin="miter"/><path d="M375.75,210.37093l-286,3" fill="none" stroke="#ffffff" stroke-width="1" stroke-linecap="round" stroke-linejoin="miter"/><path d="M397.25,240.37093l-329,4" fill="none" stroke="#ffffff" stroke-width="1" stroke-linecap="round" stroke-linejoin="miter"/><path d="M418.75,268l-367.5,6" fill="none" stroke="#ffffff" stroke-width="1" stroke-linecap="round" stroke-linejoin="miter"/><path d="M27.75,305.5l417.5,-1.5" fill="none" stroke="#ffffff" stroke-width="1" stroke-linecap="round" stroke-linejoin="miter"/><path d="M11.75,330.5l452.5,-1" fill="none" stroke="#ffffff" stroke-width="1" stroke-linecap="round" stroke-linejoin="miter"/><path d="M206.75,41.5h43" fill="none" stroke="#ffffff" stroke-width="1" stroke-linecap="round" stroke-linejoin="miter"/><g stroke-linejoin="miter"><g stroke-linecap="butt"><g><path d="M167.71063,366.42289l-0.16766,-169.15607c0,0 0.14403,-3.34138 -4.36969,-3.31939c-4.59246,0.02238 -4.18693,3.35629 -4.18693,3.35629l0.23691,169.21425l-71.32645,0.21293l-0.38187,-169.96913c0,0 0.5468,-3.63858 -4.43643,-3.54406c-4.19583,0.07959 -3.92353,3.59996 -3.92353,3.59996l0.44957,169.9302l-12.8508,0.06397l0.26934,-171.92752c0,0 26.50093,6.89379 27.17608,2.52638c1.05454,-6.82165 -22.70765,-27.08808 -15.46423,-36.2269c7.99028,-10.0811 21.43073,-18.47917 44.03821,-18.37069c42.38471,0.20339 42.64755,35.22347 45.50995,49.40269c0.86076,4.26386 11.80474,2.70387 11.80474,2.70387v171.59834z" fill="#ffffff" stroke="#000000" stroke-width="1.5"/><path d="M121.88432,301.21603c0,-1.18827 0.96329,-2.15155 2.15155,-2.15155c1.18827,0 2.15155,0.96329 2.15155,2.15155c0,1.18827 -0.96329,2.15155 -2.15155,2.15155c-1.18827,0 -2.15155,-0.96329 -2.15155,-2.15155z" fill="#000000" stroke="none" stroke-width="1.5"/><g stroke="none" stroke-width="0"><path d="M183.94623,271.86934c-0.00659,0.15884 0.04673,42.91302 -0.76665,43.34518c-0.58203,0.30924 -12.68303,12.15491 -13.16078,11.78692c-2.72733,-2.10053 1.26329,39.53898 -1.55672,34.82326c-0.41869,-0.70014 -13.04914,1.76348 -13.58074,-0.10275c-1.44277,-5.06516 1.03224,-53.8242 -0.29005,-60.47705c-7.51639,-37.81704 -16.97864,-38.11086 -16.97864,-38.11086v-41.39862c0,0 33.3613,-9.66975 41.93048,-9.66975c3.40504,0 10.40826,9.66975 10.40826,9.66975v41.39862c0,0 -5.98327,8.20824 -6.00515,8.73525z" data-paper-data="{&quot;index&quot;:null}" fill="#000000"/><path d="M57.79908,263.62067v-41.39862c0,0 7.00322,-9.66975 10.40826,-9.66975c8.56917,0 41.93048,9.66975 41.93048,9.66975v41.39862c0,0 -9.46223,0.29383 -16.97864,38.11086c-1.32229,6.65282 1.15271,55.41191 -0.29005,60.47705c-0.53159,1.86623 -13.16203,-0.59739 -13.58074,0.10275c-2.82001,4.71569 1.17059,-36.92382 -1.55672,-34.82326c-0.47775,0.36799 -12.57877,-11.47768 -13.16078,-11.78692c-0.81338,-0.43218 -0.76006,-43.18634 -0.76665,-43.34518c-0.02189,-0.52702 -6.00515,-8.73525 -6.00515,-8.73525z" fill="#000000"/><path d="M142.66808,225.96597v-25.08091c0,0 17.16156,-1.55453 25.91773,-5.01762c4.2504,-1.68105 23.74458,-14.62406 23.74458,-14.62406l-14.27421,42.90953z" data-paper-data="{&quot;index&quot;:null}" fill="#000000"/><path d="M69.99161,224.63946l-14.27421,-42.9095c0,0 19.49419,12.94301 23.74458,14.62406c8.75617,3.4631 25.91773,5.01762 25.91773,5.01762v25.08091z" fill="#000000"/><path d="M123.51986,222.23156c0,0 -2.92506,31.89417 -6.08537,57.95448c-1.15904,9.55762 -0.72543,39.55553 -2.25241,36.79441c-9.25821,-16.741 -23.23074,-40.707 -29.62649,-49.50672c-1.4711,-2.02403 10.22826,-6.34753 8.98295,-8.06089c-10.68614,-14.70272 -33.18032,-45.65183 -33.18032,-45.65183l61.86424,-62.86292l61.86424,62.86292c0,0 -21.92956,31.97462 -32.45378,46.59448c-1.67515,2.32707 10.36733,4.36716 8.30822,7.15658c-6.33023,8.57544 -20.67008,32.99347 -29.27772,49.81199c-1.52253,2.97493 -0.91486,-33.32599 -2.2405,-44.32444c-3.24806,-26.94805 -5.90308,-50.76806 -5.90308,-50.76806z" fill="#304d47"/><path d="M123.96186,258.0588l-71.46281,-93.38698l72.07604,-65.13902l70.23636,63.89279z" fill="#0a1d1e"/><path d="M116.68017,299.58003c0,0 -0.09591,-26.27278 -5.49765,-36.54353c-2.08997,-3.97385 -4.12246,-12.10143 -5.49627,-18.24944c-2.56941,-11.49845 -3.57765,-21.35632 -3.57765,-21.35632c0,0 5.60796,-34.14629 10.70565,-34.14629c4.29124,0 15.67867,-6.85879 23.60792,1.68568c1.85016,1.99372 5.35822,9.15993 6.42673,14.81835c1.91041,10.11659 1.48752,22.17496 1.48752,22.17496c0,0 -0.70838,10.17027 -5.08458,24.24475c-2.72506,8.76414 -4.96058,17.46957 -6.00543,21.66421c-3.23517,12.98785 -2.58943,22.38367 -2.58943,22.38367z" fill="#dd6000"/></g></g><path d="M136.91063,214.28125c0,15.10062 -6.03453,27.34209 -13.4785,27.34209c-7.44397,0 -13.4785,-12.24147 -13.4785,-27.34209c0,-15.10062 6.03453,-27.3421 13.4785,-27.3421c7.44397,0 13.4785,12.24148 13.4785,27.3421z" fill="#ffffff" stroke="none" stroke-width="0"/></g><path d="M66.893,113.30795c0,0 -3.33282,0.95812 -4.62527,0.99179c-1.39821,0.03643 -3.47169,-0.7808 -3.47169,-0.7808c0,0 9.0661,-7.4688 9.0661,-8.784c0,-6.88151 -4.86326,-64.51376 60.13505,-65.08201c59.71764,-0.52205 55.0416,58.80551 55.0416,65.60384c0,3.34233 9.16579,25.13654 9.16579,25.13654l-10.52233,-7.58261c0,0 3.72514,14.03334 1.24187,29.24492c-2.32589,14.24749 -11.36574,25.88543 -11.36574,25.88543l-1.71984,-3.3589c0,0 -1.52249,3.13437 -3.2158,4.83968c-1.69331,1.70531 -5.28645,3.70277 -5.28645,3.70277l0.02997,-4.8922c0,0 -12.34793,14.87141 -36.9204,14.48281c-24.27614,-0.38391 -38.24648,-13.78317 -38.24648,-13.78317l-0.27319,2.7758c0,0 -6.72919,-6.95067 -10.00435,-14.79024c-4.25141,-10.17632 -3.92094,-16.37554 -3.92094,-16.37554c0,0 -4.06239,2.40181 -8.41111,3.15775c-5.07045,0.8814 -9.74069,0.51883 -9.74069,0.51883l10.85044,-10.82699c0,0 -3.80205,1.59525 -5.70036,1.92565c-1.75699,0.30583 -5.29839,-0.01131 -5.29839,-0.01131c0,0 8.47924,-10.99277 10.76772,-16.54357c2.09113,-5.07206 2.42454,-15.45458 2.42454,-15.45458z" fill="#000000" stroke="none" stroke-width="1.5" stroke-linecap="butt"/><path d="M84.68282,128.99646c-0.83735,-10.58228 0.48607,-25.54174 0.48607,-25.54174c0,0 7.22744,-0.71092 22.46801,-5.21329c11.70877,-3.45902 23.62837,-10.51032 23.62837,-10.51032l-6.99459,10.16246c0,0 11.64034,-2.46118 21.78096,-6.3738c10.28948,-3.97006 17.4867,-9.88752 20.09285,-7.31497c4.62331,4.52384 1.19143,39.53109 -0.23642,45.5618c-0.32467,1.37121 -2.55958,6.66845 -3.45489,11.05161c-0.89531,4.38315 -2.0209,21.2916 -3.61971,28.50501c-1.81874,8.20571 -7.08508,12.11234 -15.58427,20.43533c-8.49919,8.32301 -15.51259,11.61109 -18.67308,11.6421c-4.0147,0.03939 -13.17465,-5.51678 -20.42916,-13.18116c-7.72488,-8.16134 -12.87722,-12.30008 -14.09694,-21.96736c-1.09848,-8.7064 -1.12673,-14.377 -1.62895,-22.12492c-0.36706,-5.66276 -3.28092,-9.35157 -3.73822,-15.13074z" fill="#ffffff" stroke="#000000" stroke-width="1.5" stroke-linecap="butt"/><path d="M95.28838,115.3378l0.62958,-2.26671c0,0 4.96297,-2.55296 11.37672,-3.15759c6.39298,-0.60268 11.0025,0.23112 11.0025,0.23112l-0.18415,6.42554c0,0 -4.73343,-1.00098 -10.65376,-0.6639c-4.5038,-0.12808 -25.07755,4.5462 -25.07755,4.5462l-0.03667,-1.94594z" fill="#000000" stroke="none" stroke-width="1.5" stroke-linecap="butt"/><path d="M155.40783,107.70832c0,0 3.78674,0.85005 5.73237,1.38089c2.0179,0.55056 6.1661,1.86546 6.1661,1.86546l0.03894,2.34922c0,0 -11.08871,-4.54151 -22.50231,-3.58477c-9.12603,0.76501 -14.21215,3.83656 -14.21215,3.83656l0.39191,-6.71154c0,0 7.30521,-2.30221 12.14241,-2.61098c4.8372,-0.30879 11.49542,1.10204 11.49542,1.10204z" data-paper-data="{&quot;index&quot;:null}" fill="#000000" stroke="none" stroke-width="1.5" stroke-linecap="butt"/><path d="M125.73672,174.74266c0.36134,0.03428 0.89155,-2.11164 3.43715,-3.05375c2.46017,-0.91049 5.9649,-0.62218 8.11445,-0.37448c2.37031,0.79825 14.69695,6.61224 14.69695,6.61224c0,0 -10.78068,1.0537 -15.48851,1.64178c-3.94521,0.49281 -11.16999,1.6517 -11.16999,1.6517l-29.45799,-6.46177c0,0 2.71087,-0.60772 6.72961,-1.96966c4.64238,-1.57329 5.92498,-2.25599 7.36215,-2.44202c3.41508,-0.44205 7.45409,-0.42959 11.30266,0.81341c4.1237,1.33186 4.11418,3.54844 4.47349,3.58253z" fill="#ffffff" stroke="#000000" stroke-width="1.25" stroke-linecap="butt"/><path d="M91.33855,129.55266c0,-7.09873 6.32064,-12.8534 14.11758,-12.8534c7.79692,0 14.11758,5.75465 14.11758,12.8534c0,7.09873 -6.32064,12.8534 -14.11758,12.8534c-7.79692,0 -14.11758,-5.75465 -14.11758,-12.8534z" fill="#ffffff" stroke="#000000" stroke-width="1.5" stroke-linecap="butt"/><path d="M130.62363,166.69918c-0.18858,3.25735 -2.2612,5.64625 -5.8474,5.64625c-3.58621,0 -5.4944,-3.95856 -5.4944,-7.22194c0,-3.26337 1.9082,-4.59579 5.4944,-4.59579c3.58621,0 6.09714,1.85766 5.8474,6.17148z" fill="#ffffff" stroke="#000000" stroke-width="1" stroke-linecap="butt"/><path d="M97.77879,129.4712c0,-4.08949 3.31518,-7.40468 7.40468,-7.40468c4.08949,0 7.40468,3.31518 7.40468,7.40468c0,4.08949 -3.31517,7.40468 -7.40468,7.40468c-4.08949,0 -7.40468,-3.31518 -7.40468,-7.40468z" fill="#000000" stroke="none" stroke-width="1.5" stroke-linecap="butt"/><path d="M130.10564,129.26283l-1.66362,51.38945l-5.14016,0.01254c0,0 -1.49186,-36.80144 -2.54045,-45.1976c-0.43297,-3.46686 -0.7878,-6.50447 -0.7878,-6.50447" fill="#ffffff" stroke="#000000" stroke-width="1.5" stroke-linecap="round"/><path d="M130.69091,129.55266c0,-7.09873 6.25505,-12.8534 13.97109,-12.8534c7.71602,0 13.97109,5.75465 13.97109,12.8534c0,7.09873 -6.25505,12.8534 -13.97109,12.8534c-7.71602,0 -13.97109,-5.75465 -13.97109,-12.8534z" fill="#ffffff" stroke="#000000" stroke-width="1.5" stroke-linecap="butt"/><path d="M137.16368,129.4712c0,-4.08949 3.31518,-7.40468 7.40468,-7.40468c4.08949,0 7.40468,3.31518 7.40468,7.40468c0,4.08949 -3.31517,7.40468 -7.40468,7.40468c-4.08949,0 -7.40468,-3.31518 -7.40468,-7.40468z" fill="#000000" stroke="none" stroke-width="1.5" stroke-linecap="butt"/><path d="M91.01183,128.99702c0,0 -0.29878,-13.48889 14.99247,-13.6561c13.33232,-0.14576 14.16371,13.6561 14.16371,13.6561z" fill="#ffffff" stroke="#000000" stroke-width="1.25" stroke-linecap="butt"/><path d="M129.88998,128.44073c0,0 0.01018,-14.21189 15.99973,-13.69679c15.02035,0.48386 14.7773,13.69679 14.7773,13.69679z" fill="#ffffff" stroke="#000000" stroke-width="1.25" stroke-linecap="butt"/><path d="M123.73597,194.54302c-21.9047,-0.49227 -29.67587,-19.53713 -29.67587,-19.53713c0,0 10.26579,1.96069 15.21136,3.12493c5.10943,1.20281 9.47702,3.41771 15.84858,3.68704c6.37156,0.26931 9.84424,-1.87114 13.6995,-2.27531c2.98889,-0.31335 13.56543,-0.93772 13.56543,-0.93772c0,0 -4.79216,16.47434 -28.64901,15.93819z" fill="#ffffff" stroke="#000000" stroke-width="1.25" stroke-linecap="butt"/><path d="M86.34068,142.74204c-0.73246,2.17285 -6.12551,-4.57957 -7.93376,-12.14691c-1.80824,-7.56736 -1.62011,-13.18935 1.8702,-13.22859c3.30031,-0.03712 3.42228,5.41235 4.37709,10.85444c1.02304,5.83105 2.56115,11.92631 1.68647,14.52106z" data-paper-data="{&quot;index&quot;:null}" fill="#ffffff" stroke="#000000" stroke-width="1" stroke-linecap="butt"/><path d="M165.65428,127.82522c0.95479,-5.4421 1.07677,-10.89156 4.37709,-10.85444c3.49031,0.03926 3.67845,5.66125 1.8702,13.22861c-1.80825,7.56736 -7.2013,14.31977 -7.93376,12.14691c-0.87467,-2.59475 0.66343,-8.69001 1.68647,-14.52106z" data-paper-data="{&quot;index&quot;:null}" fill="#ffffff" stroke="#000000" stroke-width="1" stroke-linecap="butt"/><path d="M86.92237,137.68775c0,0 -4.98122,-3.18965 -6.06419,-11.12512c-0.60412,-4.42666 3.50058,-3.34097 3.50058,-3.34097" fill="none" stroke="#000000" stroke-width="0.5" stroke-linecap="round"/><path d="M166.45257,122.12299c0,0 3.45022,-0.59739 2.94243,3.82927c-0.9103,7.93546 -5.09727,10.6368 -5.09727,10.6368" data-paper-data="{&quot;index&quot;:null}" fill="none" stroke="#000000" stroke-width="0.5" stroke-linecap="round"/><g stroke="#ff5252" stroke-width="0" stroke-linecap="round"><path d="M89.43639,116.59531c6.81214,2.02507 22.03203,2.15058 22.03203,2.15058c0,0 -7.78922,-11.00468 -11.07145,-17.55263c-2.58841,-5.16387 -6.47397,-15.04313 -8.66531,-20.7554c-1.00789,-2.62735 0.08132,-2.37775 1.70152,-0.4161c6.21226,7.5216 21.67439,25.51263 33.74694,31.41628c20.41422,9.98282 50.3426,8.10818 50.3426,8.10818l0.26742,8.80299c0,0 -14.87532,10.28849 -22.74067,13.22512c-3.14451,1.17405 -11.84246,5.18801 -20.56492,4.96115c-1.96585,-0.05115 -5.75566,-7.53155 -7.4715,-7.1485c-2.61868,0.58463 -1.12779,5.60204 -2.61695,8.46785c-1.09974,2.11642 -5.17236,2.36844 -5.17236,2.36844c0,0 -19.59433,-3.78604 -28.39923,-9.02336c-10.9997,-6.54287 -21.07461,-25.6551 -21.07461,-25.6551v-9.06977c0,0 13.04236,8.14519 19.68647,10.12024z" fill="#934211"/><path d="M100.85532,118.63688l9.4065,29.28599l-22.07643,-8.25468l-6.71892,-26.21447z" fill="#ff9600"/><path d="M157.8702,119.10611l7.48679,17.49055c0,0 -6.45492,3.30006 -10.2316,4.84594c-3.90066,1.59661 -11.88754,2.51288 -11.88754,2.51288l-13.58715,-31.22699z" fill="#ff9600"/><path d="M91.49597,114.97835c6.74319,1.80137 20.42953,3.76511 20.42953,3.76511c0,0 -10.55898,0.83252 -22.14057,-2.12993c-7.93419,-1.94314 -19.83668,-9.90014 -19.83668,-9.90014c0,0 14.41942,6.36069 21.54769,8.26494z" fill="#c05406"/><path d="M126.31073,111.1531c-0.45932,-0.2795 -2.60377,-1.41946 -3.25163,-1.75299c-13.83192,-7.12166 -31.1623,-30.84213 -31.1623,-30.84213c0,0 20.95053,20.62014 36.12126,29.61988c13.27746,7.87662 49.66771,11.50419 49.66771,11.50419c0,0 -34.96021,1.45976 -51.37494,-8.52895z" fill="#c05406"/></g></g><path d="M273.96772,421.24145v-385.26584h136.0661v385.26584z" fill-opacity="0.01" fill="#000000" stroke="none" stroke-width="0" stroke-linecap="butt" stroke-linejoin="miter"/><path d="M387.71745,418.54806l-0.17413,-175.68236c0,0 0.14959,-3.47029 -4.53828,-3.44745c-4.76964,0.02325 -4.34846,3.48578 -4.34846,3.48578l0.24605,175.74277l-74.07833,0.22114l-0.39661,-176.52678c0,0 0.56789,-3.77896 -4.6076,-3.6808c-4.35771,0.08266 -4.07491,3.73885 -4.07491,3.73885l0.46691,176.48634l-13.34661,0.06644l0.27973,-178.56073c0,0 -0.17553,-19.43267 12.1637,-35.00073c8.29856,-10.47004 22.25755,-19.19212 45.73726,-19.07946c57.25729,0.27476 59.52597,54.11691 59.52597,54.11691v178.21885z" fill="#ffffff" stroke="#000000" stroke-width="1.5" stroke-linecap="butt" stroke-linejoin="miter"/><path d="M340.12311,350.82543c0,-1.23411 1.00045,-2.23456 2.23456,-2.23456c1.23411,0 2.23456,1.00045 2.23456,2.23456c0,1.23411 -1.00045,2.23456 -2.23456,2.23456c-1.23411,0 -2.23456,-1.00045 -2.23456,-2.23456z" fill="#000000" stroke="none" stroke-width="1.5" stroke-linecap="butt" stroke-linejoin="miter"/><path d="M305.15292,418.50603v-179.63096c0,0 1.14108,-14.66423 1.14108,-22.06083c0,-6.77827 -1.14108,-20.62597 -1.14108,-20.62597c0,0 4.02837,-3.54581 7.01592,-5.64817c2.98755,-2.10235 7.79391,-4.22506 7.79391,-4.22506c0,0 -0.90658,60.44239 21.9405,60.33638c23.25947,-0.10793 20.84347,-60.33638 20.84347,-60.33638c0,0 5.89634,2.28994 9.29164,4.44031c3.3953,2.15035 7.16373,5.43291 7.16373,5.43291c0,0 -1.14108,14.20248 -1.14108,21.38668c0,7.29655 1.14108,22.06083 1.14108,22.06083v178.87024z" fill="#ffffff" stroke="#000000" stroke-width="1.5" stroke-linecap="butt" stroke-linejoin="miter"/><g stroke-linecap="butt" stroke-linejoin="miter"><path d="M382.65169,199.06099c5.80793,5.54482 -5.98033,24.45309 -1.44001,36.3718c6.28318,16.49387 -15.44083,25.12024 -15.16209,36.34632c0.40695,16.39033 13.218,14.48586 13.218,14.48586c0,0 -8.08482,79.26854 -15.19797,79.06654c-10.536,-0.29919 -32.55223,-2.6717 -41.8178,-0.8837c-6.07303,1.17193 -19.77673,-77.20213 -19.77673,-77.20213c0,0 6.85042,0.3951 1.9119,-3.05565c-5.22092,-3.64809 2.54682,-38.25785 2.54682,-40.93698c0,-12.23511 -4.9503,-50.00182 4.99909,-50.00182c1.77879,0 4.35927,5.38554 8.01951,7.92874c5.2874,3.67378 13.39306,40.65416 21.01224,39.7228c7.55678,-0.92374 15.55525,-37.4757 22.02899,-41.11487c2.85052,-1.60241 5.53302,-6.30961 8.3187,-6.70096c4.79199,-0.67319 9.31071,4.03731 11.33936,5.97406z" fill="#000000" stroke="#000000" stroke-width="2"/><path d="M305.16287,374.3548v-47.54995l95.19785,-43.44169l0.20433,26.22998l-20.25159,12.0075l-1.87779,52.75419z" fill="#2c4c45" stroke="none" stroke-width="0"/><path d="M313.1442,327.03387l-13.90027,-84.57157h101.28808v41.36627c0,0 -58.45206,31.60024 -73.33702,38.82962c-6.51534,3.16439 -14.05077,4.37571 -14.05077,4.37571z" fill="#142d2b" stroke="none" stroke-width="0"/><path d="M311.4275,288.58897c0,-4.8733 5.71674,-8.82389 12.76867,-8.82389c7.05194,0 10.69246,12.25542 10.69246,17.12872c0,2.56152 0.29224,13.59824 -4.78814,21.52314c-4.58506,7.15224 -15.22394,10.13902 -18.56921,10.13902c-7.05194,0 -0.10381,-35.0937 -0.10381,-39.96699z" fill="#031718" stroke="none" stroke-width="0"/><path d="M281.29131,240.66749c0,0 -6.18892,-15.32417 -6.83965,-20.57641c-0.19456,-1.57044 3.14685,-9.22972 3.14685,-9.22972c0,0 18.48537,-12.30313 36.04529,-19.25124c5.49709,-2.17509 10.09942,-5.83556 15.04903,-5.84583c1.65771,-0.00344 23.10411,-1.81203 26.37195,-1.15431c5.38695,1.08421 9.83076,5.32806 14.89412,7.47969c18.82124,7.99798 34.77728,18.50794 34.77728,18.50794c0,0 2.90147,4.44095 2.90147,7.38559c0,4.80861 -4.48412,18.99152 -4.48412,18.99152c0,0 -10.21529,30.98693 -14.74721,31.12426c-1.7092,0.05179 -55.37782,31.42161 -57.5918,30.87309c-2.72865,-0.67604 0.85926,10.38201 -4.446,19.32605c-3.06504,5.16727 -15.77616,10.85906 -17.15405,10.00002c-0.70272,-0.4381 -27.25225,-14.57439 -27.71966,-15.62283c-0.55555,-1.24607 -0.20352,-72.00778 -0.20352,-72.00778z" fill="#000000" stroke="none" stroke-width="0"/><g stroke="none" stroke-width="0"><path d="M278.61875,210.3879l9.92722,-18.70565l25.35563,-0.51641l-1.291,6.74757z" fill="#142d2b"/><path d="M305.77394,240.31738l-27.43289,-30.02227l34.43524,-12.62252l11.2099,14.77447z" fill="#2c4c45"/><path d="M341.81379,257.07938l-36.57141,-16.66378l18.83513,-28.02048l17.65773,11.08998z" fill="#456761"/></g><g data-paper-data="{&quot;index&quot;:null}" stroke="none" stroke-width="0"><path d="M370.92965,197.97652l-1.291,-6.74757l25.35564,0.51639l9.92722,18.70567z" fill="#2c4c45"/><path d="M359.55409,212.51017l11.2099,-14.77446l34.43523,12.62252l-27.43289,30.02227z" fill="#789396"/><path d="M341.80501,223.54824l17.65773,-11.08998l18.83513,28.02048l-36.5714,16.66378z" fill="#5f7f7c"/></g><g stroke="none" stroke-width="0"><path d="M320.4555,284.43218c0,14.13127 -7.34478,25.58696 -16.40503,25.58696c-9.06026,0 -16.40503,-11.45566 -16.40503,-25.58696c0,-14.13129 7.34478,-25.58696 16.40503,-25.58696c9.06026,0 16.40503,11.45567 16.40503,25.58696z" fill="#bed3e5"/><path d="M320.52845,284.8257c0,14.38483 -7.0686,22.52909 -14.18982,22.52909c-7.12121,0 -14.18982,-8.69954 -14.18982,-23.08441c0,-14.38483 7.99413,-23.45461 15.11534,-23.45461c7.12121,0 13.26431,9.62508 13.26431,24.00992z" fill="#8fa7b3"/><path d="M310.55682,269.45889c0,0.77383 -2.26151,0.61175 -4.09295,2.12703c-0.28475,0.23558 -4.33508,6.20265 -5.25478,6.20265c-1.12314,0 -0.4065,-3.96556 0.69594,-6.27054c0.65362,-1.36657 3.62347,-5.39103 5.4125,-5.39103c1.78901,0 3.23932,1.49172 3.23932,3.33187z" fill="#bdd2e4"/></g></g><path d="M316.21265,259.72889c0,-1.23411 1.00045,-2.23456 2.23456,-2.23456c1.23411,0 2.23456,1.00045 2.23456,2.23456c0,1.23411 -1.00045,2.23456 -2.23456,2.23456c-1.23411,0 -2.23456,-1.00045 -2.23456,-2.23456z" fill="#000000" stroke="none" stroke-width="1.5" stroke-linecap="butt" stroke-linejoin="miter"/><path d="M362.39346,259.72889c0,-1.23411 1.00045,-2.23456 2.23456,-2.23456c1.23411,0 2.23456,1.00047 2.23456,2.23456c0,1.23411 -1.00045,2.23456 -2.23456,2.23456c-1.23411,0 -2.23456,-1.00045 -2.23456,-2.23456z" fill="#000000" stroke="none" stroke-width="1.5" stroke-linecap="butt" stroke-linejoin="miter"/><path d="M335.61269,264.06256c0,0.50535 -2.97649,2.32577 -8.00107,3.11348c-5.75849,0.90276 -13.69763,0.7462 -14.2768,0.7462c-1.08453,0 -1.96369,-0.87919 -1.96369,-1.96369c0,-1.08453 0.87919,-1.96369 1.96369,-1.96369c0.47134,0 4.4701,1.56851 9.14743,1.44036c6.08479,-0.16672 13.13041,-1.98581 13.13041,-1.37263z" fill="#000000" stroke="none" stroke-width="1.5" stroke-linecap="butt" stroke-linejoin="miter"/><path d="M360.11908,265.29978c4.67734,0.12815 8.6761,-1.44036 9.14743,-1.44036c1.08453,0 1.96369,0.87919 1.96369,1.96369c0,1.08453 -0.87919,1.96369 -1.96369,1.96369c-0.57917,0 -8.5183,0.15654 -14.2768,-0.74622c-5.02456,-0.78769 -8.00107,-2.60812 -8.00107,-3.11348c0,-0.61318 7.04562,1.20592 13.13041,1.37263z" data-paper-data="{&quot;index&quot;:null}" fill="#000000" stroke="none" stroke-width="1.5" stroke-linecap="butt" stroke-linejoin="miter"/><path d="M281.88564,116.87253c0,0 -3.46141,0.99508 -4.80372,1.03006c-1.45215,0.03784 -3.60564,-0.81093 -3.60564,-0.81093c0,0 9.41588,-7.75695 9.41588,-9.1229c0,-4.19055 25.99395,4.16162 38.16492,-13.69901c8.58672,-12.60084 -7.10093,-4.58836 20.82393,-4.83249c62.02163,-0.54219 60.63148,12.01284 60.63148,19.07346c0,3.47128 9.51942,26.10635 9.51942,26.10635l-10.9283,-7.87515c0,0 3.86886,14.57477 1.28978,30.37323c-2.41563,14.79717 -11.80425,26.88412 -11.80425,26.88412l-1.7862,-3.48849c0,0 -1.58123,3.2553 -3.33987,5.0264c-1.75864,1.7711 -5.49041,3.84563 -5.49041,3.84563l0.03113,-5.08094c0,0 -12.82433,15.44517 -38.34485,15.04158c-25.21275,-0.39872 -39.72208,-14.31494 -39.72208,-14.31494l-0.28373,2.88289c0,0 -6.98881,-7.21884 -10.39033,-15.36087c-4.41544,-10.56893 -4.07222,-17.00734 -4.07222,-17.00734c0,0 -4.21913,2.49447 -8.73562,3.27958c-5.26607,0.9154 -10.1165,0.53885 -10.1165,0.53885l11.26907,-11.24471c0,0 -3.94874,1.6568 -5.92029,1.99994c-1.82478,0.31763 -5.50281,-0.01175 -5.50281,-0.01175c0,0 8.80638,-11.41689 11.18315,-17.18184c2.17181,-5.26775 2.51808,-16.05084 2.51808,-16.05084z" fill="#000000" stroke="none" stroke-width="1.5" stroke-linecap="butt" stroke-linejoin="miter"/><path d="M300.36182,133.16633c-0.86965,-10.99055 0.50483,-26.52718 0.50483,-26.52718c0,0 7.50628,-0.73835 23.33485,-5.41443c12.16051,-3.59248 24.53998,-10.91582 24.53998,-10.91582l-7.26445,10.55454c0,0 12.08944,-2.55614 22.6213,-6.61971c10.68647,-4.12323 17.11282,-4.85152 19.81951,-2.17971c4.80168,4.69838 2.28594,35.63878 0.803,41.90216c-0.3372,1.42411 -2.65833,6.92573 -3.58819,11.47799c-0.92986,4.55226 -2.09887,22.11306 -3.75936,29.60477c-1.88891,8.5223 -7.35843,12.57965 -16.18553,21.22375c-8.8271,8.64412 -16.11109,12.05906 -19.39351,12.09127c-4.16959,0.04091 -13.68295,-5.72962 -21.21735,-13.68971c-8.02292,-8.47621 -13.37404,-12.77464 -14.64082,-22.81489c-1.14086,-9.04231 -1.1702,-14.93168 -1.69179,-22.97853c-0.38123,-5.88124 -3.4075,-9.71237 -3.88245,-15.71451z" fill="#ffffff" stroke="#000000" stroke-width="1.5" stroke-linecap="butt" stroke-linejoin="miter"/><path d="M311.37657,118.9807l0.65387,-2.35416c0,0 5.15445,-2.65145 11.81565,-3.27941c6.63963,-0.62593 11.42699,0.24004 11.42699,0.24004l-0.19126,6.67345c0,0 -4.91605,-1.0396 -11.0648,-0.68952c-4.67757,-0.13302 -26.04508,4.7216 -26.04508,4.7216l-0.03808,-2.02102z" fill="#000000" stroke="none" stroke-width="1.5" stroke-linecap="butt" stroke-linejoin="miter"/><path d="M373.81551,111.05686c0,0 3.93284,0.88284 5.95353,1.43417c2.09575,0.5718 6.404,1.93743 6.404,1.93743l0.04044,2.43985c0,0 -11.51653,-4.71673 -23.37049,-3.72308c-9.47812,0.79452 -14.76048,3.98458 -14.76048,3.98458l0.40703,-6.97048c0,0 7.58706,-2.39103 12.61088,-2.71172c5.02383,-0.3207 11.93893,1.14456 11.93893,1.14456z" data-paper-data="{&quot;index&quot;:null}" fill="#000000" stroke="none" stroke-width="1.5" stroke-linecap="butt" stroke-linejoin="miter"/><path d="M342.99964,180.67748c0.37528,0.0356 0.92595,-2.19311 3.56976,-3.17157c2.55509,-0.94562 6.19503,-0.64618 8.42751,-0.38892c2.46176,0.82905 15.26398,6.86735 15.26398,6.86735c0,0 -11.19662,1.09435 -16.08607,1.70512c-4.09743,0.51183 -11.60094,1.71542 -11.60094,1.71542l-30.59453,-6.71107c0,0 2.81546,-0.63117 6.98925,-2.04565c4.82149,-1.63399 6.15357,-2.34303 7.64619,-2.53624c3.54683,-0.45911 7.74168,-0.44616 11.73874,0.84479c4.2828,1.38324 4.27291,3.68535 4.64609,3.72075z" fill="#ffffff" stroke="#000000" stroke-width="1.25" stroke-linecap="butt" stroke-linejoin="miter"/><path d="M307.27435,133.74399c0,-7.37261 6.5645,-13.3493 14.66225,-13.3493c8.09774,0 14.66225,5.97668 14.66225,13.3493c0,7.37261 -6.5645,13.3493 -14.66225,13.3493c-8.09774,0 -14.66225,-5.97668 -14.66225,-13.3493z" fill="#ffffff" stroke="#000000" stroke-width="1.5" stroke-linecap="butt" stroke-linejoin="miter"/><path d="M348.0751,172.32367c-0.19585,3.38302 -2.34844,5.86409 -6.073,5.86409c-3.72457,0 -5.70638,-4.11129 -5.70638,-7.50058c0,-3.38927 1.98182,-4.7731 5.70638,-4.7731c3.72457,0 6.33237,1.92933 6.073,6.40958z" fill="#ffffff" stroke="#000000" stroke-width="1" stroke-linecap="butt" stroke-linejoin="miter"/><path d="M313.96305,133.65938c0,-4.24727 3.44309,-7.69036 7.69036,-7.69036c4.24727,0 7.69036,3.44309 7.69036,7.69036c0,4.24727 -3.44307,7.69036 -7.69036,7.69036c-4.24727,0 -7.69036,-3.44309 -7.69036,-7.69036z" fill="#000000" stroke="none" stroke-width="1.5" stroke-linecap="butt" stroke-linejoin="miter"/><path d="M347.53712,133.44297l-1.7278,53.37212l-5.33848,0.01302c0,0 -1.54942,-38.22129 -2.63846,-46.94139c-0.44968,-3.60062 -0.8182,-6.75542 -0.8182,-6.75542" fill="#ffffff" stroke="#000000" stroke-width="1.5" stroke-linecap="round" stroke-linejoin="miter"/><path d="M348.14498,133.74399c0,-7.37261 6.49638,-13.3493 14.51011,-13.3493c8.01371,0 14.51011,5.97668 14.51011,13.3493c0,7.37261 -6.49638,13.3493 -14.51011,13.3493c-8.01371,0 -14.51011,-5.97668 -14.51011,-13.3493z" fill="#ffffff" stroke="#000000" stroke-width="1.5" stroke-linecap="butt" stroke-linejoin="miter"/><path d="M354.86747,133.65938c0,-4.24727 3.44309,-7.69036 7.69036,-7.69036c4.24727,0 7.69036,3.44309 7.69036,7.69036c0,4.24727 -3.44307,7.69036 -7.69036,7.69036c-4.24727,0 -7.69036,-3.44309 -7.69036,-7.69036z" fill="#000000" stroke="none" stroke-width="1.5" stroke-linecap="butt" stroke-linejoin="miter"/><path d="M306.93502,133.16691c0,0 -0.31031,-14.00931 15.5709,-14.18297c13.8467,-0.15138 14.71016,14.18297 14.71016,14.18297z" fill="#ffffff" stroke="#000000" stroke-width="1.25" stroke-linecap="butt" stroke-linejoin="miter"/><path d="M347.31315,132.58916c0,0 0.01057,-14.7602 16.61703,-14.22524c15.59985,0.50253 15.34743,14.22524 15.34743,14.22524z" fill="#ffffff" stroke="#000000" stroke-width="1.25" stroke-linecap="butt" stroke-linejoin="miter"/><path d="M340.9217,201.24177c-22.74982,-0.51126 -30.82081,-20.2909 -30.82081,-20.2909c0,0 10.66186,2.03634 15.79823,3.2455c5.30656,1.24922 9.84266,3.54957 16.46004,3.82929c6.61738,0.2797 10.22404,-1.94333 14.22805,-2.3631c3.1042,-0.32544 14.08881,-0.9739 14.08881,-0.9739c0,0 -4.97705,17.10994 -29.75433,16.55311z" fill="#ffffff" stroke="#000000" stroke-width="1.25" stroke-linecap="butt" stroke-linejoin="miter"/><path d="M302.08365,147.44223c-0.76072,2.25669 -6.36184,-4.75625 -8.23986,-12.61556c-1.878,-7.85932 -1.68262,-13.69821 1.94236,-13.73897c3.42764,-0.03855 3.55432,5.62116 4.54596,11.27322c1.06251,6.05602 2.65996,12.38644 1.75154,15.0813z" data-paper-data="{&quot;index&quot;:null}" fill="#ffffff" stroke="#000000" stroke-width="1" stroke-linecap="butt" stroke-linejoin="miter"/><path d="M384.45727,131.9499c0.99163,-5.65206 1.11832,-11.31178 4.54596,-11.27322c3.62498,0.04077 3.82037,5.87967 1.94236,13.73898c-1.87802,7.85932 -7.47914,14.87224 -8.23986,12.61556c-0.90842,-2.69486 0.68903,-9.02528 1.75154,-15.0813z" data-paper-data="{&quot;index&quot;:null}" fill="#ffffff" stroke="#000000" stroke-width="1" stroke-linecap="butt" stroke-linejoin="miter"/><path d="M302.68778,142.19294c0,0 -5.1734,-3.31272 -6.29815,-11.55434c-0.62743,-4.59745 3.63564,-3.46986 3.63564,-3.46986" fill="none" stroke="#000000" stroke-width="0.5" stroke-linecap="round" stroke-linejoin="miter"/><path d="M385.28637,126.02767c0,0 3.58333,-0.62044 3.05596,3.97701c-0.94542,8.24162 -5.29393,11.04718 -5.29393,11.04718" data-paper-data="{&quot;index&quot;:null}" fill="none" stroke="#000000" stroke-width="0.5" stroke-linecap="round" stroke-linejoin="miter"/><path d="M284.08625,93.59288c0,0 -2.40704,-8.5196 -0.12943,-18.73862c1.67415,-7.5114 6.92077,-15.94098 12.22618,-22.58018c11.89946,-14.89095 36.51765,-19.84617 46.04771,-19.84617c9.5165,0 36.47118,5.41779 48.77493,19.71685c6.36791,7.40055 10.06389,16.45833 11.65382,24.37876c1.88368,9.3837 0.76273,17.57282 0.76273,17.57282c0,0 -4.89154,-2.96489 -5.32672,-4.0679c-3.27852,-8.30994 -0.88271,-21.21545 -9.97231,-29.78352c-3.7592,-3.54349 -9.13235,-8.76862 -14.93589,-11.82398c-11.62477,-6.12002 -26.14508,-7.93835 -31.71167,-7.93835c-4.53088,0 -26.83325,3.40063 -40.24476,16.89424c-2.96899,2.98718 -9.1755,9.60877 -11.57571,17.18851c-1.63203,5.15381 0.39034,11.29197 -0.98194,14.92644c-1.43396,3.79787 -4.58697,4.10114 -4.58697,4.10114z" fill="#5f7f7c" stroke="none" stroke-width="0" stroke-linecap="butt" stroke-linejoin="miter"/><path d="M290.33227,120.85757c0,-3.71781 8.09645,-3.54066 10.43056,-5.51252c0.6342,-0.53577 -0.40505,-4.99554 0.22718,-5.48324c0.56572,-0.4364 -4.74141,-0.15357 -8.97365,-1.20779c-4.52879,-1.12811 -8.4585,-3.74083 -7.77123,-3.97257c0.11011,-0.03713 -0.53667,-9.15728 0.02682,-9.13161c2.53867,0.11559 10.56334,2.90099 18.04619,4.49006c4.48869,0.95321 18.55941,1.69665 22.82898,1.72207c8.51919,0.05073 16.53061,0.55667 18.18954,0.55667c13.50906,0 3.65957,15.80983 3.65957,29.31888c0,4.1594 4.76475,12.76802 2.93341,16.19745c-1.10348,2.06641 -8.2979,-0.7359 -9.92372,0.92293c-4.43951,4.52957 -10.62654,7.33994 -17.46997,7.33994c-7.55234,0 -16.27905,-2.96726 -20.76595,-8.34619c-1.41157,-1.6922 -5.77691,-0.91752 -6.31672,-3.03838c-0.81358,-3.19636 -5.12099,-20.27489 -5.12099,-23.85567z" fill="#8fa7b3" stroke="#000000" stroke-width="0" stroke-linecap="butt" stroke-linejoin="miter"/><path d="M304.11752,131.63752c0,-9.34272 7.57373,-16.9165 16.91649,-16.9165c9.34272,0 16.9165,7.57376 16.9165,16.9165c0,9.34272 -7.57376,16.91649 -16.9165,16.91649c-9.34272,0 -16.91649,-7.57375 -16.91649,-16.91649z" fill="#000000" stroke="#000000" stroke-width="0" stroke-linecap="butt" stroke-linejoin="miter"/><path d="M316.69059,131.63752c0,-2.39881 1.94461,-4.34343 4.34342,-4.34343c2.39881,0 4.34343,1.94462 4.34343,4.34343c0,2.39881 -1.94462,4.34343 -4.34343,4.34343c-2.39881,0 -4.34342,-1.94462 -4.34342,-4.34343z" fill="#ff9a00" stroke="none" stroke-width="0" stroke-linecap="butt" stroke-linejoin="miter"/><path d="M391.19837,144.24522c-0.53981,2.12086 -4.90518,1.34618 -6.31675,3.03835c-4.4869,5.37892 -13.21359,8.34621 -20.76593,8.34621c-13.50906,0 -24.46031,-10.95125 -24.46031,-24.46031c0,-13.50906 -9.8495,-29.31888 3.65956,-29.31888c1.65894,0 9.67035,-0.50592 18.18954,-0.55668c4.26957,-0.02543 18.34032,-0.76886 22.82899,-1.72209c7.48285,-1.58906 15.50753,-4.37444 18.04617,-4.49005c0.56349,-0.02567 -0.08325,9.09444 0.02684,9.13159c0.68728,0.23174 -3.24243,2.84447 -7.77123,3.97257c-4.23226,1.05424 -9.5394,0.7714 -8.97367,1.2078c0.63226,0.4877 -0.40701,4.94746 0.2272,5.48324c2.3341,1.97185 10.43057,1.79469 10.43057,5.51252c0,3.58078 -4.30742,20.65932 -5.12098,23.85569z" fill="#8fa7b3" stroke="#000000" stroke-width="0" stroke-linecap="butt" stroke-linejoin="miter"/><path d="M365.61763,148.0859c-9.34272,0 -16.9165,-7.57376 -16.9165,-16.9165c0,-9.34272 7.57376,-16.9165 16.9165,-16.9165c9.34272,0 16.91649,7.57373 16.91649,16.9165c0,9.34272 -7.57375,16.9165 -16.91649,16.9165z" fill="#000000" stroke="#000000" stroke-width="0" stroke-linecap="butt" stroke-linejoin="miter"/><path d="M366.11763,138.71294c-4.11089,0 -7.44342,-3.33252 -7.44342,-7.44342c0,-4.11089 3.33252,-7.44343 7.44342,-7.44343c4.11089,0 7.44342,3.33254 7.44342,7.44343c0,4.11089 -3.33252,7.44342 -7.44342,7.44342z" fill="#ff8000" stroke="none" stroke-width="0" stroke-linecap="butt" stroke-linejoin="miter"/><path d="M403.24966,93.98938c0,5.69596 -26.65766,10.31343 -59.54156,10.31343c-32.88391,0 -59.54155,-4.61749 -59.54155,-10.31343c0,-5.69596 26.65766,-10.31343 59.54155,-10.31343c32.88389,0 59.54156,4.61749 59.54156,10.31343z" fill="#bed3e5" stroke="none" stroke-width="0" stroke-linecap="butt" stroke-linejoin="miter"/><path d="M311.76295,91.49758l35.52553,-3.25651l29.75261,5.18082l-40.10084,4.00854z" fill="#a7bccd" stroke="none" stroke-width="0" stroke-linecap="butt" stroke-linejoin="miter"/><path d="M311.5475,83.94259l32.68099,-32.67253l-6.74323,39.80134z" fill="#ffa300" stroke="none" stroke-width="0" stroke-linecap="butt" stroke-linejoin="miter"/><path d="M337.51489,90.80657l6.53991,-39.41153l33.21583,34.76476z" data-paper-data="{&quot;index&quot;:null}" fill="#dd5f00" stroke="none" stroke-width="0" stroke-linecap="butt" stroke-linejoin="miter"/><g stroke-linejoin="miter"><g stroke="none" stroke-width="0" stroke-linecap="butt"><path d="M275.3145,382.56453v-126.87011h21.29831v126.87011z" fill="#1b312f"/><path d="M180.97534,383.24852v-126.87011h21.29831v126.87011z" fill="#1b312f"/><path d="M198.17783,382.56038c0,0 0.38146,-59.52283 0.38146,-87.88049c0,-1.10892 -8.31659,-9.74851 -14.47216,-19.52299c-7.37445,-11.70994 -12.80952,-24.88072 -12.8131,-26.41572c-0.01343,-5.75757 7.0192,-13.19963 12.31083,-16.21048c12.56241,-7.14782 14.59297,-11.09988 14.59297,-11.09988l70.82584,24.32041c0,0 16.08927,-11.49711 26.92475,-10.59206c0.97055,0.08107 4.10683,2.14932 6.17757,4.87922c2.42258,3.19372 3.73842,7.15074 3.73505,7.74018c-0.00277,0.48081 -1.42816,6.35431 -3.91684,12.08916c-1.96615,4.53076 -4.95441,8.97498 -5.93967,10.60509c-7.21317,11.93419 -17.25339,23.44467 -17.25339,24.78619c0,27.90681 0.95367,87.30144 0.95367,87.30144z" fill="#0a1d1e"/><path d="M257.48878,283.4662c0,2.82049 -5.9424,31.06169 -18.70602,31.08328c-12.056,0.02039 -18.63375,-26.93324 -18.63375,-30.92506c0,-10.57323 7.90067,-6.17055 18.03701,-6.17055c10.13632,0 19.30274,-4.56091 19.30274,6.01234z" fill="#1b312f"/><path d="M198.89508,251.58013c0,0 -10.19555,-23.40504 -12.45572,-32.61957c-1.574,-6.41713 0.19205,-17.37848 0.19205,-17.37848c0,0 35.25066,-10.81346 52.99139,-10.81346c17.89593,0 53.92268,10.81346 53.92268,10.81346c0,0 0.45676,12.1106 -1.90638,19.10731c-2.87976,8.52635 -14.13073,28.37513 -14.13073,28.37513z" fill="#000000"/><path d="M301.40681,213.5313c0,7.05544 -3.74603,25.71398 -13.85964,41.17786c-12.04237,18.41296 -32.24468,33.97645 -49.18822,33.97645c-16.08951,0 -35.80417,-15.14774 -47.46408,-33.14916c-10.93111,-16.87626 -14.32597,-36.41294 -14.32597,-43.89184c0,-15.45642 31.87451,36.16211 63.04787,36.16211c31.17336,0 61.79007,-49.73182 61.79007,-34.27539z" fill="#304d47"/><path d="M186.58779,212.00274c0,3.78973 42.44177,26.68576 53.82031,35.32344c0.23342,0.17719 9.91369,-4.51771 21.02546,-12.75617c10.96804,-8.13191 23.31812,-19.77989 31.28314,-23.9599c0.7757,-0.40709 -1.82193,-1.52804 -1.70971,-3.16604c0.13459,-1.96442 2.97397,-4.45564 4.1802,-4.43762c0.91597,0.01369 4.51162,0.91798 6.17321,2.69058c1.67732,1.78936 1.41673,4.44942 1.49873,4.94592c0.34385,2.08225 -5.53817,6.8055 -5.83608,7.16652c-1.00855,1.22222 -22.78141,18.64155 -41.67585,30.07555c-11.38721,6.89098 -23.30434,10.03261 -24.54485,10.60017c-4.71227,2.15594 -15.45082,1.89575 -16.10346,2.04919c-0.45375,0.10669 4.37181,-2.89597 9.59079,-5.32689c5.90995,-2.75275 12.32443,-4.9819 12.1486,-4.9819c-3.04618,0 -29.60088,-12.40823 -46.60848,-24.38553c-9.31117,-6.55722 -14.37488,-14.89099 -14.37488,-16.55868c0,-4.71386 5.30572,-8.04041 10.01959,-8.04041c4.71386,0 1.11328,6.04793 1.11328,10.76177z" fill="#779295"/></g><path d="M179.19944,118.39405c0,0 1.00516,-7.52763 1.00516,-8.89173c0,-2.93575 11.62908,-5.46024 14.5087,-9.24496c4.12124,-5.41662 4.12481,-11.82181 43.81037,-12.16877c61.93781,-0.54146 61.1396,14.90388 61.1396,21.95497c0,3.46659 -1.40698,18.20656 -1.40698,18.20656c0,0 -1.20096,17.08738 -11.87993,26.2805c-2.41237,14.77718 1.37967,30.89948 1.37967,30.89948l-1.78378,-3.48377c0,0 -1.57909,3.2509 -3.33536,5.01961c-1.75627,1.76871 -5.48299,3.84043 -5.48299,3.84043l0.03109,-5.07408c0,0 -12.807,15.4243 -38.29303,15.02125c-25.17867,-0.39818 -39.6684,-14.29559 -39.6684,-14.29559l-0.28335,2.879l-10.36724,-38.72778c0,0 -8.69071,-10.42886 -6.31714,-16.18602c2.16887,-5.26063 -3.05637,-16.02915 -3.05637,-16.02915z" fill="#000000" stroke="none" stroke-width="1.5" stroke-linecap="butt"/><path d="M197.65065,134.66583c-0.86848,-10.9757 0.50415,-26.49133 0.50415,-26.49133c0,0 7.49614,-0.73736 23.30332,-5.40711c12.14408,-3.58762 24.50682,-10.90107 24.50682,-10.90107l-7.25463,10.54028c0,0 12.07311,-2.55268 22.59073,-6.61076c10.67202,-4.11766 18.13682,-10.25512 20.83986,-7.58692c4.7952,4.69203 1.23573,41.00078 -0.24521,47.25569c-0.33674,1.42219 -2.65474,6.91637 -3.58334,11.46248c-0.9286,4.54611 -2.09603,22.08318 -3.75428,29.56476c-1.88636,8.51078 -7.34848,12.56265 -16.16366,21.19507c-8.81517,8.63244 -16.08931,12.04276 -19.3673,12.07493c-4.16395,0.04086 -13.66446,-5.72188 -21.18867,-13.6712c-8.01207,-8.46476 -13.35596,-12.75737 -14.62103,-22.78405c-1.13932,-9.03009 -1.16862,-14.91151 -1.68951,-22.94748c-0.38071,-5.87329 -3.4029,-9.69924 -3.8772,-15.69327z" fill="#ffffff" stroke="#000000" stroke-width="1.5" stroke-linecap="butt"/><path d="M208.65051,120.49937l0.65298,-2.35098c0,0 5.14748,-2.64787 11.79968,-3.27498c6.63065,-0.62509 11.41155,0.23971 11.41155,0.23971l-0.191,6.66443c0,0 -4.90941,-1.03819 -11.04985,-0.68858c-4.67124,-0.13284 -26.00988,4.71522 -26.00988,4.71522l-0.03803,-2.01828z" fill="#000000" stroke="none" stroke-width="1.5" stroke-linecap="butt"/><path d="M271.00505,112.58623c0,0 3.92752,0.88165 5.94549,1.43223c2.09292,0.57103 6.39535,1.93481 6.39535,1.93481l0.04039,2.43655c0,0 -11.50097,-4.71035 -23.3389,-3.71805c-9.46532,0.79345 -14.74053,3.9792 -14.74053,3.9792l0.40648,-6.96106c0,0 7.5768,-2.3878 12.59384,-2.70805c5.01704,-0.32027 11.92279,1.14301 11.92279,1.14301z" data-paper-data="{&quot;index&quot;:null}" fill="#000000" stroke="none" stroke-width="1.5" stroke-linecap="butt"/><path d="M240.23085,182.11277c0.37477,0.03555 0.9247,-2.19014 3.56494,-3.16729c2.55163,-0.94434 6.18666,-0.64531 8.41612,-0.3884c2.45843,0.82793 15.24335,6.85807 15.24335,6.85807c0,0 -11.18149,1.09288 -16.06434,1.70282c-4.09189,0.51113 -11.58526,1.7131 -11.58526,1.7131l-30.55318,-6.702c0,0 2.81166,-0.63032 6.97981,-2.04288c4.81498,-1.63178 6.14526,-2.33986 7.63586,-2.53281c3.54204,-0.45849 7.73122,-0.44556 11.72287,0.84365c4.27701,1.38138 4.26713,3.68037 4.63981,3.71572z" fill="#ffffff" stroke="#000000" stroke-width="1.25" stroke-linecap="butt"/><path d="M204.55383,135.24271c0,-7.36265 6.55563,-13.33126 14.64244,-13.33126c8.0868,0 14.64244,5.9686 14.64244,13.33126c0,7.36265 -6.55563,13.33126 -14.64244,13.33126c-8.0868,0 -14.64244,-5.9686 -14.64244,-13.33126z" fill="#ffffff" stroke="#000000" stroke-width="1.5" stroke-linecap="butt"/><path d="M245.29944,173.77025c-0.19559,3.37845 -2.34527,5.85616 -6.06479,5.85616c-3.71953,0 -5.69867,-4.10573 -5.69867,-7.49044c0,-3.38469 1.97915,-4.76665 5.69867,-4.76665c3.71953,0 6.32381,1.92673 6.06479,6.40092z" fill="#ffffff" stroke="#000000" stroke-width="1" stroke-linecap="butt"/><path d="M211.2335,135.15821c0,-4.24153 3.43843,-7.67997 7.67997,-7.67997c4.24153,0 7.67997,3.43843 7.67997,7.67997c0,4.24153 -3.43842,7.67997 -7.67997,7.67997c-4.24153,0 -7.67997,-3.43843 -7.67997,-7.67997z" fill="#000000" stroke="none" stroke-width="1.5" stroke-linecap="butt"/><path d="M244.76219,134.9421l-1.72547,53.29999l-5.33126,0.01301c0,0 -1.54732,-38.16964 -2.63489,-46.87795c-0.44907,-3.59575 -0.81709,-6.74629 -0.81709,-6.74629" fill="#ffffff" stroke="#000000" stroke-width="1.5" stroke-linecap="round"/><path d="M245.36923,135.24271c0,-7.36265 6.4876,-13.33126 14.4905,-13.33126c8.00288,0 14.4905,5.9686 14.4905,13.33126c0,7.36265 -6.4876,13.33126 -14.4905,13.33126c-8.00288,0 -14.4905,-5.9686 -14.4905,-13.33126z" fill="#ffffff" stroke="#000000" stroke-width="1.5" stroke-linecap="butt"/><path d="M252.08264,135.15821c0,-4.24153 3.43843,-7.67997 7.67997,-7.67997c4.24153,0 7.67997,3.43843 7.67997,7.67997c0,4.24153 -3.43842,7.67997 -7.67997,7.67997c-4.24153,0 -7.67997,-3.43843 -7.67997,-7.67997z" fill="#000000" stroke="none" stroke-width="1.5" stroke-linecap="butt"/><path d="M204.21496,134.6664c0,0 -0.30989,-13.99038 15.54986,-14.1638c13.82799,-0.15118 14.69028,14.1638 14.69028,14.1638z" fill="#ffffff" stroke="#000000" stroke-width="1.25" stroke-linecap="butt"/><path d="M244.53852,134.08944c0,0 0.01056,-14.74026 16.59457,-14.20601c15.57877,0.50185 15.32669,14.20601 15.32669,14.20601z" fill="#ffffff" stroke="#000000" stroke-width="1.25" stroke-linecap="butt"/><path d="M238.15571,202.64927c-22.71907,-0.51057 -30.77916,-20.26348 -30.77916,-20.26348c0,0 10.64745,2.03358 15.77688,3.24111c5.29939,1.24753 9.82936,3.54478 16.4378,3.82411c6.60844,0.27932 10.21022,-1.9407 14.20882,-2.3599c3.10001,-0.325 14.06977,-0.97259 14.06977,-0.97259c0,0 -4.97032,17.08682 -29.71412,16.53074z" fill="#ffffff" stroke="#000000" stroke-width="1.25" stroke-linecap="butt"/><path d="M199.37015,148.92243c-0.75969,2.25364 -6.35324,-4.74983 -8.22872,-12.59851c-1.87546,-7.8487 -1.68034,-13.6797 1.93973,-13.7204c3.42301,-0.0385 3.54952,5.61356 4.53982,11.25799c1.06107,6.04783 2.65636,12.3697 1.74917,15.06092z" data-paper-data="{&quot;index&quot;:null}" fill="#ffffff" stroke="#000000" stroke-width="1" stroke-linecap="butt"/><path d="M281.63244,133.45104c0.99029,-5.64442 1.11681,-11.29649 4.53982,-11.25799c3.62008,0.04072 3.81521,5.87172 1.93973,13.72042c-1.87548,7.8487 -7.46903,14.85214 -8.22872,12.59851c-0.90719,-2.69122 0.6881,-9.01309 1.74917,-15.06092z" data-paper-data="{&quot;index&quot;:null}" fill="#ffffff" stroke="#000000" stroke-width="1" stroke-linecap="butt"/><path d="M199.97346,143.68024c0,0 -5.16641,-3.30824 -6.28964,-11.53872c-0.62658,-4.59123 3.63073,-3.46518 3.63073,-3.46518" fill="none" stroke="#000000" stroke-width="0.5" stroke-linecap="round"/><path d="M282.46041,127.53682c0,0 3.57849,-0.6196 3.05183,3.97163c-0.94414,8.23048 -5.28678,11.03225 -5.28678,11.03225" data-paper-data="{&quot;index&quot;:null}" fill="none" stroke="#000000" stroke-width="0.5" stroke-linecap="round"/><path d="M181.68127,188.64269c2.24098,-1.60257 7.07614,0.58306 9.86321,4.48038c2.78708,3.89736 3.77198,8.68129 1.531,10.28385c-2.24098,1.60257 -6.85926,-0.58308 -9.6463,-4.4804c-2.78708,-3.89736 -3.98889,-8.68127 -1.74791,-10.28382z" data-paper-data="{&quot;index&quot;:null}" fill="#000000" stroke="none" stroke-width="0" stroke-linecap="butt"/><path d="M186.04533,133.10679c0,6.13875 10.98722,18.98188 13.78303,25.35406c1.30092,2.96507 -6.4367,6.5322 -7.70397,6.5322c-2.34071,0 -7.89382,-7.32244 -12.08575,-15.1927c-2.9551,-5.54814 -5.23375,-11.36851 -5.23375,-15.08777c0,-1.5594 -1.4085,-8.34831 1.32432,-14.24676c0.63834,-1.3778 1.39572,-2.77278 2.25155,-4.16318c5.40199,-8.77571 14.72743,-17.36763 22.81153,-20.28665c11.06155,-3.99412 74.20822,-10.14858 82.01662,-4.96631c1.70862,1.13396 22.43738,28.09699 19.82775,37.53224c-0.08474,0.30635 1.18142,8.77717 -1.03661,14.88735c-1.80864,4.98241 -6.85637,7.24211 -9.27409,11.6858c-1.96483,3.61126 -7.50228,9.55791 -8.01561,9.44724c-0.17076,-0.03683 -6.36309,-4.26282 -6.20884,-4.86284c1.03731,-4.03505 11.29091,-14.24787 13.74983,-19.62845c1.72845,-3.78226 2.24599,-8.8232 0.04388,-12.86475c-2.77714,-5.09693 -9.20239,-9.01075 -15.40661,-11.34938c-14.10801,-5.31786 -36.93704,-6.87684 -36.8202,-6.87684c2.60897,0 -21.70675,-2.46538 -38.69989,4.85384c-9.00066,3.87671 -15.32321,16.11818 -15.32321,19.23288z" fill="#1b312f" stroke="none" stroke-width="0" stroke-linecap="butt"/><path d="M194.64913,105.063c-15.13447,6.57728 -19.27766,22.44532 -19.27766,14.41795c0,-2.03469 6.54201,-17.03252 7.96573,-22.79931c1.9552,-7.91971 1.38358,-17.82241 6.4651,-24.90054c4.62115,-6.43687 13.43965,-15.81343 19.53522,-20.51076c12.9002,-9.94109 23.99251,-11.90924 30.25974,-11.90924c4.43828,0 21.95194,7.0746 34.64618,16.14181c5.0377,3.59833 12.03424,10.10838 17.01071,18.19173c1.17349,1.90612 3.02685,15.42922 6.69137,27.09686c2.6113,8.31429 6.76462,25.09315 4.91353,27.59811c-0.31597,0.42758 -7.43699,-15.49981 -16.80946,-19.69137c-9.38663,-4.19791 -21.91375,-10.42456 -46.79079,-10.79442c-24.57524,-0.36537 -21.57587,-0.27177 -44.60965,7.15925z" fill="#476761" stroke="none" stroke-width="NaN" stroke-linecap="butt"/><path d="M208.48025,206.80319c-1.64128,0 3.27718,-6.53162 -5.39982,-18.7272c-14.8297,-20.84326 -21.72535,-10.54429 -21.72535,-14.13399c0,-3.21147 16.18687,-16.55525 21.26182,-18.59281c2.51755,-1.0108 1.42638,4.03798 10.99758,2.90346c3.10613,-0.36819 18.95461,-9.05501 26.50979,-8.3964c5.43686,-0.42272 19.889,7.83411 27.39837,8.02867c5.80956,0.15053 5.91038,-2.00422 6.17823,-2.00422c0.49596,0 22.50756,11.91029 23.8277,17.13536c2.88131,5.03068 -22.94672,-3.18587 -27.52338,32.96397c-3.82469,0.76322 -4.2567,-7.07032 -9.27097,-5.45316c-5.42536,1.74979 -15.50159,12.92507 -21.38085,12.87266c-6.31521,-0.05628 -15.01098,-10.74368 -20.21266,-12.13616c-6.81453,-1.82424 -9.40658,5.53981 -10.66045,5.53981z" fill="#0a1d1e" stroke="none" stroke-width="0" stroke-linecap="butt"/><path d="M240.23085,183.12568c0.37477,0.03555 0.9247,-2.19014 3.56494,-3.16729c2.55163,-0.94434 6.18666,-0.64531 8.41612,-0.3884c2.45843,0.82793 15.24335,6.85807 15.24335,6.85807c0,0 -11.18149,1.09288 -16.06434,1.70282c-4.09189,0.51113 -11.58526,1.7131 -11.58526,1.7131l-30.55318,-6.702c0,0 2.81166,-0.63032 6.97981,-2.04288c4.81498,-1.63178 6.14526,-2.33986 7.63586,-2.53281c3.54204,-0.45849 7.73122,-0.44556 11.72287,0.84365c4.27701,1.38138 4.26713,3.68037 4.63981,3.71572z" fill="#ffffff" stroke="#000000" stroke-width="1.25" stroke-linecap="butt"/><path d="M246.83851,171.48436c0,3.74529 -4.32442,12.80937 -7.12392,12.80937c-2.7995,0 -6.71291,-9.47507 -6.71291,-13.22036c0,-3.74529 4.18743,-7.19244 6.98693,-7.19244c2.7995,0 6.84995,3.85815 6.84995,7.60344z" fill="#5f7e7b" stroke="none" stroke-width="0" stroke-linecap="butt"/><path d="M237.3856,185.11572l-2.77453,-35.03827c0,0 3.60933,-1.12934 5.24051,-1.12934c1.69964,0 4.93194,1.64397 4.93194,1.64397l-2.19198,34.38664c0,0 -1.44422,0.87079 -2.3343,0.89423c-0.84268,0.02218 -2.87168,-0.75723 -2.87168,-0.75723z" fill="#8ea6b2" stroke="none" stroke-width="0" stroke-linecap="butt"/><path d="M201.25667,184.61013c6.87313,8.02432 10.57167,19.22304 5.53313,23.53875c-5.03852,4.31571 -17.18626,1.6652 -24.05938,-6.35911c-6.87313,-8.02432 -8.00451,-22.12091 -2.96597,-26.4366c3.49591,-2.99438 9.4285,-1.39854 14.74105,2.72659c2.34425,1.82028 4.49416,3.92088 6.59849,6.37766z" fill="#dd6000" stroke="none" stroke-width="0" stroke-linecap="butt"/><path d="M178.88111,183.68674c3.67749,-2.62984 11.61203,0.95678 16.18564,7.3524c4.57362,6.3956 6.1899,14.24609 2.5124,16.87591c-3.67749,2.62984 -11.2561,-0.95681 -15.82974,-7.35242c-4.57362,-6.3956 -6.54581,-14.24606 -2.86833,-16.87588z" data-paper-data="{&quot;index&quot;:null}" fill="#ffa200" stroke="none" stroke-width="0" stroke-linecap="butt"/><path d="M299.165,174.84357c5.03851,4.31571 3.90719,18.4123 -2.96597,26.4366c-6.87316,8.02432 -19.02085,10.67483 -24.05939,6.35911c-5.03851,-4.31571 -0.88188,-16.15036 5.99125,-24.17465c6.87316,-8.02432 15.99557,-12.93675 21.03411,-8.62104z" data-paper-data="{&quot;index&quot;:null}" fill="#dd6000" stroke="none" stroke-width="0" stroke-linecap="butt"/><path d="M297.17999,200.05312c-4.57364,6.3956 -12.15226,9.98227 -15.82976,7.35243c-3.67749,-2.62984 -2.06121,-10.48029 2.51242,-16.87591c4.57364,-6.3956 12.50819,-9.98225 16.18567,-7.3524c3.67749,2.62984 1.70528,10.48029 -2.86833,16.8759z" data-paper-data="{&quot;index&quot;:null}" fill="#ffa200" stroke="none" stroke-width="0" stroke-linecap="butt"/><path d="M295.5002,198.41687c-2.78706,3.89736 -7.40534,6.08299 -9.64632,4.48041c-2.24096,-1.60257 -1.25604,-6.38646 1.53102,-10.28384c2.78706,-3.89736 7.62223,-6.08301 9.8632,-4.48041c2.24096,1.60257 1.03917,6.38647 -1.7479,10.28385z" data-paper-data="{&quot;index&quot;:null}" fill="#000000" stroke="none" stroke-width="0" stroke-linecap="butt"/><path d="M264.89963,202.79419c0,0.69749 -6.99134,8.57014 -14.13012,14.11667c-4.33522,3.36827 -8.8513,5.6257 -11.52493,5.6257c-0.72319,0 -7.01401,-2.04937 -12.0102,-5.916c-7.02115,-5.43376 -13.24399,-13.28399 -13.24399,-13.82638c0,-1.14929 3.95774,-3.84745 9.13113,-0.6839c4.54324,2.77823 8.83845,10.60517 15.7222,10.60517c9.03374,0 15.44046,-10.03287 20.43675,-12.64075c3.14623,-1.64222 5.61916,1.88541 5.61916,2.71945z" fill="#314e48" stroke="none" stroke-width="0" stroke-linecap="butt"/><path d="M181.52288,189.31915c2.24098,-1.6026 7.07614,0.58305 9.8632,4.48041c2.78708,3.89738 3.772,8.68127 1.53103,10.28384c-2.24098,1.6026 -6.85926,-0.58305 -9.64632,-4.48041c-2.78708,-3.89738 -3.98888,-8.68127 -1.74791,-10.28384z" data-paper-data="{&quot;index&quot;:null}" fill="#000000" stroke="none" stroke-width="0" stroke-linecap="butt"/><path d="M238.15571,202.64925c-22.71907,-0.51057 -30.77916,-20.26348 -30.77916,-20.26348c0,0 10.64745,2.03358 15.77688,3.24111c5.29939,1.24753 9.82936,3.54478 16.4378,3.82411c6.60844,0.27932 10.21022,-1.9407 14.20882,-2.3599c3.10001,-0.325 14.06977,-0.97259 14.06977,-0.97259c0,0 -4.97032,17.08682 -29.71412,16.53074z" fill="#ffffff" stroke="#000000" stroke-width="1.25" stroke-linecap="butt"/></g><path d="M-58.76567,362.02737v-364.05473h597.53134v364.05473z" fill="url(#color-12)" stroke="none" stroke-width="0" stroke-linecap="butt" stroke-linejoin="miter"/><g fill="#ffffff" stroke="none" stroke-width="1.20157" stroke-linecap="round" stroke-linejoin="round"><path d="M138.53366,205.92572c0.28153,-1.05577 0.99711,-1.58365 2.14672,-1.58365h2.11153c0.56307,0 0.97364,0.22288 1.23173,0.66866c0.28153,0.42231 0.34019,0.95019 0.17596,1.58365l-12.31724,48.35402c-0.28153,1.05577 -0.99711,1.58365 -2.14672,1.58365h-2.11153c-0.56307,0 -0.97364,-0.21117 -1.23173,-0.63348c-0.28153,-0.44578 -0.35192,-0.97364 -0.21117,-1.58365z"/><path d="M150.56937,240.16766l7.49594,-12.38765c1.59536,-2.60421 3.22595,-4.56323 4.89171,-5.87708c1.68922,-1.31383 3.13212,-1.97078 4.32864,-1.97078h1.51326c0.77421,0 1.3725,0.12902 1.79482,0.38711c0.44578,0.25806 0.79768,0.8446 1.05577,1.75961c0.28151,0.91499 0.15249,2.26402 -0.38711,4.04711l-8.05901,29.38544c-0.14078,0.68037 -0.52788,1.02056 -1.16134,1.02056h-3.76555c-0.70384,0 -0.89154,-0.5748 -0.56307,-1.72441l7.56631,-24.74009c0.37537,-1.29038 0.56307,-2.135 0.56307,-2.53384c0,-0.42231 -0.16423,-0.63346 -0.49268,-0.63346c-0.32847,0 -0.72731,0.22288 -1.19652,0.66866c-0.44578,0.42231 -1.05577,1.20828 -1.83,2.35788c-0.91499,1.31383 -2.01768,3.01481 -3.30806,5.10285c-1.29038,2.08806 -2.92095,4.66883 -4.89171,7.74229c-3.7069,5.6542 -6.33458,9.90072 -7.88305,12.73955c-0.37537,0.68037 -0.95019,1.02056 -1.72441,1.02056h-2.00596c-0.28153,0 -0.51615,-0.1877 -0.70384,-0.56307c-0.21115,-0.39884 -0.24635,-0.83287 -0.10557,-1.30212l8.72765,-32.86946c0.23461,-1.24346 0.71556,-1.86518 1.44287,-1.86518h2.95615c1.14962,0 1.53671,0.69211 1.16134,2.07633z"/><path d="M195.5801,223.94408c0.77421,0.82115 0.86807,1.57192 0.28153,2.25231l-1.19652,1.37248c-0.82115,0.91499 -1.54847,1.0323 -2.1819,0.35192l-0.77421,-0.87981c-1.73616,-1.75961 -3.10865,-2.52211 -4.11749,-2.28749c-1.73614,0.32847 -3.56614,2.1819 -5.48998,5.56035c-1.92384,3.355 -3.30806,6.82728 -4.15268,10.41687c-0.82115,3.56614 -1.02056,6.54572 -0.59827,8.93881c0.09384,0.58654 0.5396,1.12616 1.3373,1.61883c0.79768,0.46923 1.40769,0.65693 1.83,0.56307c1.45461,-0.77421 3.06171,-2.21711 4.82132,-4.32864c0.53962,-0.72731 1.31383,-0.77421 2.32268,-0.14076l1.09097,0.70384c1.525,0.91499 0.22288,3.03824 -3.90633,6.36978c-1.73616,1.47806 -3.08518,2.34615 -4.04711,2.60421c-0.96193,0.28151 -2.41652,-0.07039 -4.36382,-1.05577c-1.92384,-0.98538 -3.10865,-1.95902 -3.55441,-2.92095c-1.3373,-2.93268 -1.36077,-7.09708 -0.07037,-12.49322c1.29038,-5.41957 2.87403,-9.56053 4.75095,-12.42283c1.8769,-2.8623 3.71863,-5.03248 5.52516,-6.51054c1.80653,-1.50153 3.75384,-2.14672 5.8419,-1.93555c2.08806,0.1877 4.30517,1.59538 6.65132,4.22305z"/><path d="M205.78588,229.57484c1.525,-2.4869 2.93268,-4.55152 4.22305,-6.19382c1.31383,-1.6423 2.26402,-2.66287 2.85056,-3.06171c0.61001,-0.42231 1.66577,-0.63346 3.1673,-0.63346h0.70384c1.40769,0 1.88865,0.53962 1.44287,1.61883c-0.23461,0.56307 -0.82115,1.26693 -1.75961,2.11153c-0.93846,0.84462 -2.21711,2.28749 -3.83594,4.32864c-1.59536,2.04114 -2.39307,3.36671 -2.39307,3.97672c0,1.26693 0.59827,2.45172 1.7948,3.55441c0.28151,0.23461 0.36364,0.49268 0.24635,0.77421c-0.11733,0.25806 -0.36368,0.43403 -0.73903,0.52788l-2.74499,0.49268c-0.77423,0.14078 -1.3725,0.05865 -1.79482,-0.24635c-0.39884,-0.30498 -1.10269,-1.39595 -2.11153,-3.27287l-5.52516,21.39682c-0.30502,1.05577 -1.03232,1.58365 -2.1819,1.58365h-2.07633c-1.36077,0 -1.88865,-0.55135 -1.58365,-1.65404l8.79803,-33.50292c0.23461,-0.96193 0.90328,-1.44287 2.00596,-1.44287h2.21711c0.63346,0 1.05577,0.10557 1.26693,0.31672c0.21115,0.21115 0.24633,0.61001 0.10555,1.19652z"/><path d="M218.98293,246.57263c-0.65693,3.5192 0,5.46651 1.97078,5.84188c1.75961,-0.65693 3.94151,-2.45172 6.54572,-5.38439c0.44578,-0.39884 0.92672,-0.44576 1.44287,-0.14076l1.3725,0.84462c0.63346,0.49268 0.84462,1.02056 0.63346,1.58365c-0.91499,1.73616 -2.60421,3.57788 -5.06767,5.52516c-2.46346,1.94731 -4.44595,2.78017 -5.94747,2.49864c-3.40189,-0.86807 -5.39614,-2.65115 -5.98266,-5.3492c-0.68037,-3.61306 -0.08212,-8.57515 1.7948,-14.88628c1.8769,-6.31113 4.49287,-11.07379 7.84784,-14.28801c1.17307,-1.07922 2.62768,-1.8769 4.36382,-2.39307c1.75961,-0.53962 3.61306,-0.39884 5.56035,0.42229c1.94731,0.82115 2.90922,3.1673 2.88577,7.03844c-0.02361,3.87114 -1.72457,7.53112 -5.10285,10.97996c-3.35498,3.42536 -7.46073,5.99439 -12.31724,7.70706zM219.8627,241.89207c2.25231,-0.96193 4.17615,-2.08806 5.77151,-3.37844c1.61883,-1.29038 2.9444,-2.8623 3.9767,-4.71575c1.05577,-1.85347 1.58365,-3.75384 1.58365,-5.70114c0,-1.94731 -0.56307,-2.92095 -1.68922,-2.92095c-2.20537,0 -4.14094,1.80653 -5.8067,5.41961c-1.6423,3.58961 -2.92095,7.35516 -3.83596,11.29667z"/><path d="M256.35699,225.38696c-2.39307,-1.3373 -4.39903,-1.43116 -6.01786,-0.28153c-1.59536,1.14962 -3.13212,3.7069 -4.61017,7.67188c-1.45461,3.96498 -2.52211,7.449 -3.20248,10.45205c-0.65693,3.00305 -0.75078,5.0794 -0.28153,6.22901c0.49268,1.14962 1.29036,1.39595 2.39307,0.73903c2.25231,-1.45461 4.26999,-4.12921 6.05305,-8.02382c1.80653,-3.91804 3.69518,-9.51361 5.66594,-16.78665zM267.90001,203.49745l-13.68974,47.5446c1.38422,-1.10269 2.82711,-2.68634 4.32864,-4.75095c0.51615,-0.77421 1.1144,-0.93846 1.7948,-0.49268l1.72441,1.16134c0.77421,0.51615 0.89152,1.1144 0.35192,1.79482c-1.97078,2.29921 -3.78902,4.09402 -5.45479,5.38439c-1.6423,1.26693 -3.58961,2.15845 -5.84188,2.67462c-0.68037,0.14078 -1.1144,-0.11731 -1.30212,-0.77421l-1.3725,-3.97672c-0.96193,1.3373 -1.98249,2.45172 -3.06171,3.34324c-1.07922,0.89152 -1.95902,1.3373 -2.6394,1.3373h-0.14076c-0.91499,0 -2.135,-0.78597 -3.65998,-2.35786c-1.50153,-1.59536 -2.27576,-3.30806 -2.32268,-5.13806c-0.04692,-3.75384 1.00885,-8.63381 3.1673,-14.63991c2.1819,-6.00613 4.21133,-9.9359 6.08823,-11.78937c1.90037,-1.8769 4.24652,-2.79191 7.03844,-2.74499c1.59536,0 3.10865,0.43403 4.53978,1.30212l4.82132,-17.94799c0.30498,-1.05577 1.0323,-1.58365 2.1819,-1.58365h1.86518c1.38422,0 1.91212,0.55135 1.58365,1.65404z"/><path d="M276.55727,208.95223h0.66866c0.79768,0 1.53671,0.36366 2.21711,1.09097c0.68037,0.72731 1.02056,1.56018 1.02056,2.49864c0,0.93846 -0.35192,1.74788 -1.05577,2.42827c-0.70384,0.65693 -1.58365,0.98538 -2.6394,0.98538h-0.56307c-0.82115,0 -1.56018,-0.34019 -2.21711,-1.02056c-0.63346,-0.70384 -0.95019,-1.525 -0.95019,-2.46346c0,-0.93846 0.32847,-1.75961 0.98538,-2.46346c0.68037,-0.70384 1.525,-1.05577 2.53384,-1.05577zM277.85937,221.44543l-8.72765,33.50292c-0.28151,1.05577 -0.99711,1.58365 -2.14672,1.58365h-2.11153c-1.3373,0 -1.86518,-0.55135 -1.58365,-1.65404l8.79803,-33.50292c0.23461,-0.96193 0.90328,-1.44287 2.00596,-1.44287h2.39307c0.63346,0 1.05577,0.10557 1.26693,0.31672c0.21115,0.21115 0.24633,0.61001 0.10555,1.19652z"/><path d="M284.26436,251.49953c2.29921,1.38422 4.2817,1.47806 5.94747,0.28153c1.68922,-1.19652 3.31979,-3.95325 4.89171,-8.27015c1.59536,-4.34035 2.61595,-7.73053 3.06171,-10.17052c0.46923,-2.46346 0.66866,-4.12921 0.59827,-4.9973c-0.07037,-0.86807 -0.50439,-1.50153 -1.30212,-1.90037c-0.77421,-0.39884 -2.07633,0.43403 -3.90633,2.49864c-1.83,2.06461 -3.41365,4.79787 -4.75095,8.19978c-1.31383,3.40189 -2.75672,7.96517 -4.32864,13.68974zM287.71317,256.81354c-1.59536,0 -3.13212,-0.45749 -4.61017,-1.3725c-0.39884,0.72731 -1.04403,1.09097 -1.93555,1.09097h-1.23171c-1.68922,0 -2.39307,-0.77421 -2.11153,-2.32268l13.19704,-50.78227c0.28151,-1.05577 1.00883,-1.58365 2.1819,-1.58365h1.65404c1.3373,0 1.86518,0.55135 1.58365,1.65404l-6.26419,24.56412l1.05577,-1.7948c1.00885,-1.68922 2.15845,-3.13212 3.44883,-4.32864c1.31383,-1.19652 2.38133,-1.79482 3.20248,-1.79482h0.1408c0.37537,0 0.97364,0.28153 1.7948,0.84462c0.82115,0.53962 1.61883,1.30212 2.39307,2.28749c0.79768,0.98538 1.3373,2.01768 1.61883,3.09691c0.30498,1.07922 0.23459,3.04999 -0.21117,5.91229c-0.42231,2.8623 -1.54847,6.79207 -3.37844,11.78937c-1.83,4.9973 -3.68345,8.37572 -5.56037,10.13533c-1.85347,1.73614 -4.17615,2.60421 -6.96804,2.60421z"/><path d="M304.99252,246.07993c0.21115,-6.42844 1.81826,-12.51667 4.82132,-18.26473c3.00305,-5.74804 6.82728,-8.57515 11.47264,-8.48132c2.41652,0.14078 4.29345,1.34904 5.63073,3.62479c1.00885,1.57192 1.4194,4.2348 1.23171,7.98862c-0.1877,7.10881 -2.135,13.68974 -5.8419,19.74281c-2.55729,4.43421 -5.99439,6.56919 -10.3113,6.40499c-1.525,-0.04692 -2.9444,-0.71556 -4.25823,-2.00596c-1.97078,-1.8769 -2.88577,-4.87999 -2.74499,-9.0092zM317.27459,248.9657c3.26114,-5.13806 4.98554,-10.88612 5.17324,-17.24415c0.04692,-2.81538 -0.10557,-4.70401 -0.45751,-5.66594c-0.32847,-0.96193 -1.0323,-1.45461 -2.11153,-1.47806c-1.07922,-0.02361 -2.06461,0.48082 -2.95613,1.51326c-0.89154,1.03232 -1.75961,2.46346 -2.60421,4.29345c-2.135,4.26999 -3.29634,9.26728 -3.48402,14.99186c-0.09384,4.31688 0.65695,6.54572 2.25231,6.6865c1.38422,0.04692 2.78017,-0.98538 4.18786,-3.09691z"/><path d="M325.05207,254.73721c5.81845,-7.06189 10.17054,-12.58706 13.05631,-16.57551c-1.19652,-5.0442 -2.5925,-10.24091 -4.18786,-15.59013c-0.61001,-1.75961 -0.22288,-2.6394 1.16134,-2.6394h2.00596c1.05577,0 1.75961,0.55133 2.11153,1.65402c1.29038,4.45768 2.36962,8.49303 3.23769,12.10609c2.11153,-3.07346 4.7744,-7.35516 7.98862,-12.84514c0.32847,-0.61001 0.97364,-0.91499 1.93555,-0.91499h2.46346c1.29038,0 1.40769,0.85634 0.35192,2.56903c-2.58076,4.48113 -6.36978,10.13533 -11.36706,16.96261c1.10269,4.90344 2.08806,10.08842 2.95613,15.55492c0.14078,0.96193 -0.24633,1.46634 -1.16134,1.51328l-2.1819,0.21117c-0.65693,0.09384 -1.1144,-0.00002 -1.3725,-0.28153c-0.23461,-0.28151 -0.46921,-0.9267 -0.70384,-1.93555c-0.46923,-3.28461 -1.09097,-6.69824 -1.86518,-10.24091c-3.30806,4.22305 -5.50169,6.97979 -6.58095,8.27015c-1.05577,1.26693 -1.67749,2.01768 -1.86518,2.25231c-0.1877,0.23461 -0.305,0.38711 -0.35192,0.45747c-0.04692,0.07037 -0.15249,0.21115 -0.31672,0.42229c-0.16423,0.1877 -0.31674,0.305 -0.45751,0.35192c-0.11733,0.04692 -0.26984,0.11731 -0.45751,0.21117c-0.28151,0.1877 -0.66864,0.28153 -1.16134,0.28153h-2.07633c-0.68037,0 -1.12616,-0.19943 -1.3373,-0.59827c-0.21115,-0.42231 -0.15249,-0.82115 0.17598,-1.19652z"/></g><text transform="translate(232.58887,319.89716) scale(0.34748,0.34748)" font-size="40" xml:space="preserve" fill="#ffffff" fill-rule="nonzero" stroke="none" stroke-width="1" stroke-linecap="butt" stroke-linejoin="miter" stroke-miterlimit="10" stroke-dasharray="" stroke-dashoffset="0" font-family="&quot;Microsoft YaHei&quot;, &quot;&quot;, STXihei, &quot;&quot;" font-weight="normal" text-anchor="start" style="mix-blend-mode: normal"><tspan x="0" dy="0">Remake</tspan></text><g fill="#ffffff" stroke="none" stroke-width="1.20157" stroke-linecap="round" stroke-linejoin="round"><path d="M197.77146,279.01341l-1.86757,0.22698c-0.4538,0 -0.63998,-0.27344 -0.55853,-0.82033l0.13963,-1.01234c0.06982,-0.36071 0.27345,-0.58761 0.61089,-0.6807c0.94251,-0.20945 2.46101,-0.29672 4.55549,-0.26181c2.10611,0.03499 3.78751,0.69823 5.0442,1.98975c1.26832,1.27996 1.94903,3.16498 2.04211,5.65507c0.09309,2.49009 -0.31417,5.23037 -1.22178,8.22082c-0.89597,2.99044 -2.16429,5.4631 -3.80496,7.41794c-1.62904,1.95485 -3.7526,2.9439 -6.3707,2.96717c-1.29159,0 -2.36792,-0.06402 -3.22898,-0.19208c-0.84943,-0.12806 -1.14615,-0.70404 -0.89015,-1.72794zM200.70375,278.9436l-5.44564,21.24149c0.22109,0.02327 0.77379,0.0349 1.65812,0.0349c1.50104,0 2.8799,-0.86107 4.13659,-2.5832c1.26832,-1.73374 2.23993,-3.84567 2.91481,-6.33577c0.67489,-2.49009 1.02979,-4.59622 1.06469,-6.31834c0.04654,-1.73377 -0.27345,-3.16499 -0.95996,-4.29369c-0.67489,-1.14032 -1.79776,-1.72213 -3.36861,-1.74539z"/><path d="M220.3918,284.42412h1.36141c0.15126,0 0.27344,0.09309 0.36653,0.27926c0.09309,0.18618 0.10472,0.40145 0.0349,0.6458l-5.25364,19.00738c-0.57017,2.19919 -1.51268,3.65369 -2.82755,4.36349c-0.57017,0.31417 -0.95415,0.50615 -1.15196,0.57596c-0.47708,0.20945 -1.17524,0.02909 -2.09447,-0.54106l-3.64788,-2.05956c-0.31417,-0.15132 -0.48289,-0.36658 -0.50616,-0.6458c-0.02327,-0.26764 0.04654,-0.48291 0.20944,-0.64582l0.54108,-0.75051c0.38398,-0.40726 0.77961,-0.50616 1.18687,-0.29672l3.96205,2.44354c0.52362,0.27926 0.91924,-0.04654 1.18687,-0.97742l3.45588,-12.25269l-0.82034,1.57086l-2.11193,3.54316c-0.75634,1.30324 -1.53013,2.28066 -2.32137,2.93227c-0.77961,0.63997 -1.47195,0.95996 -2.07702,0.95996h-0.20944c-0.50035,0 -0.91924,-0.18035 -1.25668,-0.54106c-0.82616,-0.90761 -1.01233,-2.18175 -0.55853,-3.82242l3.64788,-13.29991c0.09309,-0.32583 0.27926,-0.48873 0.55853,-0.48873h1.86757c0.36072,0 0.4538,0.28509 0.27926,0.85526l-3.61297,12.39232c-0.18617,0.7447 -0.20945,1.21014 -0.06981,1.39632c0.26763,0.40726 0.8727,-0.09309 1.81521,-1.50105c0.94251,-1.40796 3.33953,-5.626 7.19104,-12.65412c0.19781,-0.32583 0.48289,-0.48873 0.85524,-0.48873z"/><path d="M229.10132,284.19723h0.54108c0.81452,0 1.56504,0.31417 2.25156,0.94251c0.68652,0.61671 1.24505,1.37887 1.67558,2.28648c0.24435,0.50035 0.16291,0.87852 -0.24435,1.1345l-1.08214,0.61089c-0.50035,0.36071 -0.85524,0.30254 -1.06469,-0.17451c-0.02327,-0.04654 -0.12217,-0.26762 -0.29672,-0.66325c-0.16291,-0.39562 -0.29672,-0.6749 -0.40145,-0.8378c-0.10472,-0.17452 -0.2909,-0.36652 -0.55853,-0.57599c-0.25599,-0.20945 -0.5527,-0.34326 -0.89015,-0.40142c-0.59343,0.12806 -1.15196,0.52368 -1.67558,1.18687c-0.52362,0.66325 -0.78543,1.60576 -0.78543,2.82754c0,0.52362 0.12218,0.89015 0.36653,1.0996c0.25599,0.19781 0.70397,0.36653 1.34396,0.50615l0.99488,0.20942c1.4545,0.31417 2.18175,1.5185 2.18175,3.61299c0,1.24505 -0.46544,2.67627 -1.39632,4.29367c-0.44217,0.75635 -1.04724,1.40215 -1.81521,1.9374c-0.76798,0.52362 -1.59995,0.78543 -2.49592,0.78543h-0.26181c-0.90761,0 -1.7163,-0.31417 -2.4261,-0.94251c-0.7098,-0.63997 -1.21014,-1.28578 -1.50104,-1.9374c-0.2909,-0.66325 -0.2909,-1.15776 0,-1.48357l0.78543,-0.6458c0.24435,-0.24436 0.50616,-0.35491 0.78543,-0.33165c0.2909,0.02327 0.48871,0.23271 0.59343,0.62835c0.10472,0.39562 0.39562,0.87271 0.8727,1.43125c0.47708,0.55852 0.91925,0.84941 1.32651,0.87269c0.7098,-0.11635 1.3265,-0.53523 1.85012,-1.25668c0.52362,-0.73306 0.78543,-1.57086 0.78543,-2.51337c0,-0.94251 -0.08727,-1.54177 -0.2618,-1.79777c-0.17454,-0.26762 -0.57598,-0.47124 -1.20433,-0.61086l-0.78543,-0.17451c-0.91925,-0.22109 -1.57086,-0.60507 -1.95484,-1.15195c-0.38398,-0.54689 -0.57598,-1.28577 -0.57598,-2.21664c0,-1.54758 0.5527,-3.04281 1.65812,-4.48567c1.10542,-1.44286 2.3272,-2.16429 3.66533,-2.16429z"/><path d="M242.36635,278.90868l-1.39632,5.51544h1.85012c0.52362,0 0.70397,0.26181 0.54108,0.78543l-0.24435,0.92506c-0.17454,0.52362 -0.48871,0.78543 -0.94251,0.78543h-1.85012l-3.78751,14.87079c-0.13962,0.52362 -0.50034,0.78543 -1.08214,0.78543h-0.66325c-0.38398,0 -0.65743,-0.10472 -0.82034,-0.31417c-0.15126,-0.22109 -0.19199,-0.50034 -0.12218,-0.83778l3.7177,-14.50426h-1.43123c-0.47708,0 -0.62835,-0.28508 -0.45381,-0.85523l0.27926,-0.95996c0.13962,-0.45381 0.40143,-0.68072 0.78543,-0.68072h1.43123l1.43123,-5.55034c0.13962,-0.52362 0.49453,-0.78543 1.06469,-0.78543h0.90761c0.66325,0 0.92506,0.27344 0.78543,0.82033z"/><path d="M241.56347,297.39242c0.10472,-3.18827 0.90179,-6.2078 2.39119,-9.0586c1.4894,-2.85082 3.38607,-4.25296 5.69,-4.20641c1.1985,0.06981 2.12939,0.66905 2.79263,1.79775c0.50035,0.77961 0.70397,2.10031 0.61089,3.96207c-0.09309,3.5257 -1.05888,6.78959 -2.89736,9.79168c-1.26832,2.19919 -2.97299,3.25807 -5.11401,3.17661c-0.75634,-0.02327 -1.46031,-0.35489 -2.11193,-0.99487c-0.97743,-0.93087 -1.43123,-2.42029 -1.36141,-4.46822zM247.65491,298.82365c1.6174,-2.54828 2.47264,-5.3991 2.56573,-8.55244c0.02327,-1.39631 -0.05236,-2.333 -0.22691,-2.81009c-0.16291,-0.47709 -0.51199,-0.72144 -1.04724,-0.73307c-0.53525,-0.01093 -1.02397,0.23924 -1.46614,0.75053c-0.44216,0.51199 -0.8727,1.22178 -1.29159,2.12939c-1.05887,2.11774 -1.63485,4.59621 -1.72794,7.43539c-0.04654,2.14101 0.32582,3.24642 1.11706,3.31625c0.68652,0.02327 1.37886,-0.48871 2.07702,-1.53595z"/><path d="M256.34699,300.08033c1.1636,0.66326 2.15266,0.71565 2.96717,0.15718c0.82616,-0.55852 1.62904,-1.91993 2.40865,-4.08422c0.79124,-2.17593 1.29742,-3.86897 1.51849,-5.07911c0.23272,-1.22178 0.33163,-2.04793 0.29672,-2.47847c-0.0349,-0.43052 -0.25016,-0.75052 -0.6458,-0.95996c-0.38398,-0.20945 -1.0356,0.21526 -1.95484,1.27413c-0.91925,1.05889 -1.70468,2.4203 -2.35629,4.08425c-0.63998,1.66394 -1.34977,3.91551 -2.12939,6.75467zM260.1345,285.20954l-0.82034,3.17664l0.48871,-0.82033c0.50035,-0.83779 1.07051,-1.55341 1.71049,-2.14684c0.65161,-0.59344 1.18105,-0.89016 1.58831,-0.89016h0.06981c0.18617,0 0.48289,0.13963 0.89015,0.41891c0.40726,0.26762 0.79124,0.63415 1.15196,1.0996c0.37236,0.46543 0.63416,0.9425 0.78543,1.43123c0.16291,0.48871 0.15127,1.47778 -0.0349,2.96717c-0.17454,1.48941 -0.73889,3.49081 -1.69304,6.00418c-0.95415,2.51337 -1.88502,4.18895 -2.79263,5.02673c-0.89597,0.82616 -2.03629,1.23923 -3.42098,1.23923c-0.79124,0 -1.54177,-0.21526 -2.25156,-0.6458l-1.7454,6.87686c-0.15126,0.52362 -0.51198,0.78543 -1.08214,0.78543h-0.6458c-0.38398,0 -0.65161,-0.11054 -0.80288,-0.33162c-0.15126,-0.20945 -0.19199,-0.48289 -0.12218,-0.82033l6.00416,-23.40578c0.13962,-0.50035 0.45961,-0.75053 0.95996,-0.75053h1.04724c0.61671,0 0.85524,0.26181 0.71561,0.78543z"/><path d="M272.5617,278.97848h0.33163c0.39562,0 0.76215,0.18036 1.0996,0.54109c0.33744,0.36071 0.50616,0.77378 0.50616,1.23923c0,0.46543 -0.17454,0.86687 -0.52362,1.20433c-0.34908,0.32581 -0.78543,0.48871 -1.30904,0.48871h-0.27926c-0.40726,0 -0.77379,-0.16873 -1.0996,-0.50618c-0.31417,-0.34907 -0.47126,-0.75633 -0.47126,-1.22176c0,-0.46545 0.16291,-0.87271 0.48871,-1.22178c0.33744,-0.34909 0.75634,-0.52364 1.25669,-0.52364zM273.20751,285.17464l-4.32858,16.61617c-0.13962,0.52362 -0.49453,0.78543 -1.06469,0.78543h-1.04724c-0.66325,0 -0.92506,-0.27344 -0.78543,-0.82033l4.36349,-16.61617c0.11636,-0.47709 0.44799,-0.71562 0.99488,-0.71562h1.18687c0.31417,0 0.52362,0.0524 0.62835,0.15718c0.10472,0.10479 0.12217,0.3026 0.05235,0.59344z"/><path d="M283.83699,285.13974c0.09309,-0.55852 0.36653,-0.83778 0.82034,-0.83778l0.82034,-0.0349c0.8727,0.02327 1.19269,0.45381 0.95996,1.29161l-4.29368,14.2948c0.7447,-0.5469 1.48359,-1.33233 2.21665,-2.35629c0.26763,-0.38399 0.56434,-0.46545 0.89015,-0.24436l0.8727,0.57599c0.37236,0.25599 0.43053,0.55269 0.17454,0.89014c-0.97743,1.14032 -1.87921,2.03048 -2.70537,2.67047c-0.81452,0.62835 -1.78612,1.07051 -2.91481,1.32649c-0.32581,0.04654 -0.54108,-0.08145 -0.6458,-0.38397l-0.66325,-1.9723c-0.67489,0.88432 -1.25087,1.49522 -1.72794,1.83267c-0.47708,0.32581 -0.84361,0.48871 -1.0996,0.48871h-0.06983c-0.19781,0 -0.49453,-0.13382 -0.89015,-0.40146c-0.38398,-0.27925 -0.76798,-0.63997 -1.15196,-1.08214c-0.38398,-0.44216 -0.66325,-0.92505 -0.83779,-1.44868c-0.16291,-0.52362 -0.15127,-1.47195 0.0349,-2.84499c0.19781,-1.38469 0.7447,-3.31627 1.64067,-5.79474c0.89597,-2.47845 1.81521,-4.20639 2.75772,-5.18382c0.94251,-0.97742 2.12356,-1.45449 3.54316,-1.43123c0.79124,0 1.54758,0.21526 2.26902,0.6458zM283.2959,287.1295c-1.26832,-0.7098 -2.30392,-0.72143 -3.1068,-0.0349c-0.79124,0.67488 -1.57086,2.05955 -2.33883,4.15402c-0.75634,2.09448 -1.25087,3.74098 -1.48359,4.93948c-0.22109,1.18687 -0.31417,1.99558 -0.27926,2.42611c0.0349,0.43052 0.24435,0.7447 0.62835,0.94251c0.38398,0.19781 1.01815,-0.192 1.90248,-1.16942c0.89597,-0.97742 1.67559,-2.31555 2.33883,-4.01441c0.67489,-1.69884 1.4545,-4.11331 2.33883,-7.24338z"/></g></g></g></svg>