<svg version="1.1" xmlns="http://www.w3.org/2000/svg" xmlns:xlink="http://www.w3.org/1999/xlink" width="150.04303" height="258.42651" viewBox="0,0,150.04303,258.42651"><g transform="translate(-164.9785,-51.28674)"><g data-paper-data="{&quot;isPaintingLayer&quot;:true}" fill-rule="nonzero" stroke-linejoin="miter" stroke-miterlimit="10" stroke-dasharray="" stroke-dashoffset="0" style="mix-blend-mode: normal"><g stroke-linecap="butt"><path d="M206.13331,308.71325l15.14285,-131.8421l37.78325,-0.15789l13.57389,132z" fill="#000000" stroke="#000000" stroke-width="2"/><g><path d="M254.98964,205.40257c0,8.71744 -6.7611,15.78432 -15.10134,15.78432c-8.34024,0 -15.10134,-7.06688 -15.10134,-15.78432c0,-8.71743 6.7611,-15.78432 15.10134,-15.78432c8.34024,0 15.10134,7.06688 15.10134,15.78432z" fill="#ffffff" stroke="#000000" stroke-width="2"/><path d="M250.56066,199.60678c0,1.61218 -6.80666,7.40203 -10.61597,7.40203c-3.80932,0 -10.2561,-6.20687 -10.2561,-7.81903c0,-1.61218 6.68669,1.66806 10.49602,1.66806c3.80932,0 10.37605,-2.86323 10.37605,-1.25104z" fill="#ffffff" stroke="#000000" stroke-width="2.5"/><path d="M258.44466,248.49363l17.77654,-19.98137l2.31667,2.06105l-17.77654,19.98138z" data-paper-data="{&quot;index&quot;:null}" fill="#8fa7b3" stroke="#8fa7b3" stroke-width="2.5"/><path d="M218.81472,250.48675l-17.77654,-19.98137l2.31667,-2.06105l17.77654,19.98138z" fill="#8fa7b3" stroke="#8fa7b3" stroke-width="2.5"/><path d="M208.86463,230.40367l-0.40201,-0.80379c0,0 12.02567,-31.00026 31.33033,-30.94609c19.67426,0.0552 28.87949,30.94609 28.87949,30.94609l-1.40702,1.0048c0,0 -2.89093,9.30143 -7.47767,17.67867c-6.04481,11.04021 -19.60972,42.80697 -19.60972,42.80697c0,0 -12.98402,-30.43913 -19.34528,-41.5822c-4.45574,-7.80516 -11.96815,-19.10446 -11.96815,-19.10446z" fill="#5f7f7c" stroke="none" stroke-width="0"/><path d="M199.20905,224.99729v-0.60805c0,0 17.57353,-23.60246 40.43453,-23.56147c23.2987,0.04176 39.67448,23.56147 39.67448,23.56147v0.60805l-39.21844,45.75486z" fill="#2c4c45" stroke="none" stroke-width="0"/><path d="M199.44855,212.25387v-0.60805c0,0 17.57353,-23.60246 40.43453,-23.56147c23.2987,0.04176 39.67448,23.56147 39.67448,23.56147v0.60805l-39.21844,45.75485z" fill="#031718" stroke="none" stroke-width="0"/><path d="M240.15109,297.34224l-21.09053,-46.88765l1.43248,-1.00305l19.55966,41.68009l19.69782,-41.63241l1.07213,1.32774z" fill="#d6eeff" stroke="#d6eeff" stroke-width="3.5"/></g></g><path d="M170.77993,121.67972c0,-1.65654 -5.80143,-1.9233 -5.80143,-1.9233c0,0 6.69584,-8.87746 7.35214,-11.71771c6.65986,-28.82218 23.99043,-56.21969 66.68631,-56.74538c45.68643,-0.56252 68.23702,35.01087 68.23702,70.3864c0,0.66795 3.07779,7.31159 4.43041,10.36634c2.27861,5.14598 3.33715,7.45866 3.33715,7.45866c0,0 -2.64733,-1.66693 -4.82385,-3.56682c-2.14071,-1.86864 -3.80963,-3.97893 -3.99144,-3.01508c-0.43459,2.30399 -0.59561,10.92242 -4.12876,19.9176c-3.49395,8.89536 -10.36285,18.18124 -10.36285,18.18124c0,0 -2.29192,-5.28642 -3.77673,-3.14158c-6.07718,8.77862 -11.2964,15.30957 -11.2964,15.30957c0,0 -2.40974,-4.97718 -4.47106,-3.86765c-9.32569,5.01966 -20.06286,7.91078 -31.65348,7.91078c-12.60656,0 -24.772,-3.56633 -35.27102,-9.52744c-2.72845,-1.54916 -0.82623,4.38789 -0.82623,4.38789c0,0 -7.93843,-5.19677 -13.15685,-11.00681c-6.08759,-6.77777 -9.73663,-14.57056 -12.13914,-18.68944c-0.34082,-0.58431 -4.01999,1.58785 -5.934,2.01254c-2.96082,0.65696 -4.48364,-0.08182 -4.48364,-0.08182c0,0 2.67098,-3.37669 3.55098,-5.15497c0.94364,-1.90688 1.93325,-5.92746 1.93325,-5.92746c0,0 -2.66402,1.90888 -4.05965,2.38502c-1.48595,0.50696 -4.60208,0.57008 -4.60208,0.57008c0,0 4.39229,-5.64339 5.74307,-11.5602c1.27257,-5.57422 -0.4917,-11.39111 -0.4917,-12.96047z" fill="#000000" stroke="#000000" stroke-width="0" stroke-linecap="butt"/><path d="M251.99989,158.48998h-25.10959" fill="none" stroke="#000000" stroke-width="2" stroke-linecap="round"/><path d="M175.22321,118.67971c0,-33.30185 28.7599,-60.29833 64.23702,-60.29833c35.47712,0 64.23702,26.99649 64.23702,60.29833c0,33.30185 -28.7599,60.29833 -64.23702,60.29833c-35.47712,0 -64.23702,-26.99649 -64.23702,-60.29833z" fill="#ffffff" stroke="#000000" stroke-width="2" stroke-linecap="butt"/><path d="M175.94627,118.73354c0,-0.72799 5.20666,55.91939 63.36046,56.93429c55.56352,0.9697 63.51358,-57.95314 63.51358,-56.93429c0,32.80479 -28.40173,59.39833 -63.43702,59.39833c-35.03529,0 -63.43702,-26.59354 -63.43702,-59.39833z" fill="#e6e6e6" stroke="#000000" stroke-width="0" stroke-linecap="butt"/><path d="M188.77344,119.10917c0,-12.968 10.51265,-23.48065 23.48065,-23.48065c12.968,0 23.48065,10.51265 23.48065,23.48065c0,12.968 -10.51265,23.48065 -23.48065,23.48065c-12.968,0 -23.48065,-10.51265 -23.48065,-23.48065z" fill="#000000" stroke="#000000" stroke-width="2" stroke-linecap="butt"/><path d="M195.83881,118.83355c0,-9.12808 7.39976,-16.52784 16.52783,-16.52784c9.12808,0 16.52784,7.39977 16.52784,16.52784c0,9.12808 -7.39977,16.52784 -16.52784,16.52784c-9.12808,0 -16.52783,-7.39977 -16.52783,-16.52784z" fill="#ffa200" stroke="none" stroke-width="0" stroke-linecap="butt"/><path d="M266.51251,142.58982c-12.968,0 -23.48065,-10.51265 -23.48065,-23.48065c0,-12.968 10.51265,-23.48065 23.48065,-23.48065c12.968,0 23.48065,10.51265 23.48065,23.48065c0,12.968 -10.51265,23.48065 -23.48065,23.48065z" data-paper-data="{&quot;index&quot;:null}" fill="#000000" stroke="#000000" stroke-width="2" stroke-linecap="butt"/><path d="M266.39995,135.36139c-9.12807,0 -16.52783,-7.39977 -16.52783,-16.52784c0,-9.12808 7.39977,-16.52784 16.52783,-16.52784c9.12807,0 16.52783,7.39977 16.52783,16.52784c0,9.12808 -7.39977,16.52784 -16.52783,16.52784z" data-paper-data="{&quot;index&quot;:null}" fill="#ffa200" stroke="none" stroke-width="0" stroke-linecap="butt"/><path d="M201.41111,93.61396c0,0 6.70895,-5.16922 11.79721,-6.36355c5.08827,-1.19433 12.33413,0.69937 12.33413,0.69937c0,0 -8.03812,-0.06028 -11.96762,0.86207c-4.10648,0.96389 -12.16372,4.80211 -12.16372,4.80211z" fill="#000000" stroke="none" stroke-width="0" stroke-linecap="butt"/><path d="M265.3456,88.42967c-3.9295,-0.92235 -11.96762,-0.86207 -11.96762,-0.86207c0,0 7.24586,-1.8937 12.33413,-0.69937c5.08826,1.19433 11.79721,6.36355 11.79721,6.36355c0,0 -8.05724,-3.83822 -12.16372,-4.80211z" data-paper-data="{&quot;index&quot;:null}" fill="#000000" stroke="none" stroke-width="0" stroke-linecap="butt"/><path d="M180.30232,88.97078c11.42496,-22.68233 31.40973,-33.07142 60.56473,-32.85267c24.16321,0.18129 39.14424,9.27509 47.64651,17.23625c0.95139,0.89084 -11.16905,5.58091 -18.25999,7.52146c-15.29703,4.18628 -30.35723,6.25195 -30.35723,6.25195l6.65013,-11.17032c0,0 -23.70536,7.34319 -34.98048,9.59002c-11.17264,2.22641 -31.26367,3.4233 -31.26367,3.4233z" fill="#000000" stroke="none" stroke-width="0" stroke-linecap="butt"/><g><path d="M180.20831,149.66157l-8.37939,-5.90102c0,0 -6.74615,-7.9196 -6.49116,-19.00135c0.295,-12.8209 9.91376,-15.2246 9.91376,-15.2246l0.47204,19.47338z" fill="#bdd3e4" stroke="#bdd3e4" stroke-width="0.5" stroke-linecap="round"/><path d="M186.2963,136.48269l5.45595,19.60376l-11.37675,-6.23057c0,0 -2.84366,-7.64566 -3.74527,-11.30104c-0.77841,-3.15538 -1.34921,-9.50748 -1.34921,-9.50748l0.27535,-19.60374l10.46446,-3.80372z" fill="#476861" stroke="#486962" stroke-width="0.5" stroke-linecap="round"/><path d="M191.67555,173.06611l-0.42488,-17.50934l12.97997,7.4571v10.05224z" fill="#295047" stroke="none" stroke-width="NaN" stroke-linecap="butt"/></g><g><path d="M303.74459,128.96232l0.44746,-18.45396c0,0 9.11521,2.27784 9.39478,14.42775c0.2415,10.50151 -6.15136,18.00666 -6.15136,18.00666l-7.9409,5.59211z" data-paper-data="{&quot;index&quot;:null}" fill="#bdd3e4" stroke="#bdd3e4" stroke-width="0.5" stroke-linecap="round"/><path d="M293.98634,107.209l9.91678,3.21321l0.26094,18.57753c0,0 -0.54103,6.01942 -1.27858,9.00977c-0.85443,3.46387 -3.54934,10.70945 -3.54934,10.70945l-10.78106,5.90429l5.17034,-18.57751z" data-paper-data="{&quot;index&quot;:null}" fill="#476861" stroke="#486962" stroke-width="0.5" stroke-linecap="round"/><path d="M274.69357,171.497v-9.21286l13.97815,-7.62595l-1.76711,16.8388z" data-paper-data="{&quot;index&quot;:null}" fill="#295047" stroke="none" stroke-width="NaN" stroke-linecap="butt"/></g><g stroke-linecap="butt"><path d="M267.78432,191.71917c0,16.59236 -12.86876,30.04314 -28.7432,30.04314c-15.87443,0 -28.7432,-13.45076 -28.7432,-30.04314c0,-16.59236 12.86876,-30.04314 28.7432,-30.04314c15.87443,0 28.7432,13.45077 28.7432,30.04314z" fill="#ffffff" stroke="#000000" stroke-width="2"/><path d="M259.3544,180.68772c0,3.06854 -12.9555,14.08869 -20.20597,14.08869c-7.25048,0 -19.52098,-11.81385 -19.52098,-14.8824c0,-3.06854 12.72717,3.17493 19.97763,3.17493c7.25048,0 19.74932,-5.44972 19.74932,-2.38119z" fill="#ffffff" stroke="#000000" stroke-width="2.5"/><path d="M267.70338,169.88469c0,3.06854 -17.24778,15.08085 -29.46718,15.08085c-12.21939,0 -32.04678,-16.3778 -32.04678,-19.44635c0,-0.9425 9.28814,-0.84789 18.45889,1.28892c5.47567,1.27585 10.16219,2.62109 15.83435,2.89295c4.36184,0.20907 8.31968,-1.26779 12.66638,-1.58796c7.95155,-0.58569 14.55435,0.76082 14.55435,1.77158z" fill="#ffffff" stroke="#000000" stroke-width="2.5"/><g stroke="none" stroke-width="0"><path d="M185.25125,232.15662l18.22056,-81.1451c0,0 0.00579,-2.71768 3.86251,-3.24187c2.14986,-0.2922 61.79132,0.16294 63.70161,0.42968c5.22812,0.72996 5.31817,3.02407 5.31817,3.02407l17.16123,80.66929z" fill="#a7bccd"/><path d="M194.32392,225.20801l15.26588,-67.98647c0,0 0.00485,-2.27699 3.23617,-2.71616c6.81863,-0.92675 20.64913,-0.41215 27.47185,-0.39232c6.25148,0.01816 19.12432,-0.19368 25.89976,0.75232c4.38032,0.61161 4.45577,2.53367 4.45577,2.53367l14.37834,67.09892z" fill="#000000"/><g><path d="M213.03564,189.64331l5.46318,-24.33028c0,0 0.00176,-0.81485 1.15814,-0.97203c2.44019,-0.33164 7.38971,-0.14748 9.83134,-0.1404c2.2372,0.00647 11.26543,0.10366 11.26543,0.10366l-0.4574,25.08499z" fill="#899ca7"/><path d="M240.19431,189.48072l0.3649,-25.12752c0,0 8.40699,-0.25566 10.64418,-0.26215c2.44162,-0.00708 7.39115,-0.19124 9.8313,0.1404c1.15638,0.15718 1.15814,0.97203 1.15814,0.97203l5.4632,24.33028z" data-paper-data="{&quot;index&quot;:null}" fill="#7e919d"/><path d="M240.37215,189.2204l0.4574,25.08499c0,0 -9.02825,0.09714 -11.26544,0.10366c-2.44162,0.00708 -17.9339,0.19125 -20.37406,-0.1404c-1.15637,-0.15718 -1.15814,-0.97203 -1.15814,-0.97203l5.07955,-24.3303z" data-paper-data="{&quot;index&quot;:null}" fill="#a76200"/><path d="M267.34824,189.23423l5.50986,24.33028c0,0 -0.00176,0.81486 -1.15812,0.97204c-2.44019,0.33164 -18.36275,0.14749 -20.80439,0.14041c-2.2372,-0.00647 -10.64419,-0.26215 -10.64419,-0.26215l-0.36492,-25.12752z" data-paper-data="{&quot;index&quot;:null}" fill="#872a03"/></g></g><path d="M196.66317,241.24976l-11.28151,-9.47062h107.1743l-10.41503,8.67876z" fill="#000000" stroke="none" stroke-width="0"/></g><path d="M188.77344,119.0102c0,-12.96801 10.51265,-23.48065 23.48066,-23.48065c12.96801,0 23.48065,10.51264 23.48065,23.48065c0,0 -11.70863,-8.69294 -23.43307,-8.53879c-11.75617,0.15456 -23.52823,9.1554 -23.52823,8.53879z" fill="#466760" stroke="#466760" stroke-width="2" stroke-linecap="butt"/><path d="M242.9193,119.32217c0,-12.96801 10.51264,-23.48065 23.48065,-23.48065c12.96801,0 23.48066,10.51264 23.48066,23.48065c0,0.60606 -11.37275,-8.38438 -22.92496,-8.531c-11.92261,-0.15132 -24.03635,8.531 -24.03635,8.531z" data-paper-data="{&quot;index&quot;:null}" fill="#466760" stroke="#466760" stroke-width="2" stroke-linecap="butt"/></g></g></svg>