<svg version="1.1" xmlns="http://www.w3.org/2000/svg" xmlns:xlink="http://www.w3.org/1999/xlink" width="34.17311" height="34.17311" viewBox="0,0,34.17311,34.17311"><g transform="translate(-222.91346,-162.91346)"><g data-paper-data="{&quot;isPaintingLayer&quot;:true}" stroke="none" stroke-miterlimit="10" stroke-dasharray="" stroke-dashoffset="0" style="mix-blend-mode: normal"><path d="M229.98313,162.91347h20.03379c3.9166,0 7.06966,3.15307 7.06966,7.06966v20.03379c0,3.91659 -3.15306,7.06966 -7.06966,7.06966h-20.03379c-3.91659,0 -7.06966,-3.15307 -7.06966,-7.06966v-20.03379c0,-3.91659 3.15307,-7.06966 7.06966,-7.06966z" fill-opacity="0.13218" fill="#1a1a1a" fill-rule="evenodd" stroke-width="4.43922" stroke-linecap="round" stroke-linejoin="round"/><path d="M251.19315,182.88291c-2.556,4.59339 -4.79658,7.82435 -7.4632,9.12943c-1.70812,0.83598 -2.25567,-0.63893 -3.29067,-0.35789c-1.9045,0.59275 -4.9641,3.03523 -4.9641,3.03523l-5.87576,-2.85247c0,0 0.36701,-3.36311 -0.30831,-5.46115c-0.67532,-2.09804 -1.60734,-0.26209 -1.93696,-1.97702c-0.52783,-2.74608 0.47809,-6.76129 2.85207,-11.34679c3.7627,-7.26791 12.32986,-8.76017 16.61845,-6.62152c4.63034,2.30906 8.35455,9.28887 4.36848,16.45221z" fill="#ffffff" fill-rule="nonzero" stroke-width="NaN" stroke-linecap="butt" stroke-linejoin="miter"/><path d="M230.61455,172.14902c0,0 0.64515,-0.91521 0.97295,-1.33808c0.27492,-0.35463 0.86327,-1.03063 0.86327,-1.03063c0,0 3.89666,-0.62271 11.10448,2.70737c6.65179,3.07319 9.20139,6.92503 9.20139,6.92503l-0.8835,2.20872c0,0 -4.72406,-4.50374 -9.7304,-6.89726c-6.94986,-3.3227 -11.5282,-2.57516 -11.5282,-2.57516z" fill="#bfbfbf" fill-rule="nonzero" stroke-width="0" stroke-linecap="butt" stroke-linejoin="miter"/><path d="M235.03199,178.77518l-0.61844,-7.15624l4.77083,-3.79899l1.14853,5.47762z" fill="#bfbfbf" fill-rule="nonzero" stroke-width="0" stroke-linecap="butt" stroke-linejoin="miter"/><path d="M245.26213,175.37754l5.27461,-1.87137l-0.75514,5.7885l-6.43613,3.46058z" data-paper-data="{&quot;index&quot;:null}" fill="#bfbfbf" fill-rule="nonzero" stroke-width="0" stroke-linecap="butt" stroke-linejoin="miter"/><path d="M229.20072,191.87814l4.579,-9.10039l6.77114,3.43426l-4.86521,8.6711z" fill="#bfbfbf" fill-rule="nonzero" stroke-width="0" stroke-linecap="butt" stroke-linejoin="miter"/></g></g></svg>