<svg version="1.1" xmlns="http://www.w3.org/2000/svg" xmlns:xlink="http://www.w3.org/1999/xlink" width="153.14352" height="267.20187" viewBox="0,0,153.14352,267.20187"><g transform="translate(-163.42822,-45.9116)"><g data-paper-data="{&quot;isPaintingLayer&quot;:true}" fill-rule="nonzero" stroke-linejoin="miter" stroke-miterlimit="10" stroke-dasharray="" stroke-dashoffset="0" style="mix-blend-mode: normal"><g stroke-width="0" stroke-linecap="butt"><path d="M206.67308,313.11347l15.14285,-131.8421l37.78325,-0.15789l13.57389,132z" fill="#304d47" stroke="#000000"/><path d="M206.67308,263.51689c0,0 0.34443,-17.99943 4.06363,-26.78297c1.01515,-2.39746 10.26861,-6.89016 11.02151,-6.68728c4.9898,1.34463 0.28909,-16.60482 18.5074,-16.99338c16.1092,-0.34357 13.00127,15.70608 18.65752,16.78768c4.55566,0.87113 8.71042,6.58677 11.51396,8.64466c3.29413,2.41799 2.693,24.92027 2.693,24.92027c0,0 -4.33998,3.15605 -8.8193,3.44077c-0.54241,0.03448 -4.87847,7.16526 -10.57625,13.7893c-5.92924,6.89311 -13.22503,13.28807 -13.60484,13.21239c-1.53617,-0.3061 -10.48874,-8.77681 -16.55986,-15.89141c-4.18868,-4.90863 -6.32307,-9.33157 -6.48264,-9.33157c-4.2193,0 -10.4141,-5.10848 -10.4141,-5.10848z" fill="#1b312f" stroke="none"/><path d="M207.28661,254.43484v-1.57883c0,0 -0.12935,-15.09871 3.58986,-23.88225c1.01515,-2.39746 10.26861,-6.89017 11.02152,-6.68728c1.70509,0.45949 0.1792,-1.334 0.92237,-3.90986c1.43164,-4.96214 5.59221,-12.82772 17.58502,-13.08352c11.18504,-0.23855 15.46757,7.42589 17.48998,12.49587c0.89036,2.23203 -0.56142,3.96121 1.16755,4.29182c4.55566,0.87113 8.71042,6.58677 11.51396,8.64466c3.29413,2.41799 2.18011,22.13056 2.18011,22.13056v1.57883c0,0 -6.66969,4.87535 -11.149,5.16007c-1.10685,0.07036 -20.47526,24.91305 -21.22007,24.76465c-2.59603,-0.51728 -20.75659,-24.71456 -21.14743,-24.71456c-4.2193,0 -11.95387,-5.21015 -11.95387,-5.21015z" fill="#000000" stroke="none"/><path d="M261.69654,207.8321c1.23982,3.51341 0.6706,12.33886 -0.87706,15.29438c-0.14351,0.27407 -0.43354,6.62469 -3.64909,11.8903c-2.41547,3.95546 -15.08706,48.594 -16.75768,48.5704c-1.80067,-0.02544 -12.82914,-38.02881 -14.22108,-39.70104c-0.82609,-0.99244 -2.66343,-10.68291 -3.84711,-12.57791c-1.30116,-2.0831 -2.65787,-8.03451 -2.84626,-8.42007c-2.35091,-4.81151 -0.79153,-8.2783 -0.92165,-8.87323c-0.29827,-1.36383 1.19718,-8.3842 2.10674,-10.34245c0.83474,-1.79721 2.01183,-3.25576 2.01183,-3.29447c0,-0.01349 -6.27707,10.87142 -1.9685,18.88024c4.44217,8.25716 19.47642,13.64601 19.63875,13.64601c0.23406,0 13.00337,-4.42935 15.31834,-8.65576c5.25693,-9.59742 2.41434,-23.90351 2.41434,-23.8705c0,0.06076 2.18744,3.45564 3.59844,7.45408z" data-paper-data="{&quot;index&quot;:null}" fill="#304d47" stroke="none"/><g stroke="none"><path d="M239.93475,269.82803c0,0 -1.46957,-1.08646 -2.38438,-2.948c-0.86884,-1.76799 -1.34587,-4.27218 -1.96434,-5.84169c-1.39137,-3.53099 -3.66945,-11.93266 -3.66945,-11.93266c0,0 0.88781,0.12415 1.50179,0.75328c1.39744,1.43191 6.69094,7.64155 6.69094,7.64155z" fill="#d76f00"/><path d="M239.87409,257.44982c0,0 5.29351,-6.20964 6.69094,-7.64155c0.61398,-0.62913 1.5018,-0.75329 1.5018,-0.75329c0,0 -2.27809,8.40168 -3.66945,11.93267c-0.61846,1.56952 -1.09551,4.0737 -1.96434,5.84169c-0.91482,1.86154 -2.52065,3.06354 -2.52065,3.06354z" data-paper-data="{&quot;index&quot;:null}" fill="#ff9d00"/></g></g><path d="M175.76298,142.45961c0,-33.30185 28.7599,-60.29833 64.23702,-60.29833c35.47712,0 64.23702,26.99649 64.23702,60.29833c0,33.30185 -28.7599,60.29833 -64.23702,60.29833c-35.47712,0 -64.23702,-26.99649 -64.23702,-60.29833z" fill="#ffffff" stroke="#000000" stroke-width="2" stroke-linecap="butt"/><path d="M176.48604,142.51345c0,-0.72799 5.20666,55.91939 63.36046,56.93429c55.56352,0.9697 63.51358,-57.95314 63.51358,-56.93429c0,32.80479 -28.40173,59.39833 -63.43702,59.39833c-35.03529,0 -63.43702,-26.59354 -63.43702,-59.39833z" fill="#e6e6e6" stroke="#000000" stroke-width="0" stroke-linecap="butt"/><path d="M189.3132,142.88908c0,-12.968 10.51265,-23.48065 23.48065,-23.48065c12.968,0 23.48065,10.51265 23.48065,23.48065c0,12.968 -10.51265,23.48065 -23.48065,23.48065c-12.968,0 -23.48065,-10.51265 -23.48065,-23.48065z" fill="#ffffff" stroke="#000000" stroke-width="2" stroke-linecap="butt"/><path d="M196.37858,142.61345c0,-9.12808 7.39976,-16.52784 16.52783,-16.52784c9.12808,0 16.52784,7.39977 16.52784,16.52784c0,9.12808 -7.39977,16.52784 -16.52784,16.52784c-9.12808,0 -16.52783,-7.39977 -16.52783,-16.52784z" fill="#000000" stroke="none" stroke-width="0" stroke-linecap="butt"/><path d="M267.05229,166.36972c-12.968,0 -23.48065,-10.51265 -23.48065,-23.48065c0,-12.968 10.51265,-23.48065 23.48065,-23.48065c12.968,0 23.48065,10.51265 23.48065,23.48065c0,12.968 -10.51265,23.48065 -23.48065,23.48065z" data-paper-data="{&quot;index&quot;:null}" fill="#ffffff" stroke="#000000" stroke-width="2" stroke-linecap="butt"/><path d="M266.93971,159.14129c-9.12807,0 -16.52783,-7.39977 -16.52783,-16.52784c0,-9.12808 7.39977,-16.52784 16.52783,-16.52784c9.12807,0 16.52783,7.39977 16.52783,16.52784c0,9.12808 -7.39977,16.52784 -16.52783,16.52784z" data-paper-data="{&quot;index&quot;:null}" fill="#000000" stroke="none" stroke-width="0" stroke-linecap="butt"/><path d="M189.31321,142.88908c0,-12.968 10.51265,-23.48065 23.48065,-23.48065c12.968,0 23.48065,10.51265 23.48065,23.48065c0,0 -46.96131,1.23155 -46.96131,0z" fill="#ffffff" stroke="#000000" stroke-width="2" stroke-linecap="butt"/><path d="M243.57164,142.88907c0,-12.968 10.51265,-23.48065 23.48065,-23.48065c12.968,0 23.48065,10.51265 23.48065,23.48065c0,1.2138 -46.96131,0 -46.96131,0z" data-paper-data="{&quot;index&quot;:null}" fill="#ffffff" stroke="#000000" stroke-width="2" stroke-linecap="butt"/><path d="M201.95088,114.08061c0,0 6.70895,-5.16922 11.79721,-6.36355c5.08827,-1.19433 12.33413,0.69937 12.33413,0.69937c0,0 -8.03812,-0.06028 -11.96762,0.86207c-4.10648,0.96389 -12.16372,4.80211 -12.16372,4.80211z" fill="#000000" stroke="none" stroke-width="0" stroke-linecap="butt"/><path d="M265.88539,109.27851c-3.9295,-0.92235 -11.96762,-0.86207 -11.96762,-0.86207c0,0 7.24586,-1.8937 12.33413,-0.69937c5.08826,1.19433 11.79721,6.36355 11.79721,6.36355c0,0 -8.05724,-3.83822 -12.16372,-4.80211z" data-paper-data="{&quot;index&quot;:null}" fill="#000000" stroke="none" stroke-width="0" stroke-linecap="butt"/><path d="M180.84209,112.75068c11.42496,-22.68233 31.40973,-33.07142 60.56473,-32.85267c24.16321,0.18129 39.14424,9.27509 47.64651,17.23625c0.95139,0.89084 -11.16905,5.58091 -18.25999,7.52146c-15.29703,4.18628 -30.35723,6.25195 -30.35723,6.25195l6.65013,-11.17032c0,0 -23.70536,7.34319 -34.98048,9.59002c-11.17264,2.22641 -31.26367,3.4233 -31.26367,3.4233z" fill="#000000" stroke="none" stroke-width="0" stroke-linecap="butt"/><g stroke="none" stroke-width="0" stroke-linecap="butt"><g><path d="M291.31129,161.31907c2.96335,6.86532 1.60287,24.1105 -2.09632,29.8857c-0.34303,0.53555 -3.48057,12.37296 -11.16622,22.66215c-5.77332,7.72911 -17.11004,14.48238 -18.19621,15.48068c-3.26819,3.00377 -16.64189,9.70587 -20.63492,9.65978c-4.30383,-0.04969 -18.03434,-7.68716 -21.36128,-10.95474c-1.97448,-1.93924 -17.77302,-17.15765 -20.60218,-20.8605c-3.10997,-4.07046 -6.35273,-15.69969 -6.80302,-16.45308c-5.61904,-9.40184 -1.89187,-16.17607 -2.20285,-17.33858c-0.71293,-2.66496 2.86145,-16.38299 5.0354,-20.20944c1.99516,-3.51182 4.80856,-6.36185 4.80856,-6.4375c0,-0.02637 -15.00311,21.24307 -4.70502,36.89255c10.61744,16.13475 46.55149,26.66474 46.93946,26.66474c0.55942,0 31.07995,-8.65511 36.61311,-16.91362c12.56482,-18.75364 5.77063,-46.70822 5.77063,-46.64369c0,0.11873 5.22831,6.75242 8.60078,14.56552z" data-paper-data="{&quot;index&quot;:null}" fill="#5f7e7b"/><path d="M199.02765,181.21176l40.98601,20.54508l39.89487,-20.37709l10.2124,0.17797v0.90175c0,0 -15.23496,19.41609 -24.7237,26.72048c-6.59515,5.07691 -25.72265,13.39183 -25.72265,13.39183c0,0 -21.45283,-9.52165 -28.7097,-15.33065c-8.90533,-7.1286 -21.82937,-24.78166 -21.82937,-24.78166v-0.90175z" data-paper-data="{&quot;index&quot;:null}" fill="#bdd2e4"/><path d="M199.02767,181.21176l40.98601,20.5451l39.89485,-20.37712l10.2124,0.17797v0.90175l-51.13511,25.60963l-49.85028,-25.60963v-0.90175z" data-paper-data="{&quot;index&quot;:null}" fill="#304d47"/></g><g><path d="M291.41787,152.61058c0,0.13166 -50.1286,-28.0904 -52.72004,-28.0904c-1.08241,0 -55.69009,28.41703 -55.69009,28.34114c0,-0.10713 -12.24191,-2.78952 -15.0676,-7.7632c-3.07886,-5.41927 -5.27299,-26.30199 -4.26332,-30.07627c0.44045,-1.64641 0.42165,-15.13177 8.37966,-28.44728c7.59825,-12.71349 14.0593,-18.55052 17.97707,-21.1614c0.46423,-0.30939 13.89698,-9.16484 23.54927,-13.44335c8.49289,-3.76454 25.9465,-6.41013 26.95512,-6.02011c1.11823,0.43239 10.65987,0.92843 17.93121,3.78757c8.8344,3.47371 16.3384,5.65996 20.31598,8.75722c22.78827,17.7448 28.83974,27.97891 30.21742,30.12982c2.85408,4.45586 8.44126,21.16513 7.45363,37.33307c-0.82527,13.50996 -12.15127,30.784 -14.06177,35.21014c-4.7763,11.06537 -10.97649,-8.72505 -10.97649,-8.55693z" fill="#000000"/><path d="M292.21901,171.69147c0,0.13166 -50.12862,-28.09042 -52.72004,-28.09042c-1.08244,0 -55.6901,28.41703 -55.6901,28.34114c0,-0.10713 -6.48514,-5.14642 -9.3108,-10.12009c-3.07888,-5.41929 -6.71219,-21.58816 -5.70251,-25.36247c0.44045,-1.6464 -1.49731,-17.48868 6.46073,-30.80418c7.59825,-12.71349 15.01877,-18.88724 18.93654,-21.49811c0.46423,-0.30939 11.86735,-7.53319 21.51962,-11.81167c8.49289,-3.76454 24.618,-7.70508 25.62662,-7.31509c1.11823,0.43239 10.65988,0.92843 17.93121,3.78757c8.8344,3.47371 14.41944,7.34348 18.39704,10.44074c22.78827,17.74481 26.44108,30.33582 27.81879,32.48673c5.23897,8.1792 3.82521,32.85364 -0.37166,42.57673c-4.7763,11.06537 -12.89545,17.20099 -12.89545,17.36913z" fill="#304d47"/><path d="M290.83761,181.13641c0,0.11352 -50.32364,-25.30981 -52.55881,-25.30981c-0.93361,0 -50.80682,25.37526 -50.80682,25.30981c0,-0.0924 -3.4367,-3.5739 -5.87392,-7.86376c-2.65561,-4.67425 -7.02189,-21.43153 -6.151,-24.68693c0.37987,-1.42003 -0.6752,-13.78677 6.18875,-25.27164c6.55364,-10.96564 20.96508,-21.04823 24.34425,-23.30018c0.40041,-0.26682 6.53836,-4.98372 14.86366,-8.67399c7.32524,-3.24701 17.63425,-5.56449 18.50423,-5.22812c0.93563,0.36178 9.40386,1.74171 15.53858,3.86951c7.87238,2.73051 14.33864,6.53048 17.85386,9.2677c19.6553,15.30522 24.0384,25.73269 25.22673,27.5879c4.51871,7.0547 6.99677,28.12063 3.37687,36.50697c-4.11966,9.54412 -10.50631,17.64753 -10.50631,17.79254z" fill="#5f7e7b"/><path d="M291.54753,181.93296c0,0.11352 -50.32365,-25.30981 -52.55882,-25.30981c-0.93361,0 -50.8068,25.37525 -50.8068,25.30981c0,-0.0924 -3.43673,-3.57388 -5.87394,-7.86375c-2.65561,-4.67425 -2.77117,-12.18302 -1.90031,-15.43843c2.68287,-10.02884 11.58482,-25.97964 30.42672,-36.5675c1.66721,-0.93685 6.62834,-4.29381 12.86051,-6.87133c6.18905,-2.55966 13.64732,-4.34328 15.8618,-4.3377c1.33343,0.04072 10.26155,1.69237 17.65327,5.00166c6.63117,2.96879 12.56559,7.0497 13.62701,7.81342c5.43124,3.90818 9.60282,8.37849 13.9736,13.04883c3.24125,3.46339 6.17231,7.45189 8.76563,11.50063c9.66128,15.08335 -2.0286,33.44169 -2.0286,33.71413z" fill="#8ea6b2"/><path d="M188.69447,182.43087v-0.90645l50.11006,-25.74307l51.40154,25.74307v0.90645l-10.26559,0.1789l-40.10274,-20.48329l-41.19954,20.65215z" fill="#0a1d1e"/><path d="M291.44586,182.07784c0,0.11352 -50.32363,-25.30981 -52.55881,-25.30981c-0.93363,0 -50.80682,25.37525 -50.80682,25.30981c0,-0.62249 1.24424,-47.18646 51.6828,-46.21345c48.97251,0.94475 51.6828,45.59094 51.6828,46.21345z" fill="#d3ebfe"/></g></g><path d="M225.70877,190.14067c0,0 1.00405,-13.32001 13.69671,-12.93578c13.0929,0.39634 14.73187,13.62175 14.73187,13.62175c0,0 -9.35506,5.85145 -14.14744,5.73582c-4.79238,-0.11563 -14.28114,-6.42179 -14.28114,-6.42179z" fill="#000000" stroke="#000000" stroke-width="2" stroke-linecap="round"/><path d="M228.51593,190.91244c0,0 6.87045,2.02906 11.26361,2.18904c4.25881,0.15508 10.9041,-0.91646 10.9041,-0.91646c0,0 -7.2807,3.88976 -10.90775,3.74692c-3.62705,-0.14284 -11.25996,-5.0195 -11.25996,-5.0195z" fill="#ffffff" stroke="none" stroke-width="0" stroke-linecap="butt"/></g></g></svg>