<svg version="1.1" xmlns="http://www.w3.org/2000/svg" xmlns:xlink="http://www.w3.org/1999/xlink" width="14.16287" height="23.81414" viewBox="0,0,14.16287,23.81414"><g transform="translate(-239.89762,-170.74301)"><g data-paper-data="{&quot;isPaintingLayer&quot;:true}" fill-rule="nonzero" stroke="none" stroke-linecap="butt" stroke-linejoin="miter" stroke-miterlimit="10" stroke-dasharray="" stroke-dashoffset="0" style="mix-blend-mode: normal"><path d="M252.30668,177.64296c1.1061,1.29045 1.65915,2.89693 1.65915,4.87211c0,1.97518 -0.55305,3.58165 -1.65915,4.84577c-1.1061,1.26411 -2.52823,1.89617 -4.24005,1.89617c-1.94885,0 -3.47632,-0.79006 -4.60875,-2.34387v2.10685h-3.42364v-18.27698h3.42364v7.34767c1.13243,-1.55381 2.68624,-2.34388 4.60875,-2.34388c1.71182,0 3.10762,0.63206 4.24005,1.89617zM250.46317,182.51509c0,-2.2122 -1.47479,-3.79235 -3.47631,-3.79235c-2.08052,0 -3.52899,1.58015 -3.52899,3.79235c0,2.18587 1.50114,3.76601 3.52899,3.76601c2.00151,0 3.47631,-1.58014 3.47631,-3.76601z" fill="#000000" stroke-width="0.35808"/><path d="M239.89762,194.55715v-23.65909h14.16287v23.65909z" fill-opacity="0.00403" fill="#808080" stroke-width="0"/></g></g></svg>