<svg version="1.1" xmlns="http://www.w3.org/2000/svg" xmlns:xlink="http://www.w3.org/1999/xlink" width="34.17311" height="34.17311" viewBox="0,0,34.17311,34.17311"><g transform="translate(-222.91346,-162.91346)"><g data-paper-data="{&quot;isPaintingLayer&quot;:true}" stroke-miterlimit="10" stroke-dasharray="" stroke-dashoffset="0" style="mix-blend-mode: normal"><path d="M229.98313,162.91347h20.03379c3.9166,0 7.06966,3.15307 7.06966,7.06966v20.03379c0,3.91659 -3.15306,7.06966 -7.06966,7.06966h-20.03379c-3.91659,0 -7.06966,-3.15307 -7.06966,-7.06966v-20.03379c0,-3.91659 3.15307,-7.06966 7.06966,-7.06966z" fill-opacity="0.13218" fill="#1a1a1a" fill-rule="evenodd" stroke="none" stroke-width="4.43922" stroke-linecap="round" stroke-linejoin="round"/><path d="M235.11646,190.17221c-5.13653,-2.92247 -7.35709,-8.66173 -2.36474,-17.43624c1.23875,-2.17722 3.72954,-4.99921 3.72954,-4.99921c0,0 2.90491,-5.09577 11.02636,-0.40807c8.09372,4.67168 5.95365,10.27055 5.95365,10.27055c0,0 -1.60225,3.27173 -2.99518,5.71995c0,0 -7.90775,11.81485 -15.34963,6.85303z" fill="#ffffff" fill-rule="nonzero" stroke="none" stroke-width="0" stroke-linecap="butt" stroke-linejoin="miter"/><path d="M230.3362,190.20968c0,0 -3.58134,-2.92879 -3.45966,-7.48781c-0.20102,-2.90598 2.4606,-7.86067 4.14035,-10.32751c1.70568,-2.50493 2.67215,-3.12774 2.67215,-3.12774c0,0 0.73531,-0.19973 0.62749,1.10927c-0.06685,0.81157 -1.17194,2.86498 -1.11335,3.60961c0.14542,1.84794 1.3119,3.7847 1.3119,3.7847c0,0 -1.98929,2.30374 -2.05668,5.07696c-0.25647,1.95556 1.76512,3.76675 1.76512,3.76675z" fill="#bfbfbf" fill-rule="nonzero" stroke="none" stroke-width="0" stroke-linecap="butt" stroke-linejoin="miter"/><path d="M237.33584,188.42223c0,0 2.53216,0.97741 4.15745,-0.13991c2.43956,-1.32056 3.58733,-4.13962 3.58733,-4.13962c0,0 2.25535,0.15869 3.96746,-0.55176c0.81811,-0.33948 2.00578,-2.15203 2.74062,-2.65063c0.88432,-0.60003 1.24348,0.13653 1.24348,0.13653c0,0 -0.88128,1.67896 -2.16552,4.18679c-1.37885,2.69257 -3.75268,6.28125 -6.86245,7.97424c-3.10978,1.693 -8.10425,0.28133 -8.10425,0.28133z" data-paper-data="{&quot;index&quot;:null}" fill="#bfbfbf" fill-rule="nonzero" stroke="none" stroke-width="0" stroke-linecap="butt" stroke-linejoin="miter"/><path d="M237.33343,184.67023l-2.81833,4.76199" fill="none" fill-rule="nonzero" stroke="#bfbfbf" stroke-width="8" stroke-linecap="round" stroke-linejoin="miter"/><path d="M237.25804,184.7674l-2.64577,4.47045" fill="none" fill-rule="nonzero" stroke="#ffffff" stroke-width="4" stroke-linecap="round" stroke-linejoin="miter"/></g></g></svg>