<svg version="1.1" xmlns="http://www.w3.org/2000/svg" xmlns:xlink="http://www.w3.org/1999/xlink" width="141.5456" height="225.99638" viewBox="0,0,141.5456,225.99638"><g transform="translate(-151.94897,-81.84889)"><g data-paper-data="{&quot;isPaintingLayer&quot;:true}" fill-rule="nonzero" stroke-linejoin="miter" stroke-miterlimit="10" stroke-dasharray="" stroke-dashoffset="0" style="mix-blend-mode: normal"><path d="M285.91286,151.18709c-0.00696,0.66792 3.00155,7.34322 4.32233,10.41187c2.22494,5.16941 3.25937,7.49297 3.25937,7.49297c0,0 -2.62984,-1.69438 -4.78648,-3.6168c-2.12115,-1.89081 -3.76803,-4.01835 -3.95985,-3.05645c-0.45855,2.29935 -0.70921,10.91563 -4.33576,19.87357c-3.5863,8.85852 -10.55145,18.07245 -10.55145,18.07245c0,0 -2.23679,-5.30998 -3.74383,-3.18071c-6.16818,8.71492 -11.45506,15.19121 -11.45506,15.19121c0,0 -2.35783,-5.00198 -4.43059,-3.91396c-9.37742,4.92236 -20.14409,7.70162 -31.73407,7.58104c-12.60588,-0.13116 -24.73354,-3.82387 -35.16999,-9.89388c-2.71218,-1.57746 -0.87185,4.37906 -0.87185,4.37906c0,0 -5.2053,-3.48546 -9.92374,-7.93809c0.85884,-0.50088 1.67526,-1.06326 2.44017,-1.68894c4.67976,-3.82807 7.82109,-8.80545 10.00362,-14.36134c1.06104,-2.70101 0.71105,-6.18932 1.71112,-8.86755c0.66803,-1.78896 2.60268,-3.9416 3.509,-5.70806c1.27576,-2.4865 1.53471,-5.38345 2.60256,-7.89421c1.64583,-3.86979 5.77196,-7.52571 8.08356,-11.3153c1.3532,-2.2184 1.54049,-4.92852 2.73369,-7.13765c2.57764,-4.77228 5.44122,-10.00442 8.44866,-14.53126c4.09253,-6.16011 9.96121,-8.01268 16.29679,-10.8523c5.27403,-2.36383 11.52122,-7.92405 15.30375,-12.03876c2.07871,-2.26127 3.45621,-5.27228 5.58794,-7.43087c1.24013,-1.25573 2.53069,-2.43117 3.81803,-3.58409c1.11734,-0.69958 -3.77721,-6.0473 -2.78726,-6.90962c0.6895,-0.60063 2.12412,-0.94441 4.36022,-0.37788c0.65823,0.16676 3.92034,2.63094 4.09647,2.42727c18.43413,13.47824 27.40786,36.26156 27.17265,58.86825z" fill="#000000" stroke="#000000" stroke-width="0" stroke-linecap="butt"/><g stroke-width="0" stroke-linecap="butt"><path d="M206.05945,307.74998l15.14285,-131.8421l37.78325,-0.15789l13.57389,132z" fill="#000000" stroke="#000000"/><path d="M237.86053,307.84528v-137.69052h2.89786v137.69052z" fill="#d4ecfe" stroke="none"/><g data-paper-data="{&quot;index&quot;:null}" stroke="none"><path d="M260.79949,267.87462c-2.82971,2.26974 -5.76,4.02615 -7.07092,4.26265c-3.41372,0.61588 -6.73254,-0.90333 -7.40741,-1.85325c-1.02654,-1.44494 -3.78651,-3.4163 -4.9271,-5.49736c-1.61951,-2.95484 -1.51265,-6.01085 -1.7779,-7.06306c-1.33569,-5.29849 2.84048,-13.39498 1.79618,-15.19346c-0.18906,-0.32559 5.8989,-4.25338 6.82929,-7.43072c2.94376,-10.05294 10.38032,-19.81725 10.38032,-19.81725l8.58874,-2.83019c0,0 3.38234,-1.23873 5.15595,-1.59188c1.99144,-0.39653 6.21506,-0.67228 6.21506,-0.67228c0,0 0.10813,5.79893 -0.67463,13.44219c-0.40573,3.96176 -1.4199,8.41904 -2.03172,12.8211c-0.59626,4.29009 -1.65683,8.78347 -3.28624,13.06181c-1.47415,3.87067 -3.52839,7.65102 -4.04417,9.38718c-0.73548,2.47576 -4.19751,6.12863 -7.74548,8.9745z" fill="#031718"/><path d="M247.5204,262.28198c-3.30193,-2.31725 -6.18033,-6.84652 -6.86149,-9.5486c-1.33569,-5.29849 -1.44923,-14.10344 -2.49353,-15.9019c-0.18906,-0.32559 5.8989,-4.25338 6.82929,-7.43072c2.94376,-10.05294 10.38032,-19.81725 10.38032,-19.81725l8.58874,-2.83019c0,0 3.38237,-1.23873 5.15596,-1.59188c1.99144,-0.39653 6.21506,-0.67228 6.21506,-0.67228c0,0 -0.91416,13.36848 -2.70635,26.26329c-1.13571,8.17141 -6.24454,18.79382 -7.3304,22.449c-1.32208,4.45031 -4.55173,8.04242 -7.71301,9.59223c-2.35259,1.15336 -5.00509,0.80687 -5.00509,0.80687c0,0 -3.31697,-0.09569 -5.05949,-1.31856z" fill="#2c4c45"/><path d="M247.68596,250.4716c-2.80465,-2.75464 -5.2322,-8.46436 -7.09012,-11.66401c-0.18906,-0.32559 0.49308,18.41702 0.06583,24.12662c-0.06779,0.90588 -2.31276,0.1266 -2.34043,0.12411c-0.45049,-0.04054 0.03042,-25.11239 -0.03211,-25.79354c-0.18483,-2.01308 -0.24764,-8.37813 0.68276,-11.55548c2.94376,-10.05294 10.38032,-19.81725 10.38032,-19.81725l8.58874,-2.83019l11.371,-2.26416c0,0 -0.03098,13.72271 -1.82317,26.61751c-1.13571,8.17141 -3.84736,16.07811 -4.93322,19.73329c-2.30595,7.76219 -9.81625,6.85688 -9.81625,6.85688c0,0 -2.75288,-1.27431 -5.05336,-3.53379z" fill="#789396"/><path d="M254.43288,246.87331c-8.90435,0.70447 -9.55647,-20.71703 -9.55647,-20.71703l0.3629,-19.69816l16.93554,-1.3585l-0.72582,21.28307c0,0 -0.02502,19.93751 -7.01614,20.49062z" fill="#a7bccd"/></g><g stroke="none"><path d="M210.22173,258.85559c-0.51577,-1.73615 -2.57002,-5.51651 -4.04417,-9.38718c-1.62941,-4.27833 -2.68998,-8.7717 -3.28624,-13.06181c-0.61182,-4.40208 -1.62599,-8.85934 -2.03172,-12.8211c-0.78276,-7.64325 -0.67463,-13.44219 -0.67463,-13.44219c0,0 4.22361,0.27575 6.21506,0.67228c1.77359,0.35315 5.15595,1.59188 5.15595,1.59188l8.58874,2.83019c0,0 7.43658,9.7643 10.38032,19.81725c0.93041,3.17734 7.01835,7.10513 6.82929,7.43072c-1.04431,1.79847 3.13187,9.89496 1.79618,15.19346c-0.26525,1.05219 -0.15839,4.10822 -1.7779,7.06306c-1.14061,2.08106 -3.90056,4.05242 -4.9271,5.49736c-0.67487,0.94992 -3.99369,2.46912 -7.40739,1.85325c-1.31092,-0.2365 -4.24119,-1.99291 -7.07092,-4.26265c-3.54798,-2.84588 -7.01001,-6.49874 -7.74548,-8.9745z" fill="#031718"/><path d="M226.18694,263.55601c0,0 -2.6525,0.34648 -5.00509,-0.80687c-3.16128,-1.54982 -6.39095,-5.14191 -7.71301,-9.59223c-1.08586,-3.65517 -6.1947,-14.27758 -7.33041,-22.449c-1.79219,-12.8948 -2.70634,-26.26329 -2.70634,-26.26329c0,0 4.22361,0.27575 6.21506,0.67228c1.77359,0.35315 5.15595,1.59188 5.15595,1.59188l8.58874,2.83019c0,0 7.43657,9.7643 10.38032,19.81725c0.93041,3.17734 7.01836,7.10513 6.82931,7.43072c-1.04431,1.79847 -1.15784,10.60341 -2.49353,15.9019c-0.68117,2.70207 -3.55955,7.23134 -6.86149,9.5486c-1.74251,1.22287 -5.05949,1.31856 -5.05949,1.31856z" fill="#2c4c45"/><path d="M226.02751,253.96086c0,0 -7.5103,0.90531 -9.81625,-6.85688c-1.08586,-3.65517 -3.7975,-11.56188 -4.93322,-19.73329c-1.79219,-12.8948 -1.82317,-26.61751 -1.82317,-26.61751l11.371,2.26416l8.58874,2.83019c0,0 7.43657,9.7643 10.38032,19.81725c0.93041,3.17734 0.86759,9.54238 0.68276,11.55548c-0.06255,0.68115 0.41837,25.75299 -0.03211,25.79354c-0.02769,0.00249 -2.27265,0.78176 -2.34043,-0.12411c-0.42725,-5.70959 0.25488,-24.45221 0.06583,-24.12662c-1.85792,3.19964 -4.28548,8.90937 -7.09012,11.66401c-2.30049,2.25948 -5.05336,3.53379 -5.05336,3.53379z" fill="#789396"/><path d="M217.3178,226.33816l-0.7258,-21.28307l16.93553,1.3585l0.36291,19.69816c0,0 -0.65213,21.42151 -9.55647,20.71704c-6.99114,-0.5531 -7.01614,-20.49062 -7.01614,-20.49062z" fill="#a7bccd"/></g><g stroke="none"><path d="M218.03628,200.45174c0,-0.79453 -1.95838,-2.95796 -1.83482,-3.71757c1.11538,-6.85671 9.08741,-10.70693 16.25932,-10.70693c7.96643,0 14.42449,4.00963 14.42449,11.97605c0,0.71595 -0.49274,13.58949 -0.58169,13.8089c-1.93988,4.78556 2.67859,13.62621 -1.02453,16.88156c-0.99383,0.87367 -5.25422,1.98404 -8.0291,1.54355c-0.8339,-0.13239 -4.91604,-0.38615 -7.49161,-2.22335c-4.87431,-3.47692 -9.29947,-10.15159 -10.85504,-15.02945c-1.57411,-4.93598 -0.86702,-9.35939 -0.86702,-12.53276z" fill="#031718"/><path d="M230.67621,201.59464c0,-7.96643 6.45807,-14.42449 14.42449,-14.42449c7.96643,0 14.42449,4.00963 14.42449,11.97605c0,0.71595 -0.49274,13.58949 -0.58169,13.8089c-2.91308,7.18633 -10.4814,16.31531 -14.69444,16.37077c-4.79265,0.06309 -10.3283,-7.74316 -12.70584,-15.19846c-1.57411,-4.93598 -0.86702,-9.35939 -0.86702,-12.53276z" fill="#142d2b"/></g></g><path d="M153.92047,146.81359c0.34647,-33.30005 29.38568,-59.99586 64.86089,-59.62674c35.4752,0.3691 63.95268,27.66335 63.60621,60.96338c-0.34647,33.30005 -29.38568,59.99586 -64.86089,59.62674c-35.4752,-0.3691 -63.95268,-27.66335 -63.60621,-60.96338z" fill="#ffffff" stroke="#000000" stroke-width="2" stroke-linecap="butt"/><path d="M154.64293,146.87495c0.00757,-0.72795 4.62459,55.97053 62.7647,57.5904c55.55043,1.54772 64.11308,-57.28922 64.10248,-56.27042c-0.3413,32.80302 -29.01816,59.09963 -64.05157,58.73513c-35.03339,-0.3645 -63.15691,-27.25209 -62.81561,-60.0551z" fill="#e6e6e6" stroke="#000000" stroke-width="0" stroke-linecap="butt"/><path d="M167.46552,147.38401c0.13492,-12.9673 10.75638,-23.37001 23.72367,-23.23509c12.9673,0.13492 23.37001,10.75638 23.23509,23.72367c-0.13492,12.9673 -10.75638,23.37001 -23.72367,23.23509c-12.9673,-0.13492 -23.37001,-10.75638 -23.23509,-23.72367z" fill="#ffffff" stroke="#000000" stroke-width="2" stroke-linecap="butt"/><path d="M174.53336,147.18192c0.09496,-9.12758 7.57132,-16.44995 16.69889,-16.35499c9.12758,0.09496 16.44996,7.57132 16.35499,16.6989c-0.09496,9.12758 -7.57132,16.44996 -16.6989,16.35499c-9.12758,-0.09496 -16.44995,-7.57133 -16.35498,-16.6989z" fill="#000000" stroke="none" stroke-width="0" stroke-linecap="butt"/><path d="M245.20907,169.185c-12.9673,-0.13492 -23.37001,-10.75638 -23.23509,-23.72367c0.13492,-12.9673 10.75638,-23.37001 23.72367,-23.23509c12.9673,0.13492 23.37001,10.75638 23.23509,23.72367c-0.13492,12.9673 -10.75638,23.37001 -23.72367,23.23509z" data-paper-data="{&quot;index&quot;:null}" fill="#ffffff" stroke="#000000" stroke-width="2" stroke-linecap="butt"/><path d="M252.69504,161.79414c-9.12757,-0.09496 -16.44995,-7.57133 -16.35498,-16.6989c0.09496,-9.12758 7.57132,-16.44996 16.69889,-16.35499c9.12757,0.09496 16.44995,7.57133 16.35498,16.6989c-0.09496,9.12758 -7.57132,16.44996 -16.69889,16.35499z" data-paper-data="{&quot;index&quot;:null}" fill="#000000" stroke="none" stroke-width="0" stroke-linecap="butt"/><path d="M167.46552,147.38401c0.13492,-12.9673 10.75638,-23.37001 23.72367,-23.23509c12.9673,0.13492 23.37001,10.75638 23.23509,23.72367c0,0 -46.97158,0.7429 -46.95878,-0.48858z" fill="#ffffff" stroke="#000000" stroke-width="2" stroke-linecap="butt"/><path d="M180.4022,118.7086c0,0 6.76237,-5.09914 11.86278,-6.24047c5.10041,-1.14132 12.32618,0.82766 12.32618,0.82766c0,0 -8.03706,-0.1439 -11.97594,0.73751c-4.11628,0.92112 -12.21302,4.67531 -12.21302,4.67531z" fill="#000000" stroke="none" stroke-width="0" stroke-linecap="butt"/><path d="M245.51753,121.0342c-3.91969,-0.96318 -11.95801,-0.98654 -11.95801,-0.98654c0,0 7.26517,-1.81821 12.34074,-0.571c5.07557,1.2472 11.73036,6.48594 11.73036,6.48594c0,0 -8.01687,-3.92184 -12.1131,-4.92841z" data-paper-data="{&quot;index&quot;:null}" fill="#000000" stroke="none" stroke-width="0" stroke-linecap="butt"/><path d="M267.67623,102.66937c0.94207,0.90069 -11.22651,5.46441 -18.33724,7.33108c-10.28192,2.69916 -6.98768,-12.05828 1.88871,-15.11391c4.36641,-1.50312 15.31847,6.7024 16.44855,7.78283z" fill="#000000" stroke="none" stroke-width="0" stroke-linecap="butt"/><path d="M256.11007,88.41516c-0.00168,0.16197 4.22299,3.61829 -1.35143,7.97828c-2.16855,1.69609 -7.26086,17.31433 -10.11585,19.41264c-1.94536,1.42974 -16.07955,13.51751 -18.24464,14.95057c-1.74041,1.15198 -0.90727,8.94883 -2.66612,10.01266c-1.91445,1.15797 -4.13693,4.38041 -6.07857,5.36898c-1.51898,0.77339 -1.43674,25.99986 -2.95626,26.66119c-3.21006,1.39709 -8.9219,10.86285 -12.10538,10.98844c-1.21287,0.04785 -1.91231,2.65266 -5.09765,4.31735c-5.22547,2.73089 -11.97011,4.58208 -13.7909,3.83623c-0.56748,-0.23245 -0.60854,1.8905 -1.16724,4.51138c-0.25898,1.21497 0.08089,2.89555 -6.6651,3.32633c-3.72229,0.23771 -4.51333,-1.21226 -7.65535,-1.72142c-3.59228,-0.58215 -3.28472,-1.90093 -3.47876,-2.70387c-0.39978,-1.65451 -2.9075,-3.15688 -1.18526,-5.12877c0.46881,-0.53677 2.00694,-6.87414 5.22106,-14.96583c4.6682,-11.75245 -1.69068,-19.2837 -1.95959,-19.28649c-2.12711,-0.02213 68.52528,-62.65105 68.53373,-63.46264c0.00392,-0.37689 3.61557,-2.6197 7.18707,-3.78639c1.85956,-0.60744 5.6147,-1.78933 8.28928,-1.79748c3.25026,-0.00991 5.28941,1.25039 5.28695,1.48885z" fill="#2c4c45" stroke="none" stroke-width="0" stroke-linecap="butt"/><path d="M151.95309,142.70595c0.3536,-33.9857 25.94414,-56.77303 62.14978,-56.39633c19.61006,0.20403 13.04246,3.28925 17.65402,4.92586c3.90267,1.38505 6.23462,6.62293 9.97088,3.92386c1.18146,-0.85346 2.18375,-1.43726 3.02349,-1.79152c8.05206,-3.39676 1.15517,14.31259 -6.10137,17.74419c-2.49414,1.17946 -3.74506,5.20053 -8.54725,8.57333c-6.22538,4.37236 -7.63312,15.56793 -14.09952,16.96601c-2.56962,0.55557 -0.28454,3.60872 -0.73754,10.40848c-0.6023,9.04045 -3.04517,20.52876 -4.88184,23.21849c-2.78293,4.0755 -8.2127,13.4964 -15.09211,15.27931c-5.8209,1.50857 -10.17461,1.73346 -13.04766,5.1316c-2.59987,3.07504 -3.82464,3.79714 -5.80457,5.92888c-2.49684,2.68833 -24.83988,-19.9265 -24.48627,-53.91218z" fill="#8fa7b3" stroke="#000000" stroke-width="0" stroke-linecap="butt"/><path d="M218.14945,81.85149c20.57274,0.21406 33.98152,10.87966 33.95487,11.37418c-0.20236,3.75501 -4.6035,12.34467 -9.29085,17.43323c-1.79006,1.94329 -2.56401,5.52625 -4.39336,6.72902c-2.01847,1.32711 -5.11006,0.30232 -7.49302,3.29035c-7.92573,9.93829 -8.63939,18.72693 -18.62714,18.3077c-33.79618,-1.41856 -43.02294,-26.98749 -46.30847,-33.40486c11.3105,-13.95358 34.17325,-23.91673 52.15798,-23.72962z" fill="#bed3e5" stroke="#000000" stroke-width="0" stroke-linecap="butt"/><path d="M167.46552,147.38401c0.13492,-12.9673 10.75638,-23.37001 23.72367,-23.23509c12.9673,0.13492 23.37001,10.75638 23.23509,23.72367c-0.13492,12.9673 -10.75638,23.37001 -23.72367,23.23509c-12.9673,-0.13492 -23.37001,-10.75638 -23.23509,-23.72367z" fill="#000000" stroke="#000000" stroke-width="0" stroke-linecap="butt"/><path d="M174.53336,147.18192c0.09496,-9.12758 7.57132,-16.44995 16.69889,-16.35499c9.12758,0.09496 16.44996,7.57132 16.35499,16.6989c-0.09496,9.12758 -7.57132,16.44996 -16.6989,16.35499c-9.12758,-0.09496 -16.44995,-7.57133 -16.35498,-16.6989z" fill="#de6000" stroke="none" stroke-width="0" stroke-linecap="butt"/><path d="M204.61389,198.07667c-5.30879,0.08009 -4.19514,-8.67417 -4.19514,-8.67417c0,0 10.34756,-2.54925 14.506,-2.76887c4.19937,-0.22178 12.73394,0.72945 12.73394,0.72945c0,0 -13.94021,10.57623 -23.0448,10.71359z" fill="#ffffff" stroke="#000000" stroke-width="2" stroke-linecap="round"/><path d="M226.19695,188.14422c0,0 -13.20603,4.27569 -17.82131,4.14924c-4.40194,-0.12062 -7.26638,-1.98982 -7.26638,-1.98982" fill="none" stroke="#000000" stroke-width="0.5" stroke-linecap="round"/><path d="M222.21652,148.80967c-1.75054,-12.84931 7.24681,-24.68483 20.09611,-26.43535c12.84931,-1.75054 24.68483,7.24681 26.43535,20.09611c0.08206,0.60236 -11.32027,4.1732 -22.99332,5.60959c-11.63372,1.43154 -23.53815,0.72965 -23.53815,0.72965z" data-paper-data="{&quot;index&quot;:null}" fill="#ffffff" stroke="#000000" stroke-width="2" stroke-linecap="butt"/></g></g></svg>