<svg version="1.1" xmlns="http://www.w3.org/2000/svg" xmlns:xlink="http://www.w3.org/1999/xlink" width="34.17311" height="34.17311" viewBox="0,0,34.17311,34.17311"><g transform="translate(-222.91346,-162.91346)"><g data-paper-data="{&quot;isPaintingLayer&quot;:true}" stroke-miterlimit="10" stroke-dasharray="" stroke-dashoffset="0" style="mix-blend-mode: normal"><path d="M229.98313,162.91347h20.03379c3.9166,0 7.06966,3.15307 7.06966,7.06966v20.03379c0,3.91659 -3.15306,7.06966 -7.06966,7.06966h-20.03379c-3.91659,0 -7.06966,-3.15307 -7.06966,-7.06966v-20.03379c0,-3.91659 3.15307,-7.06966 7.06966,-7.06966z" fill-opacity="0.59677" fill="#5e807a" fill-rule="evenodd" stroke="none" stroke-width="4.43922" stroke-linecap="round" stroke-linejoin="round"/><path d="M226.51666,185.30651c0,0 -0.47723,-2.13138 0.0621,-4.60995c1.55498,-7.14621 10.38127,-19.25866 21.55648,-13.52391c9.24619,4.74484 5.28901,17.5408 -0.064,22.97536c-2.97419,3.01951 -5.21818,4.17456 -5.21818,4.17456c0,0 -3.36095,-2.70563 -7.87213,-5.19534c-4.51118,-2.48973 -8.46428,-3.82073 -8.46428,-3.82073z" fill="#5e807a" fill-rule="nonzero" stroke="none" stroke-width="0" stroke-linecap="butt" stroke-linejoin="miter"/><path d="M231.95007,174.91773c1.37762,-2.2136 4.28889,-2.8913 6.50249,-1.51368c2.2136,1.37762 2.8913,4.28889 1.51368,6.50249c-1.37762,2.2136 -4.28889,2.8913 -6.50249,1.51368c-2.2136,-1.37762 -2.8913,-4.28889 -1.51368,-6.50249z" fill="#5e807a" fill-rule="nonzero" stroke="#000000" stroke-width="2" stroke-linecap="butt" stroke-linejoin="miter"/><path d="M240.28425,180.01885c1.37762,-2.2136 4.28889,-2.89131 6.50249,-1.51368c2.2136,1.37762 2.89131,4.28889 1.51368,6.50249c-1.37762,2.2136 -4.2889,2.89131 -6.5025,1.51368c-2.2136,-1.37762 -2.8913,-4.28889 -1.51368,-6.50249z" fill="#5e807a" fill-rule="nonzero" stroke="#000000" stroke-width="2" stroke-linecap="butt" stroke-linejoin="miter"/><path d="M240.484,170.53475c1.37762,-2.2136 4.28889,-2.8913 6.50249,-1.51368c2.2136,1.37762 2.89131,4.28889 1.51368,6.50249c-1.37762,2.2136 -4.2889,2.8913 -6.5025,1.51368c-2.2136,-1.37762 -2.8913,-4.28889 -1.51368,-6.50249z" fill="#5e807a" fill-rule="nonzero" stroke="#000000" stroke-width="2" stroke-linecap="butt" stroke-linejoin="miter"/><path d="M233.28635,191.93526c-1.4487,-0.96074 -3.03213,-14.22768 -3.03213,-14.22768c0,0 1.32443,2.22438 3.07958,3.26537c0.91154,0.54064 3.77293,0.1853 5.54529,1.05975c1.67179,0.82483 0.86673,2.82121 2.24394,3.80595c2.10877,1.50784 6.04113,1.89828 6.04113,1.89828c0,0 -11.72693,5.62475 -13.87781,4.19833z" fill="#000000" fill-rule="nonzero" stroke="none" stroke-width="0" stroke-linecap="butt" stroke-linejoin="miter"/></g></g></svg>