<svg version="1.1" xmlns="http://www.w3.org/2000/svg" xmlns:xlink="http://www.w3.org/1999/xlink" width="182.72392" height="252.40112" viewBox="0,0,182.72392,252.40112"><g transform="translate(-147.92375,-48.45559)"><g data-paper-data="{&quot;isPaintingLayer&quot;:true}" fill-rule="nonzero" stroke-linejoin="miter" stroke-miterlimit="10" stroke-dasharray="" stroke-dashoffset="0" style="mix-blend-mode: normal"><g stroke-linecap="butt"><path d="M302.46416,197.13263c0,8.63769 -29.45249,3.89725 -63.0435,3.89725c-33.59102,0 -62.72614,4.42307 -62.72614,-4.21462c0,-8.63769 28.50038,-32.46051 62.0914,-32.46051c33.59102,0 63.67824,24.14019 63.67824,32.77788z" fill="#0a1d1e" stroke="none" stroke-width="NaN"/><path d="M302.70362,188.80311c0,8.63769 -29.45249,3.89725 -63.0435,3.89725c-33.59102,0 -62.72614,4.42307 -62.72614,-4.21462c0,-8.63769 28.50038,-32.46051 62.0914,-32.46051c33.59102,0 63.67824,24.14019 63.67824,32.77788z" fill="#1b312f" stroke="none" stroke-width="NaN"/><path d="M206.17074,299.8567l15.14285,-131.8421l37.78325,-0.15789l13.57389,132z" fill="#000000" stroke="#000000" stroke-width="2"/><path d="M210.70582,250.92581l9.54153,-81.4385l40.32221,-0.47526l7.80275,81.91377z" fill="#1b312f" stroke="#000000" stroke-width="0"/><path d="M232.67931,207.2258c0,-3.72315 3.01821,-6.74136 6.74136,-6.74136c3.72315,0 6.74136,3.01821 6.74136,6.74136c0,3.72315 -3.01821,6.74136 -6.74136,6.74136c-3.72315,0 -6.74136,-3.01821 -6.74136,-6.74136z" fill="#ffffff" stroke="#c296e6" stroke-width="2"/><path d="M217.53412,196.46933l3.43011,-26.32765l39.37419,-0.14203l3.04102,26.1059c0,0 -8.25866,4.19603 -23.6911,4.50964c-13.71923,0.27879 -22.15424,-4.14586 -22.15424,-4.14586z" fill="#36625e" stroke="#000000" stroke-width="0"/></g><path d="M175.26065,141.21486c0,-33.30185 28.7599,-60.29833 64.23702,-60.29833c35.47712,0 64.23702,26.99649 64.23702,60.29833c0,33.30185 -28.7599,60.29833 -64.23702,60.29833c-35.47712,0 -64.23702,-26.99649 -64.23702,-60.29833z" fill="#ffffff" stroke="#000000" stroke-width="2" stroke-linecap="butt"/><path d="M175.9837,141.26869c0,-0.72799 5.20666,55.91939 63.36046,56.93429c55.56352,0.9697 63.51358,-57.95314 63.51358,-56.93429c0,32.80479 -28.40173,59.39833 -63.43702,59.39833c-35.03529,0 -63.43702,-26.59354 -63.43702,-59.39833z" fill="#d4d4d4" stroke="#000000" stroke-width="0" stroke-linecap="butt"/><path d="M201.44852,112.83586c0,0 6.70895,-5.16922 11.79721,-6.36355c5.08827,-1.19433 12.33413,0.69937 12.33413,0.69937c0,0 -8.03812,-0.06028 -11.96762,0.86207c-4.10648,0.96389 -12.16372,4.80211 -12.16372,4.80211z" fill="#000000" stroke="none" stroke-width="0" stroke-linecap="butt"/><path d="M265.38302,108.03376c-3.9295,-0.92235 -11.96762,-0.86207 -11.96762,-0.86207c0,0 7.24586,-1.8937 12.33413,-0.69937c5.08826,1.19433 11.79721,6.36355 11.79721,6.36355c0,0 -8.05724,-3.83822 -12.16372,-4.80211z" data-paper-data="{&quot;index&quot;:null}" fill="#000000" stroke="none" stroke-width="0" stroke-linecap="butt"/><g data-paper-data="{&quot;index&quot;:null}" stroke="#000000" stroke-width="0" stroke-linecap="round"><path d="M317.97087,71.23604c0,0 11.9895,20.54589 12.55288,57.65026c0.55697,36.68204 -22.78115,56.2555 -22.78115,56.2555l-10.22827,-17.66702l6.97382,-81.36126l13.48272,-14.87749z" fill="#a6bbcc"/><path d="M330.63786,128.77216c0.55697,36.68204 -22.78115,56.2555 -22.78115,56.2555l-10.22827,-17.66702c0,0 32.44604,-75.69285 33.00942,-38.58848z" fill="#5f7e7b"/><path d="M318.08501,71.12191c0,0 5.73065,9.82038 9.45429,28.1435c1.01832,5.0109 -4.76783,-1.05492 -8.63655,1.98262c-2.44678,1.9211 -2.1739,17.52588 -5.13044,9.97682c-5.00158,-12.77076 -9.17002,-25.22547 -9.17002,-25.22547l13.48272,-14.87749z" fill="#d3ebfe"/></g><g stroke="#000000" stroke-width="0" stroke-linecap="round"><path d="M160.60056,71.35017l13.48272,14.87749l6.97382,81.36126l-10.22827,17.66702c0,0 -23.33812,-19.57346 -22.78115,-56.2555c0.56338,-37.10437 12.55288,-57.65026 12.55288,-57.65026z" fill="#a6bbcc"/><path d="M180.94299,167.47478l-10.22827,17.66702c0,0 -23.33812,-19.57346 -22.78115,-56.2555c0.56338,-37.10437 33.00942,38.58848 33.00942,38.58848z" fill="#5f7e7b"/><path d="M160.48644,71.23604l13.48272,14.87749c0,0 -4.16844,12.45471 -9.17002,25.22547c-2.95654,7.54906 -2.68366,-8.05572 -5.13044,-9.97683c-3.86871,-3.03754 -9.65487,3.02827 -8.63655,-1.98262c3.72364,-18.32312 9.45429,-28.1435 9.45429,-28.1435z" fill="#d3ebfe"/></g><path d="M188.97515,143.88023c0,-12.968 10.51265,-23.48065 23.48065,-23.48065c12.968,0 23.48065,10.51265 23.48065,23.48065c0,12.968 -10.51265,23.48065 -23.48065,23.48065c-12.968,0 -23.48065,-10.51265 -23.48065,-23.48065z" fill="#ffffff" stroke="#000000" stroke-width="2" stroke-linecap="butt"/><path d="M196.04054,143.60461c0,-9.12808 7.39976,-16.52784 16.52783,-16.52784c9.12808,0 16.52784,7.39977 16.52784,16.52784c0,9.12808 -7.39977,16.52784 -16.52784,16.52784c-9.12808,0 -16.52783,-7.39977 -16.52783,-16.52784z" fill="#000000" stroke="none" stroke-width="0" stroke-linecap="butt"/><path d="M266.71423,167.36088c-12.968,0 -23.48065,-10.51265 -23.48065,-23.48065c0,-12.968 10.51265,-23.48065 23.48065,-23.48065c12.968,0 23.48065,10.51265 23.48065,23.48065c0,12.968 -10.51265,23.48065 -23.48065,23.48065z" data-paper-data="{&quot;index&quot;:null}" fill="#ffffff" stroke="#000000" stroke-width="2" stroke-linecap="butt"/><path d="M266.60167,160.13245c-9.12807,0 -16.52783,-7.39977 -16.52783,-16.52784c0,-9.12808 7.39977,-16.52784 16.52783,-16.52784c9.12807,0 16.52783,7.39977 16.52783,16.52784c0,9.12808 -7.39977,16.52784 -16.52783,16.52784z" data-paper-data="{&quot;index&quot;:null}" fill="#000000" stroke="none" stroke-width="0" stroke-linecap="butt"/><path d="M188.97514,143.88023c0,-12.968 10.51265,-23.48065 23.48065,-23.48065c12.968,0 23.48065,10.51265 23.48065,23.48065c0,0 -46.96131,1.23155 -46.96131,0z" fill="#ffffff" stroke="#000000" stroke-width="2" stroke-linecap="butt"/><path d="M243.2336,143.88023c0,-12.968 10.51265,-23.48065 23.48065,-23.48065c12.968,0 23.48065,10.51265 23.48065,23.48065c0,1.2138 -46.96131,0 -46.96131,0z" data-paper-data="{&quot;index&quot;:null}" fill="#ffffff" stroke="#000000" stroke-width="2" stroke-linecap="butt"/><path d="M161.07546,109.95427c7.69346,-39.61072 38.07106,-61.49868 78.42651,-61.49868c44.8062,0 75.54974,29.81441 79.26911,70.66806c2.26101,24.835 -19.50084,70.97994 -44.92645,60.02952c-20.75983,-8.94094 -20.86402,-8.88816 -34.80759,-8.88816c-17.10719,0 -16.24051,0.37081 -34.43901,7.47856c-22.60082,8.82715 -50.79436,-30.34963 -43.52258,-67.7893z" fill="#0a1d1e" stroke="#000000" stroke-width="0" stroke-linecap="butt"/><path d="M295.525,111.6849c0,28.6451 -26.52855,45.82256 -57.53266,45.82256c-31.00411,0 -54.74314,-17.17746 -54.74314,-45.82256c0,-28.6451 25.13379,-48.14717 56.1379,-48.14717c31.00411,0 56.1379,19.50207 56.1379,48.14717z" fill="#476761" stroke="none" stroke-width="0" stroke-linecap="butt"/><path d="M195.95073,110.67397c-8.66317,53.80421 72.96464,46.7524 41.96053,46.7524c-31.00411,0 -54.74314,-17.17746 -54.74314,-45.82256c0,-28.6451 25.13379,-48.14717 56.1379,-48.14717c31.00411,0 -34.31344,-8.93877 -43.35529,47.21733z" fill="#304d47" stroke="none" stroke-width="0" stroke-linecap="butt"/><path d="M255.99078,75.37842c0,0 7.99314,-1.80782 17.35414,6.33301c9.67012,8.40966 10.07623,17.37799 10.07623,17.37799" fill="none" stroke="#779295" stroke-width="6" stroke-linecap="round"/><path d="M188.49586,130.39519h103.21257" fill="none" stroke="#dd6000" stroke-width="15" stroke-linecap="round"/><path d="M203.39674,130.28105h73.18253" fill="#00ffff" stroke="#ffa200" stroke-width="6.5" stroke-linecap="round"/><path d="M200.15211,130.24443c0,-1.8978 1.53847,-3.43628 3.43628,-3.43628c1.8978,0 3.43628,1.53847 3.43628,3.43628c0,1.8978 -1.53847,3.43628 -3.43628,3.43628c-1.8978,0 -3.43628,-1.53847 -3.43628,-3.43628z" fill="#ffffff" stroke="none" stroke-width="NaN" stroke-linecap="butt"/><path d="M272.84402,130.28715c0,-1.89781 1.53848,-3.43628 3.43628,-3.43628c1.89781,0 3.43628,1.53847 3.43628,3.43628c0,1.89781 -1.53848,3.43628 -3.43628,3.43628c-1.8978,0 -3.43628,-1.53847 -3.43628,-3.43628z" fill="#ffffff" stroke="none" stroke-width="NaN" stroke-linecap="butt"/><g stroke="#000000" stroke-width="1.5" stroke-linecap="round"><path d="M240.1069,188.6084c-12.79225,0 -16.63474,-11.2108 -16.63474,-11.2108c0,0 10.96617,0.50117 16.50339,0.50117c5.48076,0 16.55229,-0.50117 16.55229,-0.50117c0,0 -3.62869,11.2108 -16.42094,11.2108z" fill="#ffffff"/><path d="M253.86085,181.99408c0,0 -8.70831,0.35797 -13.87365,0.35797c-5.34987,0 -13.61143,-0.35797 -13.61143,-0.35797" fill="none"/></g></g></g></svg>