<svg version="1.1" xmlns="http://www.w3.org/2000/svg" xmlns:xlink="http://www.w3.org/1999/xlink" width="163.76295" height="224.01846" viewBox="0,0,163.76295,224.01846"><g transform="translate(-149.48229,-84.48155)"><g data-paper-data="{&quot;isPaintingLayer&quot;:true}" fill-rule="nonzero" stroke-linejoin="miter" stroke-miterlimit="10" stroke-dasharray="" stroke-dashoffset="0" style="mix-blend-mode: normal"><g stroke="none" stroke-width="0" stroke-linecap="butt"><path d="" fill="#1b312f"/><path d="" fill="#1b312f"/><path d="" fill="#0a1d1e"/><path d="" fill="#1b312f"/><path d="" fill="#000000"/><path d="" fill="#304d47"/><path d="" fill="#779295"/></g><path d="" fill="#000000" stroke="none" stroke-width="1.5" stroke-linecap="butt"/><path d="" fill="#ffffff" stroke="#000000" stroke-width="1.5" stroke-linecap="butt"/><path d="" fill="#000000" stroke="none" stroke-width="1.5" stroke-linecap="butt"/><path d="" data-paper-data="{&quot;index&quot;:null}" fill="#000000" stroke="none" stroke-width="1.5" stroke-linecap="butt"/><path d="" fill="#ffffff" stroke="#000000" stroke-width="1.25" stroke-linecap="butt"/><path d="" fill="#ffffff" stroke="#000000" stroke-width="1.5" stroke-linecap="butt"/><path d="" fill="#ffffff" stroke="#000000" stroke-width="1" stroke-linecap="butt"/><path d="" fill="#000000" stroke="none" stroke-width="1.5" stroke-linecap="butt"/><path d="" fill="#ffffff" stroke="#000000" stroke-width="1.5" stroke-linecap="round"/><path d="" fill="#ffffff" stroke="#000000" stroke-width="1.5" stroke-linecap="butt"/><path d="" fill="#000000" stroke="none" stroke-width="1.5" stroke-linecap="butt"/><path d="" fill="#ffffff" stroke="#000000" stroke-width="1.25" stroke-linecap="butt"/><path d="" fill="#ffffff" stroke="#000000" stroke-width="1.25" stroke-linecap="butt"/><path d="" fill="#ffffff" stroke="#000000" stroke-width="1.25" stroke-linecap="butt"/><path d="" data-paper-data="{&quot;index&quot;:null}" fill="#ffffff" stroke="#000000" stroke-width="1" stroke-linecap="butt"/><path d="" data-paper-data="{&quot;index&quot;:null}" fill="#ffffff" stroke="#000000" stroke-width="1" stroke-linecap="butt"/><path d="" fill="none" stroke="#000000" stroke-width="0.5" stroke-linecap="round"/><path d="" data-paper-data="{&quot;index&quot;:null}" fill="none" stroke="#000000" stroke-width="0.5" stroke-linecap="round"/><path d="" data-paper-data="{&quot;index&quot;:null}" fill="#000000" stroke="none" stroke-width="0" stroke-linecap="butt"/><path d="" fill="#1b312f" stroke="none" stroke-width="0" stroke-linecap="butt"/><path d="" fill="#476761" stroke="none" stroke-width="NaN" stroke-linecap="butt"/><path d="" fill="#0a1d1e" stroke="none" stroke-width="0" stroke-linecap="butt"/><path d="" fill="#ffffff" stroke="#000000" stroke-width="1.25" stroke-linecap="butt"/><path d="" fill="#5f7e7b" stroke="none" stroke-width="0" stroke-linecap="butt"/><path d="" fill="#8ea6b2" stroke="none" stroke-width="0" stroke-linecap="butt"/><path d="" fill="#dd6000" stroke="none" stroke-width="0" stroke-linecap="butt"/><path d="" data-paper-data="{&quot;index&quot;:null}" fill="#ffa200" stroke="none" stroke-width="0" stroke-linecap="butt"/><path d="" data-paper-data="{&quot;index&quot;:null}" fill="#dd6000" stroke="none" stroke-width="0" stroke-linecap="butt"/><path d="" data-paper-data="{&quot;index&quot;:null}" fill="#ffa200" stroke="none" stroke-width="0" stroke-linecap="butt"/><path d="" data-paper-data="{&quot;index&quot;:null}" fill="#000000" stroke="none" stroke-width="0" stroke-linecap="butt"/><path d="" fill="#314e48" stroke="none" stroke-width="0" stroke-linecap="butt"/><path d="" data-paper-data="{&quot;index&quot;:null}" fill="#000000" stroke="none" stroke-width="0" stroke-linecap="butt"/><path d="" fill="#ffffff" stroke="#000000" stroke-width="1.25" stroke-linecap="butt"/><path d="M206.75008,307.5l15.14285,-131.8421l37.78325,-0.15789l13.57389,132z" fill="#000000" stroke="#000000" stroke-width="2" stroke-linecap="butt"/><path d="M212.95888,246.44665l55.19958,0.85l2.5,25.29616c0,0 -1.66293,11.71804 -11.0347,12.983c-11.43419,1.54332 -26.69856,0.66496 -36.78363,0.66496c-9.49495,0 -13.13126,-13.64795 -13.13126,-13.64795z" fill="#142d2b" stroke="none" stroke-width="0" stroke-linecap="butt"/><path d="M214.30623,233.42396l52.29961,1.8l2.6,25.79617c0,0 -0.06295,10.11804 -9.43471,11.38299c-11.43419,1.54332 -27.29854,-0.13506 -37.38361,-0.13506c-9.49495,0 -10.58127,-11.24795 -10.58127,-11.24795z" fill="#2c4c45" stroke="none" stroke-width="0" stroke-linecap="butt"/><path d="M216.45013,216.86161l47.80111,0.8l2.95,27.82971c0,0 4.02657,13.60127 -6.53144,15.02635c-13.28147,0.93869 -27.07796,-0.25088 -38.43958,-0.25088c-11.03855,0 -8.78008,-15.97547 -8.78008,-15.97547z" fill="#456761" stroke="none" stroke-width="0" stroke-linecap="butt"/><path d="M214.32652,234.06709c0,-2.65464 2.85853,-22.74471 2.85853,-22.74471l46.81546,1.41891c0,0 2.27242,19.36616 2.22294,20.30106c-0.07279,1.37517 0.53515,7.77079 -4.21066,9.92098c-4.74581,2.15019 -22.07899,2.4432 -22.07899,2.4432c0,0 -13.97444,0.07565 -19.47506,-1.30319c-3.47766,-0.87176 -6.13221,-7.11008 -6.13221,-10.03625z" fill="#142d2b" stroke="none" stroke-width="0" stroke-linecap="butt"/><path d="M224.95389,248.59997c0,0 -5.66835,-2.19556 -7.42283,-4.4065c-1.66173,-2.09407 -2.84092,-8.52761 -2.84092,-8.52761c0,0 2.79475,6.45527 6.2351,7.25302c1.23847,0.28718 10.4074,2.27239 19.52268,2.38667c9.10711,0.11417 18.16104,-1.64241 18.39514,-1.82343c4.221,-3.26375 7.88855,-7.59981 7.72526,-7.41206c-0.22572,0.25953 -0.33948,4.91952 -2.871,7.59726c-3.20849,3.39381 -8.95839,4.93266 -8.95839,4.93266z" fill="#d4ecfe" stroke="none" stroke-width="0" stroke-linecap="butt"/><path d="M237.73913,295.0492v-48.34537h4.38444v48.34537z" fill="#d4ecfe" stroke="none" stroke-width="0" stroke-linecap="butt"/><path d="M169.00364,154.87452c0,-1.65654 -5.80143,-1.9233 -5.80143,-1.9233c0,0 6.69584,-8.87746 7.35214,-11.71771c6.65986,-28.82218 23.99043,-56.21969 66.68631,-56.74538c45.68643,-0.56252 68.23702,35.01087 68.23702,70.3864c0,0.66795 3.07779,7.31159 4.43041,10.36634c2.27861,5.14598 3.33715,7.45866 3.33715,7.45866c0,0 -2.64733,-1.66693 -4.82385,-3.56682c-2.14071,-1.86864 -3.80963,-3.97893 -3.99144,-3.01508c-0.43459,2.30399 -0.59561,10.92242 -4.12876,19.9176c-3.49395,8.89536 -10.36285,18.18124 -10.36285,18.18124c0,0 -2.29192,-5.28642 -3.77673,-3.14158c-6.07718,8.77862 -11.2964,15.30957 -11.2964,15.30957c0,0 -2.40974,-4.97718 -4.47106,-3.86765c-9.32569,5.01966 -20.06286,7.91078 -31.65348,7.91078c-12.60656,0 -24.772,-3.56633 -35.27102,-9.52744c-2.72845,-1.54916 -0.82623,4.38789 -0.82623,4.38789c0,0 -7.93843,-5.19677 -13.15685,-11.00681c-6.08759,-6.77777 -9.73663,-14.57056 -12.13914,-18.68944c-0.34082,-0.58431 -4.01999,1.58785 -5.934,2.01254c-2.96082,0.65696 -4.48364,-0.08182 -4.48364,-0.08182c0,0 2.67098,-3.37669 3.55098,-5.15497c0.94364,-1.90688 1.93325,-5.92746 1.93325,-5.92746c0,0 -2.66402,1.90888 -4.05965,2.38502c-1.48595,0.50696 -4.60208,0.57008 -4.60208,0.57008c0,0 4.39229,-5.64339 5.74307,-11.5602c1.27257,-5.57422 -0.4917,-11.39111 -0.4917,-12.96047z" fill="#000000" stroke="#000000" stroke-width="0" stroke-linecap="butt"/><path d="M219.7003,204.11263l3.12142,-26.32765l35.83075,-0.14203l2.76735,26.1059c0,0 -7.51543,4.19603 -21.55904,4.50964c-12.48458,0.27879 -20.16049,-4.14586 -20.16049,-4.14586z" fill="#e6e6e6" stroke="#000000" stroke-width="0" stroke-linecap="butt"/><path d="M173.44692,151.87449c0,-33.30185 28.7599,-60.29833 64.23702,-60.29833c35.47712,0 64.23702,26.99649 64.23702,60.29833c0,33.30185 -28.7599,60.29833 -64.23702,60.29833c-35.47712,0 -64.23702,-26.99649 -64.23702,-60.29833z" fill="#ffffff" stroke="#000000" stroke-width="2" stroke-linecap="butt"/><path d="M174.16998,151.92833c0,-0.72799 5.20666,55.91939 63.36046,56.93429c55.56352,0.9697 63.51358,-57.95314 63.51358,-56.93429c0,32.80479 -28.40173,59.39833 -63.43702,59.39833c-35.03529,0 -63.43702,-26.59354 -63.43702,-59.39833z" fill="#e6e6e6" stroke="#000000" stroke-width="0" stroke-linecap="butt"/><path d="M186.99715,152.30396c0,-12.968 10.51265,-23.48065 23.48065,-23.48065c12.968,0 23.48065,10.51265 23.48065,23.48065c0,12.968 -10.51265,23.48065 -23.48065,23.48065c-12.968,0 -23.48065,-10.51265 -23.48065,-23.48065z" fill="#ffffff" stroke="#000000" stroke-width="2" stroke-linecap="butt"/><path d="M194.06252,152.02833c0,-9.12808 7.39976,-16.52784 16.52783,-16.52784c9.12808,0 16.52784,7.39977 16.52784,16.52784c0,9.12808 -7.39977,16.52784 -16.52784,16.52784c-9.12808,0 -16.52783,-7.39977 -16.52783,-16.52784z" fill="#000000" stroke="none" stroke-width="0" stroke-linecap="butt"/><path d="M252.61666,176.65643h-25.10959" fill="none" stroke="#000000" stroke-width="2" stroke-linecap="round"/><path d="M264.73622,175.7846c-12.968,0 -23.48065,-10.51265 -23.48065,-23.48065c0,-12.968 10.51265,-23.48065 23.48065,-23.48065c12.968,0 23.48065,10.51265 23.48065,23.48065c0,12.968 -10.51265,23.48065 -23.48065,23.48065z" data-paper-data="{&quot;index&quot;:null}" fill="#ffffff" stroke="#000000" stroke-width="2" stroke-linecap="butt"/><path d="M264.62365,168.55617c-9.12807,0 -16.52783,-7.39977 -16.52783,-16.52784c0,-9.12808 7.39977,-16.52784 16.52783,-16.52784c9.12807,0 16.52783,7.39977 16.52783,16.52784c0,9.12808 -7.39977,16.52784 -16.52783,16.52784z" data-paper-data="{&quot;index&quot;:null}" fill="#000000" stroke="none" stroke-width="0" stroke-linecap="butt"/><path d="M241.25558,152.30396c0,-12.968 10.51265,-23.48065 23.48065,-23.48065c12.968,0 23.48065,10.51265 23.48065,23.48065c0,1.2138 -46.96131,0 -46.96131,0z" data-paper-data="{&quot;index&quot;:null}" fill="#ffffff" stroke="#000000" stroke-width="2" stroke-linecap="butt"/><path d="M192.58498,128.24194c0,0 6.79991,-5.04897 11.90863,-6.15252c5.10873,-1.10356 12.31972,0.91884 12.31972,0.91884c0,0 -8.03577,-0.20337 -11.98107,0.64887c-4.12299,0.89064 -12.24728,4.58479 -12.24728,4.58479z" fill="#000000" stroke="none" stroke-width="0" stroke-linecap="butt"/><path d="M178.52603,122.16556c11.42496,-22.68233 31.40973,-33.07142 60.56473,-32.85267c24.16321,0.18129 39.14424,9.27509 47.64651,17.23625c0.95139,0.89084 -11.16905,5.58091 -18.25999,7.52146c-15.29703,4.18628 -30.35723,6.25195 -30.35723,6.25195l6.65013,-11.17032c0,0 -23.70536,7.34319 -34.98048,9.59002c-11.17264,2.22641 -31.26367,3.4233 -31.26367,3.4233z" fill="#000000" stroke="none" stroke-width="0" stroke-linecap="butt"/><path d="M186.99777,219.68343c0,0 -31.98749,0.71707 -34.52547,-3.32998c-1.73892,-2.77287 -2.79085,-7.47361 -2.9835,-13.20592c-0.14803,-4.40435 2.23505,-10.26357 6.48953,-13.87157c5.35121,-4.53808 25.05049,-11.55417 25.05049,-11.55417l2.09123,9.06205c0,0 -21.59147,12.9801 -19.23291,17.82467c1.35497,2.78315 15.17088,0.93627 15.17088,0.93627z" fill="#142d2b" stroke="none" stroke-width="0" stroke-linecap="butt"/><path d="M189.15643,224.30601c0,0 -6.36714,-9.70881 -8.9449,-14.63585c-2.31174,-4.41857 -5.81073,-13.5675 -5.81073,-13.5675c0,0 1.9606,-2.85932 2.47801,-4.57959c0.66964,-2.22638 1.20228,-7.65619 1.20228,-7.65619l25.51508,45.04963c0,0 -5.39281,-1.4275 -7.91892,-2.23406c-2.25669,-0.72054 -6.52085,-2.37648 -6.52085,-2.37648z" fill="#5f7f7c" stroke="none" stroke-width="0" stroke-linecap="butt"/><path d="M212.91843,243.21674l-27.15814,-41.74838l-13.48586,-26.91094c0,0 -4.41488,-8.66725 2.8691,-10.53377c9.30664,-2.38482 4.34718,-5.47715 6.45213,-5.73242c0.70965,-0.08605 3.32834,-1.73982 4.57137,0.30423c1.12029,1.84225 4.18233,7.35934 4.87418,8.02074c3.61984,3.46047 9.54791,9.85894 13.66938,9.41736c2.00315,-0.21463 13.00749,4.90953 24.94405,-8.87836c3.81825,-4.41046 8.56148,-24.75836 9.91237,-28.25933c3.56804,-9.24692 5.5337,-21.50241 28.24581,-21.69795c28.19801,1.70989 34.20194,37.38654 34.20194,37.38654l-4.44277,21.56912l-33.30807,67.13679z" fill="#2c4c45" stroke="none" stroke-width="0" stroke-linecap="butt"/><path d="M241.50358,152.20468c0,-13.19313 10.69513,-23.88826 23.88826,-23.88826c13.19313,0 23.88829,10.69515 23.88829,23.88826c0,13.19314 -10.69515,23.88827 -23.88829,23.88827c-13.19314,0 -23.88826,-10.69515 -23.88826,-23.88827z" fill="#789396" stroke="none" stroke-width="0" stroke-linecap="butt"/><path d="M240.34847,152.80342c0,-7.60173 3.42924,-15.67815 9.80372,-20.24709c4.84432,-3.47218 11.96995,-4.43507 17.2113,-4.43507c2.81486,0 -2.2675,2.59025 -7.05235,6.83189c-3.663,3.24714 -6.50424,8.2596 -7.08959,10.1785c-0.80531,2.64001 -1.94417,12.36546 2.58282,18.29944c6.41922,8.41434 17.99063,12.68088 10.87232,12.68088c-5.20452,0 -10.82831,-0.49395 -15.55504,-3.68224c-6.29717,-4.24759 -10.77318,-11.98396 -10.77318,-19.62629z" fill="#5f7f7c" stroke="#000000" stroke-width="0" stroke-linecap="butt"/><path d="M252.21575,152.29242h26.14308" fill="none" stroke="#000000" stroke-width="6" stroke-linecap="round"/><path d="M212.33628,243.50552c0,0 -3.93647,-2.47427 -3.12657,-8.80395c0.1984,-1.55045 13.81108,-41.63242 14.46589,-42.93809c3.2545,-6.48933 10.28679,-8.92814 14.03056,-8.85416c9.04278,0.17865 11.15732,2.19888 15.15169,8.3262c1.19354,1.83087 15.82426,42.82829 15.82426,42.82829c0,0 -0.20502,4.61232 -0.88407,6.23162c-0.6382,1.52192 -3.07537,3.21014 -3.07537,3.21014z" fill="#a7bccd" stroke="none" stroke-width="0" stroke-linecap="butt"/><path d="M212.10637,243.57963c0,0 10.46675,-33.61221 18.01827,-48.85123c2.47316,-4.99083 2.07984,-6.15747 8.59162,-6.12022c6.81183,0.17021 6.19556,2.32742 8.53109,6.25552c8.72501,14.67447 17.03959,49.16516 17.03959,49.16516z" fill="#000000" stroke="none" stroke-width="0" stroke-linecap="butt"/><path d="M210.81608,170.69262c12.77911,-0.35564 21.67876,-9.32179 21.33771,-8.57184c-3.69405,8.12294 -11.88009,13.77085 -21.38529,13.77085c-9.25386,0 -17.25742,-5.35317 -21.0829,-13.13175c0,0 9.51778,8.25592 21.13048,7.93274z" data-paper-data="{&quot;index&quot;:null}" fill="#ffffff" stroke="#000000" stroke-width="2" stroke-linecap="butt"/><path d="M186.99715,152.19693c0,-12.96801 10.51265,-23.48065 23.48066,-23.48065c12.96801,0 23.48065,10.51264 23.48065,23.48065c0,0 -9.31888,-14.62498 -23.43307,-15.13879c-14.72884,-0.53619 -23.52823,15.7554 -23.52823,15.13879z" fill="#ffffff" stroke="#000000" stroke-width="2" stroke-linecap="butt"/><path d="M216.35559,230.02125c0,0 6.1157,-20.22092 13.72178,-35.57002c2.49103,-5.02689 2.09486,-6.20195 8.65369,-6.16443c6.86104,0.17144 6.24031,2.34423 8.59272,6.30071c8.78804,14.78048 13.44429,35.70915 13.44429,35.70915z" fill="#fea300" stroke="none" stroke-width="0" stroke-linecap="butt"/></g></g></svg>