<svg version="1.1" xmlns="http://www.w3.org/2000/svg" xmlns:xlink="http://www.w3.org/1999/xlink" width="148.89271" height="247.63607" viewBox="0,0,148.89271,247.63607"><g transform="translate(-167.887,-60.86395)"><g data-paper-data="{&quot;isPaintingLayer&quot;:true}" fill-rule="nonzero" stroke-linecap="butt" stroke-linejoin="miter" stroke-miterlimit="10" stroke-dasharray="" stroke-dashoffset="0" style="mix-blend-mode: normal"><path d="M176.62465,121.47146c0.23924,-1.63917 -5.46284,-2.74099 -5.46284,-2.74099c0,0 7.90775,-7.81736 8.96736,-10.53305c10.75261,-27.55818 31.8583,-52.16554 74.18248,-46.51948c45.28871,6.04152 62.46528,44.49877 57.35626,79.50343c-0.09646,0.66095 1.98957,7.67944 2.88683,10.89751c1.51153,5.42111 2.22497,7.86242 2.22497,7.86242c0,0 -2.37884,-2.03179 -4.25815,-4.2261c-1.84839,-2.15822 -3.19505,-4.48742 -3.51416,-3.55992c-0.76278,2.21707 -2.16681,10.72189 -6.96202,19.1125c-4.74201,8.2975 -12.87999,16.494 -12.87999,16.494c0,0 -1.50442,-5.562 -3.28342,-3.65409c-7.2813,7.80891 -13.38902,13.51762 -13.38902,13.51762c0,0 -1.66567,-5.27302 -3.86561,-4.47282c-9.95287,3.62019 -20.99501,4.93032 -32.46412,3.25637c-12.47439,-1.82067 -23.99723,-7.10657 -33.52527,-14.52148c-2.47611,-1.92696 -1.45128,4.22256 -1.45128,4.22256c0,0 -7.10467,-6.28877 -11.42929,-12.79156c-5.04491,-7.5859 -7.53024,-15.82399 -9.3127,-20.24666c-0.25286,-0.62741 -4.20717,0.99063 -6.16245,1.13444c-3.02466,0.22247 -4.42481,-0.7285 -4.42481,-0.7285c0,0 3.13065,-2.95554 4.25825,-4.58808c1.20915,-1.75061 2.76904,-5.58612 2.76904,-5.58612c0,0 -2.91178,1.50412 -4.36154,1.77371c-1.54359,0.28704 -4.63617,-0.10054 -4.63617,-0.10054c0,0 5.16127,-4.94988 7.35241,-10.60957c2.06427,-5.332 1.15858,-11.3427 1.38524,-12.8956z" fill="#000000" stroke="#000000" stroke-width="0"/><g><path d="M210.5467,245.56724c-1.23593,-0.71221 -2.52595,-1.52016 -2.52595,-1.52016l3.43821,-16.9072l9.39711,1.15465l-4.03278,19.831c0,0 -4.71536,-1.6586 -6.27659,-2.55828z" data-paper-data="{&quot;index&quot;:null}" fill="#456761" stroke="none" stroke-width="0"/><path d="M207.03137,262.05225c-1.23591,-0.71222 1.23248,-17.84906 1.23248,-17.84906l8.55917,3.73009l-3.51504,16.67726c0,0 -4.71537,-1.6586 -6.2766,-2.55828z" data-paper-data="{&quot;index&quot;:null}" fill="#8fa7b3" stroke="none" stroke-width="0"/><path d="M206.50535,277.10697c-0.41826,-4.16402 0.32148,-15.15658 0.32148,-15.15658l6.45499,2.59498l-4.18718,19.98242c0,0 -2.30176,-4.55834 -2.58929,-7.42084z" data-paper-data="{&quot;index&quot;:null}" fill="#bed3e5" stroke="none" stroke-width="0"/><path d="M269.52358,247.31727c-1.56123,0.89968 -6.27659,2.55828 -6.27659,2.55828l-4.03278,-19.831l9.39711,-1.15465l3.43821,16.9072c0,0 -1.29002,0.80795 -2.52595,1.52016z" fill="#456761" stroke="none" stroke-width="0"/><path d="M273.03891,263.80225c-1.56123,0.89968 -6.2766,2.55828 -6.2766,2.55828l-3.51504,-16.67726l8.55917,-3.73009c0,0 2.46839,17.13685 1.23248,17.84906z" fill="#8fa7b3" stroke="none" stroke-width="0"/><path d="M273.56492,278.85696c-0.28753,2.8625 -2.58929,7.42084 -2.58929,7.42084l-4.18718,-19.98242l6.45499,-2.59498c0,0 0.73974,10.99257 0.32148,15.15658z" fill="#bed3e5" stroke="none" stroke-width="0"/><path d="M221.27618,175.65793l37.78325,-0.15789l3.8671,37.60586c-0.6963,-0.01127 -1.29913,-0.00206 -1.77404,0.02951c-2.88185,0.19158 -5.78843,1.63667 -8.62277,1.66666c-4.68104,0.04954 -9.3637,0.10145 -14.04389,0c-7.21416,-0.15638 -13.93214,-2.38082 -21.56128,-1.25648z" fill="#ffffff" stroke="#000000" stroke-width="2"/><path d="M219.08355,204.11266l3.12142,-26.32765l35.83075,-0.14203l2.76735,26.1059c0,0 -7.51543,4.19603 -21.55904,4.50964c-12.48458,0.27879 -20.16049,-4.14586 -20.16049,-4.14586z" fill="#e6e6e6" stroke="#000000" stroke-width="0"/><path d="M206.13333,307.50001l12.03846,-92.87157c15.40868,0.04436 28.15085,-0.19563 43.55925,-0.18198l10.90227,93.05356z" fill="#000000" stroke="#000000" stroke-width="2"/><path d="M211.31264,230.75613v-18.75668c0,0 18.56293,1.0198 27.99732,1.0198c9.68908,0 29.39343,-1.0198 29.39343,-1.0198v18.75668c0,0 -6.76554,5.34882 -28.49928,5.27047c-19.35935,-0.06978 -28.89147,-5.27047 -28.89147,-5.27047z" fill="#031718" stroke="none" stroke-width="0"/><path d="M268.4235,211.41184c0,1.05713 0.4488,3.69311 -1.94204,5.02269c-5.38056,2.99221 -17.49912,4.69199 -27.20676,4.69199c-9.23809,0 -19.08557,-0.8843 -24.36256,-3.66197c-2.73224,-1.43818 -3.84595,-4.66221 -3.84595,-5.83441c0,-1.28914 1.07545,-4.64227 4.33484,-5.32834c1.80205,-0.37932 2.46887,-1.03189 2.29478,-0.25307c-0.17823,0.79731 -1.22489,3.0403 -1.71366,3.8537c-0.47202,0.78554 -1.88092,1.40023 0.9944,1.40023c0.35881,0 1.20582,1.14373 2.68738,1.74085c1.86955,0.75349 4.51081,1.02454 5.79246,1.35846c3.71724,0.96851 8.41136,0.54272 14.65228,0.78744c4.59407,0.18015 18.41762,-1.21693 22.85473,-3.46693c1.61361,-0.81824 1.02726,-1.31455 0.87427,-2.15731c-0.07332,-0.40389 -0.34679,-0.62672 -0.51864,-1.0152c-0.4476,-1.01181 -0.896,-2.02544 -0.46897,-1.92504c0.59863,0.14073 2.51087,0.64384 3.57677,1.66022c1.19582,1.14025 1.99667,2.81358 1.99667,3.12667z" fill="#142d2b" stroke="none" stroke-width="0"/><path d="M266.26903,208.77607c0,0.9804 0.41623,3.42504 -1.80108,4.65813c-4.99001,2.77502 -16.22895,4.35142 -25.23196,4.35142c-8.56755,0 -17.70026,-0.8201 -22.59422,-3.39617c-2.53391,-1.33379 -3.5668,-4.32381 -3.5668,-5.41092c0,-1.19556 0.99739,-4.30531 4.0202,-4.94159c1.67126,-0.35179 2.28967,-0.957 2.12822,-0.2347c-0.1653,0.73944 -1.13598,2.81963 -1.58929,3.57399c-0.43777,0.72851 -1.74439,1.29859 0.92222,1.29859c0.33276,0 1.1183,1.06072 2.49233,1.61449c1.73385,0.69881 4.1834,0.95018 5.37202,1.25987c3.44743,0.89822 7.80083,0.50332 13.58875,0.73028c4.2606,0.16706 17.08079,-1.12858 21.19583,-3.21528c1.49649,-0.75885 0.9527,-1.21914 0.81081,-2.00071c-0.068,-0.37458 -0.32163,-0.58124 -0.481,-0.94152c-0.41511,-0.93836 -0.83098,-1.87844 -0.43493,-1.78532c0.55518,0.13052 2.32861,0.59712 3.31714,1.5397c1.10902,1.05749 1.85175,2.60935 1.85175,2.89973z" fill="#2c4c45" stroke="none" stroke-width="0"/><path d="M220.08282,257.56559l1.06229,-17.65228c0,0 5.06206,0.33784 6.6753,0.38673c2.41665,0.07323 6.74126,0.07606 6.74126,0.07606l-0.13223,17.78451z" fill="#789396" stroke="none" stroke-width="0"/><path d="M218.89278,258.09451l0.06611,-18.51175l2.24785,0.33057v16.33001z" fill="#466862" stroke="none" stroke-width="0"/><path d="M218.69444,258.22673l2.31397,-2.04951c0,0 3.43956,1.01301 5.56424,1.20141c2.33003,0.2066 7.85678,-0.01137 7.85678,-0.01137l0.19834,2.44619c0,0 -7.46269,0.38734 -10.38283,0.09654c-2.15463,-0.21456 -5.55049,-1.68325 -5.55049,-1.68325z" fill="#142d2b" stroke="none" stroke-width="0"/><path d="M224.3802,251.35096c0,0 1.44883,-3.00632 2.09459,-4.13946c0.44988,-0.78943 1.40942,-2.00908 1.40942,-2.00908c0,0 0.8535,1.34902 1.31674,2.21546c0.65742,1.22962 2.25339,4.46198 2.25339,4.46198c0,0 -2.9845,0.24955 -4.24288,0.15546c-1.06845,-0.07988 -2.83126,-0.68437 -2.83126,-0.68437z" fill="#d4ecfe" stroke="none" stroke-width="0"/></g><path d="" fill="#ffffff" stroke="#000000" stroke-width="2"/><path d="M181.45462,119.14459c4.80953,-32.95271 37.16681,-55.5126 72.272,-50.38891c35.10518,5.12369 59.66467,35.99072 54.85514,68.94344c-4.80953,32.95271 -37.16681,55.5126 -72.272,50.38891c-35.10518,-5.12369 -59.66467,-35.99072 -54.85514,-68.94344z" fill="#ffffff" stroke="#000000" stroke-width="2"/><path d="M182.16233,119.30225c0.10514,-0.72036 -2.92394,56.0851 54.47361,65.48806c54.84095,8.98415 71.21744,-48.17278 71.07029,-47.16461c-4.73774,32.46087 -36.68242,54.67376 -71.35041,49.61388c-34.66799,-5.05988 -58.93125,-35.47647 -54.19351,-67.93733z" fill="#e6e6e6" stroke="#000000" stroke-width="0"/><path d="M275.95472,181.70024c-3.79351,2.33229 -10.17619,-19.60252 -35.04919,-23.72172c-29.28701,-4.95575 -39.32779,14.77964 -42.26873,11.28804c-19.31149,-18.47197 -18.37523,-36.94127 -16.47845,-49.93718c1.84878,-12.66695 8.30166,-31.40233 21.30254,-40.22465c13.97981,-9.48661 35.79098,-17.50317 50.59617,-15.34232c13.32952,1.94547 31.58235,14.82261 41.90935,25.88716c11.81033,12.65379 17.7681,34.36957 12.89706,46.97135c0,0 -1.27922,28.72195 -32.90874,45.07933z" fill="#2c4c45" stroke="#000000" stroke-width="2"/><path d="M189.7919,120.51687c2.2888,-15.68187 16.85692,-26.53909 32.53879,-24.25027c15.68187,2.2888 26.53909,16.85692 24.25027,32.53879c-2.2888,15.68187 -16.85692,26.5391 -32.53879,24.25029c-15.68186,-2.28881 -26.5391,-16.85693 -24.25028,-32.5388z" fill="#000000" stroke="none" stroke-width="0"/><path d="M222.04638,85.81135c2.2888,-15.68187 16.85692,-26.53909 32.53879,-24.25027c15.68186,2.28881 26.5391,16.85693 24.25028,32.5388c-2.2888,15.68187 -16.85692,26.5391 -32.5388,24.25028c-15.68186,-2.28881 -26.5391,-16.85693 -24.25029,-32.53879z" fill="#000000" stroke="none" stroke-width="0"/><path d="M194.80077,121.52651c1.87287,-12.83204 13.79357,-21.71623 26.62561,-19.84336c12.83204,1.87287 21.71623,13.79357 19.84336,26.62561c-1.87287,12.83204 -13.79357,21.71623 -26.62561,19.84336c-12.83204,-1.87287 -21.71623,-13.79357 -19.84336,-26.62561z" fill="#de6000" stroke="#000000" stroke-width="0"/><path d="M205.15313,128.3726c1.3183,-9.03238 9.70917,-15.28587 18.74154,-13.96758c9.03238,1.3183 15.28588,9.70918 13.96758,18.74155c-1.3183,9.03238 -9.70918,15.28588 -18.74155,13.96758c-9.03238,-1.3183 -15.28586,-9.70918 -13.96757,-18.74156z" fill="#ffa300" stroke="none" stroke-width="0"/><path d="M243.25871,128.32049c2.2888,-15.68187 16.85692,-26.53909 32.53879,-24.25027c15.68186,2.28881 26.5391,16.85693 24.25028,32.5388c-2.2888,15.68187 -16.85692,26.5391 -32.5388,24.25028c-15.68186,-2.28881 -26.5391,-16.85693 -24.25028,-32.5388z" fill="#000000" stroke="none" stroke-width="0"/><path d="M268.33371,155.98824c-12.83204,-1.87287 -21.71623,-13.79357 -19.84336,-26.62561c1.87287,-12.83204 13.79357,-21.71623 26.62561,-19.84336c12.83204,1.87287 21.71623,13.79357 19.84336,26.62561c-1.87287,12.83204 -13.79357,21.71623 -26.62561,19.84336z" data-paper-data="{&quot;index&quot;:null}" fill="#944009" stroke="#000000" stroke-width="0"/><path d="M272.58755,154.91775c-9.03237,-1.3183 -15.28586,-9.70918 -13.96757,-18.74156c1.3183,-9.03238 9.70918,-15.28588 18.74154,-13.96758c9.03237,1.3183 15.28586,9.70918 13.96757,18.74156c-1.3183,9.03238 -9.70918,15.28588 -18.74154,13.96758z" data-paper-data="{&quot;index&quot;:null}" fill="#de6000" stroke="none" stroke-width="0"/><path d="M247.12136,113.47907c-12.83204,-1.87287 -21.71623,-13.79357 -19.84336,-26.62561c1.87287,-12.83204 13.79357,-21.71623 26.62561,-19.84336c12.83204,1.87287 21.71623,13.79357 19.84336,26.62561c-1.87287,12.83204 -13.79357,21.71623 -26.62561,19.84336z" data-paper-data="{&quot;index&quot;:null}" fill="#ffa300" stroke="#000000" stroke-width="0"/><path d="M251.3752,112.4086c-9.03237,-1.3183 -15.28586,-9.70918 -13.96757,-18.74156c1.3183,-9.03238 9.70918,-15.28588 18.74154,-13.96758c9.03237,1.3183 15.28586,9.70918 13.96757,18.74156c-1.3183,9.03238 -9.70918,15.28588 -18.74154,13.96758z" data-paper-data="{&quot;index&quot;:null}" fill="#d4ecfe" stroke="none" stroke-width="0"/><path d="M246.08402,174.88338c-0.78584,5.38421 -4.62372,9.28182 -8.57214,8.70554c-3.94843,-0.57628 -6.51221,-5.40821 -5.72636,-10.79245c0.78584,-5.38421 4.62372,-9.28182 8.57214,-8.70554c3.94843,0.57628 6.51221,5.40821 5.72636,10.79245z" fill="#000000" stroke="none" stroke-width="0"/></g></g></svg>