<svg version="1.1" xmlns="http://www.w3.org/2000/svg" xmlns:xlink="http://www.w3.org/1999/xlink" width="145.24346" height="235.15004" viewBox="0,0,145.24346,235.15004"><g transform="translate(-166.64381,-72.30921)"><g data-paper-data="{&quot;isPaintingLayer&quot;:true}" fill-rule="nonzero" stroke-linejoin="miter" stroke-miterlimit="10" stroke-dasharray="" stroke-dashoffset="0" style="mix-blend-mode: normal"><g><path d="M206.03423,307.45923l15.14285,-131.8421l37.78325,-0.15789l13.57389,132z" fill="#395858" stroke="#000000" stroke-width="0" stroke-linecap="butt"/><path d="M220.58676,223.11263l19.43547,4.41787l22.11638,-4.5394l1.95241,-1.15069l7.17795,50.65863l-32.24809,13l-31.71829,-12.80674l6.62795,-51.53844z" fill="#314b4b" stroke="#314b4b" stroke-width="2" stroke-linecap="round"/><path d="M250.72086,245.43238l-1.33334,13.83333l-10.66666,7.83334l-16.66667,-27.33334z" fill="#ff7c0b" stroke="#ff7c0b" stroke-width="2" stroke-linecap="round"/><path d="M249.1599,246.9649l-1.10569,11.47154l-8.84553,6.49594l-13.82114,-22.66667z" fill="#ffc30a" stroke="#ffc30a" stroke-width="2" stroke-linecap="round"/><path d="M248.17208,247.80839l-0.95122,9.8689l-7.60975,5.58842l-11.89024,-19.5z" fill="#ff9e0a" stroke="#ff9e0a" stroke-width="2" stroke-linecap="round"/><path d="M244.78087,252.69571c0,2.73381 -1.99233,4.95 -4.45,4.95c-2.45766,0 -4.45,-2.21619 -4.45,-4.95c0,-2.73381 1.99234,-4.95 4.45,-4.95c2.45766,0 4.45,2.21619 4.45,4.95z" fill="#ffb50a" stroke="#ff9e0a" stroke-width="2" stroke-linecap="butt"/><path d="M219.76303,173.58197l19.32668,-1.55029l19.10219,2.15029l-18.5077,32.90673z" fill="#243d3d" stroke="#243d3d" stroke-width="2" stroke-linecap="round"/><path d="M264.11113,221.52911l-6.62693,1.69327l-17.6,3.4l-19.2,-4.4l-7.07688,-2.03844l3.44017,-26.211l2.83573,-19.17748l20.00098,38.22692l18.3077,-37.52019z" fill="#385656" stroke="#385656" stroke-width="2" stroke-linecap="round"/></g><g><path d="M227.37404,243.37445l-48.71349,-37.13496l6.56107,-6.1675l39.66231,29.50486z" fill="#1b322d" stroke="none" stroke-width="0" stroke-linecap="butt"/><path d="M254.39549,229.83506l39.64175,-29.53247l6.56538,6.16293l-48.6876,37.1689z" data-paper-data="{&quot;index&quot;:null}" fill="#1b322d" stroke="none" stroke-width="0" stroke-linecap="butt"/><path d="M294.13536,200.92474l7.67094,-29.37041l10.07942,-3.32878l-11.27466,38.29287z" data-paper-data="{&quot;index&quot;:null}" fill="#456761" stroke="none" stroke-width="0" stroke-linecap="butt"/><path d="M240.21104,214.94825l16.79667,5.60187l-4.83634,23.75202l-11.32036,3.00985l-13.87186,-3.33094l-5.17577,-23.41864z" fill="#24433d" stroke="#24433d" stroke-width="2" stroke-linecap="round"/><path d="M175.52373,138.86582c-0.01159,-33.30184 28.73889,-60.30835 64.21601,-60.3207c35.47712,-0.01236 64.24643,26.97412 64.25801,60.27596c0.01159,33.30184 -28.73889,60.30835 -64.21601,60.3207c-35.47712,0.01236 -64.24643,-26.97412 -64.25801,-60.27596z" fill="#ffffff" stroke="#000000" stroke-width="2" stroke-linecap="butt"/><path d="M176.2468,138.9194c-0.00025,-0.72799 5.22614,55.91757 63.38029,56.91222c55.56385,0.95035 63.49339,-57.97526 63.49374,-56.95641c0.01142,32.8048 -28.38104,59.40822 -63.41633,59.42043c-35.03529,0.01221 -63.44628,-26.57144 -63.45771,-59.37622z" fill="#e6e6e6" stroke="#000000" stroke-width="0" stroke-linecap="butt"/><path d="M287.95375,169.55086l-0.94665,-10.92148l8.59118,-3.14389l12.33233,1.83392l2.76218,10.5088l-13.2804,5.12848z" data-paper-data="{&quot;index&quot;:null}" fill="#22302c" stroke="#22302c" stroke-width="2" stroke-linecap="round"/><path d="M189.0741,139.29057c-0.00453,-12.96801 10.50446,-23.4843 23.47246,-23.48882c12.96801,-0.00453 23.4843,10.50446 23.48882,23.47246c0.00453,12.96801 -10.50446,23.4843 -23.47246,23.48882c-12.96801,0.00453 -23.4843,-10.50446 -23.48882,-23.47246z" fill="#ffffff" stroke="#000000" stroke-width="2" stroke-linecap="butt"/><path d="M196.13939,139.01246c-0.00318,-9.12809 7.39401,-16.53041 16.52207,-16.53359c9.12809,-0.00318 16.53042,7.39402 16.5336,16.52208c0.00318,9.12809 -7.39402,16.53042 -16.52208,16.5336c-9.12809,0.00318 -16.53041,-7.39402 -16.53359,-16.52208z" fill="#000000" stroke="none" stroke-width="0" stroke-linecap="butt"/><path d="M258.19171,227.25167l10.39402,-55.64247l38.59785,-13.79053l-11.68285,42.83064z" data-paper-data="{&quot;index&quot;:null}" fill="#37514d" stroke="none" stroke-width="0" stroke-linecap="butt"/><path d="M227.20471,178.65809l25.10959,-0.00875" fill="none" stroke="#000000" stroke-width="2" stroke-linecap="round"/><path d="M266.82137,162.74412c-12.96801,0.00453 -23.4843,-10.50446 -23.48882,-23.47246c-0.00453,-12.96801 10.50446,-23.4843 23.47246,-23.48882c12.96801,-0.00453 23.4843,10.50446 23.48882,23.47246c0.00453,12.96801 -10.50446,23.4843 -23.47246,23.48882z" data-paper-data="{&quot;index&quot;:null}" fill="#ffffff" stroke="#000000" stroke-width="2" stroke-linecap="butt"/><path d="M266.7063,155.51572c-9.12808,0.00318 -16.53041,-7.39402 -16.53359,-16.52208c-0.00318,-9.12809 7.39402,-16.53042 16.52207,-16.53359c9.12808,-0.00318 16.53041,7.39402 16.53359,16.52208c0.00318,9.12809 -7.39402,16.53042 -16.52207,16.53359z" data-paper-data="{&quot;index&quot;:null}" fill="#000000" stroke="none" stroke-width="0" stroke-linecap="butt"/><path d="M189.0741,139.29057c-0.00453,-12.96801 10.50446,-23.4843 23.47246,-23.48882c12.96801,-0.00453 23.4843,10.50446 23.48882,23.47246c0,0 -46.96088,1.2479 -46.96131,0.01637z" fill="#ffffff" stroke="#000000" stroke-width="2" stroke-linecap="butt"/><path d="M243.33256,139.27166c-0.00453,-12.96801 10.50446,-23.4843 23.47246,-23.48882c12.96801,-0.00453 23.4843,10.50446 23.48882,23.47246c0.00042,1.2138 -46.96131,0.01637 -46.96131,0.01637z" data-paper-data="{&quot;index&quot;:null}" fill="#ffffff" stroke="#000000" stroke-width="2" stroke-linecap="butt"/><path d="M201.70175,110.47769c0,0 6.70714,-5.17157 11.79499,-6.36764c5.08785,-1.19611 12.33437,0.69507 12.33437,0.69507c0,0 -8.03815,-0.05747 -11.96733,0.86625c-4.10614,0.96531 -12.16203,4.80633 -12.16203,4.80633z" fill="#000000" stroke="none" stroke-width="0" stroke-linecap="butt"/><path d="M265.63459,105.65332c-3.92983,-0.921 -11.96793,-0.8579 -11.96793,-0.8579c0,0 7.2452,-1.89622 12.33388,-0.70368c5.08868,1.19256 11.79942,6.35944 11.79942,6.35944c0,0 -8.05857,-3.83541 -12.16539,-4.79788z" data-paper-data="{&quot;index&quot;:null}" fill="#000000" stroke="none" stroke-width="0" stroke-linecap="butt"/><g stroke-width="7.5" stroke-linecap="round"><path d="M213.09138,109.45609l27.43779,16.96038l2.51091,49.06432l-38.97067,-14.00506l-1.56005,-4.05747l-2.19198,-28.40537z" fill="#ff8300" stroke="#ff8300"/><path d="M283.54832,128.98386l-2.1722,28.40689l-1.55721,4.05856l-38.96088,14.0322l2.47671,-49.06607l27.42599,-16.97948z" data-paper-data="{&quot;index&quot;:null}" fill="#ffa900" stroke="#ffa900"/><path d="M300.50269,125.95896l-0.15064,28.9717l-28.34869,7.28826l14.8064,-32.69274l-13.01877,-18.5277l-32.32653,14.27343l-29.42481,-13.82861l-14.23559,15.05781l10.37415,34.78073l-29.92706,-10.41984l0.84896,-27.12942l3.12287,-35.74999l14.96408,3.49493l40.69871,-15.14263l41.59767,17.04806l16.33286,-4.57771z" fill="#30433d" stroke="#30433d"/></g><path d="M209.70636,170.90576l60.61006,-0.02111l-13.53239,57.44771l-34.49359,-0.825z" fill="#476863" stroke="none" stroke-width="0" stroke-linecap="butt"/><path d="M167.64565,165.73666l0.02569,-10.09825l4.85241,-4.38376l16.01876,5.03695l1.45768,7.43006l-13.3585,5.0034z" fill="#22302c" stroke="#22302c" stroke-width="2" stroke-linecap="round"/><path d="M184.98456,200.56265l-11.71253,-42.30291l38.78036,12.89757l10.15117,56.22282z" fill="#476863" stroke="none" stroke-width="0" stroke-linecap="butt"/><path d="M275.63129,201.10575l8.6206,-31.92165l9.88952,-2.70086l-12.03437,40.28542z" data-paper-data="{&quot;index&quot;:null}" fill="#456761" stroke="none" stroke-width="0" stroke-linecap="butt"/><path d="M178.74515,206.44408l-12.06242,-40.27704l9.89141,2.69396l8.64282,31.91563z" fill="#364c47" stroke="none" stroke-width="0" stroke-linecap="butt"/><path d="M211.54835,171.25361l-38.46283,-13.34918l15.15416,-2.7756l25.58806,10.25747z" fill="#2c4c45" stroke="none" stroke-width="0" stroke-linecap="butt"/><path d="M266.56532,165.63551l25.58086,-10.27529l15.15608,2.76501l-38.45351,13.37597z" data-paper-data="{&quot;index&quot;:null}" fill="#5f7f7c" stroke="none" stroke-width="0" stroke-linecap="butt"/><path d="M210.13303,171.38157l2.64997,-6.23577l54.81106,-0.01909l1.93101,6.23419z" fill="#446660" stroke="none" stroke-width="0" stroke-linecap="butt"/><path d="M256.23994,199.83805c0.00316,9.0306 -7.2229,16.35383 -16.13977,16.35693c-8.91689,0.00311 -16.14801,-7.31509 -16.15115,-16.34568c-0.00316,-9.0306 7.2229,-16.35387 16.13976,-16.35698c8.91689,-0.00311 16.14802,7.31513 16.15116,16.34572z" fill="#ff8300" stroke="#ffc100" stroke-width="2" stroke-linecap="butt"/><path d="M251.27212,199.83975c0.00221,6.37912 -5.00037,11.55213 -11.17359,11.55428c-6.17323,0.00215 -11.17944,-5.1674 -11.18167,-11.54649c-0.00221,-6.37912 5.00037,-11.55214 11.17361,-11.55429c6.17323,-0.00215 11.17941,5.16739 11.18165,11.54653z" fill="#ff8300" stroke="#ffc100" stroke-width="2" stroke-linecap="butt"/><path d="M246.35482,199.84147c0.00124,3.5728 -2.8006,6.47009 -6.25808,6.47129c-3.45748,0.0012 -6.26135,-2.89415 -6.2626,-6.46693c-0.00124,-3.5728 2.80061,-6.47009 6.25809,-6.4713c3.45748,-0.0012 6.26134,2.89412 6.26259,6.46693z" fill="#ffc100" stroke="#ffc100" stroke-width="2" stroke-linecap="butt"/><path d="M260.91082,223.22514l11.52595,-51.06089l32.25919,-11.4645l-10.4202,38.79927z" data-paper-data="{&quot;index&quot;:null}" fill="#ffc100" stroke="none" stroke-width="0" stroke-linecap="butt"/><path d="M185.34995,198.83119l-10.44723,-38.792l32.26717,11.44201l11.56153,51.05284z" data-paper-data="{&quot;index&quot;:null}" fill="#ff8300" stroke="none" stroke-width="0" stroke-linecap="butt"/></g></g></g></svg>