<svg version="1.1" xmlns="http://www.w3.org/2000/svg" xmlns:xlink="http://www.w3.org/1999/xlink" width="407" height="292.5234" viewBox="0,0,407,292.5234"><defs><linearGradient x1="339.85265" y1="179.50616" x2="339.85265" y2="217.60861" gradientUnits="userSpaceOnUse" id="color-1"><stop offset="0" stop-color="#ffa200"/><stop offset="1" stop-color="#de4000"/></linearGradient><linearGradient x1="339.85265" y1="179.50616" x2="339.85265" y2="217.60861" gradientUnits="userSpaceOnUse" id="color-2"><stop offset="0" stop-color="#973f00"/><stop offset="1" stop-color="#b53d00"/></linearGradient></defs><g transform="translate(-36.5,-60.9766)"><g data-paper-data="{&quot;isPaintingLayer&quot;:true}" fill-rule="nonzero" stroke-linejoin="miter" stroke-miterlimit="10" stroke-dasharray="" stroke-dashoffset="0" style="mix-blend-mode: normal"><path d="M36.5,353.5v-41h407v41z" fill="#666666" stroke="none" stroke-width="0" stroke-linecap="butt"/><text transform="translate(62.41164,341.22677) scale(0.68556,0.68556)" font-size="40" xml:space="preserve" fill="#ffffff" fill-rule="nonzero" stroke="none" stroke-width="1" stroke-linecap="butt" stroke-linejoin="miter" stroke-miterlimit="10" stroke-dasharray="" stroke-dashoffset="0" font-family="Sans Serif" font-weight="normal" text-anchor="start" style="mix-blend-mode: normal"><tspan x="0" dy="0">These Guys Look The Same</tspan></text><path d="M305.6923,299.02339l15.14285,-131.8421l37.78325,-0.15789l13.57389,132z" fill="#000000" stroke="#000000" stroke-width="2" stroke-linecap="butt"/><path d="M311.9011,237.97004l55.19958,0.85l2.5,25.29616c0,0 -1.66293,11.71804 -11.0347,12.983c-11.43419,1.54332 -26.69856,0.66496 -36.78363,0.66496c-9.49495,0 -13.13126,-13.64795 -13.13126,-13.64795z" fill="#0a1a19" stroke="none" stroke-width="0" stroke-linecap="butt"/><path d="M313.24845,224.94735l52.29961,1.8l2.6,25.79617c0,0 -0.06295,10.11804 -9.43471,11.38299c-11.43419,1.54332 -27.29854,-0.13506 -37.38361,-0.13506c-9.49495,0 -10.58127,-11.24795 -10.58127,-11.24795z" fill="#22333c" stroke="none" stroke-width="0" stroke-linecap="butt"/><path d="M315.39235,208.385l47.80111,0.8l2.95,27.82971c0,0 4.02657,13.60127 -6.53144,15.02635c-13.28147,0.93869 -27.07796,-0.25088 -38.43958,-0.25088c-11.03855,0 -8.78008,-15.97547 -8.78008,-15.97547z" fill="#2c474d" stroke="none" stroke-width="0" stroke-linecap="butt"/><path d="M313.26874,225.59048c0,-2.65464 2.85853,-22.74471 2.85853,-22.74471l46.81546,1.41891c0,0 2.27242,19.36616 2.22294,20.30106c-0.07279,1.37517 0.53515,7.77079 -4.21066,9.92098c-4.74581,2.15019 -22.07899,2.4432 -22.07899,2.4432c0,0 -13.97444,0.07565 -19.47506,-1.30319c-3.47766,-0.87176 -6.13221,-7.11008 -6.13221,-10.03625z" fill="#0a1a19" stroke="none" stroke-width="0" stroke-linecap="butt"/><path d="M323.89611,240.12336c0,0 -5.66835,-2.19556 -7.42283,-4.4065c-1.66173,-2.09407 -2.84092,-8.52761 -2.84092,-8.52761c0,0 2.79475,6.45527 6.2351,7.25302c1.23847,0.28718 10.4074,2.27239 19.52268,2.38667c9.10711,0.11417 18.16104,-1.64241 18.39514,-1.82343c4.221,-3.26375 7.88855,-7.59981 7.72526,-7.41206c-0.22572,0.25953 -0.33948,4.91952 -2.871,7.59726c-3.20849,3.39381 -8.95839,4.93266 -8.95839,4.93266z" fill="#d4ecfe" stroke="none" stroke-width="0" stroke-linecap="butt"/><path d="M270.33892,131.36958c0,-1.65654 0.89441,-10.80076 1.55071,-13.64101c6.65986,-28.82218 23.99043,-56.21969 66.68631,-56.74538c45.68643,-0.56252 68.23702,35.01087 68.23702,70.3864c0,0.66795 -1.64334,22.16552 -5.17649,31.1607c-3.49395,8.89536 -10.36285,18.18124 -10.36285,18.18124l-15.07313,12.16799c0,0 -24.53392,4.04313 -36.12454,4.04313c-12.60656,0 -24.772,-3.56633 -35.27102,-9.52744c-2.72845,-1.54916 -0.82623,4.38789 -0.82623,4.38789c0,0 -7.93843,-5.19677 -13.15685,-11.00681c-6.08759,-6.77777 -12.53663,-19.37056 -14.93914,-23.48944c-4.14082,-10.58431 -5.54377,-24.34792 -5.54377,-25.91728z" fill="#000000" stroke="#000000" stroke-width="0" stroke-linecap="butt"/><path d="M318.64252,195.63602l3.12142,-26.32765l35.83075,-0.14203l2.76735,26.1059c0,0 -7.51543,4.19603 -21.55904,4.50964c-12.48458,0.27879 -20.16049,-4.14586 -20.16049,-4.14586z" fill="#e6e6e6" stroke="#000000" stroke-width="0" stroke-linecap="butt"/><path d="M274.7822,128.36955c0,-33.30185 28.7599,-60.29833 64.23702,-60.29833c35.47712,0 64.23702,26.99649 64.23702,60.29833c0,33.30185 -28.7599,60.29833 -64.23702,60.29833c-35.47712,0 -64.23702,-26.99649 -64.23702,-60.29833z" fill="#ffffff" stroke="#000000" stroke-width="2" stroke-linecap="butt"/><path d="M275.50526,128.42339c0,-0.72799 5.20666,55.91939 63.36046,56.93429c55.56352,0.9697 63.51358,-57.95314 63.51358,-56.93429c0,32.80479 -28.40173,59.39833 -63.43702,59.39833c-35.03529,0 -63.43702,-26.59354 -63.43702,-59.39833z" fill="#e6e6e6" stroke="#000000" stroke-width="0" stroke-linecap="butt"/><path d="M288.33243,128.79902c0,-12.968 10.51265,-23.48065 23.48065,-23.48065c12.968,0 23.48065,10.51265 23.48065,23.48065c0,12.968 -10.51265,23.48065 -23.48065,23.48065c-12.968,0 -23.48065,-10.51265 -23.48065,-23.48065z" fill="#000000" stroke="#000000" stroke-width="2" stroke-linecap="butt"/><path d="M305.11353,128.79902c0,-3.70006 2.99949,-6.69956 6.69955,-6.69956c3.70007,0 6.69956,2.9995 6.69956,6.69956c0,3.70006 -2.9995,6.69956 -6.69956,6.69956c-3.70006,0 -6.69955,-2.99949 -6.69955,-6.69956z" fill="#ff9500" stroke="#bd5300" stroke-width="4.5" stroke-linecap="butt"/><path d="M326.44929,168.17982h25.10959" fill="none" stroke="#000000" stroke-width="2" stroke-linecap="round"/><path d="M366.0715,152.27966c-12.968,0 -23.48065,-10.51265 -23.48065,-23.48065c0,-12.968 10.51265,-23.48065 23.48065,-23.48065c12.968,0 23.48065,10.51265 23.48065,23.48065c0,12.968 -10.51265,23.48065 -23.48065,23.48065z" data-paper-data="{&quot;index&quot;:null}" fill="#ffffff" stroke="#000000" stroke-width="2" stroke-linecap="butt"/><path d="M365.95893,145.05123c-9.12807,0 -16.52783,-7.39977 -16.52783,-16.52784c0,-9.12808 7.39977,-16.52784 16.52783,-16.52784c9.12807,0 16.52783,7.39977 16.52783,16.52784c0,9.12808 -7.39977,16.52784 -16.52783,16.52784z" data-paper-data="{&quot;index&quot;:null}" fill="#000000" stroke="none" stroke-width="0" stroke-linecap="butt"/><path d="M342.59086,128.79902c0,-12.968 10.51265,-23.48065 23.48065,-23.48065c12.968,0 23.48065,10.51265 23.48065,23.48065c0,1.2138 -46.96131,0 -46.96131,0z" data-paper-data="{&quot;index&quot;:null}" fill="#ffffff" stroke="#000000" stroke-width="2" stroke-linecap="butt"/><path d="M279.86131,98.66062c11.42496,-22.68233 31.40973,-33.07142 60.56473,-32.85267c24.16321,0.18129 44.64424,10.27509 55.14651,32.73625c0.47012,0.4402 -28.03342,-7.65996 -56.48571,-7.36808c-29.12761,0.29882 -59.22553,7.48449 -59.22553,7.48449z" fill="#000000" stroke="none" stroke-width="0" stroke-linecap="butt"/><path d="M288.33305,196.17849c0,0 -31.98749,0.71707 -34.52547,-3.32998c-1.73892,-2.77287 -2.79085,-7.47361 -2.9835,-13.20592c-0.14803,-4.40435 2.23505,-10.26357 6.48953,-13.87157c5.35121,-4.53808 25.05049,-11.55417 25.05049,-11.55417l2.09123,9.06205c0,0 -21.59147,12.9801 -19.23291,17.82467c1.35497,2.78315 15.17088,0.93627 15.17088,0.93627z" fill="#15191b" stroke="none" stroke-width="0" stroke-linecap="butt"/><path d="M290.49171,200.80107c0,0 -6.36714,-9.70881 -8.9449,-14.63585c-2.31174,-4.41857 -5.81073,-13.5675 -5.81073,-13.5675c0,0 1.9606,-2.85932 2.47801,-4.57959c0.66964,-2.22638 1.20228,-7.65619 1.20228,-7.65619l25.51508,45.04963c0,0 -5.39281,-1.4275 -7.91892,-2.23406c-2.25669,-0.72054 -6.52085,-2.37648 -6.52085,-2.37648z" fill="#5d7176" stroke="none" stroke-width="0" stroke-linecap="butt"/><path d="M314.25371,219.7118l-27.15814,-41.74838l-13.48586,-26.91094c0,0 -4.41488,-8.66725 2.8691,-10.53377c9.30664,-2.38482 4.34718,-5.47715 6.45213,-5.73242c0.70965,-0.08605 3.32834,-1.73982 4.57137,0.30423c1.12029,1.84225 4.18233,7.35934 4.87418,8.02074c3.61984,3.46047 9.54791,9.85894 13.66938,9.41736c2.00315,-0.21463 13.00749,4.90953 24.94405,-8.87836c3.81825,-4.41046 8.56148,-24.75836 9.91237,-28.25933c3.56804,-9.24692 5.5337,-21.50241 28.24581,-21.69795c28.19801,1.70989 34.20194,37.38654 34.20194,37.38654l-4.44277,21.56912l-33.30807,67.13679z" fill="#2c474d" stroke="none" stroke-width="0" stroke-linecap="butt"/><path d="M342.83886,128.69975c0,-13.19313 10.69513,-23.88826 23.88826,-23.88826c13.19313,0 23.88829,10.69515 23.88829,23.88826c0,13.19314 -10.69515,23.88827 -23.88829,23.88827c-13.19314,0 -23.88826,-10.69515 -23.88826,-23.88827z" fill="#cad8e3" stroke="none" stroke-width="0" stroke-linecap="butt"/><path d="M341.68375,129.29848c0,-7.60173 3.42924,-15.67815 9.80372,-20.24709c4.84432,-3.47218 11.96995,-4.43507 17.2113,-4.43507c2.81486,0 -2.2675,2.59025 -7.05235,6.83189c-3.663,3.24714 -6.50424,8.2596 -7.08959,10.1785c-0.80531,2.64001 -1.94417,12.36546 2.58282,18.29944c6.41922,8.41434 17.99063,12.68088 10.87232,12.68088c-5.20452,0 -10.82831,-0.49395 -15.55504,-3.68224c-6.29717,-4.24759 -10.77318,-11.98396 -10.77318,-19.62629z" fill="#96a6a9" stroke="#000000" stroke-width="0" stroke-linecap="butt"/><path d="M353.55103,128.78748h26.14308" fill="none" stroke="#000000" stroke-width="6" stroke-linecap="round"/><path d="M313.67156,220.00058c0,0 -3.93647,-2.47427 -3.12657,-8.80395c0.1984,-1.55045 13.81108,-41.63242 14.46589,-42.93809c3.2545,-6.48933 10.28679,-8.92814 14.03056,-8.85416c9.04278,0.17865 11.15732,2.19888 15.15169,8.3262c1.19354,1.83087 15.82426,42.82829 15.82426,42.82829c0,0 -0.20502,4.61232 -0.88407,6.23162c-0.6382,1.52192 -3.07537,3.21014 -3.07537,3.21014z" fill="#ffffff" stroke="none" stroke-width="0" stroke-linecap="butt"/><path d="M313.44165,220.07469c0,0 10.46675,-33.61221 18.01827,-48.85123c2.47316,-4.99083 2.07984,-6.15747 8.59162,-6.12022c6.81183,0.17021 6.19556,2.32742 8.53109,6.25552c8.72501,14.67447 17.03959,49.16516 17.03959,49.16516z" fill="#000000" stroke="none" stroke-width="0" stroke-linecap="butt"/><path d="M325.25497,217.60861l14.59768,-38.10245l14.59769,38.10245z" fill="url(#color-1)" stroke="url(#color-2)" stroke-width="6" stroke-linecap="butt"/><path d="M108.80427,299.02339l15.14285,-131.8421l37.78325,-0.15789l13.57389,132z" fill="#000000" stroke="#000000" stroke-width="2" stroke-linecap="butt"/><path d="M115.01307,237.97004l55.19958,0.85l2.5,25.29616c0,0 -1.66293,11.71804 -11.0347,12.983c-11.43419,1.54332 -26.69856,0.66496 -36.78363,0.66496c-9.49495,0 -13.13126,-13.64795 -13.13126,-13.64795z" fill="#142d2b" stroke="none" stroke-width="0" stroke-linecap="butt"/><path d="M116.36042,224.94735l52.29961,1.8l2.6,25.79617c0,0 -0.06295,10.11804 -9.43471,11.38299c-11.43419,1.54332 -27.29854,-0.13506 -37.38361,-0.13506c-9.49495,0 -10.58127,-11.24795 -10.58127,-11.24795z" fill="#2c4c45" stroke="none" stroke-width="0" stroke-linecap="butt"/><path d="M118.50432,208.385l47.80111,0.8l2.95,27.82971c0,0 4.02657,13.60127 -6.53144,15.02635c-13.28147,0.93869 -27.07796,-0.25088 -38.43958,-0.25088c-11.03855,0 -8.78008,-15.97547 -8.78008,-15.97547z" fill="#456761" stroke="none" stroke-width="0" stroke-linecap="butt"/><path d="M116.38071,225.59048c0,-2.65464 2.85853,-22.74471 2.85853,-22.74471l46.81546,1.41891c0,0 2.27242,19.36616 2.22294,20.30106c-0.07279,1.37517 0.53515,7.77079 -4.21066,9.92098c-4.74581,2.15019 -22.07899,2.4432 -22.07899,2.4432c0,0 -13.97444,0.07565 -19.47506,-1.30319c-3.47766,-0.87176 -6.13221,-7.11008 -6.13221,-10.03625z" fill="#142d2b" stroke="none" stroke-width="0" stroke-linecap="butt"/><path d="M127.00808,240.12336c0,0 -5.66835,-2.19556 -7.42283,-4.4065c-1.66173,-2.09407 -2.84092,-8.52761 -2.84092,-8.52761c0,0 2.79475,6.45527 6.2351,7.25302c1.23847,0.28718 10.4074,2.27239 19.52268,2.38667c9.10711,0.11417 18.16104,-1.64241 18.39514,-1.82343c4.221,-3.26375 7.88855,-7.59981 7.72526,-7.41206c-0.22572,0.25953 -0.33948,4.91952 -2.871,7.59726c-3.20849,3.39381 -8.95839,4.93266 -8.95839,4.93266z" fill="#d4ecfe" stroke="none" stroke-width="0" stroke-linecap="butt"/><path d="M139.79332,286.5726v-48.34537h4.38444v48.34537z" fill="#d4ecfe" stroke="none" stroke-width="0" stroke-linecap="butt"/><path d="M73.45089,131.36958c0,-1.65654 -5.80143,-1.9233 -5.80143,-1.9233c0,0 6.69584,-8.87746 7.35214,-11.71771c6.65986,-28.82218 23.99043,-56.21969 66.68631,-56.74538c45.68643,-0.56252 68.23702,35.01087 68.23702,70.3864c0,0.66795 3.07779,7.31159 4.43041,10.36634c2.27861,5.14598 3.33715,7.45866 3.33715,7.45866c0,0 -2.64733,-1.66693 -4.82385,-3.56682c-2.14071,-1.86864 -3.80963,-3.97893 -3.99144,-3.01508c-0.43459,2.30399 -0.59561,10.92242 -4.12876,19.9176c-3.49395,8.89536 -10.36285,18.18124 -10.36285,18.18124c0,0 -2.29192,-5.28642 -3.77673,-3.14158c-6.07718,8.77862 -11.2964,15.30957 -11.2964,15.30957c0,0 -2.40974,-4.97718 -4.47106,-3.86765c-9.32569,5.01966 -20.06286,7.91078 -31.65348,7.91078c-12.60656,0 -24.772,-3.56633 -35.27102,-9.52744c-2.72845,-1.54916 -0.82623,4.38789 -0.82623,4.38789c0,0 -7.93843,-5.19677 -13.15685,-11.00681c-6.08759,-6.77777 -9.73663,-14.57056 -12.13914,-18.68944c-0.34082,-0.58431 -4.01999,1.58785 -5.934,2.01254c-2.96082,0.65696 -4.48364,-0.08182 -4.48364,-0.08182c0,0 2.67098,-3.37669 3.55098,-5.15497c0.94364,-1.90688 1.93325,-5.92746 1.93325,-5.92746c0,0 -2.66402,1.90888 -4.05965,2.38502c-1.48595,0.50696 -4.60208,0.57008 -4.60208,0.57008c0,0 4.39229,-5.64339 5.74307,-11.5602c1.27257,-5.57422 -0.4917,-11.39111 -0.4917,-12.96047z" fill="#000000" stroke="#000000" stroke-width="0" stroke-linecap="butt"/><path d="M121.75449,195.63602l3.12142,-26.32765l35.83075,-0.14203l2.76735,26.1059c0,0 -7.51543,4.19603 -21.55904,4.50964c-12.48458,0.27879 -20.16049,-4.14586 -20.16049,-4.14586z" fill="#e6e6e6" stroke="#000000" stroke-width="0" stroke-linecap="butt"/><path d="M77.89417,128.36955c0,-33.30185 28.7599,-60.29833 64.23702,-60.29833c35.47712,0 64.23702,26.99649 64.23702,60.29833c0,33.30185 -28.7599,60.29833 -64.23702,60.29833c-35.47712,0 -64.23702,-26.99649 -64.23702,-60.29833z" fill="#ffffff" stroke="#000000" stroke-width="2" stroke-linecap="butt"/><path d="M78.61723,128.42339c0,-0.72799 5.20666,55.91939 63.36046,56.93429c55.56352,0.9697 63.51358,-57.95314 63.51358,-56.93429c0,32.80479 -28.40173,59.39833 -63.43702,59.39833c-35.03529,0 -63.43702,-26.59354 -63.43702,-59.39833z" fill="#e6e6e6" stroke="#000000" stroke-width="0" stroke-linecap="butt"/><path d="M91.4444,128.79902c0,-12.968 10.51265,-23.48065 23.48065,-23.48065c12.968,0 23.48065,10.51265 23.48065,23.48065c0,12.968 -10.51265,23.48065 -23.48065,23.48065c-12.968,0 -23.48065,-10.51265 -23.48065,-23.48065z" fill="#ffffff" stroke="#000000" stroke-width="2" stroke-linecap="butt"/><path d="M98.50977,128.52339c0,-9.12808 7.39976,-16.52784 16.52783,-16.52784c9.12808,0 16.52784,7.39977 16.52784,16.52784c0,9.12808 -7.39977,16.52784 -16.52784,16.52784c-9.12808,0 -16.52783,-7.39977 -16.52783,-16.52784z" fill="#000000" stroke="none" stroke-width="0" stroke-linecap="butt"/><path d="M129.56126,168.17982h25.10959" fill="none" stroke="#000000" stroke-width="2" stroke-linecap="round"/><path d="M169.18347,152.27966c-12.968,0 -23.48065,-10.51265 -23.48065,-23.48065c0,-12.968 10.51265,-23.48065 23.48065,-23.48065c12.968,0 23.48065,10.51265 23.48065,23.48065c0,12.968 -10.51265,23.48065 -23.48065,23.48065z" data-paper-data="{&quot;index&quot;:null}" fill="#ffffff" stroke="#000000" stroke-width="2" stroke-linecap="butt"/><path d="M169.0709,145.05123c-9.12807,0 -16.52783,-7.39977 -16.52783,-16.52784c0,-9.12808 7.39977,-16.52784 16.52783,-16.52784c9.12807,0 16.52783,7.39977 16.52783,16.52784c0,9.12808 -7.39977,16.52784 -16.52783,16.52784z" data-paper-data="{&quot;index&quot;:null}" fill="#000000" stroke="none" stroke-width="0" stroke-linecap="butt"/><path d="M91.4444,128.79902c0,-12.968 10.51265,-23.48065 23.48065,-23.48065c12.968,0 23.48065,10.51265 23.48065,23.48065c0,0 -46.96131,1.23155 -46.96131,0z" fill="#ffffff" stroke="#000000" stroke-width="2" stroke-linecap="butt"/><path d="M145.70283,128.79902c0,-12.968 10.51265,-23.48065 23.48065,-23.48065c12.968,0 23.48065,10.51265 23.48065,23.48065c0,1.2138 -46.96131,0 -46.96131,0z" data-paper-data="{&quot;index&quot;:null}" fill="#ffffff" stroke="#000000" stroke-width="2" stroke-linecap="butt"/><path d="M104.08207,99.99055c0,0 6.70895,-5.16922 11.79721,-6.36355c5.08827,-1.19433 12.33413,0.69937 12.33413,0.69937c0,0 -8.03812,-0.06028 -11.96762,0.86207c-4.10648,0.96389 -12.16372,4.80211 -12.16372,4.80211z" fill="#000000" stroke="none" stroke-width="0" stroke-linecap="butt"/><path d="M82.97328,98.66062c11.42496,-22.68233 31.40973,-33.07142 60.56473,-32.85267c24.16321,0.18129 39.14424,9.27509 47.64651,17.23625c0.95139,0.89084 -11.16905,5.58091 -18.25999,7.52146c-15.29703,4.18628 -30.35723,6.25195 -30.35723,6.25195l6.65013,-11.17032c0,0 -23.70536,7.34319 -34.98048,9.59002c-11.17264,2.22641 -31.26367,3.4233 -31.26367,3.4233z" fill="#000000" stroke="none" stroke-width="0" stroke-linecap="butt"/><path d="M91.44502,196.17849c0,0 -31.98749,0.71707 -34.52547,-3.32998c-1.73892,-2.77287 -2.79085,-7.47361 -2.9835,-13.20592c-0.14803,-4.40435 2.23505,-10.26357 6.48953,-13.87157c5.35121,-4.53808 25.05049,-11.55417 25.05049,-11.55417l2.09123,9.06205c0,0 -21.59147,12.9801 -19.23291,17.82467c1.35497,2.78315 15.17088,0.93627 15.17088,0.93627z" fill="#142d2b" stroke="none" stroke-width="0" stroke-linecap="butt"/><path d="M93.60368,200.80107c0,0 -6.36714,-9.70881 -8.9449,-14.63585c-2.31174,-4.41857 -5.81073,-13.5675 -5.81073,-13.5675c0,0 1.9606,-2.85932 2.47801,-4.57959c0.66964,-2.22638 1.20228,-7.65619 1.20228,-7.65619l25.51508,45.04963c0,0 -5.39281,-1.4275 -7.91892,-2.23406c-2.25669,-0.72054 -6.52085,-2.37648 -6.52085,-2.37648z" fill="#5f7f7c" stroke="none" stroke-width="0" stroke-linecap="butt"/><path d="M117.36568,219.7118l-27.15814,-41.74838l-13.48586,-26.91094c0,0 -4.41488,-8.66725 2.8691,-10.53377c9.30664,-2.38482 4.34718,-5.47715 6.45213,-5.73242c0.70965,-0.08605 3.32834,-1.73982 4.57137,0.30423c1.12029,1.84225 4.18233,7.35934 4.87418,8.02074c3.61984,3.46047 9.54791,9.85894 13.66938,9.41736c2.00315,-0.21463 13.00749,4.90953 24.94405,-8.87836c3.81825,-4.41046 8.56148,-24.75836 9.91237,-28.25933c3.56804,-9.24692 5.5337,-21.50241 28.24581,-21.69795c28.19801,1.70989 34.20194,37.38654 34.20194,37.38654l-4.44277,21.56912l-33.30807,67.13679z" fill="#2c4c45" stroke="none" stroke-width="0" stroke-linecap="butt"/><path d="M145.95083,128.69975c0,-13.19313 10.69513,-23.88826 23.88826,-23.88826c13.19313,0 23.88829,10.69515 23.88829,23.88826c0,13.19314 -10.69515,23.88827 -23.88829,23.88827c-13.19314,0 -23.88826,-10.69515 -23.88826,-23.88827z" fill="#789396" stroke="none" stroke-width="0" stroke-linecap="butt"/><path d="M144.79572,129.29848c0,-7.60173 3.42924,-15.67815 9.80372,-20.24709c4.84432,-3.47218 11.96995,-4.43507 17.2113,-4.43507c2.81486,0 -2.2675,2.59025 -7.05235,6.83189c-3.663,3.24714 -6.50424,8.2596 -7.08959,10.1785c-0.80531,2.64001 -1.94417,12.36546 2.58282,18.29944c6.41922,8.41434 17.99063,12.68088 10.87232,12.68088c-5.20452,0 -10.82831,-0.49395 -15.55504,-3.68224c-6.29717,-4.24759 -10.77318,-11.98396 -10.77318,-19.62629z" fill="#5f7f7c" stroke="#000000" stroke-width="0" stroke-linecap="butt"/><path d="M182.80608,128.78748h-26.14308" fill="none" stroke="#000000" stroke-width="6" stroke-linecap="round"/><path d="M116.78353,220.00058c0,0 -3.93647,-2.47427 -3.12657,-8.80395c0.1984,-1.55045 13.81108,-41.63242 14.46589,-42.93809c3.2545,-6.48933 10.28679,-8.92814 14.03056,-8.85416c9.04278,0.17865 11.15732,2.19888 15.15169,8.3262c1.19354,1.83087 15.82426,42.82829 15.82426,42.82829c0,0 -0.20502,4.61232 -0.88407,6.23162c-0.6382,1.52192 -3.07537,3.21014 -3.07537,3.21014z" fill="#a7bccd" stroke="none" stroke-width="0" stroke-linecap="butt"/><path d="M116.55362,220.07469c0,0 10.46675,-33.61221 18.01827,-48.85123c2.47316,-4.99083 2.07984,-6.15747 8.59162,-6.12022c6.81183,0.17021 6.19556,2.32742 8.53109,6.25552c8.72501,14.67447 17.03959,49.16516 17.03959,49.16516z" fill="#000000" stroke="none" stroke-width="0" stroke-linecap="butt"/><path d="M129.17665,220.46136l13.82931,-36.09686l13.82931,36.09686z" fill="#fea300" stroke="none" stroke-width="0" stroke-linecap="butt"/><path d="M129.17667,220.93016l5.2125,-13.90745c0,0 12.68256,-3.11781 16.80903,-0.56107c2.47815,1.53545 5.6371,14.46852 5.6371,14.46852z" fill="#dc6100" stroke="none" stroke-width="0" stroke-linecap="butt"/></g></g></svg>