<svg version="1.1" xmlns="http://www.w3.org/2000/svg" xmlns:xlink="http://www.w3.org/1999/xlink" width="103.34516" height="223.83929" viewBox="0,0,103.34516,223.83929"><defs><linearGradient x1="243.33456" y1="164.85923" x2="243.33456" y2="183.50138" gradientUnits="userSpaceOnUse" id="color-1"><stop offset="0" stop-color="#ffbd4c"/><stop offset="1" stop-color="#de7146"/></linearGradient><linearGradient x1="243.33456" y1="164.85923" x2="243.33456" y2="183.50138" gradientUnits="userSpaceOnUse" id="color-2"><stop offset="0" stop-color="#965e35"/><stop offset="1" stop-color="#b56137"/></linearGradient></defs><g transform="translate(-188.32745,-74.99704)"><g data-paper-data="{&quot;isPaintingLayer&quot;:true}" fill-rule="nonzero" stroke-linejoin="miter" stroke-miterlimit="10" stroke-dasharray="" stroke-dashoffset="0" style="mix-blend-mode: normal"><g><path d="M266.53175,293.62691v-107.7169h18.95379c0,0 -2.64091,34.27288 -2.64091,51.77212c0,18.3646 2.64091,55.94478 2.64091,55.94478z" fill="#000000" stroke="#000000" stroke-width="2.5" stroke-linecap="butt"/><path d="M197.63547,297.58633c0,0 2.16075,-40.68396 2.16075,-59.39297c0,-16.48961 -2.16075,-47.04586 -2.16075,-47.04586h17.03313v106.43883z" fill="#000000" stroke="#000000" stroke-width="2.5" stroke-linecap="butt"/><path d="M211.23811,295.20385c0,0 0.02997,-90.22718 0.6007,-115.45558c0.10117,-4.47165 0.73797,-8.03732 1.78057,-10.87673c4.83812,-13.176 18.41474,-17.30323 27.7578,-17.16274c11.65438,0.17524 26.07557,3.3243 28.10808,20.37135c1.96134,16.45013 1.26172,122.84244 1.26172,122.84244z" fill="#000000" stroke="#000000" stroke-width="2.5" stroke-linecap="butt"/><path d="M197.76602,206.19487c0,0 -3.38789,-17.74943 5.6887,-33.31177c9.07659,-15.56234 21.68823,-13.62754 21.68823,-13.62754v46.93932c0,0 -4.38667,-10.81472 -8.82927,-15.45499c-1.64378,-1.7169 -3.61537,-1.225 -5.64253,1.277c-0.74903,0.92449 -2.39495,14.26448 -2.39495,14.26448l-10.51019,-0.08649z" fill="#000000" stroke="#000000" stroke-width="2.5" stroke-linecap="butt"/><path d="M274.71153,205.65793c0,0 -1.64591,-13.34 -2.39495,-14.26448c-2.02716,-2.502 -3.99876,-2.99391 -5.64254,-1.27699c-4.4426,4.64027 -8.82926,15.45499 -8.82926,15.45499v-46.93932c0,0 12.61163,-1.93479 21.68822,13.62755c9.07659,15.56234 5.68871,33.31178 5.68871,33.31178z" data-paper-data="{&quot;index&quot;:null}" fill="#000000" stroke="#000000" stroke-width="2.5" stroke-linecap="butt"/><path d="M208.74599,203.06361c0,6.00315 -4.38038,10.86964 -9.78388,10.86964c-5.40349,0 -9.78388,-4.8665 -9.78388,-10.86964c0,-6.00315 4.38039,-10.86965 9.78388,-10.86965c5.40349,0 9.78388,4.8665 9.78388,10.86965z" fill="#000000" stroke="none" stroke-width="0" stroke-linecap="butt"/><path d="M207.89521,184.34365c0,6.00315 -4.38039,10.86965 -9.78388,10.86965c-5.40349,0 -9.78388,-4.8665 -9.78388,-10.86965c0,-6.00315 4.38039,-10.86964 9.78388,-10.86964c5.40348,0 9.78388,4.8665 9.78388,10.86964z" fill="#000000" stroke="none" stroke-width="0" stroke-linecap="butt"/><path d="M212.71626,166.52951c0,6.00315 -4.3804,10.86965 -9.78388,10.86965c-5.40349,0 -9.78388,-4.8665 -9.78388,-10.86965c0,-6.00315 4.38039,-10.86965 9.78388,-10.86965c5.40348,0 9.78388,4.8665 9.78388,10.86965z" fill="#000000" stroke="none" stroke-width="0" stroke-linecap="butt"/><path d="M268.69043,247.03244c0,9.74082 -12.35506,17.63731 -27.5958,17.63731c-15.24074,0 -27.5958,-7.89649 -27.5958,-17.63731c0,-3.54465 1.63606,-12.21293 4.45188,-14.97749c4.92216,-4.83255 13.44922,-2.65983 23.14392,-2.65983c9.30829,0 17.28456,-1.3999 22.28274,3.11235c3.18547,2.87579 5.31306,10.73338 5.31306,14.52499z" fill="#0a1a19" stroke="none" stroke-width="0" stroke-linecap="butt"/><path d="M270.55661,227.71716c0,10.58567 -13.05894,19.16705 -29.16793,19.16705c-16.10899,0 -29.16791,-8.58138 -29.16791,-19.16705c0,-3.8699 0.16993,-12.72318 3.17151,-15.73599c5.2089,-5.22839 15.77653,-3.43105 25.9964,-3.43105c11.19195,0 21.1742,-1.89673 26.06505,4.18198c2.14874,2.67061 3.10289,11.75394 3.10289,14.98507z" fill="#22333c" stroke="none" stroke-width="0" stroke-linecap="butt"/><path d="M281.03796,193.44392c5.4035,0 9.78388,4.8665 9.78388,10.86964c0,6.00315 -4.38038,10.86965 -9.78388,10.86965c-5.40349,0 -9.78388,-4.86651 -9.78388,-10.86965c0,-6.00315 4.3804,-10.86964 9.78388,-10.86964z" data-paper-data="{&quot;index&quot;:null}" fill="#000000" stroke="none" stroke-width="0" stroke-linecap="butt"/><path d="M281.88874,174.72397c5.4035,0 9.78387,4.86652 9.78387,10.86966c0,6.00315 -4.38038,10.86964 -9.78387,10.86964c-5.40349,0 -9.78388,-4.86649 -9.78388,-10.86964c0,-6.00315 4.3804,-10.86966 9.78388,-10.86966z" data-paper-data="{&quot;index&quot;:null}" fill="#000000" stroke="none" stroke-width="0" stroke-linecap="butt"/><path d="M277.06768,156.90981c5.4035,0 9.78388,4.86651 9.78388,10.86965c0,6.00315 -4.38038,10.86964 -9.78388,10.86964c-5.40349,0 -9.78387,-4.86649 -9.78387,-10.86964c0,-6.00315 4.38039,-10.86965 9.78387,-10.86965z" data-paper-data="{&quot;index&quot;:null}" fill="#000000" stroke="none" stroke-width="0" stroke-linecap="butt"/><path d="M271.28261,212.33007c0,11.00591 -13.57736,19.92797 -30.32586,19.92797c-16.74851,0 -30.32585,-8.92205 -30.32585,-19.92796c0,-4.02354 0.17667,-13.22828 3.29742,-16.3607c5.41569,-5.43595 16.40284,-3.56727 27.02844,-3.56727c11.63626,0 22.0148,-1.97203 27.09982,4.348c2.23405,2.77662 3.22604,12.22055 3.22604,15.57996z" fill="#2c474d" stroke="none" stroke-width="0" stroke-linecap="butt"/><path d="M267.68728,179.40231c0,9.24014 0.68338,19.84984 -5.00471,24.77616c-4.13193,3.57856 -13.5858,4.61937 -21.6874,4.61937c-10.10321,0 -19.4318,-2.74195 -23.94574,-7.89599c-4.08859,-4.66838 -3.29111,-13.15089 -3.29111,-20.73269c0,-15.95236 8.52719,-30.9292 27.78158,-30.9292c19.2544,0 26.14738,14.21001 26.14738,30.16237z" fill="#0a1a19" stroke="none" stroke-width="0" stroke-linecap="butt"/><path d="M265.64396,195.74149c0,0 0.03458,5.85321 -6.08022,9.20704c-4.67366,2.56341 -15.1446,2.8498 -18.83346,2.81345c-4.6182,-0.04551 -15.02295,-0.93731 -20.58906,-4.42673c-4.16808,-2.61299 -4.34185,-8.08492 -4.34185,-8.08492" fill="none" stroke="#ffffff" stroke-width="3" stroke-linecap="round"/></g><g><path d="M208.74267,161.26106c0,0 -3.71338,0.78294 -6.5974,-0.90744c-2.26646,-1.32842 -3.8317,-5.00333 -3.95915,-6.24293c-0.13582,-1.32118 -0.64547,-4.45984 1.24424,-6.4696c2.46076,-2.61709 7.50014,-4.00755 7.50014,-4.00755" fill="none" stroke="#15191b" stroke-width="6.5" stroke-linecap="round"/><path d="M282.36055,110.94147c0,19.43734 -17.29615,35.19443 -38.63202,35.19443c-21.33588,0 -38.63202,-15.75709 -38.63202,-35.19443c0,-19.43734 17.29615,-35.19443 38.63203,-35.19443c21.33587,0 38.63202,15.75709 38.63202,35.19443z" fill="#000000" stroke="#000000" stroke-width="1.5" stroke-linecap="butt"/><path d="M282.2967,134.29764c0,0.63057 -2.61747,14.49543 -5.25874,20.52216c-4.206,9.59704 -9.82988,15.76926 -11.64463,17.76646c-17.03925,14.25968 -2.25522,-8.83843 -19.16288,-8.83843c-18.4768,0 -37.04034,6.44763 -41.08411,-15.7912c-0.66555,-3.66019 -1.09383,-7.40225 -1.21728,-14.94685c-0.12344,-7.5446 -0.47275,-27.24205 5.89592,-36.61425c7.35682,-10.8264 22.91408,-16.77947 34.80817,-16.77947c15.23825,0 31.27967,5.18148 36.69405,22.61243c0.90765,2.92207 1.82453,9.48817 1.8482,16.53115c0.02543,7.56905 -0.87867,15.5357 -0.87867,15.538z" fill="#000000" stroke="#000000" stroke-width="1.5" stroke-linecap="butt"/><path d="M256.31,168.35742c0,5.6866 -8.10439,11.23255 -13.33865,11.23255c-5.23426,0 -12.63662,-5.77996 -12.63662,-11.46656c0,-0.2239 -0.46144,-0.79715 -0.44849,-1.0175c0.31614,-5.37599 8.05694,-8.10895 13.0851,-8.10895c5.23426,0 13.33866,3.67386 13.33866,9.36046z" fill="#ffffff" stroke="#000000" stroke-width="4.5" stroke-linecap="butt"/><path d="M269.85267,137.90441c0,1.0695 -2.08267,11.14894 -2.97996,14.70148c-3.591,14.21751 -9.95402,23.5354 -22.91766,23.5354c-14.16676,0 -22.74322,-9.57124 -25.8437,-26.62245c-0.5103,-2.80638 -1.02376,-6.8449 -1.57456,-10.53116c-0.12185,-0.81549 -1.24704,-2.28141 -1.24704,-2.96135c0,-10.40658 -2.74154,-20.88735 2.14151,-28.07332c5.6407,-8.30094 17.56896,-12.86535 26.68854,-12.86535c11.68366,0 23.98313,3.9728 28.1345,17.33767c1.601,5.15424 -2.40162,25.44442 -2.40162,25.47908z" fill="#ffffff" stroke="#000000" stroke-width="4.5" stroke-linecap="butt"/><path d="M243.85903,174.66326c-9.63702,0 -21.06503,-8.82874 -21.06503,-13.12634c0,-1.62374 1.88457,-1.41228 4.13579,-1.89659c2.50886,-0.53973 5.58725,-1.67732 9.38292,-1.66889c1.81294,0.00403 4.80163,1.35214 6.73976,1.35214c2.85428,0 6.85422,-0.4512 9.27163,0.03241c3.27297,0.65477 5.31423,1.96292 7.04462,3.35449c1.30674,1.05088 2.18511,0.87571 2.18511,2.17712c0,0 -8.0578,9.77565 -17.69482,9.77565z" fill="#ffffff" stroke="#000000" stroke-width="4.5" stroke-linecap="butt"/><path d="M267.50829,130.4274c0,5.69509 -4.65151,10.31189 -10.38942,10.31189c-5.73792,0 -10.38942,-4.61679 -10.38942,-10.31189c0,-5.69509 4.6515,-10.31189 10.38942,-10.31189c5.73792,0 10.38942,4.6168 10.38942,10.31189z" fill="#ffffff" stroke="#000000" stroke-width="4.5" stroke-linecap="butt"/><path d="M219.81106,130.36818l20.18104,-0.08237" fill="none" stroke="#000000" stroke-width="4.5" stroke-linecap="round"/><g data-paper-data="{&quot;index&quot;:null}" fill="#000000" stroke="none" stroke-width="4.5" stroke-linecap="butt"><path d="M255.44967,120.98803c-2.77791,-0.0497 -8.1833,0.67441 -8.1833,0.67441l0.35442,-3.41131c0,0 5.28731,-0.57441 7.99002,-0.56445c2.84553,0.01047 8.67677,0.62583 8.67677,0.62583c0,0 0.59671,0.8996 0.75295,1.32703c0.24803,0.67854 0.5917,2.35154 0.5917,2.35154c0,0 -6.91755,-0.94461 -10.18256,-1.00304z"/><path d="M270.32728,123.48407c-0.83414,-0.14207 -1.4282,-0.419 -2.12041,-0.75977c-0.02301,0.00517 -0.04643,0.0094 -0.07023,0.01264c-0.14552,0.01983 -0.28734,0.00036 -0.41474,-0.05026l-0.14044,-0.05263c-0.14513,-0.00373 -0.38807,-0.03914 -0.57105,-0.21397l-0.4129,-0.1547l0.0906,-0.24182c-0.03149,-0.01775 -0.06286,-0.03557 -0.09411,-0.05344c-0.76015,-0.17047 -1.49975,-0.33435 -2.3342,-0.28782l-0.44543,-0.06167c0,0 -0.80947,-0.15259 -0.65689,-0.96205c0.10208,-0.54152 0.49815,-0.65249 0.74916,-0.66661c-0.04832,-0.04577 -0.0965,-0.09206 -0.14454,-0.1389c0,0 -0.58888,-0.57596 -0.01292,-1.16484c0.57596,-0.58888 1.16484,-0.01292 1.16484,-0.01292c0.83114,0.81584 1.70232,1.42439 2.71813,1.99021l0.0209,0.03029l0.00792,-0.01179l0.47492,0.3188l0.30907,0.00278c0.76744,0.37346 1.29572,0.73381 2.1383,0.85104c0,0 0.81371,0.12799 0.68572,0.9417c-0.128,0.8137 -0.94171,0.68573 -0.94171,0.68573z"/></g><path d="M234.56111,131.58381c0,2.25591 -2.14969,4.08468 -4.80146,4.08468c-2.65177,0 -4.80145,-1.82877 -4.80145,-4.08468c0,-0.6467 -0.39192,-0.85953 -0.09603,-1.04601c0.73629,-0.46403 2.84716,0.00628 4.73875,0.00628c1.67614,0 3.61192,-0.26309 4.51745,-0.05094c0.52708,0.12348 0.44273,0.26068 0.44273,1.09067z" fill="#000000" stroke="#000000" stroke-width="4.5" stroke-linecap="butt"/><path d="M244.18388,152.62676c0,3.05306 -1.21292,5.52805 -2.70911,5.52805c-1.4962,0 -2.70911,-2.47499 -2.70911,-5.52805c0,-0.68599 0.13445,-1.70889 0.24638,-2.31499c0.3862,-2.09142 1.30272,-3.21306 2.46273,-3.21306c1.4962,0 2.70911,2.47499 2.70911,5.52805z" fill="#ffffff" stroke="#000000" stroke-width="4.5" stroke-linecap="butt"/><path d="M241.84169,161.62577l-0.15192,-15.94146c0,0 1.21241,-0.31204 1.79788,0.27978c0.55906,0.56512 1.78579,3.26794 1.78579,3.26794l-0.86768,12.6145z" fill="#ffffff" stroke="none" stroke-width="4.5" stroke-linecap="butt"/><path d="M266.79031,130.42308l-20.01629,-0.16475" fill="none" stroke="#000000" stroke-width="4.5" stroke-linecap="round"/><path d="M243.47556,166.58054c0,0 -2.48974,-2.07663 -2.4903,-2.26427c-0.00854,-2.87024 -0.30015,-25.36457 -0.37884,-27.30614c-0.08587,-2.11875 -0.62015,-6.91269 -0.62015,-6.91269" fill="none" stroke="#000000" stroke-width="4.5" stroke-linecap="round"/><path d="M244.3027,166.00883c0,0 1.95829,-27.08749 2.01544,-29.05347c0.06629,-2.28048 0.39451,-7.32875 0.39451,-7.32875l15.65391,2.60198" fill="none" stroke="#000000" stroke-width="4.5" stroke-linecap="round"/><path d="M210.42761,172.18827c-0.48015,-1.98132 -3.1611,-6.27326 -2.7013,-15.3081c0.4598,-9.03485 1.6465,-10.27389 3.10082,-11.10534c1.45432,-0.83145 5.16209,-0.87449 5.16209,-0.87449l3.81914,30.69031c0,0 -4.45625,0.66725 -4.57285,0.6382c-0.11658,-0.02905 -4.32776,-2.05926 -4.80792,-4.04058z" fill="#5d7176" stroke="none" stroke-width="4.5" stroke-linecap="butt"/><path d="M261.7763,131.60349c0,2.25592 -2.14968,4.08468 -4.80145,4.08468c-2.65177,0 -4.80146,-1.82877 -4.80146,-4.08468c0,-0.6467 -0.39191,-0.85954 -0.09602,-1.04602c0.73629,-0.46403 2.84716,0.00628 4.73876,0.00628c1.67614,0 3.61192,-0.26309 4.51745,-0.05093c0.52708,0.12349 0.44273,0.26068 0.44273,1.09067z" fill="#000000" stroke="#000000" stroke-width="4.5" stroke-linecap="butt"/><path d="M223.0804,160.63503l18.36989,4.09521" fill="none" stroke="#000000" stroke-width="4.5" stroke-linecap="round"/><path d="M245.07706,164.60024l16.03052,-0.44205" fill="none" stroke="#000000" stroke-width="4.5" stroke-linecap="round"/><path d="M222.99296,184.65457c0,0 -6.23165,-16.5059 -8.29997,-25.17052c-1.9925,-8.34697 -0.92565,-24.25243 -0.92565,-24.25243c0,0 0.96481,-3.13584 10.51714,-3.39971c10.27406,-0.28382 49.11989,1.75228 49.11989,1.75228c0,0 -2.19115,18.43086 -3.91377,27.15506c-1.68106,8.51377 -6.3003,24.57429 -6.3003,24.57429z" fill="#2c474d" stroke="none" stroke-width="4.5" stroke-linecap="butt"/><path d="M239.90773,130.25377c0,5.57284 -4.55165,10.09052 -10.16638,10.09052c-5.61474,0 -10.16638,-4.51768 -10.16638,-10.09052c0,-5.57284 4.55165,-10.09052 10.16638,-10.09052c5.61474,0 10.16638,4.51768 10.16638,10.09052z" fill="#000000" stroke="#000000" stroke-width="4.5" stroke-linecap="butt"/><path d="M234.62665,131.14222c0,2.25592 -2.14969,4.08468 -4.80146,4.08468c-2.65177,0 -4.80145,-1.82877 -4.80145,-4.08468c0,-0.6467 -0.39193,-0.85953 -0.09604,-1.04601c0.73629,-0.46403 2.84716,0.00628 4.73877,0.00628c1.67614,0 3.61192,-0.26309 4.51744,-0.05094c0.52708,0.12348 0.44273,0.26069 0.44273,1.09068z" fill="#000000" stroke="#000000" stroke-width="4.5" stroke-linecap="butt"/><path d="M239.90423,129.76411l-20.01629,-0.16474" fill="none" stroke="#000000" stroke-width="4.5" stroke-linecap="round"/><path d="M274.72229,129.03592c0,4.7326 -3.79782,15.94139 -6.74965,19.06921c-3.01869,3.19868 -5.2432,-1.73685 -9.88941,-1.73685c-9.1895,0 -16.63906,-7.75996 -16.63906,-17.33236c0,-9.57239 7.44956,-17.33235 16.63906,-17.33235c9.1895,0 16.63906,7.75996 16.63906,17.33235z" fill="#2c474d" stroke="none" stroke-width="4.5" stroke-linecap="butt"/><path d="M271.02083,129.21097c0,6.92814 -5.73586,12.54451 -12.81142,12.54451c-7.07555,0 -12.81141,-5.61637 -12.81141,-12.54451c0,-6.92813 5.73586,-12.5445 12.81141,-12.5445c7.07555,0 12.81142,5.61637 12.81142,12.5445z" fill="#cad8e3" stroke="none" stroke-width="4.5" stroke-linecap="butt"/><path d="M253.449,129.19001c0,4.20245 1.33302,11.22956 1.33302,11.22956c0,0 -2.42587,-0.73307 -3.1452,-0.73307c-2.82054,0 -6.51913,-4.85541 -6.51913,-10.49649c0,-5.64109 4.16928,-11.06133 6.98981,-11.06133c0.31491,0 0.85322,-0.72384 1.30871,-0.81124c0.93971,-0.1803 1.83339,0.20253 1.83339,0.20253c0,0 -1.80061,7.95811 -1.80061,11.67003z" fill="#96a6a9" stroke="none" stroke-width="4.5" stroke-linecap="butt"/><path d="M265.00246,128.75175h-13.39911" fill="none" stroke="#000000" stroke-width="4.5" stroke-linecap="round"/><path d="M227.49593,185.12215c0,0 2.72552,-8.66009 5.48557,-18.0689c2.48986,-8.48774 4.60312,-17.81927 11.90251,-17.81927c5.29138,0 7.70115,13.68615 9.80776,19.25322c4.02085,10.62575 4.47531,16.63495 4.47531,16.63495z" fill="#000000" stroke="none" stroke-width="4.5" stroke-linecap="butt"/><path d="M213.28131,109.14083v-16.04211h58.60282v16.04211c0,0 -5.55684,-1.61416 -12.21647,-2.49425c-5.64267,-0.74568 -12.07707,-0.77965 -16.59385,-0.77965c-4.21222,0 -10.39676,-0.03536 -16.04089,0.66462c-7.33176,0.90927 -13.7516,2.60928 -13.7516,2.60928z" fill="#000000" stroke="#000000" stroke-width="4.5" stroke-linecap="butt"/><path d="M233.45036,130.16748c0,2.06159 -1.73316,3.73284 -3.87109,3.73284c-2.13795,0 -3.87109,-1.67125 -3.87109,-3.73284c0,-2.06159 1.73315,-3.73284 3.87109,-3.73284c2.13795,0 3.87109,1.67125 3.87109,3.73284z" fill="#ff9500" stroke="#bd5300" stroke-width="2.5" stroke-linecap="butt"/><path d="M235.26632,183.50138l8.26179,-23.14198l7.87471,23.14198z" fill="url(#color-1)" stroke="url(#color-2)" stroke-width="4.5" stroke-linecap="butt"/><path d="M225.7112,183.99562l12.09524,-33.99291c0,0 4.13367,-1.27643 6.12185,-1.37009c1.7887,-0.08426 5.27221,0.83336 5.27221,0.83336l12.09523,33.99291" fill="none" stroke="#ffffff" stroke-width="4.5" stroke-linecap="round"/></g></g></g></svg>