<svg version="1.1" xmlns="http://www.w3.org/2000/svg" xmlns:xlink="http://www.w3.org/1999/xlink" width="492.96772" height="367.5" viewBox="0,0,492.96772,367.5"><g transform="translate(6,5.5)"><g data-paper-data="{&quot;isPaintingLayer&quot;:true}" stroke-dasharray="" stroke-dashoffset="0" style="mix-blend-mode: normal"><path d="M-5.5,362v-310h491v310z" fill="#ffffff" fill-rule="nonzero" stroke="none" stroke-width="0" stroke-linecap="butt" stroke-linejoin="miter" stroke-miterlimit="10"/><path d="M-6,259.59744v-102.19487h492v102.19487z" data-paper-data="{&quot;index&quot;:null}" fill="#e6e6e6" fill-rule="nonzero" stroke="#000000" stroke-width="0" stroke-linecap="butt" stroke-linejoin="miter" stroke-miterlimit="10"/><path d="M-5.5,55.08069v-60.58069h492v60.58069z" fill="#808080" fill-rule="nonzero" stroke="none" stroke-width="0" stroke-linecap="butt" stroke-linejoin="miter" stroke-miterlimit="10"/><g fill-rule="nonzero" stroke-width="2" stroke-linejoin="miter" stroke-miterlimit="10"><path d="M252.50127,27.22868c0,-10.84593 8.7806,-19.63829 19.61204,-19.63829c10.83143,0 19.61203,8.79236 19.61203,19.63829c0,10.84593 -8.7806,19.63829 -19.61203,19.63829c-10.83143,0 -19.61204,-8.79235 -19.61204,-19.63829z" fill="#a7a7a7" stroke="none" stroke-linecap="butt"/><path d="M275.00245,34.41008l-8.2014,-7.18582l8.91457,-7.81068" fill="none" stroke="#ffffff" stroke-linecap="round"/><path d="M316.05872,46.86697c-10.83142,0 -19.61203,-8.79235 -19.61203,-19.63829c0,-10.84592 8.7806,-19.63829 19.61203,-19.63829c10.83143,0 19.61204,8.79235 19.61204,19.63829c0,10.84593 -8.7806,19.63829 -19.61204,19.63829z" fill="#a7a7a7" stroke="none" stroke-linecap="butt"/><path d="M312.45635,19.41357l8.91457,7.81069l-8.2014,7.18582" fill="none" stroke="#ffffff" stroke-linecap="round"/></g><g fill-rule="nonzero" stroke="#000000" stroke-width="0" stroke-linecap="butt" stroke-linejoin="miter" stroke-miterlimit="10" font-family="Sans Serif" font-weight="normal" font-size="40" text-anchor="start"><text transform="translate(344.34524,42.7446) scale(0.3886,0.3886)" font-size="40" xml:space="preserve" fill="#cccccc" fill-rule="nonzero" stroke="#000000" stroke-width="0" stroke-linecap="butt" stroke-linejoin="miter" stroke-miterlimit="10" stroke-dasharray="" stroke-dashoffset="0" font-family="Sans Serif" font-weight="normal" text-anchor="start" style="mix-blend-mode: normal"><tspan x="0" dy="0">3000 mixes</tspan></text><text transform="translate(343.92857,23.9946) scale(0.3886,0.3886)" font-size="40" xml:space="preserve" fill="#ffffff" fill-rule="nonzero" stroke="#000000" stroke-width="0" stroke-linecap="butt" stroke-linejoin="miter" stroke-miterlimit="10" stroke-dasharray="" stroke-dashoffset="0" font-family="Sans Serif" font-weight="normal" text-anchor="start" style="mix-blend-mode: normal"><tspan x="0" dy="0">Page 1000/1000</tspan></text></g><path d="M319.75,259.59744v-102.19487h167.21772v102.19487z" data-paper-data="{&quot;index&quot;:null}" fill="#cdcdcd" fill-rule="nonzero" stroke="#000000" stroke-width="0" stroke-linecap="butt" stroke-linejoin="miter" stroke-miterlimit="10"/><g><g stroke="none" stroke-miterlimit="10"><path d="M343.35736,208.35711c0,-14.34627 11.62996,-25.97623 25.97623,-25.97623c14.34627,0 25.97623,11.62995 25.97623,25.97623c0,14.34627 -11.62995,25.97623 -25.97623,25.97623c-14.34627,0 -25.97623,-11.62996 -25.97623,-25.97623z" fill="#36b460" fill-rule="nonzero" stroke-width="0" stroke-linecap="butt" stroke-linejoin="miter"/><path d="M384.08963,208.3571c-2.42299,6.2206 -8.26389,10.29582 -14.75643,10.2956c-6.49226,-0.00011 -12.33277,-4.07527 -14.75565,-10.2956c2.42289,-6.22031 8.2634,-10.29547 14.75565,-10.29558c6.49254,-0.00021 12.33344,4.07499 14.75643,10.29558zM369.31841,203.3348c-2.76796,0.00813 -5.00752,2.25432 -5.00744,5.0223c-0.00004,1.332 0.52909,2.60945 1.47094,3.55132c0.94185,0.94188 2.2193,1.471 3.5513,1.47099c2.77353,-0.00027 5.02176,-2.24877 5.0217,-5.02231c0.00006,-2.77353 -2.24816,-5.02203 -5.0217,-5.0223c-0.00479,-0.00001 -0.00956,-0.00001 -0.01435,0z" fill="#ffffff" fill-rule="evenodd" stroke-width="3.20922" stroke-linecap="round" stroke-linejoin="round"/></g><g fill-rule="nonzero"><path d="M404.38088,208.35711c0,-14.34627 11.62995,-25.97623 25.97623,-25.97623c14.34627,0 25.97623,11.62995 25.97623,25.97623c0,14.34627 -11.62995,25.97623 -25.97623,25.97623c-14.34627,0 -25.97623,-11.62996 -25.97623,-25.97623z" fill="#808080" stroke="none" stroke-width="0" stroke-linecap="butt" stroke-linejoin="miter" stroke-miterlimit="10"/><g fill="none" stroke="#ffffff" stroke-width="3" stroke-linecap="round" stroke-linejoin="round" stroke-miterlimit="4"><path d="M430.35711,195.05453v17.01209"/><path d="M438.06924,204.35451l-7.71212,7.71212l-7.71215,-7.71212"/><path d="M421.22729,218.36111h18.25964"/></g></g></g></g></g></svg>