<svg version="1.1" xmlns="http://www.w3.org/2000/svg" xmlns:xlink="http://www.w3.org/1999/xlink" width="1349.44786" height="696.06905" viewBox="0,0,1349.44786,696.06905"><defs><radialGradient cx="240.00016" cy="180" r="279.53153" gradientUnits="userSpaceOnUse" id="color-1"><stop offset="0" stop-color="#466760"/><stop offset="1" stop-color="#0b1d1f"/></radialGradient><radialGradient cx="-94.01997" cy="156.2203" r="674.72393" gradientUnits="userSpaceOnUse" id="color-2"><stop offset="0" stop-color="#060f10" stop-opacity="0"/><stop offset="1" stop-color="#060f10"/></radialGradient></defs><g transform="translate(768.7439,191.81422)"><g data-paper-data="{&quot;isPaintingLayer&quot;:true}" fill-rule="nonzero" stroke-linejoin="miter" stroke-miterlimit="10" stroke-dasharray="" stroke-dashoffset="0" style="mix-blend-mode: normal"><path d="M-39.5315,391.90294v-423.80587h559.06306v423.80587z" fill="url(#color-1)" stroke="none" stroke-width="NaN" stroke-linecap="butt"/><g stroke="none" stroke-width="0" stroke-linecap="butt"><path d="M171.04326,463.35679v-165.40198h27.76685v165.40198z" fill="#1b312f"/><path d="M48.05223,464.24852v-165.40198h27.76685v165.40198z" fill="#1b312f"/><path d="M70.47931,463.35138c0,0 0.49731,-77.60058 0.49731,-114.57078c0,-1.44571 -10.84243,-12.70925 -18.86752,-25.45234c-9.61415,-15.26638 -16.69991,-32.43728 -16.70459,-34.43847c-0.01751,-7.50621 9.15102,-17.20851 16.04976,-21.13379c16.37775,-9.31869 19.02501,-14.47104 19.02501,-14.47104l92.33644,31.70679c0,0 20.97576,-14.98891 35.10209,-13.80898c1.26532,0.1057 5.35411,2.80209 8.05377,6.36109c3.15834,4.16369 4.87382,9.3225 4.86942,10.09096c-0.00361,0.62683 -1.8619,8.28418 -5.10643,15.76078c-2.5633,5.90681 -6.45912,11.70078 -7.74361,13.82598c-9.40389,15.55873 -22.49343,30.56507 -22.49343,32.31403c0,36.38243 1.24331,113.81586 1.24331,113.81586z" fill="#0a1d1e"/><path d="M147.80366,334.1612c0,3.6771 -7.74718,40.49547 -24.38725,40.52362c-15.71754,0.02658 -24.29302,-35.11317 -24.29302,-40.31735c0,-13.78444 10.3002,-8.04462 23.51505,-8.04462c13.21483,0 25.1652,-5.94611 25.1652,7.83836z" fill="#1b312f"/><path d="M71.4144,292.59097c0,0 -13.29205,-30.51341 -16.23866,-42.5265c-2.05204,-8.36609 0.25038,-22.65652 0.25038,-22.65652c0,0 45.95668,-14.09763 69.08547,-14.09763c23.33113,0 70.2996,14.09763 70.2996,14.09763c0,0 0.59548,15.78873 -2.48537,24.91041c-3.75437,11.1159 -18.42239,36.99298 -18.42239,36.99298z" fill="#000000"/><path d="M205.06009,242.98628c0,9.19826 -4.88375,33.52361 -18.06897,53.68404c-15.69977,24.00519 -42.03774,44.29548 -64.12723,44.29548c-20.97608,0 -46.6783,-19.74828 -61.87946,-43.21693c-14.25101,-22.00177 -18.67692,-47.47196 -18.67692,-57.22228c0,-20.1507 41.55515,47.14495 82.19621,47.14495c40.64106,0 80.5564,-64.83593 80.5564,-44.68521z" fill="#304d47"/><path d="M55.36925,240.99349c0,4.94071 55.33181,34.79053 70.16614,46.05157c0.30432,0.231 12.92458,-5.88979 27.41113,-16.63037c14.29916,-10.60166 30.40009,-25.78726 40.78417,-31.23679c1.01129,-0.53072 -2.37528,-1.99212 -2.22897,-4.1276c0.17546,-2.56104 3.8772,-5.80887 5.44977,-5.78538c1.19417,0.01785 5.88185,1.19678 8.04809,3.50774c2.18674,2.33281 1.84701,5.80075 1.95391,6.44805c0.44828,2.71465 -7.22018,8.87241 -7.60856,9.34308c-1.31486,1.59342 -29.70038,24.3032 -54.33327,39.20983c-14.84563,8.98385 -30.38212,13.07962 -31.9994,13.81956c-6.14344,2.81072 -20.14341,2.47151 -20.99426,2.67155c-0.59156,0.13909 5.69957,-3.77551 12.50362,-6.94472c7.70487,-3.58879 16.06749,-6.49496 15.83827,-6.49496c-3.97133,0 -38.591,-16.17675 -60.76399,-31.79168c-12.13908,-8.54872 -18.74069,-19.41356 -18.74069,-21.58774c0,-6.14552 6.91713,-10.48237 13.06265,-10.48237c6.14552,0 1.4514,7.88475 1.4514,14.03024z" fill="#779295"/></g><path d="M45.73698,118.95479c0,0 1.31044,-9.81386 1.31044,-11.59225c0,-3.82737 15.16096,-7.11858 18.91516,-12.05276c5.37291,-7.06171 5.37757,-15.41223 57.11607,-15.86456c80.74902,-0.70591 79.70838,19.43035 79.70838,28.62295c0,4.51943 -1.83429,23.73609 -1.83429,23.73609c0,0 -1.56571,22.27701 -15.488,34.26218c-3.14503,19.26517 1.7987,40.28399 1.7987,40.28399l-2.32554,-4.54183c0,0 -2.05868,4.23823 -4.34835,6.54412c-2.28967,2.30589 -7.14823,5.00681 -7.14823,5.00681l0.04053,-6.61513c0,0 -16.69662,20.10883 -49.92305,19.58337c-32.82572,-0.51912 -51.71614,-18.63733 -51.71614,-18.63733l-0.36941,3.75338l-13.51588,-50.48984c0,0 -11.33017,-13.59622 -8.23573,-21.1019c2.82758,-6.85834 -3.98462,-20.89738 -3.98462,-20.89738z" fill="#000000" stroke="none" stroke-width="1.5" stroke-linecap="butt"/><path d="M69.79202,140.16849c-1.13224,-14.30915 0.65726,-34.53704 0.65726,-34.53704c0,0 9.7728,-0.9613 30.3808,-7.04931c15.83237,-4.67722 31.94981,-14.21185 31.94981,-14.21185l-9.45795,13.74148c0,0 15.73984,-3.32796 29.45179,-8.61853c13.91324,-5.36824 23.64517,-13.36972 27.16915,-9.89115c6.25155,6.11705 1.61103,53.45317 -0.31969,61.60777c-0.43901,1.85412 -3.46101,9.01695 -4.67164,14.94376c-1.21063,5.92681 -2.73262,28.79009 -4.8945,38.54391c-2.45926,11.0956 -9.5803,16.37807 -21.07274,27.63225c-11.49244,11.2542 -20.97582,15.70028 -25.24937,15.74222c-5.42859,0.05326 -17.81451,-7.45968 -27.62391,-17.8233c-10.44543,-11.0356 -17.41232,-16.63193 -19.0616,-29.70383c-1.48535,-11.77263 -1.52354,-19.4403 -2.20263,-29.91689c-0.49634,-7.65707 -4.43639,-12.64501 -5.05475,-20.45949z" fill="#ffffff" stroke="#000000" stroke-width="1.5" stroke-linecap="butt"/><path d="M84.13266,121.69951l0.8513,-3.065c0,0 6.71083,-3.45206 15.38337,-4.26963c8.64446,-0.81493 14.87737,0.31252 14.87737,0.31252l-0.24901,8.68849c0,0 -6.40045,-1.3535 -14.40581,-0.89771c-6.08995,-0.17318 -33.90937,6.14728 -33.90937,6.14728l-0.04958,-2.63126z" fill="#000000" stroke="none" stroke-width="1.5" stroke-linecap="butt"/><path d="M165.42498,111.38307c0,0 5.12036,1.14942 7.7512,1.86721c2.72856,0.74446 8.33768,2.52243 8.33768,2.52243l0.05265,3.17656c0,0 -14.99394,-6.14094 -30.42719,-4.84726c-12.34004,1.03443 -19.21739,5.18772 -19.21739,5.18772l0.52993,-9.07521c0,0 9.87796,-3.113 16.41873,-3.53052c6.54077,-0.41754 15.54388,1.49016 15.54388,1.49016z" data-paper-data="{&quot;index&quot;:null}" fill="#000000" stroke="none" stroke-width="1.5" stroke-linecap="butt"/><path d="M125.30431,202.0256c0.48859,0.04635 1.20554,-2.85531 4.64765,-4.12923c3.32659,-1.23115 8.06562,-0.8413 10.97219,-0.50636c3.20509,1.07938 19.87293,8.94095 19.87293,8.94095c0,0 -14.57743,1.42479 -20.94325,2.21998c-5.33464,0.66637 -15.10384,2.23339 -15.10384,2.23339l-39.83252,-8.73748c0,0 3.66559,-0.82175 9.09965,-2.66333c6.27734,-2.12738 8.01164,-3.0505 9.95496,-3.30205c4.6178,-0.59774 10.07927,-0.58088 15.28324,1.09988c5.57599,1.80091 5.56311,4.79813 6.04897,4.84423z" fill="#ffffff" stroke="#000000" stroke-width="1.25" stroke-linecap="butt"/><path d="M78.79178,140.92057c0,-9.59876 8.54664,-17.38011 19.08951,-17.38011c10.54285,0 19.08951,7.78133 19.08951,17.38011c0,9.59876 -8.54664,17.38011 -19.08951,17.38011c-10.54285,0 -19.08951,-7.78133 -19.08951,-17.38011z" fill="#ffffff" stroke="#000000" stroke-width="1.5" stroke-linecap="butt"/><path d="M131.91229,191.14936c-0.25499,4.40452 -3.05756,7.63475 -7.90673,7.63475c-4.8492,0 -7.42941,-5.35269 -7.42941,-9.76537c0,-4.41266 2.58023,-6.21433 7.42941,-6.21433c4.8492,0 8.24443,2.51189 7.90673,8.34495z" fill="#ffffff" stroke="#000000" stroke-width="1" stroke-linecap="butt"/><path d="M87.50014,140.81041c0,-5.52973 4.48273,-10.01246 10.01246,-10.01246c5.52973,0 10.01246,4.48273 10.01246,10.01246c0,5.52973 -4.48271,10.01246 -10.01246,10.01246c-5.52973,0 -10.01246,-4.48273 -10.01246,-10.01246z" fill="#000000" stroke="none" stroke-width="1.5" stroke-linecap="butt"/><path d="M131.21186,140.52866l-2.24951,69.4878l-6.95043,0.01696c0,0 -2.01726,-49.76218 -3.43514,-61.11531c-0.58546,-4.68782 -1.06525,-8.79522 -1.06525,-8.79522" fill="#ffffff" stroke="#000000" stroke-width="1.5" stroke-linecap="round"/><path d="M132.00327,140.92057c0,-9.59876 8.45796,-17.38011 18.89143,-17.38011c10.43345,0 18.89143,7.78133 18.89143,17.38011c0,9.59876 -8.45796,17.38011 -18.89143,17.38011c-10.43345,0 -18.89143,-7.78133 -18.89143,-17.38011z" fill="#ffffff" stroke="#000000" stroke-width="1.5" stroke-linecap="butt"/><path d="M140.75562,140.81041c0,-5.52973 4.48273,-10.01246 10.01246,-10.01246c5.52973,0 10.01246,4.48273 10.01246,10.01246c0,5.52973 -4.48271,10.01246 -10.01246,10.01246c-5.52973,0 -10.01246,-4.48273 -10.01246,-10.01246z" fill="#000000" stroke="none" stroke-width="1.5" stroke-linecap="butt"/><path d="M78.34999,140.16924c0,0 -0.40401,-18.23942 20.27252,-18.46551c18.0277,-0.19709 19.15189,18.46551 19.15189,18.46551z" fill="#ffffff" stroke="#000000" stroke-width="1.25" stroke-linecap="butt"/><path d="M130.92027,139.41704c0,0 0.01377,-19.21704 21.63453,-18.52054c20.31022,0.65427 19.98158,18.52054 19.98158,18.52054z" fill="#ffffff" stroke="#000000" stroke-width="1.25" stroke-linecap="butt"/><path d="M122.59892,228.79926c-29.61911,-0.66564 -40.12713,-26.41772 -40.12713,-26.41772c0,0 13.88121,2.65121 20.5685,4.22547c6.90887,1.62642 12.81465,4.62136 21.43014,4.98554c8.6155,0.36416 13.31118,-2.53012 18.5242,-3.07663c4.04151,-0.4237 18.34291,-1.26797 18.34291,-1.26797c0,0 -6.47986,22.27628 -38.73863,21.55131z" fill="#ffffff" stroke="#000000" stroke-width="1.25" stroke-linecap="butt"/><path d="M72.03375,158.75498c-0.99042,2.93809 -8.2828,-6.1924 -10.72788,-16.42481c-2.44506,-10.23243 -2.19068,-17.83438 2.52885,-17.88744c4.46262,-0.05019 4.62754,7.31847 5.91861,14.67716c1.38333,7.88463 3.46313,16.12652 2.28041,19.63509z" data-paper-data="{&quot;index&quot;:null}" fill="#ffffff" stroke="#000000" stroke-width="1" stroke-linecap="butt"/><path d="M179.28002,138.58475c1.29105,-7.3587 1.45599,-14.72736 5.91861,-14.67716c4.71953,0.05309 4.97393,7.65503 2.52885,17.88746c-2.44508,10.23243 -9.73746,19.36291 -10.72788,16.42481c-1.18272,-3.50857 0.89708,-11.75046 2.28041,-19.63509z" data-paper-data="{&quot;index&quot;:null}" fill="#ffffff" stroke="#000000" stroke-width="1" stroke-linecap="butt"/><path d="M72.8203,151.92067c0,0 -6.73551,-4.31299 -8.19988,-15.04316c-0.81688,-5.98564 4.73342,-4.51759 4.73342,-4.51759" fill="none" stroke="#000000" stroke-width="0.5" stroke-linecap="round"/><path d="M180.35945,130.87432c0,0 4.66532,-0.80778 3.9787,5.17786c-1.23089,10.73018 -6.89243,14.38287 -6.89243,14.38287" data-paper-data="{&quot;index&quot;:null}" fill="none" stroke="#000000" stroke-width="0.5" stroke-linecap="round"/><path d="M48.97257,210.53873c2.92159,-2.08928 9.22524,0.76014 12.85878,5.84112c3.63354,5.08104 4.91758,11.31789 1.99599,13.40717c-2.92159,2.08928 -8.94249,-0.76016 -12.576,-5.84114c-3.63354,-5.08104 -5.20036,-11.31787 -2.27877,-13.40713z" data-paper-data="{&quot;index&quot;:null}" fill="#000000" stroke="none" stroke-width="0" stroke-linecap="butt"/><path d="M54.66204,138.13595c0,8.00316 14.32416,24.74689 17.96909,33.05437c1.69603,3.8656 -8.3916,8.5161 -10.04376,8.5161c-3.05161,0 -10.29126,-9.54635 -15.75632,-19.80689c-3.8526,-7.23317 -6.8233,-14.82125 -6.8233,-19.67009c0,-2.03301 -1.83627,-10.88379 1.72653,-18.57366c0.83221,-1.79626 1.81961,-3.6149 2.93538,-5.42758c7.04264,-11.441 19.20032,-22.64237 29.73964,-26.44793c14.42106,-5.20718 96.74609,-13.23082 106.92599,-6.47463c2.22755,1.47836 29.25186,36.63037 25.84966,48.9312c-0.11047,0.3994 1.54024,11.4429 -1.35144,19.4088c-2.35794,6.49563 -8.93873,9.44162 -12.09073,15.23491c-2.56157,4.70805 -9.7808,12.46075 -10.45005,12.31647c-0.22263,-0.04802 -8.29563,-5.55749 -8.09454,-6.33974c1.35235,-5.26054 14.72009,-18.57511 17.92581,-25.58983c2.2534,-4.93097 2.92813,-11.5029 0.05721,-16.77192c-3.62059,-6.64492 -11.99726,-11.74741 -20.08577,-14.79631c-18.39277,-6.93296 -48.15523,-8.96541 -48.00291,-8.96541c3.40135,0 -28.29934,-3.21414 -50.45347,6.32801c-11.73426,5.05412 -19.97704,21.01345 -19.97704,25.07412z" fill="#1b312f" stroke="none" stroke-width="0" stroke-linecap="butt"/><path d="M65.8789,101.57496c-19.73098,8.57487 -25.1325,29.26222 -25.1325,18.79684c0,-2.65265 8.52889,-22.20548 10.38501,-29.72371c2.54902,-10.32502 1.80379,-23.23528 8.42862,-32.46311c6.02465,-8.39182 17.52142,-20.61614 25.46829,-26.7401c16.81813,-12.96032 31.2793,-15.52621 39.44996,-15.52621c5.78623,0 28.61898,9.22324 45.16861,21.04426c6.56771,4.69119 15.68917,13.17841 22.17706,23.71676c1.5299,2.48503 3.94614,20.11525 8.72361,35.32648c3.40438,10.83944 8.81911,32.71422 6.40582,35.97996c-0.41193,0.55745 -9.69568,-20.20728 -21.91467,-25.67186c-12.23745,-5.47286 -28.56921,-13.59062 -61.00167,-14.07281c-32.03901,-0.47633 -28.12871,-0.35431 -58.1581,9.33359z" fill="#476761" stroke="none" stroke-width="NaN" stroke-linecap="butt"/><path d="M83.91069,234.21478c-2.13976,0 4.2725,-8.51535 -7.0398,-24.41486c-19.33365,-27.17359 -28.32358,-13.74671 -28.32358,-18.42664c0,-4.18683 21.10301,-21.58326 27.71927,-24.23966c3.28216,-1.31779 1.85959,5.26436 14.33767,3.78527c4.0495,-0.48002 24.71133,-11.80511 34.56111,-10.94648c7.0881,-0.55111 25.92951,10.21342 35.71956,10.46706c7.57399,0.19624 7.70542,-2.61292 8.05462,-2.61292c0.64658,0 29.34335,15.52758 31.06444,22.33956c3.75639,6.55856 -29.91589,-4.15345 -35.88254,42.97549c-4.98629,0.99501 -5.5495,-9.21765 -12.08667,-7.10935c-7.0731,2.28123 -20.20959,16.85055 -27.87445,16.78224c-8.23322,-0.07337 -19.56998,-14.00665 -26.35146,-15.82205c-8.88418,-2.37829 -12.26346,7.22232 -13.89814,7.22232z" fill="#0a1d1e" stroke="none" stroke-width="0" stroke-linecap="butt"/><path d="M125.30431,203.34614c0.48859,0.04635 1.20554,-2.85531 4.64765,-4.12923c3.32659,-1.23115 8.06562,-0.8413 10.97219,-0.50636c3.20509,1.07938 19.87293,8.94095 19.87293,8.94095c0,0 -14.57743,1.42479 -20.94325,2.21998c-5.33464,0.66637 -15.10384,2.23339 -15.10384,2.23339l-39.83252,-8.73748c0,0 3.66559,-0.82175 9.09965,-2.66333c6.27734,-2.12738 8.01164,-3.0505 9.95496,-3.30205c4.6178,-0.59774 10.07927,-0.58088 15.28324,1.09988c5.57599,1.80091 5.56311,4.79813 6.04897,4.84423z" fill="#ffffff" stroke="#000000" stroke-width="1.25" stroke-linecap="butt"/><path d="M133.91879,188.16921c0,4.88277 -5.63779,16.69971 -9.28753,16.69971c-3.64975,0 -8.7517,-12.35276 -8.7517,-17.23553c0,-4.88277 5.4592,-9.37687 9.10894,-9.37687c3.64975,0 8.93035,5.02991 8.93035,9.91269z" fill="#5f7e7b" stroke="none" stroke-width="0" stroke-linecap="butt"/><path d="M121.59492,205.94058l-3.61718,-45.67978c0,0 4.70553,-1.47233 6.83211,-1.47233c2.21584,0 6.42983,2.14326 6.42983,2.14326l-2.85771,44.83024c0,0 -1.88284,1.13526 -3.04325,1.16582c-1.09861,0.02892 -3.74383,-0.98721 -3.74383,-0.98721z" fill="#8ea6b2" stroke="none" stroke-width="0" stroke-linecap="butt"/><path d="M74.49323,205.28144c8.96058,10.4614 13.7824,25.06129 7.2136,30.68773c-6.56878,5.62644 -22.40592,2.17093 -31.36648,-8.29044c-8.96058,-10.4614 -10.43557,-28.83927 -3.86677,-34.46569c4.55766,-3.90381 12.29204,-1.8233 19.21807,3.55469c3.05623,2.37312 5.85909,5.1117 8.60252,8.31463z" fill="#dd6000" stroke="none" stroke-width="0" stroke-linecap="butt"/><path d="M45.32197,204.0776c4.79439,-3.42855 15.13874,1.24737 21.1014,9.58541c5.96269,8.33802 8.06984,18.57279 3.27545,22.00132c-4.79439,3.42855 -14.67471,-1.24741 -20.63741,-9.58543c-5.96269,-8.33802 -8.53385,-18.57275 -3.73948,-22.00128z" data-paper-data="{&quot;index&quot;:null}" fill="#ffa200" stroke="none" stroke-width="0" stroke-linecap="butt"/><path d="M202.13741,192.54866c6.56876,5.62644 5.09385,24.00432 -3.86677,34.46569c-8.96062,10.4614 -24.7977,13.9169 -31.3665,8.29044c-6.56876,-5.62644 -1.14972,-21.05541 7.81086,-31.51676c8.96062,-10.4614 20.8536,-16.86579 27.4224,-11.23935z" data-paper-data="{&quot;index&quot;:null}" fill="#dd6000" stroke="none" stroke-width="0" stroke-linecap="butt"/><path d="M199.54953,225.41463c-5.96271,8.33802 -15.84304,13.014 -20.63743,9.58545c-4.79439,-3.42855 -2.68722,-13.66327 3.27547,-22.00132c5.96271,-8.33802 16.30707,-13.01398 21.10144,-9.58541c4.79439,3.42855 2.22319,13.66327 -3.73948,22.0013z" data-paper-data="{&quot;index&quot;:null}" fill="#ffa200" stroke="none" stroke-width="0" stroke-linecap="butt"/><path d="M197.35958,223.28143c-3.63352,5.08104 -9.65442,7.93047 -12.57601,5.84116c-2.92157,-2.08928 -1.63752,-8.3261 1.99601,-13.40715c3.63352,-5.08104 9.93719,-7.93048 12.85876,-5.84116c2.92157,2.08928 1.35477,8.32612 -2.27875,13.40717z" data-paper-data="{&quot;index&quot;:null}" fill="#000000" stroke="none" stroke-width="0" stroke-linecap="butt"/><path d="M157.46528,228.98819c0,0.90932 -9.11469,11.17299 -18.42159,18.40406c-5.65187,4.39125 -11.53954,7.33429 -15.02518,7.33429c-0.94284,0 -9.14424,-2.67179 -15.65784,-7.71275c-9.15355,-7.08405 -17.26633,-17.31849 -17.26633,-18.0256c0,-1.49834 5.15975,-5.01597 11.90435,-0.89161c5.92307,3.62201 11.52279,13.82608 20.49721,13.82608c11.77738,0 20.1299,-13.07996 26.64362,-16.47988c4.10177,-2.14098 7.32576,2.45804 7.32576,3.54538z" fill="#314e48" stroke="none" stroke-width="0" stroke-linecap="butt"/><path d="M48.76607,211.42063c2.92159,-2.08932 9.22524,0.76013 12.85876,5.84116c3.63354,5.08106 4.9176,11.31787 1.99603,13.40715c-2.92159,2.08932 -8.94249,-0.76013 -12.57601,-5.84116c-3.63354,-5.08106 -5.20034,-11.31787 -2.27877,-13.40715z" data-paper-data="{&quot;index&quot;:null}" fill="#000000" stroke="none" stroke-width="0" stroke-linecap="butt"/><path d="M122.59892,228.79924c-29.61911,-0.66564 -40.12713,-26.41772 -40.12713,-26.41772c0,0 13.88121,2.65121 20.5685,4.22547c6.90887,1.62642 12.81465,4.62136 21.43014,4.98554c8.6155,0.36416 13.31118,-2.53012 18.5242,-3.07663c4.04151,-0.4237 18.34291,-1.26797 18.34291,-1.26797c0,0 -6.47986,22.27628 -38.73863,21.55131z" fill="#ffffff" stroke="#000000" stroke-width="1.25" stroke-linecap="butt"/><path d="M-768.7439,504.25479v-696.06901h1349.44786v696.06905z" fill="url(#color-2)" stroke="none" stroke-width="NaN" stroke-linecap="butt"/><g fill="#ffffff" stroke="none" stroke-width="0.87153" stroke-linecap="butt"><path d="M280.36415,226.80795c2.84153,0.20298 3.27283,2.23266 1.29391,6.08901c-4.36378,8.0172 -8.34701,21.36226 -11.94968,40.03521c-3.55192,18.62222 -4.08471,34.27601 -1.59836,46.96145c7.86497,-8.6261 15.24789,-20.55041 22.14876,-35.77293c6.95162,-15.22251 11.61984,-28.71979 14.00471,-40.49187l0.30446,-0.30443c0.91334,-4.56675 1.90281,-8.72758 2.96839,-12.48247c0.91334,-2.68932 2.71467,-4.03396 5.40399,-4.03396h5.63233c2.48635,0 3.17136,1.57302 2.05506,4.71899c-4.16083,12.22876 -7.02773,26.86773 -8.60073,43.91694c-1.57299,17.04921 -0.73576,32.42397 2.51171,46.12423c9.43796,-10.7065 17.35365,-25.06643 23.74711,-43.07973c6.39346,-18.01329 9.92001,-33.99692 10.57966,-47.9509c0.10147,-1.42077 0.30443,-2.38487 0.60889,-2.89227c0.30444,-0.55817 1.11631,-0.83724 2.4356,-0.83724h6.24122c1.67447,0 2.74005,0.27907 3.19673,0.83724c0.50741,0.50741 0.7104,1.52226 0.60891,3.04452c-0.55817,11.0617 -2.86692,23.51879 -6.92625,37.37127c-4.0086,13.8525 -9.97077,27.60348 -17.88646,41.253c-7.9157,13.5988 -16.69403,23.72178 -26.33495,30.36893h-1.90281c-1.87745,0 -3.17136,-1.04022 -3.88173,-3.12063c-3.95786,-11.41687 -5.73381,-27.27365 -5.32788,-47.57033c-3.70414,8.98127 -8.77833,18.11479 -15.22251,27.40052c-6.4442,9.28574 -12.48245,17.04922 -18.11479,23.29045h-3.88176c-1.87744,0 -3.17136,-1.04022 -3.88173,-3.12063c-4.46529,-14.00472 -5.5816,-31.66286 -3.34897,-52.97436c2.23263,-21.31151 6.92623,-39.50243 14.08081,-54.5727c0.71039,-1.4715 2.10577,-2.20727 4.18621,-2.20727z"/><path d="M379.31049,230.23302c0.60889,-2.28338 2.15652,-3.42507 4.64287,-3.42507h4.56675c1.21781,0 2.10577,0.48204 2.66394,1.44613c0.60889,0.91334 0.73576,2.05506 0.38056,3.42507l-26.63939,104.57868c-0.60889,2.28339 -2.15652,3.42506 -4.64287,3.42506h-4.56675c-1.21781,0 -2.10577,-0.45668 -2.66395,-1.37005c-0.60889,-0.96409 -0.76112,-2.10577 -0.45668,-3.42506z"/><path d="M408.4616,226.80795h24.50826c8.37237,0 14.68969,1.77595 18.95199,5.32789c4.26231,3.55192 6.44421,8.77832 6.54572,15.67919c0.1016,6.90087 -1.16695,14.00473 -3.80566,21.31154c-2.63857,7.25607 -6.34269,12.6093 -11.11241,16.05973c-4.76974,3.39969 -10.0215,5.55622 -15.7553,6.46957c-5.73381,0.86262 -11.29003,1.34467 -16.66866,1.44615l-11.11245,43.15584c-0.60889,2.28339 -2.15652,3.42507 -4.64287,3.42507h-4.49065c-1.26854,0 -2.18189,-0.45668 -2.74004,-1.37005c-0.60889,-0.96409 -0.73577,-2.10577 -0.38056,-3.42506l24.73659,-97.42407c-2.58783,0 -4.43991,0 -5.55622,0c-1.06558,0 -1.92816,-0.4313 -2.58781,-1.29391c-0.60889,-0.91334 -0.73578,-1.95356 -0.38058,-3.12062l0.91337,-3.1206c0.20299,-0.81186 0.65965,-1.52227 1.37003,-2.13116c0.76112,-0.65964 1.49688,-0.98947 2.20726,-0.98947zM425.13024,237.61593l-11.34077,44.67808l8.67683,-0.45667c8.32162,-0.60889 13.77636,-3.24747 16.36419,-7.91572c2.63857,-4.66825 4.46526,-9.43796 5.4801,-14.30916c1.01484,-4.92195 1.52226,-8.98128 1.52226,-12.17801c0,-6.13975 -3.52656,-9.36185 -10.57965,-9.66629c-1.21781,-0.10147 -4.59215,-0.15221 -10.12297,-0.15221z"/></g></g></g></svg>