<svg version="1.1" xmlns="http://www.w3.org/2000/svg" xmlns:xlink="http://www.w3.org/1999/xlink" width="34.17311" height="34.17311" viewBox="0,0,34.17311,34.17311"><g transform="translate(-222.91346,-162.91346)"><g data-paper-data="{&quot;isPaintingLayer&quot;:true}" stroke-miterlimit="10" stroke-dasharray="" stroke-dashoffset="0" style="mix-blend-mode: normal"><path d="M229.98313,162.91347h20.03379c3.9166,0 7.06966,3.15307 7.06966,7.06966v20.03379c0,3.91659 -3.15306,7.06966 -7.06966,7.06966h-20.03379c-3.91659,0 -7.06966,-3.15307 -7.06966,-7.06966v-20.03379c0,-3.91659 3.15307,-7.06966 7.06966,-7.06966z" fill-opacity="0.13218" fill="#1a1a1a" fill-rule="evenodd" stroke="none" stroke-width="4.43922" stroke-linecap="round" stroke-linejoin="round"/><path d="M227.06354,174.0854c0,-3.00719 2.43782,-5.44501 5.44501,-5.44501c3.00719,0 5.44501,2.43782 5.44501,5.44501c0,3.00719 -2.43782,5.44501 -5.44501,5.44501c-3.00719,0 -5.44501,-2.43782 -5.44501,-5.44501z" fill="none" fill-rule="nonzero" stroke="#bfbfbf" stroke-width="3" stroke-linecap="butt" stroke-linejoin="miter"/><path d="M255.19017,173.90399c0,3.759 -12.03012,19.94531 -15.77277,19.94531c-0.72442,0 -2.93909,-0.9667 -5.47364,-2.55911c-1.55328,-0.9759 -3.52237,-1.89115 -4.47296,-3.83219c-2.07137,-4.22961 -0.81049,-11.52838 1.40252,-18.88591c1.45699,-4.84402 11.82883,1.89917 11.82883,1.89917c0,0 1.96869,-3.37354 5.71134,-3.37354c3.74265,0 6.77667,3.04727 6.77667,6.80626z" fill="#ffffff" fill-rule="nonzero" stroke="none" stroke-width="0" stroke-linecap="butt" stroke-linejoin="miter"/><path d="M250.86121,175.43763l-5.2163,-2.60815" fill="none" fill-rule="nonzero" stroke="#bfbfbf" stroke-width="2" stroke-linecap="round" stroke-linejoin="miter"/><path d="M231.54589,186.97656c0,0 7.43733,-7.29376 8.77568,-6.53074c1.81465,1.03455 -0.81633,11.02063 -0.81633,11.02063" fill="none" fill-rule="nonzero" stroke="#bfbfbf" stroke-width="4.5" stroke-linecap="round" stroke-linejoin="miter"/></g></g></svg>