<svg version="1.1" xmlns="http://www.w3.org/2000/svg" xmlns:xlink="http://www.w3.org/1999/xlink" width="150.65986" height="293.44035" viewBox="0,0,150.65986,293.44035"><g transform="translate(-164.97847,-14.05971)"><g data-paper-data="{&quot;isPaintingLayer&quot;:true}" fill-rule="nonzero" stroke-linejoin="miter" stroke-miterlimit="10" stroke-dasharray="" stroke-dashoffset="0" style="mix-blend-mode: normal"><path d="M171.39671,139.8463c0,-1.65654 -5.80143,-1.9233 -5.80143,-1.9233c0,0 6.69584,-8.87746 7.35214,-11.71771c1.53327,-6.63561 3.63213,-13.1957 6.47589,-19.36975c8.70427,0.25273 17.4495,-0.41132 26.41184,-1.36614c8.11696,-0.86476 16.17412,-1.68576 24.32942,-2.47607c3.95066,-0.38285 14.20793,2.84188 19.06509,2.86669c11.09563,0.05668 29.07546,-1.46268 41.83419,0.95557c3.4552,0.65489 6.97098,1.22357 10.52537,1.70388c4.19318,9.77797 6.28153,20.56157 6.28153,31.32684c0,0.66795 3.07779,7.31159 4.43041,10.36634c2.27861,5.14598 3.33715,7.45866 3.33715,7.45866c0,0 -2.64733,-1.66693 -4.82385,-3.56682c-2.14071,-1.86864 -3.80963,-3.97893 -3.99144,-3.01508c-0.43459,2.30399 -0.59561,10.92242 -4.12876,19.9176c-3.49395,8.89536 -10.36285,18.18124 -10.36285,18.18124c0,0 -2.29192,-5.28642 -3.77673,-3.14158c-6.07718,8.77862 -11.2964,15.30957 -11.2964,15.30957c0,0 -2.40974,-4.97718 -4.47106,-3.86765c-9.32569,5.01966 -20.06286,7.91078 -31.65348,7.91078c-12.60656,0 -24.772,-3.56633 -35.27102,-9.52744c-2.72845,-1.54916 -0.82623,4.38789 -0.82623,4.38789c0,0 -7.93843,-5.19677 -13.15685,-11.00681c-6.08759,-6.77777 -9.73663,-14.57056 -12.13914,-18.68944c-0.34082,-0.58431 -4.01999,1.58785 -5.934,2.01254c-2.96082,0.65696 -4.48364,-0.08182 -4.48364,-0.08182c0,0 2.67098,-3.37669 3.55098,-5.15497c0.94364,-1.90688 1.93325,-5.92746 1.93325,-5.92746c0,0 -2.66402,1.90888 -4.05965,2.38502c-1.48595,0.50696 -4.60208,0.57008 -4.60208,0.57008c0,0 4.39229,-5.64339 5.74307,-11.5602c1.27257,-5.57422 -0.4917,-11.39111 -0.4917,-12.96047z" fill="#000000" stroke="#000000" stroke-width="0" stroke-linecap="butt"/><path d="M240.51312,105.29435l0.41342,-0.69442c0.60441,0.12502 1.20624,0.24813 1.79893,0.36552c-1.41467,0.21949 -2.21235,0.3289 -2.21235,0.3289z" fill="#000000" stroke="none" stroke-width="0" stroke-linecap="butt"/><path d="M180.9191,107.13734c0.04459,-0.08853 0.08932,-0.17688 0.13417,-0.26503c1.21566,0.01965 2.43233,0.02219 3.65049,0.00934c-2.3333,0.16919 -3.7815,0.2555 -3.78466,0.25569z" fill="#000000" stroke="none" stroke-width="0" stroke-linecap="butt"/><path d="M180.9191,107.13734c0,0 0,0 0.00001,0c0,0 0,0.00001 -0.00001,0.00001z" fill="#000000" stroke="none" stroke-width="0" stroke-linecap="butt"/><path d="M171.39673,139.8463c0,-1.65654 -5.80143,-1.9233 -5.80143,-1.9233c0,0 6.69584,-8.87746 7.35214,-11.71771c1.42803,-6.18014 3.34667,-12.29479 5.90079,-18.09305c3.48148,-0.16894 6.13229,-0.35523 7.37761,-0.34107c9.70985,0.11038 19.34354,1.85256 29.08106,1.91114c25.7175,0.15471 51.30586,1.41263 76.99593,1.43336c3.25465,0.00263 6.77551,0.02773 10.36691,0.06618c3.4715,9.05551 5.20103,18.86758 5.20103,28.66447c0,0.66795 3.07779,7.31159 4.43041,10.36634c2.27861,5.14598 3.33715,7.45866 3.33715,7.45866c0,0 -2.64733,-1.66693 -4.82385,-3.56682c-2.14071,-1.86864 -3.80963,-3.97893 -3.99144,-3.01508c-0.43459,2.30399 -0.59561,10.92242 -4.12876,19.9176c-3.49395,8.89536 -10.36285,18.18124 -10.36285,18.18124c0,0 -2.29192,-5.28642 -3.77673,-3.14158c-6.07718,8.77862 -11.2964,15.30957 -11.2964,15.30957c0,0 -2.40974,-4.97718 -4.47106,-3.86765c-9.32569,5.01966 -20.06286,7.91078 -31.65348,7.91078c-12.60656,0 -24.772,-3.56633 -35.27102,-9.52744c-2.72845,-1.54916 -0.82623,4.38789 -0.82623,4.38789c0,0 -7.93843,-5.19677 -13.15685,-11.00681c-6.08759,-6.77777 -9.73663,-14.57056 -12.13914,-18.68944c-0.34082,-0.58431 -4.01999,1.58785 -5.934,2.01254c-2.96082,0.65696 -4.48364,-0.08182 -4.48364,-0.08182c0,0 2.67098,-3.37669 3.55098,-5.15497c0.94364,-1.90688 1.93325,-5.92746 1.93325,-5.92746c0,0 -2.66402,1.90888 -4.05965,2.38502c-1.48595,0.50696 -4.60208,0.57008 -4.60208,0.57008c0,0 4.39229,-5.64339 5.74307,-11.5602c1.27257,-5.57422 -0.4917,-11.39111 -0.4917,-12.96047z" fill="#000000" stroke="#000000" stroke-width="0" stroke-linecap="butt"/><path d="M206.75011,307.50005l15.14285,-131.8421l37.78325,-0.15789l13.57389,132z" fill="#2c4c45" stroke="#000000" stroke-width="0" stroke-linecap="butt"/><path d="M219.70033,204.11278l3.12142,-26.32765l35.83075,-0.14203l2.76735,26.1059c0,0 -7.51543,4.19603 -21.55904,4.50964c-12.48458,0.27879 -20.16049,-4.14586 -20.16049,-4.14586z" fill="#e6e6e6" stroke="#000000" stroke-width="0" stroke-linecap="butt"/><path d="M219.552,240.50748l44.71059,-13.68193l2.19888,29.0741l-41.77875,14.90353z" fill="#142d2b" stroke="#142d2b" stroke-width="0.5" stroke-linecap="round"/><path d="M226.02313,194.84141c2.90364,-1.14891 5.33465,-3.08242 7.94911,-3.08785c0.87563,-0.00181 12.20391,-0.95714 13.93003,-0.60972c2.84546,0.5727 5.19275,2.81436 7.86728,3.95087c9.94164,4.22465 18.36985,9.77615 18.36985,9.77615c0,0 1.5326,2.34578 1.5326,3.90117c0,2.53997 -2.36857,10.03159 -2.36857,10.03159c0,0 -5.39586,16.36774 -7.78969,16.44027c-0.90282,0.02736 -29.25134,16.59733 -30.42079,16.30759c-1.44131,-0.35709 1.40945,13.60628 -1.39287,18.33064c-1.619,2.72942 -10.24432,7.64705 -10.97214,7.19329c-0.37118,-0.23141 -11.05052,-6.26504 -11.29743,-6.81884c-0.29345,-0.65819 5.07749,-47.79212 5.07749,-47.79212c0,0 0.23973,-23.95295 9.51512,-27.62304z" fill="#000000" stroke="none" stroke-width="0" stroke-linecap="butt"/><g stroke="none" stroke-width="0" stroke-linecap="butt"><path d="M195.00872,213.57366l7.15518,-13.48236l18.27542,-0.37221l-0.93051,4.86341z" fill="#142d2b"/><path d="M214.58119,235.14575l-19.77264,-21.63897l24.81968,-9.09786l8.07969,10.64891z" fill="#2c4c45"/><path d="M240.55742,247.22717l-26.35936,-12.01065l13.57569,-20.19616l12.72705,7.99326z" fill="#456761"/></g><g data-paper-data="{&quot;index&quot;:null}" stroke="none" stroke-width="0" stroke-linecap="butt"><path d="M261.54305,204.62796l-0.9305,-4.86341l18.27543,0.37219l7.15519,13.48238z" fill="#2c4c45"/><path d="M253.34399,215.10331l8.07969,-10.6489l24.81967,9.09786l-19.77263,21.63896z" fill="#789396"/><path d="M240.55109,223.05916l12.72706,-7.99326l13.57568,20.19616l-26.35934,12.01065z" fill="#5f7f7c"/></g><path d="M175.84001,136.84621c0,-10.5086 2.86378,-20.38934 7.89873,-28.99206c1.07936,-0.0551 1.92593,-0.08942 2.4871,-0.08304c9.70985,0.11038 19.34354,1.85256 29.08106,1.91114c25.7175,0.15471 51.30586,1.41263 76.99593,1.43336c1.88926,0.00152 3.86823,0.01062 5.89862,0.02551c3.92044,7.79748 6.1126,16.51098 6.1126,25.7051c0,33.30185 -28.7599,60.29833 -64.23702,60.29833c-35.47712,0 -64.23702,-26.99649 -64.23702,-60.29833z" fill="#ffffff" stroke="#000000" stroke-width="2" stroke-linecap="butt"/><path d="M176.56307,136.90008c0,-0.72799 5.20666,55.91939 63.36046,56.93429c55.56352,0.9697 63.51358,-57.95314 63.51358,-56.93429c0,32.80479 -28.40173,59.39833 -63.43702,59.39833c-35.03529,0 -63.43702,-26.59354 -63.43702,-59.39833z" fill="#e6e6e6" stroke="#000000" stroke-width="0" stroke-linecap="butt"/><path d="M189.39024,137.27574c0,-12.968 10.51265,-23.48065 23.48065,-23.48065c12.968,0 23.48065,10.51265 23.48065,23.48065c0,12.968 -10.51265,23.48065 -23.48065,23.48065c-12.968,0 -23.48065,-10.51265 -23.48065,-23.48065z" fill="#ffffff" stroke="#000000" stroke-width="2" stroke-linecap="butt"/><path d="M196.45561,137c0,-9.12808 7.39976,-16.52784 16.52783,-16.52784c9.12808,0 16.52784,7.39977 16.52784,16.52784c0,9.12808 -7.39977,16.52784 -16.52784,16.52784c-9.12808,0 -16.52783,-7.39977 -16.52783,-16.52784z" fill="#000000" stroke="none" stroke-width="0" stroke-linecap="butt"/><path d="M267.12926,160.75628c-12.968,0 -23.48065,-10.51265 -23.48065,-23.48065c0,-12.968 10.51265,-23.48065 23.48065,-23.48065c12.968,0 23.48065,10.51265 23.48065,23.48065c0,12.968 -10.51265,23.48065 -23.48065,23.48065z" data-paper-data="{&quot;index&quot;:null}" fill="#ffffff" stroke="#000000" stroke-width="2" stroke-linecap="butt"/><path d="M267.01671,153.52786c-9.12807,0 -16.52783,-7.39977 -16.52783,-16.52784c0,-9.12808 7.39977,-16.52784 16.52783,-16.52784c9.12807,0 16.52783,7.39977 16.52783,16.52784c0,9.12808 -7.39977,16.52784 -16.52783,16.52784z" data-paper-data="{&quot;index&quot;:null}" fill="#000000" stroke="none" stroke-width="0" stroke-linecap="butt"/><path d="M189.39024,137.27574c0,-12.968 10.51265,-23.48065 23.48065,-23.48065c12.968,0 23.48065,10.51265 23.48065,23.48065c0,0 -46.96131,1.23155 -46.96131,0z" fill="#ffffff" stroke="#000000" stroke-width="2" stroke-linecap="butt"/><path d="M243.64867,137.27574c0,-12.968 10.51265,-23.48065 23.48065,-23.48065c12.968,0 23.48065,10.51265 23.48065,23.48065c0,1.2138 -46.96131,0 -46.96131,0z" data-paper-data="{&quot;index&quot;:null}" fill="#ffffff" stroke="#000000" stroke-width="2" stroke-linecap="butt"/><path d="" fill="#000000" stroke="none" stroke-width="0" stroke-linecap="butt"/><path d="" data-paper-data="{&quot;index&quot;:null}" fill="#000000" stroke="none" stroke-width="0" stroke-linecap="butt"/><path d="" fill="#000000" stroke="none" stroke-width="0" stroke-linecap="butt"/><g stroke-width="0" stroke-linecap="butt"><path d="M166.35646,90.04636c0,0 -2.99033,-10.5841 -0.16078,-23.27942c2.07983,-9.33159 8.59783,-19.80385 15.18885,-28.05189c14.78299,-18.49937 45.36674,-24.65534 57.20613,-24.65534c11.82257,0 45.30901,6.73065 60.59424,24.49471c7.911,9.19387 12.5026,20.44656 14.47781,30.28631c2.34013,11.65759 0.94756,21.83111 0.94756,21.83111c0,0 -6.07686,-3.68332 -6.6175,-5.05363c-4.07298,-10.32363 -1.09663,-26.35646 -12.38885,-37.00076c-4.67014,-4.40216 -11.34532,-10.89346 -18.5552,-14.68922c-14.44172,-7.60303 -32.48064,-9.86201 -39.39616,-9.86201c-5.6288,0 -33.33556,4.22471 -49.99698,20.98814c-3.68845,3.71105 -11.39895,11.93719 -14.3808,21.35368c-2.0275,6.40271 0.48493,14.02828 -1.21987,18.54346c-1.78145,4.71819 -5.6985,5.09494 -5.6985,5.09494z" fill="#5f7f7c" stroke="none"/><g><path d="M174.11609,123.91791c0,-4.61871 10.0584,-4.39866 12.95812,-6.84832c0.78788,-0.66559 -0.5032,-6.20606 0.28224,-6.81196c0.70279,-0.54215 -5.89036,-0.19079 -11.1482,-1.50048c-5.62621,-1.40148 -10.50818,-4.64734 -9.65437,-4.93522c0.13679,-0.04613 -0.66671,-11.37629 0.03333,-11.3444c3.15384,0.1436 13.12307,3.60395 22.41919,5.57809c5.5764,1.18421 23.05679,2.10779 28.36098,2.13937c10.58357,0.06303 20.53637,0.69158 22.59728,0.69158c16.78261,0 4.54639,19.64092 4.54639,36.42353c0,5.16732 5.91936,15.862 3.64424,20.12248c-1.37089,2.56714 -10.30868,-0.91422 -12.32846,1.14661c-5.51531,5.62719 -13.20161,9.11857 -21.70336,9.11857c-9.38244,0 -20.22384,-3.68629 -25.79801,-10.36867c-1.75362,-2.10226 -7.17678,-1.13984 -7.84742,-3.77466c-1.01072,-3.9709 -6.36191,-25.18798 -6.36191,-29.63646z" fill="#8fa7b3" stroke="#000000"/><path d="M191.24183,137.31c0,-11.60668 9.40903,-21.01577 21.01577,-21.01577c11.60668,0 21.01577,9.40905 21.01577,21.01577c0,11.60668 -9.40905,21.01577 -21.01577,21.01577c-11.60668,0 -21.01577,-9.40905 -21.01577,-21.01577z" fill="#000000" stroke="#000000"/><path d="M206.86165,137.31c0,-2.9801 2.41584,-5.39595 5.39594,-5.39595c2.9801,0 5.39595,2.41585 5.39595,5.39595c0,2.9801 -2.41585,5.39595 -5.39595,5.39595c-2.9801,0 -5.39594,-2.41585 -5.39594,-5.39595z" fill="#ff9a00" stroke="none"/></g><g data-paper-data="{&quot;index&quot;:null}"><path d="M299.42438,152.97288c-0.67064,2.6348 -6.09382,1.67241 -7.84744,3.77462c-5.57417,6.68236 -16.41556,10.36869 -25.798,10.36869c-16.78261,0 -30.38761,-13.60499 -30.38761,-30.38761c0,-16.78261 -12.23627,-36.42352 4.54637,-36.42352c2.06094,0 12.01371,-0.62851 22.59728,-0.69158c5.30418,-0.0316 22.78461,-0.95518 28.36098,-2.13939c9.29612,-1.97415 19.26536,-5.43446 22.41918,-5.57809c0.70004,-0.03187 -0.10345,11.29824 0.03333,11.34437c0.85382,0.2879 -4.02814,3.53374 -9.65438,4.93521c-5.25783,1.30971 -11.851,0.95834 -11.14821,1.50049c0.78546,0.6059 -0.50563,6.14637 0.28225,6.81196c2.89973,2.44968 12.95813,2.22958 12.95813,6.84832c0,4.44848 -5.35122,25.66556 -6.36191,29.63648z" fill="#8fa7b3" stroke="#000000"/><path d="M267.64484,157.74419c-11.60668,0 -21.01577,-9.40905 -21.01577,-21.01577c0,-11.60668 9.40905,-21.01577 21.01577,-21.01577c11.60668,0 21.01577,9.40903 21.01577,21.01577c0,11.60668 -9.40905,21.01577 -21.01577,21.01577z" fill="#000000" stroke="#000000"/><path d="M267.64484,142.12456c-2.9801,0 -5.39595,-2.41585 -5.39595,-5.39595c0,-2.9801 2.41585,-5.39595 5.39595,-5.39595c2.9801,0 5.39595,2.41585 5.39595,5.39595c0,2.9801 -2.41585,5.39595 -5.39595,5.39595z" fill="#ff9a00" stroke="none"/></g><path d="M314.396,90.53893c0,7.07623 -33.11745,12.81263 -73.96987,12.81263c-40.85245,0 -73.96987,-5.73643 -73.96987,-12.81263c0,-7.07622 33.11744,-12.81263 73.96987,-12.81263c40.85242,0 73.96987,5.73643 73.96987,12.81263z" fill="#bed3e5" stroke="none"/></g><path d="" fill="#000000" stroke="#000000" stroke-width="2" stroke-linecap="butt"/><path d="" fill="#2c4c45" stroke="none" stroke-width="0" stroke-linecap="butt"/><path d="" fill="#142d2b" stroke="none" stroke-width="0" stroke-linecap="butt"/><path d="" fill="#031718" stroke="none" stroke-width="0" stroke-linecap="butt"/><g stroke="none" stroke-width="0" stroke-linecap="butt"><path d="M231.56156,257.80057c0,7.49132 -3.89364,13.56426 -8.6967,13.56426c-4.80306,0 -8.6967,-6.07292 -8.6967,-13.56426c0,-7.49133 3.89364,-13.56426 8.6967,-13.56426c4.80306,0 8.6967,6.07293 8.6967,13.56426z" fill="#bed3e5"/><path d="M231.60023,258.00919c0,7.62574 -3.74723,11.94321 -7.52236,11.94321c-3.77512,0 -7.52236,-4.61184 -7.52236,-12.2376c0,-7.62574 4.23788,-12.43385 8.013,-12.43385c3.77512,0 7.03173,5.10248 7.03173,12.72823z" fill="#8fa7b3"/><path d="M226.31403,249.86297c0,0.41023 -1.19888,0.32431 -2.16977,1.12759c-0.15095,0.12489 -2.29813,3.28817 -2.78569,3.28817c-0.5954,0 -0.21549,-2.10224 0.36893,-3.32416c0.3465,-0.72445 1.92089,-2.85791 2.86929,-2.85791c0.9484,0 1.71724,0.7908 1.71724,1.7663z" fill="#bdd2e4"/></g><path d="" fill="#000000" stroke="none" stroke-width="0" stroke-linecap="butt"/><path d="" data-paper-data="{&quot;index&quot;:null}" fill="#000000" stroke="none" stroke-width="0" stroke-linecap="butt"/><path d="" fill="#000000" stroke="none" stroke-width="0" stroke-linecap="butt"/><path d="" fill="#000000" stroke="#000000" stroke-width="2" stroke-linecap="butt"/><path d="" fill="#2c4c45" stroke="none" stroke-width="0" stroke-linecap="butt"/><path d="" fill="#142d2b" stroke="none" stroke-width="0" stroke-linecap="butt"/><path d="" fill="#031718" stroke="none" stroke-width="0" stroke-linecap="butt"/><path d="M267.62926,145.49168c-4.81372,0 -8.71604,-3.90228 -8.71604,-8.71604c0,-4.81372 3.90228,-8.71604 8.71604,-8.71604c4.81372,0 8.71604,3.9023 8.71604,8.71604c0,4.81372 -3.90228,8.71604 -8.71604,8.71604z" fill="#ff6833" stroke="none" stroke-width="0" stroke-linecap="butt"/><g data-paper-data="{&quot;index&quot;:null}" stroke="none" stroke-width="0" stroke-linecap="butt"><path d="M256.08391,94.56443l-55.86677,-3.13909l35.3921,-8.9353l43.30219,3.96936z" fill="#a7bccd"/><path d="M250.76113,86.23108l-8.21934,-48.51399l39.83499,39.82465z" fill="#ffa300"/><path d="M202.26658,80.24433l40.48691,-42.37489c0,0 14.80336,33.92098 16.22747,42.50323c0.27189,1.63848 -0.23643,3.99086 -1.70686,4.83564c-2.45436,1.41011 -6.5491,0.69999 -6.5491,0.69999z" data-paper-data="{&quot;index&quot;:null}" fill="#dc5e00"/></g><g stroke="#000000" stroke-width="1.5" stroke-linecap="round"><path d="M240.13101,186.71085c-15.67685,0 -20.3858,-13.42168 -20.3858,-13.42168c0,0 13.43899,0.6 20.22483,0.6c6.71665,0 20.28476,-0.6 20.28476,-0.6c0,0 -4.44694,13.42168 -20.12379,13.42168z" fill="#ffffff"/><path d="M256.98643,178.79212c0,0 -10.672,0.42857 -17.00209,0.42857c-6.55624,0 -16.68074,-0.42857 -16.68074,-0.42857" fill="none"/></g></g></g></svg>