<svg version="1.1" xmlns="http://www.w3.org/2000/svg" xmlns:xlink="http://www.w3.org/1999/xlink" width="15.16287" height="23.69564" viewBox="0,0,15.16287,23.69564"><g transform="translate(-239.89762,-170.86151)"><g data-paper-data="{&quot;isPaintingLayer&quot;:true}" fill-rule="nonzero" stroke="none" stroke-linecap="butt" stroke-linejoin="miter" stroke-miterlimit="10" stroke-dasharray="" stroke-dashoffset="0" style="mix-blend-mode: normal"><path d="M254.86967,189.13848h-3.81867c-0.13168,-0.60572 -0.21069,-1.76449 -0.23703,-3.47631c-0.079,-1.92251 -1.00075,-3.18662 -2.50189,-3.18662h-4.68776v6.66294h-3.66066v-18.27698h8.53277c3.71334,0 6.08355,2.02785 6.08355,5.26714c0,2.2122 -1.1061,3.87135 -3.02861,4.68775c1.86983,0.60572 2.84426,2.08052 2.9496,4.37173c0.07901,2.10685 0.18435,3.42365 0.3687,3.95036zM248.10139,179.52596c1.68549,0 2.76525,-1.07977 2.76525,-2.73892c0,-1.65915 -1.07976,-2.71258 -2.76525,-2.71258h-4.47708v5.4515z" fill="#000000" stroke-width="0.35808"/><path d="M239.89762,194.55715v-23.65909h15.16287v23.65909z" fill-opacity="0.00403" fill="#808080" stroke-width="0"/></g></g></svg>