<svg version="1.1" xmlns="http://www.w3.org/2000/svg" xmlns:xlink="http://www.w3.org/1999/xlink" width="15.61742" height="23.69564" viewBox="0,0,15.61742,23.69564"><g transform="translate(-239.89762,-170.86151)"><g data-paper-data="{&quot;isPaintingLayer&quot;:true}" fill-rule="nonzero" stroke-linecap="butt" stroke-linejoin="miter" stroke-miterlimit="10" stroke-dasharray="" stroke-dashoffset="0" style="mix-blend-mode: normal"><path d="" fill="none" stroke="#ff0000" stroke-width="0.5"/><path d="M255.47321,184.29272c0,1.44846 -0.50369,2.60724 -1.48307,3.50265c-1.00736,0.89542 -2.29457,1.34312 -3.86161,1.34312h-10.10172v-18.27698h9.23426c1.56702,0 2.85424,0.42137 3.86161,1.29045c1.00736,0.86908 1.51105,1.97518 1.51105,3.34463c0,1.97518 -1.1193,3.47631 -2.93818,4.18738c2.2666,0.52671 3.77765,2.29121 3.77765,4.60875zM250.18449,174.62752c-0.44772,-0.39503 -1.03535,-0.60572 -1.73492,-0.60572h-4.53318v4.47707h4.53318c0.69957,0 1.25921,-0.21068 1.73492,-0.65839c0.89545,-0.84274 0.89545,-2.37022 0,-3.21296zM249.09315,185.97821c1.37115,0 2.4065,-0.94808 2.4065,-2.2912c0,-1.34312 -1.03535,-2.31755 -2.4065,-2.31755h-5.17678v4.60875z" fill="#000000" stroke="none" stroke-width="0.35808"/><path d="M239.89762,194.55715v-23.65909h15.61742v23.65909z" fill-opacity="0.00403" fill="#808080" stroke="none" stroke-width="0"/></g></g></svg>