<svg version="1.1" xmlns="http://www.w3.org/2000/svg" xmlns:xlink="http://www.w3.org/1999/xlink" width="79.94473" height="55.85714" viewBox="0,0,79.94473,55.85714"><g transform="translate(-200.02764,-152.07143)"><g data-paper-data="{&quot;isPaintingLayer&quot;:true}" fill-rule="nonzero" stroke-linecap="butt" stroke-linejoin="miter" stroke-miterlimit="10" stroke-dasharray="" stroke-dashoffset="0" style="mix-blend-mode: normal"><path d="M200.02765,207.92857v-55.85714h79.94473v55.85714z" data-paper-data="{&quot;index&quot;:null}" fill-opacity="0.1" fill="#ffffff" stroke="none" stroke-width="0"/><g><g data-paper-data="{&quot;index&quot;:null}" fill="#ffffff" stroke="#ffffff" stroke-width="0"><path d="M236.0212,184.55378h6.37814v1.26858h-7.80528v-12.15721h1.42715z"/><path d="M245.4158,173.66515v12.15721h-1.42715v-12.15721z"/><path d="M256.52082,173.66515h1.49763l-4.68669,12.15721h-1.6562l-4.66907,-12.15721h1.49763l3.99954,10.69482z"/><path d="M267.78798,174.95135h-6.78337v4.10526h6.20194v1.21572h-6.20194v4.28146h6.78337v1.26858h-8.21053v-12.15721h8.21053z"/></g><g><path d="M216.4241,180c0,-1.2076 0.97896,-2.18655 2.18655,-2.18655c1.2076,0 2.18655,0.97896 2.18655,2.18655c0,1.2076 -0.97896,2.18655 -2.18655,2.18655c-1.2076,0 -2.18655,-0.97896 -2.18655,-2.18655z" fill="#ffffff" stroke="none" stroke-width="0"/><path d="M212.21208,180c0,-3.53383 2.86474,-6.39857 6.39857,-6.39857c3.53383,0 6.39857,2.86474 6.39857,6.39857c0,3.53383 -2.86474,6.39857 -6.39857,6.39857c-3.53383,0 -6.39857,-2.86474 -6.39857,-6.39857z" fill="none" stroke="#ffffff" stroke-width="1.5"/></g></g></g></g></svg>