<svg version="1.1" xmlns="http://www.w3.org/2000/svg" xmlns:xlink="http://www.w3.org/1999/xlink" width="94.54713" height="268.36409" viewBox="0,0,94.54713,268.36409"><g transform="translate(-190.1981,-61.04118)"><g data-paper-data="{&quot;isPaintingLayer&quot;:true}" fill-rule="nonzero" stroke-linejoin="miter" stroke-miterlimit="10" stroke-dasharray="" stroke-dashoffset="0" style="mix-blend-mode: normal"><path d="M277.30162,328.40527l-76.14441,-0.00001l0.33178,-137.73838c0,0 0.61006,-9.38466 4.22697,-17.4286c2.61863,-5.82379 7.83743,-10.29129 10.62815,-13.1216c5.21306,-5.28699 21.77336,-6.59777 21.77336,-6.59777c0,0 18.97157,1.0494 24.25478,6.29157c2.76221,2.74076 7.31546,8.03169 9.75043,13.70392c0.74165,1.72765 3.90016,7.97319 4.46258,17.77295c0.16002,2.78814 0.01474,5.82465 0.13983,9.06328c1.72803,44.74024 0.57654,128.05462 0.57654,128.05462z" fill="#182e2d" stroke="#000000" stroke-width="2" stroke-linecap="round"/><path d="M215.07738,207.71688l-0.43231,120.48764" fill="none" stroke="#000000" stroke-width="2" stroke-linecap="round"/><path d="M264.37327,207.26314l-0.43231,120.48764" fill="none" stroke="#000000" stroke-width="2.5" stroke-linecap="round"/><g stroke-width="1.5"><path d="M252.2574,203.56477c0,7.04253 -5.67616,12.75164 -12.67806,12.75164c-7.0019,0 -12.67806,-5.7091 -12.67806,-12.75164c0,-7.04253 5.67616,-12.75164 12.67806,-12.75164c7.0019,0 12.67806,5.7091 12.67806,12.75164z" fill="#e18300" stroke="#000000" stroke-linecap="butt"/><path d="M227.8908,197.76856c0,0 -6.33636,-5.90818 -11.9421,-13.6187c-6.27372,-8.62929 -11.75727,-19.33115 -8.92097,-22.83321c1.83072,-2.26044 5.89678,0.33243 5.89678,0.33243c0,0 -2.23721,2.02581 -1.08772,5.60521c0.9998,3.11329 5.28448,7.63957 6.71093,10.03103c3.23283,5.41983 13.3011,16.09034 13.3011,16.09034z" fill="#98b3c1" stroke="#000000" stroke-linecap="round"/><path d="M210.82181,164.08959l-4.08172,-0.24405" fill="none" stroke="#6d838b" stroke-linecap="round"/><path d="M211.44025,167.87238l-3.33959,1.34227" fill="none" stroke="#6d838b" stroke-linecap="round"/><path d="M212.80082,171.28909l-2.47377,2.19645" fill="none" stroke="#6d838b" stroke-linecap="round"/><path d="M215.76934,175.1939l-3.58696,1.34227" fill="none" stroke="#6d838b" stroke-linecap="round"/><path d="M217.99573,178.61061l-3.71065,2.19645" fill="none" stroke="#6d838b" stroke-linecap="round"/><path d="M220.22212,180.68502l-3.83434,3.90481" fill="none" stroke="#6d838b" stroke-linecap="round"/><path d="M218.98523,188.12857l4.32909,-3.66076" fill="none" stroke="#6d838b" stroke-linecap="round"/><path d="M225.41703,187.51844l-3.46327,3.90481" fill="none" stroke="#6d838b" stroke-linecap="round"/><path d="M224.92227,194.83996l4.08172,-3.90481" fill="none" stroke="#6d838b" stroke-linecap="round"/><path d="M227.76711,197.64654c0,0 -6.33636,-5.90818 -11.9421,-13.6187c-6.27372,-8.62929 -11.75727,-19.33115 -8.92097,-22.83321c1.83072,-2.26044 5.89678,0.33244 5.89678,0.33244c0,0 -2.23721,2.02581 -1.08772,5.60521c0.9998,3.11328 5.28448,7.63956 6.71093,10.03102c3.23283,5.41983 13.3011,16.09034 13.3011,16.09034z" fill="none" stroke="#000000" stroke-linecap="round"/><path d="M247.44834,193.1316c0,0 10.06828,-10.67052 13.3011,-16.09034c1.42646,-2.39146 5.71114,-6.91774 6.71093,-10.03103c1.14948,-3.57939 -2.20092,-5.23913 -2.20092,-5.23913c0,0 5.17925,-2.95895 7.00997,-0.6985c2.8363,3.50205 -2.64724,14.20392 -8.92097,22.83321c-5.60574,7.71052 -11.9421,13.6187 -11.9421,13.6187z" data-paper-data="{&quot;index&quot;:null}" fill="#98b3c1" stroke="#000000" stroke-linecap="round"/><path d="M272.55707,163.60149l-4.70016,0.36608" data-paper-data="{&quot;index&quot;:null}" fill="none" stroke="#6d838b" stroke-linecap="round"/><path d="M267.85692,167.62831l3.33959,1.34227" data-paper-data="{&quot;index&quot;:null}" fill="none" stroke="#6d838b" stroke-linecap="round"/><path d="M266.49635,171.04503l2.47377,2.19645" data-paper-data="{&quot;index&quot;:null}" fill="none" stroke="#6d838b" stroke-linecap="round"/><path d="M263.52783,174.94985l3.58696,1.34227" data-paper-data="{&quot;index&quot;:null}" fill="none" stroke="#6d838b" stroke-linecap="round"/><path d="M261.30144,178.36655l3.71065,2.19645" data-paper-data="{&quot;index&quot;:null}" fill="none" stroke="#6d838b" stroke-linecap="round"/><path d="M259.07505,180.44098l3.83434,3.90481" data-paper-data="{&quot;index&quot;:null}" fill="none" stroke="#6d838b" stroke-linecap="round"/><path d="M255.98284,184.22376l4.32909,3.66076" data-paper-data="{&quot;index&quot;:null}" fill="none" stroke="#6d838b" stroke-linecap="round"/><path d="M257.34341,191.1792l-3.46327,-3.90481" data-paper-data="{&quot;index&quot;:null}" fill="none" stroke="#6d838b" stroke-linecap="round"/><path d="M250.29317,190.6911l4.08172,3.90481" data-paper-data="{&quot;index&quot;:null}" fill="none" stroke="#6d838b" stroke-linecap="round"/><path d="M247.57203,193.00958c0,0 10.06828,-10.67052 13.3011,-16.09034c1.42646,-2.39146 5.71114,-6.91774 6.71093,-10.03102c1.14948,-3.57939 -2.44829,-4.99508 -2.44829,-4.99508c0,0 5.42662,-3.203 7.25734,-0.94256c2.8363,3.50205 -2.64724,14.20392 -8.92097,22.83321c-5.60574,7.71052 -11.9421,13.6187 -11.9421,13.6187z" data-paper-data="{&quot;index&quot;:null}" fill="none" stroke="#000000" stroke-linecap="round"/><path d="M236.24686,191.67642c-0.28966,-0.57152 0.28966,-0.85729 0.28966,-0.85729l0.42172,-0.18284c5.31329,-1.02466 9.99891,1.81494 13.05196,5.83095c2.70807,2.74859 3.56656,9.14976 1.24666,12.36082c-0.06029,0.12238 -0.16745,0.24609 -0.35788,0.29926c-0.11564,0.04623 -0.25864,0.06398 -0.41947,0.00137c-0.16673,-0.04512 -0.27035,-0.14397 -0.33474,-0.2494c-0.12826,-0.16593 -0.13142,-0.34001 -0.0984,-0.47838c-1.01247,-2.47091 -2.73234,-4.81861 -3.47001,-7.34664c-1.5894,-4.01511 -5.76704,-6.98704 -9.52167,-8.8365c0,0 -0.12503,-0.06167 -0.22987,-0.18502c-0.1873,0.00925 -0.42369,-0.05199 -0.57793,-0.35633z" fill="#d65605" stroke="none" stroke-linecap="butt"/><path d="M252.2574,203.56477c0,7.04253 -5.67616,12.75164 -12.67806,12.75164c-7.0019,0 -12.67806,-5.7091 -12.67806,-12.75164c0,-7.04253 5.67616,-12.75164 12.67806,-12.75164c7.0019,0 12.67806,5.7091 12.67806,12.75164z" fill="none" stroke="#000000" stroke-linecap="butt"/></g><path d="M199.20354,111.32279c0,0 -2.27509,0.65404 -3.15736,0.67703c-0.95446,0.02487 -2.36989,-0.533 -2.36989,-0.533c0,0 6.18881,-5.09844 6.18881,-5.99624c0,-4.69754 -3.31982,-44.03916 41.05011,-44.42706c40.76517,-0.35637 37.57316,40.14252 37.57316,44.78328c0,2.28158 6.25686,17.15901 6.25686,17.15901l-7.18288,-5.17613c0,0 2.5429,9.57961 0.84774,19.96352c-1.58773,9.72579 -7.75862,17.67022 -7.75862,17.67022l-1.17402,-2.29289c0,0 -1.0393,2.13962 -2.19521,3.30372c-1.15591,1.1641 -3.6087,2.52763 -3.6087,2.52763l0.02046,-3.33957c0,0 -8.42909,10.1517 -25.20305,9.88643c-16.57167,-0.26207 -26.10827,-9.40883 -26.10827,-9.40883l-0.18649,1.89485c0,0 -4.59356,-4.74475 -6.82929,-10.09629c-2.90215,-6.94668 -2.67656,-11.17847 -2.67656,-11.17847c0,0 -2.77312,1.63955 -5.74169,2.15558c-3.46125,0.60167 -6.64931,0.35417 -6.64931,0.35417l7.40686,-7.39085c0,0 -2.5954,1.08897 -3.89125,1.31451c-1.19938,0.20877 -3.61685,-0.00772 -3.61685,-0.00772c0,0 5.7882,-7.50402 7.35039,-11.29317c1.42747,-3.46235 1.65507,-10.54979 1.65507,-10.54979z" fill="#000000" stroke="none" stroke-width="1.5" stroke-linecap="butt"/><path d="M211.34744,122.03227c-0.5716,-7.2238 0.33181,-17.43561 0.33181,-17.43561c0,0 4.93368,-0.4853 15.33738,-3.55876c7.99278,-2.36124 16.12948,-7.17468 16.12948,-7.17468l-4.77473,6.93722c0,0 7.94607,-1.68008 14.86838,-4.35096c7.02393,-2.71009 11.93698,-6.74954 13.71602,-4.99343c3.15602,3.08812 0.81331,26.98519 -0.16139,31.10194c-0.22163,0.93603 -1.74725,4.5521 -2.35842,7.54418c-0.61117,2.99208 -1.37953,14.53433 -2.47093,19.45843c-1.24153,5.60148 -4.8365,8.26827 -10.63832,13.94981c-5.80182,5.68155 -10.58939,7.9261 -12.74684,7.94727c-2.74056,0.02689 -8.99344,-3.76593 -13.9456,-8.99788c-5.27325,-5.57119 -8.7904,-8.39643 -9.62302,-14.99562c-0.74986,-5.94327 -0.76914,-9.8142 -1.11197,-15.10318c-0.25057,-3.86558 -2.23966,-6.38368 -2.55183,-10.32873z" fill="#ffffff" stroke="#000000" stroke-width="1.5" stroke-linecap="butt"/><path d="M218.58714,108.8651l0.42977,-1.54733c0,0 3.38788,-1.74273 7.76611,-2.15547c4.36405,-0.41141 7.51066,0.15777 7.51066,0.15777l-0.12571,4.38628c0,0 -3.23119,-0.6833 -7.2726,-0.4532c-3.07444,-0.08743 -17.11874,3.10338 -17.11874,3.10338l-0.02503,-1.32836z" fill="#000000" stroke="none" stroke-width="1.5" stroke-linecap="butt"/><path d="M259.6266,105.89197c0,0 2.58495,0.58027 3.9131,0.94264c1.37748,0.37583 4.20918,1.27342 4.20918,1.27342l0.02658,1.60365c0,0 -7.56951,-3.10018 -15.3608,-2.44708c-6.22972,0.52222 -9.70167,2.61896 -9.70167,2.61896l0.26753,-4.58151c0,0 4.98677,-1.57156 8.2888,-1.78234c3.30203,-0.21079 7.84714,0.75229 7.84714,0.75229z" data-paper-data="{&quot;index&quot;:null}" fill="#000000" stroke="none" stroke-width="1.5" stroke-linecap="butt"/><path d="M215.89086,122.41195c0,-4.84582 4.31467,-8.77414 9.63711,-8.77414c5.32243,0 9.63711,3.92831 9.63711,8.77414c0,4.84582 -4.31467,8.77414 -9.63711,8.77414c-5.32243,0 -9.63711,-3.92831 -9.63711,-8.77414z" fill="#000000" stroke="#000000" stroke-width="1.5" stroke-linecap="butt"/><path d="M242.70811,147.76934c-0.12873,2.22357 -1.54357,3.85431 -3.99162,3.85431c-2.44806,0 -3.75065,-2.70224 -3.75065,-4.92993c0,-2.22768 1.3026,-3.13723 3.75065,-3.13723c2.44806,0 4.1621,1.2681 3.99162,4.21285z" fill="#ffffff" stroke="#000000" stroke-width="1" stroke-linecap="butt"/><path d="M220.28716,122.35634c0,-2.79162 2.26305,-5.05467 5.05467,-5.05467c2.79162,0 5.05467,2.26305 5.05467,5.05467c0,2.79162 -2.26304,5.05467 -5.05467,5.05467c-2.79162,0 -5.05467,-2.26305 -5.05467,-5.05467z" fill="#e75d06" stroke="none" stroke-width="1.5" stroke-linecap="butt"/><path d="M242.75404,122.41195c0,-4.84582 4.2699,-8.77414 9.53711,-8.77414c5.2672,0 9.53711,3.92831 9.53711,8.77414c0,4.84582 -4.2699,8.77414 -9.53711,8.77414c-5.2672,0 -9.53711,-3.92831 -9.53711,-8.77414z" fill="#000000" stroke="#000000" stroke-width="1.5" stroke-linecap="butt"/><path d="M247.49423,122.35634c0,-2.79162 2.26305,-5.05467 5.05467,-5.05467c2.79162,0 5.05467,2.26305 5.05467,5.05467c0,2.79162 -2.26304,5.05467 -5.05467,5.05467c-2.79162,0 -5.05467,-2.26305 -5.05467,-5.05467z" fill="#e75d06" stroke="none" stroke-width="1.5" stroke-linecap="butt"/><path d="M215.8085,118.574c0,0 -0.62597,-5.81274 9.81233,-5.86387c9.10107,-0.04457 9.10592,5.44186 9.10592,5.44186c0,0 -6.22913,-0.98327 -9.39479,-0.91266c-3.14021,0.07005 -9.52345,1.33467 -9.52345,1.33467z" fill="#7f9ba7" stroke="#000000" stroke-width="1.25" stroke-linecap="butt"/><path d="M212.47915,131.41544c-0.5,1.48326 -4.18147,-3.12616 -5.41584,-8.29187c-1.23436,-5.16572 -1.10594,-9.00347 1.27666,-9.03026c2.2529,-0.02534 2.33616,3.69464 2.98794,7.40959c0.69836,3.98046 1.74832,8.14128 1.15124,9.91254z" data-paper-data="{&quot;index&quot;:null}" fill="#ffffff" stroke="#000000" stroke-width="1" stroke-linecap="butt"/><path d="M266.62115,121.23274c0.65177,-3.71495 0.73504,-7.43493 2.98794,-7.40959c2.3826,0.0268 2.51103,3.86455 1.27666,9.03027c-1.23437,5.16572 -4.91584,9.77513 -5.41584,8.29187c-0.59708,-1.77126 0.45288,-5.93208 1.15124,-9.91254z" data-paper-data="{&quot;index&quot;:null}" fill="#ffffff" stroke="#000000" stroke-width="1" stroke-linecap="butt"/><path d="M212.87623,127.96522c0,0 -3.40034,-2.17736 -4.13961,-7.59436c-0.41239,-3.02178 2.38961,-2.28065 2.38961,-2.28065" fill="none" stroke="#000000" stroke-width="0.5" stroke-linecap="round"/><path d="M267.16609,117.34022c0,0 2.35523,-0.4078 2.0086,2.61398c-0.6214,5.417 -3.47956,7.26102 -3.47956,7.26102" data-paper-data="{&quot;index&quot;:null}" fill="none" stroke="#000000" stroke-width="0.5" stroke-linecap="round"/><path d="M242.75317,118.65052c0,0 -0.62597,-5.81274 9.81233,-5.86387c9.10107,-0.04457 9.10591,5.44186 9.10591,5.44186c0,0 -6.22913,-0.98327 -9.39479,-0.91266c-3.14022,0.07005 -9.52345,1.33467 -9.52345,1.33467z" fill="#7f9ba7" stroke="#000000" stroke-width="1.25" stroke-linecap="butt"/><g><path d="M254.3613,159.66008c0,3.11825 -6.57239,5.6461 -14.67985,5.6461c-8.10746,0 -14.67985,-2.52784 -14.67985,-5.6461c0,-3.11825 6.57239,-5.6461 14.67985,-5.6461c8.10746,0 14.67985,2.52784 14.67985,5.6461z" fill="#ffffff" stroke="none" stroke-width="NaN" stroke-linecap="butt"/><g stroke="#000000"><path d="M240.02114,152.79886c0.24666,0.01825 0.6086,-1.12423 2.34631,-1.62581c1.67939,-0.48474 4.07183,-1.05969 5.53918,-0.92781c1.61805,0.42498 10.80579,3.11614 10.80579,3.11614c0,0 -4.54781,1.82353 -8.85088,2.55731c-4.30307,0.73378 -7.72731,1.00334 -10.33132,0.9016c-3.30127,-0.12898 -8.75077,-0.84184 -12.23104,-1.6155c-3.48027,-0.77365 -8.92973,-4.08814 -8.92973,-4.08814c0,0 6.97653,-0.96521 9.63237,-1.60133c2.23332,-0.53492 6.3384,0.71443 8.96556,1.37619c2.81497,0.70908 2.80847,1.88918 3.05375,1.90733z" fill="#ffffff" stroke-width="1.4" stroke-linecap="butt"/><path d="M217.41054,151.79339c0,0 4.921,1.8678 7.53755,3.33485c3.88726,2.17951 4.72368,3.85447 9.02709,6.27208c2.44304,1.37247 8.3849,1.58571 10.61794,0.02913c3.44461,-2.40111 4.51116,-3.09954 8.40045,-5.02091c3.74186,-1.84853 6.93761,-2.56357 6.93761,-2.56357c0,0 -4.80382,17.23303 -21.27581,16.86375c-16.47199,-0.36928 -21.24483,-18.91533 -21.24483,-18.91533z" fill="#ffffff" stroke-width="1.9" stroke-linecap="butt"/><path d="M253.83655,155.1555c0,0 -8.33574,5.02531 -14.5747,4.49995c-7.21238,-0.60733 -13.56815,-4.64281 -13.56815,-4.64281" fill="none" stroke-width="0.5" stroke-linecap="round"/></g></g><path d="M242.36447,122.4141l-1.13564,35.08008l-3.50884,0.00856c0,0 -1.01839,-25.12184 -1.73419,-30.85333c-0.29556,-2.36659 -0.53778,-4.44016 -0.53778,-4.44016" fill="#ffffff" stroke="#000000" stroke-width="1.5" stroke-linecap="round"/></g></g></svg>