<svg version="1.1" xmlns="http://www.w3.org/2000/svg" xmlns:xlink="http://www.w3.org/1999/xlink" width="34.17311" height="34.17311" viewBox="0,0,34.17311,34.17311"><g transform="translate(-222.91346,-162.91346)"><g data-paper-data="{&quot;isPaintingLayer&quot;:true}" stroke="none" stroke-miterlimit="10" stroke-dasharray="" stroke-dashoffset="0" style="mix-blend-mode: normal"><path d="M229.98313,162.91347h20.03379c3.9166,0 7.06966,3.15307 7.06966,7.06966v20.03379c0,3.91659 -3.15306,7.06966 -7.06966,7.06966h-20.03379c-3.91659,0 -7.06966,-3.15307 -7.06966,-7.06966v-20.03379c0,-3.91659 3.15307,-7.06966 7.06966,-7.06966z" fill-opacity="0.13218" fill="#1a1a1a" fill-rule="evenodd" stroke-width="4.43922" stroke-linecap="round" stroke-linejoin="round"/><path d="M251.44771,181.1608c0,0 -7.50467,16.72181 -17.40947,12.11612c-10.6391,-4.94714 -2.52697,-21.11381 -2.52697,-21.11381c0,0 3.78371,-1.51262 11.19353,1.95543c8.01555,3.75155 8.74293,7.04226 8.74293,7.04226z" fill="#bfbfbf" fill-rule="nonzero" stroke-width="NaN" stroke-linecap="butt" stroke-linejoin="miter"/><path d="M234.35518,184.42958l4.38773,-11.67538l6.78634,-6.83361l3.71335,1.77498l-2.66872,8.96032l-6.91386,10.41678z" fill="#ffffff" fill-rule="nonzero" stroke-width="0" stroke-linecap="butt" stroke-linejoin="miter"/></g></g></svg>