<svg version="1.1" xmlns="http://www.w3.org/2000/svg" xmlns:xlink="http://www.w3.org/1999/xlink" width="150.04303" height="225.82098" viewBox="0,0,150.04303,225.82098"><g transform="translate(-164.9785,-82.67901)"><g data-paper-data="{&quot;isPaintingLayer&quot;:true}" fill-rule="nonzero" stroke-linecap="butt" stroke-linejoin="miter" stroke-miterlimit="10" stroke-dasharray="" stroke-dashoffset="0" style="mix-blend-mode: normal"><path d="M170.77993,153.22052c0,-1.65654 -5.80143,-1.9233 -5.80143,-1.9233c0,0 6.69584,-8.87746 7.35214,-11.71771c6.65986,-28.82218 23.99043,-56.21969 66.68631,-56.74538c45.68643,-0.56252 68.23702,35.01087 68.23702,70.3864c0,0.66795 3.07779,7.31159 4.43041,10.36634c2.27861,5.14598 3.33715,7.45866 3.33715,7.45866c0,0 -2.64733,-1.66693 -4.82385,-3.56682c-2.14071,-1.86864 -3.80963,-3.97893 -3.99144,-3.01508c-0.43459,2.30399 -0.59561,10.92242 -4.12876,19.9176c-3.49395,8.89536 -10.36285,18.18124 -10.36285,18.18124c0,0 -2.29192,-5.28642 -3.77673,-3.14158c-6.07718,8.77862 -11.2964,15.30957 -11.2964,15.30957c0,0 -2.40974,-4.97718 -4.47106,-3.86765c-9.32569,5.01966 -20.06286,7.91078 -31.65348,7.91078c-12.60656,0 -24.772,-3.56633 -35.27102,-9.52744c-2.72845,-1.54916 -0.82623,4.38789 -0.82623,4.38789c0,0 -7.93843,-5.19677 -13.15685,-11.00681c-6.08759,-6.77777 -9.73663,-14.57056 -12.13914,-18.68944c-0.34082,-0.58431 -4.01999,1.58785 -5.934,2.01254c-2.96082,0.65696 -4.48364,-0.08182 -4.48364,-0.08182c0,0 2.67098,-3.37669 3.55098,-5.15497c0.94364,-1.90688 1.93325,-5.92746 1.93325,-5.92746c0,0 -2.66402,1.90888 -4.05965,2.38502c-1.48595,0.50696 -4.60208,0.57008 -4.60208,0.57008c0,0 4.39229,-5.64339 5.74307,-11.5602c1.27257,-5.57422 -0.4917,-11.39111 -0.4917,-12.96047z" fill="#000000" stroke="#000000" stroke-width="0"/><g><path d="M210.54669,245.5673c-1.23593,-0.71221 -2.52595,-1.52016 -2.52595,-1.52016l3.43821,-16.9072l9.39711,1.15465l-4.03278,19.831c0,0 -4.71536,-1.6586 -6.27659,-2.55828z" data-paper-data="{&quot;index&quot;:null}" fill="#456761" stroke="none" stroke-width="0"/><path d="M207.03135,262.05226c-1.23591,-0.71222 1.23248,-17.84906 1.23248,-17.84906l8.55917,3.73009l-3.51504,16.67726c0,0 -4.71537,-1.6586 -6.2766,-2.55828z" data-paper-data="{&quot;index&quot;:null}" fill="#8fa7b3" stroke="none" stroke-width="0"/><path d="M206.50534,277.10697c-0.41826,-4.16402 0.32148,-15.15658 0.32148,-15.15658l6.45499,2.59498l-4.18718,19.98242c0,0 -2.30176,-4.55834 -2.58929,-7.42084z" data-paper-data="{&quot;index&quot;:null}" fill="#bed3e5" stroke="none" stroke-width="0"/><path d="M269.52356,247.31732c-1.56123,0.89968 -6.27659,2.55828 -6.27659,2.55828l-4.03278,-19.831l9.39711,-1.15465l3.43821,16.9072c0,0 -1.29002,0.80795 -2.52595,1.52016z" fill="#456761" stroke="none" stroke-width="0"/><path d="M273.0389,263.80226c-1.56123,0.89968 -6.2766,2.55828 -6.2766,2.55828l-3.51504,-16.67726l8.55917,-3.73009c0,0 2.46839,17.13685 1.23248,17.84906z" fill="#8fa7b3" stroke="none" stroke-width="0"/><path d="M273.56491,278.85697c-0.28753,2.8625 -2.58929,7.42084 -2.58929,7.42084l-4.18718,-19.98242l6.45499,-2.59498c0,0 0.73974,10.99257 0.32148,15.15658z" fill="#bed3e5" stroke="none" stroke-width="0"/><path d="M221.27616,175.65798l37.78325,-0.15789l3.8671,37.60586c-0.6963,-0.01127 -1.29913,-0.00206 -1.77404,0.02951c-2.88185,0.19158 -5.78843,1.63667 -8.62277,1.66666c-4.68104,0.04954 -9.3637,0.10145 -14.04389,0c-7.21416,-0.15638 -13.93214,-2.38082 -21.56128,-1.25648z" fill="#ffffff" stroke="#000000" stroke-width="2"/><path d="M219.08353,204.11271l3.12142,-26.32765l35.83075,-0.14203l2.76735,26.1059c0,0 -7.51543,4.19603 -21.55904,4.50964c-12.48458,0.27879 -20.16049,-4.14586 -20.16049,-4.14586z" fill="#e6e6e6" stroke="#000000" stroke-width="0"/><path d="M206.13331,307.49998l12.03846,-92.87157c15.40868,0.04436 28.15085,-0.19563 43.55925,-0.18198l10.90227,93.05356z" fill="#000000" stroke="#000000" stroke-width="2"/><path d="M211.31263,230.75619v-18.75668c0,0 18.56293,1.0198 27.99732,1.0198c9.68908,0 29.39343,-1.0198 29.39343,-1.0198v18.75668c0,0 -6.76554,5.34882 -28.49928,5.27047c-19.35935,-0.06978 -28.89147,-5.27047 -28.89147,-5.27047z" fill="#031718" stroke="none" stroke-width="0"/><path d="M268.4235,211.4119c0,1.05713 0.4488,3.69311 -1.94204,5.02269c-5.38056,2.99221 -17.49912,4.69199 -27.20676,4.69199c-9.23809,0 -19.08557,-0.8843 -24.36256,-3.66197c-2.73224,-1.43818 -3.84595,-4.66221 -3.84595,-5.83441c0,-1.28914 1.07545,-4.64227 4.33484,-5.32834c1.80205,-0.37932 2.46887,-1.03189 2.29478,-0.25307c-0.17823,0.79731 -1.22489,3.0403 -1.71366,3.8537c-0.47202,0.78554 -1.88092,1.40023 0.9944,1.40023c0.35881,0 1.20582,1.14373 2.68738,1.74085c1.86955,0.75349 4.51081,1.02454 5.79246,1.35846c3.71724,0.96851 8.41136,0.54272 14.65228,0.78744c4.59407,0.18015 18.41762,-1.21693 22.85473,-3.46693c1.61361,-0.81824 1.02726,-1.31455 0.87427,-2.15731c-0.07332,-0.40389 -0.34679,-0.62672 -0.51864,-1.0152c-0.4476,-1.01181 -0.896,-2.02544 -0.46897,-1.92504c0.59863,0.14073 2.51087,0.64384 3.57677,1.66022c1.19582,1.14025 1.99667,2.81358 1.99667,3.12667z" fill="#142d2b" stroke="none" stroke-width="0"/><path d="M266.26903,208.77612c0,0.9804 0.41623,3.42504 -1.80108,4.65813c-4.99001,2.77502 -16.22895,4.35142 -25.23196,4.35142c-8.56755,0 -17.70026,-0.8201 -22.59422,-3.39617c-2.53391,-1.33379 -3.5668,-4.32381 -3.5668,-5.41092c0,-1.19556 0.99739,-4.30531 4.0202,-4.94159c1.67126,-0.35179 2.28967,-0.957 2.12822,-0.2347c-0.1653,0.73944 -1.13598,2.81963 -1.58929,3.57399c-0.43777,0.72851 -1.74439,1.29859 0.92222,1.29859c0.33276,0 1.1183,1.06072 2.49233,1.61449c1.73385,0.69881 4.1834,0.95018 5.37202,1.25987c3.44743,0.89822 7.80083,0.50332 13.58875,0.73028c4.2606,0.16706 17.08079,-1.12858 21.19583,-3.21528c1.49649,-0.75885 0.9527,-1.21914 0.81081,-2.00071c-0.068,-0.37458 -0.32163,-0.58124 -0.481,-0.94152c-0.41511,-0.93836 -0.83098,-1.87844 -0.43493,-1.78532c0.55518,0.13052 2.32861,0.59712 3.31714,1.5397c1.10902,1.05749 1.85175,2.60935 1.85175,2.89973z" fill="#2c4c45" stroke="none" stroke-width="0"/><path d="M220.0828,257.56559l1.06229,-17.65228c0,0 5.06206,0.33784 6.6753,0.38673c2.41665,0.07323 6.74126,0.07606 6.74126,0.07606l-0.13223,17.78451z" fill="#789396" stroke="none" stroke-width="0"/><path d="M218.89276,258.09452l0.06611,-18.51175l2.24785,0.33057v16.33001z" fill="#466862" stroke="none" stroke-width="0"/><path d="M218.69443,258.2267l2.31397,-2.04951c0,0 3.43956,1.01301 5.56424,1.20141c2.33003,0.2066 7.85678,-0.01137 7.85678,-0.01137l0.19834,2.44619c0,0 -7.46269,0.38734 -10.38283,0.09654c-2.15463,-0.21456 -5.55049,-1.68325 -5.55049,-1.68325z" fill="#142d2b" stroke="none" stroke-width="0"/><path d="M224.38018,251.35102c0,0 1.44883,-3.00632 2.09459,-4.13946c0.44988,-0.78943 1.40942,-2.00908 1.40942,-2.00908c0,0 0.8535,1.34902 1.31674,2.21546c0.65742,1.22962 2.25339,4.46198 2.25339,4.46198c0,0 -2.9845,0.24955 -4.24288,0.15546c-1.06845,-0.07988 -2.83126,-0.68437 -2.83126,-0.68437z" fill="#d4ecfe" stroke="none" stroke-width="0"/></g><path d="" fill="#ffffff" stroke="#000000" stroke-width="2"/><path d="M175.22321,150.22051c0,-33.30185 28.7599,-60.29833 64.23702,-60.29833c35.47712,0 64.23702,26.99649 64.23702,60.29833c0,33.30185 -28.7599,60.29833 -64.23702,60.29833c-35.47712,0 -64.23702,-26.99649 -64.23702,-60.29833z" fill="#ffffff" stroke="#000000" stroke-width="2"/><path d="M175.94627,150.27432c0,-0.72799 5.20666,55.91939 63.36046,56.93429c55.56352,0.9697 63.51358,-57.95314 63.51358,-56.93429c0,32.80479 -28.40173,59.39833 -63.43702,59.39833c-35.03529,0 -63.43702,-26.59354 -63.43702,-59.39833z" fill="#e6e6e6" stroke="#000000" stroke-width="0"/><path d="M277.76702,198.47242c-3.4169,2.85571 -12.90054,-17.92734 -38.10769,-18.41114c-29.69569,-0.6741 -36.78097,20.3045 -40.19534,17.27425c-21.77679,-15.4893 -23.51774,-33.90019 -23.51774,-47.03379c0,-12.80116 3.67943,-32.27205 15.26987,-42.87951c12.46317,-11.40615 32.8879,-22.48869 47.84995,-22.48869c13.47075,0 33.39196,10.10601 45.20866,19.56311c13.514,10.81546 22.54556,31.44313 19.54556,44.61628c0,0 2.88229,28.60558 -26.05327,49.35948z" fill="#2c4c45" stroke="#000000" stroke-width="2"/><path d="M183.67127,150.37433c0,-15.84802 12.84736,-28.69537 28.69538,-28.69537c15.84802,0 28.69537,12.84736 28.69537,28.69538c0,15.84802 -12.84735,28.69538 -28.69537,28.69538c-15.84801,0 -28.69538,-12.84736 -28.69538,-28.69538z" fill="#000000" stroke="none" stroke-width="0"/><path d="M210.57534,111.37438c0,-15.84802 12.84736,-28.69537 28.69538,-28.69537c15.84801,0 28.69538,12.84736 28.69538,28.69538c0,15.84802 -12.84735,28.69538 -28.69538,28.69538c-15.84801,0 -28.69538,-12.84736 -28.69538,-28.69537z" fill="#000000" stroke="none" stroke-width="0"/><path d="M188.77344,150.64996c0,-12.968 10.51265,-23.48065 23.48065,-23.48065c12.968,0 23.48065,10.51265 23.48065,23.48065c0,12.968 -10.51265,23.48065 -23.48065,23.48065c-12.968,0 -23.48065,-10.51265 -23.48065,-23.48065z" fill="#de6000" stroke="#000000" stroke-width="0"/><path d="M237.70457,150.37433c0,-15.84802 12.84736,-28.69537 28.69538,-28.69537c15.84801,0 28.69538,12.84736 28.69538,28.69538c0,15.84802 -12.84735,28.69538 -28.69538,28.69538c-15.84801,0 -28.69538,-12.84736 -28.69538,-28.69538z" fill="#000000" stroke="none" stroke-width="0"/><path d="M266.51252,174.13061c-12.968,0 -23.48065,-10.51265 -23.48065,-23.48065c0,-12.968 10.51265,-23.48065 23.48065,-23.48065c12.968,0 23.48065,10.51265 23.48065,23.48065c0,12.968 -10.51265,23.48065 -23.48065,23.48065z" data-paper-data="{&quot;index&quot;:null}" fill="#944009" stroke="#000000" stroke-width="0"/><path d="M239.38329,135.13062c-12.968,0 -23.48065,-10.51265 -23.48065,-23.48065c0,-12.968 10.51265,-23.48065 23.48065,-23.48065c12.968,0 23.48065,10.51265 23.48065,23.48065c0,12.968 -10.51265,23.48065 -23.48065,23.48065z" data-paper-data="{&quot;index&quot;:null}" fill="#ffa300" stroke="#000000" stroke-width="0"/><path d="M245.75519,198.74176c0,4.47087 -3.04502,8.09524 -6.80123,8.09524c-3.75621,0 -6.80124,-3.62437 -6.80124,-8.09524c0,-4.47087 3.04502,-8.09524 6.80124,-8.09524c3.75621,0 6.80123,3.62437 6.80123,8.09524z" fill="#000000" stroke="none" stroke-width="NaN"/></g></g></svg>