<svg version="1.1" xmlns="http://www.w3.org/2000/svg" xmlns:xlink="http://www.w3.org/1999/xlink" width="150.04303" height="232.04078" viewBox="0,0,150.04303,232.04078"><defs><radialGradient cx="232.75554" cy="213.47258" r="5.78027" gradientUnits="userSpaceOnUse" id="color-1"><stop offset="0" stop-color="#df8100"/><stop offset="1" stop-color="#df8100" stop-opacity="0"/></radialGradient></defs><g transform="translate(-164.9785,-66.98262)"><g data-paper-data="{&quot;isPaintingLayer&quot;:true}" fill-rule="nonzero" stroke-linejoin="miter" stroke-miterlimit="10" stroke-dasharray="" stroke-dashoffset="0" style="mix-blend-mode: normal"><path d="M170.77993,137.3756c0,-1.65654 -5.80143,-1.9233 -5.80143,-1.9233c0,0 6.69584,-8.87746 7.35214,-11.71771c6.65986,-28.82218 23.99043,-56.21969 66.68631,-56.74538c45.68643,-0.56252 68.23702,35.01087 68.23702,70.3864c0,0.66795 3.07779,7.31159 4.43041,10.36634c2.27861,5.14598 3.33715,7.45866 3.33715,7.45866c0,0 -2.64733,-1.66693 -4.82385,-3.56682c-2.14071,-1.86864 -3.80963,-3.97893 -3.99144,-3.01508c-0.43459,2.30399 -0.59561,10.92242 -4.12876,19.9176c-3.49395,8.89536 -10.36285,18.18124 -10.36285,18.18124c0,0 -2.29192,-5.28642 -3.77673,-3.14158c-6.07718,8.77862 -11.2964,15.30957 -11.2964,15.30957c0,0 -2.40974,-4.97718 -4.47106,-3.86765c-9.32569,5.01966 -20.06286,7.91078 -31.65348,7.91078c-12.60656,0 -24.772,-3.56633 -35.27102,-9.52744c-2.72845,-1.54916 -0.82623,4.38789 -0.82623,4.38789c0,0 -7.93843,-5.19677 -13.15685,-11.00681c-6.08759,-6.77777 -9.73663,-14.57056 -12.13914,-18.68944c-0.34082,-0.58431 -4.01999,1.58785 -5.934,2.01254c-2.96082,0.65696 -4.48364,-0.08182 -4.48364,-0.08182c0,0 2.67098,-3.37669 3.55098,-5.15497c0.94364,-1.90688 1.93325,-5.92746 1.93325,-5.92746c0,0 -2.66402,1.90888 -4.05965,2.38502c-1.48595,0.50696 -4.60208,0.57008 -4.60208,0.57008c0,0 4.39229,-5.64339 5.74307,-11.5602c1.27257,-5.57422 -0.4917,-11.39111 -0.4917,-12.96047z" fill="#000000" stroke="#000000" stroke-width="0" stroke-linecap="butt"/><path d="M206.13331,299.0234l15.14285,-131.8421l37.78325,-0.15789l13.57389,132z" fill="#53686e" stroke="#000000" stroke-width="0" stroke-linecap="butt"/><path d="M175.22322,134.37557c0,-33.30185 28.7599,-60.29833 64.23702,-60.29833c35.47712,0 64.23702,26.99649 64.23702,60.29833c0,33.30185 -28.7599,60.29833 -64.23702,60.29833c-35.47712,0 -64.23702,-26.99649 -64.23702,-60.29833z" fill="#ffffff" stroke="#000000" stroke-width="2" stroke-linecap="butt"/><g stroke="none" stroke-width="0" stroke-linecap="butt"><path d="M254.96451,215.3887c0,8.53787 -6.97595,15.45917 -15.58122,15.45917c-8.60527,0 -15.58121,-6.92131 -15.58121,-15.45917c0,-8.53787 6.97595,-15.45917 15.58121,-15.45917c8.60527,0 15.58122,6.9213 15.58122,15.45917z" fill="#08161a"/><path d="M227.87028,230.92924v-5.28866h22.94467v5.28866c0,0 -7.31399,3.41729 -11.22825,3.41729c-3.72452,0 -11.71642,-3.41729 -11.71642,-3.41729z" fill="#08161a"/><path d="M234.94895,213.45951c0,1.27122 -1.01999,2.30175 -2.2782,2.30175c-1.25821,0 -2.27819,-1.03053 -2.27819,-2.30175c0,-1.27122 1.01998,-2.30175 2.27819,-2.30175c1.25821,0 2.2782,1.03053 2.2782,2.30175z" fill="#df8100"/><path d="M238.53581,213.47258c0,3.16575 -2.58792,5.7321 -5.78027,5.7321c-3.19235,0 -5.78026,-2.56635 -5.78026,-5.7321c0,-3.16575 2.58791,-5.7321 5.78026,-5.7321c3.19235,0 5.78027,2.56635 5.78027,5.7321z" fill="url(#color-1)"/></g><path d="M175.94628,134.42941c0,-0.72799 5.20666,55.91939 63.36046,56.93429c55.56352,0.9697 63.51358,-57.95314 63.51358,-56.93429c0,32.80479 -28.40173,59.39833 -63.43702,59.39833c-35.03529,0 -63.43702,-26.59354 -63.43702,-59.39833z" fill="#e6e6e6" stroke="#000000" stroke-width="0" stroke-linecap="butt"/><path d="M188.77344,134.80504c0,-12.968 10.51265,-23.48065 23.48065,-23.48065c12.968,0 23.48065,10.51265 23.48065,23.48065c0,12.968 -10.51265,23.48065 -23.48065,23.48065c-12.968,0 -23.48065,-10.51265 -23.48065,-23.48065z" fill="#e66200" stroke="#000000" stroke-width="2" stroke-linecap="butt"/><path d="M195.83882,134.52941c0,-9.12808 7.39976,-16.52784 16.52783,-16.52784c9.12808,0 16.52784,7.39977 16.52784,16.52784c0,9.12808 -7.39977,16.52784 -16.52784,16.52784c-9.12808,0 -16.52783,-7.39977 -16.52783,-16.52784z" fill="#ff9400" stroke="none" stroke-width="0" stroke-linecap="butt"/><path d="M251.9999,174.18584h-25.10959" fill="none" stroke="#000000" stroke-width="2" stroke-linecap="round"/><path d="M266.5125,158.28568c-12.968,0 -23.48065,-10.51265 -23.48065,-23.48065c0,-12.968 10.51265,-23.48065 23.48065,-23.48065c12.968,0 23.48065,10.51265 23.48065,23.48065c0,12.968 -10.51265,23.48065 -23.48065,23.48065z" data-paper-data="{&quot;index&quot;:null}" fill="#ffffff" stroke="#000000" stroke-width="2" stroke-linecap="butt"/><path d="M266.39995,151.05725c-9.12807,0 -16.52783,-7.39977 -16.52783,-16.52784c0,-9.12808 7.39977,-16.52784 16.52783,-16.52784c9.12807,0 16.52783,7.39977 16.52783,16.52784c0,9.12808 -7.39977,16.52784 -16.52783,16.52784z" data-paper-data="{&quot;index&quot;:null}" fill="#000000" stroke="none" stroke-width="0" stroke-linecap="butt"/><path d="M201.19577,108.8217c0,0 7.33709,-4.2306 12.53902,-4.73729c5.20194,-0.50668 12.13141,2.33427 12.13141,2.33427c0,0 -7.95863,-1.12926 -11.97592,-0.73795c-4.19822,0.40893 -12.69451,3.14096 -12.69451,3.14096z" fill="#000000" stroke="none" stroke-width="0" stroke-linecap="butt"/><path d="M265.072,105.63824c-3.955,-0.80598 -11.98785,-0.50851 -11.98785,-0.50851c0,0 7.18681,-2.1067 12.30812,-1.06306c5.12129,1.04365 11.97986,6.01263 11.97986,6.01263c0,0 -8.167,-3.59877 -12.30013,-4.44105z" data-paper-data="{&quot;index&quot;:null}" fill="#000000" stroke="none" stroke-width="0" stroke-linecap="butt"/><path d="M180.30233,104.66664c11.42496,-22.68233 31.40973,-33.07142 60.56473,-32.85267c24.16321,0.18129 39.14424,9.27509 47.64651,17.23625c0.95139,0.89084 -11.16905,5.58091 -18.25999,7.52146c-15.29703,4.18628 -30.35723,6.25195 -30.35723,6.25195l6.65013,-11.17032c0,0 -23.70536,7.34319 -34.98048,9.59002c-11.17264,2.22641 -31.26367,3.4233 -31.26367,3.4233z" fill="#000000" stroke="none" stroke-width="0" stroke-linecap="butt"/><g stroke-linecap="butt"><path d="M192.10973,198.18823v-35.29349h94.54713v35.29349z" fill="#698584" stroke="#000000" stroke-width="2"/><path d="M195.92065,195.1021v-28.72864h87.08897v28.72864z" fill="#e66200" stroke="none" stroke-width="1"/></g><path d="M188.77343,135.06176c0,-12.96801 10.51265,-23.48065 23.48066,-23.48065c12.96801,0 23.48065,10.51264 23.48065,23.48065c0,0 -11.70863,-12.69294 -23.43307,-12.53879c-11.75617,0.15456 -23.52823,13.1554 -23.52823,12.53879z" fill="#688384" stroke="#000000" stroke-width="2" stroke-linecap="butt"/><path d="M243.03187,135.05836c0,-12.96801 10.51264,-23.48065 23.48065,-23.48065c12.96801,0 23.48066,10.51264 23.48066,23.48065c0,0.60606 -11.37275,-12.38438 -22.92496,-12.531c-11.92261,-0.15132 -24.03635,12.531 -24.03635,12.531z" data-paper-data="{&quot;index&quot;:null}" fill="#ffffff" stroke="#000000" stroke-width="2" stroke-linecap="butt"/><path d="M188.77343,134.81161c0,-0.61661 11.77206,19.38423 23.52823,19.53879c11.72444,0.15415 23.43307,-19.53879 23.43307,-19.53879c0,12.96801 -10.51264,23.48065 -23.48065,23.48065c-12.96801,0 -23.48066,-10.51264 -23.48066,-23.48065z" data-paper-data="{&quot;index&quot;:null}" fill="#688384" stroke="#000000" stroke-width="2" stroke-linecap="butt"/><path d="M267.06822,154.34601c11.55221,-0.14662 22.92496,-20.13706 22.92496,-19.531c0,12.96801 -10.51265,23.48065 -23.48066,23.48065c-12.96801,0 -23.48065,-10.51264 -23.48065,-23.48065c0,0 12.11374,19.68232 24.03635,19.531z" data-paper-data="{&quot;index&quot;:null}" fill="#ffffff" stroke="#000000" stroke-width="2" stroke-linecap="butt"/><path d="M266.52865,184.05117l-12.86915,-6.31034l-41.38993,7.80097l-16.43077,-4.54643v-1.40466l17.62328,3.6769l40.44586,-7.72644l12.96852,6.43457l16.05129,-2.38502v1.40466z" data-paper-data="{&quot;index&quot;:null}" fill="#ff9400" stroke="none" stroke-width="1" stroke-linecap="butt"/></g></g></svg>