<svg version="1.1" xmlns="http://www.w3.org/2000/svg" xmlns:xlink="http://www.w3.org/1999/xlink" width="176.12421" height="34.22367" viewBox="0,0,176.12421,34.22367"><g transform="translate(-151.93789,-162.17773)"><g data-paper-data="{&quot;isPaintingLayer&quot;:true}" stroke-dasharray="" stroke-dashoffset="0" style="mix-blend-mode: normal"><path d="M328.06211,180.45693c-2.93823,7.54339 -10.02118,12.48518 -17.89434,12.48492c-7.87282,-0.00014 -14.9553,-4.94186 -17.8934,-12.48492c2.9381,-7.54306 10.02058,-12.48478 17.8934,-12.48491c7.87316,-0.00026 14.95611,4.94152 17.89434,12.48491zM310.14983,174.36666c-3.35656,0.00986 -6.07235,2.73371 -6.07226,6.09028c-0.00004,1.61524 0.64159,3.16434 1.78373,4.3065c1.14214,1.14216 2.69123,1.78381 4.30647,1.7838c3.36332,-0.00033 6.08963,-2.72697 6.08955,-6.09029c0.00007,-3.36331 -2.72624,-6.08995 -6.08955,-6.09028c-0.0058,-0.00001 -0.0116,-0.00001 -0.0174,0z" fill="#808080" fill-rule="evenodd" stroke="none" stroke-width="3.20922" stroke-linecap="round" stroke-linejoin="round" stroke-miterlimit="10"/><g fill="#808080" fill-rule="evenodd" stroke="none" stroke-width="12.6009" stroke-linecap="round" stroke-linejoin="round" stroke-miterlimit="10"><path d="M255.01838,185.66251c3.03691,-0.23536 9.36546,-0.11251 9.36546,-0.11251l-0.64358,1.53138l-0.64361,1.53192c0,0 -5.4863,0.0422 -8.32132,-0.06807c-0.92236,-0.04571 -1.53014,-0.10905 -1.60056,-0.17948c-0.10433,-0.1043 -0.17461,-0.27267 -0.21379,-0.47424c-0.03917,-0.2016 -0.04724,-0.43668 -0.0265,-0.674c0.02065,-0.23732 0.07005,-0.47709 0.14515,-0.68861c0.07509,-0.21151 0.17568,-0.39451 0.29986,-0.51872c0.07841,-0.07844 0.25198,-0.1463 0.52379,-0.20423c0.2718,-0.0579 0.64235,-0.106 1.11506,-0.14402z"/><path d="M270.97008,176.71558v3.07289c0,0 -9.11981,0.02734 -13.75314,-0.0405c-1.30114,-0.0329 -2.21218,-0.09154 -2.84896,-0.19466c-0.31841,-0.05156 -0.56846,-0.11404 -0.76402,-0.19017c-0.19556,-0.0761 -0.33673,-0.1658 -0.43826,-0.27117c-0.10154,-0.10534 -0.16335,-0.22643 -0.1997,-0.36568c-0.03632,-0.13924 -0.04727,-0.29646 -0.04727,-0.47427c0,-0.17781 0.01092,-0.335 0.04727,-0.47427c0.03635,-0.13924 0.09817,-0.26088 0.1997,-0.36625c0.10154,-0.10534 0.24271,-0.19446 0.43826,-0.27059c0.19556,-0.07613 0.44561,-0.13916 0.76402,-0.19072c0.63679,-0.10312 1.54782,-0.16177 2.84896,-0.19466c4.41856,-0.10721 13.75314,-0.03995 13.75314,-0.03995z"/><path d="M270.97008,167.88232v3.07231c0,0 -9.11981,0.02713 -13.75314,-0.03992c-1.30114,-0.0329 -2.21218,-0.09154 -2.84896,-0.19466c-0.31841,-0.05156 -0.56846,-0.11404 -0.76402,-0.19017c-0.19556,-0.07613 -0.33673,-0.1658 -0.43826,-0.27117c-0.10154,-0.10534 -0.16335,-0.22643 -0.1997,-0.36568c-0.03632,-0.13927 -0.04727,-0.29646 -0.04727,-0.47427c0,-0.17781 0.01092,-0.33558 0.04727,-0.47482c0.03635,-0.13927 0.09817,-0.26034 0.1997,-0.36571c0.10154,-0.10534 0.24271,-0.19504 0.43826,-0.27117c0.19556,-0.07613 0.44561,-0.13858 0.76402,-0.19014c0.63679,-0.10312 1.54782,-0.1618 2.84896,-0.19466c4.41856,-0.10721 13.75314,-0.03995 13.75314,-0.03995z"/><path d="M283.83615,174.21997l-5.37669,0.77525c0,0 -0.17677,8.79953 -0.36006,13.30194c-0.0729,1.2853 -0.17666,2.17896 -0.3522,2.83603c-0.08777,0.32855 -0.19296,0.59836 -0.32181,0.82759c-0.12884,0.22923 -0.28111,0.41836 -0.46131,0.58678c-0.36043,0.33681 -0.83404,0.59021 -1.46161,0.91475v0c-0.30562,0.15802 -0.64237,0.28105 -0.99973,0.37187c-0.35738,0.09082 -0.73524,0.14927 -1.1235,0.17721c-0.38829,0.028 -0.78709,0.02604 -1.1854,-0.00403c-0.39831,-0.0301 -0.79619,-0.0884 -1.18367,-0.17217c-0.38751,-0.08376 -0.76431,-0.19279 -1.12013,-0.32572c-0.35583,-0.13296 -0.69082,-0.28934 -0.99411,-0.46695c-0.30329,-0.17761 -0.57517,-0.37691 -0.80506,-0.59467c-0.22989,-0.21776 -0.41799,-0.45434 -0.5536,-0.70773c-0.19527,-0.36487 -0.31832,-0.73461 -0.37582,-1.10267c-0.05761,-0.3681 -0.0494,-0.73458 0.01786,-1.09202c0.06726,-0.35741 0.19351,-0.70618 0.37245,-1.0391c0.17894,-0.33293 0.4105,-0.65004 0.68806,-0.94459c0.27753,-0.29456 0.60118,-0.5661 0.96427,-0.80843c0.36311,-0.24233 0.76554,-0.45555 1.20113,-0.6318c0.43561,-0.17623 0.90415,-0.3155 1.39919,-0.41182c0.49501,-0.09629 1.01698,-0.14901 1.55837,-0.15189l1.81663,-0.00835c0.06899,-5.8251 0.20702,-17.47526 0.20702,-17.47526l8.44958,-1.15219z"/></g><g fill="#808080" stroke="none" stroke-miterlimit="10"><path d="M217.29857,185.64637c3.50114,-0.23434 10.79704,-0.11212 10.79704,-0.11212l-0.74194,1.52646l-0.74202,1.5271c0,0 -6.3249,0.04198 -9.59329,-0.06855c-1.06331,-0.04517 -1.76397,-0.10788 -1.84521,-0.17855c-0.12015,-0.10309 -0.2007,-0.27153 -0.2464,-0.4724c-0.04517,-0.20108 -0.0542,-0.43489 -0.03029,-0.67189c0.0237,-0.23731 0.08077,-0.47538 0.16728,-0.68634c0.08656,-0.21042 0.20256,-0.39269 0.34572,-0.51651c0.09049,-0.07811 0.29045,-0.14723 0.60386,-0.20352c0.31335,-0.0574 0.74059,-0.10096 1.28552,-0.14348z" fill-rule="evenodd" stroke-width="5.14281" stroke-linecap="round" stroke-linejoin="round"/><path d="M218.9021,176.77172c4.13569,-0.1116 12.87267,-0.04252 12.87267,-0.04252l-1.24745,2.92458c0,0 -7.28851,0.16473 -11.62521,0.09618c-1.21784,-0.03188 -2.07055,-0.09087 -2.66657,-0.19395c-0.29807,-0.05208 -0.53204,-0.11372 -0.7151,-0.1897c-0.18306,-0.07599 -0.31522,-0.16526 -0.41023,-0.27048c-0.09501,-0.10522 -0.15235,-0.22584 -0.18689,-0.36454c-0.03241,-0.13869 -0.04357,-0.29491 -0.04357,-0.4724c0,-0.17748 0.00903,-0.3337 0.04357,-0.4724c0.0339,-0.13816 0.09188,-0.25985 0.18689,-0.36507c0.09506,-0.10521 0.22717,-0.19451 0.41023,-0.26995c0.18302,-0.07546 0.41715,-0.13341 0.7151,-0.1897c0.59602,-0.1015 1.44873,-0.16157 2.66657,-0.19342z" fill-rule="evenodd" stroke-width="4.63389" stroke-linecap="round" stroke-linejoin="round"/><path d="M219.16361,167.96784c4.40458,-0.1116 15.23425,-0.04252 15.23425,-0.04252l-1.52467,3.06073c0,0 -9.09093,0.02603 -13.70959,-0.04252c-1.29702,-0.03188 -2.20516,-0.09087 -2.83994,-0.19395c-0.31747,-0.05155 -0.56663,-0.11319 -0.7616,-0.18917c-0.19497,-0.07546 -0.33573,-0.16473 -0.43691,-0.26995c-0.10123,-0.10521 -0.16239,-0.22584 -0.19906,-0.36453c-0.03454,-0.13869 -0.04623,-0.29492 -0.04623,-0.4724c0,-0.17748 0.00956,-0.33477 0.04623,-0.47293c0.03613,-0.13922 0.09788,-0.25932 0.19906,-0.36453c0.10123,-0.10468 0.24194,-0.19396 0.43691,-0.26995c0.19492,-0.07598 0.44425,-0.13341 0.7616,-0.1897c0.63477,-0.1015 1.54291,-0.16158 2.83994,-0.19343z" fill-rule="evenodd" stroke-width="4.78216" stroke-linecap="round" stroke-linejoin="round"/><path d="M244.31806,172.67261l-5.82541,17.53672l-6.03808,6.19207l-0.93623,-8.49999l5.69651,-17.53593z" fill-rule="nonzero" stroke-width="2.44375" stroke-linecap="butt" stroke-linejoin="miter"/><path d="M240.04564,164.34856c1.51872,-0.81387 4.7667,0.36544 5.64023,1.74507c0.87357,1.37964 -0.37728,3.94825 -0.37728,3.94825l-7.27859,-2.19919c0,0 0.49696,-2.68031 2.01569,-3.49413z" fill-rule="nonzero" stroke-width="2.12871" stroke-linecap="butt" stroke-linejoin="miter"/></g><g fill="none" fill-rule="nonzero" stroke="#808080" stroke-width="2.84173" stroke-linecap="round" stroke-linejoin="round" stroke-miterlimit="4"><path d="M197.36903,182.08608v-18.48748"/><path d="M205.75,173.70512l-8.38096,8.38096l-8.38099,-8.38096"/><path d="M187.44741,188.92646h19.84323"/></g><g stroke-linecap="round" stroke-linejoin="round" stroke-miterlimit="4"><path d="M175.45157,187.60972l-19.35659,-9.92972l19.25123,-10.02889" fill="none" fill-rule="nonzero" stroke="#4f64bd" stroke-width="2.14"/><path d="M171.39185,167.70472c0,-2.25131 1.82505,-4.07637 4.07637,-4.07637c2.25131,0 4.07637,1.82505 4.07637,4.07637c0,2.25131 -1.82505,4.07637 -4.07637,4.07637c-2.25131,0 -4.07637,-1.82505 -4.07637,-4.07637z" fill="#4f64bd" fill-rule="evenodd" stroke="none" stroke-width="4.1"/><path d="M171.39185,187.64976c0,-2.25131 1.82505,-4.07637 4.07637,-4.07637c2.25131,0 4.07637,1.82505 4.07637,4.07637c0,2.25131 -1.82505,4.07637 -4.07637,4.07637c-2.25131,0 -4.07637,-1.82505 -4.07637,-4.07637z" fill="#4f64bd" fill-rule="evenodd" stroke="none" stroke-width="4.1"/><path d="M151.93789,177.74999c0,-2.25131 1.82505,-4.07637 4.07637,-4.07637c2.25131,0 4.07637,1.82505 4.07637,4.07637c0,2.25131 -1.82505,4.07637 -4.07637,4.07637c-2.25131,0 -4.07637,-1.82505 -4.07637,-4.07637z" fill="#4f64bd" fill-rule="evenodd" stroke="none" stroke-width="4.1"/></g></g></g></svg>