<svg version="1.1" xmlns="http://www.w3.org/2000/svg" xmlns:xlink="http://www.w3.org/1999/xlink" width="141.80833" height="237.03321" viewBox="0,0,141.80833,237.03321"><g transform="translate(-173.12769,-70.81207)"><g data-paper-data="{&quot;isPaintingLayer&quot;:true}" fill-rule="nonzero" stroke-linejoin="miter" stroke-miterlimit="10" stroke-dasharray="" stroke-dashoffset="0" style="mix-blend-mode: normal"><path d="M307.16846,139.43891c0,0.66795 3.07779,7.31159 4.43041,10.36634c2.27861,5.14598 3.33715,7.45866 3.33715,7.45866c0,0 -2.64733,-1.66693 -4.82385,-3.56682c-2.14071,-1.86864 -3.80963,-3.97893 -3.99144,-3.01508c-0.43459,2.30399 -0.59561,10.92242 -4.12876,19.9176c-3.49395,8.89536 -10.36285,18.18124 -10.36285,18.18124c0,0 -2.29192,-5.28642 -3.77672,-3.14158c-6.07718,8.77862 -11.2964,15.30957 -11.2964,15.30957c0,0 -2.40974,-4.97718 -4.47106,-3.86765c-9.32569,5.01966 -20.06286,7.91078 -31.65348,7.91078c-12.60656,0 -24.772,-3.56633 -35.27102,-9.52744c-2.72845,-1.54916 -0.82623,4.38789 -0.82623,4.38789c0,0 -5.24128,-3.43112 -10.00579,-7.83441c0.85359,-0.50979 1.66411,-1.08063 2.42246,-1.71424c4.63968,-3.87655 7.72905,-8.88635 9.85367,-14.46463c1.03289,-2.7119 0.64661,-6.19638 1.61878,-8.88487c0.64938,-1.79582 2.56153,-3.96847 3.44943,-5.74426c1.24982,-2.49965 1.47862,-5.39912 2.52028,-7.92086c1.60548,-3.8867 5.69335,-7.58536 7.9654,-11.3988c1.33005,-2.23236 1.48913,-4.94428 2.65929,-7.16571c2.52785,-4.79884 5.33684,-10.06049 8.29703,-14.61837c4.02822,-6.20235 9.8773,-8.11588 16.183,-11.02126c5.24915,-2.41858 11.43815,-8.04348 15.17767,-12.19733c2.05507,-2.28278 3.40116,-5.30796 5.51033,-7.48861c1.227,-1.26857 2.50527,-2.45737 3.78053,-3.62362c1.11,-0.71117 -3.83992,-6.00768 -2.85899,-6.88025c0.68322,-0.60776 2.11417,-0.96645 4.35605,-0.42322c0.65992,0.1599 3.9475,2.59001 4.1215,2.38453c18.57335,13.28572 27.78364,35.97445 27.78364,58.58238z" fill="#000000" stroke="#000000" stroke-width="0" stroke-linecap="butt"/><g stroke-width="0" stroke-linecap="butt"><path d="M206.05937,307.74998l15.14285,-131.8421l37.78325,-0.15789l13.57389,132z" fill="#000000" stroke="#000000"/><path d="M237.86044,307.84528v-137.69052h2.89786v137.69052z" fill="#d4ecfe" stroke="none"/><g data-paper-data="{&quot;index&quot;:null}" stroke="none"><path d="M260.79949,267.87462c-2.82971,2.26974 -5.76,4.02615 -7.07092,4.26265c-3.41372,0.61588 -6.73254,-0.90333 -7.40741,-1.85325c-1.02654,-1.44494 -3.78651,-3.4163 -4.9271,-5.49736c-1.61951,-2.95484 -1.51265,-6.01085 -1.7779,-7.06306c-1.33569,-5.29849 2.84048,-13.39498 1.79618,-15.19346c-0.18906,-0.32559 5.8989,-4.25338 6.82929,-7.43072c2.94376,-10.05294 10.38032,-19.81725 10.38032,-19.81725l8.58874,-2.83019c0,0 3.38234,-1.23873 5.15595,-1.59188c1.99144,-0.39653 6.21506,-0.67228 6.21506,-0.67228c0,0 0.10813,5.79893 -0.67463,13.44219c-0.40573,3.96176 -1.4199,8.41904 -2.03172,12.8211c-0.59626,4.29009 -1.65683,8.78347 -3.28624,13.06181c-1.47415,3.87067 -3.52839,7.65102 -4.04417,9.38718c-0.73548,2.47576 -4.19751,6.12863 -7.74548,8.9745z" fill="#031718"/><path d="M247.52031,262.28198c-3.30193,-2.31725 -6.18033,-6.84652 -6.86149,-9.5486c-1.33569,-5.29849 -1.44923,-14.10344 -2.49353,-15.9019c-0.18906,-0.32559 5.8989,-4.25338 6.82929,-7.43072c2.94376,-10.05294 10.38032,-19.81725 10.38032,-19.81725l8.58874,-2.83019c0,0 3.38237,-1.23873 5.15596,-1.59188c1.99144,-0.39653 6.21506,-0.67228 6.21506,-0.67228c0,0 -0.91416,13.36848 -2.70635,26.26329c-1.13571,8.17141 -6.24454,18.79382 -7.3304,22.449c-1.32208,4.45031 -4.55173,8.04242 -7.71301,9.59223c-2.35259,1.15336 -5.00509,0.80687 -5.00509,0.80687c0,0 -3.31697,-0.09569 -5.05949,-1.31856z" fill="#2c4c45"/><path d="M247.68587,250.4716c-2.80465,-2.75464 -5.2322,-8.46436 -7.09012,-11.66401c-0.18906,-0.32559 0.49308,18.41702 0.06583,24.12662c-0.06779,0.90588 -2.31276,0.1266 -2.34043,0.12411c-0.45049,-0.04054 0.03042,-25.11239 -0.03211,-25.79354c-0.18483,-2.01308 -0.24764,-8.37813 0.68276,-11.55548c2.94376,-10.05294 10.38032,-19.81725 10.38032,-19.81725l8.58874,-2.83019l11.371,-2.26416c0,0 -0.03098,13.72271 -1.82317,26.61751c-1.13571,8.17141 -3.84736,16.07811 -4.93322,19.73329c-2.30595,7.76219 -9.81625,6.85688 -9.81625,6.85688c0,0 -2.75288,-1.27431 -5.05336,-3.53379z" fill="#789396"/><path d="M254.43279,246.87331c-8.90435,0.70447 -9.55647,-20.71703 -9.55647,-20.71703l0.3629,-19.69816l16.93554,-1.3585l-0.72582,21.28307c0,0 -0.02502,19.93751 -7.01614,20.49062z" fill="#a7bccd"/></g><g stroke="none"><path d="M210.22164,258.85559c-0.51577,-1.73615 -2.57002,-5.51651 -4.04417,-9.38718c-1.62941,-4.27833 -2.68998,-8.7717 -3.28624,-13.06181c-0.61182,-4.40208 -1.62599,-8.85934 -2.03172,-12.8211c-0.78276,-7.64325 -0.67463,-13.44219 -0.67463,-13.44219c0,0 4.22361,0.27575 6.21506,0.67228c1.77359,0.35315 5.15595,1.59188 5.15595,1.59188l8.58874,2.83019c0,0 7.43658,9.7643 10.38032,19.81725c0.93041,3.17734 7.01835,7.10513 6.82929,7.43072c-1.04431,1.79847 3.13187,9.89496 1.79618,15.19346c-0.26525,1.05219 -0.15839,4.10822 -1.7779,7.06306c-1.14061,2.08106 -3.90056,4.05242 -4.9271,5.49736c-0.67487,0.94992 -3.99369,2.46912 -7.40739,1.85325c-1.31092,-0.2365 -4.24119,-1.99291 -7.07092,-4.26265c-3.54798,-2.84588 -7.01001,-6.49874 -7.74548,-8.9745z" fill="#031718"/><path d="M226.18685,263.55601c0,0 -2.6525,0.34648 -5.00509,-0.80687c-3.16128,-1.54982 -6.39095,-5.14191 -7.71301,-9.59223c-1.08586,-3.65517 -6.1947,-14.27758 -7.33041,-22.449c-1.79219,-12.8948 -2.70634,-26.26329 -2.70634,-26.26329c0,0 4.22361,0.27575 6.21506,0.67228c1.77359,0.35315 5.15595,1.59188 5.15595,1.59188l8.58874,2.83019c0,0 7.43657,9.7643 10.38032,19.81725c0.93041,3.17734 7.01836,7.10513 6.82931,7.43072c-1.04431,1.79847 -1.15784,10.60341 -2.49353,15.9019c-0.68117,2.70207 -3.55955,7.23134 -6.86149,9.5486c-1.74251,1.22287 -5.05949,1.31856 -5.05949,1.31856z" fill="#2c4c45"/><path d="M226.02742,253.96086c0,0 -7.5103,0.90531 -9.81625,-6.85688c-1.08586,-3.65517 -3.7975,-11.56188 -4.93322,-19.73329c-1.79219,-12.8948 -1.82317,-26.61751 -1.82317,-26.61751l11.371,2.26416l8.58874,2.83019c0,0 7.43657,9.7643 10.38032,19.81725c0.93041,3.17734 0.86759,9.54238 0.68276,11.55548c-0.06255,0.68115 0.41837,25.75299 -0.03211,25.79354c-0.02769,0.00249 -2.27265,0.78176 -2.34043,-0.12411c-0.42725,-5.70959 0.25488,-24.45221 0.06583,-24.12662c-1.85792,3.19964 -4.28548,8.90937 -7.09012,11.66401c-2.30049,2.25948 -5.05336,3.53379 -5.05336,3.53379z" fill="#789396"/><path d="M217.31771,226.33816l-0.7258,-21.28307l16.93553,1.3585l0.36291,19.69816c0,0 -0.65213,21.42151 -9.55647,20.71704c-6.99114,-0.5531 -7.01614,-20.49062 -7.01614,-20.49062z" fill="#a7bccd"/></g><g stroke="none"><path d="M218.03619,200.45174c0,-0.79453 -1.95838,-2.95796 -1.83482,-3.71757c1.11538,-6.85671 9.08741,-10.70693 16.25932,-10.70693c7.96643,0 14.42449,4.00963 14.42449,11.97605c0,0.71595 -0.49274,13.58949 -0.58169,13.8089c-1.93988,4.78556 2.67859,13.62621 -1.02453,16.88156c-0.99383,0.87367 -5.25422,1.98404 -8.0291,1.54355c-0.8339,-0.13239 -4.91604,-0.38615 -7.49161,-2.22335c-4.87431,-3.47692 -9.29947,-10.15159 -10.85504,-15.02945c-1.57411,-4.93598 -0.86702,-9.35939 -0.86702,-12.53276z" fill="#031718"/><path d="M230.67613,201.59464c0,-7.96643 6.45807,-14.42449 14.42449,-14.42449c7.96643,0 14.42449,4.00963 14.42449,11.97605c0,0.71595 -0.49274,13.58949 -0.58169,13.8089c-2.91308,7.18633 -10.4814,16.31531 -14.69444,16.37077c-4.79265,0.06309 -10.3283,-7.74316 -12.70584,-15.19846c-1.57411,-4.93598 -0.86702,-9.35939 -0.86702,-12.53276z" fill="#142d2b"/></g></g><path d="M175.13771,136.43889c0,-33.30185 28.7599,-60.29833 64.23702,-60.29833c35.47712,0 64.23702,26.99649 64.23702,60.29833c0,33.30185 -28.7599,60.29833 -64.23702,60.29833c-35.47712,0 -64.23702,-26.99649 -64.23702,-60.29833z" fill="#ffffff" stroke="#000000" stroke-width="2" stroke-linecap="butt"/><path d="M175.86077,136.49272c0,-0.72799 5.20666,55.91939 63.36046,56.93429c55.56352,0.9697 63.51358,-57.95314 63.51358,-56.93429c0,32.80479 -28.40173,59.39833 -63.43702,59.39833c-35.03529,0 -63.43702,-26.59354 -63.43702,-59.39833z" fill="#e6e6e6" stroke="#000000" stroke-width="0" stroke-linecap="butt"/><path d="M188.68794,136.86835c0,-12.968 10.51265,-23.48065 23.48065,-23.48065c12.968,0 23.48065,10.51265 23.48065,23.48065c0,12.968 -10.51265,23.48065 -23.48065,23.48065c-12.968,0 -23.48065,-10.51265 -23.48065,-23.48065z" fill="#ffffff" stroke="#000000" stroke-width="2" stroke-linecap="butt"/><path d="M195.75331,136.59273c0,-9.12808 7.39976,-16.52784 16.52783,-16.52784c9.12808,0 16.52784,7.39977 16.52784,16.52784c0,9.12808 -7.39977,16.52784 -16.52784,16.52784c-9.12808,0 -16.52783,-7.39977 -16.52783,-16.52784z" fill="#000000" stroke="none" stroke-width="0" stroke-linecap="butt"/><path d="M266.42702,160.34899c-12.968,0 -23.48065,-10.51265 -23.48065,-23.48065c0,-12.968 10.51265,-23.48065 23.48065,-23.48065c12.968,0 23.48065,10.51265 23.48065,23.48065c0,12.968 -10.51265,23.48065 -23.48065,23.48065z" data-paper-data="{&quot;index&quot;:null}" fill="#ffffff" stroke="#000000" stroke-width="2" stroke-linecap="butt"/><path d="M266.31445,153.12056c-9.12807,0 -16.52783,-7.39977 -16.52783,-16.52784c0,-9.12808 7.39977,-16.52784 16.52783,-16.52784c9.12807,0 16.52783,7.39977 16.52783,16.52784c0,9.12808 -7.39977,16.52784 -16.52783,16.52784z" data-paper-data="{&quot;index&quot;:null}" fill="#000000" stroke="none" stroke-width="0" stroke-linecap="butt"/><path d="M188.68794,136.86835c0,-12.968 10.51265,-23.48065 23.48065,-23.48065c12.968,0 23.48065,10.51265 23.48065,23.48065c0,0 -46.96131,1.23155 -46.96131,0z" fill="#ffffff" stroke="#000000" stroke-width="2" stroke-linecap="butt"/><path d="M242.94637,136.86835c0,-12.968 10.51265,-23.48065 23.48065,-23.48065c12.968,0 23.48065,10.51265 23.48065,23.48065c0,0.60792 -11.77999,2.6069 -23.5401,2.45441c-11.72048,-0.15198 -23.42121,-2.45441 -23.42121,-2.45441z" data-paper-data="{&quot;index&quot;:null}" fill="#ffffff" stroke="#000000" stroke-width="2" stroke-linecap="butt"/><path d="M201.32561,108.0599c0,0 6.70895,-5.16922 11.79721,-6.36355c5.08827,-1.19433 12.33413,0.69937 12.33413,0.69937c0,0 -8.03812,-0.06028 -11.96762,0.86207c-4.10648,0.96389 -12.16372,4.80211 -12.16372,4.80211z" fill="#000000" stroke="none" stroke-width="0" stroke-linecap="butt"/><path d="M265.26012,111.0078c-3.9295,-0.92235 -11.96762,-0.86207 -11.96762,-0.86207c0,0 7.24586,-1.8937 12.33413,-0.69937c5.08826,1.19433 11.79721,6.36355 11.79721,6.36355c0,0 -8.05724,-3.83822 -12.16372,-4.80211z" data-paper-data="{&quot;index&quot;:null}" fill="#000000" stroke="none" stroke-width="0" stroke-linecap="butt"/><path d="M288.42805,91.11355c0.95139,0.89084 -11.16905,5.58091 -18.25999,7.52146c-10.25329,2.80598 -7.11275,-11.98493 1.73136,-15.13274c4.35054,-1.54846 15.38737,6.54266 16.52863,7.61129z" fill="#000000" stroke="none" stroke-width="0" stroke-linecap="butt"/><path d="M276.71421,76.98045c0,0.16197 4.26041,3.57416 -1.26834,7.99191c-2.15077,1.71856 -7.08034,17.38894 -9.91333,19.51684c-1.93038,1.44991 -15.93804,13.68406 -18.08811,15.13958c-1.72833,1.17003 -0.81413,8.95778 -2.56181,10.03986c-1.90229,1.17783 -4.09114,4.42322 -6.02239,5.43193c-1.51085,0.78915 -1.16616,26.0134 -2.67872,26.6905c-3.19536,1.43041 -8.8084,10.95508 -11.9904,11.1138c-1.21231,0.06047 -1.88461,2.67241 -5.05246,4.37015c-5.19677,2.78511 -11.92179,4.70637 -13.75024,3.9795c-0.56986,-0.22654 -0.58884,1.89673 -1.12023,4.52328c-0.24633,1.21759 0.11101,2.89455 -6.63012,3.3955c-3.71961,0.27641 -4.5257,-1.16523 -7.67285,-1.64169c-3.59814,-0.54474 -3.30433,-1.86666 -3.50671,-2.66754c-0.41697,-1.65027 -2.94019,-3.12645 -1.23856,-5.11617c0.46319,-0.54161 1.93531,-6.89464 5.06507,-15.01935c4.54568,-11.80038 -1.89122,-19.26506 -2.16014,-19.26506c-2.12723,0 67.86977,-63.36059 67.86977,-64.17222c0,-0.37691 3.58812,-2.65717 7.14729,-3.86095c1.85314,-0.62676 5.59579,-1.84765 8.27013,-1.88362c3.24997,-0.04373 5.30214,1.19529 5.30214,1.43376z" fill="#2c4c45" stroke="none" stroke-width="0" stroke-linecap="butt"/><path d="M173.12769,132.35194c0,-33.98754 25.35207,-57.03988 61.55967,-57.03988c19.61111,0 13.07597,3.15337 17.70431,4.74193c3.91687,1.34436 6.30319,6.5577 10.01116,3.81992c1.17251,-0.86572 2.16868,-1.45991 3.00468,-1.82287c8.01627,-3.48034 1.30402,14.2998 -5.91643,17.8067c-2.48173,1.20535 -3.69074,5.23922 -8.45759,8.66179c-6.17956,4.43689 -7.47074,15.6465 -13.92225,17.11178c-2.5637,0.58227 -0.24698,3.61149 -0.62922,10.4156c-0.5082,9.04623 -2.83143,20.55933 -4.64001,23.26802c-2.74038,4.10424 -8.07183,13.58111 -14.93233,15.43549c-5.80489,1.56905 -10.15603,1.83922 -12.99356,5.26708c-2.56774,3.10193 -3.78494,3.83672 -5.74257,5.98896c-2.46874,2.71415 -25.04585,-19.66699 -25.04585,-53.65451z" fill="#8fa7b3" stroke="#000000" stroke-width="0" stroke-linecap="butt"/><path d="M238.68735,70.81207c20.57385,0 34.09287,10.52553 34.07136,11.02031c-0.16328,3.75692 -4.47482,12.3919 -9.10898,17.52894c-1.76976,1.9618 -2.50638,5.55263 -4.32311,6.77436c-2.00456,1.34805 -5.10665,0.35547 -7.45837,3.36813c-7.8219,10.02021 -8.4441,18.81579 -18.43566,18.5005c-33.80911,-1.06687 -43.30139,-26.53842 -46.65351,-32.92127c11.16472,-14.07049 33.92257,-24.27097 51.90828,-24.27097z" fill="#bed3e5" stroke="#000000" stroke-width="0" stroke-linecap="butt"/><path d="M188.68794,136.86835c0,-12.968 10.51265,-23.48065 23.48065,-23.48065c12.968,0 23.48065,10.51265 23.48065,23.48065c0,12.968 -10.51265,23.48065 -23.48065,23.48065c-12.968,0 -23.48065,-10.51265 -23.48065,-23.48065z" fill="#000000" stroke="#000000" stroke-width="0" stroke-linecap="butt"/><path d="M195.75331,136.59273c0,-9.12808 7.39976,-16.52784 16.52783,-16.52784c9.12808,0 16.52784,7.39977 16.52784,16.52784c0,9.12808 -7.39977,16.52784 -16.52784,16.52784c-9.12808,0 -16.52783,-7.39977 -16.52783,-16.52784z" fill="#de6000" stroke="none" stroke-width="0" stroke-linecap="butt"/><path d="M202.74404,136.59273c0,-5.2672 4.2699,-9.53711 9.5371,-9.53711c5.26721,0 9.53712,4.26991 9.53712,9.53712c0,5.2672 -4.26991,9.53712 -9.53711,9.53712c-5.2672,0 -9.5371,-4.26991 -9.5371,-9.53711z" fill="#ffa300" stroke="none" stroke-width="0" stroke-linecap="butt"/><path d="M239.40469,187.12672c-12.79225,0 -16.63474,-11.2108 -16.63474,-11.2108c0,0 10.96617,0.50117 16.50339,0.50117c5.48076,0 16.55229,-0.50117 16.55229,-0.50117c0,0 -3.62869,11.2108 -16.42094,11.2108z" fill="#ffffff" stroke="#000000" stroke-width="1.5" stroke-linecap="round"/><path d="M253.15864,180.5124c0,0 -8.70831,0.35797 -13.87365,0.35797c-5.34987,0 -13.61143,-0.35797 -13.61143,-0.35797" fill="none" stroke="#000000" stroke-width="1.5" stroke-linecap="round"/></g></g></svg>