<svg version="1.1" xmlns="http://www.w3.org/2000/svg" xmlns:xlink="http://www.w3.org/1999/xlink" width="35.14905" height="35.14874" viewBox="0,0,35.14905,35.14874"><g transform="translate(-222.41348,-162.41347)"><g data-paper-data="{&quot;isPaintingLayer&quot;:true}" stroke="none" stroke-miterlimit="10" stroke-dasharray="" stroke-dashoffset="0" style="mix-blend-mode: normal"><path d="M229.48314,162.41348h20.03379c3.9166,0 7.06966,3.15307 7.06966,7.06966v20.03379c0,3.91659 -3.15306,7.06966 -7.06966,7.06966h-20.03379c-3.91659,0 -7.06966,-3.15307 -7.06966,-7.06966v-20.03379c0,-3.91659 3.15307,-7.06966 7.06966,-7.06966z" fill-opacity="0.59677" fill="#5e807a" fill-rule="evenodd" stroke-width="4.43922" stroke-linecap="round" stroke-linejoin="round"/><path d="M228.45225,176.82235c2.52377,-5.17661 6.29466,-7.31487 13.13643,-4.57302c6.45666,2.5875 8.1335,8.53577 5.60974,13.71238c-2.52377,5.17661 -8.76615,7.32717 -13.94276,4.8034c-5.17661,-2.52377 -7.32717,-8.76615 -4.8034,-13.94276z" fill="#5e807a" fill-rule="nonzero" stroke-width="NaN" stroke-linecap="butt" stroke-linejoin="miter"/><path d="M230.42256,193.92624c-2.05061,-1.10061 -6.67077,-14.15238 -1.67423,-23.64802c2.08852,-3.61761 2.80443,-4.30126 3.80645,-4.50453c0.18843,-0.03822 -0.3536,1.14068 -0.79498,2.27571c-0.47656,1.22551 -0.85232,2.41639 -0.53096,2.43525c0.26365,0.01547 1.48999,-1.80754 3.22346,-3.35989c1.66171,-1.48807 4.54431,-2.09234 5.25277,-1.96709c0.7694,0.13602 -15.43683,12.60175 -4.56518,18.80135c12.66928,7.22468 12.95162,-14.72771 13.87886,-14.81025c0.29918,-0.02664 0.96365,1.2399 1.17161,3.29259c0.28619,2.82487 0.06387,6.69355 0.06387,6.69355c0,0 0.71836,-1.41398 1.27808,-2.68721c0.469,-1.06687 0.76729,-2.06458 1.01151,-1.76218c0.5973,0.73957 0.19825,6.09019 -3.18272,10.88144c-4.25002,6.02281 -16.83545,9.48805 -18.93854,8.35927z" fill="#000000" fill-rule="nonzero" stroke-width="0" stroke-linecap="butt" stroke-linejoin="miter"/><path d="M242.06255,187.96324c-0.49494,0.86966 -7.55887,4.27231 -9.52948,2.89905c-1.42142,-0.99054 -3.38845,-8.12188 -2.8935,-8.99154c0.49494,-0.86966 1.5442,3.11942 4.88919,5.02312c3.34499,1.9037 8.02874,0.19971 7.53379,1.06937z" fill="#5e807a" fill-rule="nonzero" stroke-width="0" stroke-linecap="butt" stroke-linejoin="miter"/><path d="M257.56252,169.83175v20.49804c0,4.00745 -3.22497,7.23243 -7.23242,7.23243h-20.5c-3.66107,0 -6.66147,-2.69385 -7.1543,-6.21484c0.7952,3.03475 3.54108,5.26367 6.83204,5.26367h20.0332c3.9166,0 7.07032,-3.15372 7.07032,-7.07031v-20.03321c0,-3.2976 -2.23906,-6.0451 -5.28321,-6.83398c3.52994,0.48496 6.23438,3.49081 6.23438,7.15821z" fill-opacity="0.50151" fill="#000000" fill-rule="evenodd" stroke-width="4.54219" stroke-linecap="round" stroke-linejoin="round"/></g></g></svg>