<svg version="1.1" xmlns="http://www.w3.org/2000/svg" xmlns:xlink="http://www.w3.org/1999/xlink" width="198.31801" height="255.0835" viewBox="0,0,198.31801,255.0835"><g transform="translate(-140.841,-52.95825)"><g data-paper-data="{&quot;isPaintingLayer&quot;:true}" fill-rule="nonzero" stroke-linejoin="miter" stroke-miterlimit="10" stroke-dasharray="" stroke-dashoffset="0" style="mix-blend-mode: normal"><path d="M170.59271,139.38793c0,-1.65654 -5.80143,-1.9233 -5.80143,-1.9233c0,0 6.69584,-8.87746 7.35214,-11.71771c6.65986,-28.82218 20.67167,-29.66958 63.36755,-30.19527c63.70258,-8.62237 71.55578,8.46076 71.55578,43.83629c0,0.66795 3.07779,7.31159 4.43041,10.36634c2.27861,5.14598 3.33715,7.45866 3.33715,7.45866c0,0 -2.64733,-1.66693 -4.82385,-3.56682c-2.14071,-1.86864 -3.80963,-3.97893 -3.99144,-3.01508c-0.43459,2.30399 -0.59561,10.92242 -4.12876,19.9176c-3.49395,8.89536 -10.36285,18.18124 -10.36285,18.18124c0,0 -2.29192,-5.28642 -3.77673,-3.14158c-6.07718,8.77862 -11.2964,15.30957 -11.2964,15.30957c0,0 -2.40974,-4.97718 -4.47106,-3.86765c-9.32569,5.01966 -20.06286,7.91078 -31.65348,7.91078c-12.60656,0 -24.772,-3.56633 -35.27102,-9.52744c-2.72845,-1.54916 -0.82623,4.38789 -0.82623,4.38789c0,0 -7.93843,-5.19677 -13.15685,-11.00681c-6.08759,-6.77777 -9.73663,-14.57056 -12.13914,-18.68944c-0.34082,-0.58431 -4.01999,1.58785 -5.934,2.01254c-2.96082,0.65696 -4.48364,-0.08182 -4.48364,-0.08182c0,0 2.67098,-3.37669 3.55098,-5.15497c0.94364,-1.90688 1.93325,-5.92746 1.93325,-5.92746c0,0 -2.66402,1.90888 -4.05965,2.38502c-1.48595,0.50696 -4.60208,0.57008 -4.60208,0.57008c0,0 4.39229,-5.64339 5.74307,-11.5602c1.27257,-5.57422 -0.4917,-11.39111 -0.4917,-12.96047z" fill="#000000" stroke="#000000" stroke-width="0" stroke-linecap="butt"/><path d="M205.94609,307.04174l15.14285,-131.8421l37.78325,-0.15789l13.57389,132z" fill="#ffffff" stroke="#000000" stroke-width="2" stroke-linecap="butt"/><path d="M211.67538,258.83473v-58.08285l25.84262,6.13551l29.1988,-6.13551v58.08285l-26.84947,28.63239z" fill="#152d2c" stroke="none" stroke-width="0" stroke-linecap="butt"/><path d="M235.69609,306.79175v-101.74999h7v101.74999z" fill="#466962" stroke="none" stroke-width="0" stroke-linecap="butt"/><path d="M175.03599,136.3879c0,-33.30185 28.7599,-60.29833 64.23702,-60.29833c35.47712,0 64.23702,26.99649 64.23702,60.29833c0,33.30185 -28.7599,60.29833 -64.23702,60.29833c-35.47712,0 -64.23702,-26.99649 -64.23702,-60.29833z" fill="#ffffff" stroke="#000000" stroke-width="2" stroke-linecap="butt"/><path d="M175.75905,136.44174c0,-0.72799 5.20666,55.91939 63.36046,56.93429c55.56352,0.9697 63.51358,-57.95314 63.51358,-56.93429c0,32.80479 -28.40173,59.39833 -63.43702,59.39833c-35.03529,0 -63.43702,-26.59354 -63.43702,-59.39833z" fill="#e6e6e6" stroke="#000000" stroke-width="0" stroke-linecap="butt"/><path d="M188.58622,136.81737c0,-12.968 10.51265,-23.48065 23.48065,-23.48065c12.968,0 23.48065,10.51265 23.48065,23.48065c0,12.968 -10.51265,23.48065 -23.48065,23.48065c-12.968,0 -23.48065,-10.51265 -23.48065,-23.48065z" fill="#ffffff" stroke="#000000" stroke-width="2" stroke-linecap="butt"/><path d="M195.65159,136.54174c0,-9.12808 7.39976,-16.52784 16.52783,-16.52784c9.12808,0 16.52784,7.39977 16.52784,16.52784c0,9.12808 -7.39977,16.52784 -16.52784,16.52784c-9.12808,0 -16.52783,-7.39977 -16.52783,-16.52784z" fill="#000000" stroke="none" stroke-width="0" stroke-linecap="butt"/><path d="M251.81267,176.19817h-25.10959" fill="none" stroke="#000000" stroke-width="2" stroke-linecap="round"/><path d="M266.3253,160.29801c-12.968,0 -23.48065,-10.51265 -23.48065,-23.48065c0,-12.968 10.51265,-23.48065 23.48065,-23.48065c12.968,0 23.48065,10.51265 23.48065,23.48065c0,12.968 -10.51265,23.48065 -23.48065,23.48065z" data-paper-data="{&quot;index&quot;:null}" fill="#ffffff" stroke="#000000" stroke-width="2" stroke-linecap="butt"/><path d="M266.21273,153.06958c-9.12807,0 -16.52783,-7.39977 -16.52783,-16.52784c0,-9.12808 7.39977,-16.52784 16.52783,-16.52784c9.12807,0 16.52783,7.39977 16.52783,16.52784c0,9.12808 -7.39977,16.52784 -16.52783,16.52784z" data-paper-data="{&quot;index&quot;:null}" fill="#000000" stroke="none" stroke-width="0" stroke-linecap="butt"/><path d="M210.50071,205.45578v-10.22585l30.89021,10.43037l26.0128,-11.04392l0.48774,9.20327l-26.33796,9.6123z" fill="#789396" stroke="none" stroke-width="0" stroke-linecap="butt"/><path d="M251.26176,241.04175c0,6.55408 -5.40198,11.8672 -12.06567,11.8672c-6.66369,0 -12.06567,-5.31312 -12.06567,-11.8672c0,-6.55408 5.40198,-11.8672 12.06567,-11.8672c6.66369,0 12.06567,5.31312 12.06567,11.8672z" fill="#dd6000" stroke="none" stroke-width="0" stroke-linecap="butt"/><path d="M251.26176,241.04175c0,6.55408 -5.40198,11.8672 -12.06567,11.8672c-1.3535,0 -1.40709,-23.7344 0,-23.7344c6.66369,0 12.06567,5.31312 12.06567,11.8672z" fill="#fea300" stroke="none" stroke-width="0" stroke-linecap="butt"/><path d="M188.58622,136.81737c0,-12.968 10.51265,-23.48065 23.48065,-23.48065c12.968,0 23.48065,10.51265 23.48065,23.48065c0,0 -46.96131,1.23155 -46.96131,0z" fill="#ffffff" stroke="#000000" stroke-width="2" stroke-linecap="butt"/><path d="M242.84465,136.81737c0,-12.968 10.51265,-23.48065 23.48065,-23.48065c12.968,0 23.48065,10.51265 23.48065,23.48065c0,1.2138 -46.96131,0 -46.96131,0z" data-paper-data="{&quot;index&quot;:null}" fill="#ffffff" stroke="#000000" stroke-width="2" stroke-linecap="butt"/><path d="M201.22389,108.0089c0,0 6.70895,-5.16922 11.79721,-6.36355c5.08827,-1.19433 12.33413,0.69937 12.33413,0.69937c0,0 -8.03812,-0.06028 -11.96762,0.86207c-4.10648,0.96389 -12.16372,4.80211 -12.16372,4.80211z" fill="#000000" stroke="none" stroke-width="0" stroke-linecap="butt"/><path d="M265.1584,103.2068c-3.9295,-0.92235 -11.96762,-0.86207 -11.96762,-0.86207c0,0 7.24586,-1.8937 12.33413,-0.69937c5.08826,1.19433 11.79721,6.36355 11.79721,6.36355c0,0 -8.05724,-3.83822 -12.16372,-4.80211z" data-paper-data="{&quot;index&quot;:null}" fill="#000000" stroke="none" stroke-width="0" stroke-linecap="butt"/><path d="M180.1151,106.67897c11.42496,-22.68233 31.40973,-33.07142 60.56473,-32.85267c24.16321,0.18129 39.14424,9.27509 47.64651,17.23625c0.95139,0.89084 -11.16905,5.58091 -18.25999,7.52146c-15.29703,4.18628 -30.35723,6.25195 -30.35723,6.25195l6.65013,-11.17032c0,0 -23.70536,7.34319 -34.98048,9.59002c-11.17264,2.22641 -31.26367,3.4233 -31.26367,3.4233z" fill="#000000" stroke="none" stroke-width="0" stroke-linecap="butt"/><path d="M282.75,93.77206c0,22.54084 -19.13983,40.81381 -42.75,40.81381c-23.61017,0 -42.75,-18.27297 -42.75,-40.81381c0,-22.54084 19.13983,-40.81381 42.75,-40.81381c23.61017,0 42.75,18.27297 42.75,40.81381z" fill="#dd6000" stroke="none" stroke-width="0" stroke-linecap="butt"/><path d="M282.75,93.77206c0,22.54084 -19.13983,40.81381 -42.75,40.81381c-5.78159,0 -6.00664,-81.62762 0,-81.62762c23.61017,0 42.75,18.27297 42.75,40.81381z" fill="#fea300" stroke="none" stroke-width="0" stroke-linecap="butt"/><path d="M175.02069,151.59256v-48.66053l63.95464,19.00803l65.71484,-19.00803v48.66053c0,0 -24.8271,5.09924 -32.56694,7.95172c-1.88563,0.69494 -33.1479,12.1943 -33.1479,12.1943c0,0 -17.94874,-6.97768 -29.16509,-10.85756c-11.07806,-3.83206 -34.78955,-9.28845 -34.78955,-9.28845z" fill="#dd6000" stroke="none" stroke-width="0" stroke-linecap="butt"/><path d="M238.97531,121.94009l65.71484,-19.00803v48.66053c0,0 -24.8271,5.09924 -32.56694,7.95172c-1.88563,0.69494 -33.1479,12.1943 -33.1479,12.1943z" fill="#fea300" stroke="none" stroke-width="0" stroke-linecap="butt"/><path d="M169.73596,119.62942l-13.6417,-32.45307l82.44614,11.97006l82.42771,-10.36742l-9.24115,30.85044l-73.04911,20.11341z" fill="#152d2c" stroke="none" stroke-width="0" stroke-linecap="butt"/><path d="M151.36269,101.25104l-10.52169,-25.85588l92.46338,15.81268l105.85463,-15.81268l-10.04344,24.8943l-92.6228,11.85951z" fill="#2c4c45" stroke="none" stroke-width="0" stroke-linecap="butt"/><text transform="translate(180.7221,209.32553) scale(0.44178,0.44178)" font-size="40" xml:space="preserve" fill="#ffffff" fill-rule="nonzero" stroke="#ff6f00" stroke-width="1" stroke-linecap="butt" stroke-linejoin="miter" stroke-miterlimit="10" stroke-dasharray="" stroke-dashoffset="0" font-family="Sans Serif" font-weight="normal" text-anchor="start" style="mix-blend-mode: normal"><tspan x="0" dy="0">No Animation</tspan></text></g></g></svg>