<svg version="1.1" xmlns="http://www.w3.org/2000/svg" xmlns:xlink="http://www.w3.org/1999/xlink" width="34.17311" height="34.17311" viewBox="0,0,34.17311,34.17311"><g transform="translate(-222.91345,-162.91345)"><g data-paper-data="{&quot;isPaintingLayer&quot;:true}" stroke="none" stroke-miterlimit="10" stroke-dasharray="" stroke-dashoffset="0" style="mix-blend-mode: normal"><path d="M229.98312,162.91346h20.03379c3.9166,0 7.06966,3.15307 7.06966,7.06966v20.03379c0,3.91659 -3.15306,7.06966 -7.06966,7.06966h-20.03379c-3.91659,0 -7.06966,-3.15307 -7.06966,-7.06966v-20.03379c0,-3.91659 3.15307,-7.06966 7.06966,-7.06966z" fill-opacity="0.59677" fill="#5e807a" fill-rule="evenodd" stroke-width="4.43922" stroke-linecap="round" stroke-linejoin="round"/><path d="M254.21753,187.85159c-1.38829,2.62362 -5.89349,0.35603 -9.98429,0.42604c-4.25573,0.07282 -8.10808,2.40868 -9.91173,1.35387c-1.58957,-0.92962 -0.79267,-4.77342 -2.74468,-8.35215c-1.92678,-3.53245 -6.62228,-6.78871 -5.21522,-9.44779c2.83256,-5.353 12.55233,-4.09042 12.55233,-4.09042l13.26637,8.37343c0,0 4.49098,7.09989 2.03723,11.73703z" fill="#000000" fill-rule="nonzero" stroke-width="0" stroke-linecap="butt" stroke-linejoin="miter"/><path d="M234.03024,175.90436c-0.03247,3.37797 -2.06916,6.2141 -4.54908,6.3347c-2.47991,0.12059 -4.46397,-2.52004 -4.43149,-5.898c0.03247,-3.37797 2.06916,-6.2141 4.54908,-6.3347c2.47991,-0.12059 4.46397,2.52004 4.43149,5.898z" fill="#5e807a" fill-rule="nonzero" stroke-width="0" stroke-linecap="butt" stroke-linejoin="miter"/><path d="M254.20236,183.71463c1.29524,2.11822 0.09597,5.39747 -2.67866,7.32442c-2.77463,1.92695 -6.07392,1.77188 -7.36917,-0.34634c-1.29524,-2.11822 -0.09597,-5.39747 2.67866,-7.32442c2.77463,-1.92695 6.07392,-1.77188 7.36917,0.34634z" data-paper-data="{&quot;index&quot;:null}" fill="#5e807a" fill-rule="nonzero" stroke-width="0" stroke-linecap="butt" stroke-linejoin="miter"/><path d="M253.56114,187.41489c0.15654,1.27545 -1.21224,2.95775 -3.05725,3.75749c-1.84501,0.79975 -3.46758,0.41411 -3.62413,-0.86136c-0.15654,-1.27545 1.21223,-2.95775 3.05725,-3.75749c1.84501,-0.79975 3.46759,-0.4141 3.62413,0.86136z" data-paper-data="{&quot;index&quot;:null}" fill="#000000" fill-rule="nonzero" stroke-width="0" stroke-linecap="butt" stroke-linejoin="miter"/><path d="M230.03091,175.52791c0.37658,1.97531 -0.2444,4.0533 -1.387,4.64131c-1.1426,0.58801 -2.37414,-0.53659 -2.75072,-2.51191c-0.37658,-1.97531 0.24439,-4.0533 1.38699,-4.64131c1.1426,-0.58801 2.37416,0.5366 2.75073,2.51191z" data-paper-data="{&quot;index&quot;:null}" fill="#000000" fill-rule="nonzero" stroke-width="0" stroke-linecap="butt" stroke-linejoin="miter"/><path d="M239.2627,180.34028c0,0 -0.2225,-1.22723 0.0921,-1.89937c0.31459,-0.67214 1.59545,-1.70608 1.59545,-1.70608l3.29978,-5.72446l2.49974,1.58781l-4.01839,5.40463c0,0 -0.10567,1.32433 -0.66697,2.05963c-0.56129,0.7353 -1.75907,0.94916 -1.75907,0.94916z" fill="#5e807a" fill-rule="nonzero" stroke-width="0" stroke-linecap="butt" stroke-linejoin="miter"/></g></g></svg>