<svg version="1.1" xmlns="http://www.w3.org/2000/svg" xmlns:xlink="http://www.w3.org/1999/xlink" width="150.04303" height="267.22501" viewBox="0,0,150.04303,267.22501"><g transform="translate(-164.9785,-46.38752)"><g data-paper-data="{&quot;isPaintingLayer&quot;:true}" fill-rule="nonzero" stroke-linejoin="miter" stroke-miterlimit="10" stroke-dasharray="" stroke-dashoffset="0" style="mix-blend-mode: normal"><path d="M178.66699,313.61253v-267.22501h123.18203v267.22501z" fill-opacity="0.01" fill="#000000" stroke="none" stroke-width="0" stroke-linecap="butt"/><path d="M170.77993,147.35377c0,-1.65654 -5.80143,-1.9233 -5.80143,-1.9233c0,0 6.69584,-8.87746 7.35214,-11.71771c6.65986,-28.82218 23.99043,-56.21969 66.68631,-56.74538c45.68643,-0.56252 68.23702,35.01087 68.23702,70.3864c0,0.66795 3.07779,7.31159 4.43041,10.36634c2.27861,5.14598 3.33715,7.45866 3.33715,7.45866c0,0 -2.64733,-1.66693 -4.82385,-3.56682c-2.14071,-1.86864 -3.80963,-3.97893 -3.99144,-3.01508c-0.43459,2.30399 -0.59561,10.92242 -4.12876,19.9176c-3.49395,8.89536 -10.36285,18.18124 -10.36285,18.18124c0,0 -2.29192,-5.28642 -3.77673,-3.14158c-6.07718,8.77862 -11.2964,15.30957 -11.2964,15.30957c0,0 -2.40974,-4.97718 -4.47106,-3.86765c-9.32569,5.01966 -20.06286,7.91078 -31.65348,7.91078c-12.60656,0 -24.772,-3.56633 -35.27102,-9.52744c-2.72845,-1.54916 -0.82623,4.38789 -0.82623,4.38789c0,0 -7.93843,-5.19677 -13.15685,-11.00681c-6.08759,-6.77777 -9.73663,-14.57056 -12.13914,-18.68944c-0.34082,-0.58431 -4.01999,1.58785 -5.934,2.01254c-2.96082,0.65696 -4.48364,-0.08182 -4.48364,-0.08182c0,0 2.67098,-3.37669 3.55098,-5.15497c0.94364,-1.90688 1.93325,-5.92746 1.93325,-5.92746c0,0 -2.66402,1.90888 -4.05965,2.38502c-1.48595,0.50696 -4.60208,0.57008 -4.60208,0.57008c0,0 4.39229,-5.64339 5.74307,-11.5602c1.27257,-5.57422 -0.4917,-11.39111 -0.4917,-12.96047z" fill="#000000" stroke="#000000" stroke-width="0" stroke-linecap="butt"/><g stroke-linecap="butt"><path d="M206.13331,307.50005l15.14285,-131.8421l37.78325,-0.15789l13.57389,132z" fill="#000000" stroke="#000000" stroke-width="2"/><path d="M259.51106,306.35456c0,0 -12.63389,2.23026 -20.72161,-2.64289c-5.49216,-3.30924 -6.81003,-11.02921 -9.71444,-17.25895c-5.42766,-11.64198 -9.23618,-33.05119 -9.23618,-33.05119l45.44827,-28.37815l8.22517,83.74203z" fill="#031718" stroke="none" stroke-width="0"/><path d="M229.3834,299.04125c-1.74425,-3.37221 -6.22333,-11.78411 -8.97678,-20.75994c-3.11091,-10.14103 -4.4103,-20.77964 -4.37688,-21.53459c0.08873,-2.00336 1.26397,-4.44315 1.26397,-4.44315c0,0 19.55104,25.9646 22.86336,30.66398c0.97764,1.38703 0.83803,2.96258 0.83803,2.96258c0,0 -2.85558,-2.08491 -5.93892,-4.01477c-0.91569,-0.57313 -5.16113,-4.87866 -8.58828,-9.62844c-0.91935,-1.27414 -5.78318,-9.17614 -6.1995,-9.12402c-0.91343,0.1144 3.74661,9.37018 3.74661,9.37018c0,0 4.05038,12.87607 7.68025,20.16133c1.17207,2.35239 4.41299,7.68402 8.21015,9.78502c2.87636,1.59152 6.07189,-0.54921 8.92908,3.5255c0.67204,0.95841 -12.72069,0.67779 -12.72069,0.67779c0,0 -5.23495,-4.75034 -6.73039,-7.64149z" fill="#5f7f7c" stroke="none" stroke-width="0"/><path d="M212.64173,218.8892l-5.14481,-30.3485c0,0 5.63272,-1.48336 9.65612,1.04388c7.32516,4.60119 15.82323,15.61805 23.15059,15.61805c3.79219,0 10.42946,-1.99725 15.17877,-5.08056c4.48739,-2.91325 7.29714,-7.94099 11.41216,-10.13805c5.40254,-2.88447 11.03201,-1.44331 11.03201,-1.44331l-8.72383,30.7107c0,0 -18.99423,4.58716 -28.44897,4.52661c-9.39858,-0.06019 -28.11202,-4.88883 -28.11202,-4.88883z" fill="#000000" stroke="none" stroke-width="0"/><path d="M228.12763,214.62649c5.27193,4.67391 12.63015,7.06452 13.10725,10.70449c0.26502,2.02195 -20.2425,12.77744 -20.78778,12.85914c-1.16891,0.17513 -14.49152,-24.31254 -20.18417,-37.86997c-1.11128,-2.64659 -2.42575,-7.83323 -0.47505,-11.36761c1.58853,-2.87816 12.09985,-5.91456 12.09985,-5.91456l3.23814,6.71823c0,0 -6.73852,-0.36645 -4.69934,4.71451c2.11598,5.27228 13.09309,16.07048 17.70109,20.15576z" fill="#142d2b" stroke="none" stroke-width="0"/><path d="M272.09941,194.63463c2.0392,-5.08096 -4.69934,-4.71451 -4.69934,-4.71451l3.23815,-6.71823c0,0 10.51132,3.0364 12.09984,5.91455c1.95069,3.53436 0.63623,8.72102 -0.47505,11.3676c-1.21965,2.90471 -5.17385,12.95397 -10.50499,22.5863c-5.09674,9.20881 -11.55437,18.01288 -13.7269,20.83651c-2.0595,2.67675 -16.4776,17.32792 -16.6926,17.29573c-0.10849,-0.01626 -0.55783,-1.23855 -2.02308,-2.54069c-2.08274,-1.85091 -5.42119,-4.50836 -8.63969,-7.42143c-5.89715,-5.33754 -11.79235,-11.20887 -11.65501,-12.25666c0.4771,-3.63997 30.10564,-19.51949 35.37758,-24.1934c4.60799,-4.08527 15.58512,-14.88347 17.7011,-20.15576z" data-paper-data="{&quot;index&quot;:null}" fill="#2c4c45" stroke="none" stroke-width="0"/><g stroke="none" stroke-width="0"><path d="M233.0312,239.63284l0.16667,-2.42897l16.50024,14.57384v2.29404z" fill="#bed3e5"/><path d="M249.69813,254.1392v-2.29404l4.9584,-5.22904l0.16667,2.49644z" data-paper-data="{&quot;index&quot;:null}" fill="#d4ecfe"/><path d="M233.17956,237.20716l5.6668,-4.15046l16.03682,13.30106l-5.28342,5.5215z" fill="#8fa7b3"/></g><path d="M219.08353,204.1127l3.12142,-26.32765l35.83075,-0.14203l2.76735,26.1059c0,0 -7.51543,4.19603 -21.55904,4.50964c-12.48458,0.27879 -20.16049,-4.14586 -20.16049,-4.14586z" fill="#bed3e5" stroke="#000000" stroke-width="0"/></g><path d="M175.22321,144.35376c0,-33.30185 28.7599,-60.29833 64.23702,-60.29833c35.47712,0 64.23702,26.99649 64.23702,60.29833c0,33.30185 -28.7599,60.29833 -64.23702,60.29833c-35.47712,0 -64.23702,-26.99649 -64.23702,-60.29833z" fill="#ffffff" stroke="#000000" stroke-width="2" stroke-linecap="butt"/><path d="M175.94627,144.40756c0,-0.72799 5.20666,55.91939 63.36046,56.93429c55.56352,0.9697 63.51358,-57.95314 63.51358,-56.93429c0,32.80479 -28.40173,59.39833 -63.43702,59.39833c-35.03529,0 -63.43702,-26.59354 -63.43702,-59.39833z" fill="#e6e6e6" stroke="#000000" stroke-width="0" stroke-linecap="butt"/><path d="M188.77344,144.78321c0,-12.968 10.51265,-23.48065 23.48065,-23.48065c12.968,0 23.48065,10.51265 23.48065,23.48065c0,12.968 -10.51265,23.48065 -23.48065,23.48065c-12.968,0 -23.48065,-10.51265 -23.48065,-23.48065z" fill="#ffffff" stroke="#000000" stroke-width="2" stroke-linecap="butt"/><path d="M195.83881,144.50753c0,-9.12808 7.39976,-16.52784 16.52783,-16.52784c9.12808,0 16.52784,7.39977 16.52784,16.52784c0,9.12808 -7.39977,16.52784 -16.52784,16.52784c-9.12808,0 -16.52783,-7.39977 -16.52783,-16.52784z" fill="#000000" stroke="none" stroke-width="0" stroke-linecap="butt"/><path d="M266.5125,168.26386c-12.968,0 -23.48065,-10.51265 -23.48065,-23.48065c0,-12.968 10.51265,-23.48065 23.48065,-23.48065c12.968,0 23.48065,10.51265 23.48065,23.48065c0,12.968 -10.51265,23.48065 -23.48065,23.48065z" data-paper-data="{&quot;index&quot;:null}" fill="#ffffff" stroke="#000000" stroke-width="2" stroke-linecap="butt"/><path d="M266.39995,161.03543c-9.12807,0 -16.52783,-7.39977 -16.52783,-16.52784c0,-9.12808 7.39977,-16.52784 16.52783,-16.52784c9.12807,0 16.52783,7.39977 16.52783,16.52784c0,9.12808 -7.39977,16.52784 -16.52783,16.52784z" data-paper-data="{&quot;index&quot;:null}" fill="#000000" stroke="none" stroke-width="0" stroke-linecap="butt"/><path d="M188.77344,144.78321c0,-12.968 10.51265,-23.48065 23.48065,-23.48065c12.968,0 23.48065,10.51265 23.48065,23.48065c0,0 -46.96131,1.23155 -46.96131,0z" fill="#ffffff" stroke="#000000" stroke-width="2" stroke-linecap="butt"/><path d="M243.03187,144.78321c0,-12.968 10.51265,-23.48065 23.48065,-23.48065c12.968,0 23.48065,10.51265 23.48065,23.48065c0,1.2138 -46.96131,0 -46.96131,0z" data-paper-data="{&quot;index&quot;:null}" fill="#ffffff" stroke="#000000" stroke-width="2" stroke-linecap="butt"/><path d="M201.41111,115.97475c0,0 6.70895,-5.16922 11.79721,-6.36355c5.08827,-1.19433 12.33413,0.69937 12.33413,0.69937c0,0 -8.03812,-0.06028 -11.96762,0.86207c-4.10648,0.96389 -12.16372,4.80211 -12.16372,4.80211z" fill="#000000" stroke="none" stroke-width="0" stroke-linecap="butt"/><path d="M180.30232,114.64483c11.42496,-22.68233 31.40973,-33.07142 60.56473,-32.85267c24.16321,0.18129 39.14424,9.27509 47.64651,17.23625c0.95139,0.89084 -11.16905,5.58091 -18.25999,7.52146c-15.29703,4.18628 -30.35723,6.25195 -30.35723,6.25195l6.65013,-11.17032c0,0 -23.70536,7.34319 -34.98048,9.59002c-11.17264,2.22641 -31.26367,3.4233 -31.26367,3.4233z" fill="#000000" stroke="none" stroke-width="0" stroke-linecap="butt"/><path d="M283.5534,160.86882l3.89562,-27.76697l21.426,6.27777l-2.50431,18.35035z" fill="#a7bccd" stroke="#000000" stroke-width="0" stroke-linecap="butt"/><path d="M229.86973,174.42414c0,0 6.50473,-19.34428 7.08847,-29.81172c0.64949,-11.64745 -3.36773,-36.91183 -3.36773,-36.91183l56.43099,18.76598l-6.12369,40.76058z" fill="#2c4c45" stroke="none" stroke-width="0" stroke-linecap="butt"/><path d="M195.98565,147.90123c1.66069,5.50196 3.4052,12.38798 1.27003,13.00128c-2.13518,0.6133 -5.82066,-7.35542 -7.48135,-12.85735c-1.66069,-5.50196 -0.66771,-10.45934 1.46745,-11.07264c2.13518,-0.6133 3.08316,5.42675 4.74386,10.92871z" fill="#ffffff" stroke="#000000" stroke-width="2.5" stroke-linecap="butt"/><path d="M206.96753,138.6883c0,0 0.79794,-0.95005 -0.37188,-0.95201c-1.35813,-0.00225 -6.54514,0.91123 -8.90036,0.72483c-1.03555,-0.08195 -0.62427,-1.25394 -0.61943,-1.32707c0.03768,-0.56982 10.13945,-2.19205 10.13945,-2.19205c0,0 5.72962,-3.09656 8.31496,-3.37139c3.54719,-0.37709 13.85989,-0.49576 13.85989,-0.49576l0.1239,5.07563c0,0 -6.38645,-0.3307 -8.77081,-0.04482c-4.06626,0.48752 -13.77569,2.58263 -13.77569,2.58263z" fill="#000000" stroke="#000000" stroke-width="1.5" stroke-linecap="butt"/><path d="M231.74602,151.06224l-1.09441,-4.76722l7.48392,0.18103l-0.48778,4.6597z" fill="#ffffff" stroke="none" stroke-width="0" stroke-linecap="butt"/><path d="M229.99087,147.89076c0,6.36318 -6.94267,12.18389 -13.65413,12.18389c-6.71146,0 -13.37728,-5.25372 -13.37728,-11.61688c0,-6.36318 7.00906,-12.42339 13.7205,-12.42339c6.71146,0 13.31088,5.49321 13.31088,11.8564z" fill="#ffffff" stroke="#000000" stroke-width="3" stroke-linecap="butt"/><path d="M210.60508,149.42379c0,-2.95535 2.58198,-5.35115 5.76699,-5.35115c3.185,0 5.76701,2.39578 5.76701,5.35115c0,2.95535 -2.58197,5.35115 -5.76701,5.35115c-3.185,0 -5.76699,-2.39578 -5.76699,-5.35115z" fill="#000000" stroke="#000000" stroke-width="2" stroke-linecap="butt"/><path d="M206.22138,139.50492c2.28126,-1.98763 7.69456,-3.18544 10.48073,-3.18544c3.04581,0 7.78459,1.40813 10.08901,3.62618c2.77004,2.6662 4.66606,9.22153 4.66606,9.22153l-28.58576,-0.29213c0,0 0.13966,-6.57307 3.34998,-9.37017z" data-paper-data="{&quot;index&quot;:null}" fill="#ffffff" stroke="#000000" stroke-width="2.5" stroke-linecap="butt"/><path d="M170.3827,139.29808c0,-23.45832 19.01673,-42.47507 42.47508,-42.47507c23.45834,0 42.47507,19.01673 42.47507,42.47507c0,23.45833 -19.01673,42.47508 -42.47506,42.47508c-23.45834,0 -42.47508,-19.01672 -42.47508,-42.47506z" fill="#2c4c45" stroke="none" stroke-width="NaN" stroke-linecap="butt"/><g stroke-linecap="butt"><g fill="#000000" stroke="#000000" stroke-width="1"><path d="M176.40742,138.98314c0,-19.98385 16.20012,-36.18394 36.18394,-36.18394c19.98385,0 36.18394,16.20011 36.18394,36.18394c0,19.98385 -16.20012,36.18394 -36.18394,36.18394c-19.98385,0 -36.18394,-16.20012 -36.18394,-36.18394z"/><path d="M201.62159,139.14685c0,-5.96801 4.83803,-10.80606 10.80608,-10.80606c5.96802,0 10.80606,4.83803 10.80606,10.80606c0,5.96801 -4.83803,10.80607 -10.80606,10.80607c-5.96802,0 -10.80608,-4.83803 -10.80608,-10.80607z"/></g><g><path d="M184.26133,138.98314c0,-15.80117 12.80938,-28.61056 28.61056,-28.61056c15.80118,0 28.61056,12.80938 28.61056,28.61056c0,15.80118 -12.80938,28.61056 -28.61056,28.61056c-15.80117,0 -28.61056,-12.80938 -28.61056,-28.61056z" fill="#944009" stroke="#de6000" stroke-width="2.5"/><path d="M204.1981,139.11256c0,-4.71891 3.82544,-8.54433 8.54434,-8.54433c4.71892,0 8.54433,3.82541 8.54433,8.54433c0,4.71892 -3.8254,8.54434 -8.54433,8.54434c-4.71892,0 -8.54434,-3.82544 -8.54434,-8.54434z" fill="#ffffff" stroke="#ffa300" stroke-width="4.5"/></g></g><path d="M212.64635,112.33003l-0.06801,19.38701" fill="none" stroke="#fea200" stroke-width="2" stroke-linecap="round"/><path d="M200.09854,139.19967c0,-6.99237 5.66843,-12.6608 12.66082,-12.6608c6.99237,0 12.6608,5.66843 12.6608,12.6608c0,6.99237 -5.66843,12.66082 -12.6608,12.66082c-6.99237,0 -12.66082,-5.66843 -12.66082,-12.6608z" fill="none" stroke="#ffa300" stroke-width="2" stroke-linecap="butt"/><path d="M246.68067,189.43207c0,5.35357 -3.04502,9.69351 -6.80123,9.69351c-3.75621,0 -6.80124,-4.33994 -6.80124,-9.69351c0,-5.35357 3.04502,-9.6935 6.80124,-9.6935c3.75621,0 6.80123,4.33994 6.80123,9.6935z" fill="#000000" stroke="none" stroke-width="NaN" stroke-linecap="butt"/></g></g></svg>