<svg version="1.1" xmlns="http://www.w3.org/2000/svg" xmlns:xlink="http://www.w3.org/1999/xlink" width="150.04303" height="238.04679" viewBox="0,0,150.04303,238.04679"><g transform="translate(-164.97848,-60.9766)"><g data-paper-data="{&quot;isPaintingLayer&quot;:true}" fill-rule="nonzero" stroke-linejoin="miter" stroke-miterlimit="10" stroke-dasharray="" stroke-dashoffset="0" style="mix-blend-mode: normal"><path d="M170.77992,131.36958c0,-1.65654 -5.80143,-1.9233 -5.80143,-1.9233c0,0 6.69584,-8.87746 7.35214,-11.71771c6.65986,-28.82218 23.99043,-56.21969 66.68631,-56.74538c45.68643,-0.56252 68.23702,35.01087 68.23702,70.3864c0,0.66795 3.07779,7.31159 4.43041,10.36634c2.27861,5.14598 3.33715,7.45866 3.33715,7.45866c0,0 -2.64733,-1.66693 -4.82385,-3.56682c-2.14071,-1.86864 -3.80963,-3.97893 -3.99144,-3.01508c-0.43459,2.30399 -0.59561,10.92242 -4.12876,19.9176c-3.49395,8.89536 -10.36285,18.18124 -10.36285,18.18124c0,0 -2.29192,-5.28642 -3.77673,-3.14158c-6.07718,8.77862 -11.2964,15.30957 -11.2964,15.30957c0,0 -2.40974,-4.97718 -4.47106,-3.86765c-9.32569,5.01966 -20.06286,7.91078 -31.65348,7.91078c-12.60656,0 -24.772,-3.56633 -35.27102,-9.52744c-2.72845,-1.54916 -0.82623,4.38789 -0.82623,4.38789c0,0 -7.93843,-5.19677 -13.15685,-11.00681c-6.08759,-6.77777 -9.73663,-14.57056 -12.13914,-18.68944c-0.34082,-0.58431 -4.01999,1.58785 -5.934,2.01254c-2.96082,0.65696 -4.48364,-0.08182 -4.48364,-0.08182c0,0 2.67098,-3.37669 3.55098,-5.15497c0.94364,-1.90688 1.93325,-5.92746 1.93325,-5.92746c0,0 -2.66402,1.90888 -4.05965,2.38502c-1.48595,0.50696 -4.60208,0.57008 -4.60208,0.57008c0,0 4.39229,-5.64339 5.74307,-11.5602c1.27257,-5.57422 -0.4917,-11.39111 -0.4917,-12.96047z" fill="#000000" stroke="#000000" stroke-width="0" stroke-linecap="butt"/><g><path d="M206.1333,299.02339l15.14285,-131.8421l37.78325,-0.15789l13.57389,132z" fill="#182e2d" stroke="#000000" stroke-width="0" stroke-linecap="butt"/><path d="M249.69211,225.99834c0,5.41342 -4.36313,9.80188 -9.74533,9.80188c-5.38219,0 -9.74532,-4.38845 -9.74532,-9.80188c0,-5.41342 4.36313,-9.80188 9.74532,-9.80188c5.38219,0 9.74533,4.38845 9.74533,9.80188z" fill="#e18300" stroke="#000000" stroke-width="0" stroke-linecap="butt"/><path d="M230.96208,221.54293c0,0 -4.87061,-4.54148 -9.17961,-10.46838c-4.82246,-6.63313 -9.03753,-14.8594 -6.85734,-17.55134c1.40723,-1.73755 4.53271,0.25553 4.53271,0.25553c0,0 -1.71969,1.55719 -0.83611,4.30859c0.76852,2.39311 4.06205,5.87235 5.15854,7.71061c2.485,4.1661 10.22424,12.36826 10.22424,12.36826z" fill="#98b3c1" stroke="#000000" stroke-width="0" stroke-linecap="round"/><path d="M217.84155,195.65471l-3.13752,-0.1876" fill="none" stroke="#6d838b" stroke-width="1" stroke-linecap="round"/><path d="M218.31693,198.56245l-2.56706,1.03177" fill="none" stroke="#6d838b" stroke-width="1" stroke-linecap="round"/><path d="M219.36277,201.18879l-1.90153,1.68836" fill="none" stroke="#6d838b" stroke-width="1" stroke-linecap="round"/><path d="M218.88739,205.2221l2.75721,-1.03177" fill="none" stroke="#6d838b" stroke-width="1" stroke-linecap="round"/><path d="M220.50369,208.50503l2.85229,-1.68836" fill="none" stroke="#6d838b" stroke-width="1" stroke-linecap="round"/><path d="M225.06735,208.41122l-2.94736,3.00153" fill="none" stroke="#6d838b" stroke-width="1" stroke-linecap="round"/><path d="M227.44425,211.31896l-3.32766,2.81393" fill="none" stroke="#6d838b" stroke-width="1" stroke-linecap="round"/><path d="M229.06055,213.66391l-2.66214,3.00153" fill="none" stroke="#6d838b" stroke-width="1" stroke-linecap="round"/><path d="M231.81776,216.29025l-3.13752,3.00154" fill="none" stroke="#6d838b" stroke-width="1" stroke-linecap="round"/><path d="M230.867,221.44914c0,0 -4.87061,-4.54148 -9.17961,-10.46837c-4.82246,-6.63313 -9.03753,-14.8594 -6.85734,-17.55134c1.40723,-1.73755 4.53272,0.25554 4.53272,0.25554c0,0 -1.71969,1.5572 -0.83611,4.30859c0.76852,2.3931 4.06205,5.87234 5.15853,7.7106c2.485,4.1661 10.22424,12.36826 10.22424,12.36826z" fill="none" stroke="#000000" stroke-width="0" stroke-linecap="round"/><path d="M245.9955,217.97861c0,0 7.73925,-8.20217 10.22424,-12.36826c1.09648,-1.83826 4.39002,-5.3175 5.15853,-7.71061c0.88358,-2.75139 -1.6918,-4.0272 -1.6918,-4.0272c0,0 3.98116,-2.27447 5.3884,-0.53692c2.1802,2.69195 -2.03487,10.91822 -6.85733,17.55134c-4.309,5.9269 -9.17961,10.46837 -9.17961,10.46837z" data-paper-data="{&quot;index&quot;:null}" fill="#98b3c1" stroke="#000000" stroke-width="0" stroke-linecap="round"/><path d="M265.29598,195.27952l-3.6129,0.2814" data-paper-data="{&quot;index&quot;:null}" fill="none" stroke="#6d838b" stroke-width="1" stroke-linecap="round"/><path d="M264.25014,199.40662l-2.56706,-1.03177" data-paper-data="{&quot;index&quot;:null}" fill="none" stroke="#6d838b" stroke-width="1" stroke-linecap="round"/><path d="M260.63725,201.00119l1.90153,1.68836" data-paper-data="{&quot;index&quot;:null}" fill="none" stroke="#6d838b" stroke-width="1" stroke-linecap="round"/><path d="M258.35542,204.00273l2.75721,1.03177" data-paper-data="{&quot;index&quot;:null}" fill="none" stroke="#6d838b" stroke-width="1" stroke-linecap="round"/><path d="M256.64404,206.62907l2.85229,1.68836" data-paper-data="{&quot;index&quot;:null}" fill="none" stroke="#6d838b" stroke-width="1" stroke-linecap="round"/><path d="M257.88004,211.22517l-2.94737,-3.00153" data-paper-data="{&quot;index&quot;:null}" fill="none" stroke="#6d838b" stroke-width="1" stroke-linecap="round"/><path d="M255.88343,213.9453l-3.32767,-2.81394" data-paper-data="{&quot;index&quot;:null}" fill="none" stroke="#6d838b" stroke-width="1" stroke-linecap="round"/><path d="M253.6016,216.47785l-2.66213,-3.00153" data-paper-data="{&quot;index&quot;:null}" fill="none" stroke="#6d838b" stroke-width="1" stroke-linecap="round"/><path d="M251.31977,219.10419l-3.13753,-3.00153" data-paper-data="{&quot;index&quot;:null}" fill="none" stroke="#6d838b" stroke-width="1" stroke-linecap="round"/><path d="M246.09057,217.88482c0,0 7.73925,-8.20218 10.22424,-12.36827c1.09648,-1.83826 4.39002,-5.3175 5.15853,-7.7106c0.88358,-2.75139 -1.88194,-3.8396 -1.88194,-3.8396c0,0 4.17131,-2.46206 5.57854,-0.72452c2.1802,2.69195 -2.03487,10.91822 -6.85734,17.55134c-4.309,5.9269 -9.17961,10.46837 -9.17961,10.46837z" data-paper-data="{&quot;index&quot;:null}" fill="none" stroke="#000000" stroke-width="0" stroke-linecap="round"/><path d="M237.38518,216.86005c-0.22266,-0.43931 0.22266,-0.65898 0.22266,-0.65898l0.32417,-0.14055c4.0842,-0.78763 7.68592,1.39511 10.03273,4.48211c2.08163,2.11277 2.74153,7.0332 0.95828,9.50146c-0.04635,0.09407 -0.12871,0.18917 -0.27509,0.23004c-0.08889,0.03554 -0.19881,0.04918 -0.32244,0.00106c-0.12816,-0.03468 -0.20781,-0.11067 -0.25731,-0.19171c-0.09859,-0.12754 -0.10102,-0.26136 -0.07564,-0.36772c-0.77826,-1.89933 -2.10028,-3.70395 -2.66731,-5.64718c-1.22173,-3.08632 -4.43299,-5.37077 -7.31909,-6.79241c0,0 -0.0961,-0.04741 -0.17669,-0.14222c-0.14398,0.00711 -0.32568,-0.03996 -0.44424,-0.2739z" fill="#d65605" stroke="none" stroke-width="0" stroke-linecap="butt"/><path d="M249.69211,225.99834c0,5.41342 -4.36313,9.80188 -9.74533,9.80188c-5.38219,0 -9.74532,-4.38845 -9.74532,-9.80188c0,-5.41342 4.36313,-9.80188 9.74532,-9.80188c5.38219,0 9.74533,4.38845 9.74533,9.80188z" fill="none" stroke="#000000" stroke-width="0" stroke-linecap="butt"/></g><path d="M175.2232,128.36954c0,-33.30185 28.7599,-60.29833 64.23702,-60.29833c35.47712,0 64.23702,26.99649 64.23702,60.29833c0,33.30185 -28.7599,60.29833 -64.23702,60.29833c-35.47712,0 -64.23702,-26.99649 -64.23702,-60.29833z" fill="#ffffff" stroke="#000000" stroke-width="2" stroke-linecap="butt"/><path d="M175.94626,128.42339c0,-0.72799 5.20666,55.91939 63.36046,56.93429c55.56352,0.9697 63.51358,-57.95314 63.51358,-56.93429c0,32.80479 -28.40173,59.39833 -63.43702,59.39833c-35.03529,0 -63.43702,-26.59354 -63.43702,-59.39833z" fill="#e6e6e6" stroke="#000000" stroke-width="0" stroke-linecap="butt"/><path d="M188.77343,128.79902c0,-12.968 10.51265,-23.48065 23.48065,-23.48065c12.968,0 23.48065,10.51265 23.48065,23.48065c0,12.968 -10.51265,23.48065 -23.48065,23.48065c-12.968,0 -23.48065,-10.51265 -23.48065,-23.48065z" fill="#000000" stroke="#000000" stroke-width="2" stroke-linecap="butt"/><path d="M195.8388,128.52338c0,-9.12808 7.39976,-16.52784 16.52783,-16.52784c9.12808,0 16.52784,7.39977 16.52784,16.52784c0,9.12808 -7.39977,16.52784 -16.52784,16.52784c-9.12808,0 -16.52783,-7.39977 -16.52783,-16.52784z" fill="#e75d06" stroke="none" stroke-width="0" stroke-linecap="butt"/><path d="M251.99988,168.17982h-25.10959" fill="none" stroke="#000000" stroke-width="2" stroke-linecap="round"/><path d="M266.5125,152.27966c-12.968,0 -23.48065,-10.51265 -23.48065,-23.48065c0,-12.968 10.51265,-23.48065 23.48065,-23.48065c12.968,0 23.48065,10.51265 23.48065,23.48065c0,12.968 -10.51265,23.48065 -23.48065,23.48065z" data-paper-data="{&quot;index&quot;:null}" fill="#000000" stroke="#000000" stroke-width="2" stroke-linecap="butt"/><path d="M266.39994,145.05122c-9.12807,0 -16.52783,-7.39977 -16.52783,-16.52784c0,-9.12808 7.39977,-16.52784 16.52783,-16.52784c9.12807,0 16.52783,7.39977 16.52783,16.52784c0,9.12808 -7.39977,16.52784 -16.52783,16.52784z" data-paper-data="{&quot;index&quot;:null}" fill="#e75d06" stroke="none" stroke-width="0" stroke-linecap="butt"/><path d="M188.77343,128.79902c0,-12.968 10.51265,-23.48065 23.48065,-23.48065c12.968,0 23.48065,10.51265 23.48065,23.48065c0,0 -46.96131,1.23155 -46.96131,0z" fill="#7f9ba7" stroke="#000000" stroke-width="2" stroke-linecap="butt"/><path d="M243.03186,128.79902c0,-12.968 10.51265,-23.48065 23.48065,-23.48065c12.968,0 23.48065,10.51265 23.48065,23.48065c0,1.2138 -46.96131,0 -46.96131,0z" data-paper-data="{&quot;index&quot;:null}" fill="#7f9ba7" stroke="#000000" stroke-width="2" stroke-linecap="butt"/><path d="M201.4111,99.99055c0,0 6.70895,-5.16922 11.79721,-6.36355c5.08827,-1.19433 12.33413,0.69937 12.33413,0.69937c0,0 -8.03812,-0.06028 -11.96762,0.86207c-4.10648,0.96389 -12.16372,4.80211 -12.16372,4.80211z" fill="#000000" stroke="none" stroke-width="0" stroke-linecap="butt"/><path d="M265.3456,95.18845c-3.9295,-0.92235 -11.96762,-0.86207 -11.96762,-0.86207c0,0 7.24586,-1.8937 12.33413,-0.69937c5.08826,1.19433 11.79721,6.36355 11.79721,6.36355c0,0 -8.05724,-3.83822 -12.16372,-4.80211z" data-paper-data="{&quot;index&quot;:null}" fill="#000000" stroke="none" stroke-width="0" stroke-linecap="butt"/><path d="M180.30231,98.66062c11.42496,-22.68233 31.40973,-33.07142 60.56473,-32.85267c24.16321,0.18129 39.14424,9.27509 47.64651,17.23625c0.95139,0.89084 -11.16905,5.58091 -18.25999,7.52146c-15.29703,4.18628 -30.35723,6.25195 -30.35723,6.25195l6.65013,-11.17032c0,0 -23.70536,7.34319 -34.98048,9.59002c-11.17264,2.22641 -31.26367,3.4233 -31.26367,3.4233z" fill="#000000" stroke="none" stroke-width="0" stroke-linecap="butt"/></g></g></svg>