<svg version="1.1" xmlns="http://www.w3.org/2000/svg" xmlns:xlink="http://www.w3.org/1999/xlink" width="139.28481" height="229.66569" viewBox="0,0,139.28481,229.66569"><g transform="translate(-192.91395,-78.17959)"><g data-paper-data="{&quot;isPaintingLayer&quot;:true}" fill-rule="nonzero" stroke-linejoin="miter" stroke-miterlimit="10" stroke-dasharray="" stroke-dashoffset="0" style="mix-blend-mode: normal"><path d="M326.07694,152.93212c-0.06048,0.6652 2.40318,7.56022 3.47367,10.72488c1.80334,5.33114 2.64815,7.73016 2.64815,7.73016c0,0 -2.48553,-1.89977 -4.48111,-3.98891c-1.96274,-2.05478 -3.43374,-4.30751 -3.70207,-3.36408c-0.64141,2.25518 -1.58206,10.82363 -5.9151,19.46199c-4.28496,8.54249 -11.96638,17.16834 -11.96638,17.16834c0,0 -1.80388,-5.47221 -3.47678,-3.47062c-6.84702,8.19235 -12.6361,14.22394 -12.6361,14.22394c0,0 -1.94922,-5.17491 -4.10253,-4.25657c-9.74186,4.15472 -20.69669,6.06184 -32.23971,5.01245c-12.55479,-1.14137 -24.34737,-5.79449 -34.26356,-12.68168c-2.57699,-1.78983 -1.22011,4.29506 -1.22011,4.29506c0,0 -4.90911,-3.89156 -9.25538,-8.70814c0.89624,-0.43041 1.75511,-0.92552 2.56772,-1.48787c4.9716,-3.44056 8.50186,-8.15008 11.1228,-13.51309c1.27418,-2.60724 1.20496,-6.11239 2.41655,-8.70182c0.80931,-1.72965 2.91031,-3.72025 3.95533,-5.40836c1.471,-2.37622 1.96137,-5.24308 3.22707,-7.66015c1.95078,-3.72538 6.35674,-7.03874 8.96471,-10.63081c1.5267,-2.10277 1.93065,-4.78915 3.29714,-6.89551c2.95195,-4.55027 6.22578,-9.53598 9.58647,-13.80713c4.57323,-5.81217 10.57153,-7.18828 17.11438,-9.51081c5.44657,-1.9334 12.11942,-6.97486 16.21966,-10.77308c2.2533,-2.08734 3.86777,-4.97822 6.1657,-6.95896c1.33681,-1.15227 2.71746,-2.22045 4.09308,-3.26645c1.16983,-0.60775 -3.28022,-6.33066 -2.22432,-7.11084c0.73544,-0.54341 2.19299,-0.77107 4.37648,-0.0271c0.64274,0.21899 3.6968,2.93677 3.88868,2.74788c17.29421,14.91275 24.41247,38.34218 22.3656,60.85725z" fill="#000000" stroke="#000000" stroke-width="0" stroke-linecap="butt"/><g stroke-width="0" stroke-linecap="butt"><path d="M206.05944,307.74998l15.14285,-131.8421l37.78325,-0.15789l13.57389,132z" fill="#000000" stroke="#000000"/><path d="M237.86052,307.84528v-137.69052h2.89786v137.69052z" fill="#d4ecfe" stroke="none"/><g data-paper-data="{&quot;index&quot;:null}" stroke="none"><path d="M260.79949,267.87462c-2.82971,2.26974 -5.76,4.02615 -7.07092,4.26265c-3.41372,0.61588 -6.73254,-0.90333 -7.40741,-1.85325c-1.02654,-1.44494 -3.78651,-3.4163 -4.9271,-5.49736c-1.61951,-2.95484 -1.51265,-6.01085 -1.7779,-7.06306c-1.33569,-5.29849 2.84048,-13.39498 1.79618,-15.19346c-0.18906,-0.32559 5.8989,-4.25338 6.82929,-7.43072c2.94376,-10.05294 10.38032,-19.81725 10.38032,-19.81725l8.58874,-2.83019c0,0 3.38234,-1.23873 5.15595,-1.59188c1.99144,-0.39653 6.21506,-0.67228 6.21506,-0.67228c0,0 0.10813,5.79893 -0.67463,13.44219c-0.40573,3.96176 -1.4199,8.41904 -2.03172,12.8211c-0.59626,4.29009 -1.65683,8.78347 -3.28624,13.06181c-1.47415,3.87067 -3.52839,7.65102 -4.04417,9.38718c-0.73548,2.47576 -4.19751,6.12863 -7.74548,8.9745z" fill="#031718"/><path d="M247.52039,262.28198c-3.30193,-2.31725 -6.18033,-6.84652 -6.86149,-9.5486c-1.33569,-5.29849 -1.44923,-14.10344 -2.49353,-15.9019c-0.18906,-0.32559 5.8989,-4.25338 6.82929,-7.43072c2.94376,-10.05294 10.38032,-19.81725 10.38032,-19.81725l8.58874,-2.83019c0,0 3.38237,-1.23873 5.15596,-1.59188c1.99144,-0.39653 6.21506,-0.67228 6.21506,-0.67228c0,0 -0.91416,13.36848 -2.70635,26.26329c-1.13571,8.17141 -6.24454,18.79382 -7.3304,22.449c-1.32208,4.45031 -4.55173,8.04242 -7.71301,9.59223c-2.35259,1.15336 -5.00509,0.80687 -5.00509,0.80687c0,0 -3.31697,-0.09569 -5.05949,-1.31856z" fill="#2c4c45"/><path d="M247.68595,250.4716c-2.80465,-2.75464 -5.2322,-8.46436 -7.09012,-11.66401c-0.18906,-0.32559 0.49308,18.41702 0.06583,24.12662c-0.06779,0.90588 -2.31276,0.1266 -2.34043,0.12411c-0.45049,-0.04054 0.03042,-25.11239 -0.03211,-25.79354c-0.18483,-2.01308 -0.24764,-8.37813 0.68276,-11.55548c2.94376,-10.05294 10.38032,-19.81725 10.38032,-19.81725l8.58874,-2.83019l11.371,-2.26416c0,0 -0.03098,13.72271 -1.82317,26.61751c-1.13571,8.17141 -3.84736,16.07811 -4.93322,19.73329c-2.30595,7.76219 -9.81625,6.85688 -9.81625,6.85688c0,0 -2.75288,-1.27431 -5.05336,-3.53379z" fill="#789396"/><path d="M254.43287,246.87331c-8.90435,0.70447 -9.55647,-20.71703 -9.55647,-20.71703l0.3629,-19.69816l16.93554,-1.3585l-0.72582,21.28307c0,0 -0.02502,19.93751 -7.01614,20.49062z" fill="#a7bccd"/></g><g stroke="none"><path d="M210.22172,258.85559c-0.51577,-1.73615 -2.57002,-5.51651 -4.04417,-9.38718c-1.62941,-4.27833 -2.68998,-8.7717 -3.28624,-13.06181c-0.61182,-4.40208 -1.62599,-8.85934 -2.03172,-12.8211c-0.78276,-7.64325 -0.67463,-13.44219 -0.67463,-13.44219c0,0 4.22361,0.27575 6.21506,0.67228c1.77359,0.35315 5.15595,1.59188 5.15595,1.59188l8.58874,2.83019c0,0 7.43658,9.7643 10.38032,19.81725c0.93041,3.17734 7.01835,7.10513 6.82929,7.43072c-1.04431,1.79847 3.13187,9.89496 1.79618,15.19346c-0.26525,1.05219 -0.15839,4.10822 -1.7779,7.06306c-1.14061,2.08106 -3.90056,4.05242 -4.9271,5.49736c-0.67487,0.94992 -3.99369,2.46912 -7.40739,1.85325c-1.31092,-0.2365 -4.24119,-1.99291 -7.07092,-4.26265c-3.54798,-2.84588 -7.01001,-6.49874 -7.74548,-8.9745z" fill="#031718"/><path d="M226.18693,263.55601c0,0 -2.6525,0.34648 -5.00509,-0.80687c-3.16128,-1.54982 -6.39095,-5.14191 -7.71301,-9.59223c-1.08586,-3.65517 -6.1947,-14.27758 -7.33041,-22.449c-1.79219,-12.8948 -2.70634,-26.26329 -2.70634,-26.26329c0,0 4.22361,0.27575 6.21506,0.67228c1.77359,0.35315 5.15595,1.59188 5.15595,1.59188l8.58874,2.83019c0,0 7.43657,9.7643 10.38032,19.81725c0.93041,3.17734 7.01836,7.10513 6.82931,7.43072c-1.04431,1.79847 -1.15784,10.60341 -2.49353,15.9019c-0.68117,2.70207 -3.55955,7.23134 -6.86149,9.5486c-1.74251,1.22287 -5.05949,1.31856 -5.05949,1.31856z" fill="#2c4c45"/><path d="M226.0275,253.96086c0,0 -7.5103,0.90531 -9.81625,-6.85688c-1.08586,-3.65517 -3.7975,-11.56188 -4.93322,-19.73329c-1.79219,-12.8948 -1.82317,-26.61751 -1.82317,-26.61751l11.371,2.26416l8.58874,2.83019c0,0 7.43657,9.7643 10.38032,19.81725c0.93041,3.17734 0.86759,9.54238 0.68276,11.55548c-0.06255,0.68115 0.41837,25.75299 -0.03211,25.79354c-0.02769,0.00249 -2.27265,0.78176 -2.34043,-0.12411c-0.42725,-5.70959 0.25488,-24.45221 0.06583,-24.12662c-1.85792,3.19964 -4.28548,8.90937 -7.09012,11.66401c-2.30049,2.25948 -5.05336,3.53379 -5.05336,3.53379z" fill="#789396"/><path d="M217.31779,226.33816l-0.7258,-21.28307l16.93553,1.3585l0.36291,19.69816c0,0 -0.65213,21.42151 -9.55647,20.71704c-6.99114,-0.5531 -7.01614,-20.49062 -7.01614,-20.49062z" fill="#a7bccd"/></g><g stroke="none"><path d="M218.03627,200.45174c0,-0.79453 -1.95838,-2.95796 -1.83482,-3.71757c1.11538,-6.85671 9.08741,-10.70693 16.25932,-10.70693c7.96643,0 14.42449,4.00963 14.42449,11.97605c0,0.71595 -0.49274,13.58949 -0.58169,13.8089c-1.93988,4.78556 2.67859,13.62621 -1.02453,16.88156c-0.99383,0.87367 -5.25422,1.98404 -8.0291,1.54355c-0.8339,-0.13239 -4.91604,-0.38615 -7.49161,-2.22335c-4.87431,-3.47692 -9.29947,-10.15159 -10.85504,-15.02945c-1.57411,-4.93598 -0.86702,-9.35939 -0.86702,-12.53276z" fill="#031718"/><path d="M230.6762,201.59464c0,-7.96643 6.45807,-14.42449 14.42449,-14.42449c7.96643,0 14.42449,4.00963 14.42449,11.97605c0,0.71595 -0.49274,13.58949 -0.58169,13.8089c-2.91308,7.18633 -10.4814,16.31531 -14.69444,16.37077c-4.79265,0.06309 -10.3283,-7.74316 -12.70584,-15.19846c-1.57411,-4.93598 -0.86702,-9.35939 -0.86702,-12.53276z" fill="#142d2b"/></g></g><path d="M194.86006,137.99062c3.01509,-33.16508 34.10107,-57.44683 69.43249,-54.23479c35.33142,3.21203 61.52899,32.70151 58.51391,65.86657c-3.01509,33.16508 -34.10107,57.44683 -69.43249,54.23479c-35.33142,-3.21203 -61.52899,-32.70151 -58.51391,-65.86657z" fill="#ffffff" stroke="#000000" stroke-width="2" stroke-linecap="butt"/><path d="M195.57527,138.1097c0.06591,-0.725 0.12244,56.16113 57.94552,62.43699c55.24753,5.99633 68.49969,-51.96474 68.40745,-50.95007c-2.97008,32.67006 -33.66289,56.58295 -68.55429,53.41092c-34.8914,-3.17202 -60.76876,-32.22778 -57.79867,-64.89784z" fill="#e6e6e6" stroke="#000000" stroke-width="0" stroke-linecap="butt"/><path d="M208.31576,139.64513c1.1741,-12.91474 12.59537,-22.43243 25.51011,-21.25833c12.91474,1.1741 22.43243,12.59537 21.25833,25.51011c-1.1741,12.91474 -12.59537,22.43243 -25.51011,21.25833c-12.91474,-1.1741 -22.43243,-12.59537 -21.25833,-25.51011z" fill="#ffffff" stroke="#000000" stroke-width="2" stroke-linecap="butt"/><path d="M215.37706,140.01033c0.82643,-9.09059 8.86577,-15.79 17.95635,-14.96356c9.09059,0.82643 15.79,8.86578 14.96356,17.95636c-0.82643,9.09059 -8.86578,15.79 -17.95636,14.96356c-9.09059,-0.82643 -15.78999,-8.86578 -14.96355,-17.95636z" fill="#000000" stroke="none" stroke-width="0" stroke-linecap="butt"/><path d="M283.60961,170.06767c-12.91474,-1.1741 -22.43243,-12.59537 -21.25833,-25.51011c1.1741,-12.91474 12.59537,-22.43243 25.51011,-21.25833c12.91474,1.1741 22.43243,12.59537 21.25833,25.51011c-1.1741,12.91474 -12.59537,22.43243 -25.51011,21.25833z" data-paper-data="{&quot;index&quot;:null}" fill="#ffffff" stroke="#000000" stroke-width="2" stroke-linecap="butt"/><path d="M276.78572,162.14341c-9.09058,-0.82644 -15.78999,-8.86578 -14.96355,-17.95636c0.82643,-9.09059 8.86578,-15.79 17.95635,-14.96356c9.09058,0.82644 15.78999,8.86578 14.96355,17.95636c-0.82643,9.09059 -8.86578,15.79 -17.95635,14.96356z" data-paper-data="{&quot;index&quot;:null}" fill="#000000" stroke="none" stroke-width="0" stroke-linecap="butt"/><path d="M208.31576,139.64513c1.1741,-12.91474 12.59537,-22.43243 25.51011,-21.25833c12.91474,1.1741 22.43243,12.59537 21.25833,25.51011c0,0 -46.87994,-3.02529 -46.76844,-4.25178z" fill="#ffffff" stroke="#000000" stroke-width="2" stroke-linecap="butt"/><path d="M223.50978,112.09919c0,0 7.14941,-4.54058 12.3249,-5.26932c5.1755,-0.72874 12.22015,1.8132 12.22015,1.8132c0,0 -7.99965,-0.78778 -11.99652,-0.225c-4.17688,0.58814 -12.54853,3.68111 -12.54853,3.68111z" fill="#000000" stroke="none" stroke-width="0" stroke-linecap="butt"/><path d="M288.22928,116.92648c-3.82985,-1.27433 -11.84042,-1.94205 -11.84042,-1.94205c0,0 7.38756,-1.22989 12.3468,0.42021c4.95923,1.65011 11.17261,7.40551 11.17261,7.40551c0,0 -7.67664,-4.55194 -11.67899,-5.88367z" data-paper-data="{&quot;index&quot;:null}" fill="#000000" stroke="none" stroke-width="0" stroke-linecap="butt"/><path d="M311.78875,103.10852c0.86683,0.97332 -11.62847,4.54677 -18.86597,5.83735c-10.46523,1.86615 -5.99844,-12.57968 3.09434,-14.91383c4.47287,-1.14821 14.73181,7.90893 15.77164,9.07649z" fill="#000000" stroke="none" stroke-width="0" stroke-linecap="butt"/><path d="M301.40262,87.97291c-0.01466,0.16131 3.91931,3.94521 -1.98671,7.84425c-2.29754,1.51677 -8.62562,16.67649 -11.63963,18.53915c-2.05372,1.26918 -17.11151,12.18487 -19.38453,13.43974c-1.82716,1.00874 -1.6218,8.84728 -3.46028,9.76668c-2.00112,1.00076 -4.47481,4.03465 -6.48945,4.86437c-1.5761,0.64912 -3.51657,25.80098 -5.08422,26.33836c-3.31174,1.13523 -9.76408,10.11259 -12.94738,9.98257c-1.21281,-0.04954 -2.11882,2.49081 -5.42738,3.89477c-5.42759,2.30317 -12.29893,3.60767 -14.05407,2.71824c-0.54701,-0.2772 -0.75815,1.83563 -1.52516,4.40328c-0.35556,1.19029 -0.15151,2.89271 -6.91032,2.78127c-3.72936,-0.06149 -4.40161,-1.5702 -7.4927,-2.32963c-3.53404,-0.86828 -3.12176,-2.15816 -3.25079,-2.97407c-0.26585,-1.68124 -2.64505,-3.37981 -0.77026,-5.20729c0.51033,-0.49745 2.55159,-6.6911 6.40409,-14.49908c5.59539,-11.34036 -0.13923,-19.35717 -0.40705,-19.38151c-2.1185,-0.1926 73.32757,-56.95558 73.40105,-57.76387c0.03413,-0.37536 3.81396,-2.32139 7.4675,-3.198c1.90227,-0.4564 5.74009,-1.33343 8.40671,-1.12713c3.24058,0.25069 5.17215,1.67043 5.15056,1.90792z" fill="#2c4c45" stroke="none" stroke-width="0" stroke-linecap="butt"/><path d="M193.22832,133.73847c3.07716,-33.84795 30.41223,-54.51029 66.47112,-51.23213c19.53057,1.77555 12.73677,4.32429 17.20228,6.32536c3.77907,1.69347 5.68358,7.10145 9.6242,4.71062c1.24607,-0.756 2.29195,-1.25757 3.15738,-1.54335c8.29845,-2.74027 0.00399,14.35913 -7.50432,17.19791c-2.58067,0.97571 -4.14994,4.88355 -9.20707,7.86048c-6.55589,3.85918 -8.85666,14.90585 -15.41433,15.78101c-2.60589,0.34777 -0.57294,3.57429 -1.56964,10.31585c-1.32514,8.96306 -4.6812,20.21854 -6.72759,22.75237c-3.10071,3.83927 -9.26829,12.79452 -16.26851,14.02015c-5.92311,1.03704 -10.28083,0.91216 -13.41706,4.06903c-2.83804,2.85671 -4.11676,3.47829 -6.26121,5.44444c-2.70434,2.47949 -23.16237,-21.85382 -20.08521,-55.70175z" fill="#8fa7b3" stroke="#000000" stroke-width="0" stroke-linecap="butt"/><path d="M264.09041,78.38699c20.48935,1.86272 32.99989,13.569 32.93367,14.0598c-0.50275,3.7267 -5.57838,11.93586 -10.6586,16.63224c-1.94011,1.79352 -2.99881,5.30291 -4.91869,6.35513c-2.11837,1.16103 -5.11786,-0.10833 -7.73269,2.67903c-8.69698,9.27088 -10.11296,17.97401 -20.03495,16.75539c-33.57366,-4.12349 -40.72081,-30.34985 -43.48128,-37.00998c12.39278,-13.00187 35.98069,-21.10001 53.89254,-19.47162z" fill="#bed3e5" stroke="#000000" stroke-width="0" stroke-linecap="butt"/><path d="M208.31576,139.64513c1.1741,-12.91474 12.59537,-22.43243 25.51011,-21.25833c12.91474,1.1741 22.43243,12.59537 21.25833,25.51011c-1.1741,12.91474 -12.59537,22.43243 -25.51011,21.25833c-12.91474,-1.1741 -22.43243,-12.59537 -21.25833,-25.51011z" fill="#000000" stroke="#000000" stroke-width="0" stroke-linecap="butt"/><path d="M215.37706,140.01033c0.82643,-9.09059 8.86577,-15.79 17.95635,-14.96356c9.09059,0.82643 15.79,8.86578 14.96356,17.95636c-0.82643,9.09059 -8.86578,15.79 -17.95636,14.96356c-9.09059,-0.82643 -15.78999,-8.86578 -14.96355,-17.95636z" fill="#de6000" stroke="none" stroke-width="0" stroke-linecap="butt"/><path d="M236.71388,181.76924l35.69994,6.89454" fill="none" stroke="#000000" stroke-width="1" stroke-linecap="round"/></g></g></svg>