<svg version="1.1" xmlns="http://www.w3.org/2000/svg" xmlns:xlink="http://www.w3.org/1999/xlink" width="481.72886" height="204.3545" viewBox="0,0,481.72886,204.3545"><g transform="translate(1.24093,-86.82872)"><g data-paper-data="{&quot;isPaintingLayer&quot;:true}" fill-rule="nonzero" stroke-linejoin="miter" stroke-miterlimit="10" stroke-dasharray="" stroke-dashoffset="0" style="mix-blend-mode: normal"><g stroke="none" stroke-linecap="butt"><path d="M114.61727,254.37211c0,0.89594 -4.86424,18.363 -15.82535,25.52394c-2.50122,1.63406 -6.79699,-0.35555 -10.68898,-0.84976c-3.05185,-0.38753 -5.79125,0.83243 -7.65233,0.83243c-14.63555,0 -18.83334,-24.24591 -18.83334,-25.50661c0,-1.2607 6.03112,-10.22249 20.66666,-10.22249c1.77645,0 4.17211,3.50481 7.00155,3.51856c3.47147,0.01687 7.4275,-3.41598 9.6277,-2.87579c10.78073,2.64686 15.70409,8.65979 15.70409,9.57972z" fill="#000000" stroke-width="NaN"/><path d="M111.78393,259.33535c0,0.97547 -5.72822,12.79113 -14.46541,17.77221c-3.0472,1.73721 -5.90826,0.83984 -9.51202,0.32328c-1.34024,-0.19211 -3.78851,-0.17636 -4.93923,-0.17636c-13.11676,0 -18.08334,-18.63804 -18.08334,-20.08024c0,-0.7543 3.52982,0.39379 8.1378,3.20681c4.20232,2.56538 9.18912,6.78829 15.44554,6.78829c7.58729,0 13.06541,-4.18433 17.31939,-6.52203c3.10021,-1.70368 6.09727,-1.91993 6.09727,-1.31196z" fill="#ffffff" stroke-width="0"/><path d="M109.9506,252.79357c0,1.12207 -8.25278,0.31257 -19.66667,0.31257c-11.41388,0 -23.33333,-0.75334 -23.33333,-1.87541c0,-1.12207 3.25278,-4.37595 14.66667,-4.37595c1.63029,0 4.57849,2.93468 7.00127,2.95016c3.45009,0.02205 6.51994,-2.8235 9.07016,-2.35261c8.19698,1.51353 12.2619,4.60767 12.2619,5.34124z" fill="#ffffff" stroke-width="0"/><path d="M104.4506,255.59309c0,1.1205 -7.3873,2.02885 -16.5,2.02885c-9.1127,0 -14.83333,-2.26091 -14.83333,-3.38142c0,-1.1205 6.22063,0.67628 15.33333,0.67628c9.1127,0 16,-0.44422 16,0.67628z" fill="#ffffff" stroke-width="0"/><path d="M99.8506,261.64932c0,0.10671 -3.83282,3.67125 -10,3.67125c-6.16718,0 -12.33333,-3.56453 -12.33333,-3.67125c0,-0.10671 5.33282,0.96611 11.5,0.96611c6.16718,0 10.83333,-1.07283 10.83333,-0.96611z" fill="#ffffff" stroke-width="0"/><path d="M95.5174,261.07439c0,0 -3.17583,0.66186 -6.6,0.66186c-3.42417,0 -7.2,-1.1031 -7.2,-1.1031c0,0 3.77583,-1.1031 7.2,-1.1031c3.42417,0 6.6,1.54433 6.6,1.54433z" fill="#ffffff" stroke-width="0"/><path d="M88.89699,261.40406l-0.78912,-2.75649h1.38095l-0.39456,2.75649z" fill="#000000" stroke-width="0"/></g><g stroke="none" stroke-linecap="butt"><path d="M475.73924,163.23761c0,0.88719 1.78363,19.73402 -7.95785,27.94737c-4.08623,3.44522 -11.21128,2.82346 -17.69679,2.63023c-4.59404,-0.13688 -8.86718,-0.79602 -11.51202,-0.79602c-5.28886,0 -5.53995,-2.30461 -7.96622,-6.82404c-4.58338,-8.53751 -8.36712,-22.14557 -8.36712,-23.14138c0,-1.52295 6.72012,-10.11104 22,-10.11104c1.23183,0 4.86729,3.36488 6.81838,3.46831c3.2998,0.17493 5.19235,-2.82301 7.30612,-2.41537c12.13943,2.34108 17.3755,8.0494 17.3755,9.24193z" fill="#000000" stroke-width="NaN"/><path d="M474.57258,165.90321c0,0.78252 -1.34196,15.33221 -8.05287,21.90281c-5.9146,5.79093 -16.81814,3.74244 -23.11379,3.74244c-13.43893,0 -17.5,-24.17306 -17.5,-25.64525c0,-0.69706 -2.12943,-5.25789 2.14439,-1.34955c0.90181,0.82469 2.38087,-0.24849 3.69383,1.04591c2.82105,2.78116 2.99639,8.88881 6.51684,12.26176c3.47589,3.33027 10.2966,3.02459 13.14494,3.02459c3.45594,0 9.69175,0.35869 11.97269,-1.7286c3.61016,-3.30365 2.58087,-9.04862 4.96399,-11.93886c1.96625,-2.38467 6.22998,-1.80965 6.22998,-1.31526z" fill="#ffffff" stroke-width="0"/><path d="M463.07258,175.00319c0,0.40612 -4.37504,4.04442 -11.41667,4.04442c-7.04163,0 -14.08333,-3.6383 -14.08333,-4.04442c0,-0.40612 5.87504,1.65454 12.91667,1.65454c7.04163,0 12.58333,-2.06065 12.58333,-1.65454z" fill="#ffffff" stroke-width="0"/><path d="M463.57258,165.63459c0,0.46078 -4.37504,4.58879 -11.41667,4.58879c-7.04163,0 -14.08333,-4.12801 -14.08333,-4.58879c0,-0.46078 5.87504,1.87723 12.91667,1.87723c7.04163,0 12.58333,-2.33801 12.58333,-1.87723z" fill="#ffffff" stroke-width="0"/><path d="M470.4059,162.13456c0,0.35512 1.13808,1.30688 1.13808,1.30688c0,0 -12.98991,1.083 -20.47142,1.083c-11.50593,0 -22.33333,-2.47759 -22.33333,-3.4929c0,-0.5911 8.79167,-3.95858 11.86297,-5.44038c2.20411,-1.06341 -2.33691,-0.44241 2.47037,-0.44241c1.55948,0 5.02064,2.61729 7.82792,2.73329c3.81307,0.15756 7.1239,-2.12496 9.37172,-1.6278c2.97435,0.65785 -0.21544,-0.32848 1.31094,0.52607c2.73673,1.53218 8.82276,4.91079 8.82276,5.35424z" fill="#ffffff" stroke-width="0"/></g><g stroke-width="0" stroke-linecap="butt"><path d="M359.42112,165.1114c0,0.64319 1.9446,21.40801 -8.44665,30.87679c-5.20216,4.74034 -21.76558,1.80396 -26.64219,1.80396c-14.61759,0 -17.84617,-31.71555 -17.84617,-32.68075c0,-0.5669 4.54498,-4.1882 9.4078,-8.09c2.30921,-1.85285 2.95402,-4.71643 6.44493,-5.58501c1.67397,-0.41651 3.48695,-0.65558 5.44197,-0.65558c0.65294,0 3.1056,0.01111 4.50408,1.07914c1.05746,0.80759 0.92146,2.74336 2.3097,2.75495c0.88235,0.00737 1.12522,-1.96984 2.04744,-2.313c2.75533,-1.02527 6.10789,-1.31685 7.06251,-1.08007c1.60279,0.39756 3.05345,0.90977 4.36457,1.50226c2.06462,0.93298 3.09352,3.46309 4.51533,4.65971c4.68442,3.94249 6.83667,7.18836 6.83667,7.72761z" fill="#000000" stroke="#000000"/><path d="M358.38658,166.33478c0,0.37875 1.22862,18.36211 -8.26689,27.13299c-5.02346,4.64011 -19.75345,2.22725 -24.5804,2.22725c-13.95099,0 -16.98403,-30.00447 -16.98403,-30.58359c0,-0.15142 6.88407,0.18755 6.88407,0.18755c0,0 2.00198,10.24812 7.00455,16.18389c3.59103,4.26091 9.48042,4.77493 13.78587,4.77493c2.97064,0 8.62299,-1.83096 10.98045,-5.78029c3.2573,-5.4568 2.73242,-13.5279 2.73242,-13.5279c0,0 8.44397,-0.90025 8.44397,-0.61483z" fill="#ffffff" stroke="none"/><path d="M344.93729,178.04394c0,0.4826 -3.82892,6.64101 -9.82833,6.64101c-5.99941,0 -11.89745,-6.15841 -11.89745,-6.64101c0,-0.4826 5.38076,3.3205 11.38017,3.3205c5.99941,0 10.3456,-3.8031 10.3456,-3.3205z" fill="#ffffff" stroke="none"/><path d="M346.3167,165.89783c0,0.62738 -5.40387,1.13596 -12.06987,1.13596c-6.666,0 -12.06987,-0.50859 -12.06987,-1.13596c0,-0.62738 12.06987,-4.2817 12.06987,-4.2817c0,0 12.06987,3.65433 12.06987,4.2817z" fill="#ffffff" stroke="none"/><path d="M354.90117,164.24103c0,0 -4.94182,0.23849 -9.99973,-0.88638c-4.76362,-1.05942 -9.63021,-3.48612 -10.56838,-3.48612c-0.51663,0 -5.49546,2.16658 -9.14826,2.97631c-3.87657,0.85933 -6.45561,0.36703 -7.63205,0.4501c-4.76446,0.33639 -5.37653,-1.24187 -5.37653,-1.24187c0,0 3.62743,-1.25601 6.86152,-3.56005c2.80694,-1.99973 5.14744,-5.09074 6.67398,-5.09074c0.32295,0 2.26693,-0.05046 3.71769,0.67029c1.89524,0.94156 3.55797,2.70531 5.84299,2.60796c1.93243,-0.08234 2.03276,-1.70739 3.58017,-2.61771c1.19,-0.70006 3.86989,-0.83461 5.01578,-0.39392c3.21395,1.23602 4.42246,4.06703 6.16101,5.96322c2.57479,2.80825 4.8718,4.60891 4.8718,4.60891z" fill="#ffffff" stroke="none"/></g><g stroke="none" stroke-width="0" stroke-linecap="butt"><path d="M372.18576,213.56857c0,0.43439 3.53878,10.95978 -8.28429,20.09809c-2.09385,1.61838 -27.9592,6.09265 -36.05019,0.33178c-0.33211,-0.23647 -0.40535,-0.06878 -0.71995,-0.32192c-11.20652,-9.01741 -10.69557,-19.74171 -10.69557,-20.10794c0,-0.36979 5.35202,-3.11267 10.64526,-6.14741c3.68145,-2.11066 5.91469,-4.89531 12.22974,-4.89531c1.13312,0 4.60357,1.39471 6.87268,1.35487c4.7925,-0.08415 9.41728,-1.56723 11.79941,-0.99025c3.70645,0.89774 5.23521,2.85489 7.30355,4.28338c4.52412,3.12453 6.89935,6.06301 6.89935,6.39472z" fill="#000000"/><path d="M370.43576,213.98141c0,0.7171 3.35495,8.87933 -8.68256,16.78088c-4.2278,2.77517 -17.20516,2.09525 -23.34244,1.69244c-9.71979,-0.63792 -15.14139,-2.76256 -17.48067,-8.34492c-3.09551,-7.387 -1.49433,-7.92526 -1.49433,-8.47716c0,-0.96896 0.72754,-1.75445 1.625,-1.75445c0.06467,0 1.33192,0.50728 1.33192,0.50728c0,0 0.46009,1.40439 3.79473,5.77059c4.48582,5.87348 13.4475,6.5652 19.71041,6.52137c3.88335,-0.02718 13.3403,-0.40648 16.99222,-3.92281c3.23814,-3.11791 4.07797,-8.90193 4.07797,-8.90193c0,0 3.46775,-0.04617 3.46775,0.1287z" fill="#ffffff"/><path d="M364.36433,216.4852c0,0.06514 -2.03233,9.19756 -19,8.61008c-17.68952,-0.61247 -19.71429,-8.54494 -19.71429,-8.61008c0,-0.06514 9.52363,4.45248 20.21429,4.45248c10.69065,0 18.5,-4.51761 18.5,-4.45248z" fill="#ffffff"/><path d="M368.36433,211.76735c0,0.45597 -10.18657,-1.41536 -22.92857,-1.41536c-12.742,0 -23.21429,1.87133 -23.21429,1.41536c0,-0.24784 2.69002,-1.8912 6.09629,-3.79211c2.86072,-1.59646 5.87303,-3.52055 11.68942,-3.52055c1.32932,0 7.35286,1.3234 7.35286,1.3234c0,0 10.12774,-1.42669 12.09195,-1.0283c3.50909,0.71173 3.04528,2.1149 4.34279,3.20991c2.28279,1.92652 4.56955,3.59117 4.56955,3.80766z" fill="#ffffff"/></g><g stroke="none" stroke-width="0" stroke-linecap="butt"><path d="M306.18575,210.98396c0,0.42123 1.78878,20.03484 -10.03429,28.89626c-2.09385,1.56934 -25.2092,5.10744 -33.30019,-0.47888c-12.16286,-8.39767 -12.41552,-28.05228 -12.41552,-28.41738c0,-0.35859 5.35202,-3.01835 10.64526,-5.96114c3.68145,-2.04671 5.91469,-4.74698 12.22974,-4.74698c1.13312,0 4.60357,1.35245 6.87268,1.31382c4.7925,-0.0816 9.41728,-1.51974 11.79941,-0.96024c3.70645,0.87054 5.23521,2.7684 7.30355,4.15359c4.52412,3.02986 6.89935,5.8793 6.89935,6.20096z" fill="#000000"/><path d="M304.43575,211.38429c0,0.69537 1.85495,18.61789 -10.18256,26.28002c-4.2278,2.69108 -15.95516,2.43206 -22.09244,2.04146c-9.71979,-0.61859 -13.64139,-5.48098 -15.98067,-10.8942c-3.09551,-7.16318 -2.74433,-15.2909 -2.74433,-15.82607c0,-0.9396 0.72754,-1.70129 1.625,-1.70129c0.06467,0 1.33192,0.49191 1.33192,0.49191c0,0 2.21009,10.56883 5.54473,14.80274c4.48582,5.69552 11.4475,7.76735 17.71041,7.72484c3.88335,-0.02635 10.3403,-0.99463 13.99222,-4.40441c3.23814,-3.02344 7.32797,-18.63979 7.32797,-18.63979c0,0 3.46775,-0.04478 3.46775,0.1248z" fill="#ffffff"/><path d="M298.36433,213.8122c0,0.06317 -2.53233,19.32677 -19.5,18.75709c-17.68952,-0.59392 -19.21429,-18.69392 -19.21429,-18.75709c0,-0.06317 9.52363,16.12652 20.21429,16.12652c10.69065,0 18.5,-16.18968 18.5,-16.12652z" fill="#ffffff"/><path d="M302.36433,209.23734c0,0.44216 -9.93657,-0.62247 -22.67857,-0.62247c-12.742,0 -23.46429,1.06463 -23.46429,0.62247c0,-0.24033 2.69002,-1.8339 6.09629,-3.67722c2.86072,-1.54808 5.87303,-3.41387 11.68942,-3.41387c1.32932,0 7.35286,1.2833 7.35286,1.2833c0,0 10.12774,-1.38347 12.09195,-0.99715c3.50909,0.69017 3.04528,2.05082 4.34279,3.11265c2.28279,1.86816 4.56955,3.48237 4.56955,3.69229z" fill="#ffffff"/></g><g stroke="none" stroke-width="0" stroke-linecap="butt"><path d="M239.68575,213.13886c0,0.49616 1.78878,23.59892 -10.03429,34.03673c-2.09385,1.84852 -25.2092,6.01602 -33.30019,-0.56407c-12.16286,-9.89156 -12.41552,-33.04261 -12.41552,-33.47266c0,-0.42237 5.35202,-3.5553 10.64526,-7.0216c3.68145,-2.4108 5.91469,-5.59144 12.22974,-5.59144c1.13312,0 4.60357,1.59304 6.87268,1.54753c4.7925,-0.09611 9.41728,-1.79009 11.79941,-1.13106c3.70645,1.02541 5.23521,3.26087 7.30355,4.89249c4.52412,3.56886 6.89935,6.92519 6.89935,7.30407z" fill="#000000"/><path d="M237.93575,213.61038c0,0.81907 1.85495,21.9299 -10.18256,30.95508c-4.2278,3.16981 -15.95516,2.86471 -22.09244,2.40463c-9.71979,-0.72864 -13.64139,-6.45602 -15.98067,-12.83222c-3.09551,-8.43747 -2.74433,-18.01105 -2.74433,-18.64144c0,-1.10675 0.72754,-2.00394 1.625,-2.00394c0.06467,0 1.33192,0.57942 1.33192,0.57942c0,0 2.21009,12.44896 5.54473,17.43605c4.48582,6.70872 11.6975,8.6491 17.96041,8.59904c3.88335,-0.03105 10.0903,-0.67156 13.74222,-4.68793c3.23814,-3.56129 7.32797,-21.9557 7.32797,-21.9557c0,0 3.46775,-0.05275 3.46775,0.147z" fill="#ffffff"/><path d="M231.86429,216.47025c0,0.07441 -2.53233,22.76488 -19.5,22.09386c-17.68952,-0.69957 -19.21429,-22.01945 -19.21429,-22.09386c0,-0.07441 9.52363,18.99533 20.21429,18.99533c10.69065,0 18.5,-19.06973 18.5,-18.99533z" fill="#ffffff"/><path d="M235.86429,211.08154c0,0.52081 -10.18657,-1.11663 -22.92857,-1.11663c-12.742,0 -23.21429,1.63744 -23.21429,1.11663c0,-0.28308 2.69002,-2.16013 6.09629,-4.33137c2.86072,-1.82348 5.87303,-4.02119 11.68942,-4.02119c1.32932,0 7.35286,1.51159 7.35286,1.51159c0,0 10.12774,-1.62957 12.09195,-1.17453c3.50909,0.81294 3.04528,2.41565 4.34279,3.66638c2.28279,2.20048 4.56955,4.10186 4.56955,4.34912z" fill="#ffffff"/></g><g stroke="none" stroke-width="0" stroke-linecap="butt"><path d="M126.57388,153.86122c0,0.78519 -4.95086,19.61388 -15.15851,28.39278c-3.58732,3.08522 -8.80158,1.75946 -13.56489,1.3916c-2.7131,-0.20952 -5.2799,0.82316 -7.31646,0.82316c-15.78614,0 -21.12681,-29.38923 -21.12681,-30.60754c0,-1.21831 6.76096,-9.55911 22.54711,-9.55911c1.47145,0 4.02249,-0.03899 4.92018,0.95618c0.76277,0.84559 -0.16174,2.74447 1.27888,2.79575c1.70874,0.06083 4.16825,-1.92672 6.5037,-2.70051c2.16676,-0.7179 4.22674,-0.23747 5.48132,0.07878c9.30607,2.34584 16.43549,7.64127 16.43549,8.4289z" fill="#000000"/><path d="M119.36554,152.39057c0,1.67518 -9.15202,0.55149 -20.75,0.55149c-11.59798,0 -21.25,-2.20595 -21.25,-2.20595c0,0 3.15202,-4.41189 14.75,-4.41189c2.20986,0 3.96984,3.29967 6.5055,3.38433c3.07977,0.10283 6.94744,-2.96471 9.61128,-2.39995c6.6535,1.41063 11.13322,4.11365 11.13322,5.08196z" fill="#ffffff"/><path d="M124.11554,156.52674c0,0.94758 -5.60477,16.97836 -15.70708,24.23046c-2.72921,1.95921 -6.66635,-0.14106 -10.34161,-0.36306c-2.39802,-0.14485 -4.68455,1.77676 -6.45131,1.77676c-14.49747,0 -20,-24.27356 -20,-25.64416c0,-0.44656 4.32721,-4.2606 6.61819,-2.13608c2.61777,2.42757 3.32909,8.74464 7.10209,12.6806c3.05961,3.19176 8.90297,4.34563 13.27972,4.34563c4.54052,0 9.49065,-1.14127 12.53384,-4.65197c1.93436,-2.23153 2.20431,-6.73506 3.98538,-8.28106c4.36351,-3.78761 8.98078,-2.62561 8.98078,-1.95713z" fill="#ffffff"/><path d="M107.61554,166.03991c0,0.38073 -3.67119,3.4468 -9.125,3.4468c-5.45381,0 -10.625,-3.06607 -10.625,-3.4468c0,-0.38073 4.42119,0.68936 9.875,0.68936c5.45381,0 9.875,-1.07009 9.875,-0.68936z" fill="#ffffff"/><path d="M110.86554,155.83737c0,0.98988 -5.54048,1.79234 -12.375,1.79234c-6.83452,0 -12.375,-0.80246 -12.375,-1.79234c0,-0.98988 5.54048,-1.79233 12.375,-1.79233c6.83452,0 12.375,0.80245 12.375,1.79233z" fill="#ffffff"/></g><g stroke-width="0" stroke-linecap="butt"><path d="M480.34007,112.24856c0,0.58446 1.99345,19.45327 -8.65882,28.05747c-5.33283,4.3075 -22.31232,1.63925 -27.31144,1.63925c-14.98478,0 -18.29446,-28.81965 -18.29446,-29.69672c0,-0.51514 4.65914,-3.80578 9.64412,-7.35132c2.36721,-1.68367 3.02823,-4.28578 6.60683,-5.07506c1.71602,-0.37847 3.57454,-0.59572 5.57867,-0.59572c0.66933,0 3.18361,0.0101 4.61722,0.98061c1.08402,0.73385 0.94461,2.49286 2.36772,2.5034c0.90452,0.0067 1.15348,-1.78997 2.09886,-2.1018c2.82454,-0.93166 6.26132,-1.19661 7.23993,-0.98145c1.64305,0.36125 3.13014,0.8267 4.4742,1.36509c2.11648,0.84779 3.17123,3.14687 4.62875,4.23423c4.80208,3.5825 7.00841,6.53201 7.00841,7.02201z" fill="#000000" stroke="#000000"/><path d="M479.27953,113.3602c0,0.34416 1.25948,16.6855 -8.47456,24.65552c-5.14965,4.21642 -20.24966,2.02389 -25.19785,2.02389c-14.30144,0 -17.41066,-27.26481 -17.41066,-27.79104c0,-0.1376 7.05699,0.17042 7.05699,0.17042c0,0 2.05227,9.31238 7.18051,14.70616c3.68124,3.87185 9.71857,4.33894 14.13216,4.33894c3.04526,0 8.83959,-1.66378 11.25627,-5.2525c3.33913,-4.95855 2.80105,-12.29269 2.80105,-12.29269c0,0 8.65609,-0.81805 8.65609,-0.55869z" fill="#ffffff" stroke="none"/><path d="M465.4924,124.0002c0,0.43853 -3.9251,6.03462 -10.07521,6.03462c-6.15011,0 -12.1963,-5.59609 -12.1963,-6.03462c0,-0.43853 5.51592,3.01731 11.66603,3.01731c6.15011,0 10.60549,-3.45584 10.60549,-3.01731z" fill="#ffffff" stroke="none"/><path d="M466.90647,112.96319c0,0.57009 -5.5396,1.03224 -12.37306,1.03224c-6.83346,0 -12.37306,-0.46215 -12.37306,-1.03224c0,-0.57009 12.37306,-3.89075 12.37306,-3.89075c0,0 12.37306,3.32066 12.37306,3.89075z" fill="#ffffff" stroke="none"/><path d="M475.70656,111.45763c0,0 -5.06596,0.21671 -10.25092,-0.80545c-4.88328,-0.96268 -9.87213,-3.16781 -10.83386,-3.16781c-0.52961,0 -5.6335,1.96875 -9.37805,2.70455c-3.97395,0.78087 -6.61778,0.33353 -7.82377,0.40901c-4.88414,0.30567 -5.51159,-1.12848 -5.51159,-1.12848c0,0 3.71855,-1.14132 7.03388,-3.23498c2.87745,-1.81714 5.27674,-4.62592 6.84163,-4.62592c0.33107,0 2.32387,-0.04585 3.81108,0.60908c1.94286,0.85559 3.64734,2.4583 5.98976,2.36983c1.98098,-0.07482 2.08383,-1.55149 3.67011,-2.37869c1.2199,-0.63614 3.96709,-0.75841 5.14178,-0.35796c3.29469,1.12316 4.53355,3.69567 6.31577,5.41873c2.63946,2.55183 4.99418,4.18807 4.99418,4.18807z" fill="#ffffff" stroke="none"/></g><g stroke="none" stroke-linecap="butt"><path d="M118.77756,117.85354c0,0.64263 -0.94073,1.62783 -2.59124,2.04227c-3.81261,0.95733 -11.41252,0.88112 -19.95329,0.88112c-12.23817,0 -23.05838,-5.25098 -23.05838,-7.37808c0,-2.1271 11.20558,0.60324 23.44374,0.60324c12.23816,0 22.15916,1.72435 22.15916,3.85146z" fill="#0b0000" stroke-width="0"/><path d="M123.01672,110.75388c0,1.49909 -5.5977,6.38166 -15.68679,8.16058c-0.60368,0.02805 -1.20853,0.05947 -1.81542,0.10277c-0.65433,0.04668 -1.32324,0.25731 -1.96852,0.38894c-1.24867,0.10647 -2.55211,0.16427 -3.90878,0.16427c-14.89863,0 -30.57322,-6.97137 -30.57322,-8.81656c0,-0.71674 -1.26069,-2.68004 1.8414,-3.22416c4.88405,-0.85668 7.67366,-2.99384 16.78514,-2.99384c5.93318,0 12.87168,-0.04895 18.91921,0.90222c9.13823,1.4373 16.40698,4.20541 16.40698,5.31577z" fill="#ffffff" stroke-width="0"/><path d="M127.12739,111.1715c0,0.07899 -2.24804,4.26835 -10.62455,8.39543c-0.00776,0.00383 -0.01553,0.00765 -0.0233,0.01145c-0.21137,-0.48388 -0.85049,-0.86045 -1.94718,-1.28534c-0.65718,-0.25461 -2.3035,0.30658 -2.9338,0.36838c-2.02605,0.19866 -4.04366,0.76709 -6.08407,0.91264c-0.91174,0.06504 -1.8518,-0.10843 -2.71677,-0.06402c-3.20351,0.16448 -14.46918,0.28998 -18.78287,-0.67255c-2.19602,-0.49001 -5.21412,-2.31559 -7.30488,-2.59375c-0.15896,-0.02115 -0.30619,-0.02509 -0.44377,-0.0143c-0.00285,-0.00001 -0.00568,-0.00001 -0.00852,-0.00001c-0.04036,0 -0.08051,0.00068 -0.12042,0.00202c-7.75514,-3.48898 -12.72547,-7.7684 -12.72547,-7.84412c0,-0.12814 16.80554,10.44067 34.68391,10.44067c17.87837,0 29.03172,-7.78463 29.03172,-7.65649z" fill="#0b0000" stroke-width="0"/><path d="M93.95765,105.88123l-2.05533,-2.30984l6.91082,0.85659l5.30705,-0.73283l1.5415,1.97986c0,0 -4.28526,0.94658 -6.22521,0.92556c-1.86316,-0.02018 -5.47882,-0.71933 -5.47882,-0.71933z" fill="#0b0000" stroke-width="0"/><path d="M93.50091,110.91338v-1.60863l6.45148,0.53621l7.19369,-0.65995l-2.51208,1.73237z" fill="#0b0000" stroke-width="0"/><path d="M127.36235,111.27217c-0.14693,0.10599 -0.29525,0.20797 -0.44242,0.30702c-0.87892,0.61082 -1.72774,1.12767 -2.37284,1.42121c-0.03443,0.01576 -0.07208,0.035 -0.1048,0.04914c-0.76924,0.33376 -4.27593,2.70692 -7.7925,5.27394c-0.27414,0.20011 -0.54474,0.39681 -0.81189,0.59011c-0.32328,-0.20774 -0.75723,-0.40809 -1.30555,-0.62054c-0.65718,-0.25461 -2.30349,0.30658 -2.93379,0.36838c-1.64881,0.16166 -3.29203,0.19944 -4.94648,0.28635c3.1772,-0.82095 6.32743,-2.04727 9.2742,-3.60893c1.30315,-0.71309 2.58376,-1.501 3.83837,-2.36946l2.23089,-1.54434l0.28575,-0.20844l0.15116,-0.11119l0.30273,-0.2871l-5.3489,-0.08596c-0.98037,-0.01584 -1.79701,-0.02124 -2.55799,-0.01893c-0.09438,0.00154 -0.19001,0.00309 -0.28208,0.00463c-2.88134,0.07624 -4.94418,0.30763 -9.21116,0.94228c-1.34034,0.19935 -2.37391,0.3498 -3.24802,0.46998l-3.02016,0.46333l-0.82143,-0.16263c-0.43295,-0.0335 -0.82133,-0.1058 -1.30197,-0.2111c-5.66886,-1.24182 -22.1972,-3.78571 -25.94836,-4.05121c-0.01225,0.00017 -0.02715,-0.00051 -0.03905,-0.00035l0.00001,0.0001c-0.42832,0.00833 -0.62785,0.08302 -0.64041,0.23466c0.55005,0.75772 3.36093,3.15533 5.5515,4.6805c1.11901,0.77911 2.26813,1.49446 3.44006,2.14874c1.40163,0.76466 2.86251,1.46871 4.33177,2.08899c2.42198,0.99155 4.91124,1.7277 7.42551,2.19748c-2.80212,-0.10969 -5.42124,-0.318 -7.04966,-0.68136c-2.19602,-0.49001 -5.21412,-2.31558 -7.30489,-2.59375c-0.15896,-0.02115 -0.3062,-0.02509 -0.44377,-0.0143c-0.00285,-0.00001 -0.00568,-0.00001 -0.00852,-0.00001c-0.00662,0 -0.01324,0.00002 -0.01985,0.00006c-0.23723,-0.18382 -0.46724,-0.36051 -0.68909,-0.52937c-1.36141,-0.99249 -2.45249,-1.68042 -3.4451,-2.18625c-1.27994,-0.35501 -5.74037,-2.71852 -6.79513,-3.64297l-0.65328,-0.57254l-0.55405,-0.40027v0.27027c-0.24375,-0.23307 -0.53297,-0.48518 -0.8421,-0.74569c0.65744,-0.34212 1.26742,-0.74002 1.74154,-0.89849c1.35798,-0.45386 3.2781,-0.90238 4.18947,-1.7925c0.30635,0.01088 0.73353,-0.02373 1.364,-0.08246c0.41816,-0.04879 0.89934,-0.11905 1.4329,-0.20677c1.54736,-0.27036 3.901,-0.76631 6.05868,-1.28811l5.35258,-1.29443l4.42183,0.44409c1.78623,0.17941 3.3963,0.33301 4.2036,0.40292c0.07145,-0.00185 0.13563,-0.00552 0.19305,-0.01111l0.15594,0.0676l0.00159,0.02066l0.38667,0.23945l0.33144,0.27935l0.12798,0.00514l0.15927,0.09862l0.46384,0.16756v0.0284l0.14318,0.41376l0.02811,0.09137v0.48745l-0.01602,0.01734l0.01602,0.05205v0.05172l0.06202,0.17927c-0.40174,-0.16243 -1.02604,-0.24608 -2.15416,-0.38801c-0.38321,-0.04822 -0.76394,-0.09013 -1.14347,-0.12845c-1.65672,-0.08256 -3.73382,-0.12644 -5.61031,-0.1218l-0.00001,-0.00001c-0.66058,0.00178 -1.29452,0.00943 -1.8753,0.02357c-2.56154,0.19072 -5.23465,0.60748 -8.20321,1.26787c-0.45457,0.10113 3.5949,0.76565 9.39079,1.5407c4.56599,0.61058 7.33848,0.98651 9.02647,1.18025c0.51476,0.05033 0.93848,0.0854 1.28121,0.10629l0.4912,0.62102c0.25672,0.32456 2.05497,0.37798 2.55999,0.38023c1.10911,0.00495 7.55972,0.93518 8.63911,-1.18894c1.48281,-0.11453 3.41608,-0.20426 5.12372,-0.23423c0.36317,-0.00881 0.71742,-0.01553 1.05113,-0.01863l0.50305,-0.00463l3.60636,-0.12082l-0.41484,-0.15832l-2.49597,-0.86826c-0.51256,-0.17832 -1.01835,-0.34815 -1.51513,-0.50848c-2.84094,-0.85062 -5.98442,-1.58324 -7.50446,-1.69802c-0.19617,-0.01483 -0.35883,-0.02596 -0.5228,-0.03716l-1.35352,0.0561c-0.05319,0.01645 -0.10335,0.03506 -0.15058,0.0561l0.01503,-0.14115l0.10018,-0.28947v-0.14272l0.01374,-0.03972l0.00767,-0.00316l0.0179,-0.05172l0.03201,-0.04625l0.11977,-0.38938l0.23381,-0.15356l0.34256,-0.37123l0.05461,-0.11045l0.10565,-0.08905l0.08958,-0.12945l0.97478,0.05399h0.96063c1.69677,0 3.26516,0.39536 9.20796,2.321c3.05185,0.98889 5.88538,1.87398 7.23431,2.26557c0.28804,0.07268 0.54433,0.13312 0.76027,0.17759c0.84056,0.70596 2.67712,1.71252 4.48548,2.61706c-0.06639,0.04772 -0.13293,0.0952 -0.19955,0.14237z" fill="#0b0000" stroke-width="1.1"/><path d="M95.77489,94.83362l0.00677,-0.00489c0.00039,0.00797 0.00075,0.01593 0.00113,0.0239z" fill="#0b0000" stroke-width="1.1"/></g><path d="" fill="#000000" stroke="none" stroke-width="0" stroke-linecap="butt"/><path d="" fill="#ffffff" stroke="#ffffff" stroke-width="1.5" stroke-linecap="butt"/><path d="" fill="#ffffff" stroke="#ffffff" stroke-width="1.5" stroke-linecap="butt"/><path d="" fill="#ffffff" stroke="#000000" stroke-width="2.5" stroke-linecap="round"/><path d="" fill="#ffffff" stroke="#000000" stroke-width="2.5" stroke-linecap="round"/><g stroke="none" stroke-linecap="butt"><path d="M54.27751,116.95185c0,0.84075 -0.94073,2.12967 -2.59124,2.67188c-3.81261,1.25247 -11.41253,1.15275 -19.9533,1.15275c-12.23817,0 -23.05837,-6.8698 -23.05837,-9.65266c0,-2.78286 11.20558,0.78921 23.44374,0.78921c12.23816,0 22.15916,2.25595 22.15916,5.03882z" fill="#0b0000" stroke-width="0"/><path d="M58.51667,107.66344c0,1.96124 -5.5977,8.34906 -15.68679,10.6764c-0.60367,0.03669 -1.20853,0.0778 -1.81542,0.13446c-0.65433,0.06107 -1.32324,0.33664 -1.96852,0.50885c-1.24867,0.1393 -2.55212,0.21492 -3.90878,0.21492c-14.89864,0 -30.57322,-9.12058 -30.57322,-11.53462c0,-0.93771 -1.2607,-3.50627 1.8414,-4.21814c4.88405,-1.12078 7.67367,-3.91681 16.78514,-3.91681c5.93318,0 12.87167,-0.06404 18.91921,1.18037c9.13823,1.8804 16.40698,5.50189 16.40698,6.95457z" fill="#ffffff" stroke-width="0"/><path d="M62.62736,108.20981c0,0.10334 -2.24805,5.58424 -10.62455,10.98366c-0.00776,0.00501 -0.01553,0.01001 -0.0233,0.01498c-0.21137,-0.63305 -0.85049,-1.12571 -1.94718,-1.6816c-0.65718,-0.33311 -2.30349,0.40109 -2.9338,0.48195c-2.02604,0.25991 -4.04366,1.00357 -6.08407,1.194c-0.91174,0.08509 -1.85179,-0.14186 -2.71677,-0.08376c-3.20351,0.21519 -14.46917,0.37938 -18.78287,-0.8799c-2.19602,-0.64108 -5.21412,-3.02946 -7.30488,-3.39337c-0.15897,-0.02768 -0.3062,-0.03283 -0.44378,-0.0187c-0.00285,-0.00001 -0.00568,-0.00002 -0.00852,-0.00002c-0.04036,0 -0.08051,0.00089 -0.12042,0.00264c-7.75514,-4.56459 -12.72547,-10.16332 -12.72547,-10.26238c0,-0.16764 16.80554,13.65942 34.6839,13.65942c17.87836,0 29.03172,-10.18455 29.03172,-10.0169z" fill="#0b0000" stroke-width="0"/><path d="M29.4576,101.28861l-2.05533,-3.02195l6.91082,1.12067l5.30705,-0.95876l1.54151,2.59023c0,0 -4.28527,1.2384 -6.22521,1.2109c-1.86316,-0.0264 -5.47882,-0.94109 -5.47882,-0.94109z" fill="#0b0000" stroke-width="0"/><path d="M29.00086,107.87212v-2.10456l6.45148,0.70152l7.19369,-0.8634l-2.51208,2.26644z" fill="#0b0000" stroke-width="0"/><path d="M62.86238,108.34152c-0.14692,0.13866 -0.29525,0.27209 -0.44241,0.40166c-0.87892,0.79913 -1.72774,1.47532 -2.37284,1.85936c-0.03443,0.02062 -0.07208,0.04578 -0.1048,0.06428c-0.76924,0.43666 -4.27594,3.54144 -7.79251,6.89984c-0.27414,0.2618 -0.54474,0.51914 -0.81189,0.77203c-0.32328,-0.27178 -0.75723,-0.53391 -1.30556,-0.81184c-0.65718,-0.33311 -2.30349,0.40109 -2.93379,0.48195c-1.64881,0.2115 -3.29203,0.26092 -4.94648,0.37463c3.17721,-1.07403 6.32743,-2.67842 9.27421,-4.72152c1.30315,-0.93293 2.58376,-1.96375 3.83836,-3.09994l2.23089,-2.02044l0.28575,-0.27269l0.15116,-0.14547l0.30273,-0.3756l-5.34891,-0.11246c-0.98037,-0.02072 -1.79701,-0.02779 -2.55799,-0.02476c-0.09438,0.00202 -0.19001,0.00404 -0.28209,0.00606c-2.88134,0.09974 -4.94418,0.40247 -9.21116,1.23277c-1.34034,0.26081 -2.37391,0.45765 -3.24802,0.61487l-3.02016,0.60616l-0.82143,-0.21276c-0.43295,-0.04383 -0.82133,-0.13842 -1.30197,-0.27619c-5.66886,-1.62466 -22.1972,-4.95281 -25.94835,-5.30015c-0.01226,0.00023 -0.02715,-0.00067 -0.03905,-0.00046l0.00001,0.00012c-0.42832,0.0109 -0.62785,0.10861 -0.64041,0.307c0.55005,0.99132 3.36093,4.12809 5.55151,6.12345c1.11901,1.01929 2.26813,1.95519 3.44005,2.81118c1.40163,1.00039 2.86251,1.9215 4.33178,2.73301c2.42198,1.29724 4.91124,2.26033 7.42551,2.87494c-2.80212,-0.14351 -5.42124,-0.41603 -7.04966,-0.89141c-2.19602,-0.64108 -5.21412,-3.02945 -7.30489,-3.39337c-0.15897,-0.02768 -0.3062,-0.03283 -0.44378,-0.01871c-0.00285,-0.00001 -0.00568,-0.00002 -0.00852,-0.00002c-0.00662,0 -0.01324,0.00002 -0.01985,0.00008c-0.23724,-0.24049 -0.46724,-0.47165 -0.68908,-0.69257c-1.36142,-1.29846 -2.45249,-2.19847 -3.44511,-2.86024c-1.27994,-0.46446 -5.74037,-3.55662 -6.79513,-4.76606l-0.65328,-0.74905l-0.55405,-0.52367v0.35358c-0.24374,-0.30492 -0.53296,-0.63476 -0.8421,-0.97557c0.65745,-0.44759 1.26742,-0.96817 1.74155,-1.17549c1.35798,-0.59377 3.2781,-1.18058 4.18947,-2.34511c0.30635,0.01423 0.73353,-0.03104 1.364,-0.10788c0.41816,-0.06383 0.89933,-0.15575 1.4329,-0.27052c1.54736,-0.35371 3.901,-1.00256 6.05868,-1.68523l5.35259,-1.69348l4.42182,0.581c1.78622,0.23471 3.39631,0.43567 4.2036,0.52714c0.07145,-0.00243 0.13562,-0.00722 0.19304,-0.01453l0.15594,0.08844l0.00159,0.02703l0.38667,0.31328l0.33144,0.36547l0.12798,0.00673l0.15926,0.12903l0.46384,0.21922v0.03715l0.14318,0.54131l0.02811,0.11953v0.63772l-0.01601,0.02269l0.01601,0.06809v0.06767l0.06202,0.23454c-0.40174,-0.2125 -1.02604,-0.32194 -2.15416,-0.50763c-0.38321,-0.06308 -0.76393,-0.11792 -1.14347,-0.16805c-1.65671,-0.10801 -3.73381,-0.16542 -5.6103,-0.15936l-0.00001,-0.00001c-0.66059,0.00232 -1.29452,0.01234 -1.87531,0.03083c-2.56154,0.24952 -5.23465,0.79476 -8.20321,1.65874c-0.45457,0.13231 3.5949,1.00169 9.39078,2.01568c4.56599,0.79882 7.33848,1.29064 9.02647,1.54412c0.51477,0.06584 0.93848,0.11173 1.28121,0.13906l0.4912,0.81247c0.25672,0.42462 2.05497,0.49451 2.55998,0.49746c1.10911,0.00647 7.55972,1.22349 8.63911,-1.55548c1.48282,-0.14983 3.41608,-0.26723 5.12372,-0.30644c0.36317,-0.01153 0.71742,-0.02032 1.05113,-0.02437l0.50305,-0.00606l3.60636,-0.15807l-0.41484,-0.20712l-2.49597,-1.13594c-0.51255,-0.2333 -1.01834,-0.45548 -1.51512,-0.66523c-2.84094,-1.11285 -5.98442,-2.07134 -7.50446,-2.22151c-0.19616,-0.01941 -0.35883,-0.03396 -0.5228,-0.04861l-1.35352,0.07339c-0.05319,0.02152 -0.10335,0.04587 -0.15059,0.07339l0.01503,-0.18466l0.10018,-0.37871v-0.18673l0.01374,-0.05197l0.00767,-0.00414l0.0179,-0.06767l0.03201,-0.06051l0.11977,-0.50943l0.23381,-0.2009l0.34256,-0.48567l0.05461,-0.1445l0.10565,-0.11651l0.08958,-0.16935l0.97479,0.07064h0.96062c1.69677,0 3.26516,0.51725 9.20796,3.03655c3.05185,1.29376 5.88537,2.45172 7.23431,2.96402c0.28804,0.09508 0.54434,0.17416 0.76027,0.23234c0.84056,0.9236 2.67713,2.24047 4.48548,3.42387c-0.06639,0.06243 -0.13293,0.12455 -0.19955,0.18627z" fill="#0b0000" stroke-width="1.1"/><path d="M31.27484,86.83513l0.00677,-0.0064c0.00039,0.01043 0.00076,0.02084 0.00113,0.03127z" fill="#0b0000" stroke-width="1.1"/></g><g stroke="#000000" stroke-width="0" stroke-linecap="round"><g fill="#000000"><path d="M185.1791,122.24779c-2.4235,2.35473 -9.68189,4.27196 -9.68189,4.27196l-28.9724,-0.59865c0,0 -8.93358,-1.80552 -11.66501,-4.20205c-2.72711,-2.3927 -4.7107,-10.16562 -4.7107,-10.16562c0,0 12.46751,-11.05399 17.49223,-12.81067c3.68754,-1.28919 14.31442,2.63357 14.31442,2.63357c0,0 7.54509,-3.10326 12.83118,-1.32994c5.41785,1.8175 14.88154,12.70432 14.88154,12.70432c0,0 -2.19633,7.26914 -4.48936,9.49706z"/><path d="M178.99126,115.16952l-35.01035,-0.43787l-13.81986,-2.40821l15.43219,-0.21892c0,0 2.64907,-1.57925 4.47725,-2.06477c2.8896,-0.76742 11.18529,-2.09485 11.18529,-2.09485c0,0 6.64689,1.15725 9.42053,2.03603c3.16353,1.00231 8.54529,3.6561 8.54529,3.6561l10.13457,-0.43787z"/><path d="M162.3891,108.09325c3.2208,0.07337 6.7521,1.6409 9.02319,2.21815c3.42898,0.87155 1.84998,4.08751 1.84998,4.08751h-25.34524c0,0 0.6868,-3.69846 4.12106,-4.57134c0.87431,-0.2222 5.42062,-1.84664 10.351,-1.73431z"/></g><path d="M181.97538,121.03122c-2.07674,2.0178 -8.29657,3.66071 -8.29657,3.66071l-24.82689,-0.51298c0,0 -7.65532,-1.54719 -9.99593,-3.6008c-2.3369,-2.05034 -4.03666,-8.71108 -4.03666,-8.71108c0,0 10.68359,-9.47234 14.98936,-10.97766c3.15991,-1.10472 12.26624,2.25675 12.26624,2.25675c0,0 6.46551,-2.65923 10.99523,-1.13964c4.64265,1.55745 12.75222,10.88654 12.75222,10.88654c0,0 -1.88207,6.22904 -3.84699,8.13818z" fill="#ffffff"/><path d="M176.67294,114.96574l-30.0009,-0.37522l-11.84245,-2.06364l13.22407,-0.1876c0,0 2.27003,-1.35328 3.83663,-1.76933c2.47614,-0.65761 9.58484,-1.79511 9.58484,-1.79511c0,0 5.69582,0.99167 8.0726,1.7447c2.71088,0.8589 7.32259,3.13298 7.32259,3.13298l8.68448,-0.37522z" fill="#000000"/><path d="M162.17152,110.72981c2.75995,0.06288 6.88486,1.40612 8.83098,1.90076c2.93834,0.74684 0.76112,1.67482 0.76112,1.67482h-21.71871c0,0 -0.51035,-1.34143 2.43252,-2.08943c0.7492,-0.19041 5.46918,-1.58241 9.69409,-1.48615z" fill="#ffffff"/></g><g stroke="none" stroke-width="0" stroke-linecap="butt"><path d="M173.18575,214.40086c0,0.52614 1.78878,25.02455 -10.03429,36.09292c-2.09385,1.96019 -25.2092,6.37945 -33.30019,-0.59815c-12.16286,-10.48912 -12.41552,-35.03874 -12.41552,-35.49477c0,-0.44789 5.35202,-3.77008 10.64526,-7.44578c3.68145,-2.55644 5.91469,-5.92922 12.22974,-5.92922c1.13312,0 4.60357,1.68928 6.87268,1.64102c4.7925,-0.10192 9.41728,-1.89823 11.79941,-1.19939c3.70645,1.08735 5.23521,3.45787 7.30355,5.18805c4.52412,3.78445 6.89935,7.34355 6.89935,7.74532z" fill="#000000"/><path d="M171.43575,214.90086c0,0.86855 1.85495,23.2547 -10.18256,32.8251c-4.2278,3.3613 -15.95516,3.03778 -22.09244,2.5499c-9.71979,-0.77266 -13.64139,-6.84603 -15.98067,-13.60742c-3.09551,-8.94718 -2.74433,-19.09912 -2.74433,-19.76758c0,-1.17361 0.72754,-2.125 1.625,-2.125c0.06467,0 1.33192,0.61442 1.33192,0.61442c0,0 2.21009,13.20101 5.54473,18.48938c4.48582,7.114 11.4475,9.70181 17.71041,9.64872c3.88335,-0.03292 10.3403,-1.24234 13.99222,-5.50134c3.23814,-3.77643 7.32797,-23.28206 7.32797,-23.28206c0,0 3.46775,-0.05593 3.46775,0.15588z" fill="#ffffff"/><path d="M165.36429,217.9335c0,0.0789 -2.53233,24.14013 -19.5,23.42857c-17.68952,-0.74183 -19.21429,-23.34967 -19.21429,-23.42857c0,-0.0789 9.52363,20.14286 20.21429,20.14286c10.69065,0 18.5,-20.22175 18.5,-20.14286z" fill="#ffffff"/><path d="M169.36429,212.21917c0,0.55228 -10.18657,-1.71429 -22.92857,-1.71429c-12.742,0 -23.21429,2.26657 -23.21429,1.71429c0,-0.30018 2.69002,-2.29063 6.09629,-4.59303c2.86072,-1.93364 5.87303,-4.26411 11.68942,-4.26411c1.32932,0 7.35286,1.60291 7.35286,1.60291c0,0 10.12774,-1.72802 12.09195,-1.24549c3.50909,0.86205 3.04528,2.56158 4.34279,3.88786c2.28279,2.33342 4.56955,4.34965 4.56955,4.61186z" fill="#ffffff"/></g><g stroke-width="0" stroke-linecap="butt"><path d="M360.07553,112.87961c0,0.70926 1.99345,23.60708 -8.65883,34.04852c-5.33283,5.22728 -22.31232,1.98926 -27.31144,1.98926c-14.98478,0 -18.29446,-34.97344 -18.29446,-36.03778c0,-0.62514 4.65914,-4.61842 9.64412,-8.92102c2.36721,-2.04318 3.02823,-5.20091 6.60683,-6.15872c1.71602,-0.45929 3.57454,-0.72292 5.57867,-0.72292c0.66933,0 3.18362,0.01225 4.61723,1.18999c1.08402,0.89055 0.94461,3.02516 2.36772,3.03795c0.90452,0.00813 1.15348,-2.17218 2.09887,-2.55059c2.82454,-1.13059 6.26132,-1.45212 7.23992,-1.19102c1.64305,0.43839 3.13014,1.00323 4.4742,1.65658c2.11648,1.02882 3.17124,3.81881 4.62876,5.13835c4.80208,4.34747 7.00841,7.92677 7.00841,8.52141z" fill="#000000" stroke="#000000"/><path d="M359.01496,114.22862c0,0.41765 1.25948,20.24831 -8.47456,29.92015c-5.14965,5.11675 -20.24965,2.45604 -25.19785,2.45604c-14.30144,0 -17.41067,-33.08659 -17.41067,-33.7252c0,-0.16697 7.05699,0.20681 7.05699,0.20681c0,0 2.05227,11.30083 7.18051,17.84633c3.68124,4.6986 9.71857,5.26542 14.13217,5.26542c3.04526,0 8.83959,-2.01904 11.25627,-6.37405c3.33913,-6.01734 2.80105,-14.91752 2.80105,-14.91752c0,0 8.65609,-0.99273 8.65609,-0.67799z" fill="#ffffff" stroke="none"/><path d="M345.22785,127.14055c0,0.53217 -3.9251,7.32318 -10.07521,7.32318c-6.15011,0 -12.1963,-6.79102 -12.1963,-7.32318c0,-0.53217 5.51592,3.66159 11.66603,3.66159c6.15011,0 10.60548,-4.19376 10.60548,-3.66159z" fill="#ffffff" stroke="none"/><path d="M346.6419,113.74683c0,0.69182 -5.5396,1.25265 -12.37306,1.25265c-6.83346,0 -12.37306,-0.56083 -12.37306,-1.25265c0,-0.69182 12.37306,-4.72153 12.37306,-4.72153c0,0 12.37306,4.02971 12.37306,4.72153z" fill="#ffffff" stroke="none"/><path d="M355.44201,111.9198c0,0 -5.06596,0.26299 -10.25092,-0.97743c-4.88328,-1.16824 -9.87212,-3.84423 -10.83386,-3.84423c-0.52961,0 -5.63351,2.38914 -9.37806,3.28205c-3.97395,0.94761 -6.61777,0.40474 -7.82376,0.49634c-4.88414,0.37094 -5.51159,-1.36944 -5.51159,-1.36944c0,0 3.71855,-1.38502 7.03388,-3.92574c2.87745,-2.20515 5.27674,-5.61368 6.84163,-5.61368c0.33107,0 2.32387,-0.05564 3.81108,0.73914c1.94286,1.03829 3.64734,2.98321 5.98976,2.87586c1.98098,-0.09079 2.08383,-1.88278 3.6701,-2.88661c1.2199,-0.77197 3.96709,-0.92036 5.14178,-0.43439c3.29469,1.36298 4.53355,4.4848 6.31578,6.57578c2.63946,3.09672 4.99418,5.08235 4.99418,5.08235z" fill="#ffffff" stroke="none"/></g><g stroke="none" stroke-width="0" stroke-linecap="butt"><path d="M248.06629,113.93068c0,1.03341 -6.79209,20.4814 -26.55403,19.46002c-23.99403,-1.24012 -29.91264,-18.42661 -29.91264,-19.46002c0,-0.28021 2.8177,-2.61178 7.01865,-6.71005c2.93218,-2.86051 4.65442,-6.97515 7.75204,-8.98371c3.82382,-2.47944 9.1278,-1.33376 10.73376,-1.33376c0.89933,0 2.26649,2.97111 3.67641,2.98812c1.71991,0.02074 3.50345,-2.89322 4.57901,-2.64078c1.70546,0.40029 6.49491,-0.54049 8.05958,0.12697c3.88625,1.6578 4.79908,7.21973 7.32474,9.8526c4.4055,4.5925 7.32246,6.20114 7.32246,6.70061z" fill="#000000"/><path d="M220.86626,107.76949c0,0 -5.56628,2.46058 -8.66566,2.75029c-4.21743,0.39423 -13.90577,0.48972 -13.90577,0.48972c0,0 3.07229,-3.19831 6.44622,-5.70575c1.90276,-1.4141 1.69215,-3.32526 3.30393,-4.46129c1.47276,-1.03805 4.21371,-1.36555 5.02128,-1.36555c0.46266,0 3.12081,-0.00402 4.46751,0.64897c1.50098,0.72781 2.36045,2.12298 4.15345,2.17129c1.54298,0.04157 1.53905,-1.27107 2.78898,-1.73311c0.63385,-0.2343 1.48621,-0.91089 2.79232,-1.0585c1.96366,-0.22193 4.44879,0.17117 4.73608,0.4274c0.29773,0.26555 1.56511,0.39746 2.08898,1.37244c0.79174,1.47354 0.91249,3.98536 1.57151,4.75385c3.08667,3.5994 6.64493,5.56627 6.64493,5.56627c0,0 -7.8691,0.30299 -11.48979,-0.32346c-3.57425,-0.61841 -9.95397,-3.53258 -9.95397,-3.53258z" fill="#ffffff"/><path d="M243.28183,114.76553c0,0 -5.98849,17.74597 -21.5,17.15c-19.60084,-0.75308 -24.7,-18.75 -24.7,-18.75l12.10601,0.13613c0,0 7.00614,9.11387 11.99399,9.11387c3.43788,0 11.34085,-7.25666 11.34085,-7.25666z" fill="#ffffff"/><path d="M225.28183,118.26553c0,0.13807 -1.83711,1.65 -4.35,1.65c-2.51289,0 -4.75,-1.51193 -4.75,-1.65c0,-0.13807 2.03711,-0.85 4.55,-0.85c2.51289,0 4.55,0.71193 4.55,0.85z" fill="#ffffff"/><path d="M220.53183,111.81553c-2.01584,0 -3.65,-0.57761 -3.65,-0.55c0,0.02761 3.85,-1.85 3.85,-1.85c0,0 3.45,1.87761 3.45,1.85c0,-0.02761 -1.63416,0.55 -3.65,0.55z" fill="#ffffff"/></g><g stroke="none" stroke-width="0" stroke-linecap="butt"><path d="M303.86617,114.48803c0,1.1598 -2.04412,22.36886 -26.3,20.9c-22.61592,-1.36955 -27.5,-19.7402 -27.5,-20.9c0,-0.68481 1.10157,-1.98863 7.02795,-5.39897c4.11057,-2.36543 7.38768,-7.70103 13.47205,-7.70103c0.93066,0 3.84328,0.12711 5.04402,0.71443c1.58992,0.77769 1.53431,2.06095 3.21527,1.96588c1.68328,-0.0952 1.30166,-1.39211 2.7871,-2.16667c1.09278,-0.56982 4.11362,-0.76518 5.03543,-0.45892c4.21398,1.40002 6.37662,5.38927 9.14845,7.58049c4.27579,3.38017 8.06973,4.96502 8.06973,5.46478z" fill="#000000"/><path d="M298.26617,112.78803c0,0.88366 -9.06476,-1 -20,-1c-5.63661,0 -11.04194,2.10047 -14.95682,2.46446c-3.68013,0.34216 -6.04318,-1.03629 -6.04318,-1.46446c0,-0.50864 -1.18696,-0.21367 2.09792,-2.58779c1.46573,-1.05934 2.85642,-3.18503 5.8602,-4.69836c1.95951,-0.98722 5.40969,-1.71384 7.24189,-1.71384c0.7505,0 2.8431,0.34381 3.81439,1.13772c1.12115,0.91641 1.14714,2.29957 2.38037,2.28254c1.18133,-0.01632 1.3693,-1.02378 2.47816,-1.80147c1.21206,-0.85007 3.32959,-1.46455 4.24057,-1.17135c3.0605,0.98502 5.31646,4.06096 7.1594,5.51382c2.74212,2.16172 5.72713,2.67234 5.72713,3.03874z" fill="#ffffff"/><path d="M300.46618,115.68803c0,0.27614 -0.25563,18.1 -22,17.3c-22.12941,-0.81417 -25.4,-17.82386 -25.4,-18.1c0,-0.16387 10.02734,0.23985 10.02734,0.23985c0,0 10.42839,9.66015 15.77265,9.66015c4.52444,0 13.35311,-8.55666 13.35311,-8.55666c0,0 8.24689,-0.72443 8.24689,-0.54334z" fill="#ffffff"/><path d="M285.66616,114.38803c0,0.44183 -3.22355,0.8 -7.2,0.8c-3.97645,0 -7.2,-0.35817 -7.2,-0.8c0,-0.44183 3.22355,-0.8 7.2,-0.8c3.97645,0 7.2,0.35817 7.2,0.8z" fill="#ffffff"/><path d="M283.79949,121.09636c0,0.3912 -2.22986,1.625 -5.08333,1.625c-2.85347,0 -5.25,-1.2338 -5.25,-1.625c0,-0.3912 2.39653,-1.125 5.25,-1.125c2.85347,0 5.08333,0.7338 5.08333,1.125z" fill="#ffffff"/></g><g stroke-width="0" stroke-linecap="butt"><path d="M421.75085,112.11145c0,0.64319 1.99345,21.40801 -8.65883,30.87679c-5.33283,4.74034 -22.31232,1.80396 -27.31143,1.80396c-14.98478,0 -18.29446,-31.71555 -18.29446,-32.68075c0,-0.5669 4.65914,-4.1882 9.64412,-8.09c2.36721,-1.85285 3.02823,-4.71643 6.60683,-5.58501c1.71602,-0.41651 3.57454,-0.65558 5.57867,-0.65558c0.66933,0 3.18362,0.01111 4.61723,1.07914c1.08402,0.80759 0.94461,2.74336 2.36772,2.75496c0.90452,0.00737 1.15348,-1.96984 2.09886,-2.313c2.82454,-1.02527 6.26132,-1.31685 7.23992,-1.08007c1.64305,0.39755 3.13014,0.90978 4.4742,1.50226c2.11648,0.93298 3.17124,3.46309 4.62876,4.65971c4.80208,3.94249 7.00841,7.18836 7.00841,7.7276z" fill="#000000" stroke="#000000"/><path d="M420.6903,113.3348c0,0.37874 1.25948,18.36211 -8.47455,27.13299c-5.14965,4.64011 -20.24966,2.22725 -25.19785,2.22725c-14.30144,0 -17.41066,-30.00447 -17.41066,-30.58359c0,-0.15142 7.05699,0.18755 7.05699,0.18755c0,0 2.05227,10.24812 7.18051,16.18389c3.68124,4.26091 9.71857,4.77493 14.13216,4.77493c3.04526,0 8.83959,-1.83096 11.25627,-5.78029c3.33913,-5.4568 2.80105,-13.5279 2.80105,-13.5279c0,0 8.65608,-0.90025 8.65608,-0.61483z" fill="#ffffff" stroke="none"/><path d="M406.90318,125.04394c0,0.4826 -3.9251,6.64101 -10.07521,6.64101c-6.15011,0 -12.1963,-6.15841 -12.1963,-6.64101c0,-0.4826 5.51592,3.3205 11.66603,3.3205c6.15011,0 10.60548,-3.8031 10.60548,-3.3205z" fill="#ffffff" stroke="none"/><path d="M408.31724,112.89789c0,0.62738 -5.5396,1.13596 -12.37306,1.13596c-6.83346,0 -12.37306,-0.50859 -12.37306,-1.13596c0,-0.62738 12.37306,-4.2817 12.37306,-4.2817c0,0 12.37306,3.65433 12.37306,4.2817z" fill="#ffffff" stroke="none"/><path d="M417.11734,111.24105c0,0 -5.06596,0.23849 -10.25092,-0.88638c-4.88328,-1.05942 -9.87213,-3.48612 -10.83386,-3.48612c-0.52961,0 -5.63351,2.16658 -9.37806,2.97631c-3.97395,0.85934 -6.61777,0.36704 -7.82376,0.4501c-4.88414,0.33639 -5.51159,-1.24187 -5.51159,-1.24187c0,0 3.71855,-1.256 7.03388,-3.56004c2.87745,-1.99973 5.27674,-5.09075 6.84163,-5.09075c0.33107,0 2.32387,-0.05046 3.81108,0.67029c1.94286,0.94156 3.64734,2.70531 5.98976,2.60796c1.98098,-0.08234 2.08383,-1.70739 3.6701,-2.61771c1.2199,-0.70006 3.9671,-0.83462 5.14178,-0.39393c3.29469,1.23602 4.53355,4.06703 6.31577,5.96323c2.63946,2.80825 4.99418,4.60891 4.99418,4.60891z" fill="#ffffff" stroke="none"/></g><g stroke="none" stroke-width="0" stroke-linecap="butt"><path d="M61.82383,152.46875c0,0.71189 -4.95086,17.78272 -15.1585,25.74201c-3.58732,2.79718 -8.80158,1.59519 -13.56489,1.26168c-2.7131,-0.18996 -5.2799,0.74631 -7.31646,0.74631c-15.78614,0 -21.12681,-26.64543 -21.12681,-27.75c0,-1.10457 6.76097,-8.66667 22.54711,-8.66667c1.47144,0 4.02248,-0.03535 4.92018,0.86691c0.76277,0.76665 -0.16173,2.48825 1.27889,2.53474c1.70873,0.05515 4.16824,-1.74684 6.5037,-2.44839c2.16676,-0.65088 4.22674,-0.2153 5.48132,0.07143c9.30607,2.12683 16.43549,6.92788 16.43549,7.64198z" fill="#000000"/><path d="M54.61549,151.13545c0,1.51879 -9.15202,0.5 -20.75,0.5c-11.59798,0 -21.25,-2 -21.25,-2c0,0 3.15202,-4 14.75,-4c2.20987,0 3.96985,2.99161 6.5055,3.06838c3.07977,0.09323 6.94743,-2.68793 9.61127,-2.17588c6.65351,1.27893 11.13323,3.7296 11.13323,4.60751z" fill="#ffffff"/><path d="M59.36549,154.88545c0,0.85911 -5.60477,15.39325 -15.70708,21.96829c-2.72922,1.7763 -6.66635,-0.12789 -10.34161,-0.32916c-2.39802,-0.13133 -4.68455,1.61087 -6.45131,1.61087c-14.49747,0 -20,-22.00736 -20,-23.25c0,-0.40487 4.32721,-3.86283 6.61819,-1.93665c2.61777,2.20093 3.32909,7.92824 7.10209,11.49673c3.05961,2.89378 8.90297,3.93992 13.27972,3.93992c4.54052,0 9.49064,-1.03472 12.53383,-4.21766c1.93436,-2.02319 2.20432,-6.10627 3.98538,-7.50793c4.36351,-3.43399 8.98079,-2.38048 8.98079,-1.77442z" fill="#ffffff"/><path d="M42.86549,163.51045c0,0.34518 -3.67119,3.125 -9.125,3.125c-5.45381,0 -10.625,-2.77982 -10.625,-3.125c0,-0.34518 4.42119,0.625 9.875,0.625c5.45381,0 9.875,-0.97018 9.875,-0.625z" fill="#ffffff"/><path d="M46.11549,154.26045c0,0.89747 -5.54048,1.625 -12.375,1.625c-6.83452,0 -12.375,-0.72753 -12.375,-1.625c0,-0.89747 5.54048,-1.625 12.375,-1.625c6.83452,0 12.375,0.72753 12.375,1.625z" fill="#ffffff"/></g><g stroke="none" stroke-width="0" stroke-linecap="butt"><path d="M186.82388,155.84867c0,0.90738 -4.95086,22.66582 -15.1585,32.81072c-3.58732,3.56528 -8.80158,2.03323 -13.5649,1.60814c-2.7131,-0.24212 -5.2799,0.95124 -7.31645,0.95124c-15.78614,0 -21.12681,-33.96222 -21.12681,-35.3701c0,-1.40788 6.76096,-11.04651 22.5471,-11.04651c1.47144,0 4.02248,-0.04506 4.92018,1.10496c0.76277,0.97717 -0.16173,3.17153 1.27889,3.23078c1.70873,0.07029 4.16825,-2.22652 6.5037,-3.12072c2.16676,-0.8296 4.22674,-0.27442 5.48132,0.09104c9.30606,2.71086 16.43549,8.83026 16.43549,9.74044z" fill="#000000"/><path d="M179.61554,154.14917c0,1.93584 -9.15202,0.6373 -20.75,0.6373c-11.59798,0 -21.25,-2.5492 -21.25,-2.5492c0,0 3.15202,-5.09839 14.75,-5.09839c2.20987,0 3.96984,3.81311 6.5055,3.91094c3.07978,0.11883 6.94744,-3.42603 9.61128,-2.77338c6.6535,1.63012 11.13323,4.75374 11.13323,5.87273z" fill="#ffffff"/><path d="M184.36554,158.9289c0,1.09502 -5.60477,19.62021 -15.70708,28.00074c-2.72922,2.26406 -6.66636,-0.16302 -10.34161,-0.41955c-2.39802,-0.16738 -4.68455,2.05322 -6.45131,2.05322c-14.49748,0 -20,-28.05054 -20,-29.63441c0,-0.51604 4.3272,-4.92355 6.61818,-2.46845c2.61777,2.80531 3.3291,10.10531 7.1021,14.65371c3.05961,3.6884 8.90297,5.02182 13.27972,5.02182c4.54052,0 9.49064,-1.31884 12.53383,-5.37581c1.93437,-2.57876 2.20432,-7.78305 3.98538,-9.5696c4.36351,-4.37696 8.98078,-3.03416 8.98078,-2.26166z" fill="#ffffff"/><path d="M167.86554,169.92234c0,0.43997 -3.67119,3.98312 -9.125,3.98312c-5.45381,0 -10.625,-3.54316 -10.625,-3.98312c0,-0.43997 4.42119,0.79663 9.875,0.79663c5.45381,0 9.875,-1.23659 9.875,-0.79663z" fill="#ffffff"/><path d="M171.11554,158.13231c0,1.1439 -5.54047,2.07122 -12.375,2.07122c-6.83453,0 -12.375,-0.92732 -12.375,-2.07122c0,-1.1439 5.54047,-2.07122 12.375,-2.07122c6.83453,0 12.375,0.92732 12.375,2.07122z" fill="#ffffff"/></g><g stroke="none" stroke-width="0" stroke-linecap="butt"><path d="M246.32388,157.39559c0,1.03444 -4.95086,25.83983 -15.1585,37.40538c-3.58732,4.06455 -8.80158,2.31796 -13.5649,1.83334c-2.7131,-0.27603 -5.2799,1.08445 -7.31645,1.08445c-15.78614,0 -21.12681,-38.71813 -21.12681,-40.32317c0,-1.60504 6.76096,-12.59341 22.5471,-12.59341c1.47144,0 4.02248,-0.05138 4.92018,1.25969c0.76277,1.114 -0.16173,3.61565 1.27889,3.68321c1.70873,0.08014 4.16825,-2.53831 6.5037,-3.55773c2.16676,-0.94577 4.22674,-0.31285 5.48132,0.10379c9.30606,3.09047 16.43549,10.0668 16.43549,11.10445z" fill="#000000"/><path d="M239.11554,155.4581c0,2.20693 -9.15202,0.72654 -20.75,0.72654c-11.59798,0 -21.25,-2.90617 -21.25,-2.90617c0,0 3.15202,-5.81234 14.75,-5.81234c2.20987,0 3.96984,4.34708 6.5055,4.45862c3.07978,0.13548 6.94744,-3.90579 9.61128,-3.16175c6.6535,1.8584 11.13323,5.41943 11.13323,6.69511z" fill="#ffffff"/><path d="M243.86554,160.90721c0,1.24836 -5.60477,22.36773 -15.70708,31.92183c-2.72922,2.58111 -6.66636,-0.18585 -10.34161,-0.47831c-2.39802,-0.19082 -4.68455,2.34074 -6.45131,2.34074c-14.49748,0 -20,-31.97861 -20,-33.78427c0,-0.58831 4.3272,-5.61302 6.61818,-2.81412c2.61777,3.19816 3.3291,11.52042 7.1021,16.70575c3.05961,4.2049 8.90297,5.72504 13.27972,5.72504c4.54052,0 9.49064,-1.50353 12.53383,-6.12862c1.93437,-2.93987 2.20432,-8.87295 3.98538,-10.90968c4.36351,-4.98988 8.98078,-3.45905 8.98078,-2.57838z" fill="#ffffff"/><path d="M227.36554,173.44008c0,0.50158 -3.67119,4.5409 -9.125,4.5409c-5.45381,0 -10.625,-4.03932 -10.625,-4.5409c0,-0.50158 4.42119,0.90818 9.875,0.90818c5.45381,0 9.875,-1.40975 9.875,-0.90818z" fill="#ffffff"/><path d="M230.61554,159.99902c0,1.30409 -5.54047,2.36127 -12.375,2.36127c-6.83453,0 -12.375,-1.05718 -12.375,-2.36127c0,-1.30409 5.54047,-2.36127 12.375,-2.36127c6.83453,0 12.375,1.05718 12.375,2.36127z" fill="#ffffff"/></g><g stroke="none" stroke-width="0" stroke-linecap="butt"><path d="M440.18351,220.33423c-2.71804,0.88319 -0.24781,4.1751 -3.27696,7.44134c-3.31602,3.57555 -12.23051,7.21952 -17.64559,10.05016c-6.35569,3.32233 -20.08054,3.12011 -21.70995,3.12011c-2.16974,0 -9.99533,-4.12228 -13.30051,-9.28762c-1.23028,-1.92268 -3.0168,-5.94184 -3.04829,-9.21143c-0.03796,-3.94121 1.90791,-7.13303 3.00706,-8.71779c1.80099,-2.59669 5.34174,-4.88924 5.34174,-5.78316c0,-5.93706 4.70101,-10.75 10.5,-10.75c2.9664,0 14.32974,5.72899 23.0135,8.45703c3.44844,1.08334 10.55029,1.62251 13.93241,4.29505c4.75046,3.75381 5.08099,9.77076 3.18659,10.38632z" fill="#000000"/><path d="M392.55101,215.82084c0,0.67526 0.86772,7.64491 9.75521,8.57524c8.38391,0.87761 23.00962,-2.48535 31.07065,-3.69459c5.2345,-0.78523 6.25506,0.49436 5.92415,0.49436c-0.39615,0 -8.45203,9.2613 -19.56644,13.93638c-7.16564,3.0141 -17.20952,2.36888 -21.92472,1.96134c-8.62609,-0.74556 -12.6595,-8.89655 -12.82773,-14.89579c-0.0943,-3.36282 1.31889,-6.04955 1.31889,-6.37693c0,-1.72589 3.75,-3.125 3.75,-3.125c0,0 2.5,1.39911 2.5,3.125z" fill="#ffffff"/><path d="M435.79905,211.19399c-0.59121,0.61797 4.41668,5.7035 1.24492,5.84815c-5.48771,0.25027 -18.55383,-8.58339 -27.53574,-10.09172c-10.47201,-1.75857 -16.56006,3.74542 -16.58225,3.74542c-0.06904,0 -0.125,-2.23858 -0.125,-5c0,-2.76142 3.80596,-5 3.875,-5c0.01811,0 2.78205,-1.34244 6.8334,-0.35528c3.62878,0.88419 13.04041,5.7358 17.68692,7.18981c9.93832,3.10996 15.05741,3.18838 14.60275,3.66362z" fill="#ffffff"/><path d="M399.57647,214.43281v-4.5h1c0,0 1.86442,-1.73303 4.27907,-1.08648c5.27785,1.4132 26.22093,9.25314 26.22093,9.25314z" fill="#ffffff"/><path d="M398.57647,220.09946l0.33333,-3.16667l24.33333,2.83333v-0.16667c0,0 -14.10492,3.12857 -18.50495,2.97684c-3.38798,-0.11683 -6.16172,-2.47684 -6.16172,-2.47684z" fill="#ffffff"/></g><g stroke="none" stroke-width="0" stroke-linecap="butt"><path d="M56.27714,251.07429c-2.48194,0.80647 -0.22628,3.81243 -2.99231,6.79495c-3.02798,3.26496 -11.1681,6.5924 -16.1128,9.17715c-5.80361,3.03373 -18.33625,2.84909 -19.82412,2.84909c-1.98127,0 -6.84425,-3.07935 -9.86232,-7.796c-1.12341,-1.75567 -2.75475,-4.74086 -2.7835,-7.72643c-0.03467,-3.59885 1.28562,-7.65483 2.28929,-9.10193c1.64454,-2.37113 3.9646,-2.63826 3.9646,-3.45454c0,-5.42133 3.37952,-11.87075 8.67478,-11.87075c1.45869,0 9.27975,2.22248 13.42274,5.29488c3.55036,2.63291 3.24752,6.0719 6.90684,7.22149c1.46716,0.46092 1.98095,-1.36818 4.37436,-1.98735c2.74345,-0.70971 7.38328,-0.18799 9.03267,1.11535c4.33781,3.42773 4.63963,8.92202 2.90978,9.48411z" fill="#000000"/><path d="M12.78224,246.95296c0,0.6166 0.79235,6.98084 8.90783,7.83035c7.65564,0.80138 21.01088,-2.26946 28.37169,-3.37366c4.77981,-0.71702 5.71171,0.45141 5.40955,0.45141c-0.36174,0 -4.29359,4.576 -14.44254,8.84498c-6.5432,2.75228 -13.88835,5.35908 -18.19396,4.98694c-7.87678,-0.68079 -13.61439,-6.75405 -13.768,-12.23217c-0.08611,-3.07071 -0.62194,-1.64324 -0.62194,-1.94218c0,-1.57597 2.05455,-7.41922 2.05455,-7.41922c0,0 2.28284,1.27757 2.28284,2.85354z" fill="#ffffff"/><path d="M52.27356,242.72803c-0.53985,0.56429 4.03303,5.20807 1.13678,5.34015c-5.01102,0.22853 -16.94215,-7.83779 -25.14384,-9.2151c-9.56236,-1.60581 -15.12158,3.42007 -15.14184,3.42007c-0.06304,0 -0.11414,-2.04413 -0.11414,-4.56568c0,-2.52155 3.47535,-4.56567 3.5384,-4.56567c0.01653,0 2.54039,-1.22582 6.23982,-0.32441c1.62528,0.39602 6.34724,2.48744 9.37674,4.67249c3.14695,2.26976 4.61202,4.64055 6.7738,5.31703c3.26804,1.02265 4.13914,-0.584 6.23365,-0.70142c3.72173,-0.20864 7.36629,0.34487 7.10063,0.62255z" fill="#ffffff"/><path d="M19.19743,245.68551v-4.10911h0.91314c0,0 1.70247,-1.58248 3.90737,-0.9921c4.81939,1.29044 23.94325,8.44937 23.94325,8.44937z" fill="#ffffff"/><path d="M18.2843,250.85993l0.30437,-2.8916l22.21961,2.58721v-0.1522c0,0 -12.8797,2.85681 -16.89751,2.71826c-3.09368,-0.10668 -5.62648,-2.26169 -5.62648,-2.26169z" fill="#ffffff"/></g><g stroke="none" stroke-linecap="butt"><path d="M415.9059,159.9427c0,0.80433 1.78363,17.89087 -7.95785,25.3371c-4.08623,3.12344 -11.21128,2.55976 -17.69679,2.38458c-4.59404,-0.12409 -8.86718,-0.72167 -11.51202,-0.72167c-5.28886,0 -5.53996,-2.08935 -7.96622,-6.18667c-4.58338,-7.7401 -8.36711,-20.07719 -8.36711,-20.98c0,-1.38071 6.72012,-9.16667 22,-9.16667c1.23183,0 4.86729,3.0506 6.81838,3.14437c3.2998,0.15859 5.19235,-2.55935 7.30611,-2.18978c12.13943,2.12243 17.3755,7.29759 17.3755,8.37874z" fill="#000000" stroke-width="NaN"/><path d="M414.73924,162.35939c0,0.70944 -1.34196,13.90019 -8.05287,19.8571c-5.9146,5.25007 -16.81814,3.3929 -23.1138,3.3929c-13.43893,0 -17.5,-21.91531 -17.5,-23.25c0,-0.63195 -2.12943,-4.76681 2.14439,-1.2235c0.90181,0.74767 2.38087,-0.22528 3.69384,0.94822c2.82105,2.5214 2.99639,8.05859 6.51684,11.11652c3.47589,3.01923 10.2966,2.74209 13.14494,2.74209c3.45594,0 9.69175,0.32519 11.97269,-1.56714c3.61016,-2.99509 2.58088,-8.20348 4.96399,-10.82378c1.96625,-2.16195 6.22998,-1.64063 6.22998,-1.19241z" fill="#ffffff" stroke-width="0"/><path d="M403.23924,170.60939c0,0.36819 -4.37504,3.66667 -11.41667,3.66667c-7.04163,0 -14.08333,-3.29848 -14.08333,-3.66667c0,-0.36819 5.87504,1.5 12.91667,1.5c7.04163,0 12.58333,-1.86819 12.58333,-1.5z" fill="#ffffff" stroke-width="0"/><path d="M403.73924,162.11585c0,0.41775 -4.37504,4.1602 -11.41667,4.1602c-7.04163,0 -14.08333,-3.74245 -14.08333,-4.1602c0,-0.41775 5.87504,1.7019 12.91667,1.7019c7.04163,0 12.58333,-2.11965 12.58333,-1.7019z" fill="#ffffff" stroke-width="0"/><path d="M410.57256,158.9427c0,0.32196 1.13808,1.18481 1.13808,1.18481c0,0 -12.9899,0.98186 -20.47141,0.98186c-11.50593,0 -22.33333,-2.24619 -22.33333,-3.16667c0,-0.5359 8.79167,-3.58885 11.86296,-4.93225c2.20411,-0.96409 -2.33691,-0.40108 2.47037,-0.40108c1.55948,0 5.02064,2.37284 7.82792,2.478c3.81307,0.14284 7.1239,-1.92649 9.37172,-1.47576c2.97435,0.59641 -0.21544,-0.2978 1.31094,0.47693c2.73673,1.38907 8.82276,4.45213 8.82276,4.85416z" fill="#ffffff" stroke-width="0"/></g><g data-paper-data="{&quot;index&quot;:null}" stroke="none" stroke-linecap="butt"><path d="M61.73919,195.23761c0,0.88719 -0.21637,21.06735 -9.95785,29.2807c-4.08623,3.44522 -11.54461,5.49013 -18.03012,5.2969c-4.59404,-0.13688 -10.86718,-1.46268 -13.51202,-1.46268c-5.28886,0 -6.20662,-2.97128 -8.63289,-7.4907c-4.58338,-8.53751 -3.36712,-24.81224 -3.36712,-25.80805c0,-1.52295 6.72012,-10.11104 22,-10.11104c1.23183,0 4.86729,3.36488 6.81838,3.46831c3.2998,0.17493 5.19235,-2.82301 7.30612,-2.41537c12.13943,2.34108 17.3755,8.0494 17.3755,9.24193z" fill="#000000" stroke-width="NaN"/><path d="M60.57253,197.90327c0,0.52621 -0.74897,10.26933 -4.3721,17.72001c-1.76476,3.6291 -5.48267,5.69731 -7.68078,7.84946c-5.9146,5.79093 -20.81814,1.74244 -27.11379,1.74244c-13.43893,0 -9.5,-25.83973 -9.5,-27.31192c0,-0.69706 -2.12943,-5.25789 2.14439,-1.34955c0.90181,0.82469 2.38087,-0.24849 3.69383,1.04591c2.82105,2.78116 0.99639,11.22214 4.51684,14.59509c3.47589,3.33027 8.96327,5.69125 11.81161,5.69125c3.45594,0 9.35842,-1.30798 11.63936,-3.39526c3.61016,-3.30365 6.24754,-12.38196 8.63066,-15.27219c1.96625,-2.38467 6.22998,-1.80965 6.22998,-1.31526z" fill="#ffffff" stroke-width="0"/><path d="M47.73919,210.66984c0,0.40612 -4.37504,4.04442 -11.41667,4.04442c-7.04163,0 -14.08333,-3.6383 -14.08333,-4.04442c0,-0.40612 5.87504,1.65454 12.91667,1.65454c7.04163,0 12.58333,-2.06065 12.58333,-1.65454z" fill="#ffffff" stroke-width="0"/><path d="M49.57253,197.63465c0,0.46078 -4.37504,4.58879 -11.41667,4.58879c-7.04163,0 -14.08333,-4.12801 -14.08333,-4.58879c0,-0.46078 5.87504,1.87723 12.91667,1.87723c7.04163,0 12.58333,-2.33801 12.58333,-1.87723z" fill="#ffffff" stroke-width="0"/><path d="M56.40586,194.13456c0,0.35512 1.13808,1.30688 1.13808,1.30688c0,0 -12.98991,1.083 -20.47142,1.083c-11.50593,0 -22.33333,-2.47759 -22.33333,-3.4929c0,-0.5911 8.79167,-3.95858 11.86297,-5.44038c2.20411,-1.06341 -2.33691,-0.44241 2.47037,-0.44241c1.55948,0 5.02064,2.61729 7.82792,2.73329c3.81307,0.15756 7.1239,-2.12496 9.37172,-1.6278c2.97435,0.65785 -0.21544,-0.32848 1.31094,0.52607c2.73673,1.53218 8.82276,4.91079 8.82276,5.35424z" fill="#ffffff" stroke-width="0"/></g><g stroke="none" stroke-width="0" stroke-linecap="butt"><path d="M115.79795,214.1813c0,0.99411 -5.50923,20.4 -29.4,18.6c-14.64925,-1.10372 -23.8,-17.60589 -23.8,-18.6c0,-0.6285 -0.4211,-1.76013 5.97385,-5.84097c1.18669,-0.75727 6.08258,-4.64545 6.92008,-5.78414c0.70738,-0.96179 3.31579,-1.81691 4.60629,-2.15536c1.97121,-0.51697 4.47614,-0.41953 6.69978,-0.41953c0.77003,0 2.85629,2.32091 4.01579,2.2467c1.8938,-0.12121 2.98299,-2.62941 4.20895,-2.35877c1.91092,0.42185 3.92808,0.03556 5.63472,0.7748c1.16441,0.50436 3.46547,1.31765 4.24947,2.2452c1.3864,1.64025 3.60672,4.43781 5.0699,5.7163c4.33026,3.78368 5.82117,5.10209 5.82117,5.57577z" fill="#000000"/><path d="M109.59795,213.58127c0,0 -8.72687,-0.0732 -12.22291,-0.66457c-3.1725,-0.53664 -7.87709,-2.73543 -7.87709,-2.73543c0,0 -2.64449,1.56478 -4.89586,1.83453c-3.96238,0.47475 -16.80414,0.76547 -16.80414,0.76547c0,0 3.92026,-2.26125 7.20405,-4.89651c3.78346,-3.03625 5.91498,-5.10349 7.89595,-5.10349c0.63049,0 4.04437,-1.27019 5.15096,-0.49909c1.20317,0.83839 1.31595,2.32558 2.36472,2.37659c0.98984,0.04814 1.71259,-1.71076 2.53177,-1.93232c0.70356,-0.19029 2.40595,0.05966 3.85211,0.25805c1.27773,0.17529 3.33806,2.06886 5.77767,4.22257c3.43189,3.02971 7.02277,6.37421 7.02277,6.37421z" fill="#ffffff"/><path d="M113.59795,216.6813c0,0.93888 -10.16608,14.3 -23.2,14.3c-6.5388,0 -12.95717,-3.51506 -17.33161,-7.33621c-4.34521,-3.79562 -6.66839,-7.89592 -6.66839,-8.36379c0,-0.93888 13.4,0.9 13.4,0.9c0,0 8.1968,5.05486 11.18131,5.1958c3.42188,0.16159 8.21784,-4.27969 8.21784,-4.27969c0,0 14.40085,-0.79749 14.40085,-0.4161z" fill="#ffffff"/></g><g stroke="none" stroke-linecap="butt"><path d="M302.81727,159.7671c0,0.7728 -4.86424,15.83916 -15.82535,22.0159c-2.50122,1.40947 -6.79699,-0.30669 -10.68898,-0.73297c-3.05185,-0.33426 -5.79125,0.71802 -7.65233,0.71802c-14.63555,0 -18.83334,-20.91352 -18.83334,-22.00094c0,-1.08742 6.03112,-8.8175 20.66666,-8.8175c1.77645,0 4.17211,3.0231 7.00155,3.03496c3.47147,0.01455 7.4275,-2.94648 9.6277,-2.48054c10.78073,2.28307 15.70409,7.46958 15.70409,8.26307z" fill="#000000" stroke-width="NaN"/><path d="M299.98393,162.86628c0,0.90275 -5.72821,11.8376 -14.4654,16.44736c-3.0472,1.60771 -5.90826,0.77723 -9.51202,0.29918c-1.34024,-0.17779 -3.78851,-0.16321 -4.93923,-0.16321c-13.11676,0 -18.08334,-17.24865 -18.08334,-18.58334c0,-0.69807 3.52982,0.36443 8.1378,2.96775c4.20232,2.37414 9.18912,6.28225 15.44554,6.28225c7.58729,0 13.06541,-3.8724 17.31939,-6.03584c3.10021,-1.57667 6.09727,-1.77681 6.09727,-1.21416z" fill="#ffffff" stroke-width="0"/><path d="M298.15058,159.61628c0,1.19662 -8.25279,0.33334 -19.66667,0.33334c-11.41388,0 -23.33333,-0.80338 -23.33333,-2c0,-1.19662 3.25278,-4.66667 14.66667,-4.66667c1.63029,0 4.57849,3.12964 7.00127,3.14615c3.45009,0.02352 6.51994,-3.01108 9.07016,-2.5089c8.19698,1.61408 12.26191,4.91378 12.26191,5.69609z" fill="#ffffff" stroke-width="0"/><path d="M292.65058,162.53293c0,0.9665 -7.3873,1.75 -16.5,1.75c-9.1127,0 -14.83333,-1.95017 -14.83333,-2.91667c0,-0.9665 6.22063,0.58334 15.33333,0.58334c9.1127,0 16,-0.38317 16,0.58333z" fill="#ffffff" stroke-width="0"/><path d="M288.65058,165.28293c0,0.09205 -3.83282,3.16667 -10,3.16667c-6.16718,0 -12.33333,-3.07462 -12.33333,-3.16667c0,-0.09205 5.33282,0.83333 11.5,0.83333c6.16718,0 10.83333,-0.92538 10.83333,-0.83333z" fill="#ffffff" stroke-width="0"/></g><g stroke="none" stroke-width="0" stroke-linecap="butt"><path d="M167.50971,280.91559c-5.30735,2.9059 -23.3252,1.68249 -28.54568,1.68249c-15.19801,0 -18.67831,-16.06709 -18.67831,-16.53958c0,-0.47248 0.3435,-10.26595 15.54151,-10.26595c2.47251,0 5.38313,1.90539 8.40953,1.89266c4.42758,-0.01861 9.1029,-1.8663 13.01655,-1.02212c9.85457,2.12563 16.64346,6.54577 16.64346,6.82893c0,0.31019 3.75652,11.86972 -6.38706,17.42357z" fill="#06040a"/><path d="M173.32649,265.20301c0,0.94496 0.70772,15.68409 -13.54535,15.68409c-5.72622,0 -18.74538,-0.16714 -25.44932,-2.7555c-9.98276,-3.85429 -12.9054,-10.64728 -12.9054,-10.64728c0,0 11.22554,-1.34535 18.52802,-0.98441c7.11824,0.35185 10.22474,2.41024 17.26022,2.41024c5.22231,0 6.63076,-5.64695 6.63076,-5.64695c0,0 9.48107,1.34107 9.48107,1.93981z" fill="#ffffff"/><path d="M166.19732,261.49586c0,0.78746 -9.51162,1.99616 -21.24482,1.99616c-11.73319,0 -21.2448,0.50229 -21.2448,-0.28517c0,-0.78746 2.38247,-4.84782 14.11566,-4.84782c1.51894,0 4.18536,1.93067 6.11429,1.85482c4.43338,-0.17435 8.6348,-2.39973 12.20391,-2.01494c6.8734,0.74101 10.05575,2.84571 10.05575,3.29693z" fill="#ffffff"/></g><g stroke="#000000" stroke-width="0" stroke-linecap="round"><g fill="#000000"><path d="M197.36811,282.66309c-3.82884,-1.21605 -7.25469,-4.71386 -8.86204,-5.82787c-5.70511,-3.95405 -6.5272,-14.00523 -6.5272,-14.00523c0,0 12.96528,-3.93978 17.85575,-4.51512c3.74755,-0.44088 12.1391,1.98923 12.1391,1.98923c0,0 7.20332,-2.89246 11.47516,-1.9262c4.55106,1.02941 13.46796,9.18812 13.46796,9.18812c0,0 -3.28031,10.52488 -5.97634,12.55613c-2.79653,2.10697 -13.19801,4.20056 -22.12043,4.27917c-4.64574,0.04092 -8.89049,-0.92471 -11.45193,-1.73823z"/><path d="M234.63288,265.17373c-1.05253,0.51187 -9.70647,2.10991 -11.77828,2.91789c-3.32055,1.29496 -4.54836,3.0595 -5.49639,3.46022c-2.32508,0.98277 -4.69466,1.39665 -4.69466,1.39665c0,0 -2.50352,0.28936 -4.53099,-1.1213c-0.62307,-0.43351 -2.0534,-3.02141 -6.48576,-4.50768c-6.68264,-2.24081 -19.72564,-4.34703 -19.72564,-4.34703c0,0 21.92796,2.56845 30.33407,2.71337c0,0 22.9245,-0.77806 22.37765,-0.51212z"/></g><g><path d="M198.71135,281.05009c-3.34382,-1.062 -6.33569,-4.11672 -7.73942,-5.08961c-4.9824,-3.45316 -5.70034,-12.23109 -5.70034,-12.23109c0,0 11.32287,-3.44069 15.59382,-3.94316c3.27283,-0.38503 10.60134,1.73724 10.60134,1.73724c0,0 6.29082,-2.52605 10.02151,-1.6822c3.97454,0.899 11.76187,8.02419 11.76187,8.02419c0,0 -2.86478,9.19162 -5.21927,10.96555c-2.44227,1.84006 -11.52612,3.66844 -19.31827,3.73709c-4.05723,0.03574 -7.76427,-0.80757 -10.00122,-1.51804z" fill="#ffffff"/><path d="M231.2555,265.77625c-0.9192,0.44702 -8.47687,1.84264 -10.28624,2.54826c-2.89991,1.13092 -3.97219,2.67193 -4.80012,3.02189c-2.03054,0.85827 -4.09995,1.21972 -4.09995,1.21972c0,0 -2.18638,0.25271 -3.95702,-0.97926c-0.54414,-0.3786 -1.79328,-2.63867 -5.66417,-3.93666c-5.8361,-1.95696 -17.22684,-3.79636 -17.22684,-3.79636c0,0 19.15017,2.24308 26.49143,2.36965c0,0 20.02047,-0.6795 19.54291,-0.44724z" fill="#000000"/></g></g><g stroke="none" stroke-width="0" stroke-linecap="butt"><path d="M299.05445,263.62095c0,1.57862 -12.33585,12.47291 -28.19398,12.47291c-15.85813,0 -29.23341,-10.89428 -29.23341,-12.47291c0,-1.57862 7.13881,-11.17365 22.99693,-11.17365c1.94553,0 7.14573,8.24451 7.14573,8.24451c0,0 1.61942,-4.04874 4.65679,-6.2599c1.76173,-1.28252 5.03504,-1.42956 6.05399,-1.15583c10.8783,2.92229 16.57395,9.24148 16.57395,10.34489z" fill="#000000"/><path d="M293.33768,262.71146c0,0 -4.93898,-0.47386 -12.60552,0.42981c-2.45158,0.28897 -4.71552,2.81834 -7.79289,2.81834c-4.86765,0 -4.08518,-2.34157 -8.32005,-3.3067c-6.81488,-1.55315 -17.53525,-2.02028 -17.53525,-2.02028c0,0 -0.09803,-5.06711 12.60282,-5.06711c1.22276,0 3.60174,0.36762 5.39984,1.43652c2.75169,1.63578 5.18911,4.21652 8.23354,4.17339c2.15177,-0.03048 2.91266,-2.21374 4.82542,-3.41581c2.43958,-1.53316 5.93868,-2.12161 7.78295,-1.65491c7.21316,1.82531 7.40913,6.60674 7.40913,6.60674z" fill="#ffffff"/><path d="M296.71578,265.05012c0,0.93283 -10.85061,10.26416 -24.55606,10.26416c-13.70544,0 -25.3356,-11.92985 -25.3356,-12.86268c0,-0.48459 10.29467,-0.53784 15.36689,0.77153c4.69194,1.2112 3.90258,3.77589 10.48843,3.77589c3.94548,0 6.31204,-2.31764 9.53225,-2.63551c7.96583,-0.78635 14.50409,0.02233 14.50409,0.68662z" fill="#ffffff"/></g><g stroke="none" stroke-width="0" stroke-linecap="butt"><path d="M363.3448,251.90656c0,2.54801 -5.62471,31.20944 -30.93805,31.48083c-22.05544,0.23646 -30.39528,-28.66144 -30.39528,-31.20944c0,-2.54801 6.43887,-8.68436 24.42478,-8.68436c1.2332,0 3.98034,3.46108 5.43458,3.38098c3.44144,-0.18956 3.71343,-3.16672 6.63971,-2.79115c13.87198,1.78041 24.83426,5.86327 24.83426,7.82314z" fill="#000000"/><path d="M360.08817,253.39919c0,2.47307 -1.66044,27.72137 -27.41002,27.27434c-23.84883,-0.41403 -27.41003,-26.97236 -27.41003,-29.44542c0,-1.28318 3.6615,-0.81223 9.34135,3.85522c5.26687,4.32808 12.26925,14.46336 19.697,14.46336c7.52009,0 12.20311,-8.64557 16.6989,-12.49558c4.73357,-4.05364 9.0828,-4.9203 9.0828,-3.65191z" fill="#ffffff"/><path d="M357.23861,250.41397c0,0 -11.20026,4.12508 -24.61475,4.12508c-13.41449,0 -25.18466,-4.93923 -25.18466,-4.93923c0,0 4.36132,-4.20649 17.77581,-4.20649c1.5805,0 4.42708,3.03904 7.14245,3.14425c3.42784,0.13282 6.80767,-2.63765 8.96321,-2.34567c10.62946,1.43983 15.91795,4.22207 15.91795,4.22207z" fill="#ffffff"/><path d="M344.14422,256.47942c0,0.82435 -5.54061,3.25664 -11.87315,3.25664c-6.33254,0 -11.60177,-2.97505 -11.60177,-3.79941c0,-0.82435 5.26923,0.67846 11.60177,0.67846c6.33254,0 11.87315,-0.96005 11.87315,-0.1357z" fill="#ffffff"/><path d="M342.5159,263.87469c0,0.78688 -3.88812,3.73156 -8.68437,3.73156c-4.79624,0 -8.68437,-2.94468 -8.68437,-3.73156c0,-0.78688 3.88812,-0.06784 8.68437,-0.06784c4.79624,0 8.68437,-0.71903 8.68437,0.06784z" fill="#ffffff"/></g><g stroke="none" stroke-width="0" stroke-linecap="butt"><path d="M427.0567,255.67247c0,2.3497 1.58112,36.21721 -28.15059,35.45415c-36.84094,1.7018 -31.5542,-35.51533 -31.5542,-37.86503c0,-1.05187 6.00955,-11.91696 19.85466,-11.98207c2.31156,-0.01087 5.35903,2.60304 9.07867,2.38565c2.78782,-0.16294 6.32615,-3.28368 8.16989,-2.79232c13.87596,3.69798 22.60156,13.95313 22.60156,14.79962z" fill="#000000"/><path d="M423.93673,256.66517c0,0.86155 1.26226,32.06058 -26.23607,31.34146c-31.22617,-0.8166 -29.9233,-30.47991 -29.9233,-31.34146c0,-0.44265 1.08116,-4.05704 6.99391,1.08315c3.11945,2.71186 4.55578,11.12389 9.28382,15.40204c3.75305,3.39593 10.73429,3.0855 14.07103,3.0855c3.98121,0 10.4071,-2.30922 13.57564,-6.27093c2.24473,-2.80664 1.44184,-7.14905 3.25353,-8.94889c5.59244,-5.55587 8.98144,-4.83456 8.98144,-4.35087z" fill="#ffffff"/><path d="M411.59869,266.3087c0,0.62659 -6.12921,9.07626 -14.03984,9.07626c-7.91063,0 -14.60711,-8.44968 -14.60711,-9.07626c0,-0.62659 6.41284,4.82177 14.32347,4.82177c7.91063,0 14.32347,-5.44835 14.32347,-4.82177z" fill="#ffffff"/><path d="M407.34419,254.18339c0,0.82239 -4.95249,1.48907 -11.06169,1.48907c-6.1092,0 -11.06169,-0.66668 -11.06169,-1.48907c0,-0.82239 4.95249,-1.48907 11.06169,-1.48907c6.1092,0 11.06169,0.66668 11.06169,1.48907z" fill="#ffffff"/><path d="M420.81677,254.2543c0,0.7702 -13.21277,-2.80899 -25.95246,-2.80791c-12.64513,0.00108 -24.81788,3.58822 -24.81788,2.80791c0,-1.56646 5.97629,-11.62896 19.99614,-11.62896c1.15755,0 4.98299,3.16141 6.68763,3.05669c3.70512,-0.2276 5.84162,-3.73745 8.37466,-3.01978c10.4164,2.95122 15.71192,10.43604 15.71192,11.59205z" fill="#ffffff"/></g></g></g></svg>