<svg version="1.1" xmlns="http://www.w3.org/2000/svg" xmlns:xlink="http://www.w3.org/1999/xlink" width="38.19044" height="38.19044" viewBox="0,0,38.19044,38.19044"><g transform="translate(-220.90478,-160.90478)"><g data-paper-data="{&quot;isPaintingLayer&quot;:true}" stroke="none" stroke-linecap="round" stroke-linejoin="round" stroke-dasharray="" stroke-dashoffset="0" style="mix-blend-mode: normal"><path d="M259.09522,180c0,10.54601 -8.54924,19.09522 -19.09522,19.09522c-10.54601,0 -19.09522,-8.54922 -19.09522,-19.09522c0,-10.54601 8.54922,-19.09522 19.09522,-19.09522c10.54601,0 19.09522,8.54922 19.09522,19.09522" fill="#9a9a9a" fill-rule="evenodd" stroke-width="0.07853" stroke-miterlimit="10"/><path d="M240.00371,168.76923c1.01443,0.00164 1.83553,0.82522 1.83413,1.83966v1.50935c0.87378,0.20384 1.68269,0.56557 2.42274,1.02779l1.08497,-1.085c0.35918,-0.3601 0.85157,-0.55518 1.35991,-0.53879c0.46485,0.01684 0.90599,0.20939 1.23442,0.53879c0.34508,0.3446 0.53899,0.81226 0.53899,1.29994c0,0.48768 -0.19391,0.95533 -0.53899,1.29994l-1.0813,1.0813c0.46114,0.73939 0.81992,1.54869 1.0241,2.42087h1.5149c1.01442,0.00167 1.83549,0.82524 1.83408,1.83966c-0.00164,1.01226 -0.82182,1.83245 -1.83408,1.83413h-1.52969c-0.20617,0.87251 -0.53708,1.69724 -1.00007,2.43753l1.07204,1.072c0.3451,0.3446 0.539,0.81227 0.539,1.29995c0,0.48768 -0.19391,0.95534 -0.539,1.29995c-0.71701,0.71495 -1.87732,0.71495 -2.59434,0l-1.07207,-1.07203c-0.74132,0.4627 -1.56095,0.81055 -2.43564,1.01483v1.50749c-0.00162,1.0123 -0.82183,1.83253 -1.83413,1.83417c-0.48748,0.00117 -0.95545,-0.19146 -1.30083,-0.53549c-0.3454,-0.34402 -0.53989,-0.8112 -0.54066,-1.29868v-1.52228c-0.86269,-0.21432 -1.65018,-0.59076 -2.36554,-1.07018l-1.14216,1.14216c-0.71701,0.71495 -1.87732,0.71495 -2.59434,0c-0.3451,-0.3446 -0.539,-0.81227 -0.539,-1.29995c0,-0.48768 0.19391,-0.95534 0.539,-1.29995l1.23628,-1.23626c-0.40027,-0.70142 -0.71283,-1.46246 -0.90416,-2.27327h-1.78981c-1.01228,-0.00163 -1.8325,-0.82184 -1.83414,-1.83413c-0.00142,-1.01445 0.8197,-1.83804 1.83414,-1.83966h1.79722c0.19474,-0.80548 0.49567,-1.5692 0.89493,-2.2677l-1.23446,-1.23446c-0.34508,-0.3446 -0.53899,-0.81226 -0.53899,-1.29994c0,-0.48768 0.19391,-0.95533 0.53899,-1.29994c0.35918,-0.3601 0.85157,-0.55518 1.35991,-0.53879c0.46485,0.01684 0.90599,0.20939 1.23442,0.53879l1.1311,1.13112c0.71613,-0.47941 1.51355,-0.84479 2.37661,-1.05911v-1.52415c-0.00069,-0.48844 0.19317,-0.95704 0.53873,-1.30224c0.34555,-0.3452 0.81434,-0.53859 1.30278,-0.53742zM240.00137,173.89887c-1.61789,0.00111 -3.16906,0.64494 -4.31223,1.78981c-1.14307,1.1433 -1.78552,2.69364 -1.78615,4.31034c-0.00024,3.36844 2.72993,6.09946 6.09839,6.10025c1.61736,-0.00014 3.16846,-0.64262 4.31223,-1.78615c1.14465,-1.14393 1.78782,-2.69583 1.78794,-4.31409c0.00009,-1.61789 -0.64258,-3.16954 -1.78661,-4.31357c-1.14403,-1.14401 -2.69568,-1.78668 -4.31358,-1.78659zM240.04378,177.34383c1.45085,0.02318 2.6148,1.20602 2.61462,2.65707c-0.00024,0.70461 -0.28034,1.38027 -0.77869,1.87838c-0.49811,0.49836 -1.17377,0.77846 -1.87838,0.77871c-0.7047,0.00001 -1.38055,-0.27994 -1.87885,-0.77824c-0.49831,-0.49831 -0.77825,-1.17414 -0.77824,-1.87885c0.00023,-0.70461 0.28033,-1.38029 0.77869,-1.87841c0.49812,-0.49835 1.17379,-0.77843 1.87841,-0.77866c0.01413,-0.00011 0.02827,-0.00011 0.0424,0z" fill="#ffffff" fill-rule="nonzero" stroke-width="0.87989" stroke-miterlimit="4"/></g></g></svg>