<svg version="1.1" xmlns="http://www.w3.org/2000/svg" xmlns:xlink="http://www.w3.org/1999/xlink" width="145.44352" height="260.27667" viewBox="0,0,145.44352,260.27667"><g transform="translate(-168.77974,-47.60717)"><g data-paper-data="{&quot;isPaintingLayer&quot;:true}" fill-rule="nonzero" stroke-width="0" stroke-linecap="butt" stroke-linejoin="miter" stroke-miterlimit="10" stroke-dasharray="" stroke-dashoffset="0" style="mix-blend-mode: normal"><g><path d="M206.25001,307.88383l15.14285,-131.8421l37.78325,-0.15789l13.57389,132z" fill="#000000" stroke="#000000"/><path d="M271.53586,305.59182c0,0 -16.97121,-0.01299 -20.5496,-0.01299c-2.61079,0 -12.43036,-16.74279 -19.44117,-33.31752c-6.98206,-16.50669 -11.29473,-33.11347 -11.29473,-33.11347c0,0 -0.52156,-9.93187 0.71823,-9.74707c4.13597,0.61651 15.86415,17.85116 27.2227,17.85116c11.36563,0 23.23121,47.59615 23.23121,47.59615z" fill="#2c4c45" stroke="none"/><path d="M271.15013,238.08622c0,0.60783 0.37915,57.26859 0.25303,57.26859c-3.62301,0 -22.20414,-15.21406 -31.56093,-26.87511c-13.62065,-16.97493 -18.96025,-32.65012 -18.96025,-34.61061c0,-3.30727 22.39409,13.74785 31.29108,13.74785c8.897,0 18.97708,-12.83797 18.97708,-9.53071z" fill="#142d2b" stroke="none"/><path d="M271.07096,227.62707c0,0 0.03393,13.4578 -0.08536,13.63226c-2.96947,4.34294 -10.33634,6.43654 -21.92967,6.43654c-7.4418,0 -15.12485,-2.70919 -20.29629,-6.20685c-5.58748,-3.77906 -8.37584,-8.38552 -8.48414,-8.8829c-1.66744,-7.65911 12.18592,-5.75223 27.66821,-5.75223c15.48229,0 23.12727,0.7732 23.12727,0.7732z" fill="#031718" stroke="none"/><g stroke="none"><path d="M202.21244,217.87896c0,0 4.95299,-4.22617 7.36907,-5.84429c2.76245,-1.8501 8.73764,-4.94145 8.73764,-4.94145l1.86954,23.87244c0,0 -2.48275,0.51118 -5.13901,-0.15212c-2.40942,-0.60169 -4.9361,-2.32263 -6.35894,-3.40726c-1.04674,-0.79792 -2.71551,-2.33371 -3.68027,-3.95772c-1.66201,-2.7977 -2.79801,-5.56959 -2.79801,-5.56959z" fill="#a7bccd"/><path d="M207.0903,226.07875c0,0 -1.43376,-1.25872 -1.93877,-1.89293c-0.51022,-0.64074 -1.10705,-1.93204 -1.10705,-1.93204l14.57398,-12.14317l0.31344,4.97548z" fill="#d4ecfe"/></g><path d="M276.84142,217.75318c0,8.17934 -20.07195,23.97807 -32.00013,23.97807c-11.92818,0 -28.74496,-9.36999 -28.74496,-17.54933c0,-2.34074 -0.51243,-12.78981 1.16571,-14.81963c4.18584,-5.06302 13.9517,-0.7772 22.46629,-0.7772c6.41295,0 11.19214,-4.29825 19.29487,-2.76289c2.98231,0.56511 17.81824,9.76764 17.81824,11.93097z" fill="#2c4c45" stroke="none"/><path d="M259.78409,206.68481c0,5.05248 -2.40841,12.44699 -6.56165,17.06209c-3.95821,4.3984 -10.9241,7.25041 -16.08795,7.25041c-5.81829,0 -13.35853,-2.64002 -16.78455,-7.82176c-2.80512,-4.24263 -2.26036,-10.22249 -2.26036,-14.66469c0,-2.33346 1.7716,-5.61463 2.81369,-7.71924c3.36471,-6.79534 10.25354,-10.86431 18.33325,-10.86431c10.58212,0 20.54759,6.88979 20.54759,16.7575z" fill="#142d2b" stroke="none"/><path d="M258.53863,207.77418c0,9.86771 -8.57851,17.86708 -19.16062,17.86708c-10.58212,0 -19.16062,-7.99936 -19.16062,-17.86707c0,-9.86771 8.57851,-17.86707 19.16062,-17.86707c10.58212,0 19.16062,7.99938 19.16062,17.86708z" fill="#000000" stroke="none"/></g><g data-paper-data="{&quot;index&quot;:null}"><path d="M175.69443,96.81109v-0.17104c0,0 18.99114,-13.23867 65.61032,-12.99969c49.09801,0.25171 66.0477,12.99969 66.0477,12.99969v0.17104c0,0 -6.00035,10.00942 -17.74515,16.55842c-14.62448,8.15473 -36.59058,13.20404 -48.73995,13.20404c-13.98462,0 -38.08825,-9.99612 -52.65915,-18.76126c-8.32991,-5.01087 -12.51374,-11.00119 -12.51374,-11.00119z" fill="#000000" stroke="none"/><path d="M204.94645,114.03703l8.82463,-22.5325c0,0 17.94101,-0.7486 26.9912,-0.71569c9.52632,0.03465 28.8116,0.91868 28.8116,0.91868l8.96557,23.60292l-18.26755,40.63795l-37.67616,-0.09429z" fill="#456761" stroke="#000000"/><path d="M173.18955,150.93688c0,0 -4.02496,-14.92329 -4.38385,-22.26103c-0.33053,-6.75842 2.60508,-20.86605 2.60508,-20.86605c0,0 5.04867,-3.4293 8.10261,-4.99555c2.97184,-1.52415 10.97958,-5.18978 10.97958,-5.18978l14.37071,16.01357l18.72428,42.63174l0.09384,43.51206l-19.35292,-22.00981c0,0 -9.15429,-13.2166 -14.42773,-17.76114c-5.1006,-4.39554 -16.71163,-9.07404 -16.71163,-9.07404z" fill="#142d2b" stroke="none"/><path d="M201.08278,173.92504c-7.35647,0 -12.29752,-2.14366 -18.13546,-6.91308c-2.67447,-2.18495 -11.35267,-14.24492 -9.55041,-16.17495c2.07046,-2.21724 14.31029,6.09661 18.80189,10.60863c5.81524,5.84172 12.4497,12.47939 8.88399,12.47939z" fill="#2c4c45" stroke="none"/><path d="M293.10185,160.25446c-5.27346,4.54451 -14.42773,17.76111 -14.42773,17.76111l-19.3529,22.00982l0.09382,-43.51207l18.72428,-42.63175l15.36877,-15.10289c0,0 7.00967,2.75496 9.98154,4.27908c3.05396,1.56626 8.10261,4.99554 8.10261,4.99554c0,0 2.93561,14.10763 2.60507,20.86605c-0.35889,7.33771 -4.38383,22.26103 -4.38383,22.26103c0,0 -11.61103,4.6785 -16.71163,9.07404z" data-paper-data="{&quot;index&quot;:null}" fill="#789396" stroke="none"/><path d="M290.80424,161.68917c4.4916,-4.51204 16.73141,-12.82589 18.80188,-10.60863c1.80228,1.93004 -6.87595,13.99001 -9.55043,16.17496c-5.83796,4.76943 -10.77901,6.91308 -18.13547,6.91308c-3.5657,0 3.06877,-6.6377 8.884,-12.47942z" data-paper-data="{&quot;index&quot;:null}" fill="#8fa7b3" stroke="none"/><path d="M223.15473,200.51658v-44.80976h36.81166v44.80977z" fill="#000000" stroke="none"/><path d="M174.56803,97.12757c0,0 6.31588,-16.04891 11.63583,-22.49524c5.01373,-6.07524 19.41974,-15.13548 19.41974,-15.13548l-8.55087,28.83544z" fill="#142d2b" stroke="none"/><path d="M285.36449,88.25076l-8.79665,-29.26072c0,0 14.406,9.06024 19.41974,15.1355c5.31995,6.4463 11.63583,22.49524 11.63583,22.49524z" data-paper-data="{&quot;index&quot;:null}" fill="#789396" stroke="none"/><path d="M198.99582,87.00514c0,0 0.62622,-21.15987 5.95833,-27.1445c2.8533,-3.20248 10.88938,-6.71254 19.75336,-9.40523c8.36604,-2.54143 16.35877,-2.84824 16.35877,-2.84824c0,0 10.96897,1.17797 20.58627,3.88572c7.92624,2.23167 16.85387,5.99799 17.94289,9.0071c2.42596,6.70333 3.54129,27.33333 3.54129,27.33333c0,0 -27.64176,-4.0846 -41.64137,-3.83247c-14.04721,0.25298 -42.49956,3.00429 -42.49956,3.00429z" fill="#456761" stroke="none"/><path d="M189.09715,98.21212c0,-3.45637 11.45767,-26.69202 11.45767,-26.69202l14.43568,20.18601l-9.92888,22.49722c0,0 -15.96447,-15.60848 -15.96447,-15.9912z" fill="#000000" stroke="none"/><path d="M277.81603,114.96916l-10.37805,-23.19985l15.59699,-20.41166c0,0 11.48888,24.26971 11.48888,27.7261c0,0.38272 -16.70782,15.88543 -16.70782,15.88543z" data-paper-data="{&quot;index&quot;:null}" fill="#000000" stroke="none"/></g><g stroke="none"><path d="M223.31321,185.65146v-15.81813h36.51971v15.81813z" fill="#ffa200"/><path d="M223.50342,185.71704l36.5197,-15.81813v15.81813z" fill="#dc6100"/></g></g></g></svg>