<svg version="1.1" xmlns="http://www.w3.org/2000/svg" xmlns:xlink="http://www.w3.org/1999/xlink" width="135.71593" height="225.82534" viewBox="0,0,135.71593,225.82534"><g transform="translate(-184.43351,-82.01994)"><g data-paper-data="{&quot;isPaintingLayer&quot;:true}" fill-rule="nonzero" stroke-linejoin="miter" stroke-miterlimit="10" stroke-dasharray="" stroke-dashoffset="0" style="mix-blend-mode: normal"><path d="M315.99718,163.68964c-0.12992,0.65519 1.59691,7.77059 2.32955,11.03008c1.2342,5.49089 1.82271,7.96529 1.82271,7.96529c0,0 -2.27255,-2.15 -4.03798,-4.43694c-1.73638,-2.24932 -2.96297,-4.64392 -3.32878,-3.73384c-0.87442,2.17546 -2.70865,10.59798 -7.92389,18.73418c-5.15737,8.04591 -13.7012,15.81845 -13.7012,15.81845c0,0 -1.21994,-5.63124 -3.09356,-3.81616c-7.66856,7.42896 -14.05838,12.82004 -14.05838,12.82004c0,0 -1.39566,-5.35082 -3.63342,-4.66341c-10.12392,3.10995 -21.21836,3.85747 -32.58763,1.6031c-12.36581,-2.45198 -23.60526,-8.31638 -32.74434,-16.20571c-2.37503,-2.05026 -1.6639,4.14339 -1.6639,4.14339c0,0 -4.47383,-4.38502 -8.29091,-9.63092c0.93644,-0.33403 1.84251,-0.73632 2.70962,-1.21033c5.30506,-2.9001 9.30984,-7.21334 12.47886,-12.27185c1.54063,-2.45921 1.83946,-5.95228 3.31597,-8.40034c0.98627,-1.63522 3.28448,-3.39446 4.50081,-4.96364c1.71213,-2.20882 2.50051,-5.00842 4.01276,-7.2794c2.33078,-3.50021 7.05998,-6.33314 10.03035,-9.63184c1.73884,-1.93103 2.42235,-4.56022 4.00224,-6.51163c3.41295,-4.21553 7.19169,-8.83034 10.98185,-12.72542c5.15765,-5.30041 11.26721,-6.03975 18.01758,-7.66318c5.61932,-1.35143 12.78417,-5.66515 17.2602,-9.01233c2.45982,-1.83947 4.36861,-4.54506 6.86163,-6.27384c1.4503,-1.00569 2.93538,-1.92316 4.41313,-2.8191c1.22712,-0.48169 -2.59809,-6.63981 -1.46618,-7.30493c0.78838,-0.46327 2.26177,-0.53679 4.35518,0.43211c0.61622,0.2852 3.36836,3.30834 3.579,3.14062c15.63457,16.64452 20.256,40.69135 15.85876,62.86752z" fill="#000000" stroke="#000000" stroke-width="0" stroke-linecap="butt"/><g stroke-width="0" stroke-linecap="butt"><path d="M206.05944,307.74998l15.14285,-131.8421l37.78325,-0.15789l13.57389,132z" fill="#000000" stroke="#000000"/><path d="M237.86052,307.84528v-137.69052h2.89786v137.69052z" fill="#d4ecfe" stroke="none"/><g data-paper-data="{&quot;index&quot;:null}" stroke="none"><path d="M260.79949,267.87462c-2.82971,2.26974 -5.76,4.02615 -7.07092,4.26265c-3.41372,0.61588 -6.73254,-0.90333 -7.40741,-1.85325c-1.02654,-1.44494 -3.78651,-3.4163 -4.9271,-5.49736c-1.61951,-2.95484 -1.51265,-6.01085 -1.7779,-7.06306c-1.33569,-5.29849 2.84048,-13.39498 1.79618,-15.19346c-0.18906,-0.32559 5.8989,-4.25338 6.82929,-7.43072c2.94376,-10.05294 10.38032,-19.81725 10.38032,-19.81725l8.58874,-2.83019c0,0 3.38234,-1.23873 5.15595,-1.59188c1.99144,-0.39653 6.21506,-0.67228 6.21506,-0.67228c0,0 0.10813,5.79893 -0.67463,13.44219c-0.40573,3.96176 -1.4199,8.41904 -2.03172,12.8211c-0.59626,4.29009 -1.65683,8.78347 -3.28624,13.06181c-1.47415,3.87067 -3.52839,7.65102 -4.04417,9.38718c-0.73548,2.47576 -4.19751,6.12863 -7.74548,8.9745z" fill="#031718"/><path d="M247.52039,262.28198c-3.30193,-2.31725 -6.18033,-6.84652 -6.86149,-9.5486c-1.33569,-5.29849 -1.44923,-14.10344 -2.49353,-15.9019c-0.18906,-0.32559 5.8989,-4.25338 6.82929,-7.43072c2.94376,-10.05294 10.38032,-19.81725 10.38032,-19.81725l8.58874,-2.83019c0,0 3.38237,-1.23873 5.15596,-1.59188c1.99144,-0.39653 6.21506,-0.67228 6.21506,-0.67228c0,0 -0.91416,13.36848 -2.70635,26.26329c-1.13571,8.17141 -6.24454,18.79382 -7.3304,22.449c-1.32208,4.45031 -4.55173,8.04242 -7.71301,9.59223c-2.35259,1.15336 -5.00509,0.80687 -5.00509,0.80687c0,0 -3.31697,-0.09569 -5.05949,-1.31856z" fill="#2c4c45"/><path d="M247.68595,250.4716c-2.80465,-2.75464 -5.2322,-8.46436 -7.09012,-11.66401c-0.18906,-0.32559 0.49308,18.41702 0.06583,24.12662c-0.06779,0.90588 -2.31276,0.1266 -2.34043,0.12411c-0.45049,-0.04054 0.03042,-25.11239 -0.03211,-25.79354c-0.18483,-2.01308 -0.24764,-8.37813 0.68276,-11.55548c2.94376,-10.05294 10.38032,-19.81725 10.38032,-19.81725l8.58874,-2.83019l11.371,-2.26416c0,0 -0.03098,13.72271 -1.82317,26.61751c-1.13571,8.17141 -3.84736,16.07811 -4.93322,19.73329c-2.30595,7.76219 -9.81625,6.85688 -9.81625,6.85688c0,0 -2.75288,-1.27431 -5.05336,-3.53379z" fill="#789396"/><path d="M254.43287,246.87331c-8.90435,0.70447 -9.55647,-20.71703 -9.55647,-20.71703l0.3629,-19.69816l16.93554,-1.3585l-0.72582,21.28307c0,0 -0.02502,19.93751 -7.01614,20.49062z" fill="#a7bccd"/></g><g stroke="none"><path d="M210.22172,258.85559c-0.51577,-1.73615 -2.57002,-5.51651 -4.04417,-9.38718c-1.62941,-4.27833 -2.68998,-8.7717 -3.28624,-13.06181c-0.61182,-4.40208 -1.62599,-8.85934 -2.03172,-12.8211c-0.78276,-7.64325 -0.67463,-13.44219 -0.67463,-13.44219c0,0 4.22361,0.27575 6.21506,0.67228c1.77359,0.35315 5.15595,1.59188 5.15595,1.59188l8.58874,2.83019c0,0 7.43658,9.7643 10.38032,19.81725c0.93041,3.17734 7.01835,7.10513 6.82929,7.43072c-1.04431,1.79847 3.13187,9.89496 1.79618,15.19346c-0.26525,1.05219 -0.15839,4.10822 -1.7779,7.06306c-1.14061,2.08106 -3.90056,4.05242 -4.9271,5.49736c-0.67487,0.94992 -3.99369,2.46912 -7.40739,1.85325c-1.31092,-0.2365 -4.24119,-1.99291 -7.07092,-4.26265c-3.54798,-2.84588 -7.01001,-6.49874 -7.74548,-8.9745z" fill="#031718"/><path d="M226.18693,263.55601c0,0 -2.6525,0.34648 -5.00509,-0.80687c-3.16128,-1.54982 -6.39095,-5.14191 -7.71301,-9.59223c-1.08586,-3.65517 -6.1947,-14.27758 -7.33041,-22.449c-1.79219,-12.8948 -2.70634,-26.26329 -2.70634,-26.26329c0,0 4.22361,0.27575 6.21506,0.67228c1.77359,0.35315 5.15595,1.59188 5.15595,1.59188l8.58874,2.83019c0,0 7.43657,9.7643 10.38032,19.81725c0.93041,3.17734 7.01836,7.10513 6.82931,7.43072c-1.04431,1.79847 -1.15784,10.60341 -2.49353,15.9019c-0.68117,2.70207 -3.55955,7.23134 -6.86149,9.5486c-1.74251,1.22287 -5.05949,1.31856 -5.05949,1.31856z" fill="#2c4c45"/><path d="M226.0275,253.96086c0,0 -7.5103,0.90531 -9.81625,-6.85688c-1.08586,-3.65517 -3.7975,-11.56188 -4.93322,-19.73329c-1.79219,-12.8948 -1.82317,-26.61751 -1.82317,-26.61751l11.371,2.26416l8.58874,2.83019c0,0 7.43657,9.7643 10.38032,19.81725c0.93041,3.17734 0.86759,9.54238 0.68276,11.55548c-0.06255,0.68115 0.41837,25.75299 -0.03211,25.79354c-0.02769,0.00249 -2.27265,0.78176 -2.34043,-0.12411c-0.42725,-5.70959 0.25488,-24.45221 0.06583,-24.12662c-1.85792,3.19964 -4.28548,8.90937 -7.09012,11.66401c-2.30049,2.25948 -5.05336,3.53379 -5.05336,3.53379z" fill="#789396"/><path d="M217.31779,226.33816l-0.7258,-21.28307l16.93553,1.3585l0.36291,19.69816c0,0 -0.65213,21.42151 -9.55647,20.71704c-6.99114,-0.5531 -7.01614,-20.49062 -7.01614,-20.49062z" fill="#a7bccd"/></g><g stroke="none"><path d="M218.03627,200.45174c0,-0.79453 -1.95838,-2.95796 -1.83482,-3.71757c1.11538,-6.85671 9.08741,-10.70693 16.25932,-10.70693c7.96643,0 14.42449,4.00963 14.42449,11.97605c0,0.71595 -0.49274,13.58949 -0.58169,13.8089c-1.93988,4.78556 2.67859,13.62621 -1.02453,16.88156c-0.99383,0.87367 -5.25422,1.98404 -8.0291,1.54355c-0.8339,-0.13239 -4.91604,-0.38615 -7.49161,-2.22335c-4.87431,-3.47692 -9.29947,-10.15159 -10.85504,-15.02945c-1.57411,-4.93598 -0.86702,-9.35939 -0.86702,-12.53276z" fill="#031718"/><path d="M230.6762,201.59464c0,-7.96643 6.45807,-14.42449 14.42449,-14.42449c7.96643,0 14.42449,4.00963 14.42449,11.97605c0,0.71595 -0.49274,13.58949 -0.58169,13.8089c-2.91308,7.18633 -10.4814,16.31531 -14.69444,16.37077c-4.79265,0.06309 -10.3283,-7.74316 -12.70584,-15.19846c-1.57411,-4.93598 -0.86702,-9.35939 -0.86702,-12.53276z" fill="#142d2b"/></g></g><path d="M187.0714,135.06691c6.47722,-32.66587 39.93869,-53.55298 74.73829,-46.65267c34.7996,6.90031 57.75943,38.97504 51.28222,71.64089c-6.47722,32.66587 -39.93869,53.55298 -74.73829,46.65267c-34.7996,-6.90031 -57.75943,-38.97504 -51.28222,-71.64089z" fill="#ffffff" stroke="#000000" stroke-width="2" stroke-linecap="butt"/><path d="M187.77018,135.26035c0.14159,-0.71409 -5.76911,55.86416 51.0767,68.17061c54.31379,11.7583 73.57252,-44.49298 73.37436,-43.49358c-6.38054,32.1783 -39.41231,52.73983 -73.77852,45.92546c-34.3662,-6.81437 -57.05308,-38.42418 -50.67254,-70.60248z" fill="#e6e6e6" stroke="#000000" stroke-width="0" stroke-linecap="butt"/><path d="M200.27933,138.12369c2.52228,-12.72034 14.87888,-20.98752 27.59922,-18.46524c12.72034,2.52228 20.98752,14.87888 18.46524,27.59922c-2.52228,12.72034 -14.87888,20.98752 -27.59922,18.46524c-12.72034,-2.52228 -20.98752,-14.87888 -18.46524,-27.59922z" fill="#ffffff" stroke="#000000" stroke-width="2" stroke-linecap="butt"/><path d="M207.26337,139.22755c1.77541,-8.95376 10.47311,-14.77294 19.42686,-12.99753c8.95376,1.77541 14.77294,10.47312 12.99753,19.42687c-1.77541,8.95376 -10.47312,14.77294 -19.42687,12.99753c-8.95376,-1.77541 -14.77293,-10.47312 -12.99752,-19.42687z" fill="#000000" stroke="none" stroke-width="0" stroke-linecap="butt"/><path d="M271.96673,176.27616c-12.72034,-2.52228 -20.98752,-14.87888 -18.46524,-27.59922c2.52228,-12.72034 14.87888,-20.98752 27.59922,-18.46524c12.72034,2.52228 20.98752,14.87888 18.46524,27.59922c-2.52228,12.72034 -14.87888,20.98752 -27.59922,18.46524z" data-paper-data="{&quot;index&quot;:null}" fill="#ffffff" stroke="#000000" stroke-width="2" stroke-linecap="butt"/><path d="M274.62375,162.29755c-8.95375,-1.77541 -14.77293,-10.47312 -12.99752,-19.42687c1.77541,-8.95376 10.47312,-14.77294 19.42686,-12.99753c8.95375,1.77541 14.77293,10.47312 12.99752,19.42687c-1.77541,8.95376 -10.47312,14.77294 -19.42686,12.99753z" data-paper-data="{&quot;index&quot;:null}" fill="#000000" stroke="none" stroke-width="0" stroke-linecap="butt"/><path d="M200.27933,138.12369c2.52228,-12.72034 14.87888,-20.98752 27.59922,-18.46524c12.72034,2.52228 20.98752,14.87888 18.46524,27.59922c0,0 -46.304,-7.92595 -46.06447,-9.13398z" fill="#ffffff" stroke="#000000" stroke-width="2" stroke-linecap="butt"/><path d="M218.27889,112.32344c0,0 7.58624,-3.76561 12.80962,-3.94746c5.22339,-0.18185 11.96255,3.085 11.96255,3.085c0,0 -7.87289,-1.62254 -11.90674,-1.4821c-4.21553,0.14677 -12.86543,2.34456 -12.86543,2.34456z" fill="#000000" stroke="none" stroke-width="0" stroke-linecap="butt"/><path d="M282.13503,123.91269c-3.67506,-1.66902 -11.5714,-3.17331 -11.5714,-3.17331c0,0 7.47581,-0.44821 12.23461,1.71298c4.75879,2.16119 10.3342,8.53658 10.3342,8.53658c0,0 -7.15683,-5.33205 -10.99741,-7.07625z" data-paper-data="{&quot;index&quot;:null}" fill="#000000" stroke="none" stroke-width="0" stroke-linecap="butt"/><path d="M307.01393,112.64216c0.75995,1.05887 -12.04124,3.30195 -19.37419,3.82625c-10.60324,0.75813 -4.64584,-13.13948 4.64162,-14.50699c4.56863,-0.67271 13.82096,9.41056 14.73258,10.68075z" fill="#000000" stroke="none" stroke-width="0" stroke-linecap="butt"/><path d="M298.27271,96.50062c-0.0315,0.15888 3.48387,4.33455 -2.79855,7.59259c-2.44396,1.26741 -10.32727,15.67973 -13.52004,17.21597c-2.17552,1.04676 -18.29522,10.32278 -20.68732,11.33231c-1.92289,0.81152 -2.54087,8.62836 -4.46564,9.34985c-2.09505,0.78534 -4.87333,3.54302 -6.96389,4.15684c-1.63549,0.48022 -6.2035,25.28979 -7.81887,25.65977c-3.41255,0.78159 -10.77095,9.03263 -13.92305,8.56942c-1.20092,-0.17648 -2.3684,2.25482 -5.80597,3.30399c-5.63923,1.72115 -12.6095,2.2977 -14.26166,1.22908c-0.51492,-0.33305 -0.94651,1.74598 -1.97862,4.21901c-0.47845,1.14643 -0.4541,2.86086 -7.16393,2.04109c-3.70234,-0.45233 -4.21263,-2.02323 -7.20701,-3.10271c-3.42347,-1.23418 -2.87816,-2.4737 -2.9209,-3.29865c-0.08803,-1.69985 -2.27594,-3.63861 -0.21981,-5.25936c0.55969,-0.44118 3.23936,-6.38655 7.88961,-13.74736c6.75404,-10.69089 1.89196,-19.26499 1.62817,-19.31729c-2.08661,-0.41375 78.89727,-48.94988 79.05513,-49.74601c0.07331,-0.36971 4.03642,-1.90853 7.76175,-2.39707c1.93965,-0.25435 5.84829,-0.72398 8.47856,-0.23911c3.19641,0.58922 4.9684,2.20373 4.92202,2.43765z" fill="#2c4c45" stroke="none" stroke-width="0" stroke-linecap="butt"/><path d="M185.89468,130.66706c6.61058,-33.33846 35.96218,-51.01958 71.4783,-43.97719c19.23659,3.81436 12.21292,5.63643 16.4439,8.09486c3.58059,2.08052 4.90734,7.65844 9.077,5.69414c1.3185,-0.62113 2.41122,-1.01022 3.30185,-1.20365c8.54011,-1.85471 -1.5022,14.28034 -9.26685,16.31589c-2.66878,0.69963 -4.63929,4.42131 -9.98079,6.85137c-6.92452,3.15023 -10.37131,13.89463 -16.98461,14.07711c-2.62799,0.07251 -0.9447,3.49448 -2.64304,10.0943c-2.25799,8.77462 -6.77615,19.61598 -9.07703,21.92118c-3.48632,3.49285 -10.55921,11.75177 -17.64937,12.23637c-5.99921,0.41003 -10.3198,-0.17125 -13.76986,2.63924c-3.12203,2.54326 -4.4589,3.02728 -6.79775,4.75765c-2.9495,2.18215 -20.7423,-24.16282 -14.13172,-57.50126z" fill="#8fa7b3" stroke="#000000" stroke-width="0" stroke-linecap="butt"/><path d="M262.17182,83.05381c20.18094,4.00162 31.39456,16.95559 31.27723,17.43673c-0.89088,3.65341 -6.79959,11.28489 -12.3444,15.42248c-2.11753,1.58012 -3.5385,4.9591 -5.55816,5.80414c-2.22847,0.93242 -5.07826,-0.64456 -7.97104,1.85315c-9.62145,8.30749 -11.94251,16.81408 -21.68194,14.56145c-32.95593,-7.62237 -37.31271,-34.45373 -39.35935,-41.36667c13.68821,-11.63024 37.99544,-17.20951 55.63767,-13.71129z" fill="#bed3e5" stroke="#000000" stroke-width="0" stroke-linecap="butt"/><path d="M200.27933,138.12369c2.52228,-12.72034 14.87888,-20.98752 27.59922,-18.46524c12.72034,2.52228 20.98752,14.87888 18.46524,27.59922c-2.52228,12.72034 -14.87888,20.98752 -27.59922,18.46524c-12.72034,-2.52228 -20.98752,-14.87888 -18.46524,-27.59922z" fill="#000000" stroke="#000000" stroke-width="0" stroke-linecap="butt"/><path d="M207.26337,139.22755c1.77541,-8.95376 10.47311,-14.77294 19.42686,-12.99753c8.95376,1.77541 14.77294,10.47312 12.99753,19.42687c-1.77541,8.95376 -10.47312,14.77294 -19.42687,12.99753c-8.95376,-1.77541 -14.77293,-10.47312 -12.99752,-19.42687z" fill="#de6000" stroke="none" stroke-width="0" stroke-linecap="butt"/><path d="M224.10229,182.99417l34.77982,10.60116" fill="none" stroke="#000000" stroke-width="1" stroke-linecap="round"/></g></g></svg>