<svg version="1.1" xmlns="http://www.w3.org/2000/svg" xmlns:xlink="http://www.w3.org/1999/xlink" width="35.14904" height="35.14874" viewBox="0,0,35.14904,35.14874"><g transform="translate(-222.41348,-162.41347)"><g data-paper-data="{&quot;isPaintingLayer&quot;:true}" stroke-miterlimit="10" stroke-dasharray="" stroke-dashoffset="0" style="mix-blend-mode: normal"><path d="M229.48314,162.41348h20.03379c3.9166,0 7.06966,3.15307 7.06966,7.06966v20.03379c0,3.91659 -3.15306,7.06966 -7.06966,7.06966h-20.03379c-3.91659,0 -7.06966,-3.15307 -7.06966,-7.06966v-20.03379c0,-3.91659 3.15307,-7.06966 7.06966,-7.06966z" fill-opacity="0.59677" fill="#5e807a" fill-rule="evenodd" stroke="none" stroke-width="4.43922" stroke-linecap="round" stroke-linejoin="round"/><path d="M234.56154,189.78669c-5.19432,-2.95535 -7.43986,-8.75918 -2.39135,-17.63242c1.25269,-2.20172 3.7715,-5.05546 3.7715,-5.05546c0,0 2.9376,-5.1531 11.15043,-0.41267c8.18478,4.72424 6.02064,10.38611 6.02064,10.38611c0,0 -1.62027,3.30854 -3.02888,5.7843c0,0 -7.99673,11.94778 -15.52234,6.93013z" fill="#5e807a" fill-rule="nonzero" stroke="none" stroke-width="0" stroke-linecap="butt" stroke-linejoin="miter"/><path d="M229.7275,189.82455c0,0 -3.62163,-2.96174 -3.49858,-7.57206c-0.20328,-2.93868 2.48828,-7.94911 4.18693,-10.44371c1.72487,-2.53312 2.70221,-3.16292 2.70221,-3.16292c0,0 0.74359,-0.20197 0.63455,1.12175c-0.0676,0.8207 -1.18513,2.89721 -1.12588,3.65022c0.14705,1.86873 1.32667,3.82728 1.32667,3.82728c0,0 -2.01168,2.32966 -2.07982,5.13408c-0.25936,1.97756 1.78498,3.80912 1.78498,3.80912z" fill="#000000" fill-rule="nonzero" stroke="none" stroke-width="0" stroke-linecap="butt" stroke-linejoin="miter"/><path d="M236.80589,188.017c0,0 2.56065,0.98842 4.20423,-0.14148c2.467,-1.33542 3.6277,-4.1862 3.6277,-4.1862c0,0 2.28073,0.16047 4.0121,-0.55797c0.82731,-0.3433 2.02834,-2.17624 2.77145,-2.68045c0.89427,-0.60679 1.25748,0.13806 1.25748,0.13806c0,0 -0.89119,1.69785 -2.18989,4.2339c-1.39436,2.72286 -3.7949,6.35192 -6.93966,8.06396c-3.14476,1.71205 -8.19544,0.28449 -8.19544,0.28449z" data-paper-data="{&quot;index&quot;:null}" fill="#000000" fill-rule="nonzero" stroke="none" stroke-width="0" stroke-linecap="butt" stroke-linejoin="miter"/><path d="M236.80345,184.22278l-2.85004,4.81557" fill="none" fill-rule="nonzero" stroke="#000000" stroke-width="8" stroke-linecap="round" stroke-linejoin="miter"/><path d="M236.72723,184.32106l-2.67554,4.52074" fill="none" fill-rule="nonzero" stroke="#5e807a" stroke-width="4" stroke-linecap="round" stroke-linejoin="miter"/><path d="M257.56251,169.83175v20.49804c0,4.00745 -3.22497,7.23243 -7.23242,7.23243h-20.5c-3.66107,0 -6.66147,-2.69385 -7.1543,-6.21484c0.7952,3.03475 3.54108,5.26367 6.83204,5.26367h20.0332c3.9166,0 7.07032,-3.15372 7.07032,-7.07031v-20.03321c0,-3.2976 -2.23906,-6.0451 -5.28321,-6.83398c3.52994,0.48496 6.23438,3.49081 6.23438,7.15821z" fill-opacity="0.50151" fill="#000000" fill-rule="evenodd" stroke="none" stroke-width="4.54219" stroke-linecap="round" stroke-linejoin="round"/></g></g></svg>