<svg version="1.1" xmlns="http://www.w3.org/2000/svg" xmlns:xlink="http://www.w3.org/1999/xlink" width="34.17311" height="34.17311" viewBox="0,0,34.17311,34.17311"><g transform="translate(-222.91344,-162.91344)"><g data-paper-data="{&quot;isPaintingLayer&quot;:true}" stroke-miterlimit="10" stroke-dasharray="" stroke-dashoffset="0" style="mix-blend-mode: normal"><path d="M229.98311,162.91345h20.03379c3.9166,0 7.06966,3.15307 7.06966,7.06966v20.03379c0,3.91659 -3.15306,7.06966 -7.06966,7.06966h-20.03379c-3.91659,0 -7.06966,-3.15307 -7.06966,-7.06966v-20.03379c0,-3.91659 3.15307,-7.06966 7.06966,-7.06966z" fill-opacity="0.59677" fill="#5e807a" fill-rule="evenodd" stroke="none" stroke-width="4.43922" stroke-linecap="round" stroke-linejoin="round"/><g fill-rule="nonzero" stroke-width="0.5" stroke-linejoin="miter"><path d="M238.19299,191.07894c-1.25742,2.88753 -4.60406,4.21487 -7.47493,2.96471c-2.87087,-1.25017 -4.17882,-4.60443 -2.9214,-7.49196c1.25742,-2.88753 4.60406,-4.21488 7.47493,-2.96471c2.87087,1.25017 4.17882,4.60443 2.9214,7.49196z" fill="#e18300" stroke="#000000" stroke-linecap="butt"/><path d="M229.23726,184.35184c0,0 -1.5431,-3.55377 -2.46484,-7.71606c-1.03157,-4.65827 -1.36911,-10.02525 0.41909,-10.95472c1.15421,-0.59994 2.3584,1.18915 2.3584,1.18915c0,0 -1.27898,0.43116 -1.44677,2.104c-0.14594,1.455 0.80268,4.07585 0.96056,5.31106c0.35781,2.79941 2.58074,8.97212 2.58074,8.97212z" fill="#98b3c1" stroke="#000000" stroke-linecap="round"/><path d="M226.62205,166.66658l1.62998,0.82884" fill="none" stroke="#6d838b" stroke-linecap="round"/><path d="M226.22126,169.11091l1.60893,0.04592" fill="none" stroke="#6d838b" stroke-linecap="round"/><path d="M227.778,170.80065l-1.40645,0.45889" fill="none" stroke="#6d838b" stroke-linecap="round"/><path d="M226.58758,172.8416l1.71036,0.09009" fill="none" stroke="#6d838b" stroke-linecap="round"/><path d="M226.68717,174.96815l1.91358,-0.23805" fill="none" stroke="#6d838b" stroke-linecap="round"/><path d="M229.14322,175.97816l-2.26932,0.91641" fill="none" stroke="#6d838b" stroke-linecap="round"/><path d="M229.73566,178.08125l-2.4286,0.72801" fill="none" stroke="#6d838b" stroke-linecap="round"/><path d="M230.05311,179.70748l-2.11718,0.98267" fill="none" stroke="#6d838b" stroke-linecap="round"/><path d="M228.54302,182.62106l2.37075,-0.87225" fill="none" stroke="#6d838b" stroke-linecap="round"/><path d="M229.20833,184.27973c0,0 -1.5431,-3.55377 -2.46484,-7.71606c-1.03157,-4.65827 -1.36912,-10.02524 0.41909,-10.95472c1.15421,-0.59994 2.3584,1.18915 2.3584,1.18915c0,0 -1.27899,0.43116 -1.44677,2.104c-0.14594,1.45499 0.80269,4.07584 0.96056,5.31106c0.35781,2.79941 2.58074,8.97211 2.58074,8.97211z" fill="none" stroke="#000000" stroke-linecap="round"/><path d="M238.08402,185.94257c0,0 6.03331,-2.57739 8.3265,-4.22238c1.01186,-0.72584 3.57678,-1.81666 4.54258,-2.91463c1.11039,-1.26236 0.03303,-2.54108 0.03303,-2.54108c0,0 2.65187,-0.28847 2.99889,0.96521c0.53764,1.9423 -3.62147,5.35113 -7.73451,7.7691c-3.67511,2.16052 -7.32799,3.45162 -7.32799,3.45162z" data-paper-data="{&quot;index&quot;:null}" fill="#98b3c1" stroke="#000000" stroke-linecap="round"/><path d="M251.65894,177.62883l1.99249,0.6891" data-paper-data="{&quot;index&quot;:null}" fill="none" stroke="#6d838b" stroke-linecap="round"/><path d="M252.13494,180.27641l-1.12961,-1.14662" data-paper-data="{&quot;index&quot;:null}" fill="none" stroke="#6d838b" stroke-linecap="round"/><path d="M249.83743,180.28775l0.62211,1.34226" data-paper-data="{&quot;index&quot;:null}" fill="none" stroke="#6d838b" stroke-linecap="round"/><path d="M247.92311,181.35875l1.23104,1.19079" data-paper-data="{&quot;index&quot;:null}" fill="none" stroke="#6d838b" stroke-linecap="round"/><path d="M247.52946,183.92523l-1.12924,-1.5631" data-paper-data="{&quot;index&quot;:null}" fill="none" stroke="#6d838b" stroke-linecap="round"/><path d="M245.99192,185.10079l-0.87494,-2.28563" data-paper-data="{&quot;index&quot;:null}" fill="none" stroke="#6d838b" stroke-linecap="round"/><path d="M244.2951,186.08795l-1.12137,-2.2739" data-paper-data="{&quot;index&quot;:null}" fill="none" stroke="#6d838b" stroke-linecap="round"/><path d="M242.48972,186.90879l-0.72279,-2.21938" data-paper-data="{&quot;index&quot;:null}" fill="none" stroke="#6d838b" stroke-linecap="round"/><path d="M240.66255,187.77967l-0.97637,-2.3298" data-paper-data="{&quot;index&quot;:null}" fill="none" stroke="#6d838b" stroke-linecap="round"/><path d="M238.15652,185.91462c0,0 6.03331,-2.57739 8.3265,-4.22238c1.01186,-0.72584 3.57678,-1.81666 4.54257,-2.91463c1.11039,-1.26236 -0.11198,-2.48518 -0.11198,-2.48518c0,0 2.79687,-0.34436 3.14389,0.90931c0.53764,1.9423 -3.62147,5.35113 -7.73451,7.7691c-3.67511,2.16052 -7.32799,3.45162 -7.32799,3.45162z" data-paper-data="{&quot;index&quot;:null}" fill="none" stroke="#000000" stroke-linecap="round"/><path d="M233.75109,183.34594c-0.01672,-0.28605 0.27183,-0.29978 0.27183,-0.29978l0.20555,0.00033c2.36147,0.52854 3.77563,2.52942 4.31037,4.72115c0.61959,1.61047 -0.17132,4.38832 -1.69584,5.29068c-0.04657,0.03941 -0.11259,0.071 -0.20017,0.0588c-0.05567,-0.00169 -0.11747,-0.01995 -0.17223,-0.07433c-0.0603,-0.04827 -0.08514,-0.1073 -0.09272,-0.16202c-0.02296,-0.09093 0.00682,-0.16287 0.04507,-0.21371c0.02605,-1.19388 -0.25995,-2.46355 -0.11103,-3.63178c0.06521,-1.93003 -1.11704,-3.89446 -2.32628,-5.32314c0,0 -0.04025,-0.04761 -0.06121,-0.1169c-0.07845,-0.02965 -0.16443,-0.09696 -0.17334,-0.24929z" fill="#d65605" stroke="none" stroke-linecap="butt"/><path d="M238.19299,191.07894c-1.25742,2.88753 -4.60406,4.21487 -7.47493,2.96471c-2.87087,-1.25017 -4.17882,-4.60443 -2.9214,-7.49196c1.25742,-2.88753 4.60406,-4.21488 7.47493,-2.96471c2.87087,1.25017 4.17882,4.60443 2.9214,7.49196z" fill="none" stroke="#000000" stroke-linecap="butt"/></g></g></g></svg>