<svg version="1.1" xmlns="http://www.w3.org/2000/svg" xmlns:xlink="http://www.w3.org/1999/xlink" width="401.41605" height="345.43142" viewBox="0,0,401.41605,345.43142"><g transform="translate(-9.8569,-5.04083)"><g data-paper-data="{&quot;isPaintingLayer&quot;:true}" fill-rule="nonzero" stroke-linejoin="miter" stroke-miterlimit="10" stroke-dasharray="" stroke-dashoffset="0" style="mix-blend-mode: normal"><g stroke-linecap="butt"><path d="M83.53825,109.0162c0,10.65123 9.09463,9.11965 5.75428,20.07681c-2.85158,9.35388 -8.25642,24.39494 -15.62706,33.34343c-5.68081,6.89691 -13.50523,10.5358 -17.28232,10.5358c-2.07049,0 -7.47732,-0.92465 -11.778,-4.05401c-2.80465,-2.04078 -4.4158,-5.50126 -6.81553,-8.59366c-4.39319,-5.66123 -13.43934,-26.92966 -16.75005,-36.48091c-2.03199,-5.86222 0.97197,-1.16764 0.05415,-3.86701c-4.23985,-12.4695 10.23124,2.04322 10.23124,-10.96043c0,-26.75202 11.68835,-48.43881 26.10664,-48.43881c14.41829,0 26.10664,21.6868 26.10664,48.43881z" fill="#0b1d1d" stroke="none" stroke-width="0"/><path d="M78.35519,76.18546c0,9.46248 14.23071,17.33136 15.88696,32.00423c0.45394,4.02147 -2.78393,11.30129 -4.20239,15.94926c-2.39913,7.86136 -8.01269,21.19117 -16.39234,29.56487c-8.33342,8.32747 -21.3254,11.72366 -22.97082,10.64804c-14.83043,-9.69462 -24.0451,-26.68484 -29.85525,-43.37592c-6.00467,-17.24985 -6.46445,-34.21699 -6.46445,-44.79048c0,-20.80449 4.99971,-67.55471 33.61935,-67.64373c76.82358,-0.23898 30.37894,46.83925 30.37894,67.64376z" fill="#304d48" stroke="none" stroke-width="0"/><path d="M97.25762,77.94068c0,21.02821 -9.93612,63.21713 -38.07493,70.74916c-19.77138,5.2923 -38.88503,-49.72095 -38.88503,-70.74914c0,-21.02821 14.33843,-80.20038 59.67771,-63.45821c18.46715,6.81926 17.28223,42.43 17.28223,63.45821z" fill="#0b1d1d" stroke="none" stroke-width="0"/><path d="M33.59982,103.74996c0,0 -3.9887,-22.08743 -4.70072,-31.37225c-0.71622,-9.33945 0.41592,-24.50153 0.41592,-24.50153l56.73074,-3.08504l-6.68428,59.64439c0,0 -14.49484,15.54064 -22.10702,15.42659c-7.64159,-0.11448 -23.65465,-16.11215 -23.65465,-16.11215z" fill="#000002" stroke="none" stroke-width="0"/><path d="M37.77347,33.64428c4.71737,-5.21078 10.56901,-12.37619 22.12126,-12.65238c11.56971,-0.27661 20.24889,3.72182 25.21094,13.68616c0.13977,0.28065 0.00624,0.79816 0.09478,1.52085c0.62059,5.06548 -3.17134,61.05582 -5.92052,66.9483c-4.14859,8.89201 -19.89119,7.94568 -23.11159,7.94169c-10.42854,-0.01292 -21.73208,-7.55423 -22.18901,-7.62051c-0.70179,-0.1018 -6.7413,-33.76735 -4.92952,-54.59374c0.71848,-8.25905 6.93566,-13.25531 8.72366,-15.23032z" fill="#000000" stroke="#000000" stroke-width="2.5"/><path d="M79.10056,104.98026c0,7.6945 -15.86491,23.24607 -21.96363,23.27488c-9.08344,0.04291 -23.43877,-16.236 -23.43877,-23.93051c0,-1.54063 3.15953,-1.59841 4.10573,-1.75411c0.85737,-0.14108 1.45641,0.36966 5.20668,3.78629c3.5847,3.26581 7.71609,11.26828 13.79856,10.42479c3.43555,-0.47643 5.80338,-3.10641 10.17526,-6.89439c3.16378,-2.74124 7.05951,-7.52552 7.62433,-7.39847c0.78124,0.17571 4.49185,0.91343 4.49185,2.49152z" fill="#779295" stroke="none" stroke-width="2"/></g><path d="M28.76217,70.67615c-0.5716,-7.2238 0.33181,-17.43561 0.33181,-17.43561c0,0 4.93368,-0.4853 15.33738,-3.55876c7.99278,-2.36124 16.12948,-7.17468 16.12948,-7.17468l-4.77473,6.93722c0,0 7.94607,-1.68008 14.86838,-4.35096c7.02393,-2.71009 11.93698,-6.74954 13.71602,-4.99343c3.15602,3.08812 0.81331,26.98519 -0.16139,31.10194c-0.22163,0.93603 -1.74725,4.5521 -2.35842,7.54418c-0.61117,2.99208 -1.37953,14.53433 -2.47093,19.45843c-1.24153,5.60148 -4.8365,8.26827 -10.63832,13.94981c-5.80182,5.68155 -10.58939,7.9261 -12.74684,7.94727c-2.74056,0.02689 -8.99344,-3.76593 -13.9456,-8.99788c-5.27325,-5.57119 -8.7904,-8.39643 -9.62302,-14.99562c-0.74986,-5.94327 -0.76914,-9.8142 -1.11197,-15.10318c-0.25057,-3.86558 -2.23966,-6.38368 -2.55183,-10.32873z" fill="#ffffff" stroke="#000000" stroke-width="1.5" stroke-linecap="butt"/><path d="M36.03973,56.96158l0.26515,-1.58387c0,0 3.18646,-2.08838 7.49726,-2.95795c4.29685,-0.86677 7.4858,-0.63068 7.4858,-0.63068l0.33494,4.37528c0,0 -3.28503,-0.3407 -7.28003,0.31192c-3.06666,0.23544 -16.69893,4.88138 -16.69893,4.88138l-0.16418,-1.31841z" fill="#000000" stroke="none" stroke-width="1.5" stroke-linecap="butt"/><g stroke="none" stroke-width="0" stroke-linecap="butt"><path d="M75.12949,108.2478c0,0.69267 -4.55257,13.72816 -17.7985,13.04356c-16.08259,-0.83123 -20.04968,-12.35089 -20.04968,-13.04356c0,-0.18782 1.88863,-1.7506 4.70443,-4.49757c1.96536,-1.91733 3.11974,-4.67526 5.196,-6.02155c2.56301,-1.66191 6.11813,-0.89399 7.19457,-0.89399c0.6028,0 1.51917,1.99146 2.4642,2.00287c1.15281,0.0139 2.34827,-1.93925 3.06919,-1.77005c1.14313,0.2683 4.35338,-0.36227 5.40214,0.08511c2.60486,1.11119 3.2167,4.8392 4.90958,6.60394c2.95289,3.07824 4.90806,4.15648 4.90806,4.49125z" fill="#000000"/><path d="M56.89801,104.1181c0,0 -3.73093,1.64926 -5.80837,1.84345c-2.82684,0.26425 -9.32068,0.32825 -9.32068,0.32825c0,0 2.05927,-2.14375 4.32073,-3.82442c1.27537,-0.94783 1.13421,-2.22884 2.21454,-2.99029c0.98716,-0.69579 2.82434,-0.9153 3.36564,-0.9153c0.31011,0 2.0918,-0.0027 2.99446,0.43498c1.00607,0.48784 1.58215,1.42299 2.78395,1.45537c1.03422,0.02786 1.03158,-0.85197 1.86938,-1.16166c0.42485,-0.15705 0.99617,-0.61055 1.87163,-0.70949c1.3162,-0.14875 2.98192,0.11474 3.17448,0.28648c0.19956,0.17799 1.04905,0.2664 1.40018,0.91991c0.53069,0.98768 0.61163,2.67128 1.05335,3.18639c2.06892,2.41259 4.45392,3.73094 4.45392,3.73094c0,0 -5.27446,0.20308 -7.70132,-0.21681c-2.39573,-0.41451 -6.67189,-2.36779 -6.67189,-2.36779z" fill="#ffffff"/><path d="M71.92257,108.80737c0,0 -4.01394,11.89467 -14.4109,11.49522c-13.13795,-0.50477 -16.55578,-12.56764 -16.55578,-12.56764l8.11436,0.09125c0,0 4.69604,6.10879 8.03926,6.10879c2.30433,0 7.60149,-4.86396 7.60149,-4.86396z" fill="#ffffff"/><path d="M59.85765,111.15333c0,0.09255 -1.23137,1.10595 -2.9157,1.10595c-1.68433,0 -3.18381,-1.0134 -3.18381,-1.10595c0,-0.09255 1.36543,-0.56973 3.04975,-0.56973c1.68433,0 3.04975,0.47718 3.04975,0.56973z" fill="#ffffff"/></g><path d="M78.61861,53.27215c0,0 2.52428,0.80417 3.81564,1.28133c1.33933,0.49488 4.08165,1.63674 4.08165,1.63674l-0.1138,1.59983c0,0 -7.2693,-3.75044 -15.08786,-3.78139c-6.25152,-0.02473 -9.89357,1.76027 -9.89357,1.76027l0.66727,-4.54055c0,0 5.10512,-1.12931 8.41293,-1.05044c3.30781,0.07887 7.75126,1.43584 7.75126,1.43584z" data-paper-data="{&quot;index&quot;:null}" fill="#000000" stroke="none" stroke-width="1.5" stroke-linecap="butt"/><path d="M33.3056,71.05584c0,-4.84582 4.31467,-8.77414 9.63711,-8.77414c5.32243,0 9.63711,3.92831 9.63711,8.77414c0,4.84582 -4.31467,8.77414 -9.63711,8.77414c-5.32243,0 -9.63711,-3.92831 -9.63711,-8.77414z" fill="#ffffff" stroke="#000000" stroke-width="1.5" stroke-linecap="butt"/><path d="M60.12285,96.41324c-0.12873,2.22357 -1.54357,3.85431 -3.99162,3.85431c-2.44806,0 -3.75065,-2.70224 -3.75065,-4.92993c0,-2.22768 1.3026,-3.13723 3.75065,-3.13723c2.44806,0 4.1621,1.2681 3.99162,4.21285z" fill="#ffffff" stroke="#000000" stroke-width="1" stroke-linecap="butt"/><path d="M37.70191,71.00023c0,-2.79162 2.26305,-5.05467 5.05467,-5.05467c2.79162,0 5.05467,2.26305 5.05467,5.05467c0,2.79162 -2.26304,5.05467 -5.05467,5.05467c-2.79162,0 -5.05467,-2.26305 -5.05467,-5.05467z" fill="#000000" stroke="none" stroke-width="1.5" stroke-linecap="butt"/><path d="M59.76925,70.85799l-1.13564,35.08008l-3.50884,0.00856c0,0 -1.01839,-25.12184 -1.73419,-30.85333c-0.29556,-2.36659 -0.53778,-4.44016 -0.53778,-4.44016" fill="#ffffff" stroke="#000000" stroke-width="1.5" stroke-linecap="round"/><path d="M60.16878,71.05584c0,-4.84582 4.2699,-8.77414 9.53711,-8.77414c5.2672,0 9.53711,3.92831 9.53711,8.77414c0,4.84582 -4.2699,8.77414 -9.53711,8.77414c-5.2672,0 -9.53711,-3.92831 -9.53711,-8.77414z" fill="#ffffff" stroke="#000000" stroke-width="1.5" stroke-linecap="butt"/><path d="M64.58729,71.00023c0,-2.79162 2.26305,-5.05467 5.05467,-5.05467c2.79162,0 5.05467,2.26305 5.05467,5.05467c0,2.79162 -2.26304,5.05467 -5.05467,5.05467c-2.79162,0 -5.05467,-2.26305 -5.05467,-5.05467z" fill="#000000" stroke="none" stroke-width="1.5" stroke-linecap="butt"/><path d="M33.08256,70.67654c0,0 -0.20396,-9.20795 10.23434,-9.32209c9.10107,-0.0995 9.6686,9.32209 9.6686,9.32209z" fill="#ffffff" stroke="#000000" stroke-width="1.25" stroke-linecap="butt"/><path d="M59.62204,70.2968c0,0 0.00695,-9.70149 10.92193,-9.34987c10.25337,0.3303 10.08746,9.34987 10.08746,9.34987z" fill="#ffffff" stroke="#000000" stroke-width="1.25" stroke-linecap="butt"/><g stroke-width="0" stroke-linecap="butt"><path d="M28.74328,80.76893l-0.45124,-15.11626c0,0 4.06286,-3.64752 6.36307,-4.87786c1.19319,-0.63822 3.34277,-1.84523 5.9982,-2.36124c2.97244,-0.57761 6.49309,-0.40354 8.30375,0.12095c3.11486,0.90229 8.0163,2.97871 8.05908,3.74259c0.01382,0.24662 1.74624,-1.10368 3.85358,-2.102c1.12502,-0.53297 5.80066,-2.89231 9.25182,-2.29132c0.83348,0.14515 5.47722,1.63792 9.00807,3.63714c3.10677,1.7591 5.19911,4.06311 5.19911,4.06311c0,0 -0.78078,14.65085 -1.54059,15.27234c-0.93602,0.76563 -10.83783,5.32461 -12.22806,5.73999c-1.12707,0.33677 -3.24146,-0.65844 -5.32847,-1.63505c-1.89736,-0.88786 -5.09025,-4.12078 -8.64247,-4.2433c-2.83584,-0.09783 -6.14619,2.72768 -7.41227,3.42283c-2.25444,1.2378 -4.97889,2.1557 -4.97889,2.1557c0,0 -4.45327,-0.86707 -6.91819,-1.70054c-2.20344,-0.74505 -8.53647,-3.82703 -8.53647,-3.82703z" fill="#934310" stroke="none"/><g><path d="M33.83118,71.58173c0,-4.85899 3.93899,-8.79797 8.79797,-8.79797c4.85898,0 8.79797,3.93899 8.79797,8.79797c0,4.85899 -3.93899,8.79796 -8.79797,8.79796c-4.85898,0 -8.79797,-3.93899 -8.79797,-8.79796z" fill="#fda707" stroke="none"/><path d="M36.2393,71.40393c0,-3.49487 2.83315,-6.32803 6.32804,-6.32803c3.49488,0 6.32804,2.83315 6.32804,6.32804c0,3.49487 -2.83315,6.32804 -6.32803,6.32804c-3.49488,0 -6.32803,-2.83315 -6.32803,-6.32803z" fill="#934310" stroke="none"/><path d="M46.91607,76.10029l-8.95229,-9.15751c0,0 1.96929,-1.85744 4.48156,-2.05502c1.5139,-0.11906 3.33159,0.44281 5.01874,2.2989c1.74088,1.91518 1.80695,3.65943 1.601,5.09126c-0.34276,2.38298 -2.14903,3.82237 -2.14903,3.82237z" fill="#dd6000" stroke="#000000"/></g><g><path d="M61.2885,71.6521c0,-4.85899 3.93899,-8.79797 8.79797,-8.79797c4.85898,0 8.79797,3.93899 8.79797,8.79797c0,4.85899 -3.93899,8.79797 -8.79797,8.79797c-4.85898,0 -8.79797,-3.93899 -8.79797,-8.79797z" fill="#fda707" stroke="none"/><path d="M63.6966,71.47432c0,-3.49487 2.83315,-6.32803 6.32804,-6.32803c3.49487,0 6.32804,2.83315 6.32804,6.32804c0,3.49487 -2.83315,6.32804 -6.32803,6.32804c-3.49488,0 -6.32803,-2.83315 -6.32803,-6.32803z" fill="#934310" stroke="none"/><path d="M74.37339,76.17068l-8.95229,-9.15752c0,0 1.96929,-1.85744 4.48156,-2.05502c1.51391,-0.11906 3.33158,0.44282 5.01872,2.29891c1.74089,1.91518 1.80696,3.65943 1.60101,5.09126c-0.34276,2.38298 -2.14902,3.82237 -2.14902,3.82237z" fill="#dd6000" stroke="#000000"/></g></g><g stroke-linecap="butt"><path d="M194.53823,107.0162c0,10.65123 9.09463,9.11965 5.75428,20.07681c-2.85158,9.35388 -8.25642,24.39494 -15.62706,33.34343c-5.68081,6.89691 -13.50523,10.5358 -17.28232,10.5358c-2.07049,0 -7.47732,-0.92465 -11.778,-4.05401c-2.80465,-2.04078 -4.4158,-5.50126 -6.81553,-8.59366c-4.39319,-5.66123 -13.43934,-26.92966 -16.75005,-36.48091c-2.03199,-5.86222 0.97197,-1.16764 0.05415,-3.86701c-4.23985,-12.4695 10.23124,2.04322 10.23124,-10.96043c0,-26.75202 11.68835,-48.43881 26.10664,-48.43881c14.41829,0 26.10664,21.6868 26.10664,48.43881z" fill="#0b1d1d" stroke="none" stroke-width="0"/><path d="M189.35519,74.18546c0,9.46248 14.23071,17.33136 15.88696,32.00423c0.45394,4.02147 -2.78393,11.30129 -4.20239,15.94926c-2.39913,7.86136 -8.01269,21.19117 -16.39234,29.56487c-8.33342,8.32747 -21.3254,11.72366 -22.97082,10.64804c-14.83043,-9.69462 -24.0451,-26.68484 -29.85525,-43.37592c-6.00467,-17.24985 -6.46445,-34.21699 -6.46445,-44.79048c0,-20.80449 4.99971,-67.55471 33.61935,-67.64373c76.82358,-0.23898 30.37894,46.83925 30.37894,67.64376z" fill="#304d48" stroke="none" stroke-width="0"/><path d="M208.25761,75.94068c0,21.02821 -9.93612,63.21713 -38.07493,70.74916c-19.77138,5.2923 -38.88503,-49.72095 -38.88503,-70.74914c0,-21.02821 14.33843,-80.20038 59.67771,-63.45821c18.46715,6.81926 17.28223,42.43 17.28223,63.45821z" fill="#0b1d1d" stroke="none" stroke-width="0"/><path d="M144.59982,101.74996c0,0 -3.9887,-22.08743 -4.70072,-31.37225c-0.71622,-9.33945 0.41592,-24.50153 0.41592,-24.50153l56.73074,-3.08504l-6.68428,59.64439c0,0 -14.49484,15.54064 -22.10702,15.42659c-7.64159,-0.11448 -23.65465,-16.11215 -23.65465,-16.11215z" fill="#000002" stroke="none" stroke-width="0"/><path d="M148.77346,31.64428c4.71737,-5.21078 10.56901,-12.37619 22.12126,-12.65238c11.56971,-0.27661 20.24889,3.72182 25.21094,13.68616c0.13977,0.28065 0.00624,0.79816 0.09478,1.52085c0.62059,5.06548 -3.17134,61.05582 -5.92052,66.9483c-4.14859,8.89201 -19.89119,7.94568 -23.11159,7.94169c-10.42854,-0.01292 -21.73208,-7.55423 -22.18901,-7.62051c-0.70179,-0.1018 -6.7413,-33.76735 -4.92952,-54.59374c0.71848,-8.25905 6.93566,-13.25531 8.72366,-15.23032z" fill="#000000" stroke="#000000" stroke-width="2.5"/><path d="M190.10055,102.98026c0,7.6945 -15.86491,23.24607 -21.96363,23.27488c-9.08344,0.04291 -23.43877,-16.236 -23.43877,-23.93051c0,-1.54063 3.15953,-1.59841 4.10573,-1.75411c0.85737,-0.14108 1.45641,0.36966 5.20668,3.78629c3.5847,3.26581 7.71609,11.26828 13.79856,10.42479c3.43555,-0.47643 5.80338,-3.10641 10.17526,-6.89439c3.16378,-2.74124 7.05951,-7.52552 7.62433,-7.39847c0.78124,0.17571 4.49185,0.91343 4.49185,2.49152z" fill="#779295" stroke="none" stroke-width="2"/></g><path d="M139.76216,68.67615c-0.5716,-7.2238 0.33181,-17.43561 0.33181,-17.43561c0,0 4.93368,-0.4853 15.33738,-3.55876c7.99278,-2.36124 16.12948,-7.17468 16.12948,-7.17468l-4.77473,6.93722c0,0 7.94607,-1.68008 14.86838,-4.35096c7.02393,-2.71009 11.93698,-6.74954 13.71602,-4.99343c3.15602,3.08812 0.81331,26.98519 -0.16139,31.10194c-0.22163,0.93603 -1.74725,4.5521 -2.35842,7.54418c-0.61117,2.99208 -1.37953,14.53433 -2.47093,19.45843c-1.24153,5.60148 -4.8365,8.26827 -10.63832,13.94981c-5.80182,5.68155 -10.58939,7.9261 -12.74684,7.94727c-2.74056,0.02689 -8.99344,-3.76593 -13.9456,-8.99788c-5.27325,-5.57119 -8.7904,-8.39643 -9.62302,-14.99562c-0.74986,-5.94327 -0.76914,-9.8142 -1.11197,-15.10318c-0.25057,-3.86558 -2.23966,-6.38368 -2.55183,-10.32873z" fill="#ffffff" stroke="#000000" stroke-width="1.5" stroke-linecap="butt"/><path d="M147.26774,55.72196l0.48169,-1.53197c0,0 3.4447,-1.62753 7.83435,-1.89244c4.37544,-0.26407 7.50108,0.41087 7.50108,0.41087l-0.2735,4.37955c0,0 -3.20632,-0.79183 -7.25319,-0.6981c-3.06975,-0.19103 -17.21362,2.52454 -17.21362,2.52454l0.01976,-1.32845z" fill="#000000" stroke="none" stroke-width="1.5" stroke-linecap="butt"/><g stroke-width="0" stroke-linecap="butt"><path d="M183.14035,103.82054c0,0.40892 1.23631,13.61046 -5.37008,19.63037c-3.30735,3.01374 -13.83779,1.14689 -16.93816,1.14689c-9.29335,0 -11.34597,-20.16363 -11.34597,-20.77727c0,-0.36042 2.88954,-2.66271 5.98115,-5.14334c1.46811,-1.17798 1.87806,-2.99854 4.09746,-3.55075c1.06425,-0.2648 2.21688,-0.41679 3.45981,-0.41679c0.41512,0 1.97443,0.00706 2.86354,0.68608c0.6723,0.51344 0.58583,1.74413 1.46843,1.7515c0.56097,0.00469 0.71538,-1.25235 1.30169,-1.47052c1.75174,-0.65183 3.88318,-0.83721 4.49009,-0.68667c1.019,0.25275 1.94128,0.5784 2.77484,0.95508c1.31261,0.59316 1.96675,2.20171 2.87069,2.96248c2.97819,2.5065 4.34651,4.57011 4.34651,4.91294z" fill="#000000" stroke="#000000"/><path d="M182.48262,104.59832c0,0.2408 0.78111,11.67398 -5.2558,17.2502c-3.19374,2.95002 -12.55855,1.41601 -15.62735,1.41601c-8.86955,0 -10.79785,-19.07578 -10.79785,-19.44397c0,-0.09627 4.37665,0.11924 4.37665,0.11924c0,0 1.27279,6.51539 4.45325,10.28915c2.28305,2.70894 6.02732,3.03573 8.76457,3.03573c1.88863,0 5.48219,-1.16406 6.98098,-3.6749c2.07088,-3.46924 1.73718,-8.60056 1.73718,-8.60056c0,0 5.36838,-0.57235 5.36838,-0.39089z" fill="#ffffff" stroke="none"/><path d="M173.93203,112.04259c0,0.30682 -2.43429,4.22212 -6.24851,4.22212c-3.81421,0 -7.56398,-3.9153 -7.56398,-4.22212c0,-0.30682 3.4209,2.11106 7.23511,2.11106c3.81421,0 6.57737,-2.41788 6.57737,-2.11106z" fill="#ffffff" stroke="none"/><path d="M174.80902,104.32053c0,0.39887 -3.43559,0.7222 -7.6736,0.7222c-4.23801,0 -7.6736,-0.32334 -7.6736,-0.7222c0,-0.39887 7.6736,-2.72215 7.6736,-2.72215c0,0 7.6736,2.32329 7.6736,2.72215z" fill="#ffffff" stroke="none"/><path d="M180.26672,103.26719c0,0 -3.14183,0.15162 -6.35748,-0.56353c-3.02854,-0.67354 -6.12255,-2.21635 -6.719,-2.21635c-0.32846,0 -3.49382,1.37744 -5.81614,1.89223c-2.46459,0.54633 -4.10425,0.23334 -4.85219,0.28616c-3.02908,0.21386 -3.41821,-0.78954 -3.41821,-0.78954c0,0 2.30619,-0.79853 4.36231,-2.26335c1.78455,-1.27136 3.27256,-3.23651 4.24308,-3.23651c0.20532,0 1.44123,-0.03208 2.36358,0.42615c1.20493,0.59861 2.26203,1.71994 3.71477,1.65805c1.22857,-0.05235 1.29236,-1.0855 2.27615,-1.66425c0.75656,-0.44507 2.46034,-0.53062 3.18886,-0.25044c2.04332,0.78582 2.81164,2.58567 3.91695,3.7912c1.63696,1.78539 3.09732,2.93018 3.09732,2.93018z" fill="#ffffff" stroke="none"/></g><path d="M189.46173,50.58978c0,0 2.61568,0.42059 3.96356,0.70079c1.39795,0.29061 4.27938,1.01278 4.27938,1.01278l0.12492,1.599c0,0 -7.74545,-2.62994 -15.482,-1.50005c-6.18594,0.90344 -9.52271,3.20925 -9.52271,3.20925l-0.01406,-4.5893c0,0 4.88095,-1.87454 8.16383,-2.28751c3.28288,-0.41297 7.87852,0.26944 7.87852,0.26944z" data-paper-data="{&quot;index&quot;:null}" fill="#000000" stroke="none" stroke-width="1.5" stroke-linecap="butt"/><path d="M144.30559,69.05584c0,-4.84582 4.31467,-8.77414 9.63711,-8.77414c5.32243,0 9.63711,3.92831 9.63711,8.77414c0,4.84582 -4.31467,8.77414 -9.63711,8.77414c-5.32243,0 -9.63711,-3.92831 -9.63711,-8.77414z" fill="#ffffff" stroke="#000000" stroke-width="1.5" stroke-linecap="butt"/><path d="M171.12284,94.41324c-0.12873,2.22357 -1.54357,3.85431 -3.99162,3.85431c-2.44806,0 -3.75065,-2.70224 -3.75065,-4.92993c0,-2.22768 1.3026,-3.13723 3.75065,-3.13723c2.44806,0 4.1621,1.2681 3.99162,4.21285z" fill="#ffffff" stroke="#000000" stroke-width="1" stroke-linecap="butt"/><path d="M148.70191,69.00023c0,-2.79162 2.26305,-5.05467 5.05467,-5.05467c2.79162,0 5.05467,2.26305 5.05467,5.05467c0,2.79162 -2.26304,5.05467 -5.05467,5.05467c-2.79162,0 -5.05467,-2.26305 -5.05467,-5.05467z" fill="#000000" stroke="none" stroke-width="1.5" stroke-linecap="butt"/><path d="M170.76923,68.85799l-1.13564,35.08008l-3.50884,0.00856c0,0 -1.01839,-25.12184 -1.73419,-30.85333c-0.29556,-2.36659 -0.53778,-4.44016 -0.53778,-4.44016" fill="#ffffff" stroke="#000000" stroke-width="1.5" stroke-linecap="round"/><path d="M171.16877,69.05584c0,-4.84582 4.2699,-8.77414 9.53711,-8.77414c5.2672,0 9.53711,3.92831 9.53711,8.77414c0,4.84582 -4.2699,8.77414 -9.53711,8.77414c-5.2672,0 -9.53711,-3.92831 -9.53711,-8.77414z" fill="#ffffff" stroke="#000000" stroke-width="1.5" stroke-linecap="butt"/><path d="M175.58729,69.00023c0,-2.79162 2.26305,-5.05467 5.05467,-5.05467c2.79162,0 5.05467,2.26305 5.05467,5.05467c0,2.79162 -2.26304,5.05467 -5.05467,5.05467c-2.79162,0 -5.05467,-2.26305 -5.05467,-5.05467z" fill="#000000" stroke="none" stroke-width="1.5" stroke-linecap="butt"/><path d="M144.08256,68.67654c0,0 -0.20396,-9.20795 10.23434,-9.32209c9.10107,-0.0995 9.6686,9.32209 9.6686,9.32209z" fill="#ffffff" stroke="#000000" stroke-width="1.25" stroke-linecap="butt"/><path d="M170.62203,68.2968c0,0 0.00695,-9.70149 10.92193,-9.34987c10.25337,0.3303 10.08746,9.34987 10.08746,9.34987z" fill="#ffffff" stroke="#000000" stroke-width="1.25" stroke-linecap="butt"/><g stroke-width="0" stroke-linecap="butt"><path d="M139.74327,78.76893l-0.45124,-15.11626c0,0 4.06286,-3.64752 6.36307,-4.87786c1.19319,-0.63822 3.34277,-1.84523 5.9982,-2.36124c2.97244,-0.57761 6.49309,-0.40354 8.30375,0.12095c3.11486,0.90229 8.0163,2.97871 8.05908,3.74259c0.01382,0.24662 1.74624,-1.10368 3.85358,-2.102c1.12502,-0.53297 5.80066,-2.89231 9.25182,-2.29132c0.83348,0.14515 5.47722,1.63792 9.00807,3.63714c3.10677,1.7591 5.19911,4.06311 5.19911,4.06311c0,0 -0.78078,14.65085 -1.54059,15.27234c-0.93602,0.76563 -10.83783,5.32461 -12.22806,5.73999c-1.12707,0.33677 -3.24146,-0.65844 -5.32847,-1.63505c-1.89736,-0.88786 -5.09025,-4.12078 -8.64247,-4.2433c-2.83584,-0.09783 -6.14619,2.72768 -7.41227,3.42283c-2.25444,1.2378 -4.97889,2.1557 -4.97889,2.1557c0,0 -4.45327,-0.86707 -6.91819,-1.70054c-2.20344,-0.74505 -8.53647,-3.82703 -8.53647,-3.82703z" fill="#934310" stroke="none"/><g><path d="M144.83118,69.58173c0,-4.85899 3.93899,-8.79797 8.79797,-8.79797c4.85898,0 8.79797,3.93899 8.79797,8.79797c0,4.85899 -3.93899,8.79796 -8.79797,8.79796c-4.85898,0 -8.79797,-3.93899 -8.79797,-8.79796z" fill="#fda707" stroke="none"/><path d="M147.23927,69.40393c0,-3.49487 2.83315,-6.32803 6.32804,-6.32803c3.49488,0 6.32804,2.83315 6.32804,6.32804c0,3.49487 -2.83315,6.32804 -6.32803,6.32804c-3.49488,0 -6.32803,-2.83315 -6.32803,-6.32803z" fill="#934310" stroke="none"/><path d="M157.91603,74.10029l-8.95229,-9.15751c0,0 1.96929,-1.85744 4.48156,-2.05502c1.5139,-0.11906 3.33159,0.44281 5.01874,2.2989c1.74088,1.91518 1.80695,3.65943 1.601,5.09126c-0.34276,2.38298 -2.14903,3.82237 -2.14903,3.82237z" fill="#dd6000" stroke="#000000"/></g><g><path d="M172.28848,69.6521c0,-4.85899 3.93899,-8.79797 8.79797,-8.79797c4.85898,0 8.79797,3.93899 8.79797,8.79797c0,4.85899 -3.93899,8.79797 -8.79797,8.79797c-4.85898,0 -8.79797,-3.93899 -8.79797,-8.79797z" fill="#fda707" stroke="none"/><path d="M174.6966,69.47432c0,-3.49487 2.83315,-6.32803 6.32804,-6.32803c3.49487,0 6.32804,2.83315 6.32804,6.32804c0,3.49487 -2.83315,6.32804 -6.32803,6.32804c-3.49488,0 -6.32803,-2.83315 -6.32803,-6.32803z" fill="#934310" stroke="none"/><path d="M185.37338,74.17068l-8.95229,-9.15752c0,0 1.96929,-1.85744 4.48156,-2.05502c1.51391,-0.11906 3.33158,0.44282 5.01872,2.29891c1.74089,1.91518 1.80696,3.65943 1.60101,5.09126c-0.34276,2.38298 -2.14902,3.82237 -2.14902,3.82237z" fill="#dd6000" stroke="#000000"/></g></g><g><g stroke-linecap="butt"><path d="M296.03826,105.51621c0,10.65123 9.09463,9.11965 5.75428,20.07681c-2.85158,9.35388 -8.25642,24.39494 -15.62706,33.34343c-5.68081,6.89691 -13.50523,10.5358 -17.28232,10.5358c-2.07049,0 -7.47732,-0.92465 -11.778,-4.05401c-2.80465,-2.04078 -4.4158,-5.50126 -6.81553,-8.59366c-4.39319,-5.66123 -13.43934,-26.92966 -16.75005,-36.48091c-2.03199,-5.86222 0.97197,-1.16764 0.05415,-3.86701c-4.23985,-12.4695 10.23124,2.04322 10.23124,-10.96043c0,-26.75202 11.68835,-48.43881 26.10664,-48.43881c14.41829,0 26.10664,21.6868 26.10664,48.43881z" fill="#0b1d1d" stroke="none" stroke-width="0"/><path d="M290.85518,72.68546c0,9.46248 14.23071,17.33136 15.88696,32.00423c0.45394,4.02147 -2.78393,11.30129 -4.20239,15.94926c-2.39913,7.86136 -8.01269,21.19117 -16.39234,29.56487c-8.33342,8.32747 -21.3254,11.72366 -22.97082,10.64804c-14.83043,-9.69462 -24.0451,-26.68484 -29.85525,-43.37592c-6.00467,-17.24985 -6.46445,-34.21699 -6.46445,-44.79048c0,-20.80449 4.99971,-67.55471 33.61935,-67.64373c76.82358,-0.23898 30.37894,46.83925 30.37894,67.64376z" fill="#304d48" stroke="none" stroke-width="0"/><path d="M309.7576,74.44069c0,21.02821 -9.93612,63.21713 -38.07493,70.74916c-19.77138,5.2923 -38.88503,-49.72095 -38.88503,-70.74914c0,-21.02821 14.33843,-80.20038 59.67771,-63.45821c18.46715,6.81926 17.28223,42.43 17.28223,63.45821z" fill="#0b1d1d" stroke="none" stroke-width="0"/><path d="M246.09981,100.24997c0,0 -3.9887,-22.08743 -4.70072,-31.37225c-0.71622,-9.33945 0.41592,-24.50153 0.41592,-24.50153l56.73074,-3.08504l-6.68428,59.64439c0,0 -14.49484,15.54064 -22.10702,15.42659c-7.64159,-0.11448 -23.65465,-16.11215 -23.65465,-16.11215z" fill="#000002" stroke="none" stroke-width="0"/><path d="M250.27346,30.14429c4.71737,-5.21078 10.56901,-12.37619 22.12126,-12.65238c11.56971,-0.27661 20.24889,3.72182 25.21094,13.68616c0.13977,0.28065 0.00624,0.79816 0.09478,1.52085c0.62059,5.06548 -3.17134,61.05582 -5.92052,66.9483c-4.14859,8.89201 -19.89119,7.94568 -23.11159,7.94169c-10.42854,-0.01292 -21.73208,-7.55423 -22.18901,-7.62051c-0.70179,-0.1018 -6.7413,-33.76735 -4.92952,-54.59374c0.71848,-8.25905 6.93566,-13.25531 8.72366,-15.23032z" fill="#000000" stroke="#000000" stroke-width="2.5"/><path d="M291.60054,101.48027c0,7.6945 -15.86491,23.24607 -21.96363,23.27488c-9.08344,0.04291 -23.43877,-16.236 -23.43877,-23.93051c0,-1.54063 3.15953,-1.59841 4.10573,-1.75411c0.85737,-0.14108 1.45641,0.36966 5.20668,3.78629c3.5847,3.26581 7.71609,11.26828 13.79856,10.42479c3.43555,-0.47643 5.80338,-3.10641 10.17526,-6.89439c3.16378,-2.74124 7.05951,-7.52552 7.62433,-7.39847c0.78124,0.17571 4.49185,0.91343 4.49185,2.49152z" fill="#779295" stroke="none" stroke-width="2"/></g><path d="M241.26216,67.17615c-0.5716,-7.2238 0.33181,-17.43561 0.33181,-17.43561c0,0 4.93368,-0.4853 15.33738,-3.55876c7.99278,-2.36124 16.12948,-7.17468 16.12948,-7.17468l-4.77473,6.93722c0,0 7.94607,-1.68008 14.86838,-4.35096c7.02393,-2.71009 11.93698,-6.74954 13.71602,-4.99343c3.15602,3.08812 0.81331,26.98519 -0.16139,31.10194c-0.22163,0.93603 -1.74725,4.5521 -2.35842,7.54418c-0.61117,2.99208 -1.37953,14.53433 -2.47093,19.45843c-0.7165,3.23269 -1.21685,2.48795 -3.47285,4.90935c-1.65311,1.7743 -4.71196,6.63781 -7.16547,9.04046c-5.80182,5.68155 -10.58939,7.9261 -12.74684,7.94727c-2.74056,0.02689 -8.99344,-3.76593 -13.9456,-8.99788c-2.48746,-2.628 -1.58417,-4.445 -3.19267,-6.53533c-1.80141,-2.34103 -5.99049,-4.97403 -6.43035,-8.46029c-0.74986,-5.94327 -0.76914,-9.8142 -1.11197,-15.10318c-0.25057,-3.86558 -2.23966,-6.38368 -2.55183,-10.32873z" fill="#ffffff" stroke="#000000" stroke-width="1.5" stroke-linecap="butt"/><g stroke="none" stroke-width="0" stroke-linecap="butt"><path d="M288.02386,100.2052c0,0.47279 -3.28806,11.81022 -10.06737,17.0963c-2.38248,1.85772 -5.84548,1.05943 -9.00899,0.83793c-1.80188,-0.12616 -3.50659,0.49565 -4.85915,0.49565c-10.48421,0 -14.03116,-17.6963 -14.03116,-18.42989c0,-0.73359 4.49023,-5.75588 14.97444,-5.75588c0.97724,0 2.67149,-0.02348 3.26769,0.57575c0.50659,0.50916 -0.10741,1.65255 0.84936,1.68342c1.13484,0.03663 2.7683,-1.16015 4.31937,-1.62607c1.43903,-0.43228 2.80715,-0.14299 3.64036,0.04744c6.18053,1.41251 10.91547,4.60108 10.91547,5.07535z" fill="#000000"/><path d="M283.23652,99.3197c0,1.00869 -6.07822,0.33207 -13.78091,0.33207c-7.70268,0 -14.11298,-1.32828 -14.11298,-1.32828c0,0 2.09338,-2.65656 9.79607,-2.65656c1.46766,0 2.63654,1.98685 4.32056,2.03783c2.0454,0.06192 4.61407,-1.78516 6.38323,-1.44509c4.41886,0.84939 7.39402,2.47698 7.39402,3.06003z" fill="#ffffff"/><path d="M286.39117,101.81022c0,0.57057 -3.72235,10.22327 -10.4317,14.59002c-1.81258,1.17971 -4.42739,-0.08494 -6.86828,-0.21861c-1.59262,-0.08722 -3.1112,1.06984 -4.28457,1.06984c-9.62835,0 -13.2828,-14.61597 -13.2828,-15.44126c0,-0.26889 2.87387,-2.56546 4.39541,-1.28621c1.73857,1.46173 2.21098,5.26546 4.71678,7.63544c2.03201,1.92188 5.91282,2.61666 8.81959,2.61666c3.01554,0 6.30311,-0.6872 8.32422,-2.80112c1.28469,-1.34368 1.46398,-4.05542 2.64685,-4.98632c2.89798,-2.28065 5.9645,-1.58097 5.9645,-1.17846z" fill="#ffffff"/><path d="M275.43286,107.53843c0,0.22925 -2.43818,2.07544 -6.06028,2.07544c-3.62209,0 -7.05649,-1.84619 -7.05649,-2.07544c0,-0.22925 2.93629,0.41509 6.55838,0.41509c3.62209,0 6.55838,-0.64434 6.55838,-0.41509z" fill="#ffffff"/><path d="M277.59131,101.39514c0,0.59605 -3.67965,1.07923 -8.21873,1.07923c-4.53908,0 -8.21873,-0.48318 -8.21873,-1.07923c0,-0.59605 3.67965,-1.07923 8.21873,-1.07923c4.53908,0 8.21873,0.48318 8.21873,1.07923z" fill="#ffffff"/></g><path d="M248.16568,51.59072l0.58324,-1.49625c0,0 3.54598,-1.3931 7.94353,-1.36334c4.3833,0.02965 7.45669,0.91247 7.45669,0.91247l-0.56629,4.35139c0,0 -3.14607,-1.00485 -7.19013,-1.18245c-3.05006,-0.39625 -17.34408,1.36567 -17.34408,1.36567l0.10871,-1.32414z" fill="#000000" stroke="none" stroke-width="1.5" stroke-linecap="butt"/><path d="M290.96173,49.08978c0,0 2.61568,0.42059 3.96356,0.70079c1.39795,0.2906 4.27938,1.01278 4.27938,1.01278l0.12492,1.599c0,0 -7.74545,-2.62993 -15.482,-1.50005c-6.18595,0.90344 -9.52271,3.20925 -9.52271,3.20925l-0.01406,-4.5893c0,0 4.88095,-1.87453 8.16383,-2.28751c3.28287,-0.41298 7.87852,0.26944 7.87852,0.26944z" data-paper-data="{&quot;index&quot;:null}" fill="#000000" stroke="none" stroke-width="1.5" stroke-linecap="butt"/><path d="M245.80559,67.55585c0,-4.84582 4.31467,-8.77414 9.63711,-8.77414c5.32243,0 9.63711,3.92831 9.63711,8.77414c0,4.84582 -4.31467,8.77414 -9.63711,8.77414c-5.32243,0 -9.63711,-3.92831 -9.63711,-8.77414z" fill="#ffffff" stroke="#000000" stroke-width="1.5" stroke-linecap="butt"/><path d="M272.62283,92.91325c-0.12873,2.22357 -1.54357,3.85431 -3.99162,3.85431c-2.44806,0 -3.75065,-2.70224 -3.75065,-4.92993c0,-2.22768 1.3026,-3.13723 3.75065,-3.13723c2.44806,0 4.1621,1.2681 3.99162,4.21285z" fill="#ffffff" stroke="#000000" stroke-width="1" stroke-linecap="butt"/><path d="M250.20191,67.50024c0,-2.79162 2.26305,-5.05467 5.05467,-5.05467c2.79162,0 5.05467,2.26305 5.05467,5.05467c0,2.79162 -2.26304,5.05467 -5.05467,5.05467c-2.79162,0 -5.05467,-2.26305 -5.05467,-5.05467z" fill="#000000" stroke="none" stroke-width="1.5" stroke-linecap="butt"/><path d="M272.26923,67.358l-1.13564,35.08008l-3.50884,0.00856c0,0 -1.01839,-25.12184 -1.73419,-30.85333c-0.29556,-2.36659 -0.53778,-4.44016 -0.53778,-4.44016" fill="#ffffff" stroke="#000000" stroke-width="1.5" stroke-linecap="round"/><path d="M272.66876,67.55585c0,-4.84582 4.2699,-8.77414 9.53711,-8.77414c5.2672,0 9.53711,3.92831 9.53711,8.77414c0,4.84582 -4.2699,8.77414 -9.53711,8.77414c-5.2672,0 -9.53711,-3.92831 -9.53711,-8.77414z" fill="#ffffff" stroke="#000000" stroke-width="1.5" stroke-linecap="butt"/><path d="M277.08727,67.50024c0,-2.79162 2.26305,-5.05467 5.05467,-5.05467c2.79162,0 5.05467,2.26305 5.05467,5.05467c0,2.79162 -2.26304,5.05467 -5.05467,5.05467c-2.79162,0 -5.05467,-2.26305 -5.05467,-5.05467z" fill="#000000" stroke="none" stroke-width="1.5" stroke-linecap="butt"/><path d="M245.58257,67.17655c0,0 -0.20396,-9.20795 10.23434,-9.32209c9.10107,-0.0995 9.6686,9.32209 9.6686,9.32209z" fill="#ffffff" stroke="#000000" stroke-width="1.25" stroke-linecap="butt"/><path d="M272.12202,66.79681c0,0 0.00695,-9.70149 10.92193,-9.34987c10.25337,0.3303 10.08746,9.34987 10.08746,9.34987z" fill="#ffffff" stroke="#000000" stroke-width="1.25" stroke-linecap="butt"/><g stroke-width="0" stroke-linecap="butt"><path d="M241.24327,77.26894l-0.45124,-15.11626c0,0 4.06286,-3.64752 6.36307,-4.87786c1.19319,-0.63822 3.34277,-1.84523 5.9982,-2.36124c2.97244,-0.57761 6.49309,-0.40354 8.30375,0.12095c3.11486,0.90229 8.0163,2.97871 8.05908,3.74259c0.01382,0.24662 1.74624,-1.10368 3.85358,-2.102c1.12502,-0.53297 5.80066,-2.89231 9.25182,-2.29132c0.83348,0.14515 5.47722,1.63792 9.00807,3.63714c3.10677,1.7591 5.19911,4.06311 5.19911,4.06311c0,0 -0.78078,14.65085 -1.54059,15.27234c-0.93602,0.76563 -10.83783,5.32461 -12.22806,5.73999c-1.12707,0.33677 -3.24146,-0.65844 -5.32847,-1.63505c-1.89736,-0.88786 -5.09025,-4.12078 -8.64247,-4.2433c-2.83584,-0.09783 -6.14619,2.72768 -7.41227,3.42283c-2.25444,1.2378 -4.97889,2.1557 -4.97889,2.1557c0,0 -4.45327,-0.86707 -6.91819,-1.70054c-2.20344,-0.74505 -8.53647,-3.82703 -8.53647,-3.82703z" fill="#934310" stroke="none"/><g><path d="M246.33118,68.08173c0,-4.85899 3.93899,-8.79797 8.79797,-8.79797c4.85898,0 8.79797,3.93899 8.79797,8.79797c0,4.85899 -3.93899,8.79796 -8.79797,8.79796c-4.85898,0 -8.79797,-3.93899 -8.79797,-8.79796z" fill="#fda707" stroke="none"/><path d="M248.7393,67.90394c0,-3.49487 2.83315,-6.32803 6.32804,-6.32803c3.49488,0 6.32804,2.83315 6.32804,6.32804c0,3.49487 -2.83315,6.32804 -6.32803,6.32804c-3.49488,0 -6.32803,-2.83315 -6.32803,-6.32803z" fill="#934310" stroke="none"/><path d="M259.41605,72.6003l-8.95229,-9.15751c0,0 1.96929,-1.85744 4.48156,-2.05502c1.5139,-0.11906 3.33159,0.44281 5.01874,2.2989c1.74088,1.91518 1.80695,3.65943 1.601,5.09126c-0.34276,2.38298 -2.14903,3.82237 -2.14903,3.82237z" fill="#dd6000" stroke="#000000"/></g><g><path d="M273.78846,68.15211c0,-4.85899 3.93899,-8.79797 8.79797,-8.79797c4.85898,0 8.79797,3.93899 8.79797,8.79797c0,4.85899 -3.93899,8.79797 -8.79797,8.79797c-4.85898,0 -8.79797,-3.93899 -8.79797,-8.79797z" fill="#fda707" stroke="none"/><path d="M276.19658,67.97432c0,-3.49487 2.83315,-6.32803 6.32804,-6.32803c3.49487,0 6.32804,2.83315 6.32804,6.32804c0,3.49487 -2.83315,6.32804 -6.32803,6.32804c-3.49488,0 -6.32803,-2.83315 -6.32803,-6.32803z" fill="#934310" stroke="none"/><path d="M286.87337,72.67069l-8.95229,-9.15752c0,0 1.96929,-1.85744 4.48156,-2.05502c1.51391,-0.11906 3.33158,0.44282 5.01872,2.29891c1.74089,1.91518 1.80696,3.65943 1.60101,5.09126c-0.34276,2.38298 -2.14902,3.82237 -2.14902,3.82237z" fill="#dd6000" stroke="#000000"/></g></g></g><g><g stroke-linecap="butt"><path d="M397.53826,106.0162c0,10.65123 9.09463,9.11965 5.75428,20.07681c-2.85158,9.35388 -8.25642,24.39494 -15.62706,33.34343c-5.68081,6.89691 -13.50523,10.5358 -17.28232,10.5358c-2.07049,0 -7.47732,-0.92465 -11.778,-4.05401c-2.80465,-2.04078 -4.4158,-5.50126 -6.81553,-8.59366c-4.39319,-5.66123 -13.43934,-26.92966 -16.75005,-36.48091c-2.03199,-5.86222 0.97197,-1.16764 0.05415,-3.86701c-4.23985,-12.4695 10.23124,2.04322 10.23124,-10.96043c0,-26.75202 11.68835,-48.43881 26.10664,-48.43881c14.41829,0 26.10664,21.6868 26.10664,48.43881z" fill="#0b1d1d" stroke="none" stroke-width="0"/><path d="M392.35522,73.18546c0,9.46248 14.23071,17.33136 15.88696,32.00423c0.45394,4.02147 -2.78393,11.30129 -4.20239,15.94926c-2.39913,7.86136 -8.01269,21.19117 -16.39234,29.56487c-8.33342,8.32747 -21.3254,11.72366 -22.97082,10.64804c-14.83043,-9.69462 -24.0451,-26.68484 -29.85525,-43.37592c-6.00467,-17.24985 -6.46445,-34.21699 -6.46445,-44.79048c0,-20.80449 4.99971,-67.55471 33.61935,-67.64373c76.82358,-0.23898 30.37894,46.83925 30.37894,67.64376z" fill="#304d48" stroke="none" stroke-width="0"/><path d="M411.25764,74.94068c0,21.02821 -9.93612,63.21713 -38.07493,70.74916c-19.77138,5.2923 -38.88503,-49.72095 -38.88503,-70.74914c0,-21.02821 14.33843,-80.20038 59.67771,-63.45821c18.46715,6.81926 17.28223,42.43 17.28223,63.45821z" fill="#0b1d1d" stroke="none" stroke-width="0"/><path d="M347.59982,100.74996c0,0 -3.9887,-22.08743 -4.70072,-31.37225c-0.71622,-9.33945 0.41592,-24.50153 0.41592,-24.50153l56.73074,-3.08504l-6.68428,59.64439c0,0 -14.49484,15.54064 -22.10702,15.42659c-7.64159,-0.11448 -23.65465,-16.11215 -23.65465,-16.11215z" fill="#000002" stroke="none" stroke-width="0"/><path d="M351.77349,30.64428c4.71737,-5.21078 10.56901,-12.37619 22.12126,-12.65238c11.56971,-0.27661 20.24889,3.72182 25.21094,13.68616c0.13977,0.28065 0.00624,0.79816 0.09478,1.52085c0.62059,5.06548 -3.17134,61.05582 -5.92052,66.9483c-4.14859,8.89201 -19.89119,7.94568 -23.11159,7.94169c-10.42854,-0.01292 -21.73208,-7.55423 -22.18901,-7.62051c-0.70179,-0.1018 -6.7413,-33.76735 -4.92952,-54.59374c0.71848,-8.25905 6.93566,-13.25531 8.72366,-15.23032z" fill="#000000" stroke="#000000" stroke-width="2.5"/><path d="M393.10058,101.98026c0,7.6945 -15.86491,23.24607 -21.96363,23.27488c-9.08344,0.04291 -23.43877,-16.236 -23.43877,-23.93051c0,-1.54063 3.15953,-1.59841 4.10573,-1.75411c0.85737,-0.14108 1.45641,0.36966 5.20668,3.78629c3.5847,3.26581 7.71609,11.26828 13.79856,10.42479c3.43555,-0.47643 5.80338,-3.10641 10.17526,-6.89439c3.16378,-2.74124 7.05951,-7.52552 7.62433,-7.39847c0.78124,0.17571 4.49185,0.91343 4.49185,2.49152z" fill="#779295" stroke="none" stroke-width="2"/></g><path d="M342.76219,67.67615c-0.5716,-7.2238 0.33181,-17.43561 0.33181,-17.43561c0,0 4.93368,-0.4853 15.33738,-3.55876c7.99278,-2.36124 16.12948,-7.17468 16.12948,-7.17468l-4.77473,6.93722c0,0 7.94607,-1.68008 14.86838,-4.35096c7.02393,-2.71009 11.93698,-6.74954 13.71602,-4.99343c3.15602,3.08812 0.81331,26.98519 -0.16139,31.10194c-0.22163,0.93603 -1.74725,4.5521 -2.35842,7.54418c-0.61117,2.99208 -1.37953,14.53433 -2.47093,19.45843c-1.24153,5.60148 -4.8365,8.26827 -10.63832,13.94981c-5.80182,5.68155 -10.58939,7.9261 -12.74684,7.94727c-2.74056,0.02689 -8.99344,-3.76593 -13.9456,-8.99788c-5.27325,-5.57119 -8.7904,-8.39643 -9.62302,-14.99562c-0.74986,-5.94327 -0.76914,-9.8142 -1.11197,-15.10318c-0.25057,-3.86558 -2.23966,-6.38368 -2.55183,-10.32873z" fill="#ffffff" stroke="#000000" stroke-width="1.5" stroke-linecap="butt"/><path d="M350.03975,53.96158l0.26515,-1.58387c0,0 3.18646,-2.08838 7.49726,-2.95795c4.29685,-0.86677 7.4858,-0.63068 7.4858,-0.63068l0.33494,4.37528c0,0 -3.28503,-0.3407 -7.28003,0.31192c-3.06666,0.23544 -16.69893,4.88138 -16.69893,4.88138l-0.16418,-1.31841z" fill="#000000" stroke="none" stroke-width="1.5" stroke-linecap="butt"/><path d="M392.61861,50.27215c0,0 2.52428,0.80417 3.81564,1.28133c1.33933,0.49488 4.08165,1.63674 4.08165,1.63674l-0.1138,1.59983c0,0 -7.2693,-3.75044 -15.08786,-3.78139c-6.25152,-0.02473 -9.89357,1.76027 -9.89357,1.76027l0.66727,-4.54055c0,0 5.10512,-1.12931 8.41293,-1.05044c3.30781,0.07887 7.75126,1.43584 7.75126,1.43584z" data-paper-data="{&quot;index&quot;:null}" fill="#000000" stroke="none" stroke-width="1.5" stroke-linecap="butt"/><path d="M347.3056,68.05584c0,-4.84582 4.31467,-8.77414 9.63711,-8.77414c5.32243,0 9.63711,3.92831 9.63711,8.77414c0,4.84582 -4.31467,8.77414 -9.63711,8.77414c-5.32243,0 -9.63711,-3.92831 -9.63711,-8.77414z" fill="#ffffff" stroke="#000000" stroke-width="1.5" stroke-linecap="butt"/><g stroke-width="0" stroke-linecap="butt"><path d="M386.64034,100.79076c0,0.35522 1.23631,11.82312 -5.37008,17.0525c-3.30735,2.61797 -13.83779,0.99628 -16.93816,0.99628c-9.29335,0 -11.34597,-17.51573 -11.34597,-18.04878c0,-0.31309 2.88954,-2.31304 5.98115,-4.46791c1.46811,-1.02329 1.87806,-2.60477 4.09746,-3.08446c1.06425,-0.23003 2.21688,-0.36206 3.45981,-0.36206c0.41512,0 1.97443,0.00613 2.86354,0.59598c0.6723,0.44601 0.58583,1.51509 1.46843,1.52149c0.56097,0.00407 0.71538,-1.08789 1.30169,-1.27741c1.75174,-0.56623 3.88318,-0.72727 4.49009,-0.5965c1.019,0.21956 1.94128,0.50244 2.77484,0.82966c1.31261,0.51527 1.96675,1.91258 2.87069,2.57344c2.97819,2.17734 4.34651,3.96996 4.34651,4.26777z" fill="#000000" stroke="#000000"/><path d="M385.98262,101.4664c0,0.20918 0.78111,10.14094 -5.2558,14.98489c-3.19374,2.56262 -12.55855,1.23006 -15.62735,1.23006c-8.86955,0 -10.79785,-16.57073 -10.79785,-16.89057c0,-0.08363 4.37665,0.10358 4.37665,0.10358c0,0 1.27279,5.65978 4.45325,8.93797c2.28305,2.3532 6.02732,2.63708 8.76457,2.63708c1.88863,0 5.48219,-1.01119 6.98098,-3.19231c2.07088,-3.01366 1.73718,-7.47113 1.73718,-7.47113c0,0 5.36838,-0.49719 5.36838,-0.33956z" fill="#ffffff" stroke="none"/><path d="M377.43204,107.93308c0,0.26653 -2.43429,3.66767 -6.24851,3.66767c-3.81421,0 -7.56398,-3.40114 -7.56398,-3.66767c0,-0.26653 3.4209,1.83383 7.23511,1.83383c3.81421,0 6.57737,-2.10036 6.57737,-1.83383z" fill="#ffffff" stroke="none"/><path d="M378.30902,101.22509c0,0.34649 -3.43559,0.62736 -7.6736,0.62736c-4.23801,0 -7.6736,-0.28088 -7.6736,-0.62736c0,-0.34649 7.6736,-2.36468 7.6736,-2.36468c0,0 7.6736,2.01819 7.6736,2.36468z" fill="#ffffff" stroke="none"/><path d="M383.76674,100.31007c0,0 -3.14183,0.13171 -6.35748,-0.48953c-3.02854,-0.58509 -6.12255,-1.9253 -6.719,-1.9253c-0.32846,0 -3.49382,1.19655 -5.81614,1.64374c-2.46459,0.47459 -4.10425,0.2027 -4.85219,0.24858c-3.02908,0.18578 -3.41821,-0.68586 -3.41821,-0.68586c0,0 2.30619,-0.69367 4.36231,-1.96613c1.78455,-1.1044 3.27256,-2.81149 4.24308,-2.81149c0.20532,0 1.44123,-0.02787 2.36358,0.37019c1.20493,0.52 2.26203,1.49408 3.71477,1.44031c1.22857,-0.04548 1.29236,-0.94295 2.27615,-1.4457c0.75656,-0.38662 2.46034,-0.46094 3.18886,-0.21755c2.04332,0.68263 2.81164,2.24612 3.91695,3.29334c1.63696,1.55093 3.09732,2.54539 3.09732,2.54539z" fill="#ffffff" stroke="none"/></g><path d="M374.12287,93.41324c-0.12873,2.22357 -1.54357,3.85431 -3.99162,3.85431c-2.44806,0 -3.75065,-2.70224 -3.75065,-4.92993c0,-2.22768 1.3026,-3.13723 3.75065,-3.13723c2.44806,0 4.1621,1.2681 3.99162,4.21285z" fill="#ffffff" stroke="#000000" stroke-width="1" stroke-linecap="butt"/><path d="M351.70191,68.00023c0,-2.79162 2.26305,-5.05467 5.05467,-5.05467c2.79162,0 5.05467,2.26305 5.05467,5.05467c0,2.79162 -2.26304,5.05467 -5.05467,5.05467c-2.79162,0 -5.05467,-2.26305 -5.05467,-5.05467z" fill="#000000" stroke="none" stroke-width="1.5" stroke-linecap="butt"/><path d="M373.76926,67.85799l-1.13564,35.08008l-3.50884,0.00856c0,0 -1.01839,-25.12184 -1.73419,-30.85333c-0.29556,-2.36659 -0.53778,-4.44016 -0.53778,-4.44016" fill="#ffffff" stroke="#000000" stroke-width="1.5" stroke-linecap="round"/><path d="M374.1688,68.05584c0,-4.84582 4.2699,-8.77414 9.53711,-8.77414c5.2672,0 9.53711,3.92831 9.53711,8.77414c0,4.84582 -4.2699,8.77414 -9.53711,8.77414c-5.2672,0 -9.53711,-3.92831 -9.53711,-8.77414z" fill="#ffffff" stroke="#000000" stroke-width="1.5" stroke-linecap="butt"/><path d="M378.5873,68.00023c0,-2.79162 2.26305,-5.05467 5.05467,-5.05467c2.79162,0 5.05467,2.26305 5.05467,5.05467c0,2.79162 -2.26304,5.05467 -5.05467,5.05467c-2.79162,0 -5.05467,-2.26305 -5.05467,-5.05467z" fill="#000000" stroke="none" stroke-width="1.5" stroke-linecap="butt"/><path d="M347.08257,67.67654c0,0 -0.20396,-9.20795 10.23434,-9.32209c9.10107,-0.0995 9.6686,9.32209 9.6686,9.32209z" fill="#ffffff" stroke="#000000" stroke-width="1.25" stroke-linecap="butt"/><path d="M373.62206,67.2968c0,0 0.00695,-9.70149 10.92193,-9.34987c10.25337,0.3303 10.08746,9.34987 10.08746,9.34987z" fill="#ffffff" stroke="#000000" stroke-width="1.25" stroke-linecap="butt"/><g stroke-width="0" stroke-linecap="butt"><path d="M342.74328,77.76893l-0.45124,-15.11626c0,0 4.06286,-3.64752 6.36307,-4.87786c1.19319,-0.63822 3.34277,-1.84523 5.9982,-2.36124c2.97244,-0.57761 6.49309,-0.40354 8.30375,0.12095c3.11486,0.90229 8.0163,2.97871 8.05908,3.74259c0.01382,0.24662 1.74624,-1.10368 3.85358,-2.102c1.12502,-0.53297 5.80066,-2.89231 9.25182,-2.29132c0.83348,0.14515 5.47722,1.63792 9.00807,3.63714c3.10677,1.7591 5.19911,4.06311 5.19911,4.06311c0,0 -0.78078,14.65085 -1.54059,15.27234c-0.93602,0.76563 -10.83783,5.32461 -12.22806,5.73999c-1.12707,0.33677 -3.24146,-0.65844 -5.32847,-1.63505c-1.89736,-0.88786 -5.09025,-4.12078 -8.64247,-4.2433c-2.83584,-0.09783 -6.14619,2.72768 -7.41227,3.42283c-2.25444,1.2378 -4.97889,2.1557 -4.97889,2.1557c0,0 -4.45327,-0.86707 -6.91819,-1.70054c-2.20344,-0.74505 -8.53647,-3.82703 -8.53647,-3.82703z" fill="#934310" stroke="none"/><g><path d="M347.83118,68.58173c0,-4.85899 3.93899,-8.79797 8.79797,-8.79797c4.85898,0 8.79797,3.93899 8.79797,8.79797c0,4.85899 -3.93899,8.79796 -8.79797,8.79796c-4.85898,0 -8.79797,-3.93899 -8.79797,-8.79796z" fill="#fda707" stroke="none"/><path d="M350.23932,68.40393c0,-3.49487 2.83315,-6.32803 6.32804,-6.32803c3.49488,0 6.32804,2.83315 6.32804,6.32804c0,3.49487 -2.83315,6.32804 -6.32803,6.32804c-3.49488,0 -6.32803,-2.83315 -6.32803,-6.32803z" fill="#934310" stroke="none"/><path d="M360.91607,73.10029l-8.95229,-9.15751c0,0 1.96929,-1.85744 4.48156,-2.05502c1.5139,-0.11906 3.33159,0.44281 5.01874,2.2989c1.74088,1.91518 1.80695,3.65943 1.601,5.09126c-0.34276,2.38298 -2.14903,3.82237 -2.14903,3.82237z" fill="#dd6000" stroke="#000000"/></g><g><path d="M375.2885,68.6521c0,-4.85899 3.93899,-8.79797 8.79797,-8.79797c4.85898,0 8.79797,3.93899 8.79797,8.79797c0,4.85899 -3.93899,8.79797 -8.79797,8.79797c-4.85898,0 -8.79797,-3.93899 -8.79797,-8.79797z" fill="#fda707" stroke="none"/><path d="M377.6966,68.47432c0,-3.49487 2.83315,-6.32803 6.32804,-6.32803c3.49487,0 6.32804,2.83315 6.32804,6.32804c0,3.49487 -2.83315,6.32804 -6.32803,6.32804c-3.49488,0 -6.32803,-2.83315 -6.32803,-6.32803z" fill="#934310" stroke="none"/><path d="M388.37341,73.17068l-8.95229,-9.15752c0,0 1.96929,-1.85744 4.48156,-2.05502c1.51391,-0.11906 3.33158,0.44282 5.01872,2.29891c1.74089,1.91518 1.80696,3.65943 1.60101,5.09126c-0.34276,2.38298 -2.14902,3.82237 -2.14902,3.82237z" fill="#dd6000" stroke="#000000"/></g></g></g><g><g stroke-linecap="butt"><path d="M79.03824,286.5162c0,10.65123 9.09463,9.11965 5.75428,20.07681c-2.85158,9.35388 -8.25642,24.39494 -15.62706,33.34343c-5.68081,6.89691 -13.50523,10.5358 -17.28232,10.5358c-2.07049,0 -7.47732,-0.92465 -11.778,-4.05401c-2.80465,-2.04078 -4.4158,-5.50126 -6.81553,-8.59366c-4.39319,-5.66123 -13.43934,-26.92966 -16.75005,-36.48091c-2.03199,-5.86222 0.97197,-1.16764 0.05415,-3.86701c-4.23985,-12.4695 10.23124,2.04322 10.23124,-10.96043c0,-26.75202 11.68835,-48.43881 26.10664,-48.43881c14.41829,0 26.10664,21.6868 26.10664,48.43881z" fill="#0b1d1d" stroke="none" stroke-width="0"/><path d="M73.85519,253.68546c0,9.46248 14.23071,17.33136 15.88696,32.00423c0.45394,4.02147 -2.78393,11.30129 -4.20239,15.94926c-2.39913,7.86136 -8.01269,21.19117 -16.39234,29.56487c-8.33342,8.32747 -21.3254,11.72366 -22.97082,10.64804c-14.83043,-9.69462 -24.0451,-26.68484 -29.85525,-43.37592c-6.00467,-17.24985 -6.46445,-34.21699 -6.46445,-44.79048c0,-20.80449 4.99971,-67.55471 33.61935,-67.64373c76.82358,-0.23898 30.37894,46.83925 30.37894,67.64376z" fill="#304d48" stroke="none" stroke-width="0"/><path d="M92.75761,255.44068c0,21.02821 -9.93612,63.21713 -38.07493,70.74916c-19.77138,5.2923 -38.88503,-49.72095 -38.88503,-70.74914c0,-21.02821 14.33843,-80.20038 59.67771,-63.45821c18.46715,6.81926 17.28223,42.43 17.28223,63.45821z" fill="#0b1d1d" stroke="none" stroke-width="0"/><path d="M29.09981,281.24996c0,0 -3.9887,-22.08743 -4.70072,-31.37225c-0.71622,-9.33945 0.41592,-24.50153 0.41592,-24.50153l56.73074,-3.08504l-6.68428,59.64439c0,0 -14.49484,15.54064 -22.10702,15.42659c-7.64159,-0.11448 -23.65465,-16.11215 -23.65465,-16.11215z" fill="#000002" stroke="none" stroke-width="0"/><path d="M33.27346,211.14428c4.71737,-5.21078 10.56901,-12.37619 22.12126,-12.65238c11.56971,-0.27661 20.24889,3.72182 25.21094,13.68616c0.13977,0.28065 0.00624,0.79816 0.09478,1.52085c0.62059,5.06548 -3.17134,61.05582 -5.92052,66.9483c-4.14859,8.89201 -19.89119,7.94568 -23.11159,7.94169c-10.42854,-0.01292 -21.73208,-7.55423 -22.18901,-7.62051c-0.70179,-0.1018 -6.7413,-33.76735 -4.92952,-54.59374c0.71848,-8.25905 6.93566,-13.25531 8.72366,-15.23032z" fill="#000000" stroke="#000000" stroke-width="2.5"/><path d="M74.60054,282.48026c0,7.6945 -15.86491,23.24607 -21.96363,23.27488c-9.08344,0.04291 -23.43877,-16.236 -23.43877,-23.93051c0,-1.54063 3.15953,-1.59841 4.10573,-1.75411c0.85737,-0.14108 1.45641,0.36966 5.20668,3.78629c3.5847,3.26581 7.71609,11.26828 13.79856,10.42479c3.43555,-0.47643 5.80338,-3.10641 10.17526,-6.89439c3.16378,-2.74124 7.05951,-7.52552 7.62433,-7.39847c0.78124,0.17571 4.49185,0.91343 4.49185,2.49152z" fill="#779295" stroke="none" stroke-width="2"/></g><path d="M24.26216,248.17616c-0.5716,-7.2238 0.33181,-17.43561 0.33181,-17.43561c0,0 4.93368,-0.4853 15.33738,-3.55876c7.99278,-2.36124 16.12948,-7.17468 16.12948,-7.17468l-4.77473,6.93722c0,0 7.94607,-1.68008 14.86838,-4.35096c7.02393,-2.71009 11.93698,-6.74954 13.71602,-4.99343c3.15602,3.08812 0.81331,26.98519 -0.16139,31.10194c-0.22163,0.93603 -1.74725,4.5521 -2.35842,7.54418c-0.61117,2.99208 -1.37953,14.53433 -2.47093,19.45843c-1.24153,5.60148 -4.8365,8.26827 -10.63832,13.94981c-5.80182,5.68155 -10.58939,7.9261 -12.74684,7.94727c-2.74056,0.02689 -8.99344,-3.76593 -13.9456,-8.99788c-5.27325,-5.57119 -8.7904,-8.39643 -9.62302,-14.99562c-0.74986,-5.94327 -0.76914,-9.8142 -1.11197,-15.10318c-0.25057,-3.86558 -2.23966,-6.38368 -2.55183,-10.32873z" fill="#ffffff" stroke="#000000" stroke-width="1.5" stroke-linecap="butt"/><path d="M31.53973,234.46158l0.26515,-1.58387c0,0 3.18646,-2.08838 7.49726,-2.95795c4.29685,-0.86677 7.4858,-0.63068 7.4858,-0.63068l0.33494,4.37528c0,0 -3.28503,-0.3407 -7.28003,0.31192c-3.06666,0.23544 -16.69893,4.88138 -16.69893,4.88138l-0.16418,-1.31841z" fill="#000000" stroke="none" stroke-width="1.5" stroke-linecap="butt"/><path d="M74.11861,230.77215c0,0 2.52428,0.80417 3.81564,1.28133c1.33933,0.49488 4.08165,1.63674 4.08165,1.63674l-0.1138,1.59983c0,0 -7.2693,-3.75044 -15.08786,-3.78139c-6.25152,-0.02473 -9.89357,1.76027 -9.89357,1.76027l0.66727,-4.54055c0,0 5.10512,-1.12931 8.41293,-1.05044c3.30781,0.07887 7.75126,1.43584 7.75126,1.43584z" data-paper-data="{&quot;index&quot;:null}" fill="#000000" stroke="none" stroke-width="1.5" stroke-linecap="butt"/><path d="M28.80559,248.55584c0,-4.84582 4.31467,-8.77414 9.63711,-8.77414c5.32243,0 9.63711,3.92831 9.63711,8.77414c0,4.84582 -4.31467,8.77414 -9.63711,8.77414c-5.32243,0 -9.63711,-3.92831 -9.63711,-8.77414z" fill="#ffffff" stroke="#000000" stroke-width="1.5" stroke-linecap="butt"/><g stroke-width="0" stroke-linecap="butt"><path d="M68.14034,282.78632c0,0.42234 1.23631,14.05729 -5.37008,20.27484c-3.30735,3.11268 -13.83779,1.18454 -16.93816,1.18454c-9.29335,0 -11.34597,-20.82561 -11.34597,-21.45939c0,-0.37225 2.88954,-2.75013 5.98115,-5.3122c1.46811,-1.21665 1.87806,-3.09698 4.09746,-3.66732c1.06425,-0.27349 2.21688,-0.43048 3.45981,-0.43048c0.41512,0 1.97443,0.00729 2.86354,0.70861c0.6723,0.5303 0.58583,1.80139 1.46843,1.809c0.56097,0.00485 0.71538,-1.29346 1.30169,-1.5188c1.75174,-0.67323 3.88318,-0.86469 4.49009,-0.70921c1.019,0.26105 1.94128,0.59739 2.77484,0.98644c1.31261,0.61263 1.96675,2.27399 2.87069,3.05974c2.97819,2.58879 4.34651,4.72015 4.34651,5.07423z" fill="#000000" stroke="#000000"/><path d="M67.48262,283.58963c0,0.24871 0.78111,12.05724 -5.2558,17.81653c-3.19374,3.04687 -12.55855,1.4625 -15.62735,1.4625c-8.86955,0 -10.79785,-19.70204 -10.79785,-20.08232c0,-0.09943 4.37665,0.12315 4.37665,0.12315c0,0 1.27279,6.7293 4.45325,10.62695c2.28305,2.79787 6.02732,3.13539 8.76457,3.13539c1.88863,0 5.48219,-1.20228 6.98098,-3.79555c2.07088,-3.58313 1.73718,-8.88292 1.73718,-8.88292c0,0 5.36838,-0.59114 5.36838,-0.40372z" fill="#ffffff" stroke="none"/><path d="M58.93203,291.2783c0,0.3169 -2.43429,4.36074 -6.24851,4.36074c-3.81421,0 -7.56398,-4.04384 -7.56398,-4.36074c0,-0.3169 3.4209,2.18037 7.23511,2.18037c3.81421,0 6.57737,-2.49726 6.57737,-2.18037z" fill="#ffffff" stroke="none"/><path d="M59.80901,283.30273c0,0.41196 -3.43559,0.74591 -7.6736,0.74591c-4.23801,0 -7.6736,-0.33396 -7.6736,-0.74591c0,-0.41196 7.6736,-2.81152 7.6736,-2.81152c0,0 7.6736,2.39957 7.6736,2.81152z" fill="#ffffff" stroke="none"/><path d="M65.26672,282.21479c0,0 -3.14183,0.15659 -6.35748,-0.58203c-3.02854,-0.69565 -6.12255,-2.28911 -6.719,-2.28911c-0.32846,0 -3.49382,1.42266 -5.81614,1.95435c-2.46459,0.56427 -4.10425,0.241 -4.85219,0.29555c-3.02908,0.22088 -3.41821,-0.81546 -3.41821,-0.81546c0,0 2.30619,-0.82474 4.36231,-2.33766c1.78455,-1.3131 3.27256,-3.34277 4.24308,-3.34277c0.20532,0 1.44123,-0.03313 2.36358,0.44014c1.20493,0.61826 2.26203,1.7764 3.71477,1.71248c1.22857,-0.05407 1.29236,-1.12113 2.27615,-1.71888c0.75656,-0.45968 2.46034,-0.54804 3.18886,-0.25867c2.04332,0.81162 2.81164,2.67056 3.91695,3.91567c1.63696,1.844 3.09732,3.02638 3.09732,3.02638z" fill="#ffffff" stroke="none"/></g><path d="M55.62284,273.91324c-0.12873,2.22357 -1.54357,3.85431 -3.99162,3.85431c-2.44806,0 -3.75065,-2.70224 -3.75065,-4.92993c0,-2.22768 1.3026,-3.13723 3.75065,-3.13723c2.44806,0 4.1621,1.2681 3.99162,4.21285z" fill="#ffffff" stroke="#000000" stroke-width="1" stroke-linecap="butt"/><path d="M33.20191,248.50023c0,-2.79162 2.26305,-5.05467 5.05467,-5.05467c2.79162,0 5.05467,2.26305 5.05467,5.05467c0,2.79162 -2.26304,5.05467 -5.05467,5.05467c-2.79162,0 -5.05467,-2.26305 -5.05467,-5.05467z" fill="#000000" stroke="none" stroke-width="1.5" stroke-linecap="butt"/><path d="M55.26925,248.35799l-1.13564,35.08008l-3.50884,0.00856c0,0 -1.01839,-25.12184 -1.73419,-30.85333c-0.29556,-2.36659 -0.53778,-4.44016 -0.53778,-4.44016" fill="#ffffff" stroke="#000000" stroke-width="1.5" stroke-linecap="round"/><path d="M55.66878,248.55584c0,-4.84582 4.2699,-8.77414 9.53711,-8.77414c5.2672,0 9.53711,3.92831 9.53711,8.77414c0,4.84582 -4.2699,8.77414 -9.53711,8.77414c-5.2672,0 -9.53711,-3.92831 -9.53711,-8.77414z" fill="#ffffff" stroke="#000000" stroke-width="1.5" stroke-linecap="butt"/><path d="M60.08729,248.50023c0,-2.79162 2.26305,-5.05467 5.05467,-5.05467c2.79162,0 5.05467,2.26305 5.05467,5.05467c0,2.79162 -2.26304,5.05467 -5.05467,5.05467c-2.79162,0 -5.05467,-2.26305 -5.05467,-5.05467z" fill="#000000" stroke="none" stroke-width="1.5" stroke-linecap="butt"/><path d="M28.58256,248.17654c0,0 -0.20396,-9.20795 10.23434,-9.32209c9.10107,-0.0995 9.6686,9.32209 9.6686,9.32209z" fill="#ffffff" stroke="#000000" stroke-width="1.25" stroke-linecap="butt"/><path d="M55.12203,247.7968c0,0 0.00695,-9.70149 10.92193,-9.34987c10.25337,0.3303 10.08746,9.34987 10.08746,9.34987z" fill="#ffffff" stroke="#000000" stroke-width="1.25" stroke-linecap="butt"/><g stroke-width="0" stroke-linecap="butt"><path d="M24.24327,258.26893l-0.45124,-15.11626c0,0 4.06286,-3.64752 6.36307,-4.87786c1.19319,-0.63822 3.34277,-1.84523 5.9982,-2.36124c2.97244,-0.57761 6.49309,-0.40354 8.30375,0.12095c3.11486,0.90229 8.0163,2.97871 8.05908,3.74259c0.01382,0.24662 1.74624,-1.10368 3.85358,-2.102c1.12502,-0.53297 5.80066,-2.89231 9.25182,-2.29132c0.83348,0.14515 5.47722,1.63792 9.00807,3.63714c3.10677,1.7591 5.19911,4.06311 5.19911,4.06311c0,0 -0.78078,14.65085 -1.54059,15.27234c-0.93602,0.76563 -10.83783,5.32461 -12.22806,5.73999c-1.12707,0.33677 -3.24146,-0.65844 -5.32847,-1.63505c-1.89736,-0.88786 -5.09025,-4.12078 -8.64247,-4.2433c-2.83584,-0.09783 -6.14619,2.72768 -7.41227,3.42283c-2.25444,1.2378 -4.97889,2.1557 -4.97889,2.1557c0,0 -4.45327,-0.86707 -6.91819,-1.70054c-2.20344,-0.74505 -8.53647,-3.82703 -8.53647,-3.82703z" fill="#934310" stroke="none"/><g><path d="M29.33117,249.08173c0,-4.85899 3.93899,-8.79797 8.79797,-8.79797c4.85898,0 8.79797,3.93899 8.79797,8.79797c0,4.85899 -3.93899,8.79796 -8.79797,8.79796c-4.85898,0 -8.79797,-3.93899 -8.79797,-8.79796z" fill="#fda707" stroke="none"/><path d="M31.73929,248.90393c0,-3.49487 2.83315,-6.32803 6.32804,-6.32803c3.49488,0 6.32804,2.83315 6.32804,6.32804c0,3.49487 -2.83315,6.32804 -6.32803,6.32804c-3.49488,0 -6.32803,-2.83315 -6.32803,-6.32803z" fill="#934310" stroke="none"/><path d="M42.41606,253.60029l-8.95229,-9.15751c0,0 1.96929,-1.85744 4.48156,-2.05502c1.5139,-0.11906 3.33159,0.44281 5.01874,2.2989c1.74088,1.91518 1.80695,3.65943 1.601,5.09126c-0.34276,2.38298 -2.14903,3.82237 -2.14903,3.82237z" fill="#dd6000" stroke="#000000"/></g><g><path d="M56.78849,249.1521c0,-4.85899 3.93899,-8.79797 8.79797,-8.79797c4.85898,0 8.79797,3.93899 8.79797,8.79797c0,4.85899 -3.93899,8.79797 -8.79797,8.79797c-4.85898,0 -8.79797,-3.93899 -8.79797,-8.79797z" fill="#fda707" stroke="none"/><path d="M59.19659,248.97432c0,-3.49487 2.83315,-6.32803 6.32804,-6.32803c3.49487,0 6.32804,2.83315 6.32804,6.32804c0,3.49487 -2.83315,6.32804 -6.32803,6.32804c-3.49488,0 -6.32803,-2.83315 -6.32803,-6.32803z" fill="#934310" stroke="none"/><path d="M69.87338,253.67068l-8.95229,-9.15752c0,0 1.96929,-1.85744 4.48156,-2.05502c1.51391,-0.11906 3.33158,0.44282 5.01872,2.29891c1.74089,1.91518 1.80696,3.65943 1.60101,5.09126c-0.34276,2.38298 -2.14902,3.82237 -2.14902,3.82237z" fill="#dd6000" stroke="#000000"/></g></g></g><g><g stroke-linecap="butt"><path d="M206.03821,281.51619c0,10.65123 9.09463,9.11965 5.75428,20.07681c-2.85158,9.35388 -8.25642,24.39494 -15.62706,33.34343c-5.68081,6.89691 -13.50523,10.5358 -17.28232,10.5358c-2.07049,0 -7.47732,-0.92465 -11.778,-4.05401c-2.80465,-2.04078 -4.4158,-5.50126 -6.81553,-8.59366c-4.39319,-5.66123 -13.43934,-26.92966 -16.75005,-36.48091c-2.03199,-5.86222 0.97197,-1.16764 0.05415,-3.86701c-4.23985,-12.4695 10.23124,2.04322 10.23124,-10.96043c0,-26.75202 11.68835,-48.43881 26.10664,-48.43881c14.41829,0 26.10664,21.6868 26.10664,48.43881z" fill="#0b1d1d" stroke="none" stroke-width="0"/><path d="M200.85514,248.68545c0,9.46248 14.23071,17.33136 15.88696,32.00423c0.45394,4.02147 -2.78393,11.30129 -4.20239,15.94926c-2.39913,7.86136 -8.01269,21.19117 -16.39234,29.56487c-8.33342,8.32747 -21.3254,11.72366 -22.97082,10.64804c-14.83043,-9.69462 -24.0451,-26.68484 -29.85525,-43.37592c-6.00467,-17.24985 -6.46445,-34.21699 -6.46445,-44.79048c0,-20.80449 4.99971,-67.55471 33.61935,-67.64373c76.82358,-0.23898 30.37894,46.83925 30.37894,67.64376z" fill="#304d48" stroke="none" stroke-width="0"/><path d="M219.75757,250.44067c0,21.02821 -9.93612,63.21713 -38.07493,70.74916c-19.77138,5.2923 -38.88503,-49.72095 -38.88503,-70.74914c0,-21.02821 14.33843,-80.20038 59.67771,-63.45821c18.46715,6.81926 17.28223,42.43 17.28223,63.45821z" fill="#0b1d1d" stroke="none" stroke-width="0"/><path d="M156.09975,276.24995c0,0 -3.9887,-22.08743 -4.70072,-31.37225c-0.71622,-9.33945 0.41592,-24.50153 0.41592,-24.50153l56.73074,-3.08504l-6.68428,59.64439c0,0 -14.49484,15.54064 -22.10702,15.42659c-7.64159,-0.11448 -23.65465,-16.11215 -23.65465,-16.11215z" fill="#000002" stroke="none" stroke-width="0"/><path d="M160.27342,206.14428c4.71737,-5.21078 10.56901,-12.37619 22.12126,-12.65238c11.56971,-0.27661 20.24889,3.72182 25.21094,13.68616c0.13977,0.28065 0.00624,0.79816 0.09478,1.52085c0.62059,5.06548 -3.17134,61.05582 -5.92052,66.9483c-4.14859,8.89201 -19.89119,7.94568 -23.11159,7.94169c-10.42854,-0.01292 -21.73208,-7.55423 -22.18901,-7.62051c-0.70179,-0.1018 -6.7413,-33.76735 -4.92952,-54.59374c0.71848,-8.25905 6.93566,-13.25531 8.72366,-15.23032z" fill="#000000" stroke="#000000" stroke-width="2.5"/><path d="M201.6005,277.48025c0,7.6945 -15.86491,23.24607 -21.96363,23.27488c-9.08344,0.04291 -23.43877,-16.236 -23.43877,-23.93051c0,-1.54063 3.15953,-1.59841 4.10573,-1.75411c0.85737,-0.14108 1.45641,0.36966 5.20668,3.78629c3.5847,3.26581 7.71609,11.26828 13.79856,10.42479c3.43555,-0.47643 5.80338,-3.10641 10.17526,-6.89439c3.16378,-2.74124 7.05951,-7.52552 7.62433,-7.39847c0.78124,0.17571 4.49185,0.91343 4.49185,2.49152z" fill="#779295" stroke="none" stroke-width="2"/></g><path d="M151.26211,243.17615c-0.5716,-7.2238 0.33181,-17.43561 0.33181,-17.43561c0,0 4.93368,-0.4853 15.33738,-3.55876c7.99278,-2.36124 16.12948,-7.17468 16.12948,-7.17468l-4.77473,6.93722c0,0 7.94607,-1.68008 14.86838,-4.35096c7.02393,-2.71009 11.93698,-6.74954 13.71602,-4.99343c3.15602,3.08812 0.81331,26.98519 -0.16139,31.10194c-0.22163,0.93603 -1.74725,4.5521 -2.35842,7.54418c-0.61117,2.99208 -1.37953,14.53433 -2.47093,19.45843c-1.24153,5.60148 -4.8365,8.26827 -10.63832,13.94981c-5.80182,5.68155 -10.58939,7.9261 -12.74684,7.94727c-2.74056,0.02689 -8.99344,-3.76593 -13.9456,-8.99788c-5.27325,-5.57119 -8.7904,-8.39643 -9.62302,-14.99562c-0.74986,-5.94327 -0.76914,-9.8142 -1.11197,-15.10318c-0.25057,-3.86558 -2.23966,-6.38368 -2.55183,-10.32873z" fill="#ffffff" stroke="#000000" stroke-width="1.5" stroke-linecap="butt"/><path d="M158.50182,233.85231l0.42977,-1.54733c0,0 3.38788,-1.74273 7.76611,-2.15547c4.36405,-0.41141 7.51066,0.15777 7.51066,0.15777l-0.12571,4.38628c0,0 -3.23119,-0.6833 -7.2726,-0.4532c-3.07444,-0.08743 -17.11874,3.10338 -17.11874,3.10338l-0.02503,-1.32836z" fill="#000000" stroke="none" stroke-width="1.5" stroke-linecap="butt"/><path d="M199.54125,228.64418c0,0 2.58495,0.58027 3.9131,0.94264c1.37748,0.37583 4.20918,1.27342 4.20918,1.27342l0.02658,1.60365c0,0 -7.56951,-3.10018 -15.3608,-2.44708c-6.22972,0.52222 -9.70167,2.61896 -9.70167,2.61896l0.26753,-4.58151c0,0 4.98677,-1.57156 8.2888,-1.78234c3.30203,-0.21079 7.84714,0.75229 7.84714,0.75229z" data-paper-data="{&quot;index&quot;:null}" fill="#000000" stroke="none" stroke-width="1.5" stroke-linecap="butt"/><path d="M155.80554,243.55583c0,-4.84582 4.31467,-8.77414 9.63711,-8.77414c5.32243,0 9.63711,3.92831 9.63711,8.77414c0,4.84582 -4.31467,8.77414 -9.63711,8.77414c-5.32243,0 -9.63711,-3.92831 -9.63711,-8.77414z" fill="#ffffff" stroke="#000000" stroke-width="1.5" stroke-linecap="butt"/><g stroke-width="0" stroke-linecap="butt"><path d="M194.89035,279.07054c0,0.40892 1.23631,13.61046 -5.37008,19.63037c-3.30735,3.01374 -13.83779,1.14689 -16.93816,1.14689c-9.29335,0 -11.34597,-20.16363 -11.34597,-20.77727c0,-0.36042 2.88954,-2.66271 5.98115,-5.14334c1.46811,-1.17798 1.87806,-2.99854 4.09746,-3.55075c1.06425,-0.2648 2.21688,-0.41679 3.45981,-0.41679c0.41512,0 1.97443,0.00706 2.86354,0.68608c0.6723,0.51344 0.58583,1.74413 1.46843,1.7515c0.56097,0.00469 0.71538,-1.25235 1.30169,-1.47052c1.75174,-0.65183 3.88318,-0.83721 4.49009,-0.68667c1.019,0.25275 1.94128,0.5784 2.77484,0.95508c1.31261,0.59316 1.96675,2.20171 2.87069,2.96248c2.97819,2.5065 4.34651,4.57011 4.34651,4.91294z" fill="#000000" stroke="#000000"/><path d="M194.23262,279.84832c0,0.2408 0.78111,11.67398 -5.2558,17.2502c-3.19374,2.95002 -12.55855,1.41601 -15.62735,1.41601c-8.86955,0 -10.79785,-19.07578 -10.79785,-19.44397c0,-0.09627 4.37665,0.11924 4.37665,0.11924c0,0 1.27279,6.51539 4.45325,10.28915c2.28305,2.70894 6.02732,3.03573 8.76457,3.03573c1.88863,0 5.48219,-1.16406 6.98098,-3.6749c2.07088,-3.46924 1.73718,-8.60056 1.73718,-8.60056c0,0 5.36838,-0.57235 5.36838,-0.39089z" fill="#ffffff" stroke="none"/><path d="M185.68203,287.29259c0,0.30682 -2.43429,4.22212 -6.24851,4.22212c-3.81421,0 -7.56398,-3.9153 -7.56398,-4.22212c0,-0.30682 3.4209,2.11106 7.23511,2.11106c3.81421,0 6.57737,-2.41788 6.57737,-2.11106z" fill="#ffffff" stroke="none"/><path d="M186.55902,279.57053c0,0.39887 -3.43559,0.7222 -7.6736,0.7222c-4.23801,0 -7.6736,-0.32334 -7.6736,-0.7222c0,-0.39887 7.6736,-2.72215 7.6736,-2.72215c0,0 7.6736,2.32329 7.6736,2.72215z" fill="#ffffff" stroke="none"/><path d="M192.01672,278.51719c0,0 -3.14183,0.15162 -6.35748,-0.56353c-3.02854,-0.67354 -6.12255,-2.21635 -6.719,-2.21635c-0.32846,0 -3.49382,1.37744 -5.81614,1.89223c-2.46459,0.54633 -4.10425,0.23334 -4.85219,0.28616c-3.02908,0.21386 -3.41821,-0.78954 -3.41821,-0.78954c0,0 2.30619,-0.79853 4.36231,-2.26335c1.78455,-1.27136 3.27256,-3.23651 4.24308,-3.23651c0.20532,0 1.44123,-0.03208 2.36358,0.42615c1.20493,0.59861 2.26203,1.71994 3.71477,1.65805c1.22857,-0.05235 1.29236,-1.0855 2.27615,-1.66425c0.75656,-0.44507 2.46034,-0.53062 3.18886,-0.25044c2.04332,0.78582 2.81164,2.58567 3.91695,3.7912c1.63696,1.78539 3.09732,2.93018 3.09732,2.93018z" fill="#ffffff" stroke="none"/></g><path d="M182.62279,268.91323c-0.12873,2.22357 -1.54357,3.85431 -3.99162,3.85431c-2.44806,0 -3.75065,-2.70224 -3.75065,-4.92993c0,-2.22768 1.3026,-3.13723 3.75065,-3.13723c2.44806,0 4.1621,1.2681 3.99162,4.21285z" fill="#ffffff" stroke="#000000" stroke-width="1" stroke-linecap="butt"/><path d="M160.20185,243.50022c0,-2.79162 2.26305,-5.05467 5.05467,-5.05467c2.79162,0 5.05467,2.26305 5.05467,5.05467c0,2.79162 -2.26304,5.05467 -5.05467,5.05467c-2.79162,0 -5.05467,-2.26305 -5.05467,-5.05467z" fill="#000000" stroke="none" stroke-width="1.5" stroke-linecap="butt"/><path d="M182.26919,243.35798l-1.13564,35.08008l-3.50884,0.00856c0,0 -1.01839,-25.12184 -1.73419,-30.85333c-0.29556,-2.36659 -0.53778,-4.44016 -0.53778,-4.44016" fill="#ffffff" stroke="#000000" stroke-width="1.5" stroke-linecap="round"/><path d="M182.66872,243.55583c0,-4.84582 4.2699,-8.77414 9.53711,-8.77414c5.2672,0 9.53711,3.92831 9.53711,8.77414c0,4.84582 -4.2699,8.77414 -9.53711,8.77414c-5.2672,0 -9.53711,-3.92831 -9.53711,-8.77414z" fill="#ffffff" stroke="#000000" stroke-width="1.5" stroke-linecap="butt"/><path d="M187.08724,243.50022c0,-2.79162 2.26305,-5.05467 5.05467,-5.05467c2.79162,0 5.05467,2.26305 5.05467,5.05467c0,2.79162 -2.26304,5.05467 -5.05467,5.05467c-2.79162,0 -5.05467,-2.26305 -5.05467,-5.05467z" fill="#000000" stroke="none" stroke-width="1.5" stroke-linecap="butt"/><path d="M155.58251,243.17653c0,0 -0.20396,-9.20795 10.23434,-9.32209c9.10107,-0.0995 9.6686,9.32209 9.6686,9.32209z" fill="#ffffff" stroke="#000000" stroke-width="1.25" stroke-linecap="butt"/><path d="M182.12198,242.79679c0,0 0.00695,-9.70149 10.92193,-9.34987c10.25337,0.3303 10.08746,9.34987 10.08746,9.34987z" fill="#ffffff" stroke="#000000" stroke-width="1.25" stroke-linecap="butt"/><g stroke-width="0" stroke-linecap="butt"><path d="M151.24322,253.26892l-0.45124,-15.11626c0,0 4.06286,-3.64752 6.36307,-4.87786c1.19319,-0.63822 3.34277,-1.84523 5.9982,-2.36124c2.97244,-0.57761 6.49309,-0.40354 8.30375,0.12095c3.11486,0.90229 8.0163,2.97871 8.05908,3.74259c0.01382,0.24662 1.74624,-1.10368 3.85358,-2.102c1.12502,-0.53297 5.80066,-2.89231 9.25182,-2.29132c0.83348,0.14515 5.47722,1.63792 9.00807,3.63714c3.10677,1.7591 5.19911,4.06311 5.19911,4.06311c0,0 -0.78078,14.65085 -1.54059,15.27234c-0.93602,0.76563 -10.83783,5.32461 -12.22806,5.73999c-1.12707,0.33677 -3.24146,-0.65844 -5.32847,-1.63505c-1.89736,-0.88786 -5.09025,-4.12078 -8.64247,-4.2433c-2.83584,-0.09783 -6.14619,2.72768 -7.41227,3.42283c-2.25444,1.2378 -4.97889,2.1557 -4.97889,2.1557c0,0 -4.45327,-0.86707 -6.91819,-1.70054c-2.20344,-0.74505 -8.53647,-3.82703 -8.53647,-3.82703z" fill="#934310" stroke="none"/><g><path d="M156.33112,244.08171c0,-4.85899 3.93899,-8.79797 8.79797,-8.79797c4.85898,0 8.79797,3.93899 8.79797,8.79797c0,4.85899 -3.93899,8.79796 -8.79797,8.79796c-4.85898,0 -8.79797,-3.93899 -8.79797,-8.79796z" fill="#fda707" stroke="none"/><path d="M158.73924,243.90392c0,-3.49487 2.83315,-6.32803 6.32804,-6.32803c3.49488,0 6.32804,2.83315 6.32804,6.32804c0,3.49487 -2.83315,6.32804 -6.32803,6.32804c-3.49488,0 -6.32803,-2.83315 -6.32803,-6.32803z" fill="#934310" stroke="none"/><path d="M169.41601,248.60028l-8.95229,-9.15751c0,0 1.96929,-1.85744 4.48156,-2.05502c1.5139,-0.11906 3.33159,0.44281 5.01874,2.2989c1.74088,1.91518 1.80695,3.65943 1.601,5.09126c-0.34276,2.38298 -2.14903,3.82237 -2.14903,3.82237z" fill="#dd6000" stroke="#000000"/></g><g><path d="M183.78844,244.15209c0,-4.85899 3.93899,-8.79797 8.79797,-8.79797c4.85898,0 8.79797,3.93899 8.79797,8.79797c0,4.85899 -3.93899,8.79797 -8.79797,8.79797c-4.85898,0 -8.79797,-3.93899 -8.79797,-8.79797z" fill="#fda707" stroke="none"/><path d="M186.19654,243.97431c0,-3.49487 2.83315,-6.32803 6.32804,-6.32803c3.49487,0 6.32804,2.83315 6.32804,6.32804c0,3.49487 -2.83315,6.32804 -6.32803,6.32804c-3.49488,0 -6.32803,-2.83315 -6.32803,-6.32803z" fill="#934310" stroke="none"/><path d="M196.87333,248.67067l-8.95229,-9.15752c0,0 1.96929,-1.85744 4.48156,-2.05502c1.51391,-0.11906 3.33158,0.44282 5.01872,2.29891c1.74089,1.91518 1.80696,3.65943 1.60101,5.09126c-0.34276,2.38298 -2.14902,3.82237 -2.14902,3.82237z" fill="#dd6000" stroke="#000000"/></g></g></g></g></g></svg>