<svg version="1.1" xmlns="http://www.w3.org/2000/svg" xmlns:xlink="http://www.w3.org/1999/xlink" width="38.19044" height="38.19044" viewBox="0,0,38.19044,38.19044"><g transform="translate(-220.9048,-160.90482)"><g data-paper-data="{&quot;isPaintingLayer&quot;:true}" stroke="none" stroke-miterlimit="10" stroke-dasharray="" stroke-dashoffset="0" style="mix-blend-mode: normal"><path d="M259.09524,180.00005c0,10.54601 -8.54924,19.09522 -19.09522,19.09522c-10.54601,0 -19.09522,-8.54922 -19.09522,-19.09522c0,-10.54601 8.54922,-19.09522 19.09522,-19.09522c10.54601,0 19.09522,8.54922 19.09522,19.09522" fill="#3e55b3" fill-rule="evenodd" stroke-width="0.07853" stroke-linecap="round" stroke-linejoin="round"/><g fill="#ffffff" fill-rule="nonzero" stroke-width="1" stroke-linecap="butt" stroke-linejoin="miter"><path d="M250.25845,176.21284l-1.59127,5.66491c-0.06365,0.19095 -0.2546,0.38191 -0.44556,0.44556c0,0 -0.06365,0 -0.1273,0c-0.1273,0 -0.31826,-0.06365 -0.44556,-0.19095l-3.18254,-3.30984c-0.19095,-0.19095 -0.2546,-0.38191 -0.19095,-0.57286c0,-0.19095 0.1273,-0.38191 0.31825,-0.44556l1.65492,-0.82746c-1.20936,-2.35507 -3.62809,-3.88269 -6.30142,-3.88269c-2.22778,0 -4.20095,1.01841 -5.47396,2.60968c-0.25461,0.3819 -0.70016,0.2546 -0.89111,0.06365l-0.44556,-0.50921c-0.19095,-0.2546 -0.2546,-0.57286 0,-0.89111c1.59127,-1.97317 4.1373,-3.24619 6.87428,-3.24619c3.37349,0 6.49237,1.97317 7.95634,4.96476l1.46397,-0.70016c0.25461,-0.1273 0.50921,-0.1273 0.70015,0.06365c0.19095,0.19095 0.25461,0.44556 0.12731,0.76381z"/><path d="M246.88496,184.74204c0.19095,0.2546 0.25461,0.57286 0,0.89111c-1.59127,1.97317 -4.1373,3.24618 -6.87428,3.24618c-3.37349,0 -6.49238,-1.97317 -7.95634,-4.96475l-1.46397,0.70016c-0.25461,0.1273 -0.50921,0.1273 -0.70015,-0.06365c-0.19095,-0.1273 -0.25461,-0.3819 -0.19096,-0.6365l1.59127,-5.66492c0.06365,-0.19095 0.2546,-0.38191 0.44556,-0.44556c0,0 0.06365,0 0.1273,0c0.1273,0 0.31826,0.06365 0.44556,0.19095l3.18254,3.30984c0.19095,0.19095 0.2546,0.38191 0.19095,0.57286c0,0.19095 -0.1273,0.38191 -0.31825,0.44556l-1.65492,0.82746c1.20936,2.35507 3.6281,3.88269 6.30142,3.88269c2.22778,0 4.20095,-1.01841 5.47396,-2.60968c0.25461,-0.3819 0.70016,-0.2546 0.89111,-0.06365z"/></g></g></g></svg>