<svg version="1.1" xmlns="http://www.w3.org/2000/svg" xmlns:xlink="http://www.w3.org/1999/xlink" width="19.70833" height="23.82733" viewBox="0,0,19.70833,23.82733"><g transform="translate(-239.89762,-170.72982)"><g data-paper-data="{&quot;isPaintingLayer&quot;:true}" fill-rule="nonzero" stroke="none" stroke-linecap="butt" stroke-linejoin="miter" stroke-miterlimit="10" stroke-dasharray="" stroke-dashoffset="0" style="mix-blend-mode: normal"><path d="M259.53372,185.84653v3.42364h-10.00757c-2.76525,0 -5.05645,-0.86908 -6.84728,-2.63358c-1.81716,-1.73816 -2.71258,-3.95035 -2.71258,-6.66293c0,-2.65991 0.89542,-4.87211 2.71258,-6.6366c1.79083,-1.73816 4.08203,-2.60724 6.84728,-2.60724c2.71258,0 4.97745,0.84275 6.79461,2.5019c1.81716,1.65915 2.71258,3.766 2.71258,6.32057c0,3.05494 -1.50114,5.6095 -3.95036,6.97896zM253.73986,184.34539c1.07977,-1.13243 1.63281,-2.55456 1.63281,-4.29272c0,-1.73816 -0.55304,-3.16029 -1.63281,-4.29272c-1.1061,-1.1061 -2.5019,-1.65915 -4.21372,-1.65915c-1.68548,0 -3.08127,0.55306 -4.16104,1.65915c-1.1061,1.13244 -1.65915,2.55457 -1.65915,4.29272c0,1.73816 0.55306,3.16028 1.65915,4.29272c1.07977,1.13244 2.47555,1.68549 4.16104,1.68549c1.71182,0 3.10762,-0.55305 4.21372,-1.68549z" fill="#000000" stroke-width="0.35808"/><path d="M239.89762,194.55715v-23.65909h19.70833v23.65909z" fill-opacity="0.00403" fill="#808080" stroke-width="0"/></g></g></svg>