<svg version="1.1" xmlns="http://www.w3.org/2000/svg" xmlns:xlink="http://www.w3.org/1999/xlink" width="34.17311" height="34.17311" viewBox="0,0,34.17311,34.17311"><g transform="translate(-222.91346,-162.91346)"><g data-paper-data="{&quot;isPaintingLayer&quot;:true}" stroke-miterlimit="10" stroke-dasharray="" stroke-dashoffset="0" style="mix-blend-mode: normal"><path d="M229.98313,162.91347h20.03379c3.9166,0 7.06966,3.15307 7.06966,7.06966v20.03379c0,3.91659 -3.15306,7.06966 -7.06966,7.06966h-20.03379c-3.91659,0 -7.06966,-3.15307 -7.06966,-7.06966v-20.03379c0,-3.91659 3.15307,-7.06966 7.06966,-7.06966z" fill-opacity="0.13218" fill="#1a1a1a" fill-rule="evenodd" stroke="none" stroke-width="4.43922" stroke-linecap="round" stroke-linejoin="round"/><path d="M226.45501,187.30644c0,0 0.48213,-2.50802 -0.03253,-5.67448c-0.27572,-1.69637 -1.02182,-3.70677 -0.43279,-5.88079c1.83372,-9.28182 8.46783,-10.28675 8.46783,-10.28675l1.77238,15.18598z" fill="#ffffff" fill-rule="nonzero" stroke="none" stroke-width="0" stroke-linecap="butt" stroke-linejoin="miter"/><path d="M240.73114,182.3976l12.80234,-7.44625c0,0 2.93938,5.9684 -3.24948,12.88542c-1.36012,1.7495 -3.3418,2.32047 -4.81552,3.08922c-2.75083,1.43495 -4.43059,3.29315 -4.43059,3.29315z" data-paper-data="{&quot;index&quot;:null}" fill="#ffffff" fill-rule="nonzero" stroke="none" stroke-width="0" stroke-linecap="butt" stroke-linejoin="miter"/><path d="M228.94562,181.2547c-1.60643,-6.08792 2.02654,-12.32541 8.11447,-13.93183c6.08792,-1.60643 12.32541,2.02654 13.93183,8.11447c1.60643,6.08792 -2.02655,12.3254 -8.11447,13.93183c-0.84838,0.22386 -2.10522,5.16642 -2.10522,5.16642c0,0 -2.72784,-1.63903 -3.65374,-2.80022c-0.83568,-1.04807 -1.65877,-3.8624 -1.65877,-3.8624c0,0 -3.05686,0.64661 -4.58674,0.53414c-1.53182,-0.11263 -4.5984,-1.20946 -4.5984,-1.20946c0,0 3.09736,-4.32737 2.67106,-5.94295z" fill="#bfbfbf" fill-rule="nonzero" stroke="none" stroke-width="0" stroke-linecap="butt" stroke-linejoin="miter"/><path d="M232.28833,181.14203l9.69678,5.00965" fill="none" fill-rule="nonzero" stroke="#ffffff" stroke-width="3" stroke-linecap="round" stroke-linejoin="miter"/></g></g></svg>