<svg version="1.1" xmlns="http://www.w3.org/2000/svg" xmlns:xlink="http://www.w3.org/1999/xlink" width="859.94175" height="545.73574" viewBox="0,0,859.94175,545.73574"><g transform="translate(189.97087,92.86787)"><g data-paper-data="{&quot;isPaintingLayer&quot;:true}" fill-rule="nonzero" stroke="none" stroke-linecap="butt" stroke-linejoin="miter" stroke-miterlimit="10" stroke-dasharray="" stroke-dashoffset="0" style="mix-blend-mode: normal"><path d="M-189.97087,452.86787v-545.73574h859.94175v545.73574z" fill="#000000" stroke-width="0"/><text transform="translate(140.81003,23.78) scale(0.62235,0.62235)" font-size="40" xml:space="preserve" fill="#ffffff" fill-rule="nonzero" stroke="none" stroke-width="1" stroke-linecap="butt" stroke-linejoin="miter" stroke-miterlimit="10" stroke-dasharray="" stroke-dashoffset="0" font-family="Sans Serif" font-weight="normal" text-anchor="start" style="mix-blend-mode: normal"><tspan x="0" dy="0">Oh Hello There...</tspan></text><text transform="translate(0,41.78881) scale(0.37555,0.32397)" font-size="40" xml:space="preserve" fill="#ffffff" fill-rule="nonzero" stroke="none" stroke-width="1" stroke-linecap="butt" stroke-linejoin="miter" stroke-miterlimit="10" stroke-dasharray="" stroke-dashoffset="0" font-family="Sans Serif" font-weight="normal" text-anchor="start" style="mix-blend-mode: normal"><tspan x="0" dy="0">This Is eli509/Elijah does incredibox mods typing rn</tspan><tspan x="0" dy="48px">So, I would like to clarify a few things and express that the...</tspan><tspan x="0" dy="48px">main reason I created this Scratch project is that...</tspan><tspan x="0" dy="48px">I have decided to create Incredibox V8 in the Sprunki style.</tspan><tspan x="0" dy="48px">I felt that this project might cheer up NyankoBfLOL.</tspan><tspan x="0" dy="48px">the hacking incident in its entirety.</tspan><tspan x="0" dy="48px">I sincerely apologize, Nyanko, if you have been hacked.</tspan><tspan x="0" dy="48px">You honestly didn't deserve any of that, man, and I know for a fact.</tspan><tspan x="0" dy="48px">Sprunki ruined everything due to popularity which wasn't ever </tspan><tspan x="0" dy="48px">supposed to happen in the first place.</tspan><tspan x="0" dy="48px">Hopefully, this Scratch project I created will cheer you up a bit.</tspan><tspan x="0" dy="48px">Now that being said, enjoy this mod and make sure to</tspan><tspan x="0" dy="48px"> </tspan><tspan x="0" dy="48px">give me credit if you plan to record this mod in any way.</tspan></text><g fill="#ffffff" stroke-width="0.5"><path d="M232.5153,260.57358c3.74407,0 3.74407,3.74407 3.74407,3.74407l-0.53356,4.17275c-1.06836,1.7762 -3.63048,6.39421 -5.30439,7.68754c-6.68255,5.16321 -19.81187,5.89066 -26.92451,1.00001c-4.5885,-3.15506 -7.60642,-7.98117 -9.65215,-12.9674c0,0 -1.39051,-3.47629 2.08577,-4.8668c3.47628,-1.39051 4.86679,2.08577 4.86679,2.08577c3.2712,8.46156 9.04788,11.71654 17.93052,11.13785c2.30753,-0.15033 5.00228,-0.64826 6.89558,-2.13846c1.79742,-1.41474 2.50686,-3.82829 3.68138,-5.79112l-0.53356,-0.32013c0,0 0,-3.74407 3.74407,-3.74407z"/><path d="M278.94675,266.43816c0.04032,-0.65245 0.40687,-3.61813 3.73909,-3.61813c3.74407,0 3.74407,3.74407 3.74407,3.74407l-0.39527,2.42321c-2.03314,4.05234 -4.68759,10.56733 -8.55947,13.27836c-12.17459,8.52447 -21.45692,-6.41473 -25.22292,-15.80868c0,0 -1.39051,-3.47629 2.08577,-4.8668c3.47628,-1.39051 4.86679,2.08577 4.86679,2.08577c1.87833,4.7072 3.84166,10.81172 9.04955,12.85331c1.44645,0.56703 3.33484,0.963 4.66586,-0.20706c2.63463,-2.31603 4.4621,-6.62574 6.02652,-9.88406z"/><path d="M266.96075,289.02853c3.74407,0 3.74407,3.74407 3.74407,3.74407l-0.53356,4.92157c-1.51538,2.50888 -2.01704,5.66527 -3.98285,7.8393c-5.26348,5.821 -14.24523,10.14775 -21.98474,11.17329c-16.43835,2.17821 -39.93599,-8.3019 -40.1433,-26.92942c0,0 0,-3.74407 3.74407,-3.74407c3.74407,0 3.74407,3.74407 3.74407,3.74407c-0.1464,9.5224 7.32726,12.17222 14.56415,16.20522c0.99211,0.55289 1.66058,1.61074 2.68916,2.0924c2.99585,1.40289 6.5531,0.96534 9.85465,1.17254c7.34458,0.46092 16.46581,-2.67672 21.58847,-8.26898c1.79029,-1.95441 2.14749,-4.86076 3.5053,-7.13699l-0.53356,-1.06895c0,0 0,-3.74407 3.74407,-3.74407z"/></g><text transform="translate(115.38004,349.25225) scale(0.5,0.5)" font-size="40" xml:space="preserve" fill="#ffffff" fill-rule="nonzero" stroke="none" stroke-width="1" stroke-linecap="butt" stroke-linejoin="miter" stroke-miterlimit="10" stroke-dasharray="" stroke-dashoffset="0" font-family="Sans Serif" font-weight="normal" text-anchor="start" style="mix-blend-mode: normal"><tspan x="0" dy="0">Tap Anywhere to continue</tspan></text></g></g></svg>