<svg version="1.1" xmlns="http://www.w3.org/2000/svg" xmlns:xlink="http://www.w3.org/1999/xlink" width="143.76061" height="235.38028" viewBox="0,0,143.76061,235.38028"><g transform="translate(-156.86002,-72.465)"><g data-paper-data="{&quot;isPaintingLayer&quot;:true}" fill-rule="nonzero" stroke-linejoin="miter" stroke-miterlimit="10" stroke-dasharray="" stroke-dashoffset="0" style="mix-blend-mode: normal"><path d="M291.26562,134.83478c0.06068,0.66519 3.72939,7.0017 5.35398,9.92091c2.73674,4.91766 4.00104,7.12459 4.00104,7.12459c0,0 -2.78783,-1.4195 -5.12798,-3.11376c-2.30164,-1.66641 -4.1554,-3.61633 -4.24888,-2.63995c-0.22346,2.33395 0.39927,10.93136 -2.30197,20.21036c-2.67126,9.17602 -8.66804,19.04761 -8.66804,19.04761c0,0 -2.76276,-5.05631 -4.04654,-2.78544c-5.25442,9.29448 -9.85864,16.27263 -9.85864,16.27263c0,0 -2.852,-4.73764 -4.80399,-3.44541c-8.83104,5.84623 -19.26111,9.70097 -30.80378,10.7541c-12.55442,1.14543 -24.99356,-1.3008 -35.99079,-6.28331c-2.85792,-1.29484 -0.42414,4.44482 -0.42414,4.44482c0,0 -5.53135,-2.9407 -10.67624,-6.89288c0.80373,-0.58524 1.55904,-1.22736 2.25669,-1.92725c4.26827,-4.28208 6.88967,-9.55185 8.49865,-15.30011c0.78221,-2.79453 0.08094,-6.2295 0.8048,-8.9952c0.48353,-1.84739 2.19036,-4.18479 2.91323,-6.03391c1.01753,-2.60286 0.98194,-5.51114 1.79017,-8.11709c1.24569,-4.0165 4.9806,-8.07128 6.89676,-12.07538c1.12171,-2.34397 1.03373,-5.05913 1.99721,-7.37769c2.08137,-5.00867 4.40067,-10.50378 6.93448,-15.31177c3.44801,-6.5427 9.09904,-8.97976 15.11467,-12.44606c5.00769,-2.88551 10.66001,-9.04949 14.00664,-13.52592c1.83916,-2.46006 2.90482,-5.59503 4.80712,-7.9583c1.10666,-1.3748 2.27162,-2.67483 3.43566,-3.95213c1.04079,-0.80908 -4.36989,-5.63393 -3.47231,-6.59202c0.62517,-0.66733 2.01762,-1.15455 4.29958,-0.81726c0.67173,0.09928 4.1665,2.22063 4.32111,2.00018c19.70367,11.5432 30.93735,33.30123 32.99151,55.81563z" fill="#000000" stroke="#000000" stroke-width="0" stroke-linecap="butt"/><g stroke-width="0" stroke-linecap="butt"><path d="M206.05944,307.74998l15.14285,-131.8421l37.78325,-0.15789l13.57389,132z" fill="#000000" stroke="#000000"/><path d="M237.86052,307.84528v-137.69052h2.89786v137.69052z" fill="#d4ecfe" stroke="none"/><g data-paper-data="{&quot;index&quot;:null}" stroke="none"><path d="M260.79949,267.87462c-2.82971,2.26974 -5.76,4.02615 -7.07092,4.26265c-3.41372,0.61588 -6.73254,-0.90333 -7.40741,-1.85325c-1.02654,-1.44494 -3.78651,-3.4163 -4.9271,-5.49736c-1.61951,-2.95484 -1.51265,-6.01085 -1.7779,-7.06306c-1.33569,-5.29849 2.84048,-13.39498 1.79618,-15.19346c-0.18906,-0.32559 5.8989,-4.25338 6.82929,-7.43072c2.94376,-10.05294 10.38032,-19.81725 10.38032,-19.81725l8.58874,-2.83019c0,0 3.38234,-1.23873 5.15595,-1.59188c1.99144,-0.39653 6.21506,-0.67228 6.21506,-0.67228c0,0 0.10813,5.79893 -0.67463,13.44219c-0.40573,3.96176 -1.4199,8.41904 -2.03172,12.8211c-0.59626,4.29009 -1.65683,8.78347 -3.28624,13.06181c-1.47415,3.87067 -3.52839,7.65102 -4.04417,9.38718c-0.73548,2.47576 -4.19751,6.12863 -7.74548,8.9745z" fill="#031718"/><path d="M247.52039,262.28198c-3.30193,-2.31725 -6.18033,-6.84652 -6.86149,-9.5486c-1.33569,-5.29849 -1.44923,-14.10344 -2.49353,-15.9019c-0.18906,-0.32559 5.8989,-4.25338 6.82929,-7.43072c2.94376,-10.05294 10.38032,-19.81725 10.38032,-19.81725l8.58874,-2.83019c0,0 3.38237,-1.23873 5.15596,-1.59188c1.99144,-0.39653 6.21506,-0.67228 6.21506,-0.67228c0,0 -0.91416,13.36848 -2.70635,26.26329c-1.13571,8.17141 -6.24454,18.79382 -7.3304,22.449c-1.32208,4.45031 -4.55173,8.04242 -7.71301,9.59223c-2.35259,1.15336 -5.00509,0.80687 -5.00509,0.80687c0,0 -3.31697,-0.09569 -5.05949,-1.31856z" fill="#2c4c45"/><path d="M247.68595,250.4716c-2.80465,-2.75464 -5.2322,-8.46436 -7.09012,-11.66401c-0.18906,-0.32559 0.49308,18.41702 0.06583,24.12662c-0.06779,0.90588 -2.31276,0.1266 -2.34043,0.12411c-0.45049,-0.04054 0.03042,-25.11239 -0.03211,-25.79354c-0.18483,-2.01308 -0.24764,-8.37813 0.68276,-11.55548c2.94376,-10.05294 10.38032,-19.81725 10.38032,-19.81725l8.58874,-2.83019l11.371,-2.26416c0,0 -0.03098,13.72271 -1.82317,26.61751c-1.13571,8.17141 -3.84736,16.07811 -4.93322,19.73329c-2.30595,7.76219 -9.81625,6.85688 -9.81625,6.85688c0,0 -2.75288,-1.27431 -5.05336,-3.53379z" fill="#789396"/><path d="M254.43287,246.87331c-8.90435,0.70447 -9.55647,-20.71703 -9.55647,-20.71703l0.3629,-19.69816l16.93554,-1.3585l-0.72582,21.28307c0,0 -0.02502,19.93751 -7.01614,20.49062z" fill="#a7bccd"/></g><g stroke="none"><path d="M210.22172,258.85559c-0.51577,-1.73615 -2.57002,-5.51651 -4.04417,-9.38718c-1.62941,-4.27833 -2.68998,-8.7717 -3.28624,-13.06181c-0.61182,-4.40208 -1.62599,-8.85934 -2.03172,-12.8211c-0.78276,-7.64325 -0.67463,-13.44219 -0.67463,-13.44219c0,0 4.22361,0.27575 6.21506,0.67228c1.77359,0.35315 5.15595,1.59188 5.15595,1.59188l8.58874,2.83019c0,0 7.43658,9.7643 10.38032,19.81725c0.93041,3.17734 7.01835,7.10513 6.82929,7.43072c-1.04431,1.79847 3.13187,9.89496 1.79618,15.19346c-0.26525,1.05219 -0.15839,4.10822 -1.7779,7.06306c-1.14061,2.08106 -3.90056,4.05242 -4.9271,5.49736c-0.67487,0.94992 -3.99369,2.46912 -7.40739,1.85325c-1.31092,-0.2365 -4.24119,-1.99291 -7.07092,-4.26265c-3.54798,-2.84588 -7.01001,-6.49874 -7.74548,-8.9745z" fill="#031718"/><path d="M226.18693,263.55601c0,0 -2.6525,0.34648 -5.00509,-0.80687c-3.16128,-1.54982 -6.39095,-5.14191 -7.71301,-9.59223c-1.08586,-3.65517 -6.1947,-14.27758 -7.33041,-22.449c-1.79219,-12.8948 -2.70634,-26.26329 -2.70634,-26.26329c0,0 4.22361,0.27575 6.21506,0.67228c1.77359,0.35315 5.15595,1.59188 5.15595,1.59188l8.58874,2.83019c0,0 7.43657,9.7643 10.38032,19.81725c0.93041,3.17734 7.01836,7.10513 6.82931,7.43072c-1.04431,1.79847 -1.15784,10.60341 -2.49353,15.9019c-0.68117,2.70207 -3.55955,7.23134 -6.86149,9.5486c-1.74251,1.22287 -5.05949,1.31856 -5.05949,1.31856z" fill="#2c4c45"/><path d="M226.0275,253.96086c0,0 -7.5103,0.90531 -9.81625,-6.85688c-1.08586,-3.65517 -3.7975,-11.56188 -4.93322,-19.73329c-1.79219,-12.8948 -1.82317,-26.61751 -1.82317,-26.61751l11.371,2.26416l8.58874,2.83019c0,0 7.43657,9.7643 10.38032,19.81725c0.93041,3.17734 0.86759,9.54238 0.68276,11.55548c-0.06255,0.68115 0.41837,25.75299 -0.03211,25.79354c-0.02769,0.00249 -2.27265,0.78176 -2.34043,-0.12411c-0.42725,-5.70959 0.25488,-24.45221 0.06583,-24.12662c-1.85792,3.19964 -4.28548,8.90937 -7.09012,11.66401c-2.30049,2.25948 -5.05336,3.53379 -5.05336,3.53379z" fill="#789396"/><path d="M217.31779,226.33816l-0.7258,-21.28307l16.93553,1.3585l0.36291,19.69816c0,0 -0.65213,21.42151 -9.55647,20.71704c-6.99114,-0.5531 -7.01614,-20.49062 -7.01614,-20.49062z" fill="#a7bccd"/></g><g stroke="none"><path d="M218.03627,200.45174c0,-0.79453 -1.95838,-2.95796 -1.83482,-3.71757c1.11538,-6.85671 9.08741,-10.70693 16.25932,-10.70693c7.96643,0 14.42449,4.00963 14.42449,11.97605c0,0.71595 -0.49274,13.58949 -0.58169,13.8089c-1.93988,4.78556 2.67859,13.62621 -1.02453,16.88156c-0.99383,0.87367 -5.25422,1.98404 -8.0291,1.54355c-0.8339,-0.13239 -4.91604,-0.38615 -7.49161,-2.22335c-4.87431,-3.47692 -9.29947,-10.15159 -10.85504,-15.02945c-1.57411,-4.93598 -0.86702,-9.35939 -0.86702,-12.53276z" fill="#031718"/><path d="M230.6762,201.59464c0,-7.96643 6.45807,-14.42449 14.42449,-14.42449c7.96643,0 14.42449,4.00963 14.42449,11.97605c0,0.71595 -0.49274,13.58949 -0.58169,13.8089c-2.91308,7.18633 -10.4814,16.31531 -14.69444,16.37077c-4.79265,0.06309 -10.3283,-7.74316 -12.70584,-15.19846c-1.57411,-4.93598 -0.86702,-9.35939 -0.86702,-12.53276z" fill="#142d2b"/></g></g><path d="M159.50841,143.84347c-3.0258,-33.16411 23.16223,-62.66205 58.49262,-65.88548c35.33038,-3.22345 66.42422,21.04826 69.45002,54.21234c3.0258,33.16411 -23.16223,62.66205 -58.49262,65.88548c-35.33038,3.22345 -66.42422,-21.04826 -69.45002,-54.21234z" fill="#ffffff" stroke="#000000" stroke-width="2" stroke-linecap="butt"/><path d="M160.23337,143.83139c-0.06615,-0.72498 10.26595,55.21501 68.27143,50.94186c55.4218,-4.08281 57.98525,-63.48427 58.07782,-62.46963c2.98064,32.6691 -22.88732,61.73322 -57.7777,64.91653c-34.89037,3.18331 -65.59091,-20.71965 -68.57155,-53.38875z" fill="#e6e6e6" stroke="#000000" stroke-width="0" stroke-linecap="butt"/><path d="M173.04163,143.03998c-1.17827,-12.91436 8.33572,-24.33871 21.25008,-25.51698c12.91436,-1.17827 24.33871,8.33572 25.51698,21.25008c1.17827,12.91436 -8.33572,24.33871 -21.25008,25.51698c-12.91436,1.17827 -24.33871,-8.33572 -25.51698,-21.25008z" fill="#ffffff" stroke="#000000" stroke-width="2" stroke-linecap="butt"/><path d="M180.05272,142.12355c-0.82938,-9.09032 5.86744,-17.13181 14.95775,-17.96119c9.09032,-0.82938 17.13182,5.86744 17.96119,14.95776c0.82938,9.09032 -5.86744,17.13182 -14.95776,17.96119c-9.09032,0.82938 -17.13181,-5.86745 -17.96118,-14.95776z" fill="#000000" stroke="none" stroke-width="0" stroke-linecap="butt"/><path d="M252.59253,156.86013c-12.91436,1.17827 -24.33871,-8.33572 -25.51698,-21.25008c-1.17827,-12.91436 8.33572,-24.33871 21.25008,-25.51698c12.91436,-1.17827 24.33871,8.33572 25.51698,21.25008c1.17827,12.91436 -8.33572,24.33871 -21.25008,25.51698z" data-paper-data="{&quot;index&quot;:null}" fill="#ffffff" stroke="#000000" stroke-width="2" stroke-linecap="butt"/><path d="M251.9608,157.03411c-9.09031,0.82938 -17.13181,-5.86745 -17.96118,-14.95776c-0.82938,-9.09032 5.86744,-17.13182 14.95775,-17.96119c9.09031,-0.82938 17.13181,5.86745 17.96118,14.95776c0.82938,9.09032 -5.86744,17.13182 -14.95775,17.96119z" data-paper-data="{&quot;index&quot;:null}" fill="#000000" stroke="none" stroke-width="0" stroke-linecap="butt"/><path d="M173.04163,143.03998c-1.17827,-12.91436 8.33572,-24.33871 21.25008,-25.51698c12.91436,-1.17827 24.33871,8.33572 25.51698,21.25008c0,0 -46.65516,5.49336 -46.76707,4.2669z" fill="#ffffff" stroke="#000000" stroke-width="2" stroke-linecap="butt"/><path d="M183.00947,113.20244c0,0 6.21153,-5.75741 11.17022,-7.40912c4.9587,-1.6517 12.34665,-0.4242 12.34665,-0.4242c0,0 -8.01035,0.67032 -11.83979,1.94588c-4.00191,1.33302 -11.67708,5.88745 -11.67708,5.88745z" fill="#000000" stroke="none" stroke-width="0" stroke-linecap="butt"/><path d="M248.02578,108.92539c-3.99705,-0.5615 -11.99645,0.22887 -11.99645,0.22887c0,0 7.04383,-2.54422 12.21957,-1.81715c5.17574,0.72707 12.3266,5.26533 12.3266,5.26533c0,0 -8.37265,-3.09026 -12.54973,-3.67706z" data-paper-data="{&quot;index&quot;:null}" fill="#000000" stroke="none" stroke-width="0" stroke-linecap="butt"/><path d="M268.21187,88.41206c1.0284,0.80071 -10.61577,6.57265 -17.50105,9.14945c-9.95592,3.72599 -8.17228,-11.28909 0.34924,-15.22746c4.19185,-1.93735 15.91819,5.11751 17.15182,6.07801z" fill="#000000" stroke="none" stroke-width="0" stroke-linecap="butt"/><path d="M255.26236,75.40173c0.01472,0.16131 4.56753,3.17227 -0.53696,8.07409c-1.98574,1.90687 -5.47109,17.96033 -8.09903,20.33683c-1.79066,1.6193 -14.62879,15.0756 -16.63771,16.72044c-1.61487,1.32222 0.00315,8.9947 -1.63899,10.23109c-1.78741,1.3458 -3.67232,4.77664 -5.50393,5.95666c-1.4329,0.92316 1.20224,26.01176 -0.24254,26.82349c-3.05217,1.71482 -7.77659,11.7101 -10.93101,12.15727c-1.2018,0.17037 -1.634,2.83259 -4.63449,4.81114c-4.92222,3.24577 -11.44486,5.77011 -13.33179,5.21239c-0.58809,-0.17382 -0.41407,1.94239 -0.70462,4.60635c-0.13468,1.23494 0.37355,2.87249 -6.29419,3.98386c-3.67911,0.61324 -4.61285,-0.74921 -7.79027,-0.93774c-3.63275,-0.21556 -3.46026,-1.5587 -3.73457,-2.33788c-0.56519,-1.60555 -3.21209,-2.84638 -1.69829,-4.98246c0.41207,-0.58146 1.30086,-7.04197 3.67947,-15.41743c3.45469,-12.16459 -3.63381,-19.01354 -3.90163,-18.9891c-2.11843,0.19328 61.83209,-69.26515 61.75835,-70.07343c-0.03425,-0.37535 3.33185,-2.9722 6.76692,-4.49439c1.78853,-0.79254 5.40476,-2.34844 8.06478,-2.62726c3.23256,-0.33884 5.38881,0.7086 5.41049,0.94608z" fill="#2c4c45" stroke="none" stroke-width="0" stroke-linecap="butt"/><path d="M157.13537,139.95605c-3.08811,-33.84696 20.06457,-59.10743 56.1224,-62.39725c19.53,-1.78187 13.3084,1.95225 18.06193,3.1137c4.02282,0.98292 6.87295,5.95787 10.31683,2.8945c1.08901,-0.96866 2.02706,-1.65091 2.82663,-2.08834c7.6669,-4.19431 2.5979,14.12217 -4.27404,18.27062c-2.36195,1.42585 -3.19945,5.55288 -7.6356,9.39442c-5.75086,4.98001 -6.0182,16.26057 -12.30988,18.30598c-2.50019,0.8128 0.08218,3.61899 0.31975,10.42968c0.31583,9.05498 -0.9517,20.73155 -2.50669,23.59337c-2.35613,4.33625 -6.80447,14.25834 -13.4681,16.7284c-5.63832,2.08999 -9.9469,2.75439 -12.46125,6.42588c-2.27528,3.3224 -3.42067,4.16475 -5.17466,6.48595c-2.21192,2.92724 -26.72919,-17.30998 -29.81729,-51.15691z" fill="#8fa7b3" stroke="#000000" stroke-width="0" stroke-linecap="butt"/><path d="M216.83234,72.71399c20.48875,-1.86933 34.9082,7.38432 34.93174,7.879c0.17875,3.75621 -3.33038,12.74722 -7.47862,18.28408c-1.58418,2.11449 -1.9915,5.75739 -3.68971,7.13914c-1.87378,1.5246 -5.05322,0.81799 -7.1215,4.03186c-6.87911,10.68946 -6.69956,19.5052 -16.67845,20.09904c-33.7662,2.00944 -45.53356,-22.49429 -49.45176,-28.54616c9.84009,-15.02672 31.577,-27.25278 49.48831,-28.88697z" fill="#bed3e5" stroke="#000000" stroke-width="0" stroke-linecap="butt"/><path d="M173.04163,143.03998c-1.17827,-12.91436 8.33572,-24.33871 21.25008,-25.51698c12.91436,-1.17827 24.33871,8.33572 25.51698,21.25008c1.17827,12.91436 -8.33572,24.33871 -21.25008,25.51698c-12.91436,1.17827 -24.33871,-8.33572 -25.51698,-21.25008z" fill="#000000" stroke="#000000" stroke-width="0" stroke-linecap="butt"/><path d="M180.05272,142.12355c-0.82938,-9.09032 5.86744,-17.13181 14.95775,-17.96119c9.09032,-0.82938 17.13182,5.86744 17.96119,14.95776c0.82938,9.09032 -5.86744,17.13182 -14.95776,17.96119c-9.09032,0.82938 -17.13181,-5.86745 -17.96118,-14.95776z" fill="#de6000" stroke="none" stroke-width="0" stroke-linecap="butt"/><path d="M215.13013,189.71231c-5.27342,0.61701 -5.05156,-8.20501 -5.05156,-8.20501c0,0 10.03639,-3.5835 14.15125,-4.22289c4.15536,-0.64568 12.74238,-0.56317 12.74238,-0.56317c0,0 -12.79814,11.93289 -21.84207,12.99107z" fill="#ffffff" stroke="#000000" stroke-width="2" stroke-linecap="round"/><path d="M235.59703,177.64631c0,0 -12.70544,5.59039 -17.30982,5.93173c-4.39154,0.32555 -7.43047,-1.24413 -7.43047,-1.24413" fill="none" stroke="#000000" stroke-width="0.5" stroke-linecap="round"/><path d="M227.65576,138.91665c-3.0421,-12.60614 4.7111,-25.29155 17.31723,-28.33364c12.60614,-3.0421 25.29155,4.7111 28.33364,17.31723c0.14261,0.59096 -10.83974,5.29756 -22.30746,7.90807c-11.42908,2.60171 -23.34342,3.10834 -23.34342,3.10834z" data-paper-data="{&quot;index&quot;:null}" fill="#ffffff" stroke="#000000" stroke-width="2" stroke-linecap="butt"/></g></g></svg>