<svg version="1.1" xmlns="http://www.w3.org/2000/svg" xmlns:xlink="http://www.w3.org/1999/xlink" width="492" height="367.5" viewBox="0,0,492,367.5"><g transform="translate(5.5,5.5)"><g data-paper-data="{&quot;isPaintingLayer&quot;:true}" fill-rule="nonzero" stroke-linejoin="miter" stroke-miterlimit="10" stroke-dasharray="" stroke-dashoffset="0" style="mix-blend-mode: normal"><path d="M-5.5,362v-310h491v310z" fill="#ffffff" stroke="none" stroke-width="0" stroke-linecap="butt"/><path d="M-5.5,55.08069v-60.58069h492v60.58069z" fill="#be4c6d" stroke="none" stroke-width="0" stroke-linecap="butt"/><path d="M19.5,123h441" fill="none" stroke="#7f7f7f" stroke-width="0.5" stroke-linecap="round"/><text transform="translate(19.4442,99.47992) scale(0.45666,0.45666)" font-size="40" xml:space="preserve" fill="#000000" fill-rule="nonzero" stroke="none" stroke-width="1" stroke-linecap="butt" stroke-linejoin="miter" stroke-miterlimit="10" stroke-dasharray="" stroke-dashoffset="0" font-family="&quot;Microsoft YaHei&quot;, &quot;微软雅黑&quot;, STXihei, &quot;华文细黑&quot;" font-weight="normal" text-anchor="start" style="mix-blend-mode: normal"><tspan x="0" dy="0">Dark mode</tspan></text><path d="M19.5,181h441" fill="none" stroke="#7f7f7f" stroke-width="0.5" stroke-linecap="round"/><text transform="translate(19.4442,157.47992) scale(0.45666,0.45666)" font-size="40" xml:space="preserve" fill="#000000" fill-rule="nonzero" stroke="none" stroke-width="1" stroke-linecap="butt" stroke-linejoin="miter" stroke-miterlimit="10" stroke-dasharray="" stroke-dashoffset="0" font-family="&quot;Microsoft YaHei&quot;, &quot;微软雅黑&quot;, STXihei, &quot;华文细黑&quot;" font-weight="normal" text-anchor="start" style="mix-blend-mode: normal"><tspan x="0" dy="0">Update server backup</tspan></text><path d="M223.74193,151.23181c0,-6.08348 4.93165,-11.01514 11.01514,-11.01514c6.08348,0 11.01513,4.93165 11.01513,11.01514c0,6.08348 -4.93165,11.01513 -11.01513,11.01513c-6.08348,0 -11.01514,-4.93165 -11.01514,-11.01513z" fill="#7f7f7f" stroke="none" stroke-width="0" stroke-linecap="butt"/><text transform="translate(229.83193,157.56752) scale(0.53177,0.44726)" font-size="40" xml:space="preserve" fill="#ffffff" fill-rule="nonzero" stroke="#ffffff" stroke-width="1" stroke-linecap="butt" stroke-linejoin="miter" stroke-miterlimit="10" stroke-dasharray="" stroke-dashoffset="0" font-family="&quot;ヒラギノ角ゴ Pro W3&quot;, &quot;Hiragino Kaku Gothic Pro&quot;, Osaka, &quot;メイリオ&quot;, Meiryo, &quot;ＭＳ Ｐゴシック&quot;, &quot;MS PGothic&quot;" font-weight="normal" text-anchor="start" style="mix-blend-mode: normal"><tspan x="0" dy="0">?</tspan></text><g data-paper-data="{&quot;index&quot;:null}" fill="none" stroke-linecap="round"><path d="M442.61945,93.5h-60" stroke="#b3b3b3" stroke-width="35"/><path d="M397.61945,93.50001h-15" stroke="#ffffff" stroke-width="26.5"/></g><path d="M382.61945,151h60" fill="#7f7f7f" stroke="#808080" stroke-width="35" stroke-linecap="round"/><path d="M382.61945,151h60" fill="#7f7f7f" stroke="#ffffff" stroke-width="34" stroke-linecap="round"/><text transform="translate(377.4442,157.97992) scale(0.45666,0.45666)" font-size="40" xml:space="preserve" fill="#7f7f7f" fill-rule="nonzero" stroke="none" stroke-width="1" stroke-linecap="butt" stroke-linejoin="miter" stroke-miterlimit="10" stroke-dasharray="" stroke-dashoffset="0" font-family="&quot;Microsoft YaHei&quot;, &quot;微软雅黑&quot;, STXihei, &quot;华文细黑&quot;" font-weight="normal" text-anchor="start" style="mix-blend-mode: normal"><tspan x="0" dy="0">UPDATE</tspan></text><g stroke-width="2"><path d="M9.50127,27.22868c0,-10.84593 8.7806,-19.63829 19.61204,-19.63829c10.83143,0 19.61203,8.79236 19.61203,19.63829c0,10.84593 -8.7806,19.63829 -19.61203,19.63829c-10.83143,0 -19.61204,-8.79235 -19.61204,-19.63829z" fill="#da577c" stroke="none" stroke-linecap="butt"/><path d="M32.00245,34.41008l-8.2014,-7.18582l8.91457,-7.81068" fill="none" stroke="#ffffff" stroke-linecap="round"/></g><text transform="translate(56.98386,33.84345) scale(0.43728,0.41678)" font-size="40" xml:space="preserve" fill="#ffffff" fill-rule="nonzero" stroke="none" stroke-width="1" stroke-linecap="butt" stroke-linejoin="miter" stroke-miterlimit="10" stroke-dasharray="" stroke-dashoffset="0" font-family="&quot;Microsoft YaHei&quot;, &quot;微软雅黑&quot;, STXihei, &quot;华文细黑&quot;" font-weight="normal" text-anchor="start" style="mix-blend-mode: normal"><tspan x="0" dy="0">SETTINGS</tspan></text></g></g></svg>