<svg version="1.1" xmlns="http://www.w3.org/2000/svg" xmlns:xlink="http://www.w3.org/1999/xlink" width="35.14907" height="35.14876" viewBox="0,0,35.14907,35.14876"><g transform="translate(-222.41345,-162.41345)"><g data-paper-data="{&quot;isPaintingLayer&quot;:true}" stroke-miterlimit="10" stroke-dasharray="" stroke-dashoffset="0" style="mix-blend-mode: normal"><path d="M229.48312,162.41346h20.03379c3.9166,0 7.06966,3.15307 7.06966,7.06966v20.03379c0,3.91659 -3.15306,7.06966 -7.06966,7.06966h-20.03379c-3.91659,0 -7.06966,-3.15307 -7.06966,-7.06966v-20.03379c0,-3.91659 3.15307,-7.06966 7.06966,-7.06966z" fill-opacity="0.59992" fill="#5d7176" fill-rule="evenodd" stroke="none" stroke-width="4.43922" stroke-linecap="round" stroke-linejoin="round"/><path d="M226.6113,173.60723c0,-2.99608 2.42881,-5.42489 5.42489,-5.42489c2.99608,0 5.42489,2.42881 5.42489,5.42489c0,2.99608 -2.42881,5.42489 -5.42489,5.42489c-2.99608,0 -5.42489,-2.42881 -5.42489,-5.42489z" fill="none" fill-rule="nonzero" stroke="#000000" stroke-width="3" stroke-linecap="butt" stroke-linejoin="miter"/><path d="M254.634,173.42651c0,3.74511 -11.98567,19.87161 -15.7145,19.87161c-0.72175,0 -2.92823,-0.96313 -5.45341,-2.54965c-1.54754,-0.97229 -3.50935,-1.88416 -4.45643,-3.81803c-2.06372,-4.21398 -0.8075,-11.48578 1.39733,-18.81613c1.45161,-4.82612 11.78512,1.89215 11.78512,1.89215c0,0 1.96142,-3.36107 5.69024,-3.36107c3.72882,0 6.75163,3.03601 6.75163,6.78111z" fill="#5d7176" fill-rule="nonzero" stroke="none" stroke-width="0" stroke-linecap="butt" stroke-linejoin="miter"/><path d="M250.32102,174.95449l-5.19702,-2.59851" fill="none" fill-rule="nonzero" stroke="#000000" stroke-width="2" stroke-linecap="round" stroke-linejoin="miter"/><path d="M231.0771,186.45078c0,0 7.40986,-7.26681 8.74326,-6.50661c1.80794,1.03073 -0.81332,10.97991 -0.81332,10.97991" fill="none" fill-rule="nonzero" stroke="#000000" stroke-width="4.5" stroke-linecap="round" stroke-linejoin="miter"/><path d="M241.3625,171.50838c-1.26577,1.99104 -3.91807,2.57124 -5.92406,1.29596c-2.006,-1.27528 -2.60607,-3.92317 -1.3403,-5.9142c1.26577,-1.99104 3.91808,-2.57125 5.92407,-1.29596c2.006,1.27528 2.60607,3.92318 1.3403,5.9142z" fill="#000000" fill-rule="nonzero" stroke="#000000" stroke-width="1.5" stroke-linecap="butt" stroke-linejoin="miter"/><path d="M239.44435,170.28895c-0.59732,0.93957 -1.84896,1.21337 -2.79559,0.61156c-0.94664,-0.60181 -1.22982,-1.85136 -0.6325,-2.79093c0.59732,-0.93957 1.84896,-1.21338 2.79559,-0.61157c0.94664,0.60181 1.22982,1.85137 0.6325,2.79094z" fill="none" fill-rule="nonzero" stroke="#5d7176" stroke-width="2" stroke-linecap="butt" stroke-linejoin="miter"/><path d="M257.56252,169.83175v20.49804c0,4.00745 -3.22497,7.23243 -7.23242,7.23243h-20.5c-3.66107,0 -6.66147,-2.69385 -7.1543,-6.21484c0.7952,3.03475 3.54108,5.26367 6.83204,5.26367h20.0332c3.9166,0 7.07032,-3.15372 7.07032,-7.07031v-20.03321c0,-3.2976 -2.23906,-6.0451 -5.28321,-6.83398c3.52994,0.48496 6.23438,3.49081 6.23438,7.15821z" fill-opacity="0.50151" fill="#000000" fill-rule="evenodd" stroke="none" stroke-width="4.54219" stroke-linecap="round" stroke-linejoin="round"/></g></g></svg>